<?xml version="1.0" standalone="no"?>
<!DOCTYPE svg PUBLIC "-//W3C//DTD SVG 20010904//EN"
 "http://www.w3.org/TR/2001/REC-SVG-20010904/DTD/svg10.dtd">
<svg version="1.0" xmlns="http://www.w3.org/2000/svg"
 width="600.000000pt" height="600.000000pt" viewBox="0 0 600.000000 600.000000"
 preserveAspectRatio="xMidYMid meet">
<g transform="translate(0.000000,600.000000) scale(0.050000,-0.050000)"
fill="#000000" stroke="none">
<path d="M6552 9889 c-135 -25 -298 -90 -332 -131 -5 -7 -74 -54 -153 -104
-195 -124 -260 -334 -104 -334 22 0 65 -17 94 -37 45 -31 87 -36 273 -32 147
3 233 -4 260 -20 36 -23 112 -37 308 -60 37 -5 77 -18 89 -30 11 -11 60 -21
108 -21 51 0 100 -12 118 -30 38 -38 75 -39 60 -1 -26 67 41 52 85 -19 16 -25
21 -28 15 -7 -8 26 4 33 58 33 41 0 64 -8 56 -20 -18 -31 37 -57 68 -32 19 16
35 13 60 -9 19 -17 94 -37 165 -44 72 -8 157 -21 190 -31 33 -9 108 -22 168
-29 59 -7 117 -18 130 -26 12 -7 53 -16 92 -18 38 -3 93 -10 120 -17 28 -7 77
-17 110 -22 33 -6 93 -23 133 -38 40 -15 77 -23 83 -17 6 6 28 -7 48 -27 26
-26 63 -37 117 -35 56 2 87 -8 105 -34 15 -20 39 -37 55 -37 16 0 29 -13 29
-30 0 -18 17 -29 45 -27 58 3 155 -36 155 -63 0 -11 18 -20 40 -20 31 0 41
-14 43 -65 2 -47 5 -53 11 -20 5 25 17 45 27 45 18 0 27 -31 20 -68 -1 -10 18
-4 45 13 39 26 47 27 47 3 0 -15 -7 -28 -15 -28 -23 0 -3 -85 24 -102 13 -7
18 -28 12 -45 -8 -22 -3 -28 18 -19 17 6 26 24 20 39 -6 15 -2 27 9 27 10 0
19 18 19 40 0 22 9 40 20 40 11 0 20 -14 20 -31 0 -17 9 -26 20 -19 11 7 20 3
20 -9 0 -11 -13 -21 -28 -21 -15 0 -33 -13 -39 -30 -7 -16 -3 -30 8 -30 10 0
19 8 19 18 0 10 30 17 67 16 68 -2 88 -74 21 -74 -16 0 -28 -10 -28 -21 0 -12
-19 -17 -45 -11 -25 7 -32 6 -17 -1 21 -9 16 -19 -20 -41 l-48 -28 60 9 c33 5
76 0 96 -10 28 -15 43 -12 63 14 14 20 35 29 48 21 14 -9 23 -1 23 18 0 61 35
11 47 -68 7 -43 18 -93 25 -110 15 -39 -25 -42 -62 -5 -17 17 -20 37 -8 55 44
71 -22 83 -72 13 -31 -44 -33 -44 -61 -6 -16 21 -29 30 -29 20 0 -11 -9 -6
-19 11 -15 23 -19 20 -16 -14 2 -24 9 -39 17 -35 7 5 25 -5 38 -21 14 -17 41
-30 61 -30 100 0 127 -59 67 -150 -34 -52 37 -108 105 -82 14 6 38 -2 52 -16
15 -15 46 -33 70 -40 24 -8 49 -32 56 -54 7 -22 32 -48 56 -58 35 -14 29 -17
-33 -15 -56 1 -73 9 -65 29 18 47 -91 126 -138 101 -28 -15 -41 -14 -46 1 -10
30 -65 6 -65 -28 0 -15 11 -26 25 -23 14 3 22 -10 19 -30 -3 -20 1 -34 10 -31
9 2 36 -6 59 -20 34 -19 46 -18 54 1 5 14 11 15 11 4 1 -12 -11 -39 -27 -60
-28 -36 -30 -37 -30 -3 -1 20 -10 31 -21 24 -12 -7 -16 -21 -10 -30 15 -24
-12 -37 -99 -48 -88 -11 -110 -26 -64 -44 42 -16 43 -48 1 -48 -26 0 -28 -6
-10 -27 13 -16 17 -54 10 -90 -12 -56 -9 -62 23 -50 30 11 33 7 20 -25 -9 -21
-19 -56 -22 -78 -3 -22 -7 -40 -9 -40 -2 0 -6 -17 -10 -37 -5 -28 2 -34 31
-27 22 6 39 2 39 -8 0 -10 -7 -18 -16 -18 -28 0 -61 -120 -52 -192 5 -39 2
-67 -7 -61 -8 5 -16 -17 -17 -49 -2 -46 7 -58 40 -60 38 -2 36 -4 -10 -23 -40
-16 -62 -52 -100 -161 -49 -143 -251 -502 -359 -638 -33 -40 -59 -83 -59 -94
0 -11 -11 -27 -25 -36 -14 -9 -103 -107 -199 -218 -949 -1106 -2262 -1816
-3736 -2021 -324 -45 -975 -46 -2050 -1 -1076 45 -1091 45 -1111 13 -42 -69
-54 -1171 -12 -1212 9 -10 162 -26 340 -37 l323 -21 -60 -35 c-84 -50 2266
-10 2770 48 1938 220 3878 1460 5005 3198 1053 1624 264 3700 -1611 4238 -777
223 -2034 384 -2422 311z m1691 -279 c527 -89 995 -238 1184 -378 35 -25 77
-52 93 -59 36 -15 99 -55 132 -83 13 -11 43 -33 68 -50 25 -16 84 -68 131
-115 48 -48 92 -77 99 -65 7 11 26 20 42 20 24 0 24 -8 -5 -51 -33 -51 -33
-51 24 -45 41 4 58 -3 59 -24 0 -16 38 -48 85 -69 47 -22 85 -50 85 -63 0 -27
-48 -50 -85 -41 -14 4 -18 3 -9 -2 9 -5 6 -21 -7 -36 -18 -22 -9 -25 49 -15
58 9 72 5 72 -21 0 -20 -18 -34 -45 -36 l-45 -2 45 -9 c25 -5 45 -22 45 -37 0
-16 9 -29 20 -29 12 0 16 23 8 55 l-12 55 60 -68 c33 -37 56 -79 51 -92 -5
-14 5 -30 22 -37 18 -7 31 -36 31 -67 1 -44 5 -49 20 -26 20 31 29 -4 21 -84
-2 -18 20 -49 48 -67 53 -35 69 -73 27 -64 -30 6 -35 -50 -7 -70 12 -8 -10
-15 -49 -16 -62 -1 -65 -4 -25 -20 64 -25 109 -3 93 46 -8 28 -4 37 15 31 43
-14 46 -120 5 -150 -20 -14 -27 -26 -16 -26 11 0 31 11 45 25 21 20 21 14 4
-31 -26 -71 -27 -115 -1 -74 11 17 20 21 20 10 1 -11 14 3 30 30 42 74 42 -79
-1 -161 -16 -32 -24 -59 -16 -59 7 0 9 -5 3 -11 -6 -5 -33 -1 -61 9 -63 24
-83 8 -43 -33 20 -20 26 -49 19 -80 -8 -31 -5 -44 8 -35 12 7 22 41 23 76 l2
64 21 -65 c11 -36 28 -65 38 -65 23 0 21 35 -3 50 -34 21 -22 55 16 45 29 -7
35 1 28 44 -4 32 5 64 25 80 37 31 69 11 36 -22 -17 -17 -15 -34 7 -67 25 -39
25 -47 -2 -70 -45 -37 -36 -74 21 -88 28 -8 45 -22 38 -34 -8 -12 -30 -17 -51
-12 -21 6 -43 2 -49 -8 -6 -10 -2 -19 10 -20 11 -2 30 -5 41 -8 11 -3 30 -6
41 -7 12 -2 15 -13 8 -25 -8 -12 -3 -29 11 -38 14 -9 19 -26 11 -38 -7 -12
-24 -17 -36 -9 -14 9 -17 -11 -9 -64 10 -58 4 -87 -22 -116 -33 -37 -32 -38
11 -24 33 10 45 6 45 -18 0 -17 8 -31 17 -31 10 0 15 -23 12 -52 -6 -53 -29
-94 -29 -51 0 13 -10 23 -22 23 -14 0 -10 -19 9 -49 34 -51 9 -95 -31 -55 -36
36 -71 5 -64 -57 8 -64 7 -65 -39 -47 -17 6 -26 24 -20 40 7 17 -3 29 -26 31
-94 6 -129 13 -143 26 -8 9 28 12 80 8 92 -7 94 -6 82 43 -15 63 -26 77 -26
33 0 -23 -17 -33 -55 -33 -83 -1 -119 -29 -86 -68 14 -18 38 -32 53 -32 16 0
28 -9 28 -20 0 -11 -10 -20 -21 -20 -12 0 -16 -9 -9 -20 7 -11 -10 -20 -39
-20 -28 0 -51 -9 -51 -19 0 -11 -13 -15 -30 -8 -16 6 -30 2 -30 -10 0 -11 19
-17 42 -13 29 6 45 -4 52 -31 14 -53 44 -30 34 26 -7 32 1 25 25 -21 23 -43
45 -61 64 -54 17 6 37 0 45 -13 12 -19 22 -19 46 2 22 17 32 18 32 3 0 -12
-10 -22 -21 -22 -12 0 -16 -9 -8 -21 7 -11 28 -16 48 -9 40 12 91 -37 72 -69
-20 -32 -51 -25 -38 9 13 33 -23 42 -43 10 -8 -13 -24 -9 -43 10 -34 34 -87
40 -87 11 0 -11 16 -15 35 -9 33 10 33 10 0 -12 -20 -12 -54 -17 -75 -10 -23
7 -40 4 -40 -9 0 -11 16 -21 36 -21 20 0 45 -8 55 -18 10 -10 42 -24 69 -32
l50 -15 -50 43 -50 44 50 -13 c64 -17 123 -69 79 -70 -21 0 -19 -8 10 -30 21
-16 31 -29 23 -29 -36 0 -223 71 -237 90 -8 11 -15 13 -15 5 0 -9 -33 -2 -73
15 -40 17 -78 26 -83 20 -6 -5 -32 4 -57 20 -26 17 -47 22 -47 11 0 -10 16
-28 35 -39 19 -12 24 -21 11 -21 -13 -1 -37 13 -53 29 -38 38 -46 38 -46 0 0
-16 14 -30 31 -31 52 -1 102 -50 103 -101 2 -44 3 -45 18 -8 9 22 8 49 -1 59
-27 28 -22 45 17 60 28 11 30 8 10 -11 -18 -19 -19 -32 -1 -53 13 -16 26 -57
29 -91 3 -36 -2 -52 -11 -37 -17 28 -45 3 -68 -62 -14 -38 -57 -49 -49 -13 3
13 -4 26 -15 30 -20 8 -70 -80 -70 -122 0 -11 -25 -45 -55 -73 -84 -80 -105
-111 -105 -157 0 -23 -9 -37 -20 -30 -11 7 -20 2 -20 -10 0 -32 -52 -81 -69
-65 -7 8 -8 -1 -1 -18 7 -18 -2 -46 -19 -63 -17 -17 -31 -41 -31 -53 0 -11
-13 -21 -30 -21 -18 0 -30 -18 -30 -44 0 -44 0 -43 -45 5 -39 41 -46 43 -51
13 -4 -19 -15 -34 -25 -34 -11 0 -19 -14 -19 -30 0 -17 -29 -57 -65 -90 -55
-50 -60 -63 -35 -81 26 -18 25 -24 -7 -45 -21 -13 -70 -53 -108 -89 -39 -36
-82 -65 -97 -65 -26 0 -125 -88 -198 -176 -33 -40 -33 -44 -4 -33 19 8 34 4
34 -9 0 -12 -18 -22 -40 -22 -27 0 -40 -13 -40 -42 0 -23 -10 -38 -24 -33 -13
4 -50 -22 -82 -59 -32 -36 -71 -66 -86 -66 -15 0 -28 -13 -28 -30 0 -16 -12
-30 -27 -30 -14 0 -47 -22 -72 -49 -26 -28 -53 -46 -61 -41 -8 5 -38 -12 -66
-38 -28 -26 -57 -43 -63 -37 -6 7 -11 -1 -12 -17 -1 -27 -123 -118 -160 -118
-10 0 -27 -18 -39 -40 -12 -22 -31 -40 -42 -40 -25 0 -78 -50 -78 -74 0 -10
-25 -19 -55 -22 -30 -2 -58 -13 -62 -24 -3 -11 -15 -15 -25 -9 -10 6 -18 3
-18 -6 0 -10 -58 -48 -130 -83 -71 -36 -130 -74 -130 -84 0 -10 -13 -18 -30
-18 -16 0 -30 -10 -30 -21 0 -12 -7 -17 -16 -11 -9 5 -41 -13 -70 -40 -30 -27
-54 -45 -54 -39 0 5 -91 -36 -203 -91 -111 -56 -235 -113 -275 -127 -73 -26
-175 -71 -393 -172 -66 -31 -181 -70 -255 -87 -73 -17 -149 -40 -169 -50 -42
-22 -254 -77 -360 -94 -41 -7 -89 -19 -106 -28 -16 -9 -97 -26 -180 -38 -82
-12 -234 -35 -339 -52 -288 -45 -906 -59 -1450 -31 -556 28 -1093 34 -1127 13
-30 -18 -260 5 -309 31 -19 11 -51 18 -70 16 -170 -17 -303 137 -224 261 23
37 691 38 1320 2 1601 -90 2560 30 3456 431 58 26 109 47 114 47 15 0 553 270
630 316 39 23 100 58 137 76 37 19 71 46 77 61 6 15 27 27 47 27 20 0 43 10
50 21 7 12 70 49 140 82 85 41 169 105 256 194 200 207 380 374 419 389 19 7
41 28 48 47 16 43 80 107 105 107 22 0 72 82 65 106 -3 10 4 12 15 5 10 -7 29
6 40 28 12 22 42 62 66 89 53 57 61 67 173 219 48 65 101 133 119 152 54 56
85 121 71 145 -8 13 -5 17 7 9 21 -13 125 108 125 146 0 11 9 21 20 21 11 0
20 27 20 60 0 38 10 60 28 60 25 0 76 95 81 151 1 11 27 47 57 80 38 40 52 72
44 99 -7 22 -14 51 -17 64 -9 41 -33 55 -33 19 0 -18 -13 -33 -30 -33 -16 0
-30 9 -30 19 0 36 84 65 152 52 42 -8 68 -5 68 8 0 12 22 21 48 21 47 0 82 47
61 82 -19 30 -45 20 -42 -16 2 -20 -14 -37 -37 -41 -33 -6 -35 -3 -10 14 25
17 24 20 -8 21 -22 0 -55 -15 -75 -33 -35 -31 -37 -31 -37 3 0 20 -14 53 -32
72 -18 20 -26 45 -19 57 19 30 77 26 66 -4 -6 -14 2 -37 18 -51 17 -16 27 -18
27 -4 0 12 7 18 15 13 8 -5 16 12 18 39 3 45 -29 61 -98 50 -16 -2 -19 8 -22
98 -2 33 4 60 12 60 8 0 15 14 15 32 0 21 11 28 32 20 26 -10 30 -3 20 38 -7
27 -5 50 5 50 11 0 24 12 29 28 8 19 -1 24 -28 17 -30 -8 -36 -2 -27 28 11 33
9 34 -14 5 -15 -17 -44 -31 -65 -31 -35 0 -35 1 -3 25 19 14 29 35 22 47 -17
27 1 27 52 0 28 -16 47 -15 66 0 31 26 28 -69 -6 -242 -2 -7 -23 -18 -48 -25
-38 -10 -40 -15 -15 -32 42 -27 60 -25 60 7 0 15 19 52 42 81 29 37 38 69 30
103 -7 28 -4 49 8 49 11 0 21 -11 21 -25 1 -14 10 -7 19 15 26 61 23 70 -20
70 -22 0 -40 9 -40 20 0 11 -13 20 -30 20 -19 0 -30 19 -30 52 0 35 -13 55
-40 62 -32 9 -36 17 -18 38 15 18 15 28 2 28 -11 0 -25 -11 -30 -25 -7 -19
-15 -20 -34 -1 -29 26 60 61 97 38 10 -7 38 20 62 60 35 59 47 68 71 48 16
-14 42 -20 58 -14 42 17 54 -7 20 -40 -19 -20 -47 -26 -84 -17 -50 13 -51 12
-16 -15 21 -15 32 -38 24 -51 -8 -13 -1 -28 15 -35 16 -6 34 -28 39 -49 7 -26
21 -35 42 -27 46 18 39 46 -18 72 -51 23 -72 69 -22 50 15 -6 26 1 25 16 -2
15 6 26 17 24 11 -2 20 -15 20 -28 1 -60 50 -74 51 -15 0 56 2 57 30 20 35
-46 37 -31 6 38 -18 39 -29 46 -50 28 -21 -17 -27 -14 -27 11 0 17 16 33 35
34 19 0 25 5 12 11 -16 6 -18 28 -7 68 10 35 10 59 -1 59 -11 0 -19 -13 -19
-28 0 -46 -55 -54 -66 -9 -7 23 0 44 16 50 22 8 23 21 5 60 -17 37 -17 59 0
87 22 34 17 37 -57 30 -69 -6 -78 -3 -69 27 12 39 -38 121 -60 99 -8 -8 -14
-37 -14 -65 0 -29 -11 -51 -26 -51 -41 0 -55 39 -19 53 18 7 29 30 26 54 -4
26 4 41 19 38 14 -3 25 4 25 15 0 11 -9 20 -20 20 -12 0 -15 21 -8 50 8 31 4
50 -10 50 -12 0 -22 -15 -22 -34 0 -26 -5 -29 -24 -10 -18 18 -18 30 -1 47 18
18 16 29 -7 46 -18 13 -31 55 -32 107 0 46 -9 84 -18 84 -10 0 -19 16 -20 35
0 19 -5 25 -11 12 -5 -12 -26 -18 -48 -13 -21 6 -39 1 -39 -10 0 -12 22 -24
49 -28 45 -6 46 -9 17 -46 -22 -29 -33 -33 -40 -14 -6 14 -28 43 -50 63 -27
26 -32 41 -16 51 16 10 10 26 -18 53 -44 40 -108 27 -128 -28 -4 -14 -16 -18
-26 -8 -10 9 -4 26 14 40 43 32 65 120 27 105 -16 -6 -29 -3 -29 7 0 10 11 22
25 28 14 5 5 11 -20 11 -31 2 -45 14 -45 43 0 22 -11 39 -25 38 -50 -7 -77 1
-66 20 6 10 -7 24 -29 31 -22 7 -41 28 -42 46 -1 21 -5 24 -11 9 -16 -39 -83
-29 -97 15 -7 22 -30 40 -53 40 -21 0 -34 8 -28 18 13 21 -105 73 -123 55 -7
-7 -31 3 -53 22 -28 25 -35 26 -23 5 15 -26 13 -26 -16 -3 -18 15 -29 36 -23
45 7 10 -5 24 -25 30 -20 7 -64 25 -99 40 -35 15 -81 28 -104 28 -22 0 -46 8
-52 18 -6 10 -42 18 -80 18 -37 0 -79 7 -93 15 -13 8 -47 18 -75 21 -28 3 -69
14 -92 24 -95 45 -225 76 -391 95 -60 7 -149 25 -197 41 -188 63 -508 81 -557
31 -24 -24 -35 -26 -41 -8 -5 14 -21 25 -37 25 -15 0 -28 9 -28 20 0 30 -43
24 -83 -13 -41 -37 -307 -60 -345 -30 -12 10 -40 15 -62 11 -22 -3 -76 3 -120
15 -44 11 -101 19 -126 19 -25 -1 -41 7 -35 17 6 10 -7 24 -30 31 -33 11 -37
19 -17 43 13 16 36 24 50 19 14 -5 28 -2 32 7 3 9 50 21 103 28 53 6 109 21
124 34 15 12 48 19 73 16 25 -3 60 3 76 13 17 10 70 20 119 22 50 2 93 14 98
28 17 51 786 7 1246 -70z m1827 -1790 c-11 -18 21 -28 85 -25 14 0 26 -19 26
-42 2 -42 2 -42 18 -3 16 38 18 38 36 -10 11 -27 14 -53 6 -56 -31 -12 -121
36 -121 65 0 18 -12 25 -30 18 -18 -6 -30 0 -30 16 -1 21 -5 21 -19 -2 -10
-17 -25 -23 -33 -15 -8 8 2 28 23 44 46 34 56 37 39 10z m-81 -500 c36 -13 51
-34 51 -69 0 -46 -4 -48 -53 -30 -38 15 -58 14 -68 -2 -10 -17 -18 -17 -29 0
-8 13 2 35 21 49 19 14 29 36 21 49 -17 28 -9 29 57 3z m669 -711 c11 6 25 2
32 -9 7 -12 45 -17 87 -11 l73 11 -66 -30 c-36 -17 -61 -38 -56 -46 5 -9 -21
-16 -59 -16 -66 0 -67 1 -33 39 33 38 32 39 -11 28 -49 -12 -51 -9 -31 64 l13
48 16 -45 c9 -24 25 -39 35 -33z m-19 -448 c26 -48 5 -119 -23 -78 -12 19 -16
12 -13 -23 3 -27 -1 -61 -10 -75 -9 -15 -6 -25 8 -25 18 0 18 -7 0 -29 -14
-16 -20 -37 -14 -46 6 -9 2 -30 -8 -46 -14 -22 -18 -16 -19 24 0 40 -9 52 -35
48 -40 -6 -37 -72 5 -96 15 -8 23 -31 20 -50 -4 -19 -8 -42 -8 -50 -1 -8 -17
-15 -34 -15 -23 0 -29 -12 -22 -40 6 -22 2 -45 -8 -51 -10 -7 -13 -20 -7 -30
6 -11 -7 -19 -30 -19 -22 0 -41 -9 -41 -20 0 -11 10 -20 21 -20 12 0 16 -9 9
-20 -7 -12 -23 -15 -35 -7 -14 9 -17 -2 -10 -30 7 -28 2 -43 -16 -43 -14 0
-32 -16 -38 -35 -6 -19 -44 -71 -83 -115 -39 -44 -81 -105 -92 -136 -17 -47
-25 -52 -52 -30 -17 14 -26 17 -20 6 20 -34 -141 -307 -162 -274 -7 12 -23 8
-38 -8 -21 -23 -20 -28 4 -28 16 0 36 -10 44 -23 8 -14 5 -18 -7 -10 -12 7
-41 -11 -65 -42 -24 -30 -54 -55 -67 -55 -13 0 -23 -18 -24 -40 0 -25 -13 -39
-34 -37 -19 1 -40 -17 -47 -40 -8 -24 -28 -56 -46 -73 -18 -16 -45 -55 -60
-85 -16 -30 -45 -60 -65 -66 -20 -6 -37 -18 -37 -27 0 -8 -45 -62 -100 -120
-55 -58 -100 -114 -100 -124 0 -10 -14 -18 -31 -18 -17 0 -26 -8 -20 -18 6 -9
-3 -29 -19 -42 -17 -14 -30 -17 -30 -7 -1 9 -19 -12 -42 -48 -23 -36 -55 -65
-71 -65 -16 0 -23 -10 -16 -22 10 -15 -2 -18 -33 -10 -27 6 -37 7 -24 0 24
-11 -122 -168 -157 -168 -8 0 -36 -19 -61 -42 -96 -88 -283 -218 -387 -270
-60 -29 -109 -59 -109 -68 0 -15 -434 -265 -560 -323 -38 -17 -137 -64 -220
-102 -544 -256 -1346 -487 -1920 -554 -471 -55 -2295 -69 -2734 -21 -102 11
-228 20 -280 20 -208 0 -291 57 -235 162 18 34 19 55 5 73 -15 17 -14 25 2 25
12 0 22 18 22 40 0 22 9 40 20 40 11 0 20 18 20 40 0 26 13 40 39 40 26 0 36
-10 29 -29 -8 -20 0 -25 30 -17 23 6 42 23 42 37 0 28 174 28 218 0 35 -22
772 -43 1052 -31 22 1 135 -4 250 -12 116 -7 284 -14 374 -15 90 0 159 -8 154
-17 -6 -9 80 -15 191 -14 165 1 204 7 221 35 16 27 22 28 37 5 11 -15 29 -20
43 -12 14 8 75 18 137 22 122 8 253 23 253 29 0 2 23 6 50 9 62 7 184 24 290
43 44 7 94 15 110 16 17 2 42 10 56 19 14 8 39 10 55 4 16 -6 50 -3 74 7 91
36 125 47 138 45 6 -1 60 15 119 37 59 21 123 39 142 39 19 0 64 17 100 37 36
20 107 42 156 49 50 7 153 44 230 83 77 39 151 71 165 71 13 0 94 33 180 74
85 40 167 76 183 78 15 3 37 15 49 27 11 11 37 21 57 21 20 0 36 9 36 20 0 11
20 20 45 20 52 1 100 26 96 52 -2 10 27 24 63 31 36 8 78 33 93 55 15 23 40
42 55 42 16 0 28 8 28 17 0 9 36 33 80 53 44 20 80 44 80 53 0 9 17 17 39 17
21 0 52 14 68 30 17 17 40 30 52 30 20 0 30 28 23 66 -2 10 6 11 17 4 11 -6
45 11 76 40 30 28 104 76 163 106 73 36 116 74 134 114 15 33 27 50 27 37 2
-48 98 21 109 79 7 33 20 51 33 44 15 -10 14 -22 -1 -40 -18 -21 -14 -25 18
-16 22 6 39 16 38 23 -5 26 29 82 44 73 8 -5 20 7 25 28 6 21 36 50 68 66 31
16 55 39 52 52 -3 13 9 24 26 24 18 0 25 -10 18 -22 -10 -15 -1 -15 29 1 48
26 57 45 12 28 -16 -6 -30 -2 -30 10 0 11 18 26 40 33 21 7 38 19 37 26 -5 40
6 64 31 64 15 0 33 13 39 30 6 16 24 24 40 18 35 -13 63 24 32 43 -24 14 32
89 67 89 26 0 134 114 134 141 0 27 52 81 74 77 47 -8 66 7 66 52 0 28 9 50
20 50 11 0 21 20 22 45 0 25 6 34 11 20 19 -48 84 -25 127 45 24 38 58 79 77
89 30 18 30 20 -2 20 -58 1 -39 29 46 68 72 33 80 43 75 104 -2 36 -11 62 -19
57 -33 -20 -28 25 6 57 39 37 46 27 42 -60 -1 -29 1 -29 43 -13 18 7 32 29 32
50 0 21 18 49 40 63 48 29 53 95 8 95 -17 0 -47 -18 -65 -41 -32 -40 -33 -39
-37 29 -3 67 0 70 53 59 46 -9 60 -3 70 31 8 23 23 42 34 42 11 0 14 17 8 38
-7 22 1 51 20 70 26 27 28 39 9 63 -21 25 -13 29 58 29 46 0 82 10 82 22 0 12
-13 17 -29 11 -19 -7 -25 -1 -18 18 6 16 18 24 27 19 9 -5 21 4 27 20 16 41
48 38 72 -9z"/>
<path d="M9779 8569 c-19 -23 -19 -37 -3 -53 17 -17 26 -14 35 11 8 18 22 33
34 33 12 0 12 -10 -2 -26 -27 -33 7 -74 59 -74 25 0 31 11 23 44 -11 42 -12
42 -27 5 -13 -34 -15 -32 -17 14 0 29 -15 58 -33 65 -41 16 -39 16 -69 -19z"/>
<path d="M10294 7766 c-6 -9 12 -27 39 -40 43 -20 49 -19 43 10 -7 36 -66 57
-82 30z"/>
<path d="M10472 7463 c-6 -9 -17 -54 -24 -100 -13 -83 -33 -103 -60 -60 -8 13
-24 -4 -41 -43 -35 -85 -34 -99 4 -44 17 24 44 44 60 44 36 0 38 -34 4 -46
-14 -4 -5 -5 20 -1 27 5 45 -2 45 -18 1 -14 17 -3 38 23 42 54 35 137 -9 101
-18 -14 -29 -15 -38 0 -8 12 -4 21 8 21 13 0 17 20 9 50 -9 38 -4 50 20 50 18
0 32 9 32 20 0 24 -53 27 -68 3z"/>
<path d="M10122 7355 c-1 -19 -11 -35 -22 -35 -32 0 -23 -75 11 -88 41 -16 57
34 32 102 -12 35 -20 43 -21 21z"/>
<path d="M10680 7341 c0 -21 -9 -44 -20 -51 -34 -21 -22 -88 20 -110 32 -17
40 -15 40 10 0 19 -9 27 -23 18 -13 -8 -18 -3 -12 14 5 15 21 26 33 23 18 -4
18 5 1 36 -12 23 -17 55 -11 71 6 15 2 28 -9 28 -10 0 -19 -17 -19 -39z"/>
<path d="M10190 7275 c4 -30 13 -63 20 -75 18 -29 95 -25 85 5 -5 14 -22 23
-38 20 -16 -3 -39 20 -52 50 l-22 55 7 -55z"/>
<path d="M10557 7194 c-30 -23 -30 -29 -2 -65 27 -34 29 -35 18 -3 -10 29 -5
34 25 24 31 -9 37 -4 28 29 -12 47 -23 49 -69 15z"/>
<path d="M10729 7154 c-19 -50 5 -124 42 -131 33 -7 34 -3 11 25 -15 17 -22
54 -17 82 10 51 -18 70 -36 24z"/>
<path d="M10326 7130 c-28 -31 17 -83 53 -61 13 8 15 0 7 -23 -12 -32 -9 -33
20 -9 30 25 34 22 36 -20 2 -29 9 -16 18 33 9 44 9 88 0 97 -9 10 -15 5 -13
-10 2 -15 -6 -28 -17 -30 -11 -2 -17 7 -14 20 5 15 -1 15 -19 -2 -14 -14 -34
-25 -46 -25 -12 0 -9 8 6 18 15 9 20 22 10 27 -9 6 -28 -1 -41 -15z"/>
<path d="M10220 7079 c0 -10 14 -19 30 -19 17 0 30 -15 30 -32 0 -25 -6 -28
-27 -11 -15 13 -33 17 -40 9 -25 -24 -13 -46 26 -46 52 0 67 -30 31 -60 -24
-20 -32 -18 -42 8 -7 17 -22 26 -33 19 -13 -8 -8 -22 13 -38 38 -28 7 -109
-42 -109 -36 0 -52 39 -27 69 16 20 15 29 -7 37 -18 7 -33 -6 -40 -37 -11 -41
-21 -46 -72 -36 -38 8 -60 4 -60 -10 0 -13 29 -23 65 -23 58 -1 158 -39 102
-40 -12 0 -28 -13 -34 -29 -8 -21 5 -28 49 -27 40 2 53 9 40 22 -14 14 -5 36
29 66 27 26 49 61 49 79 0 22 11 29 32 21 17 -7 38 -12 47 -12 9 0 21 -18 27
-40 7 -27 27 -40 62 -40 59 0 71 33 17 46 -19 4 -1 4 40 -1 63 -7 73 -3 63 24
-9 22 -26 28 -53 19 -33 -10 -39 -5 -31 25 7 28 -1 37 -36 37 -29 0 -39 -7
-27 -19 31 -31 22 -48 -21 -37 -27 7 -40 28 -41 63 0 29 -11 67 -25 84 -30 39
-94 65 -94 38z"/>
<path d="M10663 7057 c-18 -29 -41 -38 -74 -32 -43 8 -45 5 -25 -33 14 -26 26
-33 31 -17 5 14 29 25 54 25 30 0 50 15 57 40 14 55 -13 66 -43 17z"/>
<path d="M10645 6908 c-38 -40 -31 -48 40 -46 36 0 53 6 39 12 -20 7 -18 16 9
36 31 23 30 25 -14 25 -27 0 -60 -12 -74 -27z"/>
<path d="M10234 6599 c-6 -24 -6 -38 0 -32 6 6 24 -2 40 -18 39 -39 81 -36
104 7 25 46 -1 89 -45 73 -37 -15 -44 -60 -12 -76 11 -5 9 -8 -5 -5 -15 3 -36
25 -48 50 l-23 44 -11 -43z"/>
<path d="M10418 6493 c24 -29 6 -53 -58 -81 -19 -8 -15 -10 11 -5 22 4 52 -5
65 -20 31 -32 64 -35 64 -6 0 13 17 16 40 9 22 -7 40 -4 40 6 0 31 -56 69 -80
54 -13 -8 -27 4 -34 28 -6 23 -24 42 -41 42 -23 0 -25 -6 -7 -27z"/>
<path d="M4380 9870 c-192 -16 -425 -38 -516 -50 -92 -12 -231 -26 -310 -32
-79 -6 -346 -41 -594 -79 -247 -37 -632 -95 -855 -128 -437 -65 -630 -129
-516 -173 22 -9 31 -40 31 -105 1 -51 9 -147 19 -213 10 -66 28 -183 40 -260
23 -153 47 -337 81 -628 35 -305 -13 -289 630 -202 165 22 583 76 929 120 625
80 660 88 661 161 0 17 23 62 50 99 28 37 50 71 50 74 0 3 -22 6 -50 6 -34 0
-50 -11 -50 -35 -1 -30 -3 -31 -20 -5 -10 17 -39 31 -64 33 -25 1 -104 8 -176
15 -107 10 -118 8 -64 -9 36 -11 61 -28 55 -37 -12 -21 63 -48 116 -42 22 2
32 -5 24 -18 -20 -32 -218 -27 -284 8 -31 16 -75 30 -97 30 -22 0 -107 18
-190 40 -179 47 -165 46 -155 16 4 -14 30 -30 56 -37 27 -7 47 -21 45 -31 -2
-11 20 -19 48 -19 29 1 56 -9 60 -22 6 -16 -42 -21 -168 -18 -122 4 -188 -2
-217 -22 -23 -15 -100 -29 -170 -32 -71 -3 -140 -15 -153 -27 -13 -13 -74 -22
-135 -20 -61 1 -113 -3 -116 -9 -3 -6 -65 -37 -139 -68 -202 -85 -300 -61
-378 93 -51 100 -21 98 37 -2 127 -223 500 -65 438 184 -53 212 -379 257 -453
64 -10 -28 -28 -50 -40 -50 -26 0 -25 8 7 86 15 35 30 73 34 84 22 57 95 112
163 123 42 7 76 21 76 32 0 11 -24 15 -54 9 -29 -5 -67 -3 -85 6 -17 9 -61 28
-97 41 -79 29 -180 151 -150 181 23 23 86 3 87 -29 5 -155 253 -187 370 -48
53 63 68 294 18 297 -10 0 -34 14 -51 30 -99 89 -262 68 -357 -47 -51 -62 -61
-67 -61 -33 0 115 215 210 360 160 44 -15 80 -20 80 -12 0 8 22 15 48 15 27 0
98 6 158 14 85 10 116 6 140 -18 22 -22 36 -24 45 -9 8 12 38 17 70 11 32 -7
85 -2 120 10 50 18 67 17 81 -5 13 -20 22 -22 33 -5 15 23 125 46 259 55 101
7 169 31 155 53 -6 11 5 19 25 19 24 1 28 6 12 16 -18 11 -14 22 12 38 34 21
38 12 50 -110 15 -138 93 -401 143 -478 40 -62 41 -61 -76 -116 -339 -161
-452 -272 -270 -268 93 2 320 31 280 35 -55 6 -16 37 155 123 204 101 199 94
124 206 -88 130 -144 283 -158 424 -7 81 -19 124 -32 116 -13 -8 -16 1 -7 22
7 20 13 39 13 44 0 4 19 8 42 8 33 0 40 9 32 40 -33 126 79 -13 307 -380 201
-326 213 -340 271 -340 66 0 91 58 59 131 -175 395 -58 660 290 658 346 -1
520 -375 339 -728 -43 -84 -175 -221 -213 -221 -34 0 -35 33 -2 47 18 7 18 10
1 11 -13 1 -29 -7 -37 -19 -8 -14 -21 -14 -41 2 -21 18 -66 18 -183 2 -85 -12
-249 -28 -365 -35 -115 -6 -225 -13 -244 -14 -18 -1 -28 -11 -22 -20 6 -10 -8
-12 -31 -5 -26 8 -43 5 -43 -8 0 -11 -22 -21 -50 -21 -27 0 -50 -7 -50 -17 0
-9 -27 -12 -60 -7 -36 5 -60 0 -60 -14 0 -20 81 -34 130 -22 23 6 187 7 290 2
l70 -4 -60 -27 -60 -28 70 -2 c298 -7 805 -25 1200 -43 1534 -71 1956 -36
2063 169 12 23 24 45 26 48 2 2 170 -32 372 -76 203 -44 477 -103 609 -130
292 -60 471 -118 533 -171 487 -419 607 -1026 303 -1528 -344 -568 -1027
-1181 -1676 -1506 -802 -401 -1440 -508 -2650 -445 -247 13 -586 29 -752 35
l-302 12 -12 -48 c-29 -110 -58 -633 -41 -748 l17 -120 690 -37 c843 -44 1522
-61 1538 -38 7 9 102 28 211 41 908 112 1797 477 2502 1026 242 189 295 244
262 277 -17 18 -13 20 17 9 22 -8 33 -7 25 2 -8 9 12 36 45 60 33 24 54 50 46
57 -7 7 -1 13 13 13 20 0 21 6 2 28 -19 24 -16 27 18 18 24 -6 41 -1 41 13 0
13 9 18 20 11 11 -7 20 -4 20 7 0 10 27 48 60 83 33 35 60 78 60 95 0 18 6 26
13 19 23 -23 65 27 52 61 -8 21 -4 27 12 17 14 -9 32 6 46 37 13 28 30 51 38
51 8 0 30 24 49 52 22 35 25 47 7 37 -15 -9 2 12 37 48 40 40 60 76 52 95 -9
25 -15 26 -28 5 -10 -15 -18 -17 -18 -5 0 34 24 49 49 29 67 -56 239 433 262
743 43 584 -316 1190 -857 1448 -84 40 -98 88 -26 88 62 0 253 -62 291 -95 17
-14 85 -70 151 -124 66 -53 139 -118 163 -144 24 -26 80 -85 125 -132 44 -47
84 -110 88 -140 7 -54 71 -104 133 -105 20 0 15 13 -15 41 -25 23 -55 35 -67
27 -14 -9 -18 -5 -9 9 8 13 30 24 48 24 24 1 19 7 -13 20 -34 14 -45 31 -37
59 7 26 0 40 -18 40 -15 0 -28 14 -28 32 0 18 -28 58 -62 90 -34 32 -55 58
-46 58 8 0 -2 13 -23 29 -22 17 -31 30 -21 30 27 1 -81 81 -109 81 -14 0 -20
5 -14 12 12 12 -109 128 -133 128 -8 0 -31 16 -52 35 -21 19 -77 54 -124 78
-126 62 -315 147 -329 147 -6 0 -39 12 -74 27 -136 58 -509 160 -570 156 -26
-1 -57 4 -70 12 -24 15 -36 17 -109 22 -26 2 -42 10 -37 18 5 8 -33 17 -85 20
-51 2 -144 21 -207 42 -63 21 -115 31 -115 22 0 -9 -32 -7 -72 4 -39 11 -84
15 -99 10 -14 -6 -29 -4 -33 5 -3 9 -41 21 -83 28 -60 9 -74 6 -66 -15 7 -19
-4 -26 -39 -22 -77 9 -76 -23 2 -49 38 -13 70 -31 70 -42 0 -10 16 -19 35 -20
23 -1 15 -10 -23 -27 -40 -17 -49 -29 -30 -37 61 -24 -79 -12 -202 18 -71 17
-216 48 -322 68 -249 48 -403 114 -644 275 -246 165 -329 269 -196 250 52 -8
56 -4 47 43 -11 61 -23 71 -93 76 -155 13 45 226 329 351 104 46 180 86 169
89 -11 3 -159 5 -330 5 -170 1 -512 7 -760 15 -324 10 -548 6 -800 -14z m1163
-85 c14 -14 45 -25 70 -25 24 0 51 -10 58 -22 19 -31 -31 -61 -86 -51 -37 6
-44 1 -34 -30 8 -25 2 -37 -20 -37 -17 0 -31 12 -31 28 0 55 -469 102 -528 53
-21 -17 -41 -18 -67 -4 -61 33 -363 47 -545 25 -235 -29 -385 -42 -554 -50
-156 -7 -214 -35 -195 -95 7 -21 2 -37 -11 -37 -13 0 -20 23 -16 55 4 35 -3
54 -19 53 -14 -1 -61 -3 -105 -5 -69 -3 -80 -9 -80 -48 -1 -33 -5 -38 -18 -17
-15 23 -28 22 -82 -5 -36 -18 -73 -27 -82 -21 -10 5 -18 0 -18 -13 0 -15 -18
-19 -47 -12 -26 7 -53 7 -60 -1 -7 -7 -64 -16 -128 -21 -63 -4 -119 -15 -125
-22 -5 -8 -32 -15 -60 -15 -137 -3 -440 -32 -520 -49 -49 -11 -108 -18 -130
-15 -22 2 -89 -3 -150 -11 -63 -9 -131 -8 -160 3 -43 16 -37 19 40 17 50 -1
225 17 390 42 165 24 435 63 600 86 198 27 341 59 420 92 66 28 131 51 145 52
14 1 25 10 25 21 0 10 30 13 70 5 42 -7 70 -5 70 7 0 12 51 17 125 12 69 -4
108 0 87 8 -35 14 381 53 728 70 341 16 1019 1 1043 -23z m-2280 -66 c-70 -28
-560 -123 -598 -115 -19 3 106 35 276 70 319 65 403 77 322 45z m1777 -94 c0
-79 253 -112 322 -43 40 40 118 52 118 18 0 -11 -9 -20 -20 -20 -36 0 -21 -40
15 -41 19 -1 1 -15 -40 -32 -41 -17 -70 -39 -64 -49 6 -10 -3 -18 -20 -18 -48
0 -37 -29 31 -86 37 -30 63 -72 65 -102 2 -29 12 -52 22 -52 30 0 -14 -35 -55
-43 -33 -6 -32 -10 6 -43 40 -34 42 -34 36 0 -4 27 6 35 39 31 27 -3 45 6 45
23 0 37 131 37 162 0 12 -15 36 -28 52 -28 15 0 24 -8 18 -17 -6 -9 12 -29 39
-44 28 -14 47 -36 43 -47 -13 -40 207 -203 237 -176 8 8 9 3 2 -10 -9 -15 21
-44 78 -78 l92 -53 -57 -38 c-34 -23 -74 -33 -103 -27 -29 7 -42 4 -33 -9 7
-12 -8 -21 -38 -21 -27 0 -55 9 -62 20 -7 11 -23 20 -36 20 -18 -1 -18 -4 -1
-15 13 -8 -109 -18 -271 -21 l-295 -5 -23 50 c-13 28 -32 51 -44 51 -11 0 -20
10 -20 21 0 67 -91 99 -110 39 -24 -75 -239 -163 -379 -155 l-121 7 131 4 c96
3 138 13 160 39 39 48 134 259 155 344 14 61 35 79 170 149 167 87 167 99 -1
120 -142 18 -165 29 -165 79 -1 24 -28 92 -60 151 -67 122 -67 122 -40 122 11
0 20 -7 20 -15z m-1055 -41 c30 -2 55 3 55 12 0 9 17 17 39 18 37 3 37 2 -2
-65 -22 -37 -43 -84 -46 -104 -8 -56 -33 -36 -96 77 -32 58 -46 96 -31 85 14
-11 51 -21 81 -23z m-1884 -345 c22 -11 39 -34 39 -50 0 -24 -8 -26 -39 -10
-21 12 -64 21 -95 22 -54 0 -54 2 -17 30 46 35 61 36 112 8z m15 -90 c58 -41
39 -74 -28 -48 -28 11 -60 14 -70 8 -10 -6 -18 0 -18 13 0 15 -15 10 -40 -12
-48 -44 -53 -18 -7 33 41 45 103 47 163 6z m4 -149 c0 -67 -145 -77 -150 -10
-2 35 7 39 74 33 42 -4 76 -14 76 -23z m-68 -77 c75 6 83 3 59 -21 -65 -65
-287 24 -242 97 9 15 28 4 55 -30 36 -45 54 -52 128 -46z m155 -424 c61 -48
66 -76 22 -130 -18 -22 -27 -29 -21 -16 17 33 -37 70 -80 55 -31 -9 -32 -8 -9
9 17 11 23 27 15 35 -8 9 -41 -5 -74 -29 -62 -45 -87 -20 -35 36 20 21 20 24
0 13 -15 -9 -25 -3 -25 15 0 63 133 70 207 12z m-74 -219 c31 0 30 3 -4 30
-26 20 -29 29 -10 25 66 -12 106 -95 46 -95 -15 0 -22 -9 -15 -20 17 -28 -58
-32 -129 -8 -26 9 -26 12 0 29 18 12 22 25 9 34 -49 37 -32 71 18 38 28 -18
66 -33 85 -33z m7447 -954 c41 -35 56 -79 20 -56 -11 7 -15 -1 -8 -18 6 -16
25 -24 42 -18 26 10 26 6 3 -31 -15 -24 -49 -44 -77 -45 -48 -1 -47 -2 9 -19
42 -13 64 -11 75 7 11 17 15 13 16 -11 0 -19 16 -36 35 -37 19 -1 6 -10 -30
-20 -57 -17 -63 -24 -45 -58 29 -54 29 -485 1 -538 -13 -24 -18 -51 -12 -60 6
-10 -3 -23 -19 -29 -17 -7 -29 -19 -27 -27 6 -29 -27 -126 -43 -126 -9 0 -15
-11 -15 -25 1 -14 -1 -43 -3 -65 l-5 -40 -17 40 c-15 35 -17 34 -19 -15 0 -30
-8 -55 -18 -55 -9 0 -28 -22 -43 -49 -14 -27 -34 -45 -43 -39 -15 9 -26 -36
-19 -78 2 -10 -5 -12 -14 -7 -21 14 -126 -97 -134 -142 -4 -19 -8 -38 -8 -42
-1 -5 -15 3 -32 17 -16 14 -31 19 -32 12 -2 -6 -4 -19 -5 -29 -4 -21 -128
-163 -144 -163 -7 0 -46 -34 -88 -75 -42 -41 -113 -106 -158 -145 -45 -38 -82
-81 -82 -95 -1 -14 -10 -25 -22 -25 -23 0 -146 -82 -156 -105 -3 -8 -19 -15
-34 -15 -16 0 -43 -23 -62 -51 -25 -39 -37 -45 -50 -25 -12 19 -16 17 -17 -9
0 -19 -12 -35 -26 -35 -14 0 -57 -27 -95 -59 -38 -33 -79 -60 -92 -60 -12 -1
-33 -14 -46 -30 -14 -17 -31 -28 -38 -26 -7 2 -53 -23 -103 -55 -49 -32 -94
-59 -100 -60 -5 -1 -39 -17 -74 -36 -35 -19 -76 -34 -91 -34 -15 0 -47 -18
-70 -40 -24 -22 -51 -40 -61 -40 -10 0 -48 -15 -86 -34 -80 -41 -112 -50 -173
-50 -25 0 -40 -8 -34 -18 11 -18 -17 -26 -68 -19 -15 2 -42 -9 -60 -24 -47
-40 -184 -80 -282 -82 -67 -2 -77 -7 -51 -25 25 -18 15 -22 -48 -21 -49 1 -93
-11 -117 -32 -20 -19 -71 -37 -111 -40 -41 -3 -74 -12 -74 -21 0 -9 -19 -11
-43 -3 -30 10 -38 6 -27 -11 11 -18 -8 -23 -77 -17 -51 4 -93 0 -93 -8 0 -8
-29 -15 -65 -15 -36 -1 -101 -10 -145 -21 -212 -54 -361 -68 -605 -59 -69 3
-131 13 -136 22 -6 9 -33 6 -61 -7 -39 -17 -54 -17 -66 2 -11 17 -51 22 -124
16 -59 -5 -124 0 -143 10 -19 10 -163 23 -320 28 -157 5 -334 13 -395 17 -60
5 -142 9 -180 10 -49 1 -79 15 -97 45 -67 107 82 127 697 90 138 -8 387 -19
555 -23 168 -4 314 -13 324 -19 10 -7 24 -2 31 9 8 12 72 21 147 19 73 -1 174
3 223 10 50 6 136 15 192 20 56 5 125 19 155 30 29 11 66 15 83 8 16 -6 30 -2
30 9 0 28 124 42 163 18 24 -16 41 -13 66 12 19 19 48 34 65 34 23 0 25 7 9
26 -16 20 -11 27 23 29 114 7 154 17 162 38 5 13 43 23 83 23 41 0 81 11 89
25 9 13 25 19 36 12 10 -7 18 0 17 16 -2 16 5 28 15 28 10 0 25 12 34 26 13
21 17 19 18 -8 0 -44 96 -49 112 -6 6 16 22 24 35 19 13 -5 42 5 64 23 21 18
28 27 15 20 -13 -6 -29 -3 -35 8 -7 11 29 21 84 25 78 5 94 12 89 41 -3 19 4
35 15 35 12 0 21 14 21 30 0 38 -41 38 -91 1 -31 -23 -33 -30 -9 -33 17 -2
-10 -10 -60 -19 -150 -25 -269 -63 -292 -92 -28 -34 -56 -36 -35 -2 11 19 8
20 -14 2 -40 -33 -476 -142 -669 -168 -88 -12 -187 -26 -220 -32 -125 -21
-468 -39 -670 -34 -869 21 -1575 46 -1604 57 -78 31 -106 113 -54 156 52 43
24 43 898 -8 903 -52 1159 -45 1650 45 488 89 776 189 1250 432 160 82 295
155 300 163 6 8 43 34 84 59 85 52 272 192 386 290 44 37 116 98 160 135 44
37 134 127 200 200 66 73 127 129 135 124 8 -4 15 1 15 13 0 20 34 62 185 223
30 33 55 73 55 89 0 16 8 29 18 29 10 0 42 40 70 89 29 48 72 104 97 125 25
20 77 99 115 176 39 77 77 143 85 147 8 3 15 19 15 35 0 15 11 29 25 30 17 1
16 5 -3 12 -21 8 -15 19 20 40 41 23 42 26 6 17 -28 -8 -41 -2 -41 19 0 16 9
30 21 31 12 0 6 9 -13 20 -31 18 -44 120 -16 119 43 -2 63 -37 31 -55 -30 -17
-26 -22 30 -42 51 -18 60 -17 45 2 -11 14 -20 39 -20 55 0 17 -7 46 -15 65
-19 45 17 46 70 1z"/>
<path d="M9153 6192 c-42 -65 -38 -80 14 -42 20 15 33 43 30 62 -6 30 -13 26
-44 -20z"/>
<path d="M8535 5576 c-41 -44 -75 -89 -75 -99 0 -10 -22 -27 -50 -37 -27 -10
-50 -35 -50 -55 -1 -30 -3 -31 -20 -5 -13 20 -19 22 -20 5 0 -14 -10 -25 -21
-25 -12 0 -35 -13 -52 -30 -16 -16 -47 -30 -68 -30 -21 0 -34 -11 -29 -25 5
-14 -33 -45 -90 -73 -55 -27 -105 -65 -111 -85 -7 -22 -31 -37 -58 -37 -25 0
-57 -13 -70 -29 -13 -16 -55 -39 -92 -51 -37 -13 -66 -33 -64 -45 3 -13 -8
-24 -23 -24 -55 -2 -47 -51 8 -51 29 0 47 8 41 18 -6 10 4 24 23 31 18 7 39 2
47 -10 9 -15 18 -11 26 11 7 19 8 42 2 52 -6 10 3 18 20 18 17 0 31 8 31 18 0
10 16 16 35 13 50 -7 194 71 165 89 -15 9 0 23 39 37 35 12 90 41 123 64 32
24 71 38 85 33 15 -6 42 19 62 58 21 37 93 110 161 162 89 68 125 108 125 141
0 60 -12 56 -100 -39z"/>
<path d="M7498 4895 c-2 -8 -4 -22 -6 -30 -1 -8 -9 -25 -17 -38 -24 -37 55
-45 123 -12 73 35 73 39 -8 48 -33 4 -67 16 -75 27 -8 11 -16 13 -17 5z"/>
<path d="M4644 9416 c-51 -51 -20 -156 47 -156 80 0 109 22 109 81 0 83 -100
131 -156 75z"/>
<path d="M9816 7473 c6 -23 15 -28 23 -14 8 12 42 24 76 27 84 6 60 23 -33 23
-64 1 -74 -5 -66 -36z"/>
<path d="M10200 2367 c-88 -6 -560 -35 -1250 -77 -295 -18 -1050 -48 -1510
-60 -636 -17 -1237 -50 -1286 -70 -71 -28 -61 -28 2226 39 1286 38 2281 90
2352 124 23 11 54 18 70 16 15 -2 51 -2 78 1 l50 4 -50 16 c-48 15 -490 20
-680 7z"/>
<path d="M2295 2066 c36 -5 90 -5 120 0 30 4 1 8 -65 8 -66 0 -91 -4 -55 -8z"/>
</g>
</svg>
