<?xml version="1.0" standalone="no"?>
<!DOCTYPE svg PUBLIC "-//W3C//DTD SVG 20010904//EN"
 "http://www.w3.org/TR/2001/REC-SVG-20010904/DTD/svg10.dtd">
<svg version="1.0" xmlns="http://www.w3.org/2000/svg"
 width="1800.000000pt" height="1800.000000pt" viewBox="0 0 1800.000000 1800.000000"
 preserveAspectRatio="xMidYMid meet">
<g transform="translate(0.000000,1800.000000) scale(0.100000,-0.100000)"
fill="#000000" stroke="none">
<path d="M13610 13960 c-30 -4 -98 -13 -150 -19 -52 -6 -108 -15 -125 -21 -16
-5 -55 -13 -85 -18 -30 -6 -82 -18 -115 -27 -33 -9 -78 -20 -100 -26 -22 -6
-44 -14 -49 -20 -6 -5 -18 -9 -27 -9 -15 0 -51 -14 -179 -71 -25 -11 -52 -25
-60 -30 -8 -5 -22 -12 -30 -15 -29 -10 -75 -32 -172 -78 -53 -25 -99 -46 -102
-46 -3 0 -36 -14 -73 -31 -152 -70 -191 -88 -263 -122 -41 -19 -128 -60 -193
-91 -64 -31 -120 -56 -123 -56 -3 0 -63 -27 -132 -61 -70 -34 -156 -75 -192
-91 -36 -17 -96 -45 -135 -63 -38 -18 -97 -45 -130 -60 -33 -15 -103 -47 -155
-72 -52 -25 -108 -51 -125 -58 -16 -8 -105 -50 -198 -94 -92 -45 -172 -81
-177 -81 -6 0 -10 -4 -10 -10 0 -5 -8 -10 -17 -10 -10 0 -58 -20 -108 -44
-195 -95 -283 -136 -293 -136 -5 0 -15 -7 -22 -15 -7 -8 -21 -15 -32 -15 -11
0 -34 -6 -51 -14 -95 -40 -384 -58 -514 -32 -41 9 -95 16 -120 16 -24 0 -52 4
-62 10 -10 5 -43 14 -72 19 -65 12 -158 35 -179 44 -39 16 -108 39 -132 44
-15 3 -33 11 -39 19 -6 8 -20 14 -30 14 -10 0 -20 4 -24 9 -3 5 -19 12 -35 16
-17 4 -30 10 -30 14 0 4 -10 13 -22 20 -13 6 -36 20 -53 30 -16 11 -50 31 -75
44 -25 14 -70 39 -100 56 -30 18 -66 37 -80 44 -14 6 -27 15 -30 19 -3 4 -17
12 -30 18 -14 5 -38 19 -55 30 -16 11 -39 24 -50 29 -11 5 -37 21 -58 35 -21
14 -44 26 -52 26 -8 0 -16 4 -20 9 -3 6 -18 16 -33 24 -82 42 -169 91 -183
103 -8 8 -18 14 -22 14 -5 0 -151 85 -327 190 -8 5 -32 18 -54 30 -21 11 -45
27 -53 35 -8 8 -20 15 -28 15 -7 0 -38 20 -68 45 -31 25 -60 45 -66 45 -6 0
-11 3 -11 8 0 10 -103 66 -160 87 -51 19 -91 29 -170 46 -30 6 -80 17 -111 25
-79 20 -395 19 -472 -1 -32 -8 -66 -15 -76 -15 -23 0 -153 -40 -168 -52 -6 -5
-13 -24 -15 -41 -3 -35 -12 -37 -65 -16 -24 10 -38 10 -55 2 -13 -6 -44 -21
-70 -33 -26 -12 -63 -39 -83 -62 -35 -38 -37 -43 -30 -87 8 -55 30 -111 44
-111 5 0 33 -19 61 -42 67 -55 102 -78 118 -78 21 0 13 20 -13 30 -16 6 -25
17 -25 30 0 22 -42 65 -73 76 -16 5 -18 13 -12 51 10 71 13 74 53 67 34 -7 35
-6 28 20 -5 22 -3 26 14 26 12 0 20 7 20 16 0 12 7 15 25 12 13 -3 26 -2 27 1
2 4 20 17 41 29 56 32 93 29 132 -13 30 -31 36 -33 65 -25 17 5 38 6 45 3 8
-2 29 4 47 15 37 23 136 42 248 48 105 6 111 6 145 -1 17 -3 73 -13 125 -21
52 -9 105 -18 118 -20 33 -6 48 -45 32 -84 -13 -32 -45 -40 -69 -17 -11 10
-12 7 -7 -15 3 -15 2 -30 -4 -33 -16 -10 -11 -25 8 -25 48 0 146 78 164 131
12 35 48 41 48 8 0 -19 5 -20 48 -17 26 2 47 -1 48 -7 2 -22 -27 -74 -43 -78
-15 -4 -14 -5 3 -6 12 0 27 6 34 14 18 21 27 19 34 -10 5 -18 17 -27 47 -35
51 -14 79 -31 79 -47 0 -7 8 -13 19 -13 10 0 24 -7 32 -16 8 -9 21 -13 35 -10
17 5 26 1 34 -14 6 -11 19 -20 29 -20 11 0 21 -7 25 -15 4 -11 13 -14 31 -9
29 7 33 -3 8 -22 -17 -11 -16 -13 9 -19 15 -4 29 -13 32 -21 3 -9 20 -14 45
-14 44 0 65 -18 32 -27 -12 -3 -21 -9 -21 -14 0 -18 31 -21 49 -5 22 20 26 20
44 2 14 -15 99 -56 115 -56 5 0 22 -18 37 -40 22 -32 35 -40 70 -46 28 -4 56
-17 77 -36 18 -16 45 -32 59 -35 21 -4 25 -10 21 -25 -4 -18 0 -19 36 -17 53
4 76 -15 39 -32 -44 -20 -40 -36 11 -42 34 -4 49 -1 57 10 9 12 18 13 55 3
l44 -12 -32 -26 c-18 -15 -32 -33 -32 -39 0 -16 76 -18 85 -3 8 13 55 13 75 0
8 -5 20 -24 26 -42 6 -19 19 -34 30 -37 10 -1 27 -10 36 -18 11 -10 26 -13 42
-9 19 5 32 -1 56 -24 17 -17 41 -30 55 -30 14 0 25 -4 25 -10 0 -5 9 -10 21
-10 19 0 137 -46 181 -70 10 -6 30 -10 45 -10 16 0 44 -5 63 -10 25 -8 53 -7
98 2 50 9 67 9 80 0 9 -7 29 -17 45 -23 15 -6 27 -15 27 -20 0 -5 34 -9 75 -9
66 0 75 -2 73 -17 -3 -18 34 -33 64 -25 25 6 12 22 -18 22 -31 0 -31 18 1 26
26 6 72 2 114 -12 20 -6 23 -4 19 8 -5 13 1 15 38 10 26 -3 50 0 58 7 12 10
17 8 26 -9 13 -24 42 -20 75 11 12 10 36 22 55 25 19 4 43 11 53 16 12 6 23 5
33 -3 11 -9 14 -8 14 5 0 10 8 16 21 16 16 0 19 3 11 13 -8 9 -6 18 6 33 22
26 67 54 88 54 9 0 32 8 51 17 23 10 40 13 48 7 52 -39 67 -46 82 -39 17 6 16
7 -2 17 -22 13 -35 28 -35 44 0 17 63 42 126 49 32 3 73 13 89 20 17 7 48 20
70 27 26 9 45 23 53 41 8 17 21 27 35 27 13 0 33 7 45 16 13 9 35 17 50 19 14
1 34 12 43 24 10 12 29 21 46 21 18 0 33 8 41 21 11 16 19 19 44 14 26 -6 30
-5 25 9 -4 11 -1 16 12 16 18 0 48 18 139 83 41 30 43 30 75 15 39 -18 57 -14
50 12 -6 24 12 26 34 4 20 -19 57 -14 61 9 3 12 -3 17 -22 17 -14 0 -26 5 -26
10 0 6 11 10 25 10 14 0 25 -4 25 -10 0 -11 39 -13 64 -4 11 4 14 13 10 30 -6
22 -3 24 30 24 30 0 44 7 75 41 24 27 41 38 45 30 12 -19 45 -12 62 14 9 14
26 25 38 25 33 1 106 37 106 54 0 11 10 15 33 14 39 -1 57 7 57 28 0 8 7 14
15 14 8 0 19 9 25 20 8 15 15 18 27 12 21 -12 55 -3 49 14 -8 20 17 34 70 39
26 3 53 10 58 15 6 6 18 10 28 10 10 0 23 9 30 21 16 26 70 49 114 49 19 0 34
5 34 10 0 6 -7 10 -16 10 -8 0 -12 5 -9 10 3 6 21 10 40 10 18 0 40 7 49 15
10 10 24 13 41 9 14 -4 25 -2 25 4 0 6 14 13 30 17 25 5 30 11 25 26 -5 14 -1
19 14 19 22 0 104 39 109 52 2 4 12 8 23 8 10 0 48 14 82 30 35 17 78 30 96
30 19 0 34 6 37 15 4 8 18 15 33 15 15 0 36 7 47 15 23 18 48 19 73 4 24 -15
79 -3 62 14 -23 23 -10 30 54 24 49 -3 69 -1 80 9 22 23 58 32 89 23 24 -7 33
-4 52 16 13 14 28 25 33 25 6 0 54 -11 107 -25 115 -30 118 -30 112 -7 -4 15
0 17 22 14 15 -2 31 1 34 7 4 6 20 11 35 11 16 0 34 7 41 15 7 8 29 15 49 15
28 0 38 -5 47 -25 11 -22 9 -24 -17 -30 -16 -4 -29 -11 -29 -16 0 -16 51 -22
89 -9 21 7 48 9 60 5 19 -6 21 -4 16 18 -9 33 9 42 47 23 38 -19 60 -20 77 -3
18 18 377 12 429 -7 20 -8 55 -17 77 -20 108 -16 140 -25 182 -55 24 -17 67
-36 94 -41 27 -5 59 -15 70 -21 11 -6 27 -8 35 -5 14 6 64 -10 74 -22 3 -4 39
-18 80 -31 41 -14 84 -30 95 -38 11 -7 27 -13 37 -13 24 0 131 -52 196 -95 30
-19 60 -35 67 -35 8 0 41 -18 74 -40 35 -23 66 -37 75 -34 12 4 16 0 16 -15 0
-23 52 -61 82 -61 9 0 21 -6 25 -14 4 -8 27 -24 51 -36 34 -18 42 -27 42 -49
0 -72 84 -167 103 -117 3 8 -15 36 -44 66 -27 28 -49 56 -49 60 0 39 82 -9
103 -60 9 -19 18 -49 21 -67 3 -18 15 -42 26 -53 13 -13 21 -32 20 -48 -3 -42
0 -49 11 -24 10 27 32 25 38 -4 2 -10 6 -21 10 -24 10 -8 41 -79 41 -95 0 -8
14 -22 32 -31 18 -9 41 -28 51 -41 30 -38 107 -202 107 -227 0 -13 7 -29 15
-36 9 -8 15 -30 15 -56 0 -32 6 -50 22 -66 19 -19 23 -32 21 -78 -2 -30 -7
-56 -13 -58 -16 -6 -12 -32 10 -59 23 -30 27 -107 8 -160 -14 -39 -5 -53 20
-30 10 10 24 17 30 17 17 0 15 -20 -3 -26 -8 -4 -15 -12 -15 -19 0 -7 -9 -24
-21 -39 -21 -26 -19 -46 5 -46 29 0 37 -25 20 -60 -16 -32 -16 -33 6 -50 24
-18 22 -53 -5 -64 -20 -7 -20 -56 0 -56 22 0 18 -23 -5 -38 -14 -9 -20 -23
-20 -51 0 -21 -7 -52 -16 -70 -11 -22 -14 -45 -10 -70 5 -32 2 -42 -19 -61
-29 -27 -31 -40 -9 -81 8 -17 14 -40 12 -51 -3 -19 -4 -19 -31 6 -32 30 -37
31 -37 11 0 -8 4 -15 9 -15 5 0 11 -12 14 -27 3 -16 7 -35 9 -43 2 -8 -1 -16
-5 -17 -15 -2 -67 -56 -67 -68 0 -7 -9 -20 -20 -30 -11 -10 -20 -26 -20 -37 0
-11 7 -18 20 -18 23 0 26 -18 6 -45 -12 -17 -13 -17 -20 9 -9 36 -26 23 -26
-21 0 -48 -73 -153 -106 -153 -30 0 -40 -18 -19 -34 15 -11 13 -15 -24 -39
-29 -19 -41 -34 -41 -51 0 -18 -13 -33 -50 -57 -27 -18 -52 -40 -55 -51 -4
-10 -10 -18 -15 -18 -4 0 -18 -11 -31 -25 -13 -13 -29 -25 -34 -25 -6 0 -16
-9 -23 -20 -7 -11 -17 -20 -22 -20 -6 0 -23 -11 -38 -25 -44 -39 -229 -135
-261 -135 -10 0 -26 -9 -36 -20 -11 -13 -31 -20 -53 -20 -18 0 -48 -7 -65 -16
-18 -9 -40 -21 -49 -25 -10 -5 -34 -9 -54 -9 -19 0 -42 -7 -51 -15 -11 -12
-34 -15 -87 -15 -39 1 -109 -1 -156 -5 -165 -13 -371 -8 -430 10 -76 23 -130
30 -130 16 0 -6 -7 -11 -15 -11 -8 0 -12 6 -9 13 4 11 -8 14 -53 13 -39 0 -66
5 -84 17 -15 10 -50 20 -78 24 -28 3 -54 10 -57 15 -3 5 -27 6 -53 2 -36 -5
-50 -2 -60 10 -7 9 -27 16 -44 16 -17 0 -38 6 -46 13 -9 8 -46 19 -83 26 -69
13 -165 48 -190 69 -8 6 -33 15 -55 20 -23 5 -49 17 -58 26 -9 9 -22 16 -29
16 -7 0 -23 12 -37 26 -20 22 -93 67 -109 67 -18 1 -90 40 -106 58 -22 24 -86
59 -109 59 -8 0 -24 9 -35 20 -11 11 -23 20 -27 20 -4 0 -17 12 -29 27 -17 22
-29 27 -58 25 -25 -2 -38 2 -42 13 -3 8 -16 15 -28 15 -12 0 -27 9 -34 20 -8
13 -23 20 -45 20 -26 0 -36 6 -45 25 -7 14 -18 25 -24 24 -29 -4 -39 3 -55 36
-14 28 -20 34 -40 29 -17 -5 -23 -2 -23 9 0 9 5 19 10 22 6 4 8 11 4 16 -3 6
-12 3 -20 -8 -13 -17 -15 -16 -35 10 -12 16 -32 33 -45 38 -29 10 -31 29 -4
36 34 9 25 33 -10 27 -23 -5 -30 -3 -30 8 0 15 35 67 54 80 14 10 12 81 -2 86
-18 6 -14 19 8 25 11 3 20 14 20 25 0 16 11 22 60 32 52 11 68 10 129 -6 39
-10 74 -14 78 -10 12 11 -29 38 -50 32 -22 -6 -39 31 -25 57 11 22 16 22 75
-5 26 -12 59 -23 73 -23 17 0 26 -6 28 -20 6 -30 22 -45 48 -45 13 0 32 -8 43
-19 10 -10 25 -21 32 -24 11 -4 9 -8 -6 -21 -19 -15 -19 -17 -2 -30 9 -7 17
-22 18 -32 0 -10 8 -32 18 -49 14 -23 25 -30 48 -30 26 0 30 -3 22 -17 -18
-33 -11 -38 54 -32 l62 6 -25 -21 -25 -20 30 -11 c17 -6 44 -14 60 -17 42 -8
54 -16 105 -62 31 -28 54 -41 73 -41 29 0 79 -23 106 -48 12 -12 16 -11 23 2
5 9 16 16 23 16 20 0 19 -26 -2 -34 -14 -6 -14 -9 5 -26 28 -26 51 -26 27 0
-17 18 -16 19 8 25 18 5 31 0 51 -20 21 -21 30 -24 41 -15 10 8 19 9 35 0 11
-6 24 -8 29 -5 5 3 27 -7 50 -21 31 -21 54 -27 100 -28 60 -2 91 -17 91 -44 0
-23 158 -12 176 13 9 12 21 16 41 12 15 -4 43 -9 61 -13 19 -4 45 -1 63 7 28
11 36 10 74 -11 41 -22 43 -23 90 -6 44 15 51 15 73 0 13 -8 46 -21 74 -29 45
-11 50 -11 61 6 8 13 24 19 52 19 22 0 53 7 69 15 32 17 82 20 91 5 10 -17 23
-12 64 25 26 24 48 35 68 35 17 0 36 7 43 15 7 8 23 15 36 15 30 0 42 20 15
27 -31 8 -26 23 8 23 19 0 36 8 46 23 12 15 19 18 22 10 6 -15 63 -18 63 -3 0
6 11 10 24 10 31 0 59 27 53 52 -4 13 2 22 18 28 13 5 29 19 36 32 31 58 83
75 99 33 10 -28 30 -34 30 -10 0 9 -7 26 -15 39 -12 18 -13 33 -5 76 6 30 18
63 28 74 25 30 52 81 52 100 0 8 8 20 19 25 13 8 20 27 25 71 9 75 14 90 32
90 11 0 12 4 2 19 -16 26 13 71 46 71 32 0 56 30 56 72 0 43 -6 49 -36 36 -35
-16 -54 4 -47 50 8 53 20 60 36 21 l14 -34 8 39 c7 37 -1 195 -11 205 -2 3 -9
0 -15 -6 -14 -14 -49 -5 -49 13 0 9 12 14 35 14 19 0 35 3 35 7 0 3 -12 22
-26 40 -19 26 -23 38 -15 46 19 19 12 54 -15 72 -19 12 -25 23 -22 45 2 21 -8
41 -41 80 -23 28 -46 63 -50 78 -6 20 -14 26 -29 25 -25 -3 -31 24 -8 33 11 4
3 23 -36 75 -28 39 -61 77 -74 86 -24 15 -33 43 -14 43 6 0 10 7 10 15 0 8 -7
15 -15 15 -8 0 -15 -7 -15 -15 0 -17 -16 -20 -25 -4 -4 6 1 16 11 23 14 10 14
15 4 21 -9 5 -15 4 -18 -3 -8 -25 -21 -11 -16 17 6 28 4 29 -26 28 -19 -1 -35
3 -37 11 -3 7 5 12 21 12 14 0 26 3 26 8 -1 19 -61 72 -83 72 -2 0 -2 -11 1
-25 5 -26 -3 -31 -27 -16 -12 8 -13 14 -3 36 17 36 16 38 -19 33 -20 -3 -33 0
-36 9 -3 7 -16 13 -29 13 -26 0 -30 10 -13 27 14 14 -22 38 -70 47 -19 3 -42
13 -52 22 -9 8 -30 19 -45 23 -19 5 -28 13 -26 24 2 12 -4 17 -19 17 -12 0
-31 8 -41 17 -16 14 -23 15 -39 5 -23 -15 -61 1 -53 22 4 10 -6 12 -44 8 -41
-4 -53 -1 -71 17 -11 11 -33 21 -48 21 -16 0 -41 9 -57 19 -23 16 -34 17 -59
9 -24 -9 -31 -8 -39 6 -7 12 -24 16 -66 16 -31 1 -120 10 -197 21 -77 11 -175
22 -218 25 -48 3 -88 11 -103 20 -21 14 -29 15 -56 3 -17 -7 -54 -11 -82 -10
-116 8 -217 4 -228 -7 -7 -7 -27 -12 -45 -12 -35 0 -99 -28 -143 -62 -24 -19
-25 -19 -42 2 -21 25 -47 20 -55 -10 -6 -24 -19 -26 -27 -5 -8 22 -47 19 -53
-4 -3 -11 -14 -21 -25 -24 -11 -3 -22 -14 -24 -24 -6 -22 -39 -38 -109 -53
-27 -6 -61 -22 -75 -35 -26 -24 -175 -105 -194 -105 -6 0 -31 -16 -55 -35 -31
-25 -54 -35 -78 -35 -25 0 -33 -4 -31 -16 2 -11 -11 -20 -42 -31 -25 -8 -75
-34 -113 -57 -37 -22 -80 -48 -97 -57 -16 -9 -36 -22 -44 -28 -11 -9 -20 -9
-35 -2 -26 15 -38 14 -23 -1 20 -20 14 -26 -38 -43 -27 -9 -50 -21 -50 -26 0
-5 -4 -9 -10 -9 -5 0 -10 7 -10 15 0 8 -4 15 -10 15 -5 0 -10 -4 -10 -9 0 -15
-104 -86 -155 -105 -27 -10 -58 -27 -68 -37 -10 -11 -22 -19 -27 -19 -9 0 -73
-39 -97 -60 -15 -13 -26 -13 -18 -1 3 5 1 12 -4 15 -12 8 -91 -44 -91 -59 0
-7 -17 -15 -39 -19 -21 -3 -44 -12 -50 -20 -7 -8 -44 -27 -82 -41 -38 -15 -71
-31 -75 -36 -12 -19 -76 -40 -90 -28 -7 6 -19 7 -25 3 -9 -5 -7 -11 7 -21 16
-12 17 -15 4 -23 -20 -13 -40 -13 -40 0 0 6 -9 10 -20 10 -25 0 -25 -9 -2 -26
16 -12 16 -13 -2 -20 -10 -4 -27 -2 -37 4 -10 7 -26 12 -35 12 -13 0 -14 -3
-4 -15 14 -17 5 -35 -18 -35 -30 0 -126 -39 -135 -55 -4 -8 -17 -15 -27 -15
-10 0 -22 -4 -25 -10 -3 -5 -15 -10 -26 -10 -10 0 -19 -4 -19 -10 0 -5 -7 -10
-15 -10 -8 0 -19 -9 -25 -20 -6 -11 -19 -20 -30 -20 -10 0 -23 -6 -27 -12 -13
-21 -69 -48 -97 -48 -14 0 -26 -4 -26 -9 0 -5 -25 -15 -55 -21 -30 -6 -58 -17
-62 -24 -8 -13 -60 -49 -153 -108 -110 -69 -128 -78 -158 -78 -17 0 -33 -4
-36 -9 -3 -5 -22 -12 -41 -15 -21 -4 -41 -17 -51 -31 -8 -12 -27 -26 -42 -30
-35 -8 -110 -44 -118 -56 -3 -5 -22 -18 -43 -29 -21 -10 -41 -29 -44 -41 -5
-19 -11 -21 -46 -16 -23 3 -44 1 -47 -4 -3 -5 -24 -19 -47 -31 -23 -11 -47
-28 -54 -37 -10 -14 -13 -14 -30 2 -27 24 -40 21 -46 -10 -4 -21 -17 -34 -54
-51 -26 -12 -56 -22 -65 -22 -10 0 -18 -6 -18 -14 0 -15 -30 -26 -71 -26 -17
0 -33 -9 -43 -25 -11 -17 -26 -25 -45 -25 -15 0 -31 -3 -35 -7 -4 -5 -21 -8
-38 -8 -24 0 -34 -7 -49 -35 -19 -35 -60 -58 -105 -59 -13 -1 -24 -9 -27 -21
-3 -11 -14 -20 -25 -20 -11 0 -25 -7 -32 -15 -10 -12 -16 -13 -27 -4 -11 10
-17 8 -29 -9 -8 -12 -21 -22 -29 -22 -8 0 -19 -9 -25 -20 -6 -11 -17 -20 -24
-20 -8 0 -19 -7 -27 -16 -9 -11 -22 -14 -41 -10 -23 5 -28 2 -26 -12 2 -12 -5
-18 -22 -20 -13 -2 -29 -10 -35 -17 -5 -7 -25 -15 -42 -19 -18 -3 -52 -15 -75
-26 -54 -26 -118 -50 -138 -50 -9 0 -23 -9 -32 -20 -16 -18 -16 -20 0 -29 16
-9 16 -10 -1 -16 -9 -4 -23 -2 -31 4 -17 14 -29 2 -14 -16 15 -19 2 -29 -17
-13 -13 10 -19 10 -33 -4 -10 -9 -26 -16 -35 -16 -9 0 -17 -4 -17 -9 0 -13
-72 -49 -115 -57 -20 -3 -48 -17 -63 -29 -15 -12 -36 -24 -47 -27 -11 -2 -19
-11 -19 -20 1 -14 -4 -16 -27 -11 -17 3 -29 1 -29 -5 0 -5 -14 -15 -30 -22
-16 -7 -30 -16 -30 -20 0 -12 -51 -24 -88 -21 -30 2 -33 0 -30 -19 3 -20 -7
-26 -82 -54 -47 -17 -101 -42 -119 -55 -27 -19 -35 -21 -42 -10 -7 11 -10 12
-21 1 -11 -11 -10 -16 5 -27 13 -9 15 -15 6 -20 -6 -4 -15 -2 -19 5 -11 18
-70 5 -87 -20 -8 -11 -21 -20 -29 -20 -17 0 -95 -40 -105 -54 -7 -9 -33 -20
-132 -54 -26 -9 -50 -25 -53 -34 -3 -10 -15 -18 -28 -18 -13 0 -41 -17 -63
-39 -35 -32 -50 -40 -100 -46 -64 -8 -94 -20 -90 -36 2 -13 -67 -55 -105 -64
-16 -4 -28 -11 -28 -16 0 -5 -15 -9 -32 -9 -18 0 -42 -7 -52 -15 -11 -8 -28
-15 -37 -15 -11 0 -19 -9 -21 -22 -2 -16 -11 -24 -29 -26 -15 -2 -35 -12 -45
-23 -9 -10 -30 -19 -45 -19 -26 0 -34 -5 -67 -45 -7 -8 -23 -15 -36 -15 -13 0
-29 -7 -37 -16 -17 -21 -64 -44 -90 -44 -11 0 -38 -13 -59 -30 -29 -23 -48
-30 -81 -30 -56 0 -79 -13 -53 -29 16 -9 17 -12 4 -21 -8 -5 -28 -10 -43 -10
-16 0 -43 -11 -61 -25 -18 -14 -39 -25 -47 -25 -8 0 -29 -9 -47 -20 -18 -11
-39 -20 -47 -20 -8 0 -24 -9 -35 -20 -11 -11 -31 -20 -45 -20 -17 0 -29 -8
-37 -25 -6 -14 -19 -25 -29 -25 -10 0 -21 -5 -24 -10 -10 -16 -76 -47 -116
-54 -20 -3 -44 -15 -53 -25 -10 -11 -29 -22 -43 -26 -15 -3 -38 -15 -51 -26
-14 -10 -30 -19 -37 -19 -7 0 -18 -7 -25 -15 -7 -8 -25 -14 -43 -12 -17 1 -32
-3 -34 -10 -3 -7 2 -13 11 -13 9 0 16 -5 16 -11 0 -7 -13 -8 -38 -4 -32 5 -42
2 -63 -18 -13 -13 -37 -27 -54 -31 -16 -4 -39 -16 -50 -26 -11 -10 -31 -21
-45 -25 -14 -4 -31 -13 -39 -19 -8 -6 -24 -11 -35 -11 -13 0 -30 -14 -45 -37
-14 -22 -32 -38 -43 -38 -15 0 -18 -5 -13 -21 6 -19 4 -21 -13 -17 -16 5 -22
1 -24 -16 -2 -16 -10 -21 -33 -21 -38 0 -55 -11 -55 -35 0 -10 -20 -38 -45
-61 -24 -23 -54 -59 -65 -81 -11 -22 -34 -51 -51 -65 -34 -29 -59 -82 -59
-124 0 -60 -23 -131 -56 -175 -19 -24 -34 -52 -34 -62 0 -9 -6 -25 -13 -34 -9
-12 -13 -52 -11 -136 1 -97 6 -128 22 -164 11 -23 30 -77 43 -118 12 -41 29
-79 36 -83 7 -4 13 -15 13 -23 0 -8 7 -17 15 -20 20 -8 19 -44 -1 -58 -9 -7
-12 -18 -8 -29 8 -23 21 -21 29 4 4 13 11 17 16 12 6 -6 6 -19 0 -34 -8 -21
-4 -29 25 -54 33 -29 44 -55 23 -55 -6 0 -9 -10 -7 -22 2 -15 9 -22 22 -21 10
0 25 -11 34 -28 10 -15 26 -30 37 -31 29 -4 29 -30 0 -51 -27 -20 -70 -14 -62
7 9 23 -11 40 -49 40 -37 1 -39 3 -47 44 -6 32 -13 42 -28 42 -15 0 -19 -7
-19 -31 0 -36 35 -90 54 -83 19 7 66 -13 66 -29 0 -23 38 -50 76 -54 32 -3 35
-2 29 17 -9 28 20 38 45 15 11 -10 20 -29 20 -42 0 -16 8 -27 24 -32 25 -10
36 -30 36 -63 0 -11 8 -22 20 -25 17 -4 20 -14 20 -56 0 -48 1 -50 16 -35 16
15 19 14 40 -18 35 -51 54 -91 54 -112 0 -11 15 -30 34 -43 40 -27 66 -67 66
-102 0 -13 6 -30 14 -36 8 -7 18 -26 22 -43 3 -17 17 -51 30 -76 13 -25 24
-56 24 -69 0 -14 12 -45 27 -70 31 -53 41 -141 17 -150 -8 -3 -14 -11 -14 -18
0 -19 30 -27 47 -13 11 9 16 9 24 -3 14 -22 11 -38 -11 -51 -29 -18 -27 -66 2
-70 30 -4 34 -33 9 -54 -20 -17 -19 -18 10 -53 18 -22 29 -47 29 -66 0 -37 9
-52 35 -56 24 -5 32 -56 15 -89 -13 -25 5 -125 27 -151 17 -20 17 -55 -1 -62
-7 -3 -16 -25 -20 -48 -6 -35 -4 -46 10 -56 14 -10 15 -17 6 -37 -6 -13 -8
-33 -5 -45 3 -12 0 -27 -6 -35 -10 -11 -9 -16 4 -24 16 -8 16 -12 0 -57 -10
-31 -14 -62 -10 -86 4 -22 2 -40 -4 -44 -22 -13 -10 -85 15 -85 8 0 14 -4 14
-10 0 -14 -33 -13 -48 2 -16 16 -33 -2 -26 -29 4 -15 16 -22 45 -27 25 -4 37
-10 33 -17 -4 -7 -21 -9 -41 -6 -30 5 -39 1 -78 -38 -24 -25 -40 -47 -35 -50
5 -3 30 1 55 10 53 17 75 19 75 5 0 -5 -6 -10 -13 -10 -8 0 -22 -9 -31 -19
-10 -11 -30 -21 -45 -23 -23 -3 -26 -8 -29 -46 -3 -34 0 -42 14 -42 9 0 22 7
29 17 7 10 19 14 29 10 25 -10 15 -30 -20 -41 -51 -15 -59 -22 -62 -60 -3 -30
0 -36 17 -36 11 0 29 12 40 26 12 15 25 23 32 18 9 -5 8 -10 -2 -18 -8 -6 -22
-23 -32 -38 -22 -35 -40 -35 -66 -1 -12 14 -24 23 -28 19 -4 -3 -1 -12 5 -18
17 -17 15 -68 -3 -68 -7 0 -19 8 -24 18 -9 15 -10 15 -11 -5 0 -13 4 -23 9
-23 4 0 11 -19 14 -42 5 -39 3 -44 -31 -75 -20 -18 -45 -32 -55 -33 -22 0 -70
-24 -85 -43 -18 -21 21 -55 43 -37 9 7 18 11 20 8 9 -8 -26 -68 -40 -68 -7 0
-15 -8 -18 -19 -3 -14 -11 -17 -31 -14 -21 4 -26 2 -26 -16 0 -13 -10 -26 -25
-33 -14 -6 -34 -26 -45 -45 -11 -18 -28 -37 -37 -40 -21 -8 -83 -72 -83 -84 0
-5 -9 -9 -20 -9 -11 0 -20 -6 -20 -13 0 -8 -10 -23 -22 -34 -34 -30 -167 -103
-188 -103 -29 0 -50 -11 -50 -26 0 -8 -2 -14 -5 -14 -2 0 -30 -7 -62 -16 -85
-23 -175 -43 -197 -44 -20 0 -20 0 0 15 18 14 18 14 0 15 -10 0 -24 -7 -31
-17 -11 -14 -22 -15 -101 -6 -49 5 -97 13 -106 17 -11 5 -18 4 -18 -2 0 -6 8
-13 18 -15 14 -4 13 -5 -4 -6 -12 0 -34 3 -50 9 -16 5 -65 12 -109 15 -158 9
-278 28 -302 47 -7 6 -20 8 -28 4 -8 -3 -49 10 -91 29 -42 19 -85 35 -96 35
-11 0 -32 6 -46 14 -67 36 -121 56 -135 50 -23 -9 -104 31 -112 55 -3 12 -12
21 -20 21 -7 0 -15 7 -19 15 -3 8 -14 15 -24 15 -11 0 -25 7 -32 15 -9 11 -16
13 -24 5 -15 -15 -46 -12 -46 4 0 15 -21 26 -51 26 -12 0 -23 10 -29 25 -9 23
-12 24 -31 13 -18 -11 -22 -11 -26 0 -8 22 -46 52 -65 52 -9 0 -22 8 -27 19
-6 10 -24 21 -41 24 -21 5 -30 12 -30 27 0 13 -8 21 -25 25 -14 3 -36 7 -50
10 -26 6 -34 30 -12 38 6 3 1 6 -12 6 -14 1 -44 20 -72 46 -26 25 -55 45 -64
45 -8 0 -15 6 -15 14 0 8 -10 22 -22 30 -18 13 -19 17 -7 32 13 15 11 16 -11
9 -14 -4 -31 -10 -37 -12 -7 -3 -17 6 -22 20 -8 19 -15 23 -34 20 -20 -4 -36
6 -79 48 -29 30 -58 54 -63 54 -6 0 -25 15 -43 33 -30 31 -56 40 -65 25 -2 -5
-2 -1 1 7 15 50 14 60 -7 60 -12 0 -21 6 -21 15 0 9 -9 15 -24 15 -12 0 -35
11 -50 25 -15 14 -33 25 -40 25 -8 0 -19 14 -27 31 -7 19 -25 37 -43 45 -17 7
-39 22 -48 33 -10 12 -26 21 -36 21 -23 0 -42 19 -42 42 0 17 -5 20 -39 22
-23 2 -25 27 -2 33 11 3 18 9 15 14 -3 5 -9 7 -14 4 -5 -3 -21 0 -35 7 -23 10
-26 17 -22 44 4 22 1 37 -9 45 -7 6 -11 15 -8 20 8 13 58 11 72 -3 9 -9 16 -7
32 7 19 18 20 18 20 -3 0 -12 11 -31 24 -44 14 -13 26 -34 29 -48 4 -24 4 -24
6 3 0 15 8 30 16 33 8 4 15 13 15 22 0 19 -61 94 -99 121 -30 22 -71 19 -71
-5 0 -8 -7 -14 -15 -14 -19 0 -20 16 -1 27 7 4 16 18 20 30 5 16 2 23 -14 28
-15 5 -20 15 -20 43 1 55 21 76 64 68 35 -7 36 -6 30 22 -7 33 9 50 30 33 9
-7 16 -7 24 1 9 9 18 8 39 -2 16 -8 31 -16 36 -18 4 -2 7 3 7 11 0 8 -9 17
-20 20 -11 3 -20 12 -20 20 0 21 42 30 56 12 10 -13 13 -12 28 4 16 17 16 19
0 25 -13 5 -14 10 -6 18 9 9 16 8 29 -4 10 -9 28 -19 41 -23 17 -5 24 -1 32
17 l9 23 6 -22 c6 -18 12 -21 43 -17 33 5 35 4 20 -9 -10 -8 -18 -17 -18 -20
0 -11 58 -37 84 -37 53 0 69 -18 41 -46 -8 -9 -15 -21 -15 -28 0 -18 69 -37
91 -26 13 7 21 4 33 -16 9 -13 21 -22 25 -20 5 3 16 -3 26 -14 12 -13 25 -18
38 -14 14 5 18 2 15 -13 -2 -13 -15 -19 -43 -23 l-39 -5 27 -18 c24 -16 28
-16 33 -2 8 21 26 19 47 -5 9 -11 23 -20 32 -20 8 0 22 -11 31 -25 9 -14 21
-25 27 -25 19 0 136 -85 143 -103 4 -14 9 -15 19 -7 10 8 15 8 21 -1 4 -7 2
-15 -4 -17 -14 -4 -16 -42 -3 -42 5 0 13 9 16 20 8 27 23 25 34 -3 9 -23 84
-97 99 -97 4 0 15 -14 24 -30 9 -17 24 -30 31 -30 8 0 17 -7 21 -15 8 -22 26
-18 26 5 0 11 -5 20 -12 20 -6 0 -9 3 -6 6 8 8 78 -23 78 -35 0 -6 -7 -14 -17
-19 -14 -9 -14 -10 5 -16 11 -4 24 -17 28 -28 6 -21 7 -21 20 -4 15 22 34 13
34 -16 0 -16 5 -19 25 -16 21 4 26 1 31 -21 13 -51 64 -84 64 -41 0 25 20 26
51 1 13 -10 34 -21 45 -25 12 -4 29 -15 39 -26 10 -11 26 -20 37 -20 13 0 18
-7 18 -25 0 -14 5 -25 10 -25 6 0 10 5 10 10 0 18 32 11 37 -8 6 -25 92 -64
121 -56 15 5 37 -1 63 -15 44 -25 144 -32 259 -18 94 12 230 42 277 63 43 19
77 19 69 -2 -3 -9 -6 -17 -6 -19 0 -2 -22 -20 -49 -39 -53 -39 -125 -66 -181
-66 -52 0 -68 -14 -39 -33 21 -14 31 -14 89 -1 36 9 92 18 126 22 47 6 70 15
101 40 23 18 46 32 51 32 6 0 37 23 69 51 32 28 70 56 85 61 15 5 30 18 33 29
4 10 15 19 25 19 27 0 30 11 20 71 -7 46 -5 59 11 87 10 18 19 44 19 58 0 28
8 31 26 7 10 -15 15 -16 25 -5 11 10 10 18 -4 41 -18 31 -23 76 -8 85 12 8 22
59 27 131 6 98 10 108 44 101 29 -5 30 -4 32 37 2 60 -2 149 -9 171 -3 12 -1
16 6 12 6 -4 18 -3 28 2 15 9 14 11 -5 21 -19 10 -21 18 -18 97 2 73 0 86 -15
94 -14 8 -22 4 -37 -17 l-20 -27 -12 59 c-7 33 -19 79 -26 103 -17 51 -17 52
-4 52 5 0 13 -12 16 -27 4 -16 12 -35 20 -43 7 -8 14 -28 16 -45 2 -20 9 -31
22 -33 18 -4 19 1 13 59 -6 66 -30 139 -46 139 -5 0 -11 8 -14 18 -2 9 -8 26
-12 37 -6 16 -2 14 23 -9 l31 -29 11 27 c16 43 12 80 -10 93 -16 11 -18 17 -8
43 14 40 4 48 -32 26 -27 -15 -31 -16 -36 -2 -10 27 4 48 26 41 16 -5 20 -2
20 19 0 22 -4 26 -30 26 -31 0 -39 17 -19 37 9 9 6 19 -11 40 -12 15 -28 43
-35 61 -14 31 -49 45 -57 21 -5 -14 -35 -1 -42 18 -8 20 1 33 25 33 29 0 23
20 -11 33 -20 8 -28 17 -25 27 6 19 -4 34 -28 43 -9 4 -19 12 -21 19 -23 91
-95 218 -123 218 -7 0 -20 17 -28 38 -8 20 -28 46 -44 56 -16 11 -40 45 -55
78 -15 32 -31 58 -36 58 -5 0 -12 10 -16 23 -3 12 -15 34 -25 49 -11 14 -19
43 -19 63 0 26 -4 36 -13 32 -9 -3 -13 5 -13 27 0 17 -12 48 -27 70 -15 21
-27 51 -27 67 0 15 -5 40 -11 56 -6 15 -11 42 -12 58 -2 27 -5 30 -37 30 -40
0 -55 29 -20 38 26 7 26 34 0 55 -16 14 -18 23 -11 54 12 53 -6 126 -33 130
-19 3 -23 17 -42 163 -13 88 -27 174 -33 190 -5 17 -13 63 -17 102 -5 58 -3
77 10 97 12 19 17 60 20 188 2 90 7 176 11 191 9 34 29 30 33 -6 2 -15 8 -25
13 -22 5 4 7 16 3 29 -3 14 1 27 10 35 9 8 16 26 16 41 0 15 7 33 15 40 8 7
15 23 15 35 0 12 9 34 21 49 11 14 18 30 15 35 -8 13 21 34 39 28 22 -9 28 9
14 48 -10 27 -10 38 -1 47 9 9 13 8 17 -4 6 -14 10 -14 33 -2 15 8 33 14 40
14 6 0 12 8 12 18 0 10 26 36 60 61 33 24 62 52 65 62 3 10 14 21 24 24 12 3
21 19 25 39 9 45 75 116 109 116 13 0 30 7 37 15 7 8 23 15 36 15 13 0 24 5
24 10 0 6 -5 10 -12 10 -7 0 -29 12 -50 27 l-39 26 22 23 c12 13 35 26 52 30
47 10 68 26 61 47 -7 21 12 47 35 47 9 0 30 13 48 30 27 25 33 27 43 15 14
-16 56 -20 64 -6 3 4 17 6 31 3 21 -3 27 0 32 17 4 15 13 21 34 21 15 0 32 7
37 15 5 9 29 18 63 22 29 3 65 14 78 25 13 10 36 18 52 18 21 0 27 4 23 15 -4
9 3 16 19 20 13 4 29 17 35 29 6 13 23 26 37 30 15 4 34 14 42 21 8 8 28 15
44 15 32 0 37 11 14 30 -26 21 -2 33 77 36 64 3 76 7 93 29 12 14 26 25 32 25
7 0 24 11 39 25 15 14 35 25 45 25 10 0 24 8 31 18 16 20 52 42 72 42 7 0 20
10 28 21 8 12 26 23 41 25 15 1 61 28 103 58 42 31 82 56 88 56 7 0 27 11 46
25 19 14 41 25 51 25 9 0 27 8 40 18 13 11 37 22 52 26 15 4 31 14 34 24 9 23
23 32 54 32 15 0 32 7 39 15 7 8 19 15 27 15 17 0 88 40 153 86 65 46 189 110
230 119 19 4 46 17 60 30 14 12 37 29 52 36 15 8 54 31 88 51 33 20 75 40 94
44 19 3 49 17 67 30 36 26 60 30 89 14 17 -9 20 -6 25 17 8 38 21 59 35 55 6
-1 21 4 33 13 28 20 77 20 77 0 0 -21 23 -19 70 5 44 22 50 34 23 45 -17 6
-16 7 2 17 11 6 24 17 28 25 4 7 13 13 19 13 6 0 19 6 27 14 9 7 48 24 86 37
39 13 76 32 84 42 7 10 19 16 27 13 7 -3 33 6 58 19 25 13 61 27 80 30 19 4
40 13 47 21 6 8 22 14 35 14 13 0 34 11 46 25 12 14 30 25 40 25 11 0 23 11
28 26 8 21 15 25 32 20 18 -4 35 8 86 61 35 36 71 77 80 90 16 25 12 33 -23
47 -6 2 -3 17 8 36 20 38 24 71 5 52 -20 -20 -28 -14 -28 22 0 19 -4 38 -10
41 -5 3 -10 17 -10 31 0 13 -5 24 -11 24 -6 0 -9 -9 -6 -20 5 -20 -23 -132
-46 -180 -15 -34 -96 -130 -109 -130 -5 0 -27 -13 -47 -28 -20 -15 -83 -52
-141 -81 -58 -29 -112 -56 -120 -60 -8 -5 -46 -23 -85 -41 -38 -18 -77 -37
-85 -41 -8 -5 -19 -11 -25 -13 -5 -2 -17 -7 -25 -10 -8 -3 -28 -15 -45 -26
-16 -11 -37 -22 -45 -26 -8 -3 -22 -10 -30 -15 -8 -5 -22 -12 -30 -15 -8 -3
-22 -10 -30 -15 -8 -5 -22 -12 -30 -15 -21 -9 -92 -43 -110 -54 -18 -10 -132
-67 -210 -105 -30 -15 -62 -31 -70 -36 -8 -5 -51 -27 -95 -49 -78 -39 -96 -49
-132 -70 -10 -6 -25 -13 -33 -16 -8 -3 -22 -9 -30 -14 -8 -4 -159 -81 -335
-170 -176 -89 -390 -198 -475 -242 -148 -77 -348 -180 -380 -197 -8 -4 -31
-16 -50 -25 -39 -20 -223 -117 -405 -212 -66 -35 -142 -75 -170 -89 -256 -132
-470 -311 -651 -547 -41 -53 -74 -99 -74 -102 0 -3 -18 -34 -39 -70 -48 -78
-141 -269 -141 -290 0 -8 -4 -17 -9 -21 -5 -3 -12 -20 -16 -38 -4 -17 -14 -54
-22 -82 -8 -27 -20 -65 -25 -84 -6 -18 -14 -66 -20 -105 -5 -39 -13 -100 -18
-136 -12 -84 -11 -329 1 -400 5 -30 16 -93 23 -140 7 -47 21 -110 30 -140 9
-30 21 -75 27 -100 5 -25 14 -53 19 -62 6 -10 10 -23 10 -29 0 -6 6 -25 14
-42 7 -18 23 -57 36 -87 55 -132 194 -417 210 -430 3 -3 21 -29 38 -58 18 -30
59 -88 91 -130 65 -87 211 -325 211 -346 0 -7 7 -19 15 -26 8 -7 15 -21 15
-31 0 -10 4 -20 9 -23 15 -9 51 -90 51 -113 0 -12 7 -28 15 -37 8 -8 15 -25
15 -38 0 -13 7 -33 15 -44 8 -10 15 -26 15 -34 0 -8 7 -28 15 -44 8 -15 15
-34 15 -41 0 -8 5 -26 12 -42 37 -88 60 -320 52 -513 -5 -128 -25 -267 -43
-300 -5 -9 -12 -31 -16 -49 -19 -87 -111 -240 -173 -287 -72 -56 -161 -77
-327 -77 -135 0 -230 10 -270 28 -28 12 -88 29 -145 42 -46 9 -358 160 -420
203 -52 36 -123 80 -127 80 -9 0 -373 266 -383 279 -3 4 -32 27 -64 51 -33 24
-87 66 -120 95 -34 28 -81 66 -106 85 -25 19 -64 49 -85 67 -206 167 -249 193
-322 193 -44 0 -134 -21 -158 -37 -11 -7 -26 -13 -34 -13 -19 0 -140 -99 -176
-145 -17 -20 -45 -54 -62 -75 -18 -20 -33 -44 -33 -52 0 -9 -7 -21 -15 -28 -8
-7 -15 -20 -15 -30 0 -10 -7 -34 -15 -53 -22 -54 -20 -168 5 -222 19 -41 163
-192 260 -271 19 -16 42 -36 50 -44 14 -13 51 -45 130 -110 10 -8 28 -22 40
-30 13 -8 30 -22 39 -31 9 -8 45 -37 81 -64 36 -27 88 -68 116 -90 29 -22 66
-51 84 -65 87 -67 422 -300 450 -313 8 -4 33 -18 55 -30 60 -34 96 -53 135
-70 19 -9 67 -30 105 -47 125 -56 180 -78 225 -87 14 -3 34 -12 45 -19 11 -8
31 -14 46 -14 15 0 32 -7 39 -15 7 -8 21 -15 32 -15 11 0 41 -7 67 -14 45 -15
109 -32 201 -56 25 -6 68 -15 95 -20 28 -4 77 -12 110 -18 144 -25 333 -34
468 -21 73 6 151 18 175 25 23 8 53 14 65 14 13 0 32 7 43 15 10 8 27 15 37
15 17 0 49 14 97 41 8 5 25 13 38 19 75 32 251 172 350 278 63 67 158 191 172
224 5 12 26 50 45 83 19 33 38 67 41 75 4 8 24 52 45 97 22 46 39 93 39 107 0
13 6 29 14 35 8 7 18 26 21 42 4 16 11 31 16 34 5 4 9 24 9 46 0 22 6 52 14
67 8 15 17 54 21 87 4 33 12 68 17 78 9 17 29 296 32 462 3 101 -20 348 -33
374 -5 9 -12 48 -16 86 -4 39 -12 78 -17 88 -5 10 -13 39 -18 65 -10 61 -60
224 -71 236 -5 6 -9 19 -9 29 0 21 -8 41 -91 215 -33 67 -59 126 -59 132 0 5
-20 44 -45 86 -25 41 -45 78 -45 80 0 14 -183 306 -208 332 -6 8 -17 23 -24
35 -6 12 -36 56 -67 97 -150 201 -247 399 -277 565 -3 22 -12 46 -18 54 -14
17 -11 137 5 177 6 16 15 52 19 79 18 115 99 289 169 362 38 39 101 94 187
162 59 47 139 101 157 107 12 4 38 17 57 29 19 12 46 26 60 30 14 4 27 11 30
14 3 3 84 46 180 94 182 91 294 147 345 174 46 24 427 214 545 272 58 29 112
55 120 60 8 4 31 16 50 26 50 26 515 262 575 292 28 14 57 29 65 34 8 5 22 12
30 15 8 3 22 10 30 15 8 5 22 12 30 15 8 3 22 9 30 14 8 5 105 54 215 110 110
56 322 163 470 239 149 75 295 150 325 165 30 15 64 32 75 38 22 12 340 175
685 350 129 66 289 148 355 184 66 35 127 66 135 69 8 4 22 10 30 15 8 5 76
38 150 75 74 36 142 70 150 75 8 5 51 27 95 50 44 22 87 44 95 49 8 5 49 25
90 46 82 40 96 47 125 63 11 6 97 49 190 96 94 47 190 97 215 110 25 13 52 27
60 30 8 4 110 55 225 115 116 60 327 168 470 241 143 72 267 135 275 140 8 5
62 31 120 60 103 50 123 60 158 80 15 9 35 18 107 51 11 5 27 13 35 18 8 5 38
20 65 34 87 44 209 107 225 117 8 5 22 11 30 14 8 4 42 21 75 39 156 86 255
138 430 227 105 53 199 101 210 107 11 6 49 26 85 44 36 17 88 44 115 58 83
44 209 77 345 92 47 4 107 13 133 19 62 13 228 13 342 -1 50 -6 128 -15 175
-20 100 -10 227 -31 290 -48 132 -36 157 -44 183 -57 16 -8 35 -14 43 -14 8 0
22 -4 32 -9 9 -6 40 -20 67 -32 71 -31 104 -48 153 -81 24 -15 46 -28 49 -28
3 0 24 -15 47 -32 132 -103 332 -356 396 -500 11 -26 25 -50 30 -53 4 -3 12
-20 16 -37 3 -18 10 -39 15 -48 26 -49 39 -86 45 -128 3 -26 11 -55 16 -65 5
-10 10 -96 10 -191 0 -152 -3 -184 -26 -278 -14 -58 -40 -133 -56 -167 -17
-33 -30 -66 -30 -74 0 -23 -220 -242 -280 -278 -91 -56 -207 -109 -237 -109
-10 0 -23 -4 -28 -9 -6 -5 -39 -14 -75 -20 -36 -5 -85 -15 -110 -21 -66 -17
-522 -9 -544 9 -9 8 -20 11 -23 7 -4 -4 -1 -11 7 -16 25 -16 2 -23 -85 -28
-92 -5 -138 7 -156 39 -8 16 -22 19 -91 19 -82 0 -175 23 -191 48 -4 6 -23 12
-41 12 -18 0 -58 14 -89 30 -31 17 -62 30 -69 30 -32 0 -97 36 -100 55 -3 17
-9 19 -41 17 -44 -3 -59 18 -32 48 17 18 16 19 -34 26 -28 4 -54 11 -57 15 -3
5 -19 9 -35 9 -54 0 -182 74 -162 93 9 10 57 9 68 -1 6 -5 64 -26 130 -47 66
-21 127 -45 136 -52 8 -7 21 -13 27 -13 6 0 18 -10 26 -22 9 -13 33 -28 54
-34 25 -7 38 -17 40 -31 2 -17 13 -22 50 -27 49 -7 113 -25 197 -56 28 -10 70
-24 95 -30 25 -7 61 -19 81 -27 38 -16 90 -15 90 2 0 6 -19 13 -41 16 -22 3
-46 11 -52 17 -7 7 -24 12 -38 12 -14 0 -31 5 -37 11 -7 7 -38 20 -70 31 -85
28 -298 126 -333 154 -8 6 -46 28 -85 49 -38 20 -86 46 -105 57 -19 11 -60 34
-90 50 -81 44 -372 219 -391 235 -27 23 -128 16 -174 -12 -22 -14 -47 -28 -55
-32 -8 -3 -22 -13 -31 -22 -9 -9 -34 -32 -55 -52 -62 -58 -127 -144 -149 -199
-4 -8 -13 -30 -21 -48 -8 -18 -14 -65 -14 -106 0 -68 2 -76 28 -102 16 -16 52
-45 81 -64 29 -19 58 -39 64 -45 32 -26 77 -55 87 -55 5 0 10 -5 10 -10 0 -6
8 -14 18 -17 16 -6 101 -59 200 -124 24 -16 48 -29 53 -29 6 0 25 -11 42 -24
18 -14 43 -30 57 -35 14 -6 39 -20 55 -31 17 -10 64 -36 105 -57 41 -21 77
-41 80 -44 3 -3 43 -25 90 -48 47 -23 92 -46 100 -51 8 -5 22 -11 30 -14 8 -3
22 -10 30 -15 14 -8 40 -20 122 -55 20 -9 42 -16 50 -16 7 0 22 -6 33 -14 11
-7 34 -16 50 -18 17 -3 45 -11 63 -17 17 -6 47 -16 65 -22 17 -6 50 -14 72
-18 23 -4 47 -11 55 -16 8 -5 38 -13 65 -16 28 -4 68 -12 90 -18 245 -62 779
-76 986 -25 31 8 72 14 90 14 19 0 43 7 53 15 11 8 32 15 48 15 15 0 42 6 60
14 18 8 53 22 78 31 129 50 254 111 333 164 103 69 263 225 355 346 42 55 82
106 89 113 7 7 13 20 13 28 0 8 4 14 8 14 4 0 18 19 30 43 13 23 36 65 52 92
16 28 29 57 30 65 0 8 14 42 30 74 17 32 30 65 30 73 0 7 5 21 10 31 6 9 22
62 36 117 40 154 43 168 38 177 -3 4 3 22 12 40 14 27 18 70 21 243 3 116 0
244 -6 285 -17 126 -52 282 -79 350 -5 14 -15 43 -22 65 -7 22 -28 71 -46 109
-19 39 -34 75 -34 82 0 6 -7 17 -15 24 -8 7 -15 19 -15 27 0 8 -11 28 -25 45
-14 16 -25 35 -25 42 0 19 -176 280 -250 372 -72 88 -219 234 -236 234 -6 0
-19 10 -30 21 -36 41 -328 219 -358 219 -8 0 -17 4 -20 9 -3 4 -70 32 -148 61
-79 28 -152 56 -163 60 -21 9 -135 42 -220 65 -27 8 -86 21 -130 30 -44 9
-100 21 -125 26 -25 5 -88 14 -140 20 -52 5 -129 14 -170 19 -89 11 -691 10
-770 0z m-6972 -352 c-3 -7 -24 -17 -49 -21 -24 -4 -65 -14 -90 -22 -26 -8
-53 -15 -62 -15 -8 0 -21 -10 -29 -21 -12 -19 -20 -21 -52 -15 -35 7 -62 36
-39 43 6 2 21 12 33 23 15 13 44 20 108 25 48 3 94 8 102 9 40 9 81 5 78 -6z
m4822 -577 c0 -6 -5 -13 -10 -16 -15 -9 -43 3 -35 15 8 13 45 13 45 1z m-1529
-631 c16 0 29 -4 29 -10 0 -13 -97 -13 -104 -1 -7 11 14 21 32 15 8 -2 27 -4
43 -4z m5973 -735 c21 -32 20 -35 -8 -35 -30 0 -40 13 -31 40 8 27 19 25 39
-5z m-2504 -630 c0 -8 -6 -15 -14 -15 -17 0 -28 14 -19 24 12 12 33 6 33 -9z
m2040 -94 c0 -12 -20 -25 -27 -18 -7 7 6 27 18 27 5 0 9 -4 9 -9z m-1800 -552
c0 -5 -7 -9 -15 -9 -15 0 -20 12 -9 23 8 8 24 -1 24 -14z m-9360 -981 c0 -7
-11 -21 -25 -31 -32 -23 -47 -1 -15 25 26 21 40 23 40 6z m58 -19 c-2 -6 -8
-10 -13 -10 -5 0 -11 4 -13 10 -2 6 4 11 13 11 9 0 15 -5 13 -11z m-118 -54
c0 -17 -31 -75 -39 -75 -6 0 -13 -11 -17 -24 -5 -23 -73 -86 -92 -86 -5 0 -32
-23 -61 -50 -52 -52 -73 -51 -52 1 22 55 261 269 261 234z m180 -3061 c0 -13
-4 -24 -10 -24 -5 0 -10 14 -10 31 0 17 4 28 10 24 6 -3 10 -17 10 -31z m63
-138 c3 -8 -1 -22 -8 -33 -13 -17 -14 -16 -15 15 0 33 13 43 23 18z m994 -120
c6 -37 5 -38 -16 -25 -16 10 -21 24 -21 54 0 35 2 38 15 24 9 -8 18 -32 22
-53z m-872 40 c16 -12 17 -16 6 -30 -21 -25 -51 -20 -51 7 0 39 14 46 45 23z
m949 -368 c8 -34 -11 -46 -24 -14 -13 35 -13 36 4 36 7 0 16 -10 20 -22z
m-894 -157 c-13 -26 -30 -19 -30 13 0 31 11 39 28 22 11 -11 11 -18 2 -35z
m-2383 -67 c2 -6 -3 -14 -12 -17 -21 -9 -68 10 -60 24 9 13 67 8 72 -7z m63
-34 c0 -5 -9 -10 -20 -10 -11 0 -20 5 -20 10 0 6 9 10 20 10 11 0 20 -4 20
-10z m2320 -54 c0 -19 -4 -38 -10 -41 -6 -4 -10 10 -10 34 0 23 5 41 10 41 6
0 10 -15 10 -34z m865 -594 c0 -18 -20 -15 -23 4 -3 10 1 15 10 12 7 -3 13
-10 13 -16z m-2365 -12 c0 -5 -7 -10 -15 -10 -8 0 -15 5 -15 10 0 6 7 10 15
10 8 0 15 -4 15 -10z m-60 -769 c0 -15 -15 -21 -38 -14 -32 8 -27 23 8 23 17
0 30 -4 30 -9z"/>
<path d="M13454 13775 c21 -16 32 -13 21 4 -3 6 -14 11 -23 11 -15 -1 -15 -2
2 -15z"/>
<path d="M13712 13768 c6 -18 28 -21 28 -4 0 9 -7 16 -16 16 -9 0 -14 -5 -12
-12z"/>
<path d="M13505 13740 c3 -5 15 -10 26 -10 11 0 17 5 14 10 -3 6 -15 10 -26
10 -11 0 -17 -4 -14 -10z"/>
<path d="M13775 13699 c-4 -6 -5 -11 -4 -12 2 -1 19 -10 37 -19 43 -23 72 -23
72 0 0 11 -13 21 -40 30 -48 15 -57 15 -65 1z"/>
<path d="M13940 13683 c0 -16 10 -23 44 -32 58 -14 119 -14 134 1 9 9 15 9 24
0 15 -15 45 -16 53 -2 3 6 -1 12 -9 15 -9 3 -24 8 -33 12 -10 4 -31 8 -48 9
-16 1 -60 6 -97 10 -64 6 -68 6 -68 -13z"/>
<path d="M14580 13600 c-12 -7 -10 -11 10 -18 25 -9 90 5 90 20 0 11 -81 10
-100 -2z"/>
<path d="M14721 13601 c-12 -8 -12 -13 3 -35 9 -15 26 -26 38 -26 12 0 32 -10
45 -22 20 -19 25 -20 33 -8 13 20 12 57 -1 65 -5 4 -19 -1 -30 -11 -20 -18
-21 -18 -47 14 -20 23 -31 29 -41 23z"/>
<path d="M14890 13590 c-20 -5 -25 -12 -23 -34 3 -37 10 -43 33 -28 18 11 22
8 34 -20 l14 -33 1 30 c1 17 4 39 7 51 7 25 -29 44 -66 34z"/>
<path d="M14980 13575 c0 -18 23 -45 39 -45 10 0 24 -6 31 -14 9 -12 7 -17 -9
-28 -12 -7 -21 -16 -21 -20 0 -14 40 -19 60 -8 20 11 21 13 5 30 -14 15 -14
21 -3 39 8 13 9 24 3 30 -12 11 -105 26 -105 16z"/>
<path d="M15226 13515 c4 -8 13 -15 21 -15 13 0 13 3 3 15 -7 8 -16 15 -21 15
-5 0 -6 -7 -3 -15z"/>
<path d="M15180 13455 c0 -14 37 -31 47 -22 8 9 -5 24 -27 30 -13 3 -20 0 -20
-8z"/>
<path d="M14370 13440 c0 -11 48 -25 56 -17 4 3 3 10 -1 16 -8 14 -55 14 -55
1z"/>
<path d="M6178 13428 c-16 -5 -28 -14 -28 -19 0 -5 -7 -9 -15 -9 -9 0 -18 -8
-21 -17 -3 -10 -13 -33 -22 -51 -16 -31 -16 -34 1 -46 9 -7 17 -19 17 -27 0
-19 64 -69 89 -69 11 0 46 -6 78 -14 52 -12 149 -15 341 -8 57 2 71 21 30 43
-28 15 -155 14 -218 -2 -58 -15 -78 -8 -86 28 -7 34 -36 93 -45 93 -16 0 -27
-56 -14 -73 15 -21 8 -67 -11 -67 -8 0 -14 8 -14 18 0 26 -10 33 -31 22 -15
-9 -21 -4 -35 25 -21 45 -13 119 16 150 30 32 17 41 -32 23z"/>
<path d="M14318 13414 c-7 -8 -23 -25 -35 -36 -13 -12 -23 -31 -23 -42 0 -11
10 -35 23 -53 l22 -34 95 7 c102 7 110 9 110 27 0 16 -101 40 -133 32 -14 -4
-28 -1 -35 8 -13 15 -6 47 9 47 5 0 9 14 9 30 0 33 -21 40 -42 14z"/>
<path d="M15252 13408 c7 -19 38 -22 38 -4 0 10 -9 16 -21 16 -12 0 -19 -5
-17 -12z"/>
<path d="M15377 13394 c-3 -4 -2 -15 3 -25 6 -9 7 -25 4 -33 -8 -21 13 -46 37
-46 25 0 24 22 -1 45 -14 12 -18 25 -14 41 4 17 2 24 -8 24 -8 0 -18 -3 -21
-6z"/>
<path d="M14720 13361 c-22 -6 -23 -8 -7 -14 26 -10 67 -9 67 2 0 7 -27 24
-33 20 -1 -1 -13 -4 -27 -8z"/>
<path d="M15496 13343 c-11 -11 -6 -23 9 -23 8 0 15 4 15 9 0 13 -16 22 -24
14z"/>
<path d="M14837 13324 c-3 -3 -2 -17 4 -31 5 -13 9 -26 9 -28 0 -8 -179 9
-206 20 -26 11 -34 10 -53 -4 l-22 -17 24 -11 c18 -8 36 -9 62 -2 34 10 41 7
89 -26 46 -32 59 -36 102 -33 l49 3 3 40 c2 31 -3 47 -20 68 -24 28 -31 31
-41 21z"/>
<path d="M6913 13297 c-4 -7 -45 -28 -90 -47 -46 -18 -83 -37 -83 -41 0 -15
45 -18 60 -4 9 8 32 18 51 22 19 3 39 13 45 21 5 7 22 15 37 15 30 2 32 5 13
30 -16 20 -22 21 -33 4z"/>
<path d="M15650 13265 c0 -8 5 -15 10 -15 6 0 10 7 10 15 0 8 -4 15 -10 15 -5
0 -10 -7 -10 -15z"/>
<path d="M5742 13203 c-10 -38 -9 -57 1 -91 17 -57 59 -108 101 -123 33 -12
35 -15 39 -68 3 -31 10 -80 17 -109 11 -46 11 -58 -4 -90 -28 -62 2 -156 67
-212 27 -23 28 -28 17 -47 -11 -17 -11 -29 -2 -61 7 -22 12 -48 12 -58 1 -62
160 -166 380 -249 25 -9 60 -23 78 -31 18 -8 40 -14 50 -14 9 0 34 -6 57 -14
68 -24 214 -45 340 -50 148 -5 287 5 292 21 5 13 -127 80 -167 85 -18 2 -24 8
-22 23 2 18 1 19 -11 3 -24 -31 -61 -32 -115 -3 -44 23 -56 25 -84 17 -70 -22
-118 -25 -143 -8 -13 9 -35 16 -48 16 -28 0 -47 17 -40 36 8 22 -34 17 -68 -7
-31 -22 -58 -17 -38 7 10 12 6 13 -19 8 -17 -4 -32 -1 -36 5 -4 7 1 11 13 11
12 0 21 4 21 9 0 18 -17 20 -36 6 -29 -22 -40 -18 -86 26 -45 44 -82 64 -110
60 -30 -4 -68 47 -68 90 0 22 -4 39 -10 39 -5 0 -10 9 -10 20 0 11 -7 23 -15
26 -10 4 -13 13 -10 25 4 13 1 21 -12 26 -10 3 -30 17 -44 30 -23 21 -27 22
-33 8 -9 -24 -26 -8 -26 24 0 15 -7 36 -15 47 -17 23 -20 54 -4 54 6 0 13 -9
16 -20 11 -42 26 -12 28 55 1 44 -4 78 -12 91 -11 18 -11 23 2 34 20 16 19 40
-2 70 -12 17 -13 25 -5 28 22 7 13 24 -10 19 -50 -13 -98 42 -98 114 0 15 -4
30 -9 33 -4 3 -14 27 -21 53 -13 50 -41 83 -69 83 -12 0 -21 -14 -29 -47z
m368 -788 c0 -17 -2 -18 -24 -9 -23 9 -20 24 4 24 11 0 20 -7 20 -15z"/>
<path d="M15711 13215 c24 -25 49 -33 49 -15 0 9 -51 40 -66 40 -3 0 4 -11 17
-25z"/>
<path d="M15562 13181 c4 -13 18 -16 19 -4 0 4 -5 9 -11 12 -7 2 -11 -2 -8 -8z"/>
<path d="M13196 13123 c-11 -11 -6 -23 9 -23 8 0 15 4 15 9 0 13 -16 22 -24
14z"/>
<path d="M6061 13104 c23 -28 160 -87 172 -75 6 6 24 11 39 11 15 0 28 4 28 9
0 11 -36 21 -78 21 -20 0 -47 10 -66 25 -39 30 -119 37 -95 9z"/>
<path d="M6660 13110 c20 -5 39 -5 45 1 5 5 -8 9 -35 8 l-45 -1 35 -8z"/>
<path d="M6475 13033 c-43 -6 -52 -19 -31 -42 12 -13 16 -26 11 -38 -12 -27
-15 -132 -4 -138 14 -9 27 35 22 76 -3 21 0 40 6 43 6 4 11 21 11 37 0 17 6
32 15 35 15 6 22 35 8 33 -5 -1 -21 -4 -38 -6z"/>
<path d="M16025 12997 c-4 -10 -5 -21 -1 -24 10 -10 18 4 13 24 -4 17 -4 17
-12 0z"/>
<path d="M15567 12944 c-8 -8 1 -24 14 -24 5 0 9 7 9 15 0 15 -12 20 -23 9z"/>
<path d="M6540 12851 c0 -16 6 -21 29 -21 20 0 34 -8 46 -26 19 -30 39 -20 33
17 -2 18 -11 25 -38 30 -19 3 -43 10 -52 14 -14 5 -18 2 -18 -14z"/>
<path d="M7100 12816 c0 -19 26 -38 45 -34 14 3 14 5 0 26 -18 24 -45 30 -45
8z"/>
<path d="M7310 12720 c0 -5 14 -10 30 -10 17 0 30 5 30 10 0 6 -13 10 -30 10
-16 0 -30 -4 -30 -10z"/>
<path d="M6792 12699 c2 -7 10 -15 17 -17 8 -3 12 1 9 9 -2 7 -10 15 -17 17
-8 3 -12 -1 -9 -9z"/>
<path d="M8356 12625 c-3 -8 -17 -15 -31 -15 -14 0 -25 -4 -25 -10 0 -5 8 -10
18 -10 24 0 82 29 82 41 0 15 -37 10 -44 -6z"/>
<path d="M7107 12613 c-13 -13 -7 -90 8 -103 13 -11 15 -6 15 36 0 50 -11 80
-23 67z"/>
<path d="M7270 12451 c0 -12 43 -74 55 -78 6 -1 16 1 24 6 12 8 9 16 -15 44
-27 33 -64 49 -64 28z"/>
<path d="M8535 12438 c-11 -7 -25 -18 -30 -25 -6 -8 -23 -13 -40 -11 -26 3
-30 0 -27 -20 3 -20 0 -23 -16 -18 -14 5 -24 -1 -36 -19 -9 -14 -26 -25 -37
-25 -24 0 -83 -55 -74 -70 8 -13 42 -13 50 0 3 6 14 10 23 10 10 0 25 8 34 18
23 24 46 42 53 42 4 0 25 15 48 34 23 19 51 36 62 38 21 3 33 34 18 48 -4 5
-17 4 -28 -2z"/>
<path d="M6175 12367 c-4 -10 -5 -21 -1 -24 10 -10 18 4 13 24 -4 17 -4 17
-12 0z"/>
<path d="M9977 12312 c-9 -2 -15 -8 -12 -13 8 -12 55 -12 55 0 0 12 -21 18
-43 13z"/>
<path d="M8515 12300 c-8 -12 20 -24 35 -15 6 3 8 11 5 16 -8 12 -32 12 -40
-1z"/>
<path d="M8502 12223 c-17 -7 -5 -23 19 -23 10 0 19 7 19 15 0 15 -14 18 -38
8z"/>
<path d="M7586 12211 c5 -5 24 -12 42 -16 25 -5 32 -3 32 9 0 12 -10 16 -42
16 -25 0 -38 -4 -32 -9z"/>
<path d="M8547 12193 c-12 -11 -8 -21 13 -26 11 -3 20 -10 20 -16 0 -15 -37
-14 -43 2 -3 9 -7 9 -17 0 -7 -6 -10 -19 -7 -27 8 -21 75 -22 83 -1 4 8 12 15
19 15 26 0 26 20 2 29 -14 6 -28 15 -32 20 -7 12 -28 14 -38 4z"/>
<path d="M7157 12163 c-7 -37 6 -66 50 -110 38 -38 172 -131 248 -173 22 -12
52 -29 66 -38 15 -9 78 -48 140 -86 63 -39 139 -87 170 -108 55 -37 106 -51
96 -25 -2 6 -10 37 -18 67 -23 91 -50 134 -90 141 -19 3 -44 11 -56 17 -12 7
-31 12 -43 12 -11 0 -35 7 -51 16 -25 12 -28 18 -18 30 9 12 6 14 -20 14 -19
0 -34 6 -37 15 -3 8 -25 25 -49 38 -41 23 -44 24 -48 6 -8 -28 -30 -14 -50 31
-16 38 -39 51 -52 30 -12 -19 -25 -10 -57 40 -37 56 -60 68 -94 49 -21 -11
-27 -10 -44 9 -11 12 -20 28 -20 37 0 26 -17 17 -23 -12z m121 -67 c3 -12 -1
-17 -10 -14 -7 3 -15 13 -16 22 -3 12 1 17 10 14 7 -3 15 -13 16 -22z"/>
<path d="M8353 12183 c-21 -8 -14 -37 13 -57 21 -15 30 -16 50 -7 26 12 33 51
9 51 -8 0 -15 5 -15 10 0 10 -35 12 -57 3z"/>
<path d="M6685 12159 c-10 -15 3 -25 16 -12 7 7 7 13 1 17 -6 3 -14 1 -17 -5z"/>
<path d="M7370 12123 c0 -10 4 -25 10 -33 8 -12 10 -12 16 3 7 20 -1 47 -16
47 -5 0 -10 -8 -10 -17z"/>
<path d="M7730 12084 c0 -17 22 -14 28 4 2 7 -3 12 -12 12 -9 0 -16 -7 -16
-16z"/>
<path d="M8368 12063 c-13 -15 -37 -35 -54 -43 -35 -19 -45 -50 -16 -50 11 0
25 7 32 15 7 8 19 15 27 15 7 0 17 8 20 18 4 9 16 24 26 32 17 14 17 17 4 28
-12 10 -19 8 -39 -15z"/>
<path d="M7810 12040 c-13 -8 -13 -11 2 -26 23 -24 53 -11 38 16 -12 22 -18
24 -40 10z"/>
<path d="M8466 12041 c-7 -10 37 -41 58 -41 16 0 25 19 19 38 -5 14 -69 17
-77 3z"/>
<path d="M8491 11972 c-1 -13 5 -30 12 -37 28 -32 34 -42 41 -68 3 -15 11 -25
16 -22 13 8 13 65 1 65 -5 0 -13 9 -16 20 -3 11 -12 20 -19 20 -7 0 -18 10
-24 23 l-11 22 0 -23z"/>
<path d="M8550 11975 c0 -8 5 -15 10 -15 6 0 10 7 10 15 0 8 -4 15 -10 15 -5
0 -10 -7 -10 -15z"/>
<path d="M8194 11964 c3 -9 6 -22 6 -30 0 -8 7 -14 15 -14 18 0 19 19 1 43
-16 21 -30 22 -22 1z"/>
<path d="M8037 11873 c-11 -10 -8 -43 3 -43 6 0 10 11 10 25 0 26 -2 29 -13
18z"/>
<path d="M8314 11836 c-19 -14 -19 -15 4 -38 28 -31 28 -34 -10 -69 -20 -19
-28 -33 -22 -39 7 -7 24 3 48 25 29 26 37 40 33 56 -3 12 0 30 6 40 10 16 9
21 -3 29 -21 13 -33 12 -56 -4z"/>
<path d="M8490 11827 c0 -7 5 -18 10 -23 8 -8 6 -15 -5 -24 -21 -17 -19 -30 5
-30 12 0 25 10 32 25 9 21 8 28 -7 45 -21 23 -35 26 -35 7z"/>
<path d="M10550 11820 c-6 -12 -10 -25 -8 -30 5 -14 53 14 53 30 0 23 -33 23
-45 0z"/>
<path d="M10295 11650 c-8 -12 20 -24 35 -15 6 3 8 11 5 16 -8 12 -32 12 -40
-1z"/>
<path d="M10140 11600 c-13 -24 -12 -24 34 -5 44 19 45 25 6 25 -19 0 -33 -7
-40 -20z"/>
<path d="M10080 11564 c0 -17 22 -14 28 4 2 7 -3 12 -12 12 -9 0 -16 -7 -16
-16z"/>
<path d="M8200 11549 c-11 -20 -11 -20 19 -4 36 18 39 25 11 25 -10 0 -24 -9
-30 -21z"/>
<path d="M8157 11513 c-12 -11 -8 -23 8 -23 8 0 15 7 15 15 0 16 -12 20 -23 8z"/>
<path d="M9830 11450 c-6 -11 -17 -20 -25 -20 -17 0 -28 -16 -21 -29 10 -16
42 0 59 29 19 32 21 40 7 40 -5 0 -14 -9 -20 -20z"/>
<path d="M9590 11338 c-6 -13 -15 -31 -22 -40 -18 -26 -1 -35 22 -11 10 12 24
23 31 25 14 5 3 48 -12 48 -5 0 -14 -10 -19 -22z"/>
<path d="M12962 11279 l-33 -17 30 -23 c75 -62 92 -74 111 -81 33 -12 25 19
-15 59 -19 19 -35 43 -35 53 0 25 -20 29 -58 9z"/>
<path d="M15835 11220 c-8 -13 4 -32 16 -25 12 8 12 35 0 35 -6 0 -13 -4 -16
-10z"/>
<path d="M12626 11171 c-7 -11 3 -41 14 -41 11 0 21 30 14 41 -3 5 -9 9 -14 9
-5 0 -11 -4 -14 -9z"/>
<path d="M12656 11063 c-12 -12 -6 -33 9 -33 8 0 15 6 15 14 0 17 -14 28 -24
19z"/>
<path d="M9062 11048 c-14 -14 -16 -38 -4 -38 10 0 42 33 42 43 0 11 -25 8
-38 -5z"/>
<path d="M7390 11039 c-14 -4 -38 -11 -55 -15 -27 -6 -28 -7 -9 -14 17 -7 110
6 124 17 5 4 -22 23 -30 22 -3 -1 -16 -5 -30 -10z"/>
<path d="M7646 11021 c-20 -21 -41 -30 -75 -35 -29 -4 -55 -14 -66 -26 -12
-13 -31 -20 -55 -20 -21 0 -48 -8 -61 -18 -13 -11 -36 -22 -50 -25 -14 -4 -42
-18 -63 -32 -20 -14 -43 -25 -50 -25 -22 0 -74 -30 -115 -67 -38 -33 -87 -65
-123 -79 -33 -12 -18 -22 25 -17 23 4 58 17 77 30 19 12 45 23 57 23 13 0 30
12 43 31 14 19 30 30 44 28 37 -3 44 1 50 25 4 17 15 26 35 31 16 3 35 13 42
21 6 8 22 14 35 14 12 0 25 4 29 9 3 5 19 12 35 16 17 4 30 10 30 15 0 4 28
11 62 14 57 7 67 11 105 52 24 24 43 49 43 54 0 19 -27 10 -54 -19z"/>
<path d="M8990 10985 c0 -8 7 -15 15 -15 8 0 15 7 15 15 0 8 -7 15 -15 15 -8
0 -15 -7 -15 -15z"/>
<path d="M12920 10991 c-22 -4 -36 -12 -38 -23 -4 -22 16 -23 39 -2 16 15 20
15 41 0 37 -26 57 -20 26 9 -15 14 -28 24 -30 24 -2 -1 -19 -4 -38 -8z"/>
<path d="M7090 10930 c0 -5 9 -10 21 -10 11 0 17 5 14 10 -3 6 -13 10 -21 10
-8 0 -14 -4 -14 -10z"/>
<path d="M13040 10919 c0 -9 59 -39 77 -39 13 0 -51 49 -64 50 -7 0 -13 -5
-13 -11z"/>
<path d="M14228 10904 c-17 -16 13 -44 47 -44 36 0 41 5 27 27 -9 15 -64 28
-74 17z"/>
<path d="M13190 10840 c0 -5 7 -10 15 -10 8 0 15 5 15 10 0 6 -7 10 -15 10 -8
0 -15 -4 -15 -10z"/>
<path d="M13155 10720 c-8 -12 20 -24 35 -15 6 3 8 11 5 16 -8 12 -32 12 -40
-1z"/>
<path d="M6920 10625 c0 -8 7 -15 15 -15 8 0 15 7 15 15 0 8 -7 15 -15 15 -8
0 -15 -7 -15 -15z"/>
<path d="M6530 10590 c0 -5 9 -10 20 -10 11 0 20 5 20 10 0 6 -9 10 -20 10
-11 0 -20 -4 -20 -10z"/>
<path d="M6716 10584 c-10 -26 5 -39 21 -19 7 11 13 22 13 27 0 15 -28 8 -34
-8z"/>
<path d="M6833 10585 c-3 -9 -3 -18 0 -21 9 -9 27 6 27 22 0 19 -19 18 -27 -1z"/>
<path d="M13580 10470 c0 -5 6 -10 14 -10 8 0 18 5 21 10 3 6 -3 10 -14 10
-12 0 -21 -4 -21 -10z"/>
<path d="M15145 10200 c-8 -13 25 -13 45 0 12 8 9 10 -12 10 -15 0 -30 -4 -33
-10z"/>
<path d="M5827 10123 c-14 -13 -6 -24 15 -21 27 4 36 28 11 28 -11 0 -23 -3
-26 -7z"/>
<path d="M7060 9990 c19 -13 30 -13 30 0 0 6 -10 10 -22 10 -19 0 -20 -2 -8
-10z"/>
<path d="M5424 9909 c-8 -14 11 -33 25 -25 6 4 11 11 11 16 0 13 -29 20 -36 9z"/>
<path d="M5208 9763 c-10 -2 -18 -9 -18 -14 0 -15 53 -6 58 9 4 12 -8 14 -40
5z"/>
<path d="M4896 9653 c-3 -3 -3 -10 0 -14 7 -12 34 -11 34 0 0 11 -26 22 -34
14z"/>
<path d="M4525 9560 c-37 -5 -40 -7 -37 -32 1 -16 -2 -28 -8 -28 -5 0 -10 -9
-10 -20 0 -11 4 -20 9 -20 21 0 41 13 41 26 0 16 9 17 96 14 36 -1 65 3 68 9
4 6 6 11 3 11 -2 0 -30 10 -63 23 -41 15 -71 21 -99 17z"/>
<path d="M4430 9366 c0 -9 7 -16 16 -16 17 0 14 22 -4 28 -7 2 -12 -3 -12 -12z"/>
<path d="M4063 9036 c-14 -6 -23 -20 -23 -32 0 -14 -8 -24 -21 -27 -25 -7 -22
-40 4 -45 12 -3 17 3 17 22 0 19 5 26 20 26 12 0 25 10 32 25 14 32 1 45 -29
31z"/>
<path d="M3890 8495 c-7 -8 -9 -22 -5 -32 4 -10 10 -47 14 -82 7 -70 31 -100
31 -37 0 19 4 37 10 41 5 3 14 22 19 43 10 34 8 38 -17 59 -32 27 -36 27 -52
8z"/>
<path d="M3979 8296 c-9 -9 6 -111 16 -108 6 1 10 9 9 17 0 8 -1 33 -2 55 -2
36 -10 49 -23 36z"/>
<path d="M3980 8110 c0 -5 9 -10 20 -10 11 0 20 5 20 10 0 6 -9 10 -20 10 -11
0 -20 -4 -20 -10z"/>
<path d="M4040 8056 c0 -9 7 -16 16 -16 17 0 14 22 -4 28 -7 2 -12 -3 -12 -12z"/>
<path d="M3858 7939 c-18 -10 -25 -49 -9 -49 14 0 33 28 29 44 -2 11 -7 12
-20 5z"/>
<path d="M4097 7724 c-3 -3 -1 -15 6 -25 9 -15 8 -21 -8 -33 -21 -15 -15 -32
8 -23 15 6 31 63 21 78 -6 10 -18 12 -27 3z"/>
<path d="M4420 7615 c-10 -12 -10 -21 -2 -40 16 -34 32 -31 32 5 0 17 0 33 1
37 1 15 -18 13 -31 -2z"/>
<path d="M4294 7586 c-16 -12 -17 -17 -6 -28 11 -11 16 -10 28 6 26 36 14 48
-22 22z"/>
<path d="M4582 7578 c5 -32 28 -35 28 -4 0 17 -5 26 -16 26 -10 0 -14 -7 -12
-22z"/>
<path d="M4470 7505 c0 -16 9 -19 34 -9 20 8 11 24 -15 24 -10 0 -19 -7 -19
-15z"/>
<path d="M4115 7500 c-3 -5 1 -10 9 -10 8 0 18 5 21 10 3 6 -1 10 -9 10 -8 0
-18 -4 -21 -10z"/>
<path d="M4555 7460 c-17 -18 -16 -20 11 -44 16 -14 32 -26 35 -26 7 0 39 45
39 55 0 12 -28 4 -34 -10 -7 -20 -25 -19 -33 1 -4 11 1 22 12 30 15 11 16 14
3 14 -8 0 -23 -9 -33 -20z"/>
<path d="M4446 7463 c-11 -11 -6 -23 9 -23 8 0 15 4 15 9 0 13 -16 22 -24 14z"/>
<path d="M4185 7391 c-3 -6 -3 -17 2 -23 4 -7 6 -26 4 -41 -2 -20 4 -33 23
-48 14 -11 26 -26 26 -34 0 -7 7 -16 15 -19 9 -3 23 -22 31 -41 10 -25 21 -35
37 -35 27 0 41 -10 50 -32 7 -20 32 -24 43 -6 4 6 0 16 -9 23 -10 7 -17 26
-17 43 0 24 -6 34 -27 44 -15 7 -36 32 -48 56 -11 23 -25 42 -31 42 -15 0 -41
31 -46 55 -4 22 -42 33 -53 16z"/>
<path d="M4494 7355 c25 -19 46 -19 46 0 0 10 -10 15 -32 15 -31 -1 -32 -1
-14 -15z"/>
<path d="M4768 7074 c-9 -18 -9 -30 -1 -42 17 -27 42 -26 49 2 14 57 -25 90
-48 40z"/>
<path d="M4470 6455 c0 -9 6 -12 15 -9 8 4 12 10 9 15 -8 14 -24 10 -24 -6z"/>
<path d="M4670 5976 c0 -9 7 -16 16 -16 17 0 14 22 -4 28 -7 2 -12 -3 -12 -12z"/>
<path d="M4696 5876 c-28 -38 -32 -81 -7 -81 14 0 45 87 39 107 -2 6 -16 -6
-32 -26z"/>
<path d="M5160 5880 c0 -5 6 -10 14 -10 8 0 18 5 21 10 3 6 -3 10 -14 10 -12
0 -21 -4 -21 -10z"/>
<path d="M4720 5776 c0 -18 16 -29 30 -21 13 8 1 35 -16 35 -8 0 -14 -6 -14
-14z"/>
<path d="M4701 5691 c-15 -27 -14 -31 9 -31 13 0 20 7 20 19 0 28 -17 35 -29
12z"/>
<path d="M1722 5399 c2 -16 10 -25 27 -27 29 -4 25 15 -8 36 -22 15 -23 15
-19 -9z"/>
<path d="M2056 5411 c-3 -5 7 -14 24 -19 30 -11 47 -2 35 18 -8 12 -52 13 -59
1z"/>
<path d="M5410 5410 c0 -5 9 -10 20 -10 11 0 20 5 20 10 0 6 -9 10 -20 10 -11
0 -20 -4 -20 -10z"/>
<path d="M4705 5388 c-4 -10 -4 -26 0 -35 8 -17 8 -17 12 0 3 9 3 25 0 35 -4
16 -4 16 -12 0z"/>
<path d="M2150 5380 c-11 -7 -9 -11 13 -19 37 -14 37 -14 37 9 0 21 -24 27
-50 10z"/>
<path d="M1860 5271 c0 -12 5 -21 10 -21 6 0 10 6 10 14 0 8 -4 18 -10 21 -5
3 -10 -3 -10 -14z"/>
<path d="M1665 5150 c-9 -15 5 -52 18 -47 19 6 21 57 3 57 -8 0 -18 -5 -21
-10z"/>
<path d="M1807 5132 c-24 -26 -23 -92 1 -92 12 0 17 8 18 28 0 15 4 39 8 55 9
31 -3 36 -27 9z"/>
<path d="M2060 5108 c0 -7 4 -19 9 -27 11 -17 23 1 15 23 -7 19 -24 21 -24 4z"/>
<path d="M1867 5052 c-17 -19 -24 -72 -9 -72 4 0 13 5 20 12 9 9 15 9 24 0 18
-18 28 -14 28 12 0 13 -7 26 -15 30 -8 3 -15 12 -15 21 0 20 -13 19 -33 -3z"/>
<path d="M4601 5021 c-11 -7 -9 -10 8 -16 22 -7 41 0 41 16 0 11 -30 12 -49 0z"/>
<path d="M2520 5011 c0 -17 54 -54 59 -40 2 6 -7 20 -20 30 -27 21 -39 24 -39
10z"/>
<path d="M1995 4940 c-3 -5 -1 -28 5 -50 9 -33 15 -40 35 -40 30 0 32 20 8 61
-18 31 -39 43 -48 29z"/>
<path d="M1942 4918 c2 -13 8 -23 13 -23 6 0 11 10 13 23 2 15 -2 22 -13 22
-11 0 -15 -7 -13 -22z"/>
<path d="M2097 4874 c-4 -4 -7 -21 -7 -38 1 -32 41 -73 60 -61 15 9 12 35 -5
42 -9 3 -21 19 -28 35 -7 16 -15 26 -20 22z"/>
<path d="M2777 4803 c-3 -5 -2 -15 3 -22 10 -17 43 -6 38 12 -6 15 -34 22 -41
10z"/>
<path d="M2180 4766 c0 -14 5 -28 10 -31 6 -3 10 5 10 19 0 14 -4 28 -10 31
-6 3 -10 -5 -10 -19z"/>
<path d="M2087 4734 c-14 -19 -15 -24 -4 -24 20 0 42 29 31 40 -5 5 -16 -2
-27 -16z"/>
<path d="M2870 4740 c0 -5 7 -10 15 -10 8 0 15 5 15 10 0 6 -7 10 -15 10 -8 0
-15 -4 -15 -10z"/>
<path d="M3150 4656 c0 -10 9 -16 21 -16 24 0 21 23 -4 28 -10 2 -17 -3 -17
-12z"/>
<path d="M3230 4601 c0 -17 12 -41 20 -41 10 0 1 38 -11 46 -5 3 -9 1 -9 -5z"/>
<path d="M4585 4560 c-9 -15 14 -60 32 -60 19 0 16 28 -6 51 -13 14 -21 17
-26 9z"/>
<path d="M3190 4000 c-11 -7 -7 -10 18 -10 20 0 31 4 27 10 -8 13 -26 13 -45
0z"/>
<path d="M7777 2234 c-14 -14 -7 -35 11 -32 9 2 17 10 17 17 0 16 -18 25 -28
15z"/>
</g>
</svg>
