<?xml version="1.0" standalone="no"?>
<!DOCTYPE svg PUBLIC "-//W3C//DTD SVG 20010904//EN"
 "http://www.w3.org/TR/2001/REC-SVG-20010904/DTD/svg10.dtd">
<svg version="1.0" xmlns="http://www.w3.org/2000/svg"
 width="1800.000000pt" height="1527.000000pt" viewBox="0 0 1800.000000 1527.000000"
 preserveAspectRatio="xMidYMid meet">
<g transform="translate(0.000000,1527.000000) scale(0.100000,-0.100000)"
fill="#000000" stroke="none">
<path d="M5660 15170 c-100 -10 -199 -31 -255 -55 -82 -35 -206 -142 -295
-255 -68 -87 -73 -105 -76 -285 -3 -169 -5 -153 71 -525 34 -164 98 -363 184
-575 5 -11 17 -40 26 -65 73 -186 176 -383 310 -599 127 -203 378 -557 484
-681 33 -39 29 -59 -16 -83 -117 -60 -274 -136 -413 -200 -30 -13 -143 -62
-250 -107 -107 -45 -217 -92 -245 -105 -27 -12 -75 -33 -105 -45 -30 -12 -68
-27 -85 -34 -16 -8 -50 -21 -75 -31 -80 -30 -134 -57 -167 -81 -61 -46 -67
-42 -292 180 -113 112 -228 223 -256 246 -27 24 -52 46 -55 50 -6 8 -209 182
-263 225 -21 17 -49 40 -63 52 -13 13 -57 49 -96 80 -39 32 -92 75 -117 96
-143 117 -416 315 -513 372 -9 6 -59 35 -110 66 -155 95 -385 214 -525 273
-94 39 -176 76 -195 86 -9 5 -48 21 -85 34 -37 13 -93 34 -123 45 -51 20 -99
32 -285 76 -85 20 -414 23 -485 5 -25 -7 -67 -15 -95 -19 -27 -4 -66 -12 -85
-18 -19 -6 -58 -18 -86 -27 -29 -9 -57 -16 -63 -16 -39 0 -264 -127 -357 -201
-66 -52 -171 -171 -219 -249 -39 -62 -119 -225 -140 -285 -9 -27 -23 -63 -30
-80 -7 -16 -20 -57 -30 -90 -111 -394 -120 -471 -120 -1060 0 -560 33 -1640
57 -1825 5 -47 14 -128 18 -180 11 -138 29 -251 46 -284 8 -16 14 -53 14 -81
0 -29 7 -77 16 -106 8 -30 22 -79 31 -109 8 -30 20 -68 25 -85 6 -16 14 -46
18 -65 4 -19 18 -60 30 -90 11 -30 28 -75 37 -100 45 -133 156 -374 201 -440
13 -19 28 -44 33 -55 5 -11 17 -32 27 -47 21 -33 99 -156 115 -183 25 -40 145
-222 182 -275 192 -277 341 -430 706 -731 69 -57 141 -117 160 -133 122 -101
348 -263 409 -292 8 -4 33 -19 55 -33 42 -27 48 -30 133 -77 226 -123 276
-149 332 -169 57 -20 144 -45 195 -56 138 -28 255 -59 345 -89 36 -12 85 -28
110 -35 25 -7 72 -21 105 -30 33 -10 76 -21 95 -26 19 -5 62 -15 95 -23 67
-17 125 -30 235 -52 41 -8 95 -19 120 -25 25 -5 79 -14 120 -19 41 -6 90 -15
110 -20 19 -5 82 -16 140 -25 58 -9 146 -22 195 -30 117 -18 226 -33 295 -40
91 -9 308 -35 425 -50 61 -8 130 -15 155 -15 25 0 65 -5 90 -11 25 -6 79 -14
120 -19 41 -5 104 -13 140 -19 36 -6 117 -18 180 -26 63 -9 145 -23 181 -31
37 -8 77 -14 90 -14 13 0 57 -6 99 -14 186 -36 246 -46 265 -46 12 0 52 -28
90 -62 72 -63 219 -195 239 -213 6 -6 60 -56 121 -110 60 -55 123 -113 141
-130 17 -16 55 -52 85 -79 30 -27 113 -104 184 -171 72 -67 142 -133 156 -146
15 -13 78 -72 140 -130 63 -59 134 -124 158 -145 24 -22 54 -48 66 -59 13 -11
73 -65 136 -120 62 -55 140 -124 174 -154 106 -95 128 -115 220 -191 50 -41
110 -92 136 -115 50 -45 71 -62 144 -120 28 -21 55 -44 60 -49 6 -6 55 -47
110 -91 55 -44 102 -82 105 -85 3 -3 45 -37 95 -75 49 -39 104 -81 121 -95
244 -190 502 -377 599 -436 26 -16 59 -37 73 -46 154 -97 474 -196 817 -252
50 -8 119 -20 155 -26 79 -13 160 -20 695 -61 182 -14 783 -30 860 -23 l60 5
160 -125 c213 -166 643 -491 728 -549 62 -44 587 -433 614 -456 6 -6 30 -23
51 -38 22 -16 120 -89 218 -163 161 -121 265 -196 312 -225 9 -5 46 -28 82
-51 36 -23 106 -66 157 -96 50 -30 103 -65 118 -77 15 -11 34 -21 42 -21 16 0
130 -38 157 -52 11 -6 47 -17 80 -25 33 -7 66 -19 74 -26 40 -32 91 -40 342
-49 270 -10 322 -11 546 -5 112 2 146 6 167 20 15 9 38 17 53 17 14 0 38 6 52
14 15 8 59 22 97 31 67 17 112 36 145 61 8 7 38 17 65 23 111 24 188 50 208
69 12 11 48 32 79 47 32 16 71 43 88 61 16 18 48 39 70 45 67 20 253 185 394
349 93 108 200 298 229 405 23 88 45 270 41 345 -10 191 -79 423 -167 565
-100 162 -266 391 -356 491 -25 28 -76 84 -112 125 -37 41 -79 88 -94 104 -43
47 -269 288 -395 420 -178 187 -1045 1050 -1356 1350 -153 148 -311 301 -350
340 -39 38 -156 151 -259 250 -268 258 -1188 1178 -1465 1465 -129 134 -264
274 -300 310 -124 124 -392 411 -463 494 -23 27 -50 58 -60 68 -37 39 -266
328 -378 478 -119 158 -207 295 -248 385 -12 28 -33 73 -46 100 -19 42 -44
101 -114 270 -21 50 -41 104 -57 155 -9 30 -22 71 -29 90 -15 39 -70 219 -91
295 -8 28 -21 73 -29 100 -8 28 -21 75 -30 105 -8 30 -22 78 -30 105 -8 28
-26 93 -40 145 -38 141 -55 202 -65 235 -5 17 -18 62 -30 100 -12 39 -28 93
-36 120 -9 28 -19 64 -24 80 -11 38 -62 183 -90 255 -12 30 -33 86 -46 123
-13 37 -28 76 -33 85 -5 9 -17 35 -26 57 -10 22 -24 53 -31 68 -8 16 -14 33
-14 38 0 18 -279 592 -350 719 -93 167 -103 185 -120 210 -22 31 -151 229
-165 252 -125 208 -428 544 -765 852 -85 77 -157 143 -160 146 -29 29 -178
148 -360 288 -175 134 -557 403 -692 487 -9 6 -40 26 -70 46 -55 37 -299 197
-478 314 -106 69 -258 165 -450 283 -58 35 -128 79 -157 98 -28 19 -54 34 -56
34 -5 0 -182 101 -227 130 -14 9 -42 24 -175 96 -62 34 -158 81 -235 116 -25
11 -56 26 -70 32 -14 7 -72 27 -130 46 -58 18 -119 40 -137 47 -17 7 -42 13
-57 13 -14 0 -51 7 -83 15 -70 19 -340 27 -463 15z m341 -90 c9 0 39 -6 65
-14 85 -24 148 -39 167 -38 10 1 20 -5 23 -13 3 -7 30 -16 62 -20 58 -7 112
-26 216 -76 33 -16 67 -29 77 -29 10 0 29 -12 43 -27 23 -25 27 -26 51 -13 31
16 46 5 19 -14 -15 -12 -16 -17 -7 -27 9 -9 15 -9 26 -1 11 10 28 3 83 -34 38
-25 78 -54 90 -65 15 -14 23 -16 31 -8 8 8 17 7 34 -5 13 -9 33 -16 44 -16 19
-1 19 -1 1 -15 -29 -22 -10 -37 36 -30 26 5 38 4 34 -3 -9 -15 59 -62 89 -62
18 0 28 -7 35 -25 5 -14 17 -25 28 -25 10 0 43 -15 73 -32 30 -18 66 -39 81
-47 14 -7 28 -22 31 -32 3 -13 18 -21 46 -25 32 -5 41 -11 41 -26 0 -16 5 -19
29 -13 24 5 33 2 45 -18 9 -13 27 -29 41 -35 14 -6 25 -18 25 -27 0 -8 6 -15
14 -15 7 0 25 -9 40 -21 14 -11 48 -24 74 -28 41 -6 47 -9 44 -28 -3 -22 30
-53 58 -53 8 0 30 -14 49 -30 18 -17 39 -30 46 -30 7 0 18 -7 25 -16 8 -8 27
-21 44 -29 24 -11 81 -42 115 -62 2 -1 -2 -10 -10 -19 -12 -15 -11 -16 18 -10
22 5 34 3 40 -7 4 -8 18 -19 31 -26 12 -6 22 -18 22 -26 0 -10 10 -15 29 -15
16 0 31 -6 35 -15 3 -8 14 -15 25 -15 10 0 21 -7 25 -15 3 -8 11 -15 18 -15 8
0 21 -9 31 -20 9 -11 28 -20 42 -20 14 0 28 -7 31 -15 4 -8 15 -15 26 -15 15
0 18 -5 13 -20 -5 -15 0 -22 20 -30 14 -5 37 -10 51 -10 28 0 32 -15 7 -24
-15 -6 -15 -8 -3 -16 8 -6 26 -10 40 -10 14 0 31 -9 38 -20 7 -11 19 -20 27
-20 8 0 33 -16 54 -35 22 -20 59 -46 83 -59 32 -17 44 -29 46 -49 2 -18 9 -27
21 -27 10 0 24 -7 31 -15 7 -8 18 -15 25 -15 24 0 104 -51 110 -71 4 -10 12
-19 18 -19 7 0 25 -14 41 -30 16 -17 35 -30 42 -30 6 0 40 -27 74 -60 34 -33
68 -60 76 -60 19 0 27 -19 15 -34 -15 -17 -1 -29 16 -14 11 9 19 6 39 -15 14
-15 31 -27 38 -27 7 0 18 -11 24 -25 7 -14 23 -30 37 -35 14 -5 25 -14 25 -19
0 -5 10 -11 23 -15 13 -3 30 -18 38 -32 17 -33 86 -104 100 -104 15 0 69 -59
69 -75 0 -7 9 -17 20 -20 19 -6 45 -26 94 -72 10 -10 26 -34 35 -54 21 -45 99
-122 126 -123 14 -1 21 -9 23 -29 2 -19 11 -31 28 -37 13 -5 24 -16 24 -25 0
-8 9 -20 20 -27 11 -7 20 -19 20 -26 0 -16 62 -91 143 -173 31 -33 57 -64 57
-70 0 -7 7 -17 16 -24 14 -10 15 -14 3 -34 -13 -20 -12 -24 14 -42 15 -12 27
-26 27 -34 0 -7 7 -18 16 -25 8 -8 21 -27 28 -45 7 -17 26 -45 42 -62 16 -18
39 -51 50 -75 59 -120 69 -138 81 -142 7 -3 13 -21 13 -41 0 -27 4 -35 18 -35
17 0 42 -47 42 -78 0 -6 13 -33 29 -59 16 -27 36 -72 46 -101 9 -28 21 -49 26
-46 13 8 39 -15 39 -34 0 -8 -7 -20 -16 -27 -24 -17 -10 -58 17 -50 17 6 19 1
19 -33 0 -32 4 -41 21 -45 18 -5 21 -11 16 -36 -6 -28 -4 -31 18 -31 19 0 26
-7 34 -37 6 -21 11 -47 11 -57 0 -11 11 -33 23 -50 41 -53 49 -74 37 -95 -8
-16 -5 -25 15 -45 16 -16 25 -36 25 -56 0 -30 14 -41 23 -17 3 6 3 -6 0 -29
-3 -26 0 -45 9 -55 18 -19 38 -65 38 -88 0 -10 9 -30 21 -45 11 -14 18 -30 14
-35 -3 -5 5 -38 19 -73 33 -87 53 -152 67 -223 7 -33 16 -64 21 -69 4 -6 8
-22 8 -36 0 -15 9 -35 20 -45 13 -12 20 -31 20 -55 0 -20 5 -41 11 -47 7 -7
20 -60 30 -118 10 -62 24 -112 33 -119 15 -12 27 -59 30 -122 1 -24 11 -52 24
-69 15 -19 22 -41 22 -72 0 -30 7 -53 21 -71 15 -20 19 -35 14 -60 -4 -24 0
-42 14 -66 12 -18 21 -39 21 -45 0 -7 9 -31 20 -55 13 -30 17 -54 13 -79 -5
-32 -3 -35 14 -31 28 8 41 -51 17 -77 -9 -10 -11 -19 -5 -23 5 -4 14 1 19 10
12 22 35 8 27 -16 -3 -10 3 -37 15 -59 11 -22 20 -49 20 -59 0 -10 9 -27 20
-37 11 -10 22 -34 26 -54 3 -20 15 -48 25 -64 12 -17 19 -40 17 -62 -1 -23 4
-39 15 -47 9 -7 24 -31 33 -53 9 -22 25 -46 35 -53 11 -7 26 -28 35 -45 9 -18
27 -45 40 -60 13 -16 24 -38 24 -49 0 -11 8 -22 20 -25 15 -4 18 -11 14 -28
-4 -17 0 -26 14 -34 13 -7 22 -23 24 -44 2 -26 7 -32 25 -30 13 2 22 -1 22 -5
-3 -17 2 -31 14 -44 6 -7 25 -32 41 -55 16 -24 32 -40 37 -38 4 3 16 -7 26
-22 10 -15 31 -40 46 -54 20 -19 25 -28 16 -31 -12 -4 -12 -9 -1 -34 13 -27
14 -28 28 -10 13 18 14 18 34 -5 11 -13 35 -48 52 -77 17 -30 46 -63 64 -75
21 -14 34 -30 34 -44 0 -15 7 -23 23 -25 17 -2 21 -9 19 -30 -2 -17 2 -28 9
-28 16 0 79 -48 79 -61 0 -18 52 -88 70 -94 33 -10 70 -53 70 -80 0 -18 6 -29
20 -32 11 -3 20 -11 20 -19 0 -7 12 -14 28 -16 23 -3 27 -7 28 -37 0 -19 4
-36 10 -37 5 -1 21 -5 36 -8 19 -4 34 -19 48 -46 11 -22 20 -43 19 -47 -3 -19
2 -33 11 -33 6 0 10 9 10 20 0 30 36 26 44 -5 4 -14 11 -25 16 -25 6 0 10 -7
10 -15 0 -9 7 -18 15 -21 8 -3 23 -20 34 -37 11 -18 43 -50 70 -72 34 -26 49
-45 46 -55 -4 -11 6 -20 31 -30 26 -10 34 -19 31 -32 -3 -11 2 -19 17 -24 30
-9 96 -75 96 -97 0 -11 11 -22 31 -29 21 -7 28 -15 24 -26 -10 -25 22 -63 48
-57 18 5 26 1 35 -19 6 -14 17 -26 24 -26 7 0 34 -22 60 -49 34 -35 45 -54 42
-69 -7 -23 14 -41 26 -22 6 9 18 3 44 -23 34 -34 40 -46 37 -73 -1 -6 20 -17
46 -25 40 -12 50 -19 58 -46 5 -18 14 -33 20 -33 7 0 26 -16 44 -35 17 -19 36
-35 41 -35 5 0 16 -13 25 -30 11 -21 23 -30 39 -30 19 0 27 -8 36 -35 6 -19
20 -37 30 -40 10 -3 22 -15 25 -26 9 -27 66 -79 88 -79 10 0 21 -10 26 -23 11
-28 67 -84 104 -103 17 -9 30 -26 34 -44 3 -17 12 -30 19 -30 8 0 14 -9 14
-20 0 -13 7 -20 20 -20 10 0 24 -9 30 -20 6 -11 18 -20 28 -20 9 0 25 -12 36
-28 10 -15 38 -43 62 -62 34 -27 44 -41 46 -70 3 -30 7 -35 28 -35 33 0 47
-11 99 -73 24 -29 63 -64 86 -78 43 -25 57 -43 51 -67 -1 -6 -1 -9 1 -4 10 16
31 5 59 -29 87 -108 117 -140 138 -149 12 -5 38 -25 56 -43 31 -32 32 -34 14
-47 -19 -15 -19 -15 0 -30 11 -8 32 -15 47 -15 20 0 36 -10 56 -35 15 -20 43
-44 61 -55 17 -11 32 -27 32 -37 1 -26 33 -61 72 -77 19 -9 43 -31 58 -55 14
-23 34 -44 45 -47 59 -17 75 -29 75 -56 0 -20 5 -28 18 -28 9 -1 32 -14 51
-30 33 -28 35 -50 3 -50 -15 0 -15 -2 -2 -10 8 -5 26 -10 40 -10 37 0 70 -27
70 -56 0 -19 7 -28 29 -35 16 -6 43 -28 60 -50 18 -21 39 -39 47 -39 8 0 19
-11 25 -23 6 -13 24 -31 40 -41 15 -9 43 -41 61 -71 25 -42 38 -55 56 -55 18
0 22 -4 18 -17 -4 -13 5 -23 34 -36 22 -10 40 -23 40 -29 0 -16 106 -118 123
-118 21 0 49 -44 35 -58 -6 -6 -7 -16 -3 -22 5 -8 10 -9 18 -1 17 17 25 13 29
-11 2 -17 10 -23 28 -23 18 0 26 -6 28 -22 2 -13 17 -32 33 -43 18 -13 29 -30
29 -45 0 -14 7 -26 19 -30 11 -3 22 -13 25 -22 5 -13 9 -13 22 -2 14 11 19 9
37 -16 12 -16 30 -36 39 -44 10 -9 18 -22 18 -31 1 -8 36 -46 79 -85 54 -48
78 -75 75 -87 -6 -20 25 -39 67 -40 28 -1 38 -11 20 -22 -16 -11 1 -45 35 -71
19 -14 41 -39 49 -54 8 -16 23 -31 33 -33 10 -3 26 -21 35 -40 10 -22 26 -38
41 -42 13 -3 34 -21 45 -40 25 -40 26 -46 7 -46 -8 0 -18 -5 -22 -12 -5 -8 4
-9 33 -5 37 6 42 4 71 -33 18 -21 32 -46 32 -54 0 -19 45 -50 59 -42 6 4 19
-11 31 -34 11 -22 25 -40 30 -40 6 0 10 -4 10 -10 0 -5 -7 -10 -15 -10 -27 0
-16 -20 15 -27 20 -4 32 -13 36 -28 3 -12 17 -28 31 -34 18 -8 24 -17 20 -31
-3 -13 1 -21 14 -25 10 -4 19 -13 19 -21 0 -8 6 -14 13 -14 20 0 85 -100 102
-157 8 -28 22 -56 30 -63 8 -7 15 -20 15 -30 0 -9 12 -35 26 -56 34 -50 54
-107 54 -155 0 -21 9 -53 20 -72 12 -21 22 -57 24 -93 1 -32 6 -67 11 -77 4
-10 3 -36 -4 -57 -6 -21 -8 -45 -5 -54 8 -21 -2 -61 -21 -79 -11 -12 -12 -22
-5 -44 9 -24 6 -40 -20 -96 -16 -37 -30 -73 -30 -81 0 -27 -41 -106 -55 -106
-8 0 -17 -11 -21 -25 -3 -13 -13 -30 -21 -37 -8 -7 -19 -22 -24 -35 -5 -14
-17 -23 -29 -23 -22 0 -27 -19 -9 -37 6 -6 8 -16 5 -22 -10 -16 -33 -13 -40 5
-8 22 -28 6 -21 -17 10 -31 -13 -51 -49 -43 -28 6 -29 5 -17 -10 12 -14 11
-20 -5 -39 -11 -12 -27 -28 -36 -35 -10 -7 -18 -17 -18 -22 0 -20 -75 -79 -92
-74 -11 3 -18 0 -18 -9 0 -8 -19 -27 -42 -43 -24 -16 -47 -35 -51 -41 -4 -7
-14 -13 -21 -13 -8 0 -19 -7 -26 -15 -14 -17 -50 -20 -50 -5 0 6 -5 10 -11 10
-6 0 -8 -7 -5 -16 9 -22 -11 -44 -40 -44 -13 0 -38 -13 -57 -29 -18 -16 -57
-38 -87 -48 -30 -10 -62 -23 -70 -28 -8 -5 -29 -8 -46 -6 -18 1 -36 -4 -43
-13 -8 -9 -28 -16 -46 -16 -21 0 -45 -10 -69 -29 -20 -16 -53 -32 -73 -35 -21
-4 -65 -15 -98 -26 -159 -49 -144 -48 -475 -44 -469 5 -480 6 -550 42 -35 18
-68 28 -80 25 -21 -6 -69 20 -83 44 -5 8 -16 11 -27 8 -10 -3 -35 1 -55 10
-21 8 -53 15 -71 15 -29 0 -33 3 -31 22 2 19 -2 23 -25 20 -18 -2 -47 12 -93
43 -43 30 -73 44 -85 40 -13 -4 -21 2 -31 24 -11 24 -18 29 -39 25 -25 -5 -63
14 -45 22 32 14 40 23 28 35 -8 8 -16 8 -31 0 -29 -16 -52 -14 -46 3 4 11 -14
24 -61 46 -48 22 -72 41 -87 65 -11 19 -26 35 -33 35 -8 0 -26 10 -42 23 -15
13 -49 35 -74 50 -26 14 -49 34 -53 42 -3 9 -11 15 -18 14 -26 -3 -38 1 -38
15 0 7 -27 32 -60 55 -33 23 -60 46 -60 52 0 5 -11 9 -24 9 -13 0 -26 7 -30
15 -3 8 -11 15 -18 15 -7 0 -38 24 -68 52 -54 51 -112 88 -137 88 -7 0 -13 5
-13 10 0 6 5 10 10 10 6 0 10 7 10 15 0 18 -5 19 -30 3 -24 -15 -37 -4 -20 17
10 12 10 15 -3 15 -9 0 -21 9 -27 20 -6 11 -21 20 -34 20 -13 0 -29 7 -36 15
-7 8 -18 15 -25 15 -7 0 -19 7 -26 16 -7 9 -23 20 -36 25 -15 5 -21 14 -17 24
4 10 0 15 -11 15 -10 0 -35 17 -55 38 -34 34 -110 86 -205 137 -22 12 -54 35
-71 51 -18 17 -52 46 -78 65 -25 19 -46 42 -46 53 0 16 -5 18 -36 13 -30 -5
-34 -4 -24 8 6 8 9 19 5 25 -8 13 -35 13 -35 0 0 -5 -7 -10 -15 -10 -18 0 -20
26 -2 33 6 3 -2 6 -20 6 -25 1 -32 6 -35 23 -2 16 -17 30 -45 43 -26 12 -41
25 -38 33 8 23 -5 34 -22 20 -13 -11 -18 -9 -31 10 -8 12 -21 22 -29 22 -11 0
-14 7 -11 24 5 22 2 24 -27 19 -38 -6 -53 10 -33 34 12 15 10 16 -14 10 -18
-5 -30 -3 -35 7 -4 7 -22 20 -38 29 -17 8 -39 24 -49 36 -11 12 -23 21 -29 21
-5 0 -51 16 -103 35 -51 19 -95 35 -98 35 -3 0 -2 -15 1 -34 7 -42 -14 -52
-65 -30 -73 31 -126 44 -133 32 -5 -7 -23 -8 -55 -3 -27 5 -146 10 -264 12
-182 3 -386 16 -327 21 9 1 17 7 17 12 0 13 -23 13 -37 -1 -15 -15 -122 -14
-169 2 -21 7 -75 12 -119 12 -45 -1 -93 4 -111 12 -47 19 -148 29 -173 16 -16
-9 -28 -8 -53 5 -22 11 -47 15 -85 12 -37 -3 -57 -1 -64 9 -6 7 -28 13 -48 13
-20 0 -41 4 -46 9 -6 5 -37 12 -70 14 -71 6 -150 21 -185 35 -14 6 -57 20 -96
32 -38 11 -79 27 -91 35 -11 8 -52 21 -92 30 -47 11 -76 23 -85 37 -11 16 -18
18 -34 9 -18 -9 -21 -8 -24 12 -2 15 -11 23 -28 25 -13 2 -51 26 -83 53 -32
27 -65 49 -74 49 -10 0 -12 6 -8 20 6 20 -9 28 -20 10 -3 -5 -13 -10 -21 -10
-11 0 -14 8 -12 28 3 23 0 27 -21 24 -17 -1 -35 9 -60 36 -20 21 -49 43 -64
50 -33 14 -39 19 -120 95 -34 32 -75 61 -90 64 -16 3 -35 16 -44 29 -8 13 -22
24 -29 24 -8 0 -14 4 -14 8 0 4 -28 26 -62 49 -35 23 -85 64 -113 92 -27 28
-57 51 -66 51 -9 0 -24 9 -34 20 -10 12 -25 18 -32 16 -10 -4 -12 1 -7 19 3
14 2 25 -3 25 -13 0 -124 87 -139 109 -7 9 -33 30 -58 46 -25 16 -46 33 -46
37 0 4 -11 8 -24 8 -18 0 -25 6 -28 22 -2 13 -15 29 -31 36 -15 7 -37 26 -48
41 -14 19 -27 27 -39 24 -13 -4 -23 5 -34 29 -29 59 -62 89 -91 82 -19 -5 -25
-2 -25 9 0 25 -101 127 -126 127 -20 0 -94 76 -94 97 0 4 -18 18 -39 30 -22
13 -42 31 -45 40 -7 22 -66 63 -89 63 -10 0 -17 8 -17 20 0 13 -7 20 -20 20
-12 0 -25 10 -32 25 -6 14 -16 25 -21 25 -15 0 -86 84 -87 103 0 19 -20 23
-37 6 -8 -8 -13 -5 -18 12 -9 28 -94 109 -115 109 -24 1 -63 38 -56 55 3 9 0
15 -9 15 -8 0 -15 7 -15 16 0 10 -6 14 -15 10 -9 -3 -21 5 -32 22 -28 45 -66
83 -103 102 -19 10 -64 47 -100 81 -36 35 -97 91 -135 124 -38 33 -83 72 -100
87 -16 16 -33 28 -37 28 -5 0 -8 6 -8 14 0 19 -163 166 -184 166 -19 0 -22 16
-3 23 17 6 -38 57 -62 57 -10 0 -42 19 -71 42 -96 76 -168 110 -240 112 -30 1
-65 7 -77 14 -12 7 -35 12 -51 12 -16 0 -35 7 -42 15 -10 12 -24 14 -56 9 -23
-3 -48 -3 -54 1 -6 4 -46 9 -88 11 -42 3 -102 13 -132 23 -30 10 -89 21 -130
25 -41 4 -111 13 -155 22 -44 8 -114 19 -155 25 -41 5 -113 15 -160 21 -47 6
-113 11 -147 10 -34 -1 -65 3 -68 8 -4 6 -39 10 -78 11 -40 0 -99 5 -132 10
-70 11 -170 25 -276 37 -42 5 -82 13 -90 18 -8 4 -42 7 -76 6 -50 -3 -64 0
-80 17 -15 16 -35 20 -108 24 -50 2 -153 16 -230 31 -77 15 -169 31 -205 36
-115 17 -164 27 -209 44 -24 9 -63 16 -88 16 -55 0 -85 14 -76 37 5 12 2 15
-10 10 -9 -3 -30 -2 -46 4 -21 7 -36 7 -51 -1 -17 -9 -26 -8 -45 4 -14 9 -33
16 -43 16 -11 0 -25 7 -32 15 -7 9 -20 13 -28 10 -7 -3 -56 11 -108 30 -51 19
-102 35 -112 35 -26 0 -119 28 -159 47 -22 11 -48 14 -80 11 -55 -6 -73 -2
-73 17 0 7 6 16 13 19 6 4 -10 4 -36 1 -36 -4 -49 -1 -53 10 -4 9 -19 15 -36
15 -21 0 -31 6 -35 20 -3 11 -14 20 -23 20 -10 0 -22 9 -25 20 -5 14 -12 19
-24 15 -11 -3 -47 11 -89 35 -39 22 -81 40 -92 40 -21 0 -27 15 -10 25 6 4 7
11 4 17 -4 6 -10 6 -17 -1 -12 -12 -50 -15 -61 -4 -3 4 4 13 16 20 19 10 20
12 5 13 -10 0 -20 7 -23 15 -7 18 -31 20 -37 3 -3 -10 -9 -8 -24 4 -11 10 -25
18 -31 18 -6 0 -17 6 -24 13 -8 6 -21 17 -29 22 -101 66 -127 87 -133 109 -5
22 -10 24 -40 19 -30 -5 -34 -2 -44 27 -9 24 -16 30 -30 26 -25 -8 -73 41 -53
53 23 14 2 31 -29 24 -23 -4 -30 -2 -30 10 0 8 -12 20 -28 26 -15 6 -40 27
-54 45 -21 26 -33 33 -49 29 -18 -5 -21 -3 -17 14 3 11 0 27 -7 37 -11 15 -16
15 -34 5 -26 -17 -39 -4 -23 21 17 27 15 30 -13 30 -14 0 -28 6 -31 14 -6 16
-108 86 -125 86 -7 0 -9 9 -5 25 5 18 3 23 -8 19 -13 -5 -145 115 -146 133 -1
4 -23 31 -50 58 -28 28 -50 56 -50 63 0 6 -9 12 -19 12 -14 0 -18 5 -14 20 3
12 0 20 -6 20 -7 0 -19 16 -26 35 -8 19 -24 39 -35 45 -11 6 -29 27 -40 48
-11 20 -36 56 -55 80 -26 32 -33 48 -26 60 12 25 3 41 -21 35 -27 -8 -42 17
-20 34 16 12 15 13 -2 11 -12 -2 -24 5 -30 17 -6 11 -29 45 -51 75 -39 53 -83
134 -105 194 -9 24 -13 26 -25 16 -19 -16 -33 -4 -17 12 21 21 14 56 -10 60
-18 2 -23 10 -23 32 -1 16 -7 32 -13 34 -10 3 -10 7 -1 18 9 11 9 18 1 26 -13
13 -35 0 -28 -18 3 -8 1 -14 -4 -14 -13 0 -32 77 -25 99 3 10 -1 24 -10 31
-18 15 -55 87 -55 106 0 6 -9 23 -20 36 -14 18 -18 34 -14 59 5 27 1 38 -15
53 -16 15 -21 31 -21 70 -1 45 -2 49 -14 34 -7 -10 -15 -18 -18 -18 -2 0 -2
30 0 66 4 59 3 65 -14 62 -13 -2 -20 5 -24 28 -4 17 -11 37 -16 45 -5 8 -9 28
-10 44 -1 31 -18 127 -35 205 -29 130 -38 193 -38 267 -1 56 -6 94 -18 118
-14 30 -15 41 -4 70 9 26 9 39 1 56 -7 11 -10 46 -8 77 4 73 -11 240 -23 248
-13 8 -11 108 3 122 9 9 9 15 1 23 -7 7 -8 21 -2 42 14 48 11 100 -7 126 -14
19 -17 58 -20 210 -2 102 -6 220 -8 261 -2 42 1 80 6 87 7 9 7 22 -1 42 -14
32 -13 106 1 233 8 74 7 90 -7 111 -13 21 -16 49 -14 144 1 65 6 133 12 151 8
23 8 44 0 75 -9 32 -8 57 3 107 17 82 17 90 0 90 -25 0 -28 19 -7 45 16 22 19
40 18 115 -1 73 2 93 17 109 13 14 19 40 21 95 2 44 10 89 20 108 9 18 19 58
22 88 3 30 15 72 25 94 11 21 17 48 14 59 -3 12 1 28 8 37 8 8 16 26 18 40 2
17 9 25 23 25 21 0 23 13 11 52 -6 19 -2 25 19 33 20 8 25 15 20 29 -4 14 0
23 15 31 17 9 19 14 10 25 -15 18 -4 36 15 28 11 -4 15 3 15 26 0 17 5 31 11
31 5 0 17 17 25 38 21 49 52 82 79 82 20 0 45 17 45 31 0 4 -10 10 -22 14 -15
4 -18 8 -10 12 7 3 19 0 27 -7 18 -15 42 -3 26 13 -14 14 -14 37 0 37 6 0 31
18 56 40 25 22 51 40 57 40 6 0 36 16 66 35 34 22 66 35 88 35 31 0 34 2 28
25 -6 22 -3 25 23 25 16 0 33 5 37 11 4 7 21 9 41 6 26 -5 49 1 85 19 36 18
54 22 61 15 17 -17 52 -13 81 10 22 17 35 20 72 14 26 -3 59 -2 79 5 23 8 40
8 52 2 12 -7 26 -6 47 5 25 13 38 13 82 4 41 -9 57 -9 72 0 16 10 28 8 68 -11
33 -16 49 -20 52 -12 5 15 32 16 32 2 0 -5 15 -10 33 -10 36 0 107 -23 142
-46 13 -8 34 -14 47 -13 48 4 61 0 55 -20 -5 -19 15 -27 79 -34 11 -1 27 -7
35 -13 8 -6 30 -16 49 -23 19 -6 52 -23 73 -37 28 -18 42 -22 55 -15 14 7 23
5 35 -10 9 -10 25 -19 36 -19 10 0 21 -7 25 -15 3 -8 16 -15 30 -15 16 0 32
-11 47 -31 19 -27 26 -30 55 -26 26 4 32 2 27 -9 -3 -9 2 -14 17 -14 12 0 57
-19 101 -42 62 -32 79 -46 79 -63 0 -14 10 -26 25 -33 22 -10 25 -9 25 8 0 11
7 20 15 20 15 0 41 -38 37 -56 -1 -7 8 -9 23 -6 32 6 102 -39 115 -74 6 -14
16 -24 23 -21 14 5 84 -30 94 -47 4 -6 7 -20 8 -31 0 -14 8 -21 25 -23 14 -2
34 -7 45 -12 11 -5 37 -16 58 -24 21 -9 37 -22 37 -31 0 -9 16 -23 35 -31 19
-8 35 -20 35 -28 0 -7 15 -20 33 -27 17 -7 61 -41 95 -75 43 -42 70 -60 82
-57 22 6 35 -13 14 -21 -21 -8 -7 -28 16 -21 13 4 19 -1 24 -20 5 -18 20 -32
49 -45 52 -25 120 -76 148 -113 11 -15 35 -34 52 -41 18 -7 52 -32 77 -55 25
-22 48 -41 52 -41 4 0 9 -9 13 -19 3 -11 16 -21 28 -23 12 -2 26 -12 32 -23
16 -32 52 -76 62 -74 27 5 35 -3 30 -27 -5 -28 19 -46 33 -24 11 18 30 3 30
-25 0 -26 38 -70 70 -80 11 -3 20 -15 20 -26 0 -11 10 -24 23 -30 62 -28 77
-41 77 -65 0 -21 3 -24 25 -18 19 5 25 2 25 -10 0 -8 9 -20 20 -26 11 -6 20
-17 20 -25 0 -10 11 -15 35 -15 28 0 38 -5 47 -25 6 -13 24 -28 39 -34 16 -5
29 -14 29 -20 0 -5 14 -18 31 -28 17 -10 37 -32 45 -48 8 -18 27 -36 45 -42
17 -7 33 -21 36 -32 3 -12 10 -21 17 -21 16 0 96 -86 96 -103 0 -9 5 -17 12
-19 6 -2 12 -15 13 -29 1 -16 8 -25 23 -27 12 -2 27 -11 34 -21 7 -9 30 -30
51 -45 27 -21 37 -36 37 -56 0 -34 8 -42 30 -30 13 7 21 5 30 -5 7 -8 19 -15
26 -15 8 0 14 -8 14 -19 0 -14 6 -17 25 -13 20 3 25 0 25 -16 0 -11 16 -32 35
-46 19 -15 35 -35 35 -46 0 -11 11 -22 28 -28 23 -9 58 -39 112 -97 46 -50
134 -115 156 -115 13 0 24 2 24 4 0 11 -62 96 -70 96 -14 0 -410 403 -410 417
0 8 -12 13 -29 13 -27 0 -71 37 -71 60 0 7 -60 68 -211 217 -52 50 -107 105
-123 122 -16 17 -33 31 -37 31 -7 0 -29 54 -29 73 0 5 14 7 33 3 54 -11 90 -6
112 14 12 11 33 20 47 20 14 0 37 9 51 20 28 22 89 29 142 17 37 -9 66 6 47
25 -6 6 -12 18 -12 24 0 15 55 44 84 44 12 0 27 4 35 9 9 6 24 5 39 0 35 -13
100 9 120 40 23 38 42 51 74 51 18 0 28 5 28 15 0 8 9 15 20 15 18 0 19 -3 10
-21 -16 -29 -5 -65 22 -72 31 -9 42 2 23 23 -11 13 -14 24 -8 34 11 19 112 86
130 86 7 0 21 9 30 20 10 11 20 20 24 20 4 0 9 -9 12 -20 4 -14 14 -20 35 -20
26 0 31 4 37 36 6 32 12 39 70 65 62 28 65 28 93 12 25 -14 33 -15 46 -4 10 9
14 22 10 37 -6 24 11 35 18 12 6 -17 28 0 28 22 0 31 22 73 55 105 23 22 31
38 29 60 -2 44 -15 85 -25 85 -5 0 -9 16 -9 35 0 19 -4 35 -10 35 -5 0 -10 -4
-10 -10 0 -5 -4 -10 -10 -10 -5 0 -10 6 -10 14 0 7 -7 19 -15 26 -8 7 -15 20
-15 30 0 10 -7 21 -16 24 -12 4 -14 13 -10 31 5 20 2 27 -16 35 -32 13 -58 35
-58 48 0 6 -12 22 -27 36 -25 23 -26 27 -13 51 10 19 11 28 2 37 -8 8 -13 4
-18 -15 -7 -31 -21 -26 -35 10 -6 17 -6 30 1 38 12 14 -4 31 -35 37 -13 2 -25
18 -34 44 -9 25 -25 47 -42 56 -19 11 -31 30 -39 57 -6 23 -26 57 -46 76 -30
30 -34 40 -29 65 4 19 3 30 -4 30 -6 0 -11 -5 -11 -11 0 -5 -5 -7 -10 -4 -6 4
-7 13 -1 24 6 10 6 23 0 32 -8 12 -11 11 -20 -4 -14 -24 -29 -12 -29 24 0 16
-6 32 -14 35 -7 3 -26 37 -41 77 -16 40 -35 80 -44 90 -8 9 -23 40 -32 69 -10
28 -25 58 -34 68 -8 9 -15 28 -15 42 0 14 -9 36 -19 50 -33 41 -78 140 -91
198 -7 30 -20 73 -30 95 -37 84 -52 142 -51 193 1 28 -2 52 -7 52 -11 0 -62
78 -62 96 0 8 9 22 20 31 24 21 26 41 5 49 -8 3 -24 31 -35 62 -19 51 -20 57
-6 68 20 14 20 28 0 45 -12 10 -14 23 -9 61 5 35 3 55 -8 71 -17 26 -14 223 4
269 6 15 8 32 4 37 -4 7 3 10 17 8 18 -2 23 2 21 21 -2 13 3 22 11 22 8 0 19
14 25 30 5 17 18 33 28 37 10 4 55 37 99 75 80 67 108 80 117 56 3 -10 9 -8
24 5 11 9 35 17 54 17 19 0 44 6 54 14 15 10 51 14 135 12 63 0 138 4 165 10
28 7 54 8 60 3 5 -5 17 -9 26 -9z m9199 -10375 c0 -8 -4 -15 -9 -15 -13 0 -22
16 -14 24 11 11 23 6 23 -9z m1910 -1885 c0 -5 -7 -10 -15 -10 -8 0 -15 5 -15
10 0 6 7 10 15 10 8 0 15 -4 15 -10z"/>
<path d="M2390 12970 c0 -5 7 -10 15 -10 8 0 15 5 15 10 0 6 -7 10 -15 10 -8
0 -15 -4 -15 -10z"/>
<path d="M9507 12914 c-8 -8 1 -24 14 -24 5 0 9 7 9 15 0 15 -12 20 -23 9z"/>
<path d="M3000 12630 c0 -5 7 -10 15 -10 8 0 15 5 15 10 0 6 -7 10 -15 10 -8
0 -15 -4 -15 -10z"/>
<path d="M6047 11743 c-4 -3 -7 -17 -7 -29 0 -28 37 -41 69 -24 30 16 26 28
-15 45 -42 17 -39 17 -47 8z"/>
<path d="M5875 11719 c-10 -15 0 -21 27 -17 l23 3 -22 13 c-15 8 -24 9 -28 1z"/>
<path d="M5786 11621 c-18 -29 48 -87 88 -77 13 3 32 3 40 0 25 -9 19 -50 -9
-68 -31 -20 -52 -20 -63 0 -7 13 -13 13 -35 3 -21 -10 -27 -19 -27 -44 0 -18
-7 -38 -15 -45 -8 -7 -14 -20 -13 -29 2 -12 -5 -16 -26 -16 -33 -1 -47 -23
-22 -37 24 -14 19 -35 -14 -60 -27 -20 -30 -27 -29 -70 2 -40 -3 -55 -28 -86
-36 -45 -125 -92 -174 -92 -33 0 -69 23 -69 44 0 4 25 34 57 67 60 63 52 82
-14 32 l-35 -27 -19 22 c-25 31 -16 46 47 82 43 24 65 30 114 30 51 0 65 4 85
25 34 34 32 55 -5 55 -18 0 -33 7 -39 19 -15 27 -41 34 -61 16 -9 -8 -22 -15
-29 -15 -8 0 -10 -7 -6 -19 4 -14 0 -23 -14 -30 -25 -14 -61 -14 -61 -1 0 5
-12 13 -27 16 -16 4 -39 16 -52 28 -23 20 -24 20 -16 1 4 -11 10 -33 13 -48 4
-23 9 -28 30 -25 34 4 38 -13 8 -41 -21 -20 -25 -21 -39 -7 -9 9 -24 16 -34
16 -11 0 -24 5 -31 12 -9 9 -12 2 -12 -33 0 -43 -25 -89 -49 -89 -5 0 -11 -17
-14 -37 -3 -21 -8 -48 -12 -60 -6 -19 -4 -23 12 -23 24 0 45 24 63 70 7 19 18
41 23 48 13 17 47 15 67 -3 16 -15 16 -21 3 -78 -8 -34 -17 -69 -20 -77 -9
-23 -11 -80 -3 -80 4 0 18 8 31 18 13 10 46 23 73 30 53 14 66 8 66 -30 0 -10
5 -18 10 -18 6 0 10 10 10 23 0 35 66 84 123 92 43 7 47 6 47 -14 0 -12 6 -21
15 -21 9 0 18 -7 22 -16 11 -29 77 -84 98 -81 25 3 32 39 10 57 -8 7 -15 19
-15 27 0 12 8 14 34 9 24 -5 37 -2 46 9 9 11 26 15 49 14 33 -3 100 5 158 17
20 4 21 7 10 25 -10 17 -9 22 6 30 12 7 16 17 12 30 -5 15 -2 19 14 19 12 0
21 7 21 15 0 8 -9 15 -20 15 -11 0 -23 -7 -26 -15 -4 -9 -19 -15 -37 -15 -26
0 -153 -57 -257 -116 -54 -30 -117 -6 -88 34 7 11 35 36 61 56 59 45 127 108
127 119 0 4 -11 7 -25 7 -14 0 -25 -4 -25 -8 0 -15 -147 -83 -164 -76 -33 13
-16 50 60 135 90 100 100 109 184 179 35 30 71 61 78 68 20 18 97 15 113 -4
10 -12 10 -19 1 -32 -7 -10 -22 -37 -34 -61 -17 -35 -19 -47 -10 -62 18 -28
15 -47 -9 -59 -24 -13 -59 -68 -59 -92 0 -24 37 -23 73 1 16 10 37 17 47 14
12 -3 19 3 23 18 6 22 -2 33 -27 42 -20 7 4 37 29 37 18 0 25 5 25 20 0 21 15
27 25 10 12 -20 67 -42 91 -36 32 8 30 28 -7 65 -23 24 -40 31 -68 31 -20 0
-42 5 -49 12 -15 15 -16 58 -2 58 6 0 10 9 10 20 0 26 30 26 37 1 7 -29 49
-35 94 -14 49 23 49 33 0 33 -23 0 -44 6 -51 16 -10 11 -23 14 -50 9 -29 -5
-40 -2 -55 14 -10 12 -26 21 -35 21 -10 0 -28 9 -42 19 -27 21 -98 25 -98 5 0
-27 -104 -45 -113 -20 -3 7 -18 17 -34 20 -15 4 -35 14 -45 22 -10 10 -18 12
-22 5z"/>
<path d="M3765 11560 c-3 -5 3 -10 14 -10 11 0 23 5 26 10 3 6 -3 10 -14 10
-11 0 -23 -4 -26 -10z"/>
<path d="M1404 11469 c-3 -5 6 -9 20 -9 31 0 34 6 6 13 -11 3 -23 1 -26 -4z"/>
<path d="M5575 11448 c4 -18 9 -36 12 -40 6 -11 83 -10 83 0 0 18 -27 42 -63
57 l-39 16 7 -33z"/>
<path d="M5918 11326 c-43 -40 -78 -76 -78 -80 0 -13 30 -5 87 23 71 35 82 48
90 95 8 53 -10 46 -99 -38z"/>
<path d="M5090 11321 c0 -25 25 -45 46 -37 15 6 14 9 -6 31 -28 30 -40 32 -40
6z"/>
<path d="M6432 11323 c-10 -4 -9 -9 4 -24 23 -25 36 -24 32 3 -3 23 -15 30
-36 21z"/>
<path d="M1675 11309 c-10 -15 3 -25 16 -12 7 7 7 13 1 17 -6 3 -14 1 -17 -5z"/>
<path d="M1400 11284 c0 -17 22 -14 28 4 2 7 -3 12 -12 12 -9 0 -16 -7 -16
-16z"/>
<path d="M2595 11260 c-3 -5 3 -10 15 -10 12 0 18 5 15 10 -3 6 -10 10 -15 10
-5 0 -12 -4 -15 -10z"/>
<path d="M6225 11232 c-71 -24 -71 -61 0 -80 55 -15 82 -15 90 -2 9 14 -48 92
-65 89 -3 -1 -14 -4 -25 -7z"/>
<path d="M5115 11171 c-8 -15 3 -31 21 -31 9 0 14 7 12 17 -4 20 -24 28 -33
14z"/>
<path d="M6458 11169 c-40 -23 -3 -69 55 -69 49 0 54 14 18 50 -31 32 -45 36
-73 19z"/>
<path d="M5932 11148 c-19 -19 -14 -30 11 -26 12 2 22 9 22 17 0 19 -18 24
-33 9z"/>
<path d="M5532 11127 c-22 -24 -29 -47 -13 -47 12 0 61 47 61 60 0 18 -26 11
-48 -13z"/>
<path d="M7030 11076 c-6 -8 -21 -16 -33 -18 -14 -2 -22 -10 -22 -23 0 -14 -7
-20 -22 -20 -12 0 -48 -26 -86 -62 -66 -64 -90 -75 -101 -48 -6 18 -32 20 -42
4 -4 -7 1 -16 10 -21 22 -13 20 -25 -6 -34 -13 -4 -37 -19 -54 -34 -17 -14
-53 -32 -80 -40 -27 -7 -56 -19 -64 -26 -8 -7 -28 -16 -45 -20 -16 -4 -55 -22
-86 -41 -40 -23 -70 -33 -98 -33 -29 0 -43 -5 -50 -19 -10 -18 -111 -71 -206
-106 -27 -11 -75 -34 -105 -52 -30 -18 -62 -33 -71 -33 -9 0 -22 -7 -29 -15
-7 -8 -17 -15 -23 -15 -5 0 -25 -10 -45 -22 -33 -20 -34 -22 -13 -29 18 -7 20
-14 15 -47 -4 -28 -2 -41 10 -51 9 -7 16 -22 16 -32 0 -10 5 -21 10 -24 6 -3
7 -17 4 -29 -4 -18 1 -28 25 -45 17 -13 31 -30 31 -40 0 -10 28 -41 63 -69 34
-29 67 -57 72 -62 6 -6 20 -21 33 -32 12 -12 22 -29 22 -39 0 -10 12 -21 30
-28 17 -5 30 -14 30 -19 0 -5 24 -32 53 -60 28 -27 85 -82 126 -121 41 -39 78
-71 83 -71 4 0 8 -6 8 -13 0 -18 67 -87 85 -87 8 0 15 -5 15 -11 0 -6 20 -30
44 -53 24 -24 49 -53 55 -65 7 -11 21 -21 32 -21 12 0 23 -10 29 -25 5 -14 14
-25 19 -25 5 0 11 -9 14 -20 4 -17 11 -19 31 -14 19 4 26 2 26 -8 0 -16 41
-60 156 -165 160 -147 207 -193 196 -193 -7 0 -12 -4 -12 -10 0 -5 9 -10 20
-10 11 0 25 -9 32 -20 7 -11 18 -20 25 -20 6 0 27 -18 46 -40 19 -22 39 -40
45 -40 13 0 42 -51 42 -73 0 -18 32 -47 53 -47 42 0 94 -49 55 -51 -7 0 -3 -5
10 -11 12 -6 22 -15 22 -21 0 -5 12 -6 26 -3 21 6 25 4 22 -12 -4 -24 19 -52
42 -52 26 0 50 -32 43 -58 -5 -19 -1 -22 25 -22 31 0 52 -17 56 -46 2 -14 24
-30 75 -54 13 -6 21 -17 41 -60 4 -8 18 -15 31 -15 18 0 30 -11 49 -46 25 -46
84 -119 96 -119 14 0 69 -54 74 -72 3 -10 10 -19 15 -20 20 0 45 -19 45 -34 0
-8 11 -20 25 -26 16 -7 25 -19 25 -35 0 -17 6 -23 21 -23 30 0 59 -18 59 -38
0 -24 47 -72 71 -72 13 0 24 -10 31 -30 6 -17 23 -37 41 -46 17 -9 57 -44 91
-78 33 -33 65 -61 71 -61 16 0 88 -65 110 -97 9 -16 26 -28 36 -28 11 0 19 -6
19 -14 0 -8 9 -17 19 -21 12 -3 21 -17 23 -33 2 -21 12 -30 48 -43 26 -10 52
-28 61 -43 23 -38 27 -40 44 -26 19 16 32 6 17 -13 -14 -17 0 -39 21 -32 11 5
20 -3 31 -23 15 -28 154 -142 174 -142 5 0 32 -22 59 -49 39 -38 53 -47 62
-38 9 9 14 8 21 -4 6 -9 22 -20 37 -24 15 -3 33 -15 41 -26 13 -19 42 -26 42
-10 0 11 -239 247 -273 269 -14 10 -40 33 -59 52 -36 38 -137 131 -209 194
-24 21 -62 55 -84 75 -22 20 -76 68 -120 106 -201 178 -304 276 -631 601 -534
532 -835 826 -1104 1078 -135 127 -414 398 -620 603 -206 204 -387 381 -402
393 -28 21 -39 70 -17 70 6 0 25 6 42 14 18 8 52 23 77 34 25 11 101 47 170
80 69 32 166 78 215 101 50 23 97 47 105 52 8 5 33 17 55 26 104 44 315 159
376 204 38 28 88 73 112 101 50 58 71 59 109 5 12 -18 56 -73 98 -123 41 -50
113 -137 159 -193 46 -56 89 -108 95 -115 6 -6 35 -41 65 -76 30 -36 59 -69
65 -75 6 -5 54 -57 106 -115 52 -58 121 -134 155 -170 33 -36 83 -90 110 -120
155 -167 322 -348 345 -371 120 -124 276 -295 282 -308 4 -9 7 -80 7 -158 2
-302 67 -787 132 -978 6 -16 16 -52 23 -80 7 -27 27 -90 45 -140 18 -49 37
-104 42 -122 17 -55 152 -314 214 -408 125 -191 346 -455 382 -455 7 0 13 -7
13 -15 0 -8 9 -15 20 -15 11 0 20 7 20 15 0 8 -9 15 -20 15 -15 0 -20 7 -20
29 0 22 -6 30 -25 35 -15 4 -25 14 -25 24 0 10 -5 23 -11 29 -6 6 -12 26 -14
45 -2 24 -9 36 -29 46 -30 15 -33 27 -10 36 15 6 15 8 1 24 -8 9 -17 26 -18
36 -5 27 -29 33 -29 7 0 -12 -4 -21 -9 -21 -9 0 -51 91 -51 111 0 7 -13 24
-29 38 -15 14 -38 44 -49 67 -11 22 -28 46 -37 54 -11 9 -14 22 -10 41 5 22 2
29 -14 34 -25 8 -37 41 -21 60 9 11 7 18 -10 35 -18 18 -24 19 -37 8 -14 -11
-15 -8 -8 30 6 39 5 44 -14 49 -12 3 -24 17 -28 32 -3 14 -13 31 -21 37 -13
10 -12 16 8 49 23 37 23 38 5 51 -10 8 -27 14 -36 14 -27 0 -34 19 -34 93 0
62 -2 69 -29 90 -29 24 -31 41 -11 90 5 13 2 17 -14 17 -25 0 -29 41 -6 60 20
17 19 32 -5 58 -16 17 -20 35 -20 91 0 79 -12 121 -35 121 -13 0 -16 11 -14
63 1 34 -3 85 -8 114 -5 28 -6 58 -2 66 5 7 5 27 0 43 -5 19 -2 38 7 57 11 21
12 34 4 50 -6 12 -13 72 -17 133 -6 117 -21 169 -66 239 -14 22 -29 50 -33 63
-4 12 -12 22 -17 22 -5 0 -9 12 -9 27 0 21 -3 24 -12 15 -17 -17 -26 -15 -33
8 -3 10 -20 35 -38 54 -18 18 -54 60 -81 91 -27 31 -60 61 -73 66 -24 9 -30
24 -13 34 19 11 10 22 -14 18 -18 -4 -25 0 -29 19 -4 13 -20 31 -36 41 -17 10
-47 43 -67 73 -21 31 -45 61 -56 67 -10 7 -18 17 -18 24 0 7 -6 13 -14 13 -7
0 -16 9 -19 20 -3 11 -12 20 -19 20 -8 0 -20 11 -26 25 -8 17 -18 24 -34 22
-20 -2 -23 2 -22 31 2 29 -1 32 -27 32 -22 0 -29 5 -29 19 0 10 -11 30 -25 45
-14 15 -25 31 -25 36 0 5 -16 17 -35 26 -21 9 -35 24 -35 34 0 10 -11 25 -25
34 -14 9 -25 22 -25 29 0 15 -38 51 -63 60 -9 4 -22 18 -27 32 -18 47 -42 77
-53 66 -19 -19 -29 -12 -23 14 5 21 3 25 -15 25 -19 0 -21 4 -15 38 6 33 5 35
-8 19 -7 -9 -20 -15 -28 -12 -15 6 -53 74 -50 88 2 5 -7 5 -19 2 -19 -6 -20
-4 -14 24 5 24 3 31 -9 31 -26 0 -66 45 -66 75 0 24 -3 26 -26 21 -25 -7 -25
-5 -19 25 6 27 5 30 -12 25 -14 -4 -26 3 -42 25 -13 17 -30 39 -37 48 -54 62
-64 75 -64 84 0 5 -13 7 -30 4 -33 -7 -52 11 -26 25 29 16 6 29 -40 22 -40 -6
-44 -4 -44 15 0 24 -12 27 -30 7z"/>
<path d="M6224 11056 c-7 -19 13 -56 31 -56 20 0 19 34 -1 54 -19 20 -23 20
-30 2z"/>
<path d="M6470 10973 c0 -10 4 -24 9 -31 11 -18 34 10 25 32 -8 21 -34 21 -34
-1z"/>
<path d="M5556 10948 c-21 -25 -11 -53 19 -53 26 0 43 31 29 52 -16 25 -27 26
-48 1z"/>
<path d="M5892 10948 c-19 -19 -14 -30 11 -26 12 2 22 9 22 17 0 19 -18 24
-33 9z"/>
<path d="M5960 10927 c0 -23 100 -101 112 -89 17 17 1 42 -26 42 -17 0 -33 11
-48 30 -23 32 -38 38 -38 17z"/>
<path d="M6200 10890 c0 -17 52 -61 66 -56 22 8 17 23 -15 45 -31 23 -51 27
-51 11z"/>
<path d="M5962 10769 c1 -13 8 -23 13 -21 15 3 12 35 -3 40 -9 3 -13 -3 -10
-19z"/>
<path d="M5766 10713 c-3 -3 -6 -12 -6 -20 0 -15 36 -18 45 -4 7 12 -29 33
-39 24z"/>
<path d="M3385 10540 c-3 -5 3 -10 14 -10 12 0 21 5 21 10 0 6 -6 10 -14 10
-8 0 -18 -4 -21 -10z"/>
<path d="M5755 8770 c-8 -13 20 -24 42 -16 15 6 15 8 3 16 -20 13 -37 12 -45
0z"/>
<path d="M6480 8680 c0 -5 9 -10 21 -10 11 0 17 5 14 10 -3 6 -13 10 -21 10
-8 0 -14 -4 -14 -10z"/>
<path d="M9230 8612 c0 -11 6 -22 14 -25 8 -3 49 -50 92 -104 43 -54 119 -143
168 -198 132 -147 434 -451 478 -481 20 -14 55 -49 77 -78 49 -63 335 -354
706 -717 364 -356 429 -416 755 -704 62 -55 127 -113 144 -130 18 -16 52 -46
76 -65 25 -19 50 -42 57 -51 7 -9 65 -63 130 -120 65 -57 141 -124 168 -149
28 -25 86 -76 130 -115 44 -38 109 -97 145 -130 37 -33 97 -87 135 -120 38
-33 73 -64 79 -70 54 -49 176 -154 194 -167 12 -8 39 -31 60 -50 20 -19 44
-38 53 -44 9 -5 50 -39 90 -75 128 -115 240 -213 284 -249 99 -81 222 -198
431 -409 198 -199 222 -227 227 -262 6 -47 43 -109 64 -109 14 0 15 11 10 75
-3 41 -13 89 -21 106 -9 18 -16 38 -16 46 0 17 -39 73 -62 91 -10 7 -18 25
-18 38 0 19 -8 29 -30 37 -16 6 -30 17 -30 24 0 8 -10 17 -22 22 -13 5 -37 29
-55 54 -18 24 -48 52 -67 61 -22 10 -36 25 -38 39 -2 15 -9 21 -20 19 -10 -2
-18 2 -18 9 0 14 -156 169 -171 169 -15 0 -39 26 -39 42 0 13 -44 38 -67 38
-8 0 -16 7 -19 15 -4 8 -12 15 -20 15 -10 0 -13 7 -8 25 6 26 -4 33 -23 14
-15 -15 -27 -6 -47 36 -12 26 -23 35 -41 35 -30 0 -41 16 -23 37 11 14 10 15
-8 9 -15 -4 -29 3 -54 29 -18 19 -32 36 -29 38 2 2 13 9 24 15 19 11 19 11 -2
12 -13 0 -23 -4 -23 -10 0 -21 -28 -9 -56 25 -16 19 -35 35 -42 35 -9 0 -11 7
-7 19 7 23 -13 39 -21 17 -8 -21 -23 -20 -31 2 -8 21 -68 82 -82 82 -5 0 -13
9 -16 20 -3 11 -17 23 -31 26 -13 3 -24 10 -24 15 0 5 -13 15 -29 23 -19 10
-30 26 -35 47 -6 30 -7 31 -24 15 -18 -15 -19 -14 -33 11 -8 16 -24 36 -36 46
-12 10 -25 26 -28 37 -5 15 -15 20 -39 20 -31 0 -63 20 -51 32 10 9 -64 78
-83 78 -12 0 -22 9 -26 23 -3 13 -20 30 -42 40 -20 10 -38 26 -41 36 -2 10
-19 24 -36 32 -18 8 -32 21 -32 29 0 23 -25 57 -31 43 -3 -7 -22 4 -48 30 -65
63 -149 133 -169 140 -13 5 -17 13 -12 28 6 18 4 20 -14 14 -17 -5 -21 -2 -21
14 0 13 -5 18 -13 15 -8 -3 -40 23 -75 61 -34 36 -68 65 -76 65 -9 0 -19 12
-22 28 -10 41 -15 45 -29 25 -11 -15 -16 -16 -27 -5 -11 11 -10 16 6 27 10 8
15 19 10 26 -5 9 -10 7 -20 -5 -11 -16 -19 -12 -80 48 -37 36 -71 66 -76 66
-4 0 -8 6 -8 14 0 8 -7 16 -15 20 -8 3 -15 13 -15 22 0 10 -5 14 -15 10 -9 -3
-19 3 -25 14 -6 11 -20 20 -31 20 -13 0 -24 10 -30 30 -6 17 -15 30 -21 30 -5
0 -28 18 -50 41 -22 23 -46 38 -54 35 -9 -4 -13 2 -11 17 1 16 -3 22 -15 21
-11 -1 -18 5 -18 16 0 10 -9 20 -21 23 -16 4 -19 11 -14 26 7 24 5 25 -30 9
-21 -10 -28 -9 -35 2 -11 19 -3 30 21 30 11 0 17 5 14 10 -3 6 -16 10 -28 10
-13 0 -37 15 -56 35 -18 19 -41 35 -52 35 -10 0 -19 6 -19 13 0 7 -9 18 -20
25 -11 7 -20 19 -20 27 0 9 -11 20 -25 25 -14 5 -25 14 -25 19 0 13 -56 71
-69 71 -6 0 -17 11 -23 25 -6 14 -17 25 -24 25 -8 0 -16 11 -20 25 -3 14 -12
25 -19 25 -13 0 -75 55 -75 67 0 10 -80 83 -90 83 -5 0 -12 9 -15 20 -3 11
-17 23 -31 26 -27 7 -50 40 -45 67 2 13 -5 17 -28 17 -34 0 -48 15 -32 34 14
16 4 26 -26 26 -12 0 -23 6 -23 13 0 6 -20 28 -45 47 -25 19 -47 45 -51 56 -4
15 -11 20 -24 17 -13 -3 -20 4 -28 26 -6 17 -18 31 -26 31 -8 0 -17 8 -20 18
-8 22 -72 92 -85 92 -6 0 -11 6 -11 14 0 8 -9 17 -19 21 -10 3 -21 14 -24 25
-3 11 -13 23 -24 26 -10 4 -60 49 -111 101 -51 51 -97 93 -102 93 -5 0 -11 9
-15 19 -3 11 -15 23 -26 26 -10 4 -19 10 -19 15 0 9 -64 82 -153 174 -21 21
-45 52 -55 68 -9 15 -22 26 -28 24 -18 -7 -25 5 -13 20 17 20 2 36 -21 22 -11
-7 -23 -9 -27 -5 -4 5 -1 12 6 16 7 5 10 14 7 20 -4 6 -12 8 -18 5 -6 -4 -16
-1 -22 7 -24 30 -112 82 -148 87 -33 4 -38 2 -38 -16z"/>
<path d="M9155 8493 c2 -37 -1 -73 -6 -80 -7 -8 -3 -25 14 -56 14 -24 27 -61
30 -83 5 -40 26 -105 52 -159 8 -16 31 -68 51 -115 20 -47 43 -90 50 -96 8 -6
14 -20 14 -31 0 -11 7 -26 15 -33 8 -7 15 -23 15 -36 0 -13 9 -28 19 -34 11
-5 23 -20 27 -32 7 -23 27 -48 72 -93 12 -12 22 -31 22 -42 0 -10 20 -44 45
-74 25 -30 54 -64 63 -76 9 -12 22 -22 29 -23 6 0 15 -10 19 -22 9 -29 42 -65
77 -84 15 -8 39 -32 53 -54 15 -22 33 -40 40 -40 7 0 18 -9 24 -20 6 -12 21
-20 36 -20 17 0 28 -7 31 -20 3 -11 8 -20 12 -20 11 0 85 -73 104 -103 15 -23
21 -26 33 -16 12 10 22 4 57 -33 23 -25 55 -48 71 -52 22 -5 27 -11 23 -27 -5
-18 -2 -19 24 -14 22 5 29 3 29 -9 0 -9 -5 -16 -11 -16 -5 0 -7 -5 -4 -10 4
-6 15 -8 25 -5 13 4 19 -1 23 -18 4 -12 25 -36 48 -52 23 -17 61 -47 84 -67
23 -21 50 -38 59 -38 9 0 16 -6 16 -13 0 -14 50 -67 63 -67 13 0 155 -119 161
-135 3 -8 17 -15 31 -15 14 0 25 -4 25 -10 0 -5 11 -12 25 -16 16 -4 25 -13
25 -25 0 -12 15 -26 41 -40 23 -11 67 -47 100 -79 38 -38 64 -57 76 -54 27 6
60 -23 45 -38 -18 -18 -15 -28 10 -28 12 0 30 -7 40 -17 10 -9 28 -21 41 -27
12 -7 27 -28 34 -48 12 -38 41 -71 92 -107 27 -19 31 -20 31 -6 0 9 -9 19 -20
22 -24 6 -27 33 -4 33 9 0 18 -9 21 -20 3 -12 14 -20 25 -20 18 0 19 -5 14
-34 -8 -40 9 -52 37 -28 14 13 17 13 18 1 3 -30 5 -35 28 -66 18 -24 28 -30
40 -23 11 6 25 2 41 -10 22 -17 23 -22 13 -39 -11 -18 -10 -23 11 -36 13 -9
26 -25 29 -35 3 -14 14 -20 31 -20 14 0 26 -6 26 -12 0 -15 83 -98 97 -98 5 0
31 -25 57 -55 27 -32 55 -55 67 -55 12 0 23 -10 29 -25 5 -14 15 -25 23 -25
20 0 78 -46 91 -72 6 -12 27 -32 46 -44 19 -13 45 -32 57 -44 33 -33 111 -80
133 -80 15 0 20 -7 20 -25 0 -15 7 -28 18 -32 9 -4 42 -31 72 -60 30 -30 75
-65 100 -78 25 -12 74 -51 110 -85 36 -34 80 -68 98 -76 20 -9 32 -21 32 -34
0 -11 10 -25 23 -31 12 -7 41 -29 64 -50 24 -22 49 -39 57 -39 9 0 16 -12 18
-27 2 -20 13 -33 38 -45 19 -10 38 -27 42 -38 10 -27 58 -28 58 0 0 10 -6 23
-14 27 -7 4 -21 22 -30 40 -10 21 -32 39 -61 52 -25 11 -45 24 -45 28 0 19
-99 113 -118 113 -13 0 -23 9 -28 23 -8 25 -44 67 -59 67 -5 0 -36 24 -67 53
-68 63 -141 117 -156 117 -23 0 -102 89 -118 133 -7 20 -25 22 -41 6 -7 -7
-20 -9 -30 -5 -16 7 -16 9 7 26 24 18 24 19 6 26 -12 5 -21 3 -24 -4 -7 -21
-30 -13 -34 11 -2 14 -11 23 -26 25 -13 2 -28 14 -34 27 -6 13 -24 29 -41 34
-16 6 -47 31 -69 56 -22 25 -55 52 -73 60 -19 7 -38 22 -44 33 -6 11 -30 31
-53 45 -59 35 -118 90 -118 110 0 12 -12 19 -39 23 -31 5 -42 12 -51 35 -16
38 -6 79 21 79 14 0 25 -11 35 -36 8 -20 24 -38 34 -41 10 -3 21 -11 24 -19 3
-8 10 -14 17 -14 6 0 28 -13 49 -30 21 -16 42 -30 47 -30 5 0 28 -19 50 -42
61 -64 78 -78 94 -78 8 0 31 -18 52 -41 22 -22 51 -45 67 -50 15 -6 41 -27 59
-49 18 -23 43 -41 61 -45 17 -4 38 -18 48 -32 40 -61 135 -138 157 -129 11 4
13 -1 9 -24 -7 -32 15 -50 60 -50 39 0 56 -10 56 -35 0 -13 7 -30 15 -39 8 -8
15 -19 15 -25 0 -14 27 -14 35 -1 10 16 37 -1 32 -21 -6 -21 8 -35 18 -19 11
17 24 11 31 -15 6 -23 39 -49 111 -88 18 -9 33 -23 33 -30 0 -8 23 -26 50 -41
28 -15 50 -33 50 -41 0 -7 16 -22 35 -34 19 -11 41 -32 47 -47 7 -14 29 -34
50 -45 21 -11 36 -24 33 -29 -9 -14 13 -50 30 -50 8 0 15 -9 15 -20 0 -21 24
-28 35 -10 9 15 25 12 25 -4 0 -22 39 -64 63 -68 12 -2 26 -13 32 -25 5 -12
19 -26 32 -32 13 -6 23 -15 23 -20 0 -5 17 -16 38 -24 20 -8 46 -24 56 -36 11
-12 25 -21 33 -21 7 0 13 -7 13 -15 0 -13 -4 -14 -20 -5 -17 9 -20 8 -20 -11
0 -16 4 -19 18 -14 43 18 50 17 54 -6 2 -18 13 -26 44 -34 50 -12 74 -31 74
-57 0 -21 32 -38 38 -20 2 7 12 12 23 12 32 0 22 18 -26 46 -25 14 -45 29 -45
34 0 4 -26 29 -57 55 -32 26 -87 73 -123 105 -36 32 -114 101 -175 155 -60 53
-144 128 -185 165 -68 63 -256 224 -355 306 -22 18 -106 88 -186 156 -80 68
-190 159 -244 203 -54 44 -120 98 -146 120 -26 22 -60 50 -76 63 -15 13 -68
56 -118 97 -49 40 -135 110 -190 155 -55 45 -122 100 -150 122 -27 22 -72 58
-99 81 -27 23 -59 48 -70 56 -12 8 -50 39 -86 69 -36 29 -74 61 -85 69 -11 9
-45 37 -75 62 -30 26 -100 82 -155 126 -55 44 -102 82 -105 85 -3 3 -70 58
-150 122 -80 64 -154 125 -165 135 -11 10 -50 42 -87 71 -37 29 -80 64 -95 77
-86 72 -193 155 -201 155 -5 0 -15 7 -22 15 -7 9 -49 43 -94 77 -67 51 -248
199 -266 218 -3 3 -41 39 -85 80 -99 93 -221 238 -294 350 -57 86 -171 309
-211 410 -11 30 -25 64 -30 75 -5 11 -19 52 -31 90 -13 39 -29 81 -36 95 -7
14 -13 32 -13 41 0 9 -7 22 -15 29 -8 7 -15 19 -15 26 0 11 -48 44 -64 44 -3
0 -3 -30 -1 -67z m2495 -2649 c0 -9 -5 -14 -12 -12 -18 6 -21 28 -4 28 9 0 16
-7 16 -16z"/>
<path d="M4860 8400 c0 -5 6 -10 14 -10 8 0 18 5 21 10 3 6 -3 10 -14 10 -12
0 -21 -4 -21 -10z"/>
<path d="M6803 8373 c9 -2 25 -2 35 0 9 3 1 5 -18 5 -19 0 -27 -2 -17 -5z"/>
<path d="M7705 8291 c-6 -11 9 -23 19 -14 9 9 7 23 -3 23 -6 0 -12 -4 -16 -9z"/>
<path d="M6522 7811 c-11 -7 -10 -10 3 -15 19 -7 35 0 35 15 0 11 -20 12 -38
0z"/>
<path d="M8985 7811 c-7 -12 12 -24 25 -16 11 7 4 25 -10 25 -5 0 -11 -4 -15
-9z"/>
<path d="M9055 7760 c-4 -6 -3 -16 3 -22 6 -6 12 -6 17 2 4 6 3 16 -3 22 -6 6
-12 6 -17 -2z"/>
<path d="M12281 7644 c-18 -21 -6 -30 14 -11 8 9 15 18 15 21 0 11 -15 5 -29
-10z"/>
<path d="M7858 7348 c17 -8 26 -8 34 0 9 9 4 12 -22 11 -33 0 -34 -1 -12 -11z"/>
<path d="M8149 7057 c5 -5 28 -7 52 -5 l44 3 -52 5 c-29 3 -48 1 -44 -3z"/>
<path d="M9265 6887 c-4 -10 -5 -21 -1 -24 10 -10 18 4 13 24 -4 17 -4 17 -12
0z"/>
<path d="M6200 6850 c0 -5 7 -10 15 -10 8 0 15 5 15 10 0 6 -7 10 -15 10 -8 0
-15 -4 -15 -10z"/>
<path d="M9750 6606 c0 -9 7 -16 16 -16 9 0 14 5 12 12 -6 18 -28 21 -28 4z"/>
<path d="M9840 6511 c0 -12 5 -21 10 -21 6 0 10 6 10 14 0 8 -4 18 -10 21 -5
3 -10 -3 -10 -14z"/>
<path d="M9882 6468 c6 -16 36 -34 44 -26 3 4 4 14 1 23 -7 17 -51 21 -45 3z"/>
<path d="M9960 6401 c0 -5 9 -11 20 -14 13 -3 20 0 20 9 0 8 -9 14 -20 14 -11
0 -20 -4 -20 -9z"/>
<path d="M10040 6345 c0 -15 38 -40 47 -31 7 7 -26 46 -39 46 -4 0 -8 -7 -8
-15z"/>
<path d="M10140 6262 c0 -24 89 -79 104 -64 10 9 -65 72 -86 72 -10 0 -18 -4
-18 -8z"/>
<path d="M13560 6251 c0 -12 5 -21 10 -21 6 0 10 6 10 14 0 8 -4 18 -10 21 -5
3 -10 -3 -10 -14z"/>
<path d="M10570 5919 c0 -5 6 -9 13 -9 8 0 19 -11 25 -25 14 -30 52 -35 52 -6
0 11 -5 23 -11 27 -21 12 -79 22 -79 13z"/>
<path d="M10760 5775 c0 -8 7 -15 15 -15 9 0 12 6 9 15 -4 8 -10 15 -15 15 -5
0 -9 -7 -9 -15z"/>
<path d="M11001 5620 c-17 -10 -7 -40 14 -40 8 0 15 9 15 19 0 24 -12 32 -29
21z"/>
<path d="M11335 5410 c-8 -13 20 -24 36 -15 8 6 7 10 -2 16 -18 11 -26 11 -34
-1z"/>
<path d="M11430 5260 c0 -5 12 -10 28 -10 21 0 24 2 12 10 -20 13 -40 13 -40
0z"/>
<path d="M11590 5182 c0 -13 23 -32 37 -32 11 0 11 5 3 20 -10 19 -40 28 -40
12z"/>
<path d="M11730 5063 c1 -13 37 -53 49 -53 16 0 13 15 -6 32 -26 22 -43 30
-43 21z"/>
<path d="M8036 4956 c-70 -13 -88 -36 -29 -36 36 0 51 -6 120 -44 15 -8 60
-29 98 -46 86 -39 241 -116 316 -158 30 -17 89 -48 130 -70 152 -81 235 -125
284 -152 45 -25 154 -84 245 -133 19 -10 61 -33 92 -50 31 -18 85 -47 120 -66
35 -18 119 -65 188 -104 69 -39 136 -76 150 -84 14 -8 39 -23 55 -33 17 -11
37 -23 45 -27 23 -11 239 -141 297 -179 28 -19 54 -34 58 -34 3 0 18 -9 33
-19 59 -42 266 -175 292 -188 8 -4 20 -11 25 -15 6 -5 114 -77 240 -161 240
-159 372 -251 465 -322 30 -23 90 -65 132 -94 43 -29 90 -68 105 -86 16 -20
37 -35 48 -35 12 0 26 -5 32 -11 7 -7 12 -3 17 15 8 31 -11 71 -49 106 -15 14
-31 36 -36 49 -6 14 -15 21 -24 17 -9 -3 -42 22 -87 66 -40 38 -82 74 -93 79
-11 5 -33 18 -50 29 -16 11 -40 24 -52 29 -12 6 -24 19 -28 30 -3 12 -15 21
-25 21 -11 0 -23 6 -27 14 -12 22 -100 86 -117 86 -10 0 -16 9 -16 24 0 23 -3
24 -35 19 -34 -5 -48 8 -25 22 6 4 7 11 4 17 -5 7 -11 5 -19 -6 -11 -14 -17
-15 -41 -5 l-29 11 29 13 c32 13 20 31 -14 20 -14 -4 -29 3 -52 27 -20 20 -40
32 -53 30 -12 -2 -32 8 -46 21 -13 14 -33 26 -44 28 -12 3 -20 12 -20 24 0 31
-14 45 -45 45 -49 0 -83 18 -77 40 3 11 0 21 -6 21 -7 1 -19 3 -27 4 -8 1 -21
3 -27 4 -7 0 -13 7 -13 14 0 6 -38 30 -85 52 -46 22 -85 46 -85 53 0 7 -13 18
-29 23 -16 6 -32 17 -35 25 -3 8 -16 14 -29 14 -13 0 -32 9 -42 20 -10 11 -31
20 -47 20 -29 0 -40 24 -15 33 6 3 0 6 -14 6 -14 1 -45 14 -70 29 -113 73
-151 93 -170 87 -10 -4 -19 -2 -19 3 0 6 5 12 12 14 22 8 -3 28 -27 22 -17 -4
-26 0 -35 15 -6 12 -20 21 -31 21 -11 0 -30 11 -43 25 -13 14 -31 25 -40 25
-27 0 -65 30 -59 46 3 9 -1 14 -12 14 -12 0 -15 -5 -10 -20 9 -27 -11 -26 -26
2 -20 36 -51 57 -69 46 -12 -8 -26 -3 -55 16 -22 15 -42 30 -45 34 -9 13 -69
52 -79 52 -5 0 -11 7 -15 15 -3 8 -16 15 -30 15 -14 0 -28 5 -32 11 -3 6 -27
20 -53 31 -25 10 -50 26 -54 34 -4 8 -21 14 -37 14 -21 0 -36 9 -52 30 -16 23
-30 30 -54 30 -22 0 -41 8 -56 23 -38 39 -85 67 -112 67 -14 0 -44 13 -68 29
-24 16 -70 41 -103 57 -33 15 -81 43 -107 61 -26 18 -57 33 -69 33 -11 0 -32
9 -46 20 -14 11 -35 20 -47 20 -12 0 -38 11 -58 25 -20 14 -44 25 -53 25 -9 0
-24 4 -33 9 -30 15 -115 18 -176 7z"/>
<path d="M8008 4844 c-15 -14 19 -76 60 -111 73 -61 152 -140 152 -152 0 -6
14 -18 30 -26 18 -9 30 -22 28 -32 -2 -9 3 -18 10 -20 6 -3 12 2 12 11 0 25
10 19 68 -40 30 -30 65 -59 78 -64 14 -6 27 -18 31 -27 9 -27 62 -73 84 -73
10 0 19 -5 19 -10 0 -6 11 -15 25 -20 24 -9 35 -30 15 -30 -5 0 -10 -4 -10
-10 0 -5 9 -10 20 -10 10 0 23 -6 27 -14 4 -8 19 -16 33 -18 20 -2 26 -9 28
-35 3 -33 7 -36 52 -37 17 -1 26 -7 28 -22 2 -15 15 -25 43 -33 38 -12 54 -31
24 -31 -8 0 -15 -4 -15 -8 0 -12 58 -43 73 -40 7 2 19 -3 27 -9 8 -7 38 -32
66 -55 28 -24 68 -62 88 -85 21 -24 47 -43 57 -43 10 0 25 -13 34 -30 9 -16
21 -30 28 -30 11 0 42 -26 137 -114 19 -18 43 -35 53 -39 13 -5 16 -13 12 -27
-5 -16 -2 -20 18 -20 17 0 24 -5 23 -17 0 -10 8 -19 19 -21 11 -2 36 -19 55
-37 19 -17 43 -35 52 -38 11 -4 15 -12 12 -22 -5 -13 -2 -15 18 -10 20 5 26 2
31 -14 3 -11 16 -25 30 -30 13 -5 27 -17 30 -25 4 -9 11 -16 16 -16 6 0 31
-21 57 -46 26 -25 64 -54 85 -65 22 -11 39 -24 39 -29 0 -6 10 -10 21 -10 12
0 37 -15 55 -34 36 -37 108 -76 142 -76 11 0 27 -8 34 -17 26 -36 77 -63 116
-63 36 0 62 -14 62 -32 0 -4 -7 -8 -15 -8 -8 0 -15 -7 -15 -15 0 -8 9 -15 20
-15 11 0 20 6 20 14 0 23 33 29 50 8 8 -10 32 -27 53 -37 45 -23 48 -43 7 -51
-34 -7 -30 -24 6 -24 15 0 24 6 24 15 0 21 56 20 64 -1 3 -8 10 -12 16 -9 14
9 -21 54 -42 55 -21 0 -24 20 -4 20 8 0 27 -7 43 -14 15 -8 36 -17 46 -20 9
-3 17 -15 17 -26 0 -17 6 -20 44 -20 25 0 48 -5 52 -11 3 -6 15 -9 25 -6 10 3
42 -4 70 -14 28 -11 75 -21 103 -23 163 -11 244 -20 268 -33 23 -11 32 -11 48
-1 18 11 23 10 31 -4 14 -24 56 -23 69 2 6 11 19 20 28 20 10 0 22 4 27 9 6 5
24 11 40 13 22 2 31 9 33 25 5 32 -30 43 -153 53 -237 20 -463 50 -567 76
-129 32 -184 47 -203 55 -28 12 -106 39 -130 46 -11 2 -36 12 -55 21 -19 8
-48 21 -65 28 -83 33 -190 89 -265 139 -98 64 -413 311 -440 345 -3 3 -97 86
-210 184 -113 98 -232 202 -265 231 -33 29 -92 79 -132 112 -40 33 -98 83
-130 111 -32 28 -112 96 -178 152 -66 56 -145 123 -175 148 -30 26 -90 77
-134 112 -43 36 -101 84 -130 108 -72 60 -192 142 -208 142 -8 0 -17 -3 -20
-6z m912 -829 c0 -8 -4 -15 -10 -15 -5 0 -10 7 -10 15 0 8 5 15 10 15 6 0 10
-7 10 -15z"/>
<path d="M12050 4807 c0 -14 41 -57 53 -57 14 0 6 38 -11 53 -22 20 -42 22
-42 4z"/>
<path d="M12102 4728 c5 -15 48 -24 48 -10 0 10 -23 22 -42 22 -5 0 -8 -6 -6
-12z"/>
<path d="M12168 4678 c23 -23 39 -20 29 7 -4 8 -17 15 -29 15 l-22 0 22 -22z"/>
<path d="M12240 4610 c0 -11 7 -20 15 -20 8 0 15 9 15 20 0 11 -7 20 -15 20
-8 0 -15 -9 -15 -20z"/>
<path d="M12280 4604 c0 -22 27 -45 70 -59 45 -15 50 -20 50 -46 0 -22 6 -30
24 -35 13 -3 34 -17 47 -30 12 -13 26 -24 31 -24 5 0 21 -13 35 -30 13 -16 31
-30 40 -30 8 0 31 -18 50 -40 23 -25 45 -40 60 -40 39 0 26 28 -25 57 -26 14
-63 45 -81 69 -19 23 -54 52 -78 64 -24 12 -51 32 -59 46 -25 37 -164 121
-164 98z"/>
<path d="M13063 4515 c-8 -21 22 -52 84 -87 38 -22 57 -41 73 -73 13 -27 26
-42 34 -39 12 5 66 -48 66 -64 0 -4 15 -13 33 -21 17 -7 48 -26 67 -40 67 -52
145 -95 185 -102 22 -4 50 -10 63 -14 37 -12 26 14 -25 61 -27 24 -57 44 -68
44 -22 0 -56 21 -99 63 -16 15 -37 27 -46 27 -9 0 -25 10 -36 21 -10 12 -44
33 -76 46 -55 24 -62 33 -77 92 -7 26 -21 37 -63 45 -14 3 -40 17 -56 31 -34
29 -50 31 -59 10z"/>
<path d="M8394 4306 c-8 -22 3 -33 18 -18 9 9 9 15 0 24 -9 9 -13 7 -18 -6z"/>
<path d="M12714 4228 c3 -20 19 -45 38 -61 36 -31 42 -36 69 -66 24 -26 46
-27 54 -1 9 27 1 36 -36 44 -29 6 -31 8 -25 37 4 23 3 30 -7 26 -53 -20 -59
-19 -56 5 4 29 -7 48 -28 48 -12 0 -14 -7 -9 -32z"/>
<path d="M8410 4225 c0 -10 7 -15 18 -13 21 4 19 22 -2 26 -10 2 -16 -3 -16
-13z"/>
<path d="M12882 4058 c3 -7 13 -15 22 -16 12 -3 17 1 14 10 -3 7 -13 15 -22
16 -12 3 -17 -1 -14 -10z"/>
<path d="M13686 4039 c-11 -10 -18 -20 -15 -22 14 -12 75 -37 89 -37 10 0 23
-6 29 -14 15 -18 90 -31 102 -19 14 14 -33 54 -66 57 -16 2 -39 15 -51 30 -27
31 -61 33 -88 5z"/>
<path d="M12950 4015 c-17 -20 -10 -26 39 -35 37 -7 39 -6 30 11 -8 16 -39 39
-52 39 -3 0 -10 -7 -17 -15z"/>
<path d="M13075 3941 c-6 -10 25 -31 44 -31 6 0 11 9 11 20 0 15 -7 20 -24 20
-14 0 -27 -4 -31 -9z"/>
<path d="M13907 3924 c-14 -15 -6 -34 14 -34 14 0 19 5 17 17 -3 18 -20 27
-31 17z"/>
<path d="M13157 3893 c-12 -11 -8 -22 13 -33 16 -9 22 -8 27 6 8 21 -24 44
-40 27z"/>
<path d="M13939 3831 c-6 -17 -15 -31 -21 -31 -5 0 -30 -9 -55 -21 -34 -16
-44 -25 -40 -39 4 -15 -3 -19 -38 -25 -24 -3 -49 -13 -55 -20 -16 -19 -49 -19
-74 0 -23 17 -36 19 -36 6 0 -5 10 -13 23 -17 12 -4 25 -11 29 -17 4 -7 28 -5
75 6 37 9 87 19 111 23 23 4 42 10 42 15 0 5 20 30 45 56 47 50 55 85 22 91
-12 3 -21 -6 -28 -27z"/>
<path d="M13360 3761 c0 -10 40 -19 58 -13 7 2 10 8 6 13 -7 12 -64 12 -64 0z"/>
<path d="M13455 3730 c-7 -12 39 -24 61 -16 8 3 12 10 9 16 -8 13 -62 13 -70
0z"/>
<path d="M9126 3673 c-11 -11 -6 -23 9 -23 8 0 15 4 15 9 0 13 -16 22 -24 14z"/>
<path d="M11800 3555 c-11 -13 -9 -15 15 -15 16 0 25 5 23 12 -7 19 -24 20
-38 3z"/>
<path d="M9900 3130 c0 -5 7 -10 15 -10 8 0 15 5 15 10 0 6 -7 10 -15 10 -8 0
-15 -4 -15 -10z"/>
<path d="M9825 3070 c-3 -6 1 -13 10 -16 19 -8 30 0 20 15 -8 14 -22 14 -30 1z"/>
<path d="M10351 2871 c-19 -12 -4 -31 25 -31 19 0 25 5 22 17 -4 20 -27 27
-47 14z"/>
</g>
</svg>
