<?xml version="1.0" standalone="no"?>
<!DOCTYPE svg PUBLIC "-//W3C//DTD SVG 20010904//EN"
 "http://www.w3.org/TR/2001/REC-SVG-20010904/DTD/svg10.dtd">
<svg version="1.0" xmlns="http://www.w3.org/2000/svg"
 width="1800.000000pt" height="1203.000000pt" viewBox="0 0 1800.000000 1203.000000"
 preserveAspectRatio="xMidYMid meet">
<g transform="translate(0.000000,1203.000000) scale(0.100000,-0.100000)"
fill="#000000" stroke="none">
<path d="M10975 9658 c-161 -30 -209 -45 -291 -91 -65 -38 -137 -126 -184
-230 -16 -34 -38 -68 -49 -75 -12 -7 -21 -21 -21 -32 0 -11 -12 -45 -26 -76
-26 -57 -27 -66 -22 -185 2 -46 8 -71 21 -83 13 -14 17 -36 19 -104 2 -152 4
-166 26 -207 12 -22 22 -47 22 -55 0 -9 11 -40 25 -68 14 -29 25 -55 25 -59 0
-3 6 -14 14 -22 7 -9 21 -38 31 -66 18 -52 62 -148 126 -276 22 -42 39 -81 39
-87 0 -6 27 -68 60 -137 33 -69 60 -128 60 -130 0 -6 56 -130 75 -168 8 -16
15 -33 15 -38 0 -15 132 -282 155 -314 12 -16 26 -39 30 -50 8 -20 8 -20 13 0
2 10 -1 21 -7 23 -6 2 -11 8 -11 14 0 5 -6 24 -14 41 -7 18 -20 50 -29 72 -8
22 -27 68 -41 101 -14 34 -39 106 -55 160 -16 55 -44 128 -61 164 -18 36 -39
83 -46 104 -8 22 -20 46 -26 54 -17 20 -34 50 -58 102 -11 25 -27 59 -35 75
-27 57 -55 128 -55 140 0 7 -7 18 -15 25 -8 7 -18 30 -21 52 -4 21 -15 44 -24
51 -10 7 -22 31 -25 52 -4 22 -12 45 -17 52 -5 6 -6 23 -2 37 5 20 2 26 -10
26 -11 0 -16 9 -16 30 0 18 -9 39 -22 52 -32 32 -43 123 -19 161 18 28 18 31
-1 93 -13 45 -16 69 -9 82 5 10 9 42 9 70 -2 58 2 65 26 56 21 -8 36 -44 36
-84 0 -24 3 -27 22 -22 18 4 20 2 13 -14 -15 -36 -17 -64 -6 -64 6 0 11 14 11
30 0 33 24 41 49 18 11 -11 12 -8 6 12 -4 14 -18 45 -30 70 -13 25 -30 72 -40
105 -9 33 -21 74 -26 91 -12 42 -11 101 2 110 7 4 9 21 5 42 -6 40 14 72 45
72 15 0 17 5 12 31 -5 26 -1 35 26 60 18 16 36 29 42 29 5 0 9 6 9 13 0 16 38
40 51 31 6 -3 2 -12 -10 -21 -27 -18 -27 -33 -1 -33 11 0 20 7 20 15 0 8 7 15
15 15 23 0 18 -18 -16 -61 -33 -42 -35 -72 -4 -78 11 -2 31 -12 44 -22 13 -11
30 -19 37 -19 19 0 18 -17 -2 -24 -13 -5 -15 -14 -9 -44 4 -20 11 -42 16 -48
5 -7 11 -42 14 -78 5 -74 10 -88 31 -84 8 2 22 -9 31 -23 10 -15 30 -45 45
-67 28 -42 85 -86 151 -117 31 -14 43 -16 63 -6 40 18 64 13 74 -14 6 -15 20
-27 37 -30 15 -4 40 -13 55 -21 14 -8 38 -14 51 -14 14 0 28 -4 32 -9 3 -5 20
-13 37 -17 34 -7 42 -10 96 -37 35 -18 72 -22 72 -9 0 13 -115 63 -160 69 -25
3 -49 12 -53 19 -4 8 -18 14 -31 14 -13 0 -29 7 -36 15 -7 8 -27 17 -45 21
-41 7 -96 63 -89 91 7 25 46 51 52 33 8 -22 57 -59 135 -100 62 -33 81 -39 96
-30 11 5 31 10 44 10 19 0 26 -7 30 -28 5 -24 14 -30 69 -46 35 -10 78 -18 96
-18 22 0 35 -5 43 -19 10 -19 12 -19 34 -5 27 18 71 21 80 6 11 -18 31 -11 45
15 16 29 50 41 77 27 19 -10 43 -6 43 8 0 5 -17 10 -37 12 -33 3 -38 7 -41 31
-2 16 2 34 8 42 11 13 57 25 95 26 11 0 30 6 42 14 12 8 31 15 42 15 11 0 23
5 26 10 3 6 15 10 26 10 10 0 28 6 40 13 17 10 22 9 30 -6 13 -23 29 -12 29
20 0 22 -3 24 -25 19 -22 -6 -25 -3 -25 19 0 14 -9 30 -20 37 -11 7 -20 17
-20 22 0 11 -48 56 -61 56 -16 0 -10 -10 26 -47 20 -20 34 -40 33 -45 -2 -5
-30 -21 -63 -35 -33 -14 -92 -40 -131 -59 -71 -33 -107 -36 -118 -8 -3 8 -12
14 -21 14 -11 0 -15 -11 -15 -39 0 -31 4 -41 20 -46 11 -3 20 -10 20 -15 0
-17 -17 -19 -36 -5 -27 20 -33 19 -44 -10 -5 -14 -15 -25 -21 -25 -7 0 -20 -7
-30 -16 -21 -19 -46 -10 -29 11 7 8 10 21 8 29 -3 13 -9 13 -45 -4 -23 -10
-51 -16 -62 -13 -24 6 -36 32 -21 47 16 16 12 26 -10 26 -11 0 -20 -7 -20 -15
0 -22 -44 -19 -65 5 -13 14 -22 17 -29 10 -15 -15 -36 -12 -36 5 0 8 -9 15
-20 15 -11 0 -20 5 -20 10 0 6 9 19 20 30 24 24 25 29 3 46 -17 12 -17 13 1
20 11 4 21 2 26 -6 4 -7 5 9 3 35 -4 34 -2 50 8 56 23 14 76 10 115 -8 28 -14
38 -15 41 -5 3 6 12 12 20 12 11 0 14 -7 9 -25 -5 -18 -2 -25 8 -25 8 0 16 10
18 23 2 16 9 21 23 19 88 -15 86 -15 92 7 3 12 18 28 34 37 18 9 29 23 29 35
0 12 8 23 20 26 17 5 20 14 20 64 0 45 3 59 14 59 8 0 18 -4 21 -10 3 -5 13
-10 21 -10 8 0 37 -16 65 -36 28 -19 57 -33 65 -30 20 8 17 46 -3 52 -10 3
-31 12 -46 21 -16 8 -37 13 -47 10 -12 -3 -25 5 -38 23 -13 17 -33 30 -54 33
-18 2 -69 19 -113 36 -44 17 -87 31 -95 31 -8 0 -26 9 -40 19 -21 17 -23 22
-12 46 14 30 22 29 107 -10 28 -12 84 -35 125 -49 82 -30 119 -45 196 -82 55
-26 74 -30 74 -14 0 6 5 10 10 10 19 0 11 -80 -11 -109 -17 -23 -19 -32 -10
-50 7 -11 18 -21 26 -21 8 0 19 -8 24 -18 14 -27 117 -96 130 -88 6 4 11 20
11 37 0 19 5 29 15 29 8 0 15 4 15 9 0 5 11 16 24 24 22 15 25 14 54 -14 22
-22 33 -43 37 -77 11 -74 64 -176 105 -203 30 -19 36 -29 37 -61 2 -32 -1 -38
-18 -38 -12 0 -19 7 -19 18 0 30 -70 102 -100 102 -14 0 -31 5 -37 11 -15 15
-62 0 -75 -25 -22 -40 -68 -62 -68 -31 0 8 4 15 9 15 13 0 22 43 11 54 -14 14
-37 -21 -44 -68 -4 -22 -14 -45 -24 -52 -9 -7 -13 -16 -9 -21 5 -4 14 0 21 10
19 24 45 21 73 -9 16 -18 22 -32 17 -46 -4 -15 -9 -17 -17 -9 -17 17 -25 13
-29 -11 -3 -20 -10 -23 -46 -25 -24 -1 -49 -6 -55 -11 -7 -5 -27 -13 -45 -17
-26 -5 -36 -3 -46 11 -10 14 -15 14 -21 4 -5 -9 -4 -15 3 -18 29 -9 8 -22 -38
-22 -37 0 -50 4 -50 15 0 16 -46 65 -61 65 -5 0 -7 -16 -3 -39 5 -33 3 -41
-15 -50 -36 -20 -23 -31 33 -31 30 0 58 -4 61 -10 8 -13 55 -13 55 -1 0 5 9
13 20 16 11 3 20 13 20 21 0 19 54 19 70 -1 11 -13 15 -13 41 0 15 8 34 15 42
15 7 0 20 11 27 25 15 28 35 32 56 10 18 -17 42 -19 78 -6 16 7 34 6 53 -1 25
-9 38 -7 86 15 46 21 60 33 77 69 18 37 19 47 8 73 -7 16 -18 36 -25 43 -7 7
-13 19 -13 27 0 7 -7 16 -15 19 -9 3 -23 20 -31 38 -9 18 -22 45 -30 61 -9 15
-16 40 -17 55 -2 23 2 28 26 30 23 3 27 0 27 -23 0 -14 11 -37 24 -50 13 -13
36 -50 51 -82 20 -44 28 -54 35 -43 8 13 11 12 24 -5 20 -26 20 -36 1 -29 -19
8 -19 3 0 -32 8 -16 15 -42 15 -59 0 -23 3 -27 10 -15 5 8 10 25 10 38 0 12 5
22 10 22 14 0 32 -50 25 -67 -6 -18 20 -69 40 -76 8 -4 15 -13 15 -21 0 -13
31 -87 60 -146 4 -8 15 -14 24 -14 10 1 16 -5 15 -15 -3 -36 2 -51 17 -51 12
0 15 -7 12 -25 -3 -14 3 -36 13 -52 11 -15 19 -40 19 -54 0 -15 7 -29 15 -33
10 -3 15 -19 15 -42 0 -20 9 -51 19 -68 10 -17 22 -44 25 -61 4 -16 20 -48 36
-70 16 -22 37 -55 47 -73 17 -32 17 -34 0 -43 -21 -12 -22 -42 -3 -59 8 -6 16
-21 18 -33 2 -12 12 -23 23 -25 11 -2 24 -8 29 -12 13 -13 -27 -59 -51 -60
-13 0 -23 -5 -23 -10 0 -6 12 -9 28 -8 26 3 27 2 24 -39 -3 -31 2 -49 19 -72
22 -30 39 -33 39 -5 0 8 -7 14 -15 14 -11 0 -15 11 -15 41 0 55 20 47 36 -14
7 -26 20 -59 29 -74 12 -17 16 -37 12 -62 -3 -20 -3 -30 0 -23 9 24 33 13 33
-17 0 -25 45 -105 107 -191 19 -27 20 -32 32 -188 2 -23 21 -2 21 24 0 48 16
22 44 -71 16 -52 35 -107 43 -122 8 -15 11 -38 8 -54 -5 -20 -1 -31 15 -42 15
-11 19 -21 15 -39 -4 -17 2 -35 24 -66 17 -23 31 -50 31 -61 0 -10 7 -24 15
-31 19 -16 19 -34 1 -50 -8 -6 -12 -18 -9 -26 5 -13 8 -13 23 1 22 20 50 9 50
-19 0 -12 7 -31 15 -42 8 -10 15 -28 15 -38 0 -11 7 -27 15 -36 12 -13 13 -23
6 -43 -7 -17 -7 -28 -1 -32 6 -4 10 -17 10 -30 0 -13 4 -26 10 -30 5 -3 12
-32 16 -65 4 -33 10 -60 15 -60 22 0 27 -79 6 -92 -6 -4 -8 -11 -3 -15 5 -4
11 -2 13 5 6 17 32 15 39 -3 3 -8 -1 -22 -10 -30 -22 -22 -20 -46 4 -52 24 -6
27 -41 3 -58 -9 -7 -13 -17 -9 -23 11 -19 34 -14 41 9 10 32 29 7 27 -36 -1
-25 3 -35 13 -35 8 0 15 -8 15 -18 0 -10 11 -33 25 -52 18 -25 22 -36 13 -41
-7 -4 -18 -3 -25 3 -8 6 -16 8 -20 5 -9 -10 47 -89 67 -94 21 -6 34 -30 20
-38 -19 -12 -10 -63 15 -93 14 -17 25 -34 25 -39 0 -4 9 -14 20 -21 11 -7 20
-18 20 -26 0 -7 7 -19 15 -26 8 -7 15 -19 15 -26 0 -8 -7 -14 -15 -14 -23 0
-19 -41 5 -47 14 -4 20 -14 20 -34 0 -16 4 -29 9 -29 5 0 12 -12 16 -27 3 -14
15 -38 26 -52 13 -16 18 -33 15 -47 -4 -13 -2 -25 4 -29 10 -6 50 -91 50 -108
0 -6 7 -19 17 -29 14 -15 14 -22 4 -42 -15 -27 -1 -66 24 -66 10 0 15 -11 15
-33 0 -21 7 -36 20 -45 15 -9 20 -23 20 -52 0 -32 5 -43 30 -62 25 -18 30 -29
30 -64 0 -32 -4 -44 -17 -48 -23 -7 -99 20 -95 34 4 18 -17 50 -33 50 -18 0
-20 31 -2 49 10 11 7 12 -14 7 -34 -7 -42 2 -24 28 19 26 19 46 0 46 -19 0
-38 37 -32 61 3 10 1 19 -3 19 -5 0 -29 20 -55 44 -25 25 -65 54 -88 66 -22
12 -47 29 -53 38 -12 16 -13 16 -19 0 -5 -11 -18 -18 -35 -18 -20 0 -31 -6
-35 -20 -4 -12 -15 -20 -29 -20 -16 0 -25 -9 -34 -33 -16 -45 -15 -70 2 -64
21 8 29 -23 10 -44 -14 -16 -14 -18 5 -29 27 -14 27 -47 0 -55 -23 -8 -21 -28
4 -33 10 -2 17 3 17 12 0 19 16 21 26 4 4 -6 2 -14 -4 -16 -7 -2 -12 -10 -12
-17 0 -23 22 -64 35 -67 7 -2 28 -23 47 -48 19 -25 42 -45 52 -45 10 0 22 -8
27 -18 8 -13 4 -23 -16 -42 -28 -29 -30 -35 -12 -35 23 0 83 -68 95 -107 25
-83 150 -306 177 -317 8 -3 15 -15 15 -26 0 -30 37 -67 52 -52 9 9 8 16 -5 30
-32 36 -11 46 23 12 24 -24 44 -17 35 11 -5 15 -1 19 14 19 14 0 21 -6 21 -20
0 -11 7 -20 15 -20 11 0 15 11 15 39 0 30 4 40 20 44 13 3 20 14 20 28 0 21 1
21 18 6 27 -24 32 -21 32 18 0 25 -7 41 -25 57 -30 26 -32 38 -5 38 11 0 20
-7 20 -15 0 -8 9 -19 21 -25 27 -15 62 -98 55 -132 -3 -17 0 -28 9 -32 20 -7
19 -46 0 -46 -9 0 -15 9 -15 25 0 29 -21 33 -41 9 -11 -14 -10 -19 10 -35 13
-11 34 -19 48 -19 26 0 27 -7 9 -50 -4 -10 6 -23 30 -38 31 -20 35 -28 30 -52
-3 -16 -1 -32 5 -36 6 -3 17 -22 25 -40 8 -19 19 -34 24 -34 6 0 9 -19 9 -43
-1 -23 4 -52 11 -64 11 -17 11 -24 1 -37 -8 -10 -10 -26 -6 -46 7 -30 8 -31
26 -14 14 13 19 14 19 4 0 -8 9 -23 19 -34 17 -19 25 -49 22 -83 -2 -24 -22
-13 -32 17 -14 38 -29 39 -29 2 0 -37 46 -84 56 -58 16 42 51 1 39 -47 -4 -14
-2 -28 4 -31 6 -4 11 -18 11 -32 0 -14 6 -27 14 -30 18 -7 21 -127 3 -121 -7
2 -11 14 -10 25 3 23 -40 75 -69 85 -10 4 -18 13 -18 22 0 8 -6 15 -13 15 -8
0 -24 11 -37 25 -28 30 -40 32 -40 5 0 -11 -4 -20 -9 -20 -12 0 -24 31 -22 56
2 21 -51 84 -70 84 -6 0 -17 7 -25 15 -9 8 -29 15 -45 15 -16 0 -39 9 -51 20
-13 12 -31 28 -40 37 -10 9 -26 13 -38 10 -13 -3 -23 0 -27 9 -8 22 -70 44
-142 51 -52 5 -63 4 -59 -8 3 -8 13 -16 24 -18 10 -1 27 -10 36 -18 10 -9 26
-13 39 -10 22 6 67 -16 82 -40 4 -7 22 -13 40 -13 25 0 38 -8 57 -35 14 -18
36 -36 50 -40 23 -5 120 -100 120 -117 0 -5 8 -8 18 -8 19 0 152 -123 152
-140 0 -5 16 -30 35 -56 19 -25 35 -52 35 -60 0 -8 4 -14 9 -14 5 0 13 -15 16
-32 4 -18 14 -49 23 -68 8 -19 14 -42 13 -51 -1 -9 5 -22 14 -29 19 -16 19
-30 0 -30 -10 0 -15 -10 -15 -27 -1 -50 -93 -133 -146 -133 -16 0 -37 -12 -53
-29 -29 -31 -66 -47 -75 -32 -3 5 -48 9 -98 9 -137 -1 -348 32 -412 63 -22 10
-47 19 -56 19 -21 0 -93 39 -103 56 -4 8 -16 14 -26 14 -10 0 -21 9 -24 19 -2
11 -30 34 -61 51 -31 18 -63 44 -71 59 -19 37 -47 60 -52 44 -6 -18 -33 -16
-33 2 0 8 5 15 10 15 6 0 10 7 10 16 0 13 -3 14 -15 4 -23 -19 -44 -5 -66 45
-12 28 -26 45 -37 45 -9 0 -23 9 -30 20 -7 11 -18 20 -25 20 -19 0 -87 159
-87 203 0 8 -5 28 -10 43 l-11 27 -22 -22 c-31 -28 -43 -27 -64 7 -10 15 -23
33 -30 40 -7 7 -13 18 -13 24 0 6 -7 18 -15 27 -41 44 -75 90 -75 101 0 14
-31 60 -73 109 -18 21 -26 39 -22 50 17 39 16 49 -2 55 -13 4 -34 40 -62 111
-24 57 -49 110 -57 116 -8 6 -19 29 -24 50 -6 21 -26 62 -46 91 -19 29 -37 64
-41 78 -3 14 -14 36 -24 49 -10 13 -16 28 -13 33 3 5 -6 24 -21 44 -14 19 -35
53 -46 77 -26 55 -41 79 -59 93 -11 9 -12 15 -3 25 9 11 5 24 -18 57 -16 23
-29 53 -29 66 0 13 -7 29 -15 36 -8 7 -15 20 -15 30 0 10 -7 23 -15 30 -8 7
-15 24 -15 38 0 13 -9 40 -21 58 -11 18 -19 39 -18 46 4 31 -2 49 -15 46 -9
-2 -30 27 -55 76 -32 63 -40 87 -35 112 5 28 3 32 -21 38 -25 6 -26 10 -20 45
5 33 3 40 -19 55 -14 9 -26 23 -26 32 0 8 -11 36 -25 62 -14 26 -25 57 -25 70
0 13 -13 35 -29 50 -17 17 -35 50 -46 87 -10 33 -29 73 -42 88 -17 22 -21 33
-13 46 11 21 4 31 -22 31 -10 0 -18 7 -18 16 0 9 -6 28 -14 42 -7 15 -24 52
-37 82 -13 30 -28 62 -34 70 -6 8 -20 42 -31 75 -10 33 -38 87 -61 120 -24 32
-43 66 -43 74 0 8 -11 29 -25 47 -14 18 -25 42 -25 53 0 23 -39 104 -53 110
-5 2 -17 12 -25 22 -42 49 -43 -8 -2 -86 17 -31 30 -68 30 -80 0 -13 4 -26 9
-30 5 -3 17 -29 27 -58 9 -28 44 -108 76 -177 33 -69 71 -152 85 -185 14 -33
34 -72 44 -87 11 -14 19 -32 19 -38 0 -7 9 -29 19 -49 18 -34 44 -90 87 -186
9 -22 57 -123 106 -223 48 -101 88 -192 88 -202 0 -10 7 -23 15 -30 8 -7 15
-18 15 -25 0 -7 7 -18 15 -25 8 -7 15 -18 15 -26 0 -7 21 -57 46 -111 25 -54
59 -126 75 -160 16 -35 29 -65 29 -67 0 -14 442 -930 499 -1036 5 -8 46 -91
91 -185 46 -93 93 -183 105 -200 12 -16 29 -46 38 -65 10 -19 54 -84 100 -143
45 -60 92 -123 105 -140 12 -16 31 -36 42 -44 11 -8 33 -34 50 -58 18 -26 46
-51 68 -60 60 -26 126 -59 142 -71 8 -6 31 -17 50 -24 66 -25 153 -61 199 -83
37 -18 49 -44 29 -59 -21 -16 -33 -106 -18 -128 9 -13 11 -13 20 0 5 8 10 29
10 46 0 17 7 37 15 44 8 7 15 16 15 21 0 17 35 49 52 49 10 0 23 -11 27 -24
12 -29 43 -36 171 -36 82 0 106 -4 154 -25 62 -27 99 -34 78 -13 -18 18 -15
25 19 42 29 14 34 14 59 0 25 -15 33 -15 117 5 50 11 105 21 122 21 19 0 34 6
37 15 4 8 12 15 20 15 19 0 68 64 74 97 6 31 30 44 30 16 0 -11 7 -28 15 -39
18 -24 19 -97 1 -132 -7 -15 -16 -44 -20 -65 -4 -23 -16 -43 -31 -53 -32 -21
-31 -32 3 -36 23 -3 27 -8 30 -41 2 -21 -2 -45 -8 -52 -7 -8 -9 -19 -5 -26 4
-6 -2 -24 -14 -40 -11 -15 -21 -42 -21 -58 0 -23 -7 -34 -29 -45 -20 -11 -31
-25 -35 -51 -8 -42 -36 -71 -77 -79 -26 -5 -29 -9 -24 -27 5 -15 1 -28 -14
-43 -11 -11 -31 -34 -43 -49 -19 -23 -33 -29 -83 -34 -33 -3 -72 -12 -87 -19
-15 -8 -40 -14 -55 -14 -15 0 -43 -9 -61 -20 -42 -26 -50 -25 -79 6 -14 15
-32 24 -45 22 -32 -5 -35 -28 -4 -28 19 0 26 -5 26 -19 0 -11 -5 -23 -11 -27
-18 -11 -97 -6 -121 8 -14 7 -61 13 -118 13 -129 1 -215 14 -279 41 -39 18
-63 22 -91 18 -35 -6 -79 8 -140 44 -46 28 -80 42 -99 42 -11 0 -41 14 -66 32
-40 28 -48 31 -66 20 -18 -12 -20 -11 -15 5 5 14 -5 24 -42 43 -26 14 -54 30
-62 36 -8 6 -32 17 -52 24 -24 7 -38 18 -38 28 0 24 -37 44 -63 36 -19 -6 -20
-5 -8 10 18 21 6 34 -19 18 -23 -14 -37 2 -20 23 11 14 7 19 -13 16 -4 -1 -27
19 -50 43 -76 81 -79 85 -72 117 5 22 3 29 -9 29 -8 0 -16 -11 -18 -27 l-4
-28 -13 30 c-7 16 -17 33 -24 37 -6 4 -8 11 -3 15 5 4 11 2 13 -4 3 -7 9 -13
14 -13 15 0 10 34 -10 59 -15 20 -19 21 -24 7 -15 -37 -57 3 -57 54 0 10 -8
25 -17 32 -10 7 -27 30 -38 52 -11 21 -25 41 -32 43 -7 3 -21 24 -32 47 -10
22 -30 54 -45 69 -30 32 -33 52 -11 74 8 8 13 19 9 24 -7 13 -24 1 -24 -17 0
-8 -4 -14 -8 -14 -15 0 -32 24 -32 47 0 12 -10 32 -22 43 -19 18 -21 24 -10
41 11 17 9 23 -12 42 -13 12 -28 38 -33 57 -6 19 -22 52 -36 73 -14 21 -29 51
-32 68 -4 17 -13 33 -21 36 -8 3 -14 12 -14 20 0 8 -16 49 -36 91 -20 42 -42
91 -49 107 -7 17 -27 62 -44 101 -17 39 -31 79 -31 89 0 10 -11 33 -25 51 -14
18 -25 46 -25 63 0 16 -4 33 -10 36 -14 9 -12 35 3 35 13 -1 47 -66 47 -91 0
-8 20 -32 45 -54 32 -28 45 -47 45 -66 0 -33 48 -129 65 -129 7 0 10 -9 8 -23
-3 -14 2 -29 11 -36 9 -8 16 -19 16 -26 0 -8 10 -26 23 -42 13 -15 36 -58 51
-95 15 -37 34 -72 42 -79 8 -6 23 -31 33 -54 10 -23 31 -56 47 -73 16 -17 53
-59 83 -92 36 -40 58 -57 64 -51 12 12 -6 61 -21 61 -5 0 -21 11 -36 25 -22
21 -27 33 -24 63 3 34 1 37 -24 40 -18 2 -30 12 -39 35 -8 18 -28 54 -45 80
-17 26 -34 66 -38 88 -5 30 -12 42 -31 49 -21 8 -25 16 -25 50 0 29 -4 40 -15
40 -9 0 -15 9 -15 25 0 14 -9 33 -20 42 -11 10 -20 22 -20 29 0 6 -9 19 -20
29 -11 10 -20 30 -20 44 -1 14 -12 44 -25 66 -14 22 -28 47 -31 55 -51 118
-64 150 -64 159 0 6 -9 15 -19 21 -11 5 -22 23 -26 39 -7 31 -45 110 -83 171
-12 19 -22 45 -22 57 0 13 -9 37 -20 55 -11 18 -20 39 -20 46 0 6 -20 54 -44
105 -24 50 -49 111 -55 134 -6 23 -18 49 -26 57 -8 8 -15 30 -15 49 0 18 -3
37 -7 41 -5 4 -13 24 -19 44 -7 28 -15 36 -28 34 -17 -3 -18 2 -12 45 4 31 4
43 -3 34 -15 -23 -41 -5 -41 29 0 17 -4 38 -9 48 -15 27 -81 206 -81 218 0 6
-7 17 -15 24 -9 7 -12 22 -9 39 5 23 2 29 -15 34 -12 3 -21 13 -21 25 0 11 -7
26 -16 33 -12 10 -14 23 -10 50 4 26 2 42 -9 53 -8 8 -15 26 -15 39 0 13 -9
36 -20 50 -11 14 -20 32 -20 40 0 9 -11 29 -25 45 -14 17 -25 37 -25 45 0 8
-7 20 -15 27 -8 7 -15 18 -15 26 0 7 -13 22 -28 32 -15 11 -34 32 -42 46 -8
17 -22 26 -37 26 -20 0 -23 -5 -23 -34 0 -19 5 -38 10 -41 6 -3 10 -14 10 -23
0 -10 9 -25 20 -35 11 -9 20 -23 20 -32 0 -8 7 -29 14 -47 8 -18 29 -71 47
-118 17 -47 37 -98 44 -115 7 -16 21 -50 30 -75 9 -25 23 -58 31 -73 8 -16 14
-35 14 -42 0 -7 14 -43 30 -80 17 -37 30 -71 30 -77 0 -5 6 -24 14 -41 7 -18
21 -52 31 -77 9 -25 23 -58 29 -75 14 -32 64 -166 85 -225 33 -95 85 -232 112
-294 16 -38 29 -75 29 -82 0 -7 6 -28 14 -46 8 -18 25 -60 37 -93 33 -92 40
-108 55 -138 8 -16 14 -36 14 -46 0 -9 4 -21 9 -26 5 -6 20 -41 34 -80 14 -38
34 -92 45 -120 41 -106 124 -311 138 -342 8 -18 21 -49 29 -68 8 -19 22 -50
29 -67 8 -18 27 -60 41 -93 52 -118 68 -152 132 -284 36 -74 83 -163 104 -198
21 -35 39 -66 39 -68 0 -9 146 -220 176 -256 69 -81 173 -184 224 -223 48 -36
80 -57 185 -124 11 -6 30 -16 42 -21 11 -6 24 -15 28 -20 3 -6 14 -11 24 -11
10 0 24 -7 31 -15 7 -8 22 -15 34 -15 12 0 26 -4 31 -8 21 -17 130 -55 280
-96 261 -73 678 -84 895 -24 195 53 331 170 435 373 84 163 132 379 114 510
-5 39 -13 90 -16 115 -3 25 -10 50 -15 56 -5 7 -15 52 -24 100 -11 62 -27 112
-54 165 -42 81 -67 145 -96 244 -9 33 -23 71 -29 85 -32 66 -60 140 -75 195
-5 17 -18 55 -30 85 -12 30 -25 66 -30 80 -5 14 -18 50 -30 80 -12 30 -25 66
-30 80 -5 14 -18 50 -30 80 -12 30 -25 66 -30 80 -8 24 -32 78 -51 112 -5 10
-9 22 -9 28 0 10 -70 186 -105 265 -7 17 -23 59 -35 95 -11 36 -24 74 -29 85
-5 11 -15 38 -24 60 -8 22 -22 58 -30 80 -22 58 -75 190 -108 269 -16 38 -29
73 -29 78 0 6 -6 24 -14 41 -7 18 -21 52 -31 77 -9 25 -23 59 -30 75 -7 17
-20 50 -30 75 -9 25 -23 57 -31 72 -8 14 -14 33 -14 41 0 8 -13 45 -29 83 -16
38 -43 105 -61 149 -18 44 -38 94 -45 110 -8 17 -27 68 -45 115 -17 47 -37 98
-45 113 -8 16 -15 35 -15 42 0 7 -6 26 -14 42 -13 25 -47 109 -94 228 -8 22
-28 68 -44 103 -15 34 -28 64 -28 67 0 5 -64 145 -86 187 -8 14 -14 36 -14 47
0 12 -4 21 -9 21 -5 0 -12 14 -16 31 -4 17 -13 42 -21 57 -8 15 -14 34 -14 42
0 8 -7 24 -15 34 -8 11 -15 29 -15 40 0 12 -7 30 -15 40 -8 11 -15 27 -15 37
0 15 -17 58 -71 176 -10 23 -19 46 -19 50 0 4 -14 35 -30 68 -16 33 -30 67
-30 75 0 8 -7 24 -15 34 -8 11 -15 30 -15 43 0 13 -7 38 -16 54 -8 17 -13 37
-10 46 6 15 -38 118 -55 128 -5 4 -9 17 -9 30 0 13 -4 26 -9 29 -4 3 -11 28
-15 55 -4 28 -11 53 -16 56 -6 3 -10 15 -10 25 0 10 -6 31 -14 47 -8 15 -21
46 -29 68 -8 22 -29 76 -47 120 -18 44 -39 98 -47 120 -8 22 -21 54 -28 70 -7
17 -19 48 -28 70 -23 62 -76 193 -108 269 -16 38 -29 73 -29 77 0 16 -151 320
-181 364 -16 23 -29 45 -29 48 0 7 -93 137 -140 196 -105 132 -369 309 -605
406 -16 7 -41 18 -55 24 -150 64 -427 139 -600 162 -41 5 -105 14 -143 19 -83
12 -304 11 -372 -2z m321 -82 c8 -21 -14 -56 -36 -56 -10 0 -22 -5 -25 -11 -5
-7 -16 -2 -31 12 -29 27 -31 43 -5 36 11 -2 32 4 48 14 34 23 42 23 49 5z
m274 -36 c12 -12 25 -18 30 -15 6 3 21 -2 35 -12 31 -23 34 -69 5 -78 -26 -8
-25 -16 5 -49 14 -15 35 -26 50 -26 14 0 33 -9 42 -20 18 -21 63 -28 63 -10 0
6 11 10 25 10 14 0 25 -4 25 -10 0 -5 -8 -10 -19 -10 -10 0 -24 -7 -31 -15
-16 -19 -41 -19 -66 0 -10 8 -31 15 -46 15 -15 0 -53 7 -85 15 -31 8 -72 15
-91 15 -25 0 -35 5 -39 19 -4 18 -12 19 -81 14 -42 -2 -81 -8 -87 -13 -5 -4
-26 -11 -45 -15 -19 -4 -57 -23 -85 -41 -95 -64 -90 -57 -89 -140 0 -43 5 -79
12 -86 7 -7 12 -19 12 -28 0 -21 53 -60 82 -60 30 0 59 57 37 71 -8 5 -19 9
-26 9 -6 0 -28 9 -47 21 -32 18 -36 26 -36 60 0 57 23 61 68 13 21 -21 65 -65
100 -96 53 -49 62 -62 62 -92 0 -30 -3 -33 -21 -29 -11 3 -23 12 -26 19 -6 17
-30 18 -36 2 -4 -10 -7 -10 -18 0 -21 19 -32 14 -25 -13 10 -39 -19 -75 -60
-75 -23 0 -37 6 -44 20 -7 13 -21 20 -40 20 -20 0 -31 6 -35 21 -9 27 2 69 18
69 6 0 19 5 27 10 13 9 13 11 0 20 -26 17 -58 12 -65 -11 -4 -13 -12 -18 -22
-15 -8 3 -19 6 -24 6 -12 0 -39 55 -39 80 0 11 -7 32 -16 45 -9 13 -13 32 -10
43 3 10 -1 27 -9 38 -20 26 -19 54 3 54 15 -1 62 -60 62 -80 0 -4 -8 -11 -17
-14 -12 -5 -14 -9 -5 -18 16 -16 41 18 42 56 0 16 7 38 17 48 15 17 14 18 -15
24 -22 5 -32 12 -32 25 0 15 -5 17 -30 13 -25 -5 -31 -2 -41 20 -10 21 -9 31
2 52 14 28 54 48 76 40 22 -9 28 -37 10 -48 -10 -5 -17 -13 -17 -18 0 -16 28
-11 38 6 5 9 18 14 33 12 30 -4 38 -48 15 -83 -16 -25 -12 -35 15 -35 27 0 40
33 33 84 -6 42 -5 45 19 51 15 4 31 13 38 21 8 10 22 12 43 8 27 -4 39 1 76
34 39 33 54 40 108 45 59 6 62 6 62 -16 0 -26 -8 -38 -35 -53 -11 -6 -22 -19
-23 -28 -3 -14 2 -17 25 -15 16 2 39 -4 53 -14 31 -21 59 -22 89 -1 28 20 17
34 -37 49 -47 13 -54 44 -18 80 30 30 49 32 76 5z m-452 4 c17 -3 33 -12 36
-20 8 -20 -31 -37 -70 -29 -35 6 -43 22 -22 43 14 14 15 14 56 6z m-217 -14
c15 0 10 -30 -7 -37 -18 -7 -64 12 -64 26 0 11 29 20 48 15 8 -2 18 -4 23 -4z
m108 -27 c18 -16 42 -30 53 -33 28 -7 18 -26 -12 -22 -14 2 -37 17 -52 33 -15
16 -32 29 -37 29 -6 0 -11 5 -11 10 0 18 26 10 59 -17z m313 -207 c4 -6 8 -22
8 -36 0 -14 4 -32 10 -40 7 -12 13 -9 30 13 21 26 25 27 120 27 55 0 102 -4
105 -10 8 -14 41 -13 65 2 16 10 22 10 32 -3 15 -18 77 -38 132 -41 46 -3 67
-28 50 -55 -14 -22 -42 -27 -111 -18 -44 5 -56 11 -63 30 -13 33 -25 37 -45
15 -10 -11 -24 -20 -32 -20 -7 0 -13 -4 -13 -10 0 -5 -9 -10 -20 -10 -15 0
-20 7 -20 28 0 40 -9 44 -42 21 -23 -17 -38 -20 -68 -15 -41 6 -70 0 -70 -16
0 -5 16 -24 35 -42 40 -38 44 -60 14 -76 -28 -16 -66 -5 -74 21 -9 29 -100
149 -137 181 -31 27 -31 28 -14 47 28 31 90 35 108 7z m604 -2 c-4 -9 -1 -22
5 -30 13 -16 8 -56 -8 -61 -8 -3 -15 11 -19 36 -7 43 -13 48 -32 29 -9 -9 -15
-9 -24 0 -18 18 9 42 49 42 28 0 34 -3 29 -16z m402 -55 c7 -11 22 -19 32 -19
20 0 50 -35 50 -58 0 -21 -42 -62 -64 -62 -10 0 -29 11 -42 25 -13 14 -34 25
-47 25 -17 0 -27 7 -31 23 -10 37 -7 45 21 72 30 27 59 25 81 -6z m-1828 -107
c0 -35 -23 -71 -34 -53 -5 7 -5 28 -2 47 8 42 36 47 36 6z m-40 -91 c0 -11 -4
-23 -10 -26 -6 -4 -10 5 -10 19 0 14 5 26 10 26 6 0 10 -9 10 -19z m994 -118
c-8 -35 -7 -33 -23 -24 -17 11 -5 51 15 51 11 0 13 -7 8 -27z m1061 -87 c6 -6
24 -18 40 -26 24 -12 31 -23 33 -52 2 -29 -1 -39 -18 -48 -30 -16 -63 -9 -75
17 -7 17 -15 21 -32 17 -50 -13 -68 36 -33 86 15 22 25 26 47 23 16 -3 33 -10
38 -17z m1568 -4006 c25 -16 49 -30 55 -30 22 0 63 -45 88 -98 15 -31 35 -69
45 -84 23 -32 23 -34 3 -42 -9 -3 -31 3 -49 14 -36 22 -53 14 -36 -17 15 -28
42 -48 94 -69 26 -10 50 -27 53 -36 6 -20 64 -58 89 -58 22 0 55 -28 55 -46 0
-27 -75 -16 -142 21 -27 16 -63 20 -56 8 3 -5 10 -22 17 -40 7 -18 22 -35 34
-39 75 -21 109 -47 133 -100 13 -29 24 -56 24 -60 0 -4 11 -22 25 -40 14 -18
25 -38 25 -43 0 -6 14 -30 30 -53 17 -22 30 -47 30 -55 0 -8 -11 -13 -30 -13
-16 0 -30 4 -30 9 0 5 -12 14 -27 20 -84 35 -114 57 -135 101 -11 25 -54 112
-95 194 -40 82 -73 154 -73 159 0 6 -11 25 -25 44 -19 24 -37 35 -65 39 -30 5
-40 11 -40 25 0 14 7 19 30 19 17 0 30 2 30 4 0 9 -54 132 -64 146 -6 8 -17
26 -24 39 -8 13 -23 39 -33 58 -34 60 -5 70 64 23z m417 -379 c0 -14 -5 -18
-20 -14 -21 5 -25 15 -13 26 13 14 33 6 33 -12z m52 -61 c4 -26 2 -28 -11 -17
-35 27 -40 47 -12 47 13 0 20 -9 23 -30z m-12 -65 c0 -8 -7 -15 -15 -15 -16 0
-20 12 -8 23 11 12 23 8 23 -8z m60 -28 c0 -6 12 -21 27 -33 25 -19 26 -24 15
-48 -13 -30 -38 -33 -69 -8 -33 26 -39 66 -14 91 22 22 41 20 41 -2z m72 -159
c-9 -9 -12 -7 -12 12 0 19 3 21 12 12 9 -9 9 -15 0 -24z m336 -1130 c7 -7 12
-18 12 -25 0 -11 -6 -9 -25 4 -13 10 -25 21 -25 26 0 11 25 8 38 -5z m91 -95
c23 -13 31 -25 31 -45 0 -16 5 -28 10 -28 20 0 9 -18 -15 -24 -30 -8 -71 18
-78 49 -3 11 -9 30 -12 43 -6 18 -3 22 13 22 11 0 34 -8 51 -17z m188 -264 c7
-13 13 -61 13 -108 l0 -83 -42 -39 c-42 -38 -152 -99 -180 -99 -8 0 -18 -4
-24 -9 -31 -31 -226 -46 -314 -25 -30 7 -75 13 -99 14 -173 1 -361 50 -523
136 -14 8 -35 14 -46 14 -11 0 -33 11 -49 23 -15 13 -50 36 -76 52 -43 25 -47
30 -34 43 13 13 18 13 38 -2 13 -9 32 -16 42 -16 10 0 32 -8 47 -17 24 -14 34
-15 55 -5 14 7 32 12 40 12 22 0 18 -21 -5 -27 -11 -3 -20 -9 -20 -14 0 -15
19 -20 38 -8 15 9 27 6 69 -20 27 -17 55 -31 61 -31 6 0 16 -9 22 -20 6 -11
21 -20 33 -20 12 0 42 -10 67 -21 29 -13 56 -18 76 -14 17 3 49 -1 73 -10 23
-8 59 -14 79 -14 20 1 80 0 133 -1 101 -3 122 2 113 24 -8 22 16 30 30 10 10
-13 21 -16 54 -10 23 3 56 12 74 20 18 8 59 22 90 32 78 25 96 50 104 156 9
109 31 137 61 77z m-1369 -18 c30 -26 28 -31 -12 -31 -39 0 -53 14 -36 35 16
19 20 18 48 -4z m1212 -128 c0 -19 -3 -24 -10 -17 -6 6 -8 18 -4 27 9 24 14
21 14 -10z m-51 -56 c13 -16 5 -27 -21 -27 -18 0 -25 20 -11 33 10 10 19 8 32
-6z m-1645 -672 c-4 -8 -10 -12 -15 -9 -14 8 -10 24 6 24 9 0 12 -6 9 -15z"/>
<path d="M11305 9470 c-4 -6 -3 -16 3 -22 6 -6 12 -6 17 2 4 6 3 16 -3 22 -6
6 -12 6 -17 -2z"/>
<path d="M12310 9195 c-10 -13 -9 -15 9 -15 12 0 21 6 21 15 0 8 -4 15 -9 15
-5 0 -14 -7 -21 -15z"/>
<path d="M10675 9340 c-7 -12 12 -50 25 -50 6 0 10 -12 10 -27 1 -25 2 -26 11
-9 8 12 8 25 1 40 -6 11 -13 29 -16 39 -6 19 -21 23 -31 7z"/>
<path d="M12000 9189 c0 -8 5 -20 11 -26 8 -8 7 -13 -1 -18 -7 -4 -16 -1 -21
6 -4 7 -11 10 -14 7 -9 -8 25 -55 45 -63 25 -11 120 6 120 21 0 8 -9 14 -20
14 -11 0 -28 9 -37 20 -10 11 -24 20 -32 20 -8 0 -23 7 -33 17 -15 13 -18 14
-18 2z"/>
<path d="M11933 9088 c-7 -12 23 -38 44 -38 22 0 14 24 -12 37 -17 8 -27 8
-32 1z"/>
<path d="M11662 8995 c-15 -32 -2 -32 21 0 14 19 15 25 4 25 -8 0 -19 -11 -25
-25z"/>
<path d="M12387 8994 c-9 -9 34 -85 44 -78 17 10 10 63 -10 74 -23 12 -26 12
-34 4z"/>
<path d="M10830 8965 c0 -9 11 -20 24 -25 13 -5 29 -17 35 -27 10 -17 10 -17
11 3 0 11 -13 30 -30 42 -35 26 -40 27 -40 7z"/>
<path d="M10286 8899 c-9 -47 -6 -288 4 -334 26 -116 49 -176 83 -209 21 -21
34 -20 47 4 8 16 7 22 -9 32 -10 6 -17 18 -14 25 3 8 -1 31 -10 51 -8 20 -23
64 -32 97 -10 33 -22 65 -27 72 -5 6 -12 72 -15 147 -6 136 -15 174 -27 115z"/>
<path d="M10700 8797 c0 -7 7 -22 15 -33 8 -10 15 -25 15 -33 0 -7 14 -33 30
-58 17 -24 30 -48 30 -52 0 -5 7 -14 15 -21 8 -7 15 -22 15 -34 0 -12 9 -37
20 -56 11 -19 25 -47 31 -62 6 -16 15 -28 20 -28 5 0 9 -7 9 -15 0 -8 9 -24
20 -35 11 -11 20 -26 20 -33 0 -8 11 -34 25 -58 14 -24 27 -51 31 -59 3 -8 10
-22 15 -30 5 -8 27 -53 50 -100 22 -47 45 -94 51 -105 13 -24 63 -123 72 -145
4 -8 21 -42 39 -74 37 -68 63 -87 52 -38 -6 30 -94 212 -114 235 -5 7 -13 26
-17 42 -3 17 -12 37 -19 45 -13 15 -80 139 -136 252 -15 31 -33 59 -38 63 -6
3 -11 15 -11 26 0 10 -8 28 -17 38 -30 33 -43 50 -43 56 0 13 -43 99 -56 112
-8 8 -14 22 -14 30 0 9 -11 30 -24 47 -13 17 -26 45 -30 61 -7 29 -38 75 -50
75 -3 0 -6 -6 -6 -13z"/>
<path d="M10646 8771 c-10 -15 2 -48 19 -55 18 -7 19 11 1 43 -9 15 -16 20
-20 12z"/>
<path d="M11010 8756 c0 -18 60 -37 90 -29 23 6 25 14 8 31 -16 16 -45 15 -51
0 -3 -10 -9 -10 -26 0 -17 10 -21 10 -21 -2z"/>
<path d="M12140 8760 c-15 -9 -5 -30 15 -30 18 0 27 27 11 33 -7 3 -19 2 -26
-3z"/>
<path d="M11778 8668 c-13 -19 -18 -20 -45 -10 -17 6 -34 8 -37 5 -10 -10 -7
-23 6 -23 6 0 19 -6 27 -14 18 -16 129 -56 154 -56 10 0 17 8 17 19 0 25 -18
37 -33 22 -14 -14 -57 24 -57 50 0 27 -16 31 -32 7z"/>
<path d="M10704 8659 c-3 -6 -1 -16 5 -22 8 -8 11 -5 11 11 0 24 -5 28 -16 11z"/>
<path d="M11905 8650 c-4 -6 5 -10 19 -10 14 0 26 5 26 10 0 6 -9 10 -19 10
-11 0 -23 -4 -26 -10z"/>
<path d="M10760 8533 c0 -10 5 -25 10 -33 8 -12 10 -9 10 12 0 15 -4 30 -10
33 -5 3 -10 -2 -10 -12z"/>
<path d="M11030 8516 c0 -21 21 -31 30 -15 5 7 6 17 4 21 -9 14 -34 9 -34 -6z"/>
<path d="M11930 8490 c0 -5 9 -10 21 -10 11 0 17 5 14 10 -3 6 -13 10 -21 10
-8 0 -14 -4 -14 -10z"/>
<path d="M10310 8320 c-22 -41 -6 -169 29 -240 52 -105 227 -310 265 -310 19
0 22 36 3 47 -14 8 -87 128 -87 142 0 4 -13 27 -30 49 -16 23 -30 49 -30 57 0
9 -20 53 -44 98 -24 45 -46 94 -50 108 -3 15 -14 37 -25 50 l-18 23 -13 -24z"/>
<path d="M10710 8201 c0 -10 30 -24 37 -17 3 3 2 9 -2 15 -8 13 -35 15 -35 2z"/>
<path d="M10800 8024 c0 -14 4 -23 9 -20 5 3 7 15 4 26 -7 28 -13 25 -13 -6z"/>
<path d="M10830 7931 c0 -11 4 -21 9 -21 18 0 21 18 6 30 -13 10 -15 9 -15 -9z"/>
<path d="M11060 7915 c0 -8 5 -15 10 -15 6 0 10 7 10 15 0 8 -4 15 -10 15 -5
0 -10 -7 -10 -15z"/>
<path d="M11090 7856 c0 -8 5 -18 10 -21 6 -3 10 3 10 14 0 12 -4 21 -10 21
-5 0 -10 -6 -10 -14z"/>
<path d="M10642 7800 c-11 -18 -10 -25 8 -49 11 -16 20 -32 20 -35 0 -13 75
-165 104 -208 42 -66 61 -64 52 5 -4 28 -15 68 -25 87 -10 19 -24 53 -31 75
-12 37 -93 145 -108 145 -4 0 -13 -9 -20 -20z"/>
<path d="M11120 7783 c1 -18 18 -35 24 -24 4 6 4 16 1 21 -7 12 -25 13 -25 3z"/>
<path d="M11280 7665 c0 -33 34 -101 55 -108 27 -11 17 41 -17 89 -17 24 -33
44 -35 44 -2 0 -3 -11 -3 -25z"/>
<path d="M2710 7560 c-110 -22 -203 -59 -318 -124 -40 -23 -154 -118 -197
-165 -22 -24 -51 -56 -65 -70 -13 -14 -36 -48 -50 -76 -14 -27 -37 -69 -53
-92 -15 -24 -27 -46 -27 -50 -1 -5 -9 -26 -20 -48 -11 -22 -19 -50 -20 -62 0
-16 -5 -20 -19 -16 -26 7 -71 -38 -71 -72 0 -28 20 -33 43 -10 8 8 17 11 20 8
4 -3 4 -56 1 -117 -7 -153 22 -366 55 -399 6 -6 11 -19 11 -28 0 -10 17 -46
38 -80 20 -33 42 -71 49 -82 18 -31 114 -130 171 -175 57 -44 165 -99 262
-133 57 -20 85 -22 238 -22 167 0 173 1 197 23 l25 24 30 -22 c16 -12 34 -22
40 -22 6 0 26 -11 43 -24 18 -12 68 -41 112 -62 44 -21 82 -42 85 -45 3 -3 37
-21 75 -41 133 -67 210 -109 220 -119 5 -5 16 -9 25 -9 15 0 98 -40 235 -115
39 -21 99 -53 135 -72 73 -38 79 -46 79 -88 -1 -44 18 -193 32 -245 23 -92 89
-253 142 -345 120 -209 305 -400 507 -522 90 -54 190 -100 280 -128 30 -9 64
-21 75 -25 21 -9 148 -35 225 -45 68 -9 524 -12 615 -3 174 16 343 45 435 74
25 8 53 14 63 14 11 0 58 13 105 29 107 36 357 115 432 137 30 9 70 22 88 30
18 8 40 14 50 14 9 0 37 7 62 15 25 8 72 22 105 31 33 9 80 22 105 29 241 71
241 71 300 83 25 6 70 18 100 27 30 9 71 20 90 25 19 5 121 31 225 59 105 28
228 60 275 71 47 12 126 33 175 47 50 14 110 29 135 33 25 5 81 18 125 30 44
12 96 25 115 30 19 4 55 13 80 19 161 42 250 64 285 70 22 4 59 13 83 19 23 7
61 17 85 24 23 6 60 15 82 19 22 4 60 13 85 19 25 7 70 18 100 25 30 8 75 19
100 26 42 11 108 27 205 49 95 22 163 38 200 48 22 6 74 18 115 28 41 9 95 23
119 30 25 8 54 14 67 14 12 0 44 6 70 14 67 20 155 42 244 62 41 9 93 23 115
30 23 8 52 14 67 14 14 0 42 7 61 15 20 8 47 15 61 15 23 0 78 14 176 46 25 8
57 14 71 14 24 0 43 5 172 45 69 22 86 38 59 57 -10 7 -27 28 -36 46 -16 31
-48 43 -60 23 -3 -4 -34 -11 -68 -15 -35 -3 -96 -17 -137 -31 -40 -14 -112
-33 -160 -42 -47 -9 -93 -22 -102 -30 -8 -7 -30 -13 -49 -13 -35 0 -108 -18
-126 -32 -6 -4 -33 -11 -60 -14 -27 -4 -61 -13 -76 -20 -15 -8 -42 -14 -60
-14 -18 -1 -51 -8 -73 -16 -22 -9 -58 -17 -80 -19 -22 -1 -65 -10 -95 -19
-101 -32 -180 -54 -230 -65 -19 -5 -56 -16 -83 -25 -26 -9 -52 -14 -57 -11 -5
3 -17 2 -27 -3 -33 -17 -120 -42 -144 -42 -13 0 -37 -7 -53 -15 -15 -8 -39
-15 -51 -15 -12 0 -36 -7 -51 -15 -16 -8 -40 -15 -53 -15 -13 0 -44 -7 -70
-14 -145 -46 -356 -100 -416 -107 -33 -4 -107 -24 -165 -44 -109 -38 -192 -59
-295 -75 -33 -5 -94 -18 -135 -29 -41 -11 -122 -32 -180 -47 -58 -14 -148 -39
-200 -55 -52 -15 -133 -37 -180 -48 -47 -11 -130 -35 -185 -55 -55 -19 -113
-35 -130 -36 -33 0 -165 -31 -205 -48 -52 -21 -161 -52 -186 -52 -13 0 -36 -7
-49 -16 -18 -11 -35 -14 -60 -10 -26 5 -40 3 -51 -9 -8 -8 -30 -15 -47 -15
-18 0 -41 -7 -51 -15 -11 -8 -29 -15 -41 -15 -11 0 -29 -10 -39 -21 -14 -17
-25 -20 -55 -15 -25 4 -44 1 -57 -8 -11 -8 -30 -12 -45 -9 -14 3 -39 -2 -55
-10 -22 -11 -35 -12 -48 -5 -14 8 -29 5 -61 -11 -33 -16 -61 -21 -124 -21 -47
0 -81 -4 -81 -10 0 -5 13 -10 29 -10 17 0 33 -4 36 -10 6 -10 -13 -16 -75 -23
-19 -3 -70 -17 -112 -33 -75 -26 -78 -27 -97 -9 -15 13 -29 16 -56 11 -37 -7
-42 -15 -23 -34 9 -9 3 -12 -29 -12 -23 0 -45 -4 -48 -10 -3 -5 -25 -10 -48
-10 -23 0 -51 -7 -61 -15 -13 -10 -44 -15 -94 -15 -40 0 -82 -5 -94 -11 -14
-8 -27 -7 -48 1 -15 6 -69 12 -120 13 -51 1 -87 3 -81 5 20 7 0 22 -30 22 -35
0 -38 -12 -6 -29 19 -10 15 -11 -23 -5 -25 3 -72 9 -105 13 -33 4 -80 17 -104
29 -25 12 -55 22 -67 22 -13 0 -27 6 -31 13 -4 8 -40 33 -79 55 -91 54 -204
163 -230 223 -6 14 -23 38 -37 53 -14 15 -29 40 -32 56 -3 16 -13 34 -21 41
-8 6 -14 19 -14 29 0 10 -9 24 -21 31 -13 9 -22 28 -24 49 -5 49 -20 112 -32
135 -15 26 -43 182 -43 237 0 24 -4 49 -9 57 -27 42 -32 -153 -6 -215 15 -37
37 -124 55 -216 6 -28 24 -66 45 -93 19 -26 35 -55 35 -65 0 -10 10 -20 22
-24 21 -5 22 -7 6 -22 -15 -15 -14 -19 23 -57 22 -23 47 -57 58 -77 22 -43 85
-107 109 -112 27 -5 26 -42 -1 -57 -18 -10 -30 -10 -45 -2 -11 6 -30 11 -41
11 -11 0 -25 8 -30 19 -10 18 -61 36 -90 31 -8 -1 -20 5 -25 12 -6 8 -19 17
-28 21 -22 8 -24 37 -2 37 8 0 12 5 8 11 -4 8 -9 8 -17 0 -13 -13 -57 -15 -57
-2 0 5 7 12 16 15 23 9 11 18 -33 25 -27 5 -39 12 -42 26 -4 21 -46 65 -62 65
-18 0 -149 139 -149 158 0 11 -7 23 -16 26 -10 4 -13 13 -9 25 3 12 0 21 -10
25 -8 3 -15 14 -15 25 0 11 -9 22 -20 26 -11 3 -24 20 -29 38 -5 18 -10 26
-10 20 -1 -7 -8 -13 -16 -13 -17 0 -20 35 -4 46 17 10 3 59 -26 88 -14 14 -30
26 -34 26 -16 0 -21 141 -6 170 17 33 0 75 -32 75 -38 1 -54 24 -48 69 3 23 2
59 -2 81 -7 33 -13 41 -36 43 -46 6 -52 31 -52 217 0 94 3 193 8 220 5 36 5
44 -2 28 -6 -13 -14 -23 -20 -23 -15 0 -34 -127 -27 -180 4 -30 3 -51 -4 -55
-6 -4 -8 -15 -5 -25 4 -14 -1 -19 -27 -22 -18 -3 -41 -8 -50 -12 -13 -6 -21
-1 -30 19 -10 22 -17 26 -40 21 -21 -4 -28 -2 -28 9 0 9 -10 15 -25 15 -14 0
-29 8 -35 20 -6 11 -18 20 -28 20 -9 0 -37 18 -62 40 -39 35 -46 38 -60 25
-21 -19 -40 -19 -40 -1 0 7 -11 25 -25 40 -14 15 -25 31 -25 36 0 5 -13 5 -31
0 -26 -8 -32 -6 -36 9 -6 25 -45 35 -59 16 -6 -8 -16 -15 -23 -15 -18 0 -13
47 6 54 13 5 14 9 4 19 -10 9 -14 8 -22 -6 -8 -14 -14 -16 -25 -6 -10 9 -17 9
-28 0 -21 -17 -45 -3 -43 26 1 14 -4 28 -10 30 -7 3 -13 -2 -13 -11 0 -22 -17
-20 -47 4 -14 11 -34 20 -45 20 -10 0 -21 7 -24 15 -4 8 -14 15 -23 15 -9 0
-29 7 -46 16 -70 38 -137 35 -102 -4 17 -19 17 -20 -9 -26 -14 -4 -42 -2 -63
5 -49 16 -188 101 -231 142 -79 75 -190 235 -190 274 0 10 -4 23 -8 28 -32 37
-53 341 -26 380 20 28 18 57 -3 53 -12 -2 -19 -14 -21 -33 -2 -17 -11 -38 -20
-49 -29 -32 -15 -312 19 -361 3 -5 9 -23 13 -40 22 -92 154 -252 282 -340 l39
-28 -34 7 c-40 7 -121 46 -121 58 0 4 -7 8 -15 8 -8 0 -33 16 -55 37 -29 25
-44 33 -51 26 -17 -17 -2 -48 29 -60 l27 -11 -25 -1 c-36 -1 -63 23 -55 48 11
34 -3 58 -48 80 -30 15 -45 30 -53 53 -15 44 -44 50 -44 9 0 -16 -4 -32 -10
-36 -16 -10 -42 53 -35 85 7 33 -12 52 -27 26 -17 -30 -38 -19 -39 22 0 20 -3
31 -6 25 -2 -7 -9 -13 -14 -13 -14 0 -74 140 -87 205 -7 33 -18 81 -23 107 -7
31 -7 53 0 65 5 11 13 46 16 79 6 51 5 62 -9 67 -19 7 -21 45 -4 82 l11 25 24
-22 c20 -19 25 -20 33 -8 5 8 10 21 10 29 0 8 8 20 17 27 10 7 15 16 10 20 -4
4 -16 -2 -27 -14 -21 -23 -70 -30 -70 -11 0 6 12 31 27 57 16 26 27 52 25 59
-5 21 34 78 52 75 13 -2 15 2 10 23 -5 22 0 33 31 65 20 21 35 42 32 48 -9 14
51 54 72 47 15 -4 17 -1 14 19 -4 21 0 28 23 38 16 6 41 23 57 37 22 20 27 22
27 8 0 -17 11 -22 23 -10 4 3 2 12 -4 20 -9 10 -7 13 9 13 11 0 22 3 24 8 5
12 112 62 132 62 11 0 28 7 37 16 22 20 175 29 185 12 10 -15 -23 -37 -46 -31
-29 8 -25 -21 4 -35 18 -8 30 -7 50 3 19 10 34 11 52 5 14 -6 46 -10 72 -10
87 0 355 -69 385 -99 6 -6 19 -11 28 -11 9 0 22 -7 29 -15 11 -13 7 -15 -26
-15 -22 0 -59 7 -84 16 -66 23 -269 23 -285 0 -8 -10 -27 -16 -52 -16 -29 0
-52 -9 -81 -30 -23 -16 -48 -30 -55 -30 -24 0 -136 -94 -125 -105 4 -4 13 -1
21 6 7 8 39 27 70 44 31 16 57 35 57 42 0 8 12 13 30 13 17 0 66 11 109 25 94
31 256 40 310 19 18 -8 43 -14 55 -14 11 0 30 -7 40 -15 11 -8 33 -15 48 -15
16 0 54 -16 84 -35 30 -19 58 -35 63 -35 18 0 19 28 3 52 -9 14 -29 43 -43 64
-48 71 -187 195 -264 237 -71 38 -167 77 -188 77 -13 0 -46 7 -73 15 -64 19
-196 17 -304 -5z m199 -79 c19 -12 4 -51 -20 -51 -19 0 -24 16 -13 44 7 18 13
19 33 7z m155 -10 c12 -19 -51 -45 -75 -31 -9 6 -2 13 22 23 42 19 46 19 53 8z
m-1024 -787 c0 -26 -17 -33 -26 -9 -8 20 3 48 16 40 5 -3 10 -17 10 -31z
m3050 -2634 c8 -14 8 -20 0 -20 -20 0 -51 21 -45 31 10 16 34 10 45 -11z"/>
<path d="M11362 7511 c2 -19 9 -36 16 -39 17 -5 15 30 -3 54 -14 18 -15 17
-13 -15z"/>
<path d="M13505 7500 c-4 -6 2 -28 11 -50 13 -28 26 -42 44 -46 14 -3 42 -12
63 -20 20 -8 48 -14 61 -14 13 0 29 -7 36 -15 7 -8 21 -15 31 -15 10 0 26 -11
35 -25 9 -14 24 -25 34 -25 25 0 50 -10 50 -21 0 -5 -8 -9 -18 -9 -9 0 -23 -9
-30 -20 -12 -19 -13 -19 -71 10 -56 29 -102 37 -135 24 -23 -9 -20 -22 18 -97
19 -36 37 -80 41 -96 3 -16 13 -35 21 -42 8 -6 14 -20 14 -30 0 -12 15 -26 39
-39 22 -10 41 -25 43 -31 2 -7 11 -10 19 -7 10 4 5 11 -18 24 -50 29 -52 99
-2 92 18 -2 25 -10 27 -30 2 -15 15 -41 29 -57 59 -66 84 -239 54 -368 -14
-59 -14 -65 6 -100 11 -21 26 -61 32 -89 30 -126 58 -164 78 -107 59 163 75
281 70 493 -4 183 -9 213 -49 320 -62 162 -267 336 -456 386 -63 17 -69 17
-77 4z m289 -345 c3 -9 19 -15 41 -15 30 0 39 -6 62 -41 63 -94 72 -120 72
-206 1 -45 -3 -85 -9 -88 -5 -3 -11 2 -11 12 -3 50 -10 87 -17 92 -4 3 -20 31
-36 61 -16 30 -42 70 -58 88 -15 18 -28 37 -28 42 0 6 -7 10 -15 10 -14 0 -35
29 -35 49 0 17 27 13 34 -4z m171 -644 c-5 -20 -8 -22 -16 -10 -13 20 -11 67
4 92 11 21 12 20 15 -17 2 -22 1 -51 -3 -65z"/>
<path d="M11060 7449 c0 -13 41 -111 52 -123 4 -6 8 1 8 16 0 15 -7 33 -15 42
-8 8 -18 29 -21 45 -6 29 -24 44 -24 20z"/>
<path d="M10776 7413 c-4 -4 -67 -10 -139 -14 -129 -6 -197 -16 -287 -45 -25
-8 -81 -14 -125 -14 -44 -1 -98 -5 -120 -10 -116 -26 -192 -40 -210 -38 -23 3
-224 -9 -410 -23 -181 -14 -559 -38 -755 -49 -91 -5 -187 -14 -213 -20 -27 -5
-110 -10 -185 -10 -75 -1 -182 -5 -237 -10 -55 -5 -185 -14 -290 -19 -104 -6
-233 -15 -285 -21 -52 -6 -399 -15 -770 -21 -692 -10 -875 -17 -1015 -38 -169
-26 -254 -45 -380 -87 -22 -7 -57 -16 -78 -20 -20 -3 -40 -10 -43 -15 -3 -5
-12 -9 -21 -9 -47 0 -448 -191 -483 -230 -3 -3 -23 -18 -45 -35 -60 -44 -164
-155 -186 -197 -10 -20 -23 -39 -29 -43 -13 -8 -13 -45 1 -45 9 0 93 67 147
118 7 6 23 12 34 12 16 0 19 5 15 21 -5 19 -2 21 24 15 21 -4 29 -2 29 8 0 21
33 29 46 12 15 -21 28 -21 20 0 -5 13 41 74 57 74 13 0 13 -42 1 -54 -19 -20
-18 -33 6 -39 24 -6 26 -29 5 -47 -22 -18 -18 -37 11 -56 20 -14 25 -23 21
-43 -7 -32 37 -101 64 -101 23 0 25 37 4 95 -8 22 -15 75 -15 117 l0 77 73 35
c40 20 76 36 80 36 4 0 35 13 69 29 114 52 165 71 199 73 29 3 35 -1 37 -20 2
-13 -3 -24 -12 -28 -9 -3 -16 -11 -16 -18 0 -6 -9 -28 -20 -49 -11 -20 -20
-42 -20 -49 0 -26 -55 -80 -123 -120 -103 -60 -219 -160 -211 -182 2 -6 -5
-29 -16 -51 -11 -21 -20 -50 -20 -63 0 -37 -18 -62 -46 -62 -30 0 -40 -21 -24
-51 11 -19 9 -25 -11 -41 -26 -20 -64 -20 -64 -1 0 7 -6 18 -12 25 -16 15 -17
50 -2 65 18 18 3 43 -25 43 -17 0 -24 -5 -20 -13 7 -19 -20 -52 -36 -42 -10 6
-9 9 1 16 7 4 10 11 6 15 -4 4 -13 2 -19 -4 -17 -17 -53 -15 -68 3 -7 8 -16
15 -20 15 -18 0 -75 -69 -102 -122 -15 -31 -34 -61 -41 -65 -42 -27 -79 -183
-52 -219 13 -18 14 -18 32 -1 27 24 31 22 75 -24 28 -29 37 -46 33 -60 -4 -10
-13 -19 -20 -19 -24 0 -26 -19 -5 -40 23 -23 37 -25 42 -8 6 18 37 1 48 -27 5
-14 16 -25 25 -25 21 0 19 29 -2 37 -38 14 -44 48 -10 57 15 4 27 0 40 -15 14
-17 17 -18 17 -5 0 18 15 22 25 6 9 -15 25 -2 25 19 0 10 7 24 15 31 9 7 13
20 10 27 -3 8 4 26 15 40 11 14 20 30 20 36 0 5 14 39 30 75 26 53 30 72 25
111 -6 43 -5 45 9 26 16 -19 17 -18 46 15 32 39 38 60 15 60 -23 0 -18 13 17
44 18 15 42 44 54 63 24 40 182 203 196 203 8 0 43 25 103 73 53 42 285 167
312 167 6 0 16 7 23 16 8 8 25 14 40 12 28 -3 80 36 66 49 -4 5 -13 1 -19 -7
-7 -8 -28 -16 -47 -17 -19 -1 -62 -4 -95 -7 -33 -3 -68 -6 -79 -6 -18 -1 -18
-1 0 -15 18 -13 18 -14 1 -21 -10 -3 -30 -1 -44 5 -26 12 -34 8 -47 -24 -2 -6
-9 -5 -17 2 -10 11 -10 19 4 48 9 20 17 42 17 49 0 8 7 20 16 27 15 12 14 15
-6 31 l-22 18 36 15 c21 9 56 15 79 14 65 -3 177 11 224 28 24 9 53 13 68 9
14 -4 43 -1 65 5 32 10 46 9 79 -5 52 -20 50 -21 61 10 8 21 13 24 24 15 11
-9 19 -9 34 0 16 10 23 10 36 0 12 -10 30 -10 91 0 60 9 81 9 99 -1 18 -9 52
-10 147 -2 93 7 144 7 202 -3 64 -10 82 -10 103 1 29 16 79 17 139 5 l40 -9
-37 -1 c-35 -1 -88 -35 -75 -48 3 -2 40 0 82 6 42 6 119 11 171 11 53 0 105 5
117 11 11 7 86 15 166 18 81 4 152 10 159 15 8 5 73 12 145 17 73 5 209 13
302 19 94 6 227 12 297 13 71 1 128 5 128 10 0 4 -4 7 -10 7 -5 0 -10 5 -10
10 0 18 39 10 50 -10 11 -20 34 -20 105 1 17 4 80 9 140 10 61 1 117 6 127 11
9 4 78 10 153 13 75 3 145 9 154 15 10 5 34 7 53 4 22 -4 46 0 66 10 34 17
108 21 132 6 10 -6 29 -1 62 17 41 22 52 24 73 15 28 -13 84 -5 91 12 3 7 38
11 97 10 68 0 103 4 136 18 31 13 47 15 56 8 7 -6 28 -10 46 -9 19 1 48 -1 65
-5 21 -5 36 -3 46 6 7 7 28 23 45 35 28 20 34 21 47 8 20 -21 45 -18 90 10 49
30 44 32 -103 42 -91 6 -116 11 -125 25 -5 9 -7 21 -2 25 4 4 66 9 137 11 106
3 135 1 154 -12 38 -25 103 -20 147 11 35 23 42 25 76 15 20 -6 54 -13 74 -16
30 -4 38 -1 43 15 7 20 30 26 40 10 3 -6 19 -2 38 8 33 19 97 26 97 11 0 -5
-6 -10 -12 -13 -24 -9 25 -36 53 -30 21 4 28 1 34 -16 4 -15 15 -21 35 -21 21
0 33 -8 49 -35 11 -19 33 -40 48 -46 15 -6 36 -18 45 -26 16 -15 18 -15 18 0
0 9 -6 20 -12 24 -14 9 -35 39 -44 63 -3 8 -20 24 -37 35 -17 11 -41 38 -53
60 -13 22 -26 45 -31 50 -4 6 -21 27 -36 48 -27 36 -46 45 -61 30z m-972 -219
c29 -11 16 -24 -24 -24 -29 0 -40 4 -40 15 0 16 35 20 64 9z m-262 -34 c-24
-23 -42 -26 -42 -7 0 20 10 27 39 27 l25 0 -22 -20z m-100 -6 c13 -9 -28 -33
-58 -34 -11 0 -24 -3 -28 -7 -4 -5 -71 -13 -149 -20 -78 -6 -198 -17 -267 -22
-69 -6 -215 -18 -325 -27 -110 -8 -256 -21 -325 -28 -69 -7 -172 -14 -230 -15
-58 -1 -143 -6 -190 -11 -47 -5 -186 -10 -310 -11 -124 -1 -277 -7 -340 -12
-134 -11 -182 -13 -585 -23 -165 -3 -306 -10 -314 -14 -8 -4 -27 -4 -44 1 -16
4 -50 4 -77 -1 -26 -5 -82 -10 -124 -11 -43 -2 -79 -6 -82 -10 -2 -4 -28 -6
-56 -4 -29 1 -73 -1 -98 -6 -76 -16 -441 -45 -447 -36 -9 15 6 37 27 37 11 0
40 10 62 21 46 24 147 42 220 41 35 0 48 3 50 16 2 13 20 16 97 19 52 2 101 8
108 15 9 7 17 7 27 -1 9 -8 22 -8 43 -1 20 7 44 8 72 1 31 -7 51 -6 74 4 22 9
37 10 54 2 15 -7 54 -6 127 2 68 8 160 9 267 4 90 -4 200 -6 244 -6 343 6 541
13 606 22 43 6 110 10 150 9 105 -1 486 21 664 38 83 7 242 19 355 24 113 6
225 15 250 20 25 5 83 9 130 10 47 0 110 4 140 8 75 10 268 15 282 6z m-2264
-278 c4 -17 -1 -18 -54 -12 -32 4 -60 9 -63 12 -12 12 27 24 69 22 35 -2 46
-7 48 -22z m-2268 -236 c0 -12 -28 -25 -36 -17 -9 9 6 27 22 27 8 0 14 -5 14
-10z m-199 -580 c13 -22 26 -40 31 -40 19 0 26 -45 10 -63 -33 -37 -71 -118
-79 -167 -6 -35 -30 -80 -42 -80 -4 0 -26 19 -50 43 -38 37 -42 46 -38 77 3
19 19 65 36 102 17 36 31 68 31 71 0 2 9 25 20 51 27 59 50 61 81 6z m14 -370
c-5 -8 -11 -8 -17 -2 -6 6 -7 16 -3 22 5 8 11 8 17 2 6 -6 7 -16 3 -22z"/>
<path d="M2654 7375 c-15 -13 -25 -27 -22 -31 10 -9 99 36 92 47 -10 16 -40 9
-70 -16z"/>
<path d="M11435 7348 c4 -13 16 -38 26 -56 10 -18 19 -40 19 -48 0 -8 7 -17
15 -20 8 -4 15 -17 15 -29 0 -13 7 -30 15 -38 7 -8 17 -28 21 -43 10 -40 33
-84 44 -84 19 0 10 43 -17 89 -32 53 -53 97 -78 161 -9 25 -21 55 -26 68 -5
12 -16 22 -24 22 -12 0 -15 -6 -10 -22z"/>
<path d="M2515 7319 c-41 -41 -52 -49 -63 -49 -6 0 -52 -41 -103 -91 -65 -65
-88 -94 -80 -102 8 -8 17 -5 31 11 12 12 27 22 35 22 8 0 19 9 26 21 7 14 17
19 30 16 14 -4 19 0 19 14 0 10 8 27 19 37 55 51 117 98 143 109 16 7 27 17
23 23 -10 16 -59 10 -80 -11z"/>
<path d="M12775 7311 c-8 -15 3 -31 21 -31 9 0 14 7 12 17 -4 20 -24 28 -33
14z"/>
<path d="M2022 7227 c-14 -15 -22 -36 -22 -60 0 -20 2 -37 5 -37 13 0 95 94
92 104 -7 22 -52 18 -75 -7z"/>
<path d="M2674 7225 c-9 -14 -23 -25 -30 -25 -8 0 -14 -7 -14 -15 0 -8 -9 -20
-20 -27 -22 -14 -27 -38 -7 -38 6 1 30 19 52 40 22 22 45 40 50 40 12 1 55 35
55 44 0 3 -16 6 -35 6 -26 0 -39 -6 -51 -25z"/>
<path d="M11152 7241 c4 -13 18 -16 19 -4 0 4 -5 9 -11 12 -7 2 -11 -2 -8 -8z"/>
<path d="M2271 7221 c-10 -6 -10 -10 -1 -16 13 -8 24 -1 19 14 -3 6 -10 7 -18
2z"/>
<path d="M11170 7180 c0 -5 6 -10 13 -10 8 0 19 -12 26 -27 9 -20 15 -23 24
-14 9 10 5 18 -18 37 -32 26 -45 30 -45 14z"/>
<path d="M2530 7089 c0 -25 33 -22 38 4 2 12 -3 17 -17 17 -15 0 -21 -6 -21
-21z"/>
<path d="M3380 7056 c0 -17 5 -26 16 -26 10 0 14 7 12 22 -5 32 -28 35 -28 4z"/>
<path d="M9840 7060 c0 -5 6 -10 14 -10 8 0 18 5 21 10 3 6 -3 10 -14 10 -12
0 -21 -4 -21 -10z"/>
<path d="M2621 7033 c-17 -16 -20 -23 -9 -23 23 0 55 27 43 38 -6 5 -19 -1
-34 -15z"/>
<path d="M3686 7035 c24 -24 54 -34 54 -17 0 14 -40 42 -60 42 -17 0 -17 -2 6
-25z"/>
<path d="M2470 7016 c-30 -50 -21 -64 14 -20 18 23 25 39 18 46 -6 6 -17 -3
-32 -26z"/>
<path d="M3588 7031 c-8 -14 -17 -17 -27 -11 -9 4 -40 11 -68 15 -46 6 -53 5
-53 -10 0 -15 6 -17 41 -11 35 6 41 4 46 -13 6 -24 42 -35 50 -15 3 8 13 14
23 14 15 0 20 -9 22 -42 3 -45 26 -64 35 -29 3 12 8 21 12 21 24 -1 58 -48 76
-106 8 -24 26 -5 19 21 -7 30 6 37 45 22 25 -9 36 -9 51 1 17 11 21 10 26 -5
15 -48 35 -83 48 -83 21 0 30 19 16 35 -7 9 -8 15 0 20 15 9 30 -3 30 -24 0
-22 30 -32 53 -20 28 16 67 -31 67 -79 0 -49 11 -59 35 -32 17 19 17 21 0 40
-14 15 -16 23 -7 32 9 9 20 2 47 -26 22 -24 41 -36 51 -32 11 4 12 10 4 25
-15 28 -12 51 5 51 11 0 14 -7 10 -22 -4 -17 0 -25 17 -33 18 -8 24 -20 26
-50 4 -52 12 -58 62 -50 30 5 44 13 47 27 5 16 11 18 49 12 39 -6 44 -4 44 13
0 10 5 24 11 30 7 7 -6 9 -43 7 -32 -2 -44 -1 -30 4 35 11 31 27 -8 30 -19 2
-39 10 -43 18 -4 8 -20 14 -34 14 -15 0 -35 8 -46 18 -15 13 -37 17 -104 17
-80 0 -86 1 -94 23 -9 23 -16 24 -66 5 -6 -2 -14 9 -18 26 -6 30 -28 41 -40
21 -3 -5 -15 -10 -26 -10 -14 0 -19 7 -19 25 0 28 -32 65 -55 65 -17 0 -20
-25 -5 -35 20 -12 9 -26 -17 -23 -25 3 -28 7 -28 38 0 27 -4 36 -20 38 -12 1
-25 -6 -34 -19 -11 -19 -11 -23 3 -31 21 -12 11 -28 -16 -28 -17 0 -19 4 -14
25 9 34 -29 51 -57 27 -17 -16 -20 -15 -33 3 -8 10 -14 31 -14 47 0 21 -5 28
-20 28 -11 0 -25 -9 -32 -19z m752 -295 c0 -14 5 -28 10 -31 6 -3 10 -13 10
-22 0 -12 -6 -14 -27 -8 -37 9 -37 8 -23 49 13 41 30 48 30 12z"/>
<path d="M2223 7025 c-3 -9 -3 -18 0 -21 7 -8 47 15 47 26 0 16 -40 11 -47 -5z"/>
<path d="M10485 7021 c-3 -5 -31 -12 -63 -16 -77 -8 -102 -14 -102 -23 0 -12
117 -2 178 15 28 8 52 19 52 24 0 12 -57 12 -65 0z"/>
<path d="M3020 7000 c0 -5 7 -10 15 -10 8 0 15 5 15 10 0 6 -7 10 -15 10 -8 0
-15 -4 -15 -10z"/>
<path d="M10075 6989 c-4 -6 -4 -13 -1 -16 8 -8 36 5 36 17 0 13 -27 13 -35
-1z"/>
<path d="M2545 6960 c-7 -23 2 -43 16 -35 12 8 12 42 0 50 -5 3 -12 -4 -16
-15z"/>
<path d="M11080 6974 c0 -17 28 -49 36 -41 4 4 -2 17 -14 30 -12 12 -22 17
-22 11z"/>
<path d="M9628 6957 c-43 -17 -33 -27 26 -27 50 0 86 17 69 33 -9 10 -64 6
-95 -6z"/>
<path d="M11631 6949 c7 -14 14 -18 21 -11 13 13 2 32 -18 32 -12 0 -13 -4 -3
-21z"/>
<path d="M3557 6945 c-8 -18 11 -31 25 -17 11 11 3 32 -12 32 -4 0 -10 -7 -13
-15z"/>
<path d="M11180 6940 c0 -11 5 -20 10 -20 6 0 10 9 10 20 0 11 -4 20 -10 20
-5 0 -10 -9 -10 -20z"/>
<path d="M9192 6900 c-10 -16 -10 -20 2 -20 17 0 38 24 29 33 -10 11 -17 8
-31 -13z"/>
<path d="M9410 6910 c0 -5 21 -10 48 -10 34 0 43 3 32 10 -20 13 -80 13 -80 0z"/>
<path d="M11030 6893 c0 -16 7 -37 15 -47 8 -11 15 -27 15 -36 0 -9 14 -32 30
-50 17 -18 30 -39 30 -46 0 -7 6 -17 13 -21 8 -4 17 -25 20 -47 7 -43 35 -82
50 -67 13 13 0 64 -22 87 -20 22 -34 91 -21 99 5 3 -18 32 -50 65 -33 32 -60
66 -60 74 0 9 -4 16 -10 16 -5 0 -10 -12 -10 -27z"/>
<path d="M11130 6917 c0 -3 14 -20 32 -38 l32 -34 -20 34 c-16 29 -44 53 -44
38z"/>
<path d="M11664 6885 c10 -54 26 -69 26 -23 0 21 -7 41 -17 49 -15 13 -15 10
-9 -26z"/>
<path d="M4042 6898 c6 -18 28 -21 28 -4 0 9 -7 16 -16 16 -9 0 -14 -5 -12
-12z"/>
<path d="M8880 6880 c-11 -7 -7 -10 18 -10 20 0 31 4 27 10 -8 13 -26 13 -45
0z"/>
<path d="M9980 6881 c-30 -3 -60 -9 -66 -13 -6 -4 -91 -10 -188 -13 -133 -4
-184 -9 -207 -21 -26 -13 -38 -14 -79 -3 -37 9 -61 10 -106 1 -31 -7 -84 -12
-116 -12 -33 0 -72 -7 -88 -15 -24 -13 -33 -13 -50 -3 -27 17 -50 -3 -31 -26
10 -12 18 -13 33 -5 11 6 29 9 39 6 11 -3 79 1 151 8 79 8 141 9 155 4 24 -9
75 -3 107 14 14 7 21 5 28 -7 8 -15 12 -14 39 5 25 17 48 22 117 25 161 7 217
12 245 23 16 6 46 11 68 11 28 0 39 4 37 13 -6 15 -18 16 -88 8z"/>
<path d="M4132 6868 c5 -15 28 -18 29 -3 0 6 -7 12 -17 13 -10 3 -15 -1 -12
-10z"/>
<path d="M10757 6874 c-8 -8 1 -24 14 -24 5 0 9 7 9 15 0 15 -12 20 -23 9z"/>
<path d="M13770 6860 c0 -11 6 -20 14 -20 9 0 12 7 9 20 -3 11 -9 20 -14 20
-5 0 -9 -9 -9 -20z"/>
<path d="M3430 6850 c-11 -7 -5 -10 23 -10 23 0 36 4 32 10 -8 13 -35 13 -55
0z"/>
<path d="M3815 6850 c-3 -5 -4 -10 -1 -10 2 0 11 -3 20 -6 11 -4 16 -1 16 10
0 18 -25 22 -35 6z"/>
<path d="M8544 6849 c-6 -10 17 -25 48 -33 16 -3 30 -1 34 5 4 7 22 9 45 6 24
-3 45 0 56 9 10 7 14 14 8 15 -36 4 -188 3 -191 -2z"/>
<path d="M2461 6810 c0 -33 1 -34 11 -12 8 17 8 26 0 34 -9 9 -12 4 -11 -22z"/>
<path d="M8276 6817 c-15 -11 -15 -15 -4 -24 16 -14 54 9 43 26 -8 14 -17 14
-39 -2z"/>
<path d="M8366 6821 c-4 -5 2 -14 11 -20 17 -10 16 -12 -7 -30 -31 -25 -21
-35 25 -27 47 9 47 29 -2 69 -13 11 -23 14 -27 8z"/>
<path d="M13800 6797 c0 -19 3 -37 8 -41 4 -4 12 -25 17 -47 13 -53 29 -54 33
-1 2 31 -1 44 -12 48 -9 3 -18 21 -22 40 -8 44 -24 44 -24 1z"/>
<path d="M8887 6809 c-9 -5 -25 -9 -35 -8 -9 2 -34 0 -54 -4 -29 -6 -38 -13
-38 -28 0 -15 5 -18 23 -14 12 3 58 9 102 13 71 6 80 9 80 27 0 15 -7 21 -30
22 -16 2 -38 -2 -48 -8z"/>
<path d="M6490 6800 c-12 -8 -9 -10 13 -10 15 0 27 5 27 10 0 13 -20 13 -40 0z"/>
<path d="M11700 6783 c0 -18 5 -33 10 -33 13 0 13 30 0 50 -7 11 -10 7 -10
-17z"/>
<path d="M8110 6781 c-19 -11 -79 -15 -190 -12 -100 2 -142 -5 -119 -20 8 -5
87 -8 182 -7 159 3 168 4 165 22 -3 23 -17 29 -38 17z"/>
<path d="M8189 6774 c-15 -18 0 -38 27 -32 25 5 28 25 6 37 -15 8 -23 7 -33
-5z"/>
<path d="M8536 6761 c-9 -14 -11 -13 47 -16 26 -1 50 1 53 6 3 5 -7 9 -23 9
-15 0 -38 3 -49 6 -12 3 -25 1 -28 -5z"/>
<path d="M2650 6745 c-7 -9 -10 -18 -7 -21 6 -7 47 18 47 28 0 14 -27 9 -40
-7z"/>
<path d="M8445 6750 c3 -5 13 -10 21 -10 8 0 14 5 14 10 0 6 -9 10 -21 10 -11
0 -17 -4 -14 -10z"/>
<path d="M2844 6715 c-15 -14 -24 -25 -20 -25 13 0 66 34 66 42 0 15 -19 8
-46 -17z"/>
<path d="M7060 6721 c-9 -18 -20 -21 -68 -21 -31 0 -70 7 -86 15 -15 8 -33 15
-39 15 -19 0 -137 -60 -137 -70 0 -18 78 -11 113 10 33 20 35 20 58 2 37 -29
112 -24 172 11 49 29 57 50 19 55 -13 2 -25 -4 -32 -17z"/>
<path d="M7350 6730 c-25 -4 -72 -13 -104 -20 -52 -10 -60 -10 -68 4 -5 9 -14
14 -19 10 -6 -4 -6 -10 1 -19 8 -9 3 -14 -20 -18 -48 -10 -35 -27 21 -27 59 0
138 18 159 36 8 7 35 14 60 16 25 2 44 8 43 13 -3 13 -18 14 -73 5z"/>
<path d="M4020 6700 c-12 -8 -9 -10 13 -10 15 0 27 5 27 10 0 13 -20 13 -40 0z"/>
<path d="M5995 6700 c-4 -6 10 -10 34 -10 23 0 41 5 41 10 0 6 -15 10 -34 10
-19 0 -38 -4 -41 -10z"/>
<path d="M2942 6688 c-13 -13 -16 -28 -4 -28 4 0 18 9 32 20 23 18 24 20 5 20
-12 0 -26 -5 -33 -12z"/>
<path d="M6626 6693 c-4 -5 -35 -8 -69 -9 -104 0 -267 -16 -267 -25 0 -9 98
-13 210 -8 36 2 93 2 127 1 68 -3 85 8 51 32 -25 18 -41 20 -52 9z"/>
<path d="M4191 6676 c-10 -11 -8 -16 8 -21 29 -9 45 3 30 21 -15 18 -23 18
-38 0z"/>
<path d="M3839 6669 c-10 -6 -7 -9 14 -9 29 0 35 5 14 13 -8 3 -20 1 -28 -4z"/>
<path d="M5838 6663 c12 -2 32 -2 45 0 12 2 2 4 -23 4 -25 0 -35 -2 -22 -4z"/>
<path d="M6190 6660 c0 -16 47 -16 65 1 5 5 -5 9 -28 9 -20 0 -37 -4 -37 -10z"/>
<path d="M2880 6635 c0 -8 4 -15 9 -15 5 0 14 7 21 15 10 13 9 15 -9 15 -12 0
-21 -6 -21 -15z"/>
<path d="M4528 6639 c-2 -7 -20 -14 -38 -16 -19 -2 -39 -4 -45 -4 -5 -1 -14 0
-20 2 -5 2 -11 0 -13 -6 -2 -5 7 -12 20 -15 35 -9 27 -33 -15 -47 -35 -12 -45
-10 -101 12 -77 31 -83 31 -91 3 -4 -13 -18 -38 -32 -56 -20 -27 -22 -33 -9
-38 9 -3 27 4 42 15 37 29 81 28 95 -3 9 -20 7 -33 -17 -77 -16 -30 -32 -56
-37 -57 -19 -9 -37 -35 -37 -55 0 -14 -11 -28 -29 -39 -22 -12 -32 -27 -37
-54 -5 -25 -3 -39 5 -42 16 -5 14 -29 -4 -36 -8 -3 -15 -16 -15 -28 -1 -23 -1
-23 -14 2 l-14 25 -13 -30 c-7 -17 -28 -47 -47 -69 -38 -43 -39 -72 -1 -132
17 -29 24 -32 40 -24 10 6 19 19 19 28 0 10 7 27 15 38 8 10 15 29 15 40 0 22
29 97 56 146 18 33 18 52 -1 68 -8 7 -15 19 -15 26 0 20 27 17 39 -3 10 -17
10 -17 11 0 0 9 6 17 14 17 22 0 47 47 40 74 -4 19 -2 24 12 23 11 -1 26 14
41 43 13 25 36 59 51 76 39 44 82 102 82 109 0 4 14 20 30 35 17 15 30 35 30
44 0 19 -7 21 -12 5z"/>
<path d="M13860 6631 c0 -11 5 -23 10 -26 6 -3 10 3 10 14 0 11 -4 23 -10 26
-5 3 -10 -3 -10 -14z"/>
<path d="M3160 6610 c-8 -5 -12 -12 -8 -15 9 -9 48 4 48 16 0 12 -21 11 -40
-1z"/>
<path d="M5908 6613 c-33 -9 -18 -24 20 -21 20 2 37 8 37 13 0 11 -31 16 -57
8z"/>
<path d="M5674 6595 c-4 -8 -14 -15 -24 -15 -10 0 -23 -7 -30 -15 -7 -8 -23
-15 -35 -15 -12 0 -28 -7 -35 -15 -7 -8 -21 -15 -31 -15 -10 0 -20 -4 -24 -9
-3 -6 -27 -20 -53 -33 -26 -13 -51 -29 -55 -35 -4 -7 -16 -13 -26 -13 -11 0
-21 -7 -25 -15 -3 -8 -12 -15 -21 -15 -8 0 -15 -5 -15 -10 0 -6 -11 -15 -25
-20 -14 -5 -25 -13 -25 -18 0 -5 -15 -17 -34 -27 -39 -21 -62 -57 -51 -76 6
-8 4 -11 -7 -6 -20 7 -38 -11 -38 -39 0 -14 8 -24 23 -28 35 -9 37 -8 37 22 1
30 33 65 93 101 20 12 37 27 37 32 0 5 9 9 20 9 11 0 25 9 32 20 7 11 18 20
25 20 7 0 13 9 13 20 0 11 5 20 11 20 6 0 9 -7 5 -15 -9 -24 22 -18 52 10 15
14 31 25 36 25 5 0 42 16 82 36 60 29 75 42 85 68 7 18 24 40 38 49 l26 16
-28 1 c-16 0 -30 -7 -33 -15z"/>
<path d="M3266 6575 c-3 -9 0 -15 9 -15 8 0 15 7 15 15 0 8 -4 15 -9 15 -5 0
-11 -7 -15 -15z"/>
<path d="M3596 6565 c4 -8 10 -12 15 -9 14 8 10 24 -6 24 -9 0 -12 -6 -9 -15z"/>
<path d="M4030 6550 c0 -5 7 -10 15 -10 8 0 15 5 15 10 0 6 -7 10 -15 10 -8 0
-15 -4 -15 -10z"/>
<path d="M4730 6545 c0 -8 5 -15 10 -15 6 0 10 7 10 15 0 8 -4 15 -10 15 -5 0
-10 -7 -10 -15z"/>
<path d="M11210 6527 c0 -13 9 -36 20 -50 11 -14 20 -36 20 -49 0 -12 7 -32
15 -42 8 -11 15 -28 15 -38 0 -10 5 -18 10 -18 17 0 24 31 11 49 -6 9 -18 32
-27 51 -8 19 -19 44 -24 55 -5 11 -10 29 -12 39 -5 29 -28 32 -28 3z"/>
<path d="M11845 6540 c-9 -15 3 -60 15 -60 13 0 13 57 1 65 -5 3 -13 0 -16 -5z"/>
<path d="M3173 6508 c-18 -11 -33 -24 -33 -29 0 -13 27 -11 35 2 4 5 18 14 31
19 25 10 33 31 12 29 -7 0 -28 -10 -45 -21z"/>
<path d="M2997 6493 c-12 -11 -8 -23 8 -23 8 0 15 7 15 15 0 16 -12 20 -23 8z"/>
<path d="M11878 6453 c-7 -29 1 -48 25 -58 15 -7 24 -23 30 -55 11 -54 21 -67
41 -51 12 11 11 19 -10 67 -25 57 -63 114 -75 114 -4 0 -9 -8 -11 -17z"/>
<path d="M13770 6446 c0 -22 3 -27 11 -19 8 8 8 16 0 30 -9 16 -10 14 -11 -11z"/>
<path d="M2086 6444 c-7 -18 0 -34 15 -34 5 0 9 11 9 25 0 28 -15 34 -24 9z"/>
<path d="M3955 6447 c-4 -10 -5 -21 -1 -24 10 -10 18 4 13 24 -4 17 -4 17 -12
0z"/>
<path d="M3085 6431 c-10 -17 12 -21 25 -6 10 12 10 15 -3 15 -9 0 -18 -4 -22
-9z"/>
<path d="M4123 6424 c-7 -18 11 -39 26 -30 17 11 13 46 -4 46 -9 0 -18 -7 -22
-16z"/>
<path d="M3195 6390 c-8 -13 4 -32 16 -25 12 8 12 35 0 35 -6 0 -13 -4 -16
-10z"/>
<path d="M4826 6384 c-4 -10 -2 -22 3 -27 7 -7 13 -5 17 7 4 10 2 22 -3 27 -7
7 -13 5 -17 -7z"/>
<path d="M13800 6370 c0 -19 3 -21 12 -12 9 9 9 15 0 24 -9 9 -12 7 -12 -12z"/>
<path d="M4080 6360 c0 -11 5 -20 10 -20 6 0 10 9 10 20 0 11 -4 20 -10 20 -5
0 -10 -9 -10 -20z"/>
<path d="M4050 6299 c0 -11 5 -17 10 -14 6 3 10 13 10 21 0 8 -4 14 -10 14 -5
0 -10 -9 -10 -21z"/>
<path d="M5648 6311 c-31 -3 -60 -10 -65 -15 -5 -5 13 -6 41 -2 27 3 70 6 95
6 33 0 42 3 31 10 -8 5 -22 9 -30 8 -8 0 -41 -4 -72 -7z"/>
<path d="M3252 6298 c6 -18 28 -21 28 -4 0 9 -7 16 -16 16 -9 0 -14 -5 -12
-12z"/>
<path d="M5501 6289 c-19 -7 -22 -12 -13 -21 9 -9 17 -7 32 10 22 24 18 26
-19 11z"/>
<path d="M3535 6279 c-4 -6 -4 -13 -1 -16 8 -8 36 5 36 17 0 13 -27 13 -35 -1z"/>
<path d="M3865 6225 c-27 -36 -53 -65 -57 -65 -5 0 -14 -11 -20 -25 -6 -14
-19 -25 -29 -25 -25 0 -31 -14 -15 -36 13 -17 17 -15 66 36 60 64 94 114 104
153 3 15 5 27 3 27 -2 0 -25 -29 -52 -65z"/>
<path d="M11332 6268 c2 -13 8 -23 13 -23 6 0 11 10 13 23 2 15 -2 22 -13 22
-11 0 -15 -7 -13 -22z"/>
<path d="M4885 6249 c-4 -6 -5 -13 -2 -16 7 -7 27 6 27 18 0 12 -17 12 -25 -2z"/>
<path d="M12630 6220 c0 -5 7 -10 15 -10 8 0 15 5 15 10 0 6 -7 10 -15 10 -8
0 -15 -4 -15 -10z"/>
<path d="M11870 6195 c0 -15 4 -24 10 -20 6 3 10 12 10 20 0 8 -4 17 -10 20
-6 4 -10 -5 -10 -20z"/>
<path d="M11365 6200 c-9 -14 3 -80 14 -80 14 0 19 24 14 53 -6 31 -18 42 -28
27z"/>
<path d="M3590 6184 c0 -9 5 -14 12 -12 18 6 21 28 4 28 -9 0 -16 -7 -16 -16z"/>
<path d="M3967 6194 c-4 -4 -7 -18 -7 -30 0 -14 -12 -31 -30 -44 -37 -26 -39
-50 -6 -50 16 0 27 7 31 20 9 28 25 25 25 -5 0 -18 -5 -25 -18 -25 -28 0 -34
-11 -15 -32 22 -25 33 -23 33 7 0 16 6 25 16 25 12 0 15 5 9 23 -8 22 -9 54
-3 92 3 19 -21 32 -35 19z"/>
<path d="M5083 6183 c9 -2 17 -11 17 -19 0 -8 5 -12 10 -9 15 9 -8 35 -29 34
-13 -1 -13 -2 2 -6z"/>
<path d="M11894 6124 c-5 -19 -2 -29 10 -36 12 -7 15 -18 10 -47 -5 -31 -1
-46 22 -81 58 -85 65 -102 58 -148 -6 -38 -4 -44 15 -49 12 -3 21 -13 21 -24
0 -11 9 -28 20 -39 11 -11 20 -28 20 -37 0 -10 7 -31 15 -47 8 -15 15 -36 15
-45 0 -9 7 -25 15 -35 8 -11 15 -27 15 -37 0 -9 6 -19 14 -22 7 -3 16 -17 20
-32 4 -15 18 -49 31 -77 13 -27 31 -74 39 -103 9 -29 23 -58 31 -65 8 -7 15
-24 15 -38 0 -14 6 -33 14 -41 16 -20 36 -77 36 -106 0 -12 11 -31 25 -43 14
-12 25 -30 25 -40 0 -10 13 -44 30 -76 16 -32 34 -74 41 -94 6 -21 31 -73 54
-118 65 -124 74 -220 14 -154 -16 17 -29 35 -29 41 0 5 -4 9 -10 9 -5 0 -10
-9 -10 -20 0 -11 5 -20 10 -20 6 0 22 -26 36 -57 23 -52 27 -56 38 -40 18 23
22 22 35 -13 5 -16 14 -30 20 -30 5 0 8 -8 6 -17 -15 -76 -14 -92 8 -95 18 -2
22 -10 25 -48 3 -60 10 -90 21 -90 5 0 7 9 4 20 -7 25 11 26 36 1 31 -31 32
-76 3 -69 -16 4 -18 -2 -19 -51 -1 -34 4 -62 11 -71 12 -13 29 -58 42 -107 5
-20 24 -15 24 5 0 10 5 23 11 29 8 8 8 13 0 17 -6 4 -11 21 -11 37 0 18 4 28
10 24 6 -3 10 -19 10 -36 0 -16 4 -29 9 -29 15 0 47 -52 54 -87 4 -22 2 -37
-9 -48 -22 -22 -33 -19 -40 13 -10 39 -15 46 -25 31 -13 -21 -11 -37 10 -56
10 -10 21 -30 25 -45 3 -16 12 -28 20 -28 7 0 19 -19 26 -42 7 -24 19 -47 25
-53 7 -5 17 -27 24 -47 7 -20 19 -42 27 -48 7 -7 14 -19 14 -26 0 -8 14 -33
30 -56 17 -22 30 -45 30 -50 0 -6 9 -22 21 -36 16 -20 19 -34 14 -64 -7 -38
-6 -39 20 -32 21 5 27 3 32 -15 3 -11 12 -21 19 -21 19 0 18 -19 -2 -27 -12
-4 -14 -15 -10 -44 3 -22 9 -57 12 -79 6 -45 20 -51 34 -17 11 26 35 57 44 57
4 0 22 -14 41 -32 34 -31 45 -61 25 -73 -5 -3 -10 -14 -10 -25 0 -10 -7 -20
-15 -24 -8 -3 -15 -15 -15 -26 0 -11 7 -20 15 -20 8 0 15 -7 15 -15 0 -19 13
-19 50 0 28 14 30 14 42 -7 8 -13 19 -32 26 -43 54 -87 86 -215 59 -232 -7 -4
-34 -10 -60 -13 -47 -6 -48 -6 -42 17 6 27 7 27 -34 7 -25 -12 -29 -19 -22
-32 7 -13 2 -23 -22 -43 -28 -23 -31 -31 -28 -70 1 -24 7 -50 13 -56 7 -9 7
-13 0 -13 -6 0 -12 5 -14 12 -6 16 -28 1 -28 -19 0 -19 73 -102 105 -119 13
-7 32 -10 42 -8 11 3 27 -3 37 -15 11 -12 23 -21 27 -21 12 0 81 -48 102 -71
16 -17 47 -26 47 -14 0 4 -7 20 -16 37 -15 28 -15 32 0 40 9 5 16 17 16 27 0
9 7 26 15 37 14 19 15 19 21 -3 3 -13 11 -23 16 -23 5 0 6 9 3 21 -4 13 0 27
11 40 14 15 15 24 7 42 -14 29 -6 78 15 94 24 20 59 15 79 -10 35 -44 85 -71
146 -78 46 -6 65 -13 84 -33 15 -17 34 -26 53 -26 17 0 38 -9 48 -21 16 -16
27 -19 55 -14 29 6 37 3 46 -14 7 -13 22 -21 36 -21 14 0 25 -4 25 -10 0 -12
37 -13 44 -1 8 12 -50 61 -71 61 -9 0 -24 7 -33 15 -10 9 -35 18 -56 21 -56 8
-136 43 -156 67 -13 18 -19 19 -32 8 -26 -22 -76 -4 -88 31 -10 29 -13 30 -54
24 l-44 -6 0 43 c0 23 -7 51 -15 61 -8 11 -15 30 -15 43 0 29 -24 40 -55 23
-28 -15 -41 -8 -59 33 -8 18 -51 73 -95 124 -47 53 -96 121 -115 160 -19 37
-46 81 -60 96 -14 15 -26 30 -26 33 0 5 -74 133 -100 174 -6 8 -15 26 -20 40
-18 44 -32 75 -41 90 -5 8 -21 38 -35 65 -14 28 -36 68 -49 90 -14 22 -25 50
-25 61 0 12 -7 27 -15 34 -8 7 -15 19 -15 26 0 12 -22 61 -51 116 -5 10 -9 23
-9 29 0 7 -13 33 -28 58 -16 25 -31 60 -35 78 -3 17 -20 54 -37 81 -17 28 -33
70 -36 98 -4 27 -15 58 -25 69 -10 11 -22 38 -27 61 -5 22 -21 58 -36 80 -17
25 -26 52 -26 76 0 31 -4 38 -19 38 -13 0 -20 9 -24 28 -19 113 -45 198 -83
278 -24 51 -44 97 -44 103 0 6 -9 27 -19 48 -34 67 -71 150 -71 158 0 5 -14
38 -31 74 -17 36 -39 84 -50 107 -10 23 -19 44 -19 48 0 3 -16 41 -36 83 -20
43 -45 101 -56 128 -22 56 -43 105 -63 150 -29 62 -53 122 -74 179 -12 32 -32
82 -46 110 -13 28 -26 58 -29 66 -4 8 -15 29 -25 45 -11 17 -20 37 -20 45 -1
21 -44 110 -53 110 -4 0 -11 -12 -14 -26z m837 -2167 c-13 -13 -26 -3 -16 12
3 6 11 8 17 5 6 -4 6 -10 -1 -17z m158 -263 c3 -16 1 -17 -13 -5 -19 16 -21
34 -3 29 6 -3 14 -13 16 -24z m171 -329 c0 -8 -4 -15 -10 -15 -5 0 -10 7 -10
15 0 8 5 15 10 15 6 0 10 -7 10 -15z m458 -791 c18 -15 32 -31 32 -35 0 -19
49 -59 74 -59 14 0 26 -4 26 -10 0 -5 -8 -10 -19 -10 -10 0 -34 -7 -53 -15
-34 -14 -36 -13 -59 13 -59 65 -63 72 -51 84 8 8 8 15 1 24 -11 13 -5 34 10
34 4 0 22 -12 39 -26z m-148 -64 c18 -11 60 -45 102 -82 18 -16 38 -28 46 -28
11 0 13 -8 7 -37 -4 -21 -10 -40 -14 -43 -5 -3 -8 -20 -9 -39 -1 -44 -13 -55
-51 -46 -20 4 -50 28 -86 67 -54 60 -55 63 -55 120 0 85 20 114 60 88z"/>
<path d="M4320 6073 c0 -28 3 -34 10 -23 13 20 13 60 0 60 -5 0 -10 -17 -10
-37z"/>
<path d="M11410 6048 c0 -7 7 -21 14 -31 17 -22 30 -7 21 23 -7 22 -35 28 -35
8z"/>
<path d="M5153 6038 c-6 -7 -14 -23 -18 -36 -4 -13 -27 -48 -51 -78 -37 -45
-56 -84 -40 -84 2 0 29 25 61 55 52 50 57 59 51 87 -3 18 -1 37 5 45 7 7 10
16 7 18 -3 3 -10 0 -15 -7z"/>
<path d="M5007 6024 c-10 -11 -8 -44 2 -44 6 0 13 4 16 10 8 12 -9 43 -18 34z"/>
<path d="M5210 6001 c0 -11 4 -22 9 -25 11 -7 23 22 15 35 -9 16 -24 10 -24
-10z"/>
<path d="M4207 5953 c-4 -3 -7 -17 -7 -30 0 -13 -13 -49 -30 -80 -16 -31 -30
-62 -30 -70 0 -8 -7 -27 -16 -42 -15 -26 -15 -30 9 -77 13 -27 28 -64 32 -81
3 -19 13 -33 21 -33 8 0 14 -6 14 -14 0 -8 9 -17 19 -21 11 -3 27 -17 36 -31
9 -13 20 -22 25 -19 15 10 12 42 -5 49 -8 3 -20 17 -25 31 -5 14 -16 25 -24
25 -15 0 -26 30 -26 77 0 26 3 30 20 26 24 -6 26 9 6 40 -26 42 -29 95 -7 126
18 25 20 36 12 75 -9 50 -14 60 -24 49z"/>
<path d="M4266 5951 c-9 -14 4 -41 20 -41 8 0 14 10 14 25 0 25 -23 35 -34 16z"/>
<path d="M8415 5940 c-3 -5 1 -10 9 -10 9 0 16 -4 16 -10 0 -5 -27 -12 -60
-16 -39 -4 -65 -13 -76 -25 -20 -23 -34 -24 -34 -5 0 26 -21 29 -44 7 -24 -22
-56 -28 -56 -10 0 6 -13 0 -29 -14 -37 -31 -89 -41 -139 -28 -24 7 -50 7 -69
2 -17 -5 -67 -12 -110 -16 -43 -4 -109 -16 -148 -26 -82 -23 -161 -32 -182
-20 -15 8 -67 -13 -99 -40 -11 -9 -18 -9 -26 -1 -8 8 -14 7 -24 -5 -10 -15
-14 -15 -28 -4 -9 7 -16 22 -16 32 0 25 -28 24 -56 -2 -13 -12 -30 -19 -38
-16 -19 8 -21 24 -3 30 6 2 0 2 -15 0 -21 -3 -28 0 -28 11 0 20 -14 20 -34 1
-8 -8 -26 -15 -39 -15 -20 0 -27 -6 -32 -30 -6 -27 -10 -30 -40 -28 -21 1 -41
-5 -53 -15 -10 -9 -27 -17 -38 -17 -10 0 -39 -14 -63 -30 -63 -43 -106 -39
-106 9 0 13 -6 26 -12 29 -8 2 -13 -6 -13 -22 0 -15 -6 -26 -14 -26 -7 0 -19
-7 -26 -15 -7 -8 -27 -17 -46 -21 -19 -3 -37 -11 -41 -17 -3 -5 15 -30 42 -54
37 -35 52 -43 71 -39 18 5 24 13 24 35 0 38 17 50 81 58 37 4 61 13 78 30 13
12 29 23 36 23 7 0 23 8 36 18 39 31 87 35 124 12 l32 -20 37 25 c48 32 130
36 146 6 14 -28 13 -38 -7 -45 -10 -3 -31 -15 -48 -26 -16 -11 -41 -24 -54
-30 -16 -7 -21 -14 -14 -21 15 -15 103 29 150 76 69 69 139 91 208 65 20 -8
35 -6 65 10 22 11 46 20 53 20 8 0 20 7 27 15 15 19 96 21 103 3 3 -10 9 -10
30 1 14 7 36 11 49 8 15 -4 36 1 56 13 44 27 89 26 97 0 4 -12 1 -27 -5 -35
-6 -8 -9 -19 -6 -24 11 -17 34 -1 44 29 8 20 19 30 44 35 18 4 49 18 68 31 40
28 67 30 98 8 21 -15 25 -13 76 30 52 45 97 59 111 36 3 -5 24 -10 45 -10 21
0 42 5 45 10 3 6 19 10 35 10 37 0 45 13 21 34 -20 19 -40 21 -85 10 -21 -5
-31 -3 -38 10 -10 18 -53 22 -63 6z"/>
<path d="M11458 5944 c-8 -7 3 -54 13 -54 12 0 12 47 0 54 -4 3 -10 3 -13 0z"/>
<path d="M3894 5899 c-3 -6 -2 -15 4 -21 6 -6 11 -2 15 11 5 22 -7 29 -19 10z"/>
<path d="M4312 5886 c1 -10 8 -17 13 -17 15 1 12 24 -3 29 -9 3 -13 -2 -10
-12z"/>
<path d="M4920 5885 c0 -8 5 -15 10 -15 6 0 10 7 10 15 0 8 -4 15 -10 15 -5 0
-10 -7 -10 -15z"/>
<path d="M8628 5838 c-10 -23 -16 -43 -14 -45 7 -7 86 37 86 47 0 9 -39 40
-50 40 -3 0 -13 -19 -22 -42z"/>
<path d="M3992 5848 c2 -12 11 -24 21 -26 24 -5 22 25 -4 38 -18 10 -20 9 -17
-12z"/>
<path d="M4260 5834 c0 -6 7 -28 15 -47 8 -20 15 -48 15 -62 0 -14 7 -28 16
-32 24 -9 35 17 18 41 -8 11 -14 27 -14 36 0 17 -49 81 -50 64z"/>
<path d="M4890 5813 c0 -13 5 -23 10 -23 13 0 13 11 0 30 -8 12 -10 11 -10 -7z"/>
<path d="M8754 5806 c-4 -9 -4 -20 0 -23 3 -4 12 -1 18 5 9 9 9 15 0 24 -9 9
-13 7 -18 -6z"/>
<path d="M4050 5789 c0 -18 2 -19 15 -9 15 12 12 30 -6 30 -5 0 -9 -10 -9 -21z"/>
<path d="M11512 5773 c15 -58 30 -66 26 -13 -2 33 -8 46 -20 48 -15 3 -15 -1
-6 -35z"/>
<path d="M8385 5777 c-13 -10 -15 -16 -6 -21 17 -11 41 0 41 19 0 19 -11 19
-35 2z"/>
<path d="M6354 5766 c-4 -11 -18 -16 -43 -16 -20 0 -43 -6 -49 -12 -10 -10
-17 -10 -32 0 -21 13 -33 2 -24 -22 8 -21 106 -22 127 -2 9 9 33 14 68 13 30
-1 68 2 84 6 42 11 72 -11 56 -41 -13 -24 -5 -52 15 -52 8 0 33 14 56 30 23
17 54 30 70 30 34 0 35 10 3 40 -20 19 -27 21 -40 10 -13 -10 -18 -10 -33 3
-9 9 -33 16 -52 16 -19 0 -45 0 -57 0 -13 0 -35 0 -50 -1 -16 -1 -43 2 -60 7
-26 6 -34 4 -39 -9z"/>
<path d="M8690 5755 c-7 -8 -19 -15 -26 -15 -7 0 -28 -9 -45 -19 -25 -15 -37
-17 -59 -9 -22 7 -36 5 -60 -7 -23 -12 -35 -14 -43 -6 -13 13 -67 15 -67 3 0
-5 -18 -18 -40 -31 -31 -17 -44 -20 -60 -11 -11 6 -20 19 -20 30 0 32 -15 30
-43 -5 -30 -38 -75 -52 -105 -34 -16 10 -23 10 -37 -4 -9 -9 -29 -17 -43 -17
-15 0 -38 -7 -50 -16 -13 -9 -33 -14 -45 -10 -12 3 -39 0 -61 -6 -35 -11 -40
-10 -56 10 -10 12 -22 22 -27 22 -4 0 -32 -21 -62 -47 -47 -41 -56 -45 -79
-37 -15 5 -33 22 -40 37 -7 15 -19 27 -27 27 -12 0 -66 -41 -125 -94 -23 -21
-124 -27 -149 -10 -24 17 -63 9 -136 -29 -22 -12 -58 -24 -80 -27 -33 -4 -39
-9 -37 -25 5 -34 38 -70 65 -73 21 -3 28 2 33 22 8 32 31 39 103 33 31 -3 43
-3 27 1 -17 4 -30 12 -30 17 -1 13 129 19 151 6 20 -11 73 12 73 32 0 15 56
66 85 77 14 5 28 2 44 -11 36 -30 141 -25 141 6 0 20 19 28 35 15 16 -14 177
-4 208 12 13 6 23 5 35 -4 14 -11 15 -11 9 6 -6 16 -3 18 25 13 22 -3 39 1 51
11 15 13 22 14 37 4 26 -16 49 -15 56 2 3 8 29 16 65 20 66 8 86 2 68 -20 -8
-10 -3 -9 21 3 27 13 30 17 16 25 -9 5 -16 13 -16 18 0 12 43 13 56 1 24 -22
268 55 296 94 22 30 -8 49 -32 20z"/>
<path d="M4385 5710 c-11 -17 5 -32 21 -19 7 6 11 15 8 20 -7 12 -21 11 -29
-1z"/>
<path d="M4941 5649 c-10 -32 -10 -44 0 -55 17 -21 29 0 29 54 0 53 -13 54
-29 1z"/>
<path d="M6065 5680 c-10 -17 4 -60 19 -60 21 0 48 30 44 49 -4 19 -53 28 -63
11z"/>
<path d="M7440 5617 c-19 -12 -43 -30 -53 -40 -44 -44 26 -31 75 13 42 39 27
58 -22 27z"/>
<path d="M4452 5618 c-17 -17 -15 -48 4 -55 8 -3 22 1 31 9 12 12 13 20 4 37
-13 24 -22 26 -39 9z"/>
<path d="M6253 5593 c-22 -8 -14 -23 12 -23 14 0 25 4 25 9 0 11 -21 19 -37
14z"/>
<path d="M6954 5585 c-4 -8 -14 -15 -25 -15 -10 0 -22 -6 -26 -13 -4 -7 -21
-21 -36 -30 -35 -22 -110 -97 -104 -103 2 -3 16 0 31 5 14 6 33 8 42 4 13 -5
15 -2 10 14 -5 14 4 29 33 56 22 20 46 37 54 37 17 0 59 44 50 53 -11 11 -23
8 -29 -8z"/>
<path d="M11606 5583 c-12 -12 -6 -43 9 -43 8 0 15 9 15 19 0 21 -13 34 -24
24z"/>
<path d="M6083 5559 c-33 -12 -59 -129 -28 -129 10 0 15 10 15 29 0 17 10 42
24 58 23 27 25 27 44 10 20 -18 21 -18 33 4 l12 23 18 -23 c25 -31 24 -37 -11
-50 -41 -14 -38 -31 5 -31 27 0 39 7 57 30 12 17 31 30 43 30 21 0 45 17 45
32 0 12 -68 10 -75 -2 -10 -17 -35 -11 -35 8 0 14 -10 17 -64 18 -35 0 -72 -3
-83 -7z"/>
<path d="M4337 5554 c-8 -8 3 -34 14 -34 5 0 9 9 9 20 0 19 -11 26 -23 14z"/>
<path d="M4663 5540 c-19 -29 -16 -64 6 -84 18 -17 19 -16 23 26 3 24 6 49 9
57 6 23 -25 24 -38 1z"/>
<path d="M4917 5534 c-3 -4 -3 -20 0 -37 4 -21 1 -33 -10 -42 -12 -9 -17 -38
-22 -125 -3 -63 -8 -117 -9 -120 -2 -3 0 -15 5 -28 15 -38 29 -15 29 47 0 92
12 181 24 181 7 0 10 22 8 65 -3 60 -9 74 -25 59z"/>
<path d="M4406 5485 c-7 -19 3 -47 15 -39 5 3 9 14 9 24 0 24 -16 34 -24 15z"/>
<path d="M6500 5480 c0 -11 5 -20 10 -20 6 0 10 9 10 20 0 11 -4 20 -10 20 -5
0 -10 -9 -10 -20z"/>
<path d="M6986 5454 c-23 -21 -26 -28 -15 -35 24 -15 79 10 79 36 0 7 -7 16
-16 19 -19 7 -14 10 -48 -20z"/>
<path d="M11610 5465 c0 -8 5 -15 10 -15 6 0 10 7 10 15 0 8 -4 15 -10 15 -5
0 -10 -7 -10 -15z"/>
<path d="M6364 5427 c-83 -45 -115 -70 -112 -86 3 -12 12 -15 36 -13 22 2 34
-2 38 -12 8 -20 44 -21 44 -2 0 8 -6 16 -12 19 -7 2 -9 8 -5 13 5 5 22 1 39
-9 35 -20 40 -18 62 27 13 28 14 39 5 60 -15 32 -40 33 -95 3z"/>
<path d="M4312 5408 c2 -27 8 -34 28 -36 14 -2 29 -8 35 -13 14 -13 25 -11 25
6 0 8 -9 19 -19 25 -11 5 -23 19 -26 30 -4 11 -15 20 -26 20 -17 0 -20 -6 -17
-32z"/>
<path d="M6530 5426 c0 -36 21 -65 62 -85 25 -11 51 -21 59 -21 8 0 20 -5 27
-12 14 -14 90 8 110 32 11 13 12 12 7 -7 -8 -29 9 -37 40 -17 26 17 55 13 55
-7 0 -6 -9 -13 -21 -16 -14 -4 -17 -8 -9 -13 7 -4 34 0 61 8 47 15 50 15 78
-6 18 -13 32 -18 36 -12 4 6 23 17 42 25 45 19 37 28 -35 36 -98 12 -174 28
-189 41 -10 8 -54 13 -127 14 -140 1 -131 -1 -144 29 -12 27 -52 35 -52 11z"/>
<path d="M12110 5398 c0 -7 5 -20 10 -28 8 -12 10 -11 10 7 0 12 -4 25 -10 28
-5 3 -10 0 -10 -7z"/>
<path d="M4636 5384 c-4 -9 -4 -32 0 -50 5 -26 2 -35 -10 -40 -13 -5 -16 -21
-16 -78 0 -77 9 -102 34 -93 13 5 16 23 16 89 0 46 3 107 6 136 6 43 4 52 -9
52 -8 0 -18 -7 -21 -16z"/>
<path d="M7190 5375 c0 -8 5 -15 10 -15 6 0 10 7 10 15 0 8 -4 15 -10 15 -5 0
-10 -7 -10 -15z"/>
<path d="M4444 5328 c-9 -15 27 -41 39 -29 13 13 1 41 -17 41 -8 0 -18 -5 -22
-12z"/>
<path d="M4585 5330 c-4 -6 -2 -17 4 -23 15 -15 25 -2 13 19 -7 12 -11 13 -17
4z"/>
<path d="M6151 5321 c-7 -5 -10 -14 -7 -20 9 -14 42 -14 69 1 21 11 21 11 2
19 -27 10 -47 10 -64 0z"/>
<path d="M14182 5321 c4 -13 18 -16 19 -4 0 4 -5 9 -11 12 -7 2 -11 -2 -8 -8z"/>
<path d="M6693 5210 c-19 -8 -23 -17 -23 -51 0 -41 0 -42 -20 -24 -18 16 -20
16 -26 1 -8 -21 2 -61 24 -94 l16 -25 6 24 c8 32 44 33 48 1 3 -17 -2 -25 -17
-29 -32 -8 -27 -50 8 -71 21 -11 44 -46 81 -122 29 -58 59 -117 66 -132 20
-38 17 -91 -6 -121 -11 -14 -55 -45 -97 -68 -63 -35 -89 -43 -136 -45 -32 -2
-65 -8 -73 -15 -8 -7 -37 -16 -65 -20 -30 -5 -62 -18 -80 -33 -18 -16 -43 -26
-61 -26 -28 0 -30 2 -23 28 3 15 19 43 33 62 53 68 58 150 14 203 -16 18 -30
76 -39 159 l-5 46 61 41 c33 23 64 41 69 41 15 0 42 35 42 54 0 13 -5 16 -22
11 -13 -4 -27 -8 -33 -9 -14 -2 -19 44 -6 57 6 6 11 15 11 19 0 14 -47 9 -60
-7 -7 -8 -19 -15 -27 -15 -7 0 -16 -7 -19 -15 -4 -8 -17 -15 -30 -15 l-24 0
21 -40 c21 -39 20 -70 -1 -70 -5 0 -10 9 -10 20 0 30 -29 24 -37 -7 -4 -16 -6
-34 -5 -40 2 -7 -7 -26 -20 -43 -20 -27 -21 -34 -9 -65 7 -19 9 -41 4 -47 -4
-7 -8 -43 -8 -79 0 -52 2 -63 11 -52 9 14 13 13 32 -8 26 -27 27 -35 7 -43 -8
-3 -15 -11 -15 -17 0 -7 -8 -21 -17 -31 -16 -18 -16 -19 3 -24 26 -7 47 -79
31 -105 -14 -23 -1 -37 21 -23 13 9 23 6 44 -9 22 -16 31 -18 40 -9 18 18 113
15 128 -3 19 -23 44 -18 68 15 27 36 67 41 75 9 8 -30 42 -21 41 11 -2 33 41
68 65 53 9 -6 16 -21 16 -34 0 -19 -6 -25 -28 -27 -32 -4 -31 -25 1 -30 15 -2
22 2 22 12 0 9 8 16 20 16 13 0 20 7 20 20 0 11 7 20 15 20 9 0 15 9 16 23 0
12 4 31 9 42 7 19 8 19 18 -6 14 -35 34 -41 72 -20 51 27 87 114 97 233 3 32
11 62 19 69 8 6 14 27 14 46 0 21 6 36 15 39 11 5 15 23 15 71 0 42 6 75 16
93 16 25 15 30 -1 68 -10 23 -22 39 -27 36 -11 -7 -10 -48 2 -60 7 -7 6 -20
-5 -40 -8 -16 -15 -34 -15 -40 0 -6 -7 -17 -15 -24 -8 -7 -15 -23 -15 -36 0
-14 -4 -32 -9 -42 -5 -9 -14 -29 -20 -44 -6 -16 -17 -28 -25 -28 -8 0 -19 -7
-24 -17 -6 -10 -16 -14 -27 -10 -13 5 -15 14 -10 37 6 25 3 31 -17 39 -20 7
-26 21 -37 75 -13 63 -14 66 -31 51 -16 -14 -18 -14 -23 0 -4 8 -4 22 -1 30 4
8 -1 27 -10 41 -10 14 -14 33 -11 44 6 17 2 20 -29 20 -30 0 -36 4 -36 20 0
11 7 23 15 26 16 6 19 33 9 72 -7 24 -16 26 -51 12z m-413 -562 c0 -19 -2 -20
-10 -8 -13 19 -13 30 0 30 6 0 10 -10 10 -22z m700 -17 c0 -27 -31 -111 -41
-111 -14 0 -11 -28 4 -33 9 -3 9 -7 0 -17 -9 -10 -18 -8 -42 6 -17 10 -31 21
-31 25 0 4 14 21 30 37 19 19 30 41 30 58 0 29 27 67 41 58 5 -3 9 -13 9 -23z"/>
<path d="M6431 5176 c-9 -10 -8 -16 3 -26 19 -15 36 -5 36 21 0 22 -22 25 -39
5z"/>
<path d="M4736 5134 c-4 -14 -4 -35 0 -47 7 -22 7 -22 15 -2 11 28 11 75 0 75
-5 0 -12 -12 -15 -26z"/>
<path d="M7172 5023 c-1 -106 -5 -129 -37 -226 -19 -60 -35 -120 -35 -136 0
-15 -5 -32 -11 -38 -6 -6 -11 -36 -10 -67 0 -46 -5 -64 -30 -101 -38 -56 -103
-112 -139 -120 -16 -3 -31 -13 -34 -21 -3 -8 -14 -14 -25 -14 -11 0 -28 -11
-39 -25 -11 -14 -27 -25 -35 -25 -23 0 -47 -11 -47 -21 0 -5 16 -9 35 -9 24 0
35 5 35 15 0 11 12 15 49 15 48 0 72 12 51 25 -15 9 -12 25 5 25 10 0 15 -7
13 -17 -2 -14 5 -19 31 -21 27 -3 41 3 70 31 20 19 49 38 65 41 17 4 35 15 42
24 11 16 14 15 32 -2 14 -11 28 -15 41 -11 l21 6 -22 18 -22 18 22 12 c27 14
20 31 -13 31 -13 0 -25 6 -28 13 -2 6 -8 8 -13 4 -5 -4 -2 -12 6 -17 11 -7 9
-12 -11 -29 -13 -11 -30 -20 -36 -21 -7 0 -13 -9 -13 -20 0 -19 -1 -19 -25 2
-32 28 -31 42 4 75 15 16 31 38 35 51 4 12 12 22 17 22 5 0 9 6 9 14 0 7 7 19
15 26 14 12 14 15 -1 31 -14 16 -15 21 -3 35 7 9 16 47 20 85 4 43 12 76 23
88 13 14 17 42 18 132 1 63 6 121 11 129 6 11 2 27 -13 53 -12 20 -23 37 -24
37 -1 0 -3 -53 -4 -117z m-132 -673 c0 -5 -11 -10 -25 -10 -14 0 -25 5 -25 10
0 6 11 10 25 10 14 0 25 -4 25 -10z m-56 -61 c-8 -14 -34 -11 -34 4 0 8 3 17
7 20 9 9 34 -13 27 -24z"/>
<path d="M14096 5022 c-3 -6 -1 -14 5 -17 15 -10 25 3 12 16 -7 7 -13 7 -17 1z"/>
<path d="M6877 5014 c-4 -4 -7 -16 -7 -26 0 -14 6 -19 23 -16 14 2 22 10 22
23 0 20 -25 32 -38 19z"/>
<path d="M9423 4953 c9 -2 25 -2 35 0 9 3 1 5 -18 5 -19 0 -27 -2 -17 -5z"/>
<path d="M4250 4930 c0 -11 5 -20 10 -20 6 0 10 9 10 20 0 11 -4 20 -10 20 -5
0 -10 -9 -10 -20z"/>
<path d="M9120 4900 c-11 -7 -2 -10 33 -10 26 0 47 5 47 10 0 13 -60 13 -80 0z"/>
<path d="M9017 4870 c-11 -14 -29 -20 -56 -20 -22 0 -43 -4 -46 -10 -4 -6 15
-10 49 -10 43 0 61 5 76 20 11 11 20 25 20 30 0 17 -25 11 -43 -10z"/>
<path d="M12320 4846 c0 -17 14 -29 23 -20 8 8 -3 34 -14 34 -5 0 -9 -6 -9
-14z"/>
<path d="M8800 4823 c-30 -3 -59 -8 -65 -13 -15 -12 -67 -16 -83 -6 -7 4 -12
4 -12 -1 0 -19 -79 -45 -114 -39 -30 6 -36 4 -36 -10 0 -14 -8 -16 -54 -10
-41 4 -55 3 -59 -8 -3 -7 -25 -16 -48 -19 -24 -3 -49 -13 -55 -22 -15 -20 -79
-32 -88 -16 -9 14 -26 14 -26 1 0 -5 7 -10 15 -10 8 0 15 -6 15 -14 0 -10 -32
-16 -137 -22 -116 -8 -138 -11 -136 -25 2 -11 -17 -21 -72 -37 -41 -12 -83
-22 -92 -22 -10 0 -29 -9 -43 -20 -14 -11 -37 -20 -51 -20 -15 0 -32 -7 -39
-15 -7 -8 -20 -15 -29 -16 -11 0 -12 -2 -3 -6 18 -7 154 27 173 43 9 8 38 14
66 14 32 0 55 5 62 14 7 8 26 18 42 21 16 4 31 11 34 16 4 5 19 9 34 9 15 0
32 5 37 10 6 6 39 14 75 20 93 13 172 30 184 40 13 10 77 28 155 41 30 5 69
16 87 24 17 8 42 15 57 15 14 0 29 8 34 17 8 13 22 16 65 14 44 -2 57 1 65 15
8 14 19 16 63 12 62 -6 79 -2 79 18 0 8 -9 13 -22 12 -13 -1 -48 -3 -78 -5z"/>
<path d="M5302 4808 c-16 -16 -15 -28 3 -47 87 -96 90 -105 48 -123 -26 -12
-24 -13 37 -18 63 -5 65 -6 68 -34 2 -16 17 -43 33 -60 16 -17 29 -38 29 -47
0 -19 -67 -109 -80 -109 -12 0 -13 -27 -2 -34 5 -3 29 5 54 18 34 17 45 20 41
9 -4 -11 0 -14 13 -11 13 2 18 10 16 24 -1 12 2 33 8 49 10 25 13 27 50 21 54
-8 54 14 0 63 -22 20 -40 45 -40 56 0 11 -7 29 -15 39 -8 11 -13 28 -9 38 4
14 0 18 -18 18 -13 0 -33 6 -43 14 -17 12 -18 16 -5 32 14 16 13 17 -8 12 -30
-8 -92 18 -92 37 0 9 -10 15 -25 15 -18 0 -28 7 -35 25 -11 29 -12 29 -28 13z"/>
<path d="M4920 4802 c0 -18 33 -82 42 -82 18 0 6 48 -17 70 -14 13 -25 18 -25
12z"/>
<path d="M4761 4788 c0 -7 4 -22 9 -33 8 -18 9 -17 9 7 1 15 -3 30 -9 33 -5 3
-10 0 -9 -7z"/>
<path d="M12352 4746 c2 -15 8 -26 13 -26 15 0 12 43 -3 48 -10 3 -13 -4 -10
-22z"/>
<path d="M14366 4722 c-3 -6 5 -17 19 -26 23 -15 26 -15 31 -1 7 19 6 20 -23
29 -12 4 -24 3 -27 -2z"/>
<path d="M4990 4685 c0 -14 87 -106 99 -104 3 0 15 4 26 8 18 8 17 10 -15 29
-19 12 -44 35 -55 52 -21 31 -55 41 -55 15z"/>
<path d="M4801 4673 c-1 -12 4 -25 9 -28 12 -7 12 2 0 30 -8 19 -9 19 -9 -2z"/>
<path d="M12410 4655 c0 -8 5 -15 10 -15 6 0 10 7 10 15 0 8 -4 15 -10 15 -5
0 -10 -7 -10 -15z"/>
<path d="M4828 4595 c2 -19 6 -35 8 -35 2 0 4 16 4 35 0 19 -4 35 -8 35 -4 0
-6 -16 -4 -35z"/>
<path d="M5239 4608 c-7 -13 -17 -18 -31 -15 -42 11 -64 -17 -33 -43 17 -14
20 -51 5 -66 -17 -17 17 -54 51 -54 16 0 29 -4 29 -10 0 -5 14 -25 30 -43 17
-19 30 -41 30 -50 0 -26 25 -39 54 -27 31 11 33 21 6 38 -14 9 -20 23 -20 50
0 21 -6 46 -13 57 -18 27 -39 103 -32 114 9 16 -6 40 -36 55 -27 13 -30 13
-40 -6z"/>
<path d="M12450 4589 c0 -11 5 -17 10 -14 6 3 10 13 10 21 0 8 -4 14 -10 14
-5 0 -10 -9 -10 -21z"/>
<path d="M14460 4553 c0 -22 5 -33 14 -33 24 0 26 14 5 40 l-19 25 0 -32z"/>
<path d="M13965 4540 c-3 -6 1 -13 9 -16 21 -8 20 -31 -1 -43 -16 -9 -14 -10
8 -11 15 0 33 -7 40 -16 11 -14 10 -18 -5 -29 -14 -11 -16 -17 -7 -32 10 -17
11 -17 17 5 3 12 13 22 20 22 16 0 18 -23 4 -50 -7 -14 -3 -27 19 -57 16 -22
47 -73 69 -114 26 -49 46 -74 58 -74 25 0 30 25 5 32 -16 4 -21 13 -21 38 0
18 -9 42 -20 55 -11 13 -20 28 -20 33 0 6 -12 23 -27 39 -23 24 -25 31 -15 53
18 40 15 48 -32 78 -25 16 -51 43 -60 62 -17 36 -30 43 -41 25z"/>
<path d="M4940 4500 c0 -16 4 -30 9 -30 13 0 21 27 15 45 -10 25 -24 17 -24
-15z"/>
<path d="M12901 4461 c-1 -27 2 -32 11 -23 8 8 8 17 0 34 -10 22 -11 21 -11
-11z"/>
<path d="M5955 4451 c-7 -12 12 -24 25 -16 11 7 4 25 -10 25 -5 0 -11 -4 -15
-9z"/>
<path d="M7498 4438 c8 -8 17 -8 34 0 22 10 21 11 -11 11 -27 1 -32 -2 -23
-11z"/>
<path d="M4970 4403 c0 -10 4 -25 10 -33 8 -12 10 -12 16 3 7 20 -1 47 -16 47
-5 0 -10 -8 -10 -17z"/>
<path d="M5885 4410 c-3 -5 -25 -15 -48 -21 -23 -7 -56 -26 -74 -42 -19 -18
-38 -27 -47 -24 -10 4 -16 1 -16 -9 0 -22 27 -28 45 -10 11 11 34 16 71 16 39
0 54 4 54 13 0 8 9 22 21 33 11 10 25 27 30 36 8 14 6 18 -10 18 -11 0 -23 -4
-26 -10z"/>
<path d="M7300 4390 c-12 -8 -9 -10 13 -10 16 0 26 4 22 10 -8 12 -16 12 -35
0z"/>
<path d="M5210 4355 c0 -8 9 -15 19 -15 26 0 35 16 15 24 -25 10 -34 7 -34 -9z"/>
<path d="M4980 4341 c0 -14 34 -71 43 -71 14 0 7 38 -8 44 -8 3 -15 12 -15 21
0 8 -4 15 -10 15 -5 0 -10 -4 -10 -9z"/>
<path d="M6080 4325 c0 -14 4 -25 9 -25 12 0 23 29 15 41 -10 18 -24 9 -24
-16z"/>
<path d="M5272 4303 c-7 -12 -12 -28 -12 -37 0 -23 -28 -45 -50 -39 -15 4 -20
0 -20 -15 0 -11 -7 -22 -15 -26 -8 -3 -15 -12 -15 -21 0 -17 25 -21 35 -5 11
18 43 10 87 -23 71 -53 92 -64 133 -70 22 -4 56 -9 77 -13 31 -5 38 -3 48 16
6 12 9 28 6 36 -6 16 -37 19 -52 4 -5 -5 -32 -7 -63 -3 -40 4 -56 12 -68 29
-8 13 -23 24 -32 24 -9 0 -26 16 -39 35 -21 33 -21 37 -6 60 13 19 14 31 7 48
l-10 22 -11 -22z"/>
<path d="M5960 4295 c0 -10 7 -15 18 -13 21 4 19 22 -2 26 -10 2 -16 -3 -16
-13z"/>
<path d="M6020 4302 c0 -14 11 -21 26 -15 21 8 17 23 -6 23 -11 0 -20 -4 -20
-8z"/>
<path d="M5130 4281 c0 -11 23 -31 37 -31 19 0 4 27 -18 33 -10 3 -19 2 -19
-2z"/>
<path d="M6360 4200 c-41 -6 -49 -34 -10 -38 31 -3 53 11 48 29 -2 10 -13 13
-38 9z"/>
<path d="M4760 4175 c0 -10 7 -15 18 -13 21 4 19 22 -2 26 -10 2 -16 -3 -16
-13z"/>
<path d="M5760 4110 c-8 -5 -31 -10 -50 -10 -50 -1 -104 -22 -108 -42 -5 -27
32 -31 78 -7 l42 22 39 -22 c34 -19 44 -21 73 -11 22 7 42 7 59 1 18 -7 46 -5
100 9 82 20 97 26 97 41 0 14 -145 1 -189 -17 -33 -14 -35 -13 -64 16 -30 31
-51 37 -77 20z"/>
<path d="M14210 4081 c0 -11 -4 -23 -10 -26 -18 -11 -11 -37 8 -31 22 7 56
-51 46 -78 -6 -16 -5 -17 15 -5 24 16 28 51 6 69 -8 7 -15 24 -15 39 0 29 -16
51 -37 51 -7 0 -13 -9 -13 -19z"/>
<path d="M14296 3934 c-12 -32 -6 -54 14 -54 11 0 20 -4 20 -10 0 -5 -4 -10
-10 -10 -5 0 -10 -9 -10 -20 0 -29 17 -24 23 6 5 29 -9 90 -22 99 -5 2 -12 -2
-15 -11z"/>
<path d="M14066 3522 c-5 -16 -17 -18 -79 -18 -58 1 -72 -2 -72 -14 0 -18 48
-24 123 -15 49 6 52 8 52 36 0 32 -15 39 -24 11z"/>
<path d="M14176 3495 c7 -17 -11 -21 -21 -5 -8 14 -35 13 -35 -1 0 -23 51 -59
82 -59 30 0 30 1 13 14 -18 13 -17 14 13 21 42 9 49 23 17 35 -41 15 -75 13
-69 -5z"/>
<path d="M13697 3443 c-12 -12 -7 -22 15 -29 20 -6 20 -8 5 -19 -9 -7 -17 -17
-17 -22 0 -6 -12 -19 -27 -29 -16 -9 -33 -24 -39 -32 -6 -9 -18 -13 -27 -9
-22 8 -27 -25 -9 -64 9 -19 17 -36 19 -38 6 -9 42 47 53 82 6 20 22 44 35 53
13 9 27 24 30 34 3 10 18 21 33 25 l27 7 -31 13 c-18 7 -35 18 -38 24 -8 12
-20 14 -29 4z"/>
<path d="M14015 3376 c-22 -6 -46 -15 -53 -19 -7 -5 -25 -7 -40 -6 -31 3 -72
-9 -72 -21 0 -4 -17 -15 -37 -24 -56 -23 -99 -73 -107 -123 -3 -24 -2 -44 4
-48 5 -3 10 -15 10 -26 0 -10 5 -19 10 -19 6 0 10 -20 10 -45 0 -33 5 -47 19
-55 17 -9 20 -5 26 38 4 26 16 66 28 88 27 51 110 124 141 124 13 0 41 7 62
16 81 35 255 18 379 -35 55 -23 94 -43 130 -66 22 -14 47 -28 55 -32 106 -48
257 -215 296 -327 15 -44 42 -47 36 -4 -5 32 -5 32 19 17 39 -26 56 -111 41
-200 -7 -40 -10 -74 -7 -77 3 -3 16 4 28 16 20 20 22 32 21 120 0 90 -3 103
-34 167 -18 39 -48 88 -67 110 -18 22 -44 54 -57 70 -21 25 -28 28 -44 18 -38
-23 -50 4 -27 60 5 12 2 17 -8 17 -9 0 -20 7 -25 16 -6 11 -17 15 -30 12 -12
-4 -26 0 -33 8 -6 8 -15 14 -20 14 -4 0 -23 14 -41 31 -30 28 -37 30 -83 25
-41 -4 -46 -3 -27 6 26 13 28 27 5 34 -10 3 -26 10 -35 15 -10 5 -25 9 -33 9
-15 0 -94 38 -105 51 -3 3 -25 15 -50 27 -39 19 -46 20 -60 7 -21 -19 -33 -19
-104 5 -65 22 -64 22 -121 6z m-72 -62 c10 -11 -36 -54 -58 -54 -19 -1 -33
-15 -69 -65 -14 -19 -16 -19 -32 -3 -19 19 -10 41 15 33 10 -3 25 6 41 26 23
28 76 69 91 69 3 0 9 -3 12 -6z m-153 -151 c-1 -19 -19 -35 -34 -30 -26 10
-19 37 9 37 14 0 25 -3 25 -7z m960 -73 c0 -23 -10 -26 -28 -8 -18 18 -15 28
8 28 13 0 20 -7 20 -20z"/>
<path d="M13070 3155 c0 -8 7 -15 15 -15 8 0 15 7 15 15 0 8 -7 15 -15 15 -8
0 -15 -7 -15 -15z"/>
<path d="M14020 3130 c-11 -11 -26 -20 -33 -20 -22 0 -84 -75 -102 -125 -16
-40 -17 -52 -5 -83 7 -21 19 -45 28 -54 21 -25 52 -23 52 2 0 13 -7 20 -19 20
-40 0 -29 19 25 45 52 25 55 28 40 44 -22 24 -11 31 44 31 60 0 72 12 25 25
-44 13 -45 26 -2 42 l32 11 -34 12 -34 13 23 17 23 18 -21 11 c-18 9 -25 8
-42 -9z"/>
<path d="M14456 3087 c39 -23 78 -49 86 -57 9 -8 35 -31 58 -50 40 -34 117
-108 146 -141 8 -9 14 -21 14 -27 0 -20 37 -74 44 -64 13 21 -52 119 -134 202
-87 89 -221 180 -263 180 -15 0 0 -13 49 -43z"/>
<path d="M14230 3100 c0 -5 11 -12 25 -16 13 -3 29 -12 35 -19 6 -8 25 -17 41
-20 16 -4 29 -11 29 -16 0 -5 6 -9 12 -9 16 0 112 -65 153 -102 17 -16 44 -34
60 -42 17 -8 43 -28 59 -45 31 -32 46 -39 46 -20 0 27 -238 239 -269 239 -4 0
-12 5 -18 11 -30 30 -173 62 -173 39z"/>
<path d="M14211 3043 c-9 -4 -5 -10 15 -19 16 -8 49 -25 73 -39 24 -14 48 -25
52 -25 27 0 137 -95 125 -108 -5 -5 -43 17 -87 51 -20 15 -43 27 -51 27 -8 0
-19 5 -26 12 -19 19 -124 48 -140 39 -12 -7 -8 -10 15 -15 17 -4 34 -14 37
-22 3 -8 13 -14 21 -14 16 0 118 -53 145 -75 8 -7 20 -14 27 -16 17 -6 113
-99 113 -110 0 -5 7 -9 15 -9 14 0 44 -22 87 -62 36 -35 6 40 -35 84 -52 57
-54 61 -14 39 21 -12 51 -35 67 -51 19 -19 30 -25 30 -16 0 15 -75 103 -129
151 -19 16 -42 38 -50 48 -9 9 -22 17 -29 17 -8 0 -31 13 -51 28 -43 34 -81
55 -139 76 -45 17 -49 18 -71 9z"/>
<path d="M14158 2910 c12 -5 22 -14 22 -20 0 -6 24 -22 53 -36 28 -14 59 -29
67 -33 8 -5 32 -17 53 -28 22 -11 72 -50 112 -87 41 -36 78 -66 84 -66 5 0 23
-17 40 -37 34 -41 40 -34 15 16 -19 38 -79 101 -97 101 -7 0 -34 20 -62 45
-27 25 -54 45 -58 45 -5 0 -24 12 -42 26 -47 36 -105 64 -132 64 -12 0 -25 5
-28 10 -3 6 -16 10 -28 9 l-22 0 23 -9z"/>
<path d="M13170 2845 c0 -17 46 -65 62 -65 17 0 21 32 5 42 -10 5 -17 16 -17
23 0 9 -10 15 -25 15 -16 0 -25 -6 -25 -15z"/>
<path d="M14150 2834 c0 -9 49 -54 59 -54 24 0 153 -73 189 -107 7 -7 21 -18
31 -25 9 -7 28 -28 41 -45 13 -18 33 -33 43 -33 11 0 26 -8 33 -17 13 -17 13
-17 14 0 0 9 -3 17 -7 17 -5 0 -16 14 -25 30 -9 17 -24 30 -32 30 -8 0 -16 3
-18 8 -5 10 -125 112 -133 112 -4 0 -24 14 -45 30 -21 17 -42 30 -48 30 -5 0
-15 7 -22 15 -12 14 -80 22 -80 9z"/>
<path d="M13117 2803 c-13 -12 -7 -23 12 -23 10 0 25 -10 34 -22 13 -20 16
-21 22 -6 12 29 -47 73 -68 51z"/>
<path d="M14110 2771 c0 -10 64 -55 100 -71 14 -6 43 -21 65 -35 22 -13 47
-27 55 -31 18 -9 60 -46 105 -91 34 -34 65 -43 65 -19 0 20 -220 196 -245 196
-8 0 -15 5 -15 10 0 6 -11 15 -25 20 -14 5 -25 14 -25 20 0 5 -18 10 -40 10
-22 0 -40 -4 -40 -9z"/>
<path d="M13351 2741 c-1 -8 -8 -22 -16 -31 -14 -16 -14 -17 10 -13 18 4 25 1
25 -11 0 -9 7 -16 15 -16 8 0 15 7 15 15 0 8 -6 15 -14 15 -8 0 -19 12 -24 28
-6 15 -11 21 -11 13z"/>
<path d="M14100 2704 c1 -19 27 -43 53 -49 15 -4 30 -11 33 -16 2 -5 23 -13
44 -19 22 -6 40 -15 40 -20 0 -5 19 -22 43 -37 23 -15 46 -34 50 -41 5 -7 13
-10 18 -7 14 10 -48 70 -97 94 -24 13 -44 29 -44 37 0 8 -10 14 -24 14 -13 0
-26 6 -29 14 -3 7 -16 16 -29 18 -13 3 -31 9 -40 13 -10 4 -18 3 -18 -1z"/>
<path d="M14887 2703 c-4 -3 -7 -13 -7 -22 -1 -9 -9 -34 -20 -56 -10 -22 -16
-44 -13 -48 6 -9 52 41 53 56 0 5 9 20 20 34 11 14 20 30 20 34 0 10 -44 12
-53 2z"/>
<path d="M14764 2691 c10 -15 -4 -39 -25 -44 -11 -3 -19 -14 -19 -25 0 -11 -7
-25 -15 -32 -17 -14 -17 -51 0 -57 10 -3 21 14 47 70 7 15 20 27 29 27 8 0 22
12 29 26 12 22 12 27 0 34 -19 12 -53 13 -46 1z"/>
<path d="M14813 2545 c-8 -22 6 -33 17 -15 13 20 12 30 0 30 -6 0 -13 -7 -17
-15z"/>
<path d="M13063 2514 c-3 -9 0 -20 8 -25 27 -17 36 -8 23 25 -8 21 -23 20 -31
0z"/>
<path d="M14600 2460 c0 -5 6 -10 14 -10 8 0 18 5 21 10 3 6 -3 10 -14 10 -12
0 -21 -4 -21 -10z"/>
<path d="M13105 2450 c-4 -6 4 -22 18 -36 30 -30 46 -15 23 21 -18 27 -31 31
-41 15z"/>
<path d="M13642 2381 c4 -13 18 -16 19 -4 0 4 -5 9 -11 12 -7 2 -11 -2 -8 -8z"/>
<path d="M13642 2279 c2 -6 8 -10 13 -10 5 0 11 4 13 10 2 6 -4 11 -13 11 -9
0 -15 -5 -13 -11z"/>
<path d="M14124 2189 c-4 -7 1 -18 11 -26 22 -15 34 -16 55 -3 11 7 9 11 -14
20 -16 6 -32 13 -37 15 -4 3 -11 0 -15 -6z"/>
<path d="M15210 2174 c0 -9 5 -14 12 -12 18 6 21 28 4 28 -9 0 -16 -7 -16 -16z"/>
<path d="M14384 2149 c-8 -13 15 -68 38 -91 10 -10 20 -30 23 -45 4 -16 10
-36 16 -45 14 -27 12 -28 -32 -28 -26 0 -50 -7 -66 -20 -16 -12 -41 -20 -64
-20 -47 0 -52 -19 -13 -49 21 -17 36 -19 102 -16 241 13 386 26 457 40 44 9
96 20 116 24 21 5 49 18 64 29 15 12 38 22 50 22 23 0 75 50 75 73 0 7 13 -4
29 -23 27 -31 31 -33 55 -22 40 18 33 51 -23 113 -35 38 -61 34 -61 -9 0 -44
-53 -64 -161 -60 -46 1 -97 -1 -113 -6 -26 -8 -28 -7 -21 13 6 20 3 21 -52 21
-32 0 -71 -7 -87 -15 -19 -10 -41 -13 -63 -9 -23 4 -39 2 -51 -9 -18 -16 -100
-36 -120 -29 -8 2 -12 24 -12 61 0 31 -6 64 -12 72 -19 23 -66 40 -74 28z
m215 -212 c13 -17 5 -27 -24 -27 -12 0 -25 3 -28 7 -9 8 12 33 28 33 7 0 18
-6 24 -13z"/>
<path d="M14054 2088 c-11 -18 10 -28 57 -28 47 0 62 11 37 27 -17 10 -88 11
-94 1z"/>
<path d="M13255 2081 c-3 -5 -1 -12 5 -16 12 -7 30 2 30 16 0 12 -27 12 -35 0z"/>
<path d="M13570 2080 c0 -15 38 -32 45 -20 3 5 3 15 0 20 -8 13 -45 13 -45 0z"/>
<path d="M13817 1973 c-15 -14 -5 -23 26 -23 30 1 31 1 13 15 -22 17 -29 18
-39 8z"/>
<path d="M14146 1973 c-7 -7 13 -33 25 -33 5 0 9 6 9 14 0 15 -24 28 -34 19z"/>
<path d="M13905 1939 c-4 -6 -5 -11 -4 -13 24 -17 83 -46 95 -46 25 0 17 46
-11 58 -32 15 -72 15 -80 1z"/>
<path d="M13880 1837 c0 -13 40 -37 60 -37 14 0 41 31 35 41 -10 15 -95 11
-95 -4z"/>
<path d="M14126 1730 c-49 -31 -7 -36 56 -6 l53 25 -40 0 c-22 0 -53 -9 -69
-19z"/>
</g>
</svg>
