<?xml version="1.0" standalone="no"?>
<!DOCTYPE svg PUBLIC "-//W3C//DTD SVG 20010904//EN"
 "http://www.w3.org/TR/2001/REC-SVG-20010904/DTD/svg10.dtd">
<svg version="1.0" xmlns="http://www.w3.org/2000/svg"
 width="1800.000000pt" height="1467.000000pt" viewBox="0 0 1800.000000 1467.000000"
 preserveAspectRatio="xMidYMid meet">
<g transform="translate(0.000000,1467.000000) scale(0.100000,-0.100000)"
fill="#000000" stroke="none">
<path d="M445 9275 c-76 -38 -133 -194 -186 -515 -23 -133 -11 -796 17 -940 9
-47 20 -107 24 -135 9 -51 27 -116 48 -170 34 -87 68 -112 169 -126 56 -8 74
-7 104 7 l37 16 -28 42 c-30 45 -60 118 -60 150 0 11 -7 27 -16 37 -13 14 -14
23 -3 57 10 34 9 47 -5 83 -28 70 -37 483 -17 801 6 97 15 175 23 187 9 15 9
25 0 46 -16 35 -16 95 1 95 18 0 31 -12 44 -40 l11 -25 12 27 c7 14 21 29 31
31 14 4 19 14 19 40 0 19 7 40 15 47 8 7 15 22 15 34 1 11 9 39 20 61 11 22
19 47 20 55 0 17 67 90 81 90 5 0 9 -16 9 -35 0 -24 5 -35 15 -35 23 0 18 31
-10 73 -31 45 -55 47 -122 12 -60 -33 -81 -52 -85 -79 -2 -15 -10 -21 -28 -21
-22 0 -25 5 -28 38 -2 23 3 48 12 62 9 14 16 29 16 35 0 16 -121 12 -155 -5z
m91 -150 c4 -8 14 -15 24 -15 25 0 32 -14 24 -45 -4 -17 -13 -25 -29 -25 -32
0 -44 -18 -54 -86 -5 -32 -14 -88 -20 -124 -5 -36 -12 -127 -15 -203 -3 -76
-10 -146 -15 -155 -10 -19 4 -246 16 -265 4 -7 9 -82 10 -167 1 -85 4 -177 6
-205 3 -27 10 -113 16 -189 6 -77 15 -144 21 -150 15 -15 12 -36 -5 -36 -8 0
-15 9 -15 19 0 10 -6 21 -13 24 -7 3 -28 35 -46 71 -32 62 -34 72 -34 167 1
97 0 101 -23 109 -30 12 -31 28 -3 32 33 5 48 34 26 50 -14 11 -17 40 -21 228
-2 118 -9 226 -14 240 -9 22 -11 22 -12 5 -13 -200 -35 -256 -51 -127 -10 81
-9 237 2 302 5 30 12 79 15 108 4 29 10 55 15 58 11 6 11 7 13 -128 0 -66 5
-107 11 -105 6 1 9 26 7 59 -2 31 2 91 7 133 9 61 8 81 -1 93 -14 16 -18 123
-5 115 4 -2 7 -11 7 -19 0 -15 9 -18 26 -6 15 10 35 116 28 150 -4 22 2 35 32
65 39 39 61 46 70 22z"/>
<path d="M835 9030 c-3 -5 -22 -10 -41 -10 -44 0 -75 -30 -74 -73 0 -45 -14
-150 -22 -163 -4 -6 -9 -31 -12 -55 -3 -24 -10 -71 -15 -104 -13 -74 -14 -262
-2 -269 11 -7 41 3 41 14 0 5 5 21 12 37 6 15 10 58 10 94 -1 46 3 70 12 78 9
8 48 11 107 9 91 -3 94 -2 97 20 3 21 0 22 -68 22 -99 0 -159 16 -166 45 -3
13 -1 32 5 44 7 11 15 52 20 91 12 95 21 104 92 97 33 -4 60 -2 66 4 7 7 20 0
42 -22 31 -31 32 -31 38 -10 9 34 38 22 38 -16 1 -18 4 -35 8 -39 4 -4 34 4
67 19 52 22 65 24 93 15 57 -19 73 -48 27 -48 -18 0 -40 -27 -40 -49 0 -6 13
-11 29 -11 15 0 52 -10 80 -22 l52 -21 45 22 c25 12 44 27 41 34 -2 7 -30 14
-67 17 -64 5 -92 25 -48 34 74 15 340 28 394 19 77 -13 199 -10 246 6 30 10
43 10 65 -1 38 -18 35 -38 -7 -52 -25 -8 -35 -17 -35 -31 0 -17 6 -19 33 -17
21 2 41 -4 58 -17 27 -21 88 -28 99 -12 10 17 79 -1 107 -27 27 -25 28 -25 48
-7 31 28 26 52 -12 60 -18 4 -49 16 -69 27 -35 19 -38 19 -63 3 -23 -15 -26
-15 -32 -2 -3 9 -23 18 -45 22 -45 8 -49 17 -14 33 35 16 43 15 50 -8 8 -25
25 -26 25 -1 0 14 9 19 43 23 72 8 243 1 266 -11 34 -19 25 -31 -23 -31 -38 0
-48 -4 -65 -29 l-20 -28 87 -7 c48 -4 110 -9 138 -12 65 -5 84 12 59 50 -13
20 -23 24 -40 20 -13 -3 -31 -1 -41 4 -16 9 -15 11 7 23 22 13 113 20 234 19
28 0 78 0 113 0 59 1 77 -9 50 -27 -7 -4 -46 -10 -87 -14 -61 -5 -78 -10 -93
-29 -29 -36 -7 -48 103 -56 l96 -6 31 33 c31 33 32 40 15 85 -3 8 11 12 39 11
24 0 95 2 158 4 65 1 116 -1 117 -7 3 -11 -52 -41 -89 -49 -14 -3 -39 -18 -55
-34 -16 -16 -38 -31 -49 -34 -10 -3 16 -3 58 0 47 4 83 2 90 -4 22 -18 73 -24
104 -13 34 13 74 48 74 66 0 16 -64 37 -90 29 -33 -10 -24 18 10 34 20 8 46
11 73 7 23 -4 58 -6 77 -5 51 4 240 4 355 1 55 -1 114 -2 130 -2 17 1 64 -4
105 -9 54 -8 83 -8 102 0 68 28 346 6 294 -23 -10 -5 -30 -8 -44 -5 -31 6 -81
-12 -100 -36 -7 -9 -27 -19 -43 -22 -42 -9 -32 -26 27 -43 38 -11 60 -12 99
-4 28 6 90 14 139 17 74 6 92 11 110 29 26 28 106 44 106 22 0 -18 -43 -66
-59 -66 -15 0 -14 -12 2 -35 9 -11 19 -15 27 -10 7 5 36 9 64 11 152 7 230 16
243 30 8 8 28 21 44 29 27 14 30 14 50 -6 21 -21 21 -23 4 -36 -11 -7 -34 -13
-54 -13 -51 0 -32 -10 39 -20 34 -5 70 -16 79 -24 10 -9 30 -16 44 -16 16 0
32 -8 39 -20 15 -24 94 -67 105 -57 3 4 -3 16 -15 27 -12 12 -22 25 -22 31 0
5 -11 15 -25 21 -35 16 -32 38 4 38 17 0 33 -4 36 -10 9 -14 48 -13 63 2 7 7
12 20 12 30 0 14 8 18 39 18 44 0 71 -8 71 -21 0 -12 -55 -39 -80 -39 -47 0
-32 -49 15 -50 11 0 31 -9 45 -20 24 -19 80 -28 80 -12 0 4 -7 18 -17 31 -15
23 -15 25 2 37 24 18 37 18 61 -1 25 -19 114 -20 114 -1 0 25 59 28 101 4 30
-17 42 -19 51 -10 24 24 65 13 109 -28 57 -53 79 -53 43 -1 -14 19 -14 25 -3
32 16 11 118 1 135 -12 7 -6 23 -5 40 1 23 9 33 7 57 -11 27 -20 34 -21 81
-11 91 20 125 23 144 13 10 -5 71 -12 136 -15 99 -4 124 -2 150 12 45 24 219
22 247 -4 24 -22 73 -22 97 -1 11 10 35 17 60 17 40 0 57 10 86 52 9 12 21 18
30 15 23 -9 20 -31 -6 -42 -15 -7 -22 -17 -20 -30 1 -11 3 -91 5 -178 2 -144
4 -160 22 -173 10 -8 26 -14 35 -14 24 0 31 -10 20 -31 -9 -16 -5 -19 34 -24
85 -13 220 12 243 45 8 11 20 16 32 13 27 -7 31 13 29 157 -1 69 2 148 6 176
7 47 6 52 -13 57 -21 5 -38 33 -28 44 4 3 18 -2 31 -11 14 -9 32 -16 39 -16 8
0 22 -9 33 -21 15 -17 20 -41 24 -122 5 -98 6 -101 30 -107 18 -4 26 -14 30
-34 3 -17 13 -32 25 -36 13 -5 19 -16 20 -36 0 -25 4 -29 33 -32 18 -2 39 2
47 8 9 8 20 7 38 -1 22 -10 31 -9 52 5 14 9 25 23 25 31 0 8 8 18 17 24 11 6
18 21 18 38 0 25 4 28 38 31 l37 3 0 100 c0 109 16 179 40 179 26 0 39 -100
37 -289 -1 -120 2 -179 10 -190 9 -12 32 -16 105 -18 51 -1 102 -3 113 -4 11
-2 52 -2 92 -1 63 2 74 5 84 24 21 39 -7 47 -157 43 -152 -5 -138 -13 -147 87
-3 31 0 51 8 58 9 7 52 9 129 4 105 -6 116 -5 122 11 4 9 3 29 -2 44 -11 28
-1 27 -157 19 -53 -3 -81 0 -88 8 -6 7 -9 36 -7 66 l3 53 144 0 c154 0 142 -4
170 53 4 9 15 18 23 20 22 4 30 -45 35 -208 4 -124 5 -154 11 -246 2 -25 8
-33 27 -38 14 -4 34 -2 45 4 17 9 20 20 19 66 -2 63 13 86 56 87 30 0 45 -17
45 -50 0 -17 7 -22 33 -25 31 -3 32 -5 35 -51 3 -41 6 -48 20 -41 9 4 35 9 56
12 35 4 43 1 63 -24 27 -34 41 -26 20 13 -9 15 -18 36 -21 46 -3 9 -15 17 -26
17 -14 0 -24 10 -32 31 -9 26 -14 29 -37 24 -27 -6 -27 -5 -26 45 1 59 12 70
71 70 l41 0 6 102 6 102 -35 34 c-40 39 -34 58 15 47 26 -5 31 -11 26 -26 -5
-15 -1 -19 19 -19 41 0 49 -30 52 -190 1 -80 6 -162 12 -182 5 -20 7 -47 5
-60 -6 -32 37 -64 66 -48 17 9 19 21 18 115 0 58 3 108 7 112 4 5 63 8 129 8
l122 0 0 35 0 35 -125 0 c-74 0 -128 4 -132 10 -11 15 -10 83 2 105 10 18 19
19 148 13 122 -5 140 -4 155 11 10 10 22 14 29 9 26 -16 88 14 88 43 0 15 64
38 83 30 7 -3 3 -7 -10 -11 -17 -6 -23 -15 -23 -36 0 -22 -6 -32 -25 -39 -16
-6 -25 -17 -25 -32 0 -12 -12 -32 -27 -44 l-28 -22 5 -128 c2 -71 3 -151 3
-179 -2 -42 0 -47 11 -33 6 9 28 18 47 20 l34 3 0 55 c0 76 11 103 38 96 68
-16 105 -17 141 -2 48 20 49 20 42 -2 -5 -14 1 -22 21 -32 l28 -13 -33 -14
c-31 -13 -33 -16 -27 -46 4 -18 10 -36 12 -40 9 -15 48 -25 64 -16 21 11 34
106 32 233 -1 84 -5 102 -22 120 -12 12 -21 34 -21 48 0 20 -6 27 -30 32 -17
3 -30 12 -30 20 0 21 19 30 35 16 8 -7 43 -14 78 -16 34 -1 65 -3 68 -3 3 -1
6 -13 6 -28 0 -16 3 -54 7 -85 7 -52 10 -57 34 -60 18 -2 28 -10 32 -28 6 -25
8 -25 113 -28 59 -1 108 -6 108 -10 1 -4 3 -23 5 -42 2 -19 6 -47 8 -62 3 -15
1 -30 -5 -34 -6 -3 -55 -7 -110 -8 l-99 -1 0 37 c0 20 -5 40 -10 43 -16 10
-80 -15 -80 -30 0 -28 20 -63 37 -67 14 -3 18 -13 18 -46 0 -47 -11 -56 -59
-47 -20 4 -38 1 -51 -9 -19 -14 -19 -15 10 -21 17 -4 40 -12 53 -18 17 -8 25
-8 34 1 7 7 36 12 66 12 38 0 53 4 50 13 -3 6 -15 14 -29 15 -35 5 -46 20 -18
26 13 3 62 8 109 10 47 3 91 5 98 5 7 1 17 12 22 25 5 15 20 27 38 31 l29 6 1
84 c1 76 -1 84 -19 90 -11 4 -25 17 -31 30 -12 27 -48 35 -164 35 -49 0 -85 5
-92 12 -7 7 -12 30 -12 53 0 23 5 46 12 53 13 13 156 17 173 4 6 -4 15 -16 21
-27 8 -15 22 -20 55 -20 44 0 44 0 53 43 8 35 14 42 34 42 15 0 26 -7 29 -19
7 -27 21 -30 81 -20 87 16 87 17 83 -173 -3 -193 7 -238 56 -238 16 0 34 -5
40 -11 16 -16 28 8 12 27 -10 12 -10 28 0 77 7 36 10 111 8 179 -2 64 -1 122
4 129 6 10 23 10 76 2 82 -12 93 -9 93 28 0 19 5 29 15 29 8 0 15 -7 15 -15 0
-39 162 -73 190 -40 14 17 61 20 76 6 5 -6 68 -12 139 -13 72 -2 156 -10 187
-18 46 -11 65 -12 90 -2 35 12 204 16 298 7 91 -9 101 -8 125 15 20 18 26 20
45 10 12 -7 60 -14 107 -16 47 -2 92 -8 101 -13 35 -18 80 -20 92 -6 7 8 20
15 30 15 10 0 24 10 33 23 l15 22 32 -24 c30 -21 46 -24 198 -31 141 -7 169
-6 189 7 17 12 34 14 66 8 23 -5 65 -7 92 -7 28 1 83 -5 123 -15 71 -16 73
-16 95 4 18 17 31 20 72 16 168 -16 329 -17 358 -1 14 7 49 5 127 -7 106 -17
107 -17 148 4 23 12 48 21 55 21 23 0 47 -45 47 -87 0 -21 4 -45 10 -53 7 -11
11 -9 19 13 6 16 11 37 11 47 0 11 17 28 46 44 50 28 74 32 91 15 5 -5 30 -9
54 -7 42 3 44 4 44 36 0 19 8 42 20 55 20 21 26 22 253 22 178 0 235 -3 241
-13 4 -7 15 -10 25 -6 11 4 22 0 30 -12 12 -15 18 -16 40 -6 17 7 24 17 20 27
-3 8 -10 15 -15 15 -5 0 -9 7 -9 15 0 13 7 15 38 9 20 -4 51 -13 68 -20 24
-10 85 -12 260 -8 281 7 249 7 311 2 41 -2 53 -7 53 -19 0 -19 24 -42 33 -32
4 3 7 26 7 50 0 37 3 43 21 43 15 0 19 -5 15 -15 -6 -18 2 -45 15 -45 5 0 9
14 9 30 0 31 14 41 23 16 7 -18 -3 -56 -14 -56 -19 0 -8 -34 21 -67 27 -30 30
-40 30 -103 0 -37 -3 -75 -6 -84 -10 -26 -24 -8 -25 32 -1 76 -18 79 -18 4 -1
-67 2 -78 31 -118 17 -24 33 -43 34 -41 1 1 4 72 6 158 2 112 -1 161 -10 171
-17 21 -9 145 11 165 15 15 17 14 26 -9 5 -14 15 -29 21 -33 8 -5 10 -26 5
-67 -7 -58 -6 -60 14 -53 35 11 37 -34 15 -292 -10 -126 29 -79 44 52 10 85 0
302 -15 330 -9 16 -8 24 5 38 11 13 13 20 5 25 -6 4 -14 25 -18 46 -11 55 -45
105 -72 106 -26 0 -30 -12 -8 -30 17 -14 20 -40 5 -40 -5 0 -12 -11 -16 -26
-8 -30 -38 -29 -40 1 -2 32 -44 95 -63 95 -24 0 -33 -11 -21 -25 13 -16 -2
-90 -18 -90 -7 0 -25 23 -40 50 -15 28 -34 50 -42 50 -24 0 -21 -94 3 -122 24
-27 19 -68 -8 -68 -14 0 -19 6 -18 20 3 26 -24 121 -47 165 l-19 35 -453 3
c-263 2 -468 -1 -488 -7 -136 -36 -419 -97 -504 -108 -56 -8 -61 -10 -82 -48
l-22 -40 -318 0 c-176 0 -949 4 -1719 8 -2014 11 -2850 15 -4635 22 -910 3
-1613 10 -1650 15 -36 6 -128 14 -205 20 -288 20 -385 30 -668 70 -37 6 -89
10 -115 10 -26 1 -67 5 -92 11 -53 11 -228 35 -355 49 -49 5 -159 16 -244 25
-102 11 -221 15 -360 13 -113 -2 -602 2 -1086 7 -484 6 -1081 9 -1328 9 l-447
-2 2 42 c3 39 2 41 -22 38 -97 -13 -149 -12 -185 2 -43 19 -61 20 -70 6z
m14319 -235 c24 -18 73 -20 78 -3 4 10 19 9 69 -1 35 -7 75 -12 87 -12 13 1
31 -3 40 -9 13 -7 4 -10 -33 -10 -51 -2 -165 -7 -245 -12 -25 -2 -50 -6 -56
-10 -7 -5 -39 -5 -72 -2 -53 6 -61 9 -65 30 -5 26 -12 24 120 29 18 0 35 4 39
8 10 10 16 9 38 -8z m699 -22 c4 -2 4 -9 1 -15 -7 -12 -188 -3 -208 10 -26 17
177 22 207 5z m-1433 -157 c0 -28 -4 -57 -9 -65 -14 -22 -45 32 -38 66 3 15 1
36 -4 46 -15 28 -1 39 27 21 20 -14 24 -24 24 -68z m215 36 c-23 -5 -39 13
-31 35 7 16 9 16 28 -7 19 -23 19 -25 3 -28z m-5631 14 c26 -13 26 -14 -28
-20 -55 -7 -76 -3 -76 14 0 7 15 12 66 19 7 0 24 -5 38 -13z m1056 -12 c0 -11
-9 -14 -37 -12 -47 4 -55 25 -11 30 40 4 48 1 48 -18z m-301 7 c21 -13 5 -29
-24 -23 -25 4 -31 13 -18 25 9 9 25 8 42 -2z m-229 -11 c0 -5 -7 -10 -15 -10
-8 0 -15 5 -15 10 0 6 7 10 15 10 8 0 15 -4 15 -10z m120 0 c0 -5 -14 -10 -31
-10 -17 0 -28 4 -24 10 3 6 17 10 31 10 13 0 24 -4 24 -10z m960 0 c0 -5 -6
-10 -14 -10 -8 0 -18 5 -21 10 -3 6 3 10 14 10 12 0 21 -4 21 -10z m54 4 c23
-9 20 -24 -4 -24 -11 0 -20 7 -20 15 0 17 2 18 24 9z m336 -4 c0 -6 -30 -10
-72 -9 -50 0 -67 3 -53 9 28 12 125 12 125 0z m3570 -5 c0 -8 -7 -15 -15 -15
-8 0 -15 7 -15 15 0 8 7 15 15 15 8 0 15 -7 15 -15z m-3840 -5 c0 -5 -7 -10
-15 -10 -8 0 -15 5 -15 10 0 6 7 10 15 10 8 0 15 -4 15 -10z m52 -2 c-9 -9
-15 -9 -24 0 -9 9 -7 12 12 12 19 0 21 -3 12 -12z m-2624 -40 c7 -18 16 -64
19 -102 l6 -69 -26 7 c-21 5 -27 3 -27 -9 0 -21 -41 -75 -56 -75 -7 0 -16 10
-20 23 -3 12 -15 30 -25 39 -9 10 -29 33 -44 51 l-25 35 26 60 26 61 48 -6
c30 -3 50 -1 54 6 13 20 31 11 44 -21z m2182 17 c0 -8 -7 -15 -15 -15 -26 0
-18 20 13 29 1 1 2 -6 2 -14z m1125 6 c3 -5 -4 -13 -16 -16 -23 -8 -34 -1 -24
14 8 13 32 14 40 2z m885 -16 c13 -16 6 -35 -14 -35 -21 0 -49 26 -42 38 10
17 41 15 56 -3z m-425 -15 c0 -18 -33 -26 -47 -12 -6 6 -7 15 -3 22 10 16 50
8 50 -10z m-527 -7 c2 -8 -5 -13 -17 -13 -12 0 -21 6 -21 16 0 18 31 15 38 -3z
m1790 5 c-6 -18 -28 -21 -28 -4 0 9 7 16 16 16 9 0 14 -5 12 -12z m-5520 -20
c8 -8 12 -51 12 -154 0 -119 3 -144 16 -152 23 -13 -2 -65 -25 -53 -33 18
-103 23 -127 10 -20 -10 -27 -10 -42 4 -16 15 -18 33 -16 172 2 102 7 161 14
170 14 17 148 19 168 3z m1478 -21 c3 -13 4 -41 2 -63 -2 -31 -9 -42 -30 -52
-18 -9 -28 -21 -28 -36 0 -35 -15 -42 -77 -36 l-58 5 0 90 c0 50 3 96 8 103 6
8 38 12 93 12 79 0 84 -1 90 -23z m897 -17 c6 -16 18 -30 27 -30 9 0 25 -7 38
-15 18 -14 20 -19 9 -36 -10 -16 -9 -25 5 -49 16 -28 16 -30 0 -38 -9 -5 -57
-8 -107 -6 l-90 2 -3 66 -3 65 35 15 c19 8 39 24 46 35 15 29 30 26 43 -9z
m-1633 -22 c0 -16 -3 -19 -11 -11 -6 6 -8 16 -5 22 11 17 16 13 16 -11z m512
-170 c-9 -9 -12 -7 -12 12 0 19 3 21 12 12 9 -9 9 -15 0 -24z"/>
<path d="M16833 8863 c-4 -9 -2 -18 3 -20 33 -12 38 -22 23 -40 -27 -30 -28
-49 -8 -83 14 -22 18 -41 14 -60 -4 -19 -2 -29 8 -33 8 -3 26 -35 41 -71 41
-103 33 -250 -11 -191 -12 18 -13 18 -13 -3 0 -11 8 -25 18 -31 14 -8 15 -13
4 -31 -10 -17 -10 -21 3 -26 26 -10 42 3 48 38 9 53 1 243 -12 266 -6 11 -11
55 -12 98 -1 64 -6 84 -28 123 -15 25 -30 54 -34 64 -8 22 -36 22 -44 0z"/>
<path d="M16962 8868 c-9 -9 -8 -16 5 -30 14 -16 15 -24 5 -50 -10 -27 -9 -38
8 -72 10 -23 22 -62 25 -87 3 -25 17 -61 30 -80 22 -28 25 -44 25 -110 0 -43
-4 -81 -10 -84 -21 -13 -3 -125 19 -125 13 0 27 115 20 155 -4 22 -5 67 -2
101 3 33 1 76 -5 95 -6 19 -12 57 -14 84 -3 47 -2 50 21 50 19 0 27 -8 37 -35
7 -19 13 -47 13 -61 1 -15 10 -33 21 -40 16 -12 21 -30 26 -105 6 -80 5 -92
-10 -97 -14 -6 -16 -18 -13 -74 5 -70 6 -73 32 -73 19 0 20 36 1 43 -9 4 -12
14 -9 28 l6 21 13 -23 c21 -40 27 -1 15 98 -6 48 -13 140 -16 204 -3 105 -7
125 -37 193 -29 69 -35 76 -60 76 -34 0 -36 -12 -5 -33 18 -12 20 -18 10 -28
-7 -7 -13 -21 -13 -30 0 -47 -44 -27 -68 31 -14 36 -40 70 -52 70 -3 0 -11 -5
-18 -12z"/>
<path d="M16335 8860 c-4 -6 -2 -16 3 -23 7 -8 4 -27 -10 -59 -19 -43 -19 -49
-4 -63 9 -9 16 -21 16 -26 0 -5 7 -9 15 -9 8 0 15 -4 15 -10 0 -5 -4 -10 -10
-10 -5 0 -10 -19 -10 -42 1 -40 2 -42 15 -24 20 27 26 17 35 -61 4 -37 13 -81
19 -98 7 -16 9 -40 6 -53 -5 -20 -8 -22 -20 -12 -8 7 -15 9 -16 4 -6 -104 -8
-177 -4 -185 6 -8 44 8 56 24 6 8 3 210 -6 412 -5 104 -11 142 -21 148 -8 4
-14 16 -14 25 -1 16 -43 72 -54 72 -3 0 -8 -5 -11 -10z"/>
<path d="M16450 8859 c0 -7 7 -17 16 -24 15 -11 15 -14 0 -38 -17 -25 -14 -91
4 -102 5 -3 18 -38 30 -78 11 -39 28 -87 36 -105 15 -34 19 -119 6 -138 -4 -6
-15 -13 -25 -17 -14 -5 -17 -12 -11 -29 5 -13 8 -45 7 -73 0 -27 2 -40 4 -27
5 24 23 31 23 8 0 -7 6 -19 14 -25 11 -9 14 11 20 117 7 138 2 201 -21 275
-11 37 -12 55 -4 79 8 23 8 35 0 44 -9 11 -8 14 2 14 15 -1 59 -63 59 -83 0
-7 14 -39 31 -71 31 -58 31 -61 24 -155 -13 -193 -12 -216 10 -216 19 0 20 7
20 175 -1 96 -4 209 -9 250 -6 61 -5 79 7 95 l16 20 6 -20 c4 -11 13 -35 21
-53 8 -18 14 -50 14 -72 0 -29 4 -39 17 -42 13 -2 20 -20 29 -71 10 -61 9 -68
-8 -84 -17 -15 -19 -27 -14 -83 2 -36 6 -69 7 -75 1 -5 0 -17 -2 -25 -3 -10 5
-16 22 -18 24 -3 27 0 32 40 10 81 8 166 -8 289 -9 67 -18 126 -21 131 -3 4 3
22 12 39 13 26 14 33 2 40 -7 5 -16 9 -20 9 -5 0 -8 10 -8 21 0 12 -9 37 -21
55 -16 26 -27 34 -50 34 -34 0 -38 -14 -9 -32 26 -17 25 -43 -2 -63 -21 -14
-24 -14 -35 2 -7 10 -16 23 -20 28 -5 6 -14 22 -20 38 -9 19 -20 27 -37 27
-29 0 -44 -18 -22 -26 28 -11 14 -74 -16 -74 -5 0 -22 23 -39 50 -20 32 -38
50 -50 50 -10 0 -19 -5 -19 -11z"/>
<path d="M17210 8864 c0 -4 7 -15 15 -24 12 -13 12 -22 3 -46 -9 -25 -7 -38
11 -78 11 -26 18 -52 15 -58 -7 -11 15 -68 27 -68 5 0 16 -25 25 -55 17 -62
12 -130 -12 -139 -9 -3 -14 -20 -14 -43 0 -54 10 -85 25 -79 7 2 16 -5 19 -17
6 -21 7 -21 17 -3 17 28 12 270 -6 324 -11 30 -13 61 -9 95 9 72 20 88 28 44
4 -19 13 -40 21 -47 8 -7 15 -21 15 -31 0 -18 19 -69 46 -121 17 -32 18 -116
3 -155 -16 -41 -21 -223 -7 -241 18 -21 13 -197 -7 -225 -8 -12 -15 -39 -15
-60 0 -60 -54 -146 -71 -114 -4 7 -1 71 6 142 7 72 11 133 8 138 -10 17 -22
-6 -21 -44 0 -23 -6 -47 -16 -58 -10 -10 -16 -35 -16 -62 0 -50 0 -49 -64
-109 l-48 -45 6 45 c9 60 14 193 8 204 -10 17 -22 -21 -22 -71 0 -44 -5 -58
-35 -95 -19 -24 -40 -53 -47 -65 -6 -13 -21 -23 -33 -23 l-22 0 18 57 c20 58
26 143 10 143 -10 0 -35 -59 -46 -107 -3 -18 -13 -33 -20 -33 -8 0 -22 -13
-31 -30 -30 -50 -73 -52 -49 -2 7 15 16 57 19 94 5 56 4 67 -8 62 -8 -3 -17
-1 -21 5 -3 6 -10 11 -16 11 -15 0 -10 -32 7 -51 20 -23 11 -67 -16 -77 -10
-4 -29 -23 -42 -42 -46 -68 -81 -34 -42 42 11 22 14 43 9 80 -4 27 -10 46 -14
43 -6 -7 -7 -13 -10 -77 -1 -26 -6 -38 -15 -38 -20 0 -76 -49 -76 -66 0 -8 -7
-14 -15 -14 -18 0 -21 90 -4 107 12 12 20 130 11 147 -9 16 -22 -19 -22 -60 0
-23 -7 -55 -15 -70 -8 -16 -15 -37 -15 -47 0 -11 -9 -21 -20 -24 -12 -3 -27
-18 -35 -33 -13 -25 -55 -48 -55 -31 0 8 15 57 27 91 3 8 7 51 9 95 4 73 3 78
-11 61 -8 -11 -12 -28 -9 -39 4 -13 0 -20 -14 -24 -17 -4 -18 -8 -9 -33 14
-36 -4 -80 -32 -80 -12 0 -23 -11 -29 -29 -11 -32 -47 -58 -57 -41 -3 5 -1 19
5 30 13 25 21 178 10 185 -15 10 -24 -18 -21 -71 2 -47 0 -53 -28 -73 -17 -12
-38 -35 -48 -51 -9 -17 -23 -30 -30 -30 -17 0 -17 31 3 116 11 47 14 84 9 110
-6 33 -9 36 -16 19 -4 -11 -11 -46 -14 -77 -5 -46 -12 -62 -33 -79 -15 -11
-34 -35 -42 -52 -8 -17 -21 -32 -27 -35 -20 -6 -17 100 4 136 10 17 14 36 9
48 -7 18 -8 17 -26 -6 -11 -14 -20 -29 -20 -35 -1 -36 -23 -85 -38 -85 -9 0
-25 -14 -34 -30 -16 -29 -48 -41 -48 -19 0 6 6 34 14 62 8 29 17 89 21 135 6
80 6 83 -13 73 -19 -10 -31 -67 -32 -151 -1 -53 -49 -103 -64 -65 -9 24 -22
17 -32 -17 l-9 -32 -165 3 c-91 1 -302 4 -470 6 -174 2 -326 8 -355 14 -27 6
-68 14 -90 18 -22 3 -47 12 -56 20 -9 7 -38 17 -65 22 -44 7 -66 15 -114 43
-65 38 -103 49 -143 43 l-43 -7 -13 44 c-12 39 -14 41 -23 21 -13 -28 -85 -37
-99 -12 -10 20 -62 35 -67 20 -2 -5 -9 -8 -15 -6 -37 11 -71 16 -64 8 11 -11
-193 -32 -218 -23 -62 24 -136 33 -197 22 -35 -5 -121 -8 -193 -7 -113 3 -232
4 -430 2 -27 0 -68 0 -90 0 -182 2 -524 -3 -529 -8 -3 -3 -70 -3 -148 0 -79 3
-174 4 -213 2 -115 -5 -437 2 -763 16 -67 3 -118 1 -125 -5 -7 -5 -58 -13
-115 -17 -92 -6 -109 -5 -162 15 -56 21 -65 22 -152 10 -51 -7 -100 -12 -108
-11 -41 1 -811 20 -846 20 -32 1 -41 5 -40 17 0 9 -5 19 -11 21 -8 3 -13 -4
-13 -15 0 -27 -36 -35 -129 -27 -42 4 -103 2 -136 -3 -108 -19 -227 22 -173
60 10 7 8 8 -5 4 -11 -3 -30 -9 -43 -12 -14 -4 -24 -13 -24 -24 0 -22 -63 -32
-175 -29 -38 1 -125 1 -191 0 -67 -2 -148 2 -179 9 -32 7 -77 9 -102 5 -45 -7
-103 8 -103 26 0 16 -53 10 -73 -8 -15 -14 -42 -19 -129 -22 -64 -2 -119 1
-132 7 -11 6 -37 13 -56 17 -105 18 -101 18 -107 -3 -5 -19 -13 -20 -158 -21
-138 0 -153 1 -151 17 1 13 -8 17 -46 17 -55 1 -78 16 -58 40 11 13 8 15 -24
15 -34 0 -35 -1 -24 -25 9 -21 8 -28 -7 -45 -23 -25 -98 -29 -89 -5 4 9 0 15
-10 15 -9 0 -16 -7 -16 -15 0 -21 -68 -20 -91 1 -17 15 -21 15 -41 2 -34 -22
-95 -29 -147 -17 -25 6 -64 12 -86 13 -22 2 -56 7 -76 11 -32 6 -37 5 -42 -15
-5 -20 -10 -22 -44 -17 -21 4 -53 7 -72 7 -33 0 -34 1 -15 15 18 14 18 14 -8
15 -15 0 -30 -5 -34 -11 -3 -6 -16 -8 -27 -5 -12 3 -27 0 -35 -6 -10 -9 -29
-8 -77 1 -35 7 -69 10 -74 6 -6 -3 -27 -1 -46 6 -29 11 -52 10 -138 -4 -194
-31 -347 -38 -392 -17 -102 47 -244 55 -190 10 8 -7 15 -16 15 -21 0 -14 -49
-22 -63 -11 -9 8 -31 7 -77 -4 -35 -8 -92 -14 -125 -14 -33 1 -121 -4 -195
-10 -74 -6 -162 -12 -195 -14 -60 -3 -161 -18 -246 -37 -31 -7 -54 -7 -73 1
-15 5 -53 10 -85 10 -51 0 -59 -3 -64 -21 -5 -18 -12 -20 -89 -19 -46 1 -119
-4 -163 -10 -141 -21 -194 -21 -213 1 -21 25 -30 24 -58 -6 -25 -27 -36 -29
-137 -16 -37 5 -80 6 -94 2 -17 -5 -38 -2 -55 7 -30 14 -48 9 -48 -14 0 -8 -9
-14 -20 -14 -11 0 -20 4 -20 9 0 9 -16 12 -143 27 -31 3 -60 10 -63 15 -3 5
-10 9 -16 9 -7 0 -6 -5 1 -14 18 -22 0 -27 -92 -25 -46 1 -88 0 -94 -4 -5 -3
-31 0 -58 8 -54 17 -147 20 -173 6 -10 -5 -66 -4 -132 1 -152 13 -337 13 -353
0 -9 -8 -40 -7 -107 2 -52 8 -113 12 -135 10 -94 -9 -344 -10 -393 -3 -28 4
-76 4 -105 -1 -28 -4 -122 -5 -207 -1 -100 5 -160 4 -169 -3 -7 -6 -45 -9 -85
-9 -100 3 -329 -16 -341 -28 -16 -16 -45 -10 -54 14 -13 32 -34 215 -30 262 3
33 8 41 27 43 29 4 28 30 -2 42 -13 5 -28 22 -35 40 -6 18 -16 30 -23 28 -19
-7 -21 -55 -5 -96 11 -29 13 -52 5 -107 -5 -38 -8 -80 -5 -92 2 -12 -1 -24 -7
-26 -7 -2 -6 -16 2 -45 16 -54 7 -93 -22 -91 -58 5 -77 -1 -87 -28 -10 -26
-12 -27 -23 -10 -15 20 -33 22 -38 5 -3 -7 -12 -9 -22 -5 -12 5 -16 15 -14 34
2 22 -2 28 -22 33 -18 4 -26 14 -28 33 -2 16 -10 31 -18 34 -20 8 -17 31 6 38
10 3 35 3 53 0 41 -8 61 11 23 21 -14 3 -29 3 -35 0 -19 -12 -43 6 -37 29 4
15 1 25 -8 28 -8 3 -16 16 -18 29 -2 13 -7 21 -13 18 -13 -6 -9 -214 5 -256 6
-17 11 -67 12 -112 0 -51 5 -86 13 -92 6 -5 11 -27 10 -47 -1 -29 -6 -41 -24
-50 -22 -10 -19 -12 31 -18 31 -4 64 -5 74 -3 35 6 81 99 99 200 8 42 13 44
138 58 39 4 116 15 169 25 88 15 191 16 1085 11 543 -3 1159 -9 1368 -12 375
-6 809 7 920 27 28 6 97 14 155 19 58 6 129 14 159 20 30 5 92 10 137 10 45 0
117 6 160 14 44 8 138 17 209 21 72 3 155 10 185 15 30 5 132 17 225 26 154
15 316 16 1725 10 855 -3 1665 -8 1800 -9 135 -2 1309 -7 2608 -12 l2364 -8 8
-23 c11 -29 64 -54 137 -64 57 -8 97 -17 199 -46 28 -8 63 -14 78 -14 15 0 37
-5 49 -12 12 -6 51 -15 87 -19 36 -4 99 -12 140 -19 52 -7 334 -10 925 -9 998
2 1311 14 1365 52 14 10 34 13 61 10 34 -5 42 -2 68 26 25 26 36 31 76 31 60
0 124 18 151 42 45 40 72 141 86 328 18 237 -5 505 -50 598 -24 50 -58 69
-132 75 -106 8 -128 16 -164 58 -18 22 -40 39 -49 39 -20 0 -21 -9 -7 -45 7
-18 7 -33 0 -46 -15 -27 -34 -14 -63 41 -18 34 -30 46 -50 48 -15 2 -27 0 -27
-4z m306 -206 c7 -22 25 -53 39 -70 14 -16 25 -34 25 -39 0 -5 10 -9 23 -9 32
0 67 -27 67 -53 0 -12 7 -31 15 -41 38 -51 0 -151 -65 -173 -32 -10 -37 -9
-52 10 -17 21 -18 19 -18 -75 0 -53 3 -103 6 -112 7 -19 35 -21 52 -4 17 17
32 -30 19 -65 -5 -15 -7 -41 -4 -57 4 -18 1 -32 -8 -40 -16 -13 -19 -8 -28 35
-3 18 -5 18 -14 -5 -21 -51 -30 -109 -19 -120 8 -9 6 -11 -9 -8 -16 2 -21 -4
-25 -32 -4 -26 -10 -36 -26 -38 -31 -4 -34 14 -18 121 10 68 12 114 5 159 -5
35 -7 135 -4 223 3 92 0 198 -7 250 -14 112 -19 185 -13 207 4 15 6 15 24 -3
11 -11 27 -38 35 -61z m-11618 -730 c-6 -16 -33 -22 -56 -13 -14 5 -14 7 -2
15 22 14 62 12 58 -2z m-5095 -321 c26 -10 12 -26 -21 -24 -23 2 -27 7 -30 37
-2 34 -2 35 15 15 10 -12 26 -24 36 -28z"/>
<path d="M17520 8474 c0 -14 4 -23 9 -20 5 3 7 15 4 26 -7 28 -13 25 -13 -6z"/>
<path d="M1582 8777 c-25 -30 0 -53 54 -48 12 1 27 -5 34 -14 8 -9 29 -15 56
-15 42 0 44 1 44 30 0 37 -17 46 -106 55 -56 5 -73 4 -82 -8z"/>
<path d="M3730 8779 c-58 -8 -104 -23 -159 -53 -33 -18 -34 -19 -16 -32 11 -9
26 -11 35 -7 8 5 62 8 120 9 111 0 160 15 174 51 15 39 -35 50 -154 32z"/>
<path d="M4166 8769 c-10 -6 -35 -9 -55 -5 -27 4 -44 0 -66 -14 -17 -11 -40
-20 -51 -20 -32 0 -45 -21 -31 -50 17 -34 33 -35 60 -6 20 21 30 25 56 20 33
-7 177 22 186 36 7 11 -44 50 -64 50 -9 0 -24 -5 -35 -11z"/>
<path d="M1015 8693 c-4 -16 -13 -41 -22 -56 -10 -20 -13 -42 -8 -77 4 -32 2
-56 -6 -72 -8 -12 -14 -32 -15 -43 -2 -11 -6 -39 -9 -62 -6 -36 -5 -43 14 -52
12 -7 25 -10 30 -7 15 10 20 72 10 146 -10 79 -1 110 31 110 22 0 22 -1 25 60
1 32 -3 50 -16 63 -24 23 -28 22 -34 -10z"/>
<path d="M1440 8705 c0 -12 7 -15 25 -13 14 2 26 8 26 13 0 6 -12 11 -26 13
-18 2 -25 -1 -25 -13z"/>
<path d="M1840 8695 c44 -25 51 -28 58 -20 11 11 -29 35 -57 35 l-26 0 25 -15z"/>
<path d="M3927 8624 c-12 -12 3 -22 23 -17 11 3 17 9 14 14 -6 10 -28 12 -37
3z"/>
<path d="M4550 8605 c0 -18 7 -26 24 -31 43 -10 59 11 30 40 -25 25 -54 20
-54 -9z"/>
<path d="M4159 8599 c-14 -28 1 -44 35 -35 42 10 30 56 -14 56 -5 0 -14 -9
-21 -21z"/>
<path d="M1718 8599 c-24 -13 -23 -29 1 -29 21 0 45 23 34 33 -8 9 -15 8 -35
-4z"/>
<path d="M3830 8590 c0 -5 9 -10 20 -10 11 0 20 5 20 10 0 6 -9 10 -20 10 -11
0 -20 -4 -20 -10z"/>
<path d="M4970 8551 c0 -20 13 -35 23 -25 7 8 -4 44 -14 44 -5 0 -9 -9 -9 -19z"/>
<path d="M15302 8545 c-13 -13 -21 -28 -18 -34 4 -5 -3 -25 -14 -44 -32 -54
-6 -60 42 -9 29 32 38 49 38 77 0 41 -14 44 -48 10z"/>
<path d="M16051 8478 c1 -52 3 -66 9 -48 12 36 12 120 0 120 -6 0 -10 -30 -9
-72z"/>
<path d="M3120 8444 c0 -9 5 -14 12 -12 18 6 21 28 4 28 -9 0 -16 -7 -16 -16z"/>
<path d="M2355 8440 c-10 -17 43 -66 56 -53 8 8 6 18 -7 37 -20 27 -39 33 -49
16z"/>
<path d="M3310 8405 c0 -8 7 -15 15 -15 8 0 15 7 15 15 0 8 -7 15 -15 15 -8 0
-15 -7 -15 -15z"/>
<path d="M4857 8413 c-15 -14 -6 -23 23 -23 32 0 40 14 14 24 -20 8 -29 8 -37
-1z"/>
<path d="M14790 8390 c0 -17 17 -19 146 -21 71 -1 134 -6 141 -11 7 -6 9 -23
6 -42 -6 -36 11 -56 30 -37 6 6 27 11 47 11 38 0 80 23 80 44 0 16 -31 26 -84
26 -25 0 -43 6 -51 17 -10 14 -36 17 -164 19 -87 2 -151 0 -151 -6z"/>
<path d="M567 8383 c-10 -17 6 -123 18 -123 17 0 25 23 15 40 -4 7 -3 26 2 43
8 22 8 31 -3 38 -17 11 -27 11 -32 2z"/>
<path d="M6360 8355 c-16 -19 8 -30 46 -21 21 6 24 9 14 21 -16 19 -44 19 -60
0z"/>
<path d="M2478 8349 c-20 -11 -24 -44 -7 -54 14 -9 71 15 66 28 -7 21 -41 36
-59 26z"/>
<path d="M2906 8353 c-13 -13 -5 -43 13 -53 28 -15 41 -12 41 8 -1 19 -44 55
-54 45z"/>
<path d="M3714 8345 c-11 -27 4 -45 36 -45 36 0 40 22 8 44 -28 20 -37 20 -44
1z"/>
<path d="M7220 8345 c-14 -16 -5 -35 16 -35 15 0 20 35 5 44 -5 3 -14 -1 -21
-9z"/>
<path d="M14397 8352 c-10 -15 -12 -80 -3 -89 12 -13 17 6 14 53 -2 32 -6 44
-11 36z"/>
<path d="M1220 8341 c0 -13 37 -24 50 -16 6 4 8 11 5 16 -8 12 -55 12 -55 0z"/>
<path d="M1653 8338 c-24 -12 -29 -23 -13 -33 12 -8 50 16 50 32 0 15 -7 15
-37 1z"/>
<path d="M6012 8330 c-15 -24 -16 -50 -2 -50 6 0 10 6 10 13 0 7 9 18 20 25
11 7 20 17 20 22 0 18 -35 11 -48 -10z"/>
<path d="M6464 8336 c-10 -8 -16 -17 -13 -20 3 -3 14 3 24 14 21 23 17 26 -11
6z"/>
<path d="M15257 8344 c-25 -26 19 -62 53 -44 22 12 27 40 8 40 -7 0 -22 3 -33
6 -11 3 -24 2 -28 -2z"/>
<path d="M15425 8340 c-11 -5 -32 -9 -47 -9 -17 -1 -28 -7 -28 -15 0 -10 15
-14 53 -15 83 -2 123 -1 178 1 42 3 54 -1 69 -19 20 -25 40 -30 40 -11 0 6 7
20 16 30 14 14 14 18 3 22 -8 2 -29 9 -48 15 -40 13 -207 13 -236 1z"/>
<path d="M2020 8332 c0 -27 50 -41 80 -22 13 9 13 11 0 20 -18 12 -80 13 -80
2z"/>
<path d="M3320 8328 c-24 -10 -24 -10 -5 -18 11 -5 33 -9 49 -9 22 -1 27 3 22
15 -3 9 -6 18 -6 20 0 7 -34 3 -60 -8z"/>
<path d="M15860 8325 c0 -8 5 -15 10 -15 6 0 10 7 10 15 0 8 -4 15 -10 15 -5
0 -10 -7 -10 -15z"/>
<path d="M682 8313 c5 -25 28 -28 28 -4 0 12 -6 21 -16 21 -9 0 -14 -7 -12
-17z"/>
<path d="M5700 8320 c0 -5 7 -10 15 -10 8 0 18 0 22 -1 4 0 9 4 11 10 2 6 -8
11 -22 11 -14 0 -26 -4 -26 -10z"/>
<path d="M6214 8319 c-3 -6 -1 -16 5 -22 13 -13 42 0 49 21 5 15 -44 16 -54 1z"/>
<path d="M7147 8323 c-8 -7 11 -33 24 -33 5 0 13 9 19 20 9 17 8 20 -13 20
-13 0 -27 -3 -30 -7z"/>
<path d="M14476 8311 c-14 -16 -17 -45 -20 -177 -2 -88 -6 -167 -11 -176 -5
-14 -2 -18 13 -18 11 0 22 7 26 15 4 11 13 14 30 9 13 -3 27 -1 31 5 4 8 12 8
25 1 10 -5 33 -7 50 -4 24 5 39 1 62 -16 30 -22 30 -22 229 -11 110 7 203 10
207 7 14 -9 38 12 27 23 -19 19 -237 25 -331 11 -84 -13 -87 -13 -129 10 -35
19 -46 21 -58 11 -11 -8 -17 -9 -22 -1 -4 6 -18 9 -33 8 -25 -3 -40 13 -78 89
-8 17 30 79 46 75 18 -4 30 17 30 55 0 22 -10 44 -31 68 -36 40 -40 42 -63 16z"/>
<path d="M16014 8316 c-9 -24 0 -109 13 -113 17 -6 26 33 18 83 -6 43 -21 57
-31 30z"/>
<path d="M13268 8313 c-19 -5 -24 -18 -9 -27 12 -8 71 14 71 25 0 9 -31 10
-62 2z"/>
<path d="M15808 8315 c-9 -10 7 -78 20 -83 10 -3 12 5 6 34 -7 40 -16 58 -26
49z"/>
<path d="M1000 8284 c-21 -55 -8 -81 36 -70 44 11 26 96 -21 96 -3 0 -10 -12
-15 -26z"/>
<path d="M6600 8296 c0 -11 9 -16 26 -16 31 0 28 23 -4 28 -15 2 -22 -2 -22
-12z"/>
<path d="M11984 8297 c-16 -9 -16 -11 0 -22 12 -10 24 -10 49 -1 18 6 35 16
37 21 6 13 -63 15 -86 2z"/>
<path d="M12792 8301 c-12 -7 -12 -12 -1 -29 11 -17 11 -24 1 -34 -28 -28 -12
-54 28 -48 22 3 24 8 10 25 -10 12 -10 21 -1 41 9 20 9 30 0 40 -13 16 -19 17
-37 5z"/>
<path d="M14007 8303 c-2 -4 -2 -24 0 -44 5 -36 51 -99 72 -99 16 0 13 42 -3
66 -8 11 -16 33 -18 49 -2 22 -9 31 -25 33 -11 2 -23 0 -26 -5z"/>
<path d="M14138 8285 c5 -30 20 -41 34 -27 15 15 0 52 -21 52 -14 0 -17 -6
-13 -25z"/>
<path d="M4487 8283 c-20 -19 -5 -33 36 -33 l42 1 -24 19 c-24 21 -43 25 -54
13z"/>
<path d="M14597 8283 c-13 -13 -7 -42 11 -47 31 -8 125 -1 129 10 2 7 -16 14
-46 18 -28 4 -53 11 -56 16 -7 11 -29 13 -38 3z"/>
<path d="M14987 8283 c-3 -5 -2 -15 3 -22 10 -17 43 -6 38 12 -6 15 -34 22
-41 10z"/>
<path d="M5124 8265 c-9 -23 4 -47 23 -43 22 4 30 38 11 49 -19 13 -28 11 -34
-6z"/>
<path d="M11600 8270 c-13 -9 -13 -11 0 -19 17 -12 30 -5 30 15 0 16 -9 18
-30 4z"/>
<path d="M14900 8250 c0 -26 4 -30 27 -30 25 0 25 1 10 18 -10 10 -17 24 -17
30 0 7 -4 12 -10 12 -5 0 -10 -13 -10 -30z"/>
<path d="M1407 8264 c-16 -16 -6 -61 18 -84 20 -18 28 -21 37 -12 7 7 24 12
39 12 26 0 59 22 59 39 0 18 -28 41 -57 47 -25 5 -33 2 -43 -15 l-11 -22 -17
21 c-10 12 -21 18 -25 14z"/>
<path d="M2204 8256 c-10 -27 1 -60 23 -72 13 -6 32 -19 42 -28 22 -20 24 -19
75 26 58 51 46 88 -22 67 -32 -9 -44 -8 -70 5 -38 20 -41 20 -48 2z"/>
<path d="M2665 8245 c-3 -8 -7 -22 -10 -30 -9 -28 13 -65 38 -65 21 0 35 8 85
50 25 22 14 40 -26 38 -21 0 -48 4 -60 11 -18 10 -23 9 -27 -4z"/>
<path d="M15927 8253 c-13 -12 -7 -43 8 -43 9 0 15 9 15 25 0 24 -10 32 -23
18z"/>
<path d="M1813 8235 c-13 -9 -23 -20 -23 -26 0 -5 10 -9 23 -9 21 0 45 -29 70
-85 9 -18 10 -17 18 11 5 18 20 39 35 48 32 22 32 73 -1 68 -41 -5 -51 -5 -75
2 -16 4 -33 1 -47 -9z"/>
<path d="M3147 8244 c-4 -4 -21 -7 -39 -8 -29 -1 -33 -4 -36 -33 -5 -54 69
-88 87 -39 5 13 17 26 25 29 9 4 16 18 16 32 0 20 -5 25 -23 25 -13 0 -27 -3
-30 -6z"/>
<path d="M4361 8217 c-5 -14 -15 -28 -20 -32 -16 -10 -13 -45 4 -45 8 0 29 12
46 28 l30 27 -25 24 -25 24 -10 -26z"/>
<path d="M5822 8223 c-20 -14 -29 -15 -56 -5 -44 16 -46 16 -46 -13 0 -32 -31
-51 -97 -60 -72 -9 -74 -21 -7 -30 45 -5 60 -3 82 12 81 54 110 66 149 58 39
-7 42 -23 8 -55 -14 -13 -25 -29 -25 -36 0 -18 33 -26 75 -18 27 5 35 3 35 -9
0 -23 31 -29 52 -10 14 12 21 14 30 5 9 -9 16 -8 31 6 29 26 203 19 234 -10
20 -19 23 -19 55 -4 24 11 71 16 178 18 80 1 152 5 161 9 9 5 21 3 28 -4 7 -7
33 -13 59 -15 26 -1 58 -3 72 -4 14 -1 89 5 168 12 101 10 145 11 153 3 8 -8
17 -5 32 11 20 18 21 24 10 46 -7 14 -13 32 -13 41 0 8 -18 27 -40 42 -22 14
-40 24 -40 22 0 -12 25 -55 32 -55 4 0 8 -11 8 -25 0 -31 -17 -32 -70 -5 -22
11 -55 20 -75 20 -24 0 -35 4 -35 15 0 8 -5 15 -11 15 -6 0 -8 -8 -4 -19 4
-15 -5 -22 -47 -40 -102 -43 -193 -38 -168 9 7 13 6 20 -6 24 -11 4 -18 -1
-21 -14 -6 -24 -16 -25 -47 -5 -18 12 -29 13 -52 5 -21 -8 -40 -8 -71 1 -35 9
-46 9 -59 -2 -26 -21 -110 -47 -137 -42 -14 3 -38 19 -52 35 -21 23 -32 28
-48 23 -30 -10 -84 -7 -108 5 -22 12 -111 -10 -138 -34 -9 -7 -26 -17 -38 -20
-18 -6 -25 -2 -32 17 -5 13 -16 27 -25 30 -8 3 -16 18 -18 34 -4 34 -32 40
-66 16z"/>
<path d="M6252 8231 c-11 -6 -11 -10 0 -19 16 -13 44 1 34 17 -8 13 -16 14
-34 2z"/>
<path d="M16927 8234 c-9 -10 2 -24 19 -24 8 0 14 7 14 15 0 15 -21 21 -33 9z"/>
<path d="M3595 8221 c-3 -5 -30 -7 -60 -4 -37 4 -60 2 -70 -7 -14 -12 -12 -16
14 -43 24 -23 29 -33 21 -47 -7 -13 -5 -21 5 -30 20 -17 38 -2 31 27 -6 21 -1
26 49 48 30 14 55 29 55 35 0 14 -38 32 -45 21z"/>
<path d="M14337 8224 c-4 -4 -7 -14 -7 -23 0 -11 3 -12 11 -4 6 6 10 16 7 23
-2 6 -7 8 -11 4z"/>
<path d="M1073 8208 c2 -7 10 -13 17 -13 7 0 15 6 18 13 2 7 -5 12 -18 12 -13
0 -20 -5 -17 -12z"/>
<path d="M12354 8209 c-9 -15 12 -33 30 -26 9 4 16 13 16 22 0 17 -35 21 -46
4z"/>
<path d="M13192 8203 c2 -10 10 -18 18 -18 22 0 18 29 -3 33 -14 3 -18 -1 -15
-15z"/>
<path d="M13620 8205 c0 -8 5 -15 10 -15 6 0 10 7 10 15 0 8 -4 15 -10 15 -5
0 -10 -7 -10 -15z"/>
<path d="M14716 8213 c-11 -11 -6 -23 9 -23 8 0 15 4 15 9 0 13 -16 22 -24 14z"/>
<path d="M16110 8201 c0 -12 5 -21 10 -21 6 0 10 6 10 14 0 8 -4 18 -10 21 -5
3 -10 -3 -10 -14z"/>
<path d="M3880 8200 c0 -4 9 -10 20 -13 16 -4 20 -14 20 -46 0 -23 1 -41 3
-41 12 0 99 91 93 97 -10 10 -136 12 -136 3z"/>
<path d="M8067 8203 c-15 -14 -6 -41 15 -47 29 -7 42 6 33 33 -6 20 -34 28
-48 14z"/>
<path d="M14275 8199 c-4 -6 -19 -7 -36 -4 -25 6 -30 3 -39 -19 -7 -20 -16
-26 -40 -26 -38 0 -67 -38 -51 -68 13 -25 30 -31 105 -39 34 -3 69 -12 78 -20
15 -13 21 -12 52 14 20 15 36 34 36 41 0 17 -17 15 -24 -4 -8 -20 -45 -15 -60
8 -8 13 -6 25 7 47 17 29 17 32 1 56 -18 28 -20 29 -29 14z"/>
<path d="M12672 8188 c-7 -7 -36 -12 -70 -11 -58 2 -59 1 -115 -53 l-57 -54
20 -20 c23 -23 51 -25 83 -8 12 7 45 15 72 18 l50 5 -2 40 c-2 35 1 43 27 60
17 11 30 23 30 28 0 11 -25 8 -38 -5z"/>
<path d="M5022 8153 c-22 -25 -29 -58 -14 -67 5 -3 19 8 30 24 38 50 24 88
-16 43z"/>
<path d="M9518 8137 l-23 -42 -73 -3 c-55 -2 -72 -6 -72 -17 0 -11 12 -15 41
-15 22 0 49 -5 61 -11 14 -8 27 -8 46 0 15 6 55 13 89 16 34 2 72 9 83 15 12
6 34 9 50 5 26 -6 29 -3 35 26 9 38 -17 68 -42 47 -15 -12 -122 -4 -153 12
-16 8 -22 4 -42 -33z"/>
<path d="M13825 8173 c-80 -3 -93 -7 -116 -29 -15 -14 -32 -22 -41 -19 -8 3
-21 -1 -28 -10 -10 -12 -10 -18 0 -30 12 -14 15 -14 30 0 14 13 19 13 35 1 16
-11 17 -17 7 -29 -10 -12 -8 -16 13 -21 28 -7 69 10 60 25 -4 5 0 11 7 13 78
22 101 33 110 50 6 12 17 25 25 29 13 8 9 29 -5 25 -4 -1 -47 -4 -97 -5z"/>
<path d="M1730 8160 c0 -5 7 -10 15 -10 8 0 15 5 15 10 0 6 -7 10 -15 10 -8 0
-15 -4 -15 -10z"/>
<path d="M12935 8160 c-3 -5 -20 -13 -37 -18 -25 -6 -31 -14 -34 -39 -4 -33
16 -63 41 -63 8 0 26 12 39 27 24 26 28 27 58 15 18 -7 37 -14 42 -15 11 -2
31 35 41 76 6 24 5 27 -19 27 -14 0 -35 -6 -46 -12 -15 -10 -22 -10 -32 0 -14
14 -44 16 -53 2z"/>
<path d="M13355 8145 c-16 -13 -45 -27 -63 -31 -37 -7 -58 -34 -40 -52 18 -18
98 -15 119 4 19 17 45 20 72 9 19 -8 22 8 11 64 -6 27 -11 31 -38 31 -18 0
-43 -10 -61 -25z"/>
<path d="M7778 8141 c-44 -15 -48 -18 -48 -50 0 -31 2 -33 28 -26 15 4 51 9
80 12 48 4 54 3 59 -16 8 -29 32 -26 44 6 14 37 7 49 -47 72 -53 24 -52 24
-116 2z"/>
<path d="M12144 8143 c-7 -11 -28 -16 -77 -16 -41 0 -67 -5 -67 -11 0 -20 51
-66 73 -66 12 0 32 -3 44 -6 18 -5 25 -1 33 21 8 22 15 26 42 23 29 -3 33 0
33 21 0 19 -8 27 -36 36 -30 11 -37 10 -45 -2z"/>
<path d="M5435 8141 c-3 -6 2 -14 11 -19 8 -5 21 -20 27 -33 8 -15 23 -25 41
-27 34 -4 47 6 40 33 -10 37 -102 73 -119 46z"/>
<path d="M7298 8123 c-31 -21 -36 -28 -27 -44 13 -25 52 -34 90 -20 18 6 52
11 75 11 24 0 44 5 44 10 0 6 -9 10 -20 10 -10 0 -24 9 -30 20 -6 11 -21 20
-35 20 -13 0 -27 5 -30 10 -10 15 -27 11 -67 -17z"/>
<path d="M10825 8142 c-3 -4 -29 -9 -58 -12 -42 -4 -54 -10 -64 -29 -17 -34 0
-65 30 -54 12 4 59 6 105 4 93 -3 101 5 57 57 -25 29 -58 45 -70 34z"/>
<path d="M11255 8134 c-12 -9 -35 -14 -59 -12 -35 3 -40 0 -49 -25 -6 -19 -6
-32 1 -39 15 -15 212 -16 209 -2 -1 6 9 20 22 31 20 17 22 22 12 41 -10 18
-20 22 -64 22 -31 -1 -60 -7 -72 -16z"/>
<path d="M3405 8130 c-7 -12 2 -30 16 -30 12 0 12 27 0 35 -5 3 -12 1 -16 -5z"/>
<path d="M8165 8131 c-6 -5 -21 -11 -35 -13 -17 -2 -26 -10 -28 -25 -3 -21 1
-23 40 -24 24 -1 48 0 53 2 6 1 29 4 51 7 35 3 44 0 58 -19 9 -13 19 -39 22
-59 10 -63 14 -68 30 -37 10 18 13 39 9 58 -4 17 -2 36 5 44 9 10 6 15 -12 21
-12 3 -31 17 -41 30 -16 21 -27 24 -81 24 -34 0 -66 -4 -71 -9z"/>
<path d="M11547 8128 c-33 -12 -31 -32 4 -36 13 -2 37 -16 52 -30 24 -23 37
-27 85 -27 74 1 106 21 108 71 1 35 0 36 -30 29 -41 -10 -135 -11 -166 -3 -14
4 -38 2 -53 -4z"/>
<path d="M4653 8117 c-4 -7 -20 -18 -35 -24 -37 -16 -35 -29 4 -42 36 -13 48
-5 52 30 1 14 6 30 10 37 4 7 1 12 -8 12 -8 0 -19 -6 -23 -13z"/>
<path d="M9950 8121 c-44 -9 -60 -18 -60 -35 0 -22 49 -37 96 -30 40 6 44 4
55 -20 15 -33 29 -34 29 -2 0 17 8 27 28 34 22 9 23 11 6 11 -11 1 -35 12 -54
26 -35 26 -42 27 -100 16z"/>
<path d="M1677 8113 c-10 -9 -9 -53 2 -53 12 0 22 43 13 52 -5 5 -11 5 -15 1z"/>
<path d="M7987 8113 c-9 -9 12 -33 29 -33 17 0 18 12 2 28 -14 14 -22 15 -31
5z"/>
<path d="M8960 8095 l-34 -25 46 0 c51 0 84 24 57 41 -22 14 -32 11 -69 -16z"/>
<path d="M2056 8101 c-3 -5 -6 -24 -5 -43 0 -18 -3 -46 -7 -62 -7 -29 -7 -29
31 -23 23 4 44 2 52 -4 9 -8 14 -7 19 6 8 19 -3 32 -31 37 -16 3 -20 11 -20
48 0 33 -4 45 -17 48 -9 2 -19 -1 -22 -7z"/>
<path d="M5100 8092 c0 -11 -3 -27 -6 -36 -5 -12 1 -16 23 -16 16 0 36 -9 46
-20 20 -24 36 -25 63 -5 10 8 31 15 47 15 15 0 27 4 27 9 0 14 -33 19 -87 14
-56 -6 -95 9 -91 34 2 9 -3 18 -9 20 -8 3 -13 -4 -13 -15z"/>
<path d="M8655 8100 c3 -5 17 -10 31 -10 13 0 24 5 24 10 0 6 -14 10 -31 10
-17 0 -28 -4 -24 -10z"/>
<path d="M8801 8103 c-7 -3 -21 -13 -31 -23 -10 -10 -24 -20 -31 -23 -22 -8
11 -29 36 -22 11 2 29 5 40 5 16 0 20 7 21 35 0 34 -6 39 -35 28z"/>
<path d="M14810 8093 c-14 -3 -29 -9 -34 -14 -6 -5 32 -9 97 -9 98 0 131 9 91
24 -17 7 -114 6 -154 -1z"/>
<path d="M3710 8071 c-16 -31 -12 -47 15 -59 27 -12 32 -27 14 -38 -6 -3 -22
5 -35 20 -14 14 -35 26 -47 26 -13 0 -32 7 -43 15 -21 16 -64 21 -48 5 5 -5
29 -20 54 -33 25 -13 50 -34 57 -48 7 -13 16 -24 20 -23 4 0 31 4 60 8 52 8
52 9 46 40 -3 17 -10 33 -15 34 -5 2 -15 19 -23 38 -16 38 -39 44 -55 15z"/>
<path d="M2455 8049 l-26 -32 33 -28 c23 -20 44 -28 71 -29 54 0 59 23 13 64
-20 19 -36 39 -36 45 0 21 -28 11 -55 -20z"/>
<path d="M2894 8067 c-3 -8 -4 -23 -2 -33 2 -14 -3 -18 -17 -17 -29 3 -98 5
-112 4 -25 -2 -12 -31 20 -46 17 -9 48 -25 67 -36 19 -10 50 -19 68 -19 29 0
32 3 27 20 -5 17 -2 19 32 17 28 -1 38 2 41 15 2 11 -6 18 -27 23 -21 4 -35
17 -48 43 -20 40 -40 52 -49 29z"/>
<path d="M3290 8046 c-17 -54 -69 -63 -109 -20 l-25 26 -8 -22 c-4 -12 -17
-24 -28 -27 -12 -3 -19 -11 -17 -17 2 -7 25 -10 61 -7 46 2 62 -1 79 -17 12
-11 41 -22 65 -26 38 -6 42 -4 42 14 0 23 18 27 26 5 8 -20 64 -20 64 0 0 9
-11 20 -25 25 -14 5 -28 18 -32 27 -8 25 -54 73 -69 73 -7 0 -18 -15 -24 -34z"/>
<path d="M4320 8061 c0 -9 11 -28 25 -41 17 -16 25 -34 25 -57 0 -26 4 -33 20
-33 11 0 29 9 41 21 16 16 28 20 55 14 31 -5 34 -4 34 17 0 13 -5 30 -10 38
-8 12 -13 11 -39 -8 -29 -21 -32 -22 -56 -6 -14 9 -25 20 -25 24 0 4 -16 17
-35 29 -33 19 -35 19 -35 2z"/>
<path d="M4224 8046 c-7 -30 -5 -30 -48 -12 -26 11 -44 12 -75 4 -28 -7 -50
-7 -72 1 -43 15 -49 14 -49 -8 0 -27 15 -34 69 -35 29 -1 60 -10 82 -24 45
-28 47 -28 59 3 5 14 26 35 45 46 36 22 41 41 12 47 -11 2 -19 -6 -23 -22z"/>
<path d="M9164 8045 c9 -13 16 -36 16 -50 0 -33 23 -32 49 1 30 38 26 49 -18
62 -58 18 -66 16 -47 -13z"/>
<path d="M4767 8054 c-20 -20 43 -34 71 -15 10 6 8 10 -10 14 -30 9 -53 9 -61
1z"/>
<path d="M4928 8053 c-10 -2 -18 -8 -18 -13 0 -4 8 -11 18 -15 16 -6 16 -7 -2
-21 -23 -16 -16 -28 11 -20 10 3 24 19 30 35 15 40 7 46 -39 34z"/>
<path d="M5360 8047 c0 -7 10 -21 22 -31 21 -18 22 -18 40 4 26 33 23 40 -22
40 -26 0 -40 -5 -40 -13z"/>
<path d="M13085 8036 c21 -18 36 -24 55 -19 57 13 55 34 -2 31 -24 -1 -52 2
-63 6 -14 5 -10 -1 10 -18z"/>
<path d="M13820 8046 c0 -8 5 -18 10 -21 6 -3 10 3 10 14 0 12 -4 21 -10 21
-5 0 -10 -6 -10 -14z"/>
<path d="M15065 8050 c-3 -5 3 -10 14 -10 12 0 21 5 21 10 0 6 -6 10 -14 10
-8 0 -18 -4 -21 -10z"/>
<path d="M12760 8032 c0 -15 -9 -26 -25 -32 -37 -14 -31 -20 21 -20 42 0 45 1
39 23 -4 12 -13 29 -21 37 -12 12 -14 11 -14 -8z"/>
<path d="M13954 8040 c-34 -14 -36 -27 -8 -49 33 -26 50 -27 64 -2 13 25 13
27 -6 45 -17 18 -20 18 -50 6z"/>
<path d="M4555 8011 c-8 -25 7 -47 24 -37 14 9 14 18 -3 41 -13 18 -14 18 -21
-4z"/>
<path d="M11420 8022 c0 -15 57 -25 77 -13 16 9 15 10 -7 11 -14 0 -35 3 -47
6 -13 4 -23 2 -23 -4z"/>
<path d="M3050 7995 c-10 -12 -9 -16 3 -21 20 -7 37 3 37 22 0 18 -24 18 -40
-1z"/>
<path d="M7945 8001 c-9 -16 3 -31 26 -31 14 0 19 6 17 17 -4 20 -33 29 -43
14z"/>
<path d="M10520 7996 c0 -9 7 -16 16 -16 9 0 14 5 12 12 -6 18 -28 21 -28 4z"/>
<path d="M5710 7990 c-12 -8 -9 -10 13 -10 16 0 26 4 22 10 -8 12 -16 12 -35
0z"/>
<path d="M8382 7988 c3 -7 15 -15 27 -16 16 -3 22 1 19 10 -3 7 -15 15 -27 16
-16 3 -22 -1 -19 -10z"/>
<path d="M15330 7962 c0 -46 7 -54 38 -45 29 7 27 22 -8 57 l-30 29 0 -41z"/>
<path d="M17280 7974 c0 -14 4 -23 10 -19 6 3 10 15 10 26 0 10 -4 19 -10 19
-5 0 -10 -12 -10 -26z"/>
<path d="M3507 7983 c-11 -10 -8 -43 4 -43 18 0 46 19 53 35 4 11 -2 15 -23
15 -15 0 -31 -3 -34 -7z"/>
<path d="M9690 7970 c0 -11 5 -20 10 -20 6 0 10 9 10 20 0 11 -4 20 -10 20 -5
0 -10 -9 -10 -20z"/>
<path d="M11030 7977 c0 -21 11 -27 31 -16 27 14 23 29 -6 29 -14 0 -25 -6
-25 -13z"/>
<path d="M762 7953 c4 -36 33 -39 33 -3 0 16 -6 26 -18 28 -15 3 -18 -2 -15
-25z"/>
<path d="M3827 7963 c-13 -12 26 -43 52 -42 22 2 23 2 5 6 -12 2 -24 13 -27
24 -5 19 -18 25 -30 12z"/>
<path d="M3936 7961 c-7 -11 14 -20 32 -14 6 3 12 9 12 14 0 12 -37 12 -44 0z"/>
<path d="M7197 7963 c-15 -14 -5 -23 26 -23 30 1 31 1 13 15 -22 17 -29 18
-39 8z"/>
<path d="M10565 7960 c-4 -6 5 -10 20 -10 15 0 24 4 20 10 -3 6 -12 10 -20 10
-8 0 -17 -4 -20 -10z"/>
<path d="M14022 7958 c3 -7 19 -14 37 -16 24 -3 32 0 29 10 -3 7 -19 14 -37
16 -24 3 -32 0 -29 -10z"/>
<path d="M15193 7963 c-7 -2 -13 -9 -13 -15 0 -12 41 -6 41 7 1 12 -11 15 -28
8z"/>
<path d="M2678 7953 c-10 -2 -18 -11 -18 -19 0 -21 33 -17 48 6 13 21 8 23
-30 13z"/>
<path d="M10170 7950 c20 -13 57 -13 65 0 4 6 -11 10 -37 10 -31 0 -39 -3 -28
-10z"/>
<path d="M5142 7938 c5 -15 37 -18 41 -3 1 6 -9 12 -22 13 -16 3 -22 -1 -19
-10z"/>
<path d="M3455 7930 c-3 -5 3 -10 14 -10 12 0 21 5 21 10 0 6 -6 10 -14 10 -8
0 -18 -4 -21 -10z"/>
<path d="M16820 7915 c0 -15 4 -24 10 -20 6 3 10 12 10 20 0 8 -4 17 -10 20
-6 4 -10 -5 -10 -20z"/>
<path d="M16902 7928 c7 -20 48 -23 48 -4 0 11 -9 16 -26 16 -16 0 -24 -5 -22
-12z"/>
<path d="M897 7873 c-15 -3 -25 -9 -22 -14 8 -12 82 -12 90 1 3 6 2 10 -4 10
-5 0 -15 2 -23 3 -7 2 -25 2 -41 0z"/>
<path d="M15230 7865 c-8 -10 -30 -15 -61 -15 -26 0 -51 -5 -55 -11 -5 -9 -60
-10 -200 -6 -162 4 -195 3 -205 -9 -7 -9 -8 -18 -3 -23 15 -14 76 -29 144 -36
36 -4 91 -13 122 -22 34 -9 69 -12 85 -8 l28 7 -30 15 -29 16 24 9 c13 5 44 8
69 6 29 -1 46 3 49 11 2 7 24 21 48 31 25 11 44 26 44 35 0 19 -14 19 -30 0z"/>
<path d="M4320 7841 c0 -17 5 -31 10 -31 6 0 10 11 10 24 0 14 -4 28 -10 31
-6 4 -10 -7 -10 -24z"/>
<path d="M16227 7863 c-13 -12 -7 -43 8 -43 8 0 15 6 15 13 0 18 -15 38 -23
30z"/>
<path d="M15277 7820 c-12 -28 -23 -40 -37 -40 -11 0 -20 -4 -20 -10 0 -5 9
-10 19 -10 11 0 23 -4 26 -10 12 -19 22 -10 17 15 -3 18 0 25 11 25 24 0 41
38 26 56 -17 21 -23 18 -42 -26z"/>
<path d="M15145 7751 c-7 -12 12 -24 25 -16 11 7 4 25 -10 25 -5 0 -11 -4 -15
-9z"/>
<path d="M1532 7189 c-17 -17 -47 -55 -68 -86 -31 -47 -38 -66 -44 -137 -8
-78 -12 -109 -47 -315 -8 -51 -17 -138 -19 -193 -2 -54 -6 -103 -8 -107 -3 -5
-7 -68 -10 -142 -2 -74 -2 -125 0 -114 24 100 33 26 22 -183 -9 -177 -8 -195
10 -264 11 -40 23 -103 27 -140 4 -41 19 -95 39 -141 65 -151 75 -156 283
-160 128 -2 153 0 176 16 40 26 72 84 87 157 19 95 23 100 78 100 27 0 53 -5
59 -11 17 -17 76 -3 100 24 11 12 23 34 27 50 l7 28 192 -6 c105 -4 233 -6
282 -6 50 0 196 -4 325 -10 340 -14 2546 -14 2690 0 63 6 174 18 245 26 72 9
171 20 220 25 50 6 103 15 119 20 16 6 54 10 85 11 31 0 81 5 111 10 30 5 116
14 190 19 74 5 169 15 210 21 90 15 3031 14 4080 -1 355 -5 859 -12 1120 -15
l475 -6 60 -29 c78 -36 120 -51 175 -59 25 -4 55 -13 67 -19 12 -7 37 -12 57
-12 19 0 47 -5 63 -11 15 -6 57 -14 93 -19 36 -5 85 -13 110 -19 25 -6 74 -10
110 -11 36 0 115 -7 175 -15 139 -18 627 -19 805 -1 69 7 170 12 225 10 55 -1
353 -5 662 -8 488 -5 570 -4 629 10 37 8 80 22 95 30 15 8 39 14 53 14 13 0
38 12 56 26 22 19 45 28 81 30 118 10 169 81 169 239 0 44 5 96 10 115 18 58
24 305 10 410 -7 52 -15 120 -19 150 -5 36 -18 73 -40 107 -34 55 -31 54 -144
68 -33 4 -58 16 -81 36 -41 35 -56 36 -86 4 -29 -31 -40 -32 -40 -2 0 13 -11
34 -25 47 -20 19 -27 21 -40 10 -8 -7 -15 -19 -15 -26 0 -12 -50 -41 -54 -32
-26 66 -68 86 -74 36 -2 -16 -7 -28 -12 -28 -5 0 -15 -3 -23 -6 -9 -3 -22 8
-35 30 -26 43 -46 46 -64 9 -19 -40 -49 -41 -72 -3 -21 37 -59 39 -64 2 -3
-22 -44 -52 -49 -36 -10 28 -45 74 -57 74 -8 0 -18 -10 -22 -22 -7 -26 -33
-58 -45 -58 -5 0 -18 18 -29 40 -11 22 -24 40 -28 40 -14 0 -32 -24 -32 -42 0
-11 -11 -23 -26 -28 -34 -13 -31 -15 -44 25 -9 27 -17 35 -36 35 -14 0 -24 -6
-24 -14 0 -8 -11 -27 -24 -43 l-24 -28 -23 48 c-25 52 -52 60 -57 17 -8 -57
-65 -67 -82 -15 -8 24 -18 35 -31 35 -10 0 -19 -4 -19 -9 0 -4 -11 -24 -25
-44 l-24 -36 29 -17 c20 -12 32 -31 41 -63 7 -25 15 -51 17 -58 2 -6 -7 -13
-20 -15 -13 -2 -23 -9 -22 -15 1 -7 2 -32 3 -55 2 -39 3 -41 13 -20 12 24 26
29 33 10 3 -7 8 -46 13 -87 4 -46 12 -76 20 -79 10 -3 11 17 8 90 -3 51 -9
105 -15 120 -7 19 -7 29 0 34 6 4 8 21 5 40 -3 19 -9 50 -12 69 -5 27 -3 35 9
35 9 0 18 -8 20 -17 4 -17 5 -17 6 0 2 34 29 16 41 -28 7 -25 17 -48 21 -51 5
-3 9 -16 9 -30 0 -28 -24 -33 -38 -8 -6 10 -12 13 -16 6 -3 -6 1 -17 9 -25 8
-9 15 -25 15 -37 0 -12 9 -24 24 -30 21 -8 25 -17 31 -80 4 -39 6 -110 4 -158
-5 -113 13 -126 24 -17 8 82 6 150 -15 435 -3 29 1 36 17 38 43 6 93 -110 60
-138 -10 -9 -15 -30 -14 -69 0 -49 2 -53 11 -28 5 15 13 27 18 27 29 0 41
-219 15 -270 -8 -16 -15 -42 -14 -57 l0 -28 16 23 c8 12 21 22 28 22 16 0 26
155 14 211 -5 22 -12 79 -15 127 -3 48 -8 111 -11 140 l-5 52 29 -12 c39 -16
48 -26 66 -75 18 -45 14 -75 -8 -66 -8 2 -19 2 -24 -1 -14 -9 7 -53 28 -59 38
-9 53 -70 50 -200 -1 -67 2 -123 7 -125 19 -6 28 169 15 273 -19 144 -23 265
-10 265 6 0 27 -17 45 -37 24 -26 34 -46 34 -70 0 -18 -4 -33 -10 -33 -5 0
-10 -21 -10 -47 0 -37 3 -44 12 -35 35 35 42 0 62 -316 5 -74 13 -74 21 0 8
77 3 177 -18 326 -9 62 -14 119 -11 126 3 7 0 25 -6 41 -13 35 3 58 22 33 7
-9 22 -18 32 -20 13 -2 23 -15 29 -38 5 -19 13 -39 18 -44 16 -17 10 -36 -16
-46 -19 -7 -25 -17 -25 -40 0 -34 19 -41 27 -9 19 70 61 -203 48 -306 -9 -77
-25 -68 -25 14 0 42 -5 73 -12 77 -18 11 -3 -166 17 -185 13 -13 17 -13 29 -1
18 20 28 242 15 330 -6 36 -12 99 -14 140 -2 41 -6 87 -9 103 -5 22 -2 27 14
27 11 0 25 -7 32 -16 7 -8 21 -23 31 -32 19 -18 24 -87 7 -97 -5 -3 -10 -24
-10 -46 0 -36 2 -40 20 -34 28 9 32 -14 39 -207 0 -21 5 -38 11 -38 16 0 32
40 22 53 -5 7 -10 54 -11 104 -1 51 -6 119 -11 150 -6 32 -10 79 -10 106 0 39
3 47 19 47 23 0 81 -64 81 -89 0 -10 -9 -21 -20 -24 -17 -4 -20 -14 -20 -58 0
-51 1 -52 19 -35 18 17 19 16 31 -21 7 -21 15 -42 18 -48 10 -17 12 -142 4
-221 -6 -55 -5 -77 4 -85 8 -7 15 -6 20 3 10 16 12 241 2 303 -5 28 -13 97
-17 155 -5 58 -12 113 -16 123 -4 9 -3 17 2 17 19 0 78 -46 79 -60 0 -8 4 -23
8 -33 11 -24 0 -33 -19 -17 -19 16 -19 3 0 -30 8 -14 14 -33 15 -44 0 -10 12
-32 26 -49 25 -30 26 -35 23 -132 -3 -84 -2 -100 11 -100 12 0 16 21 18 115 1
63 -2 124 -7 135 -16 35 -22 87 -10 101 8 10 8 22 1 44 -12 34 2 52 21 27 7
-8 21 -17 32 -19 24 -4 40 -74 18 -82 -15 -6 -18 -86 -3 -86 6 0 10 5 10 11 0
23 25 1 30 -26 11 -60 25 -16 26 77 0 54 2 100 5 103 9 9 69 -19 69 -33 0 -7
7 -15 16 -19 14 -5 13 -8 -5 -23 -12 -9 -26 -33 -31 -53 -10 -44 3 -62 52 -72
73 -16 85 -28 92 -98 9 -88 -9 -138 -55 -152 -57 -17 -58 -19 -53 -103 8 -124
12 -142 34 -142 18 0 20 -7 20 -59 0 -40 -5 -63 -15 -71 -8 -7 -15 -28 -15
-46 0 -25 -7 -38 -25 -50 -14 -9 -25 -24 -25 -33 0 -9 -11 -29 -24 -46 l-24
-30 -7 27 c-4 15 -2 89 4 165 6 76 10 187 10 248 -1 91 -4 113 -21 135 -11 15
-25 59 -32 99 -6 40 -15 69 -19 65 -13 -13 5 -188 23 -224 24 -48 32 -85 24
-116 -5 -18 -10 -22 -17 -15 -6 6 -15 11 -19 11 -11 0 -10 -70 2 -150 6 -43 6
-79 -1 -105 -6 -22 -14 -61 -18 -87 -8 -53 -34 -88 -64 -88 -16 0 -18 4 -11
23 12 32 11 301 -1 307 -6 3 -11 -32 -12 -95 -4 -148 -18 -184 -41 -107 -10
34 -11 31 -6 -30 4 -63 3 -68 -16 -68 -14 0 -20 -7 -20 -24 0 -32 -27 -55 -36
-31 -7 17 0 95 15 183 6 29 7 60 4 67 -9 26 -23 5 -23 -34 0 -21 -6 -44 -14
-50 -7 -6 -17 -30 -20 -54 l-7 -42 -19 25 -20 25 0 -42 c0 -29 -6 -49 -20 -63
-23 -23 -45 -27 -37 -6 12 30 18 182 10 205 -9 21 -11 17 -23 -38 -9 -43 -17
-60 -27 -59 -9 2 -19 -11 -27 -32 -20 -56 -40 -93 -51 -91 -13 2 -10 84 5 179
7 42 9 90 4 110 l-7 37 -7 -30 c-4 -16 -8 -50 -9 -75 -1 -55 -30 -140 -48
-140 -7 0 -13 9 -13 19 0 11 -4 22 -9 25 -5 3 -11 -19 -13 -49 -5 -58 -21 -87
-44 -78 -10 4 -11 10 -4 23 13 24 13 147 1 155 -5 3 -15 -11 -21 -30 -13 -40
-30 -38 -30 3 0 15 -5 34 -10 42 -7 10 -10 -7 -10 -57 0 -62 -3 -75 -26 -102
-14 -17 -30 -31 -36 -31 -11 0 -7 63 11 159 11 57 6 105 -10 95 -5 -3 -9 -32
-9 -64 0 -50 -3 -60 -20 -65 -11 -3 -20 -12 -20 -19 0 -7 -9 -21 -19 -30 -11
-10 -23 -31 -26 -48 -5 -20 -12 -28 -23 -26 -14 3 -17 17 -17 78 0 41 6 92 14
112 7 20 10 45 7 55 -7 17 -8 17 -22 -1 -8 -11 -14 -36 -14 -56 0 -43 -18
-100 -31 -100 -5 0 -9 13 -9 29 0 17 -4 33 -10 36 -6 4 -10 -13 -10 -44 0 -59
-14 -101 -34 -101 -25 0 -27 15 -16 131 11 112 4 188 -11 124 -4 -16 -7 -58
-8 -93 -1 -45 -5 -64 -16 -68 -8 -3 -31 -28 -51 -56 -46 -62 -58 -53 -51 39 4
37 8 104 10 148 2 44 2 57 0 29 -3 -35 -10 -58 -23 -69 -14 -12 -20 -31 -20
-59 0 -23 -5 -48 -10 -56 -7 -12 -12 -7 -24 20 -14 33 -15 33 -16 9 0 -57 -12
-89 -32 -89 -18 0 -18 7 -12 159 5 114 4 160 -5 165 -6 4 -12 6 -12 4 -1 -2
-5 -59 -8 -128 -6 -120 -7 -125 -28 -124 -16 0 -26 -10 -39 -38 -40 -90 -65
-56 -45 62 14 86 14 153 1 145 -6 -3 -10 -28 -10 -56 0 -35 -4 -49 -14 -49 -8
0 -15 -16 -19 -41 -3 -22 -8 -44 -12 -47 -12 -13 -25 24 -19 58 4 26 3 31 -5
20 -6 -8 -11 -31 -11 -50 0 -54 -11 -81 -29 -78 -14 3 -16 21 -13 150 1 81 -1
149 -6 152 -10 6 -22 -87 -22 -166 0 -43 -4 -54 -32 -80 -18 -16 -43 -39 -55
-50 l-22 -21 -15 49 c-8 27 -15 41 -15 32 -1 -9 -22 -32 -48 -50 l-48 -33
-240 -2 c-290 -2 -565 6 -565 18 0 5 26 21 58 36 40 19 71 27 104 26 30 -2 50
3 58 12 7 8 19 15 26 15 20 0 17 18 -5 30 -27 14 -41 13 -41 -5 0 -21 -35 -37
-65 -29 -38 10 -30 30 20 50 32 12 45 22 43 33 -5 26 -44 24 -93 -5 -55 -32
-61 -33 -297 -33 -184 -1 -188 -1 -188 -22 0 -19 -5 -21 -37 -16 -41 5 -90 21
-136 43 -16 8 -48 14 -72 14 -24 0 -50 6 -58 14 -7 8 -41 22 -76 31 -34 10
-64 22 -67 26 -10 17 -25 9 -19 -11 7 -23 -3 -25 -39 -6 -19 10 -56 12 -145 8
-130 -5 -204 2 -224 22 -7 8 -28 17 -45 21 -29 6 -32 5 -30 -16 3 -20 -3 -24
-37 -30 -30 -5 -48 -3 -70 11 -33 19 -191 35 -201 19 -3 -5 -20 -9 -38 -9 -25
0 -35 5 -39 20 -4 16 -14 20 -50 20 -51 0 -66 -12 -45 -37 11 -14 10 -16 -15
-11 -15 3 -50 1 -77 -4 -38 -7 -58 -5 -83 6 -17 8 -75 17 -127 20 -52 3 -114
9 -137 12 -35 5 -43 3 -43 -9 0 -16 -37 -34 -55 -27 -5 2 -50 4 -98 4 -65 1
-90 5 -97 15 -6 11 -33 15 -103 16 -85 2 -96 0 -100 -17 -7 -25 -56 -24 -132
3 -88 31 -205 31 -267 1 -51 -25 -83 -26 -83 -2 0 12 -14 14 -75 12 -41 -2
-82 -5 -91 -8 -9 -3 -36 2 -60 11 -48 16 -166 20 -188 6 -7 -5 -10 -14 -7 -20
9 -14 -43 -15 -79 -1 -35 13 -164 40 -193 40 -13 0 -40 -7 -59 -16 -31 -15
-36 -15 -50 -2 -14 14 -17 14 -34 -3 -15 -15 -24 -17 -44 -9 -14 5 -34 6 -47
1 -13 -5 -53 -9 -90 -9 -63 0 -73 5 -69 30 1 9 -23 15 -89 22 -68 8 -89 -3
-60 -29 25 -23 17 -35 -23 -35 -21 0 -39 8 -50 21 -16 18 -25 20 -68 14 -31
-4 -54 -3 -63 4 -8 7 -39 9 -87 5 -121 -10 -251 -11 -304 -1 -27 4 -92 9 -144
9 -88 1 -95 -1 -112 -23 -17 -22 -20 -23 -51 -10 -18 7 -58 15 -88 17 -82 5
-142 12 -172 19 -26 7 -28 5 -28 -24 0 -26 -4 -31 -24 -31 -15 0 -27 7 -31 19
-8 26 -76 34 -122 14 -21 -8 -48 -12 -62 -8 -88 21 -112 23 -185 14 -66 -8
-81 -8 -95 6 -19 17 -47 20 -55 6 -4 -5 0 -12 6 -14 7 -3 -2 -3 -19 0 -57 10
-163 -7 -185 -29 -14 -14 -27 -18 -48 -13 -16 3 -31 2 -35 -4 -9 -16 -57 -13
-93 5 -26 12 -38 13 -71 3 -29 -8 -47 -9 -70 -1 -28 10 -33 9 -47 -13 -19 -28
-54 -38 -90 -25 -19 8 -30 7 -41 -1 -11 -10 -15 -8 -20 9 -4 16 -13 22 -34 22
-24 0 -29 -4 -29 -24 0 -14 -5 -28 -10 -31 -6 -4 -50 -8 -98 -10 -50 -2 -122
-13 -170 -26 -68 -19 -87 -21 -102 -11 -15 9 -37 10 -88 2 -37 -6 -87 -9 -112
-8 -25 1 -78 -9 -117 -21 -43 -13 -91 -21 -115 -19 l-43 4 30 13 30 13 -28 10
c-20 7 -37 7 -53 -1 -14 -6 -39 -11 -57 -11 -18 0 -51 -7 -74 -15 -22 -8 -79
-16 -126 -17 -78 -3 -88 -1 -107 20 -24 25 -38 27 -65 9 -24 -17 -153 -21
-171 -6 -14 12 -101 2 -110 -12 -10 -17 -46 -9 -51 11 -7 28 -36 33 -80 14
-22 -9 -76 -18 -128 -20 -129 -7 -137 -7 -274 6 -85 7 -133 8 -153 1 -43 -15
-268 -26 -268 -14 0 6 15 14 33 18 28 6 30 8 12 15 -27 11 -149 1 -205 -15
-42 -13 -74 -14 -283 -3 -27 2 -51 9 -56 17 -7 10 -22 12 -67 6 -32 -4 -69
-11 -83 -17 -52 -19 -141 -18 -180 3 -19 10 -55 19 -78 19 -24 0 -52 6 -64 13
-17 10 -22 9 -30 -6 -9 -15 -22 -18 -77 -16 -37 1 -89 -1 -115 -6 -44 -7 -49
-6 -54 14 -6 24 -35 28 -53 6 -9 -11 -34 -15 -100 -15 -68 0 -102 -6 -156 -25
-38 -14 -74 -25 -80 -25 -20 0 -35 53 -57 190 -11 69 -27 85 -27 28 -1 -78 13
-254 21 -270 14 -26 3 -35 -21 -20 -11 7 -27 12 -35 12 -20 0 -62 45 -81 88
-12 28 -19 32 -51 32 -20 0 -45 -8 -56 -17 -20 -17 -20 -17 -14 7 5 17 0 31
-16 48 -18 19 -22 34 -20 78 2 45 -1 55 -17 64 -16 8 -22 8 -26 -4 -10 -25 15
-370 36 -499 6 -37 8 -72 5 -78 -4 -5 -26 -9 -49 -9 -38 0 -47 5 -70 34 -14
19 -26 43 -26 54 0 11 -7 36 -15 55 -8 20 -15 65 -15 100 0 35 -4 77 -10 93
-9 28 -26 142 -36 249 -13 145 5 645 26 726 6 20 12 69 14 110 3 41 8 83 12
94 12 30 45 49 80 46 27 -2 33 2 48 32 9 19 16 48 16 65 0 16 7 43 15 58 8 16
15 37 15 47 0 26 44 91 81 120 21 16 30 30 26 41 -8 21 -120 22 -161 1 -40
-21 -56 -19 -56 9 0 21 -5 24 -61 30 -101 10 -113 8 -147 -25z m125 -65 c3 -9
-3 -44 -14 -78 -17 -49 -20 -82 -18 -169 3 -86 1 -109 -11 -114 -8 -3 -14 -19
-14 -37 -1 -17 -11 -101 -24 -186 -13 -85 -22 -158 -20 -161 10 -17 34 -576
33 -765 -1 -62 3 -104 10 -108 6 -4 10 -28 10 -55 -1 -26 4 -57 10 -69 15 -28
1 -86 -22 -90 -11 -2 -18 6 -23 25 -3 15 -12 42 -20 60 -8 17 -14 37 -14 44 0
14 -17 69 -33 109 -16 40 -20 199 -6 216 10 12 9 18 -3 30 -12 12 -13 27 -6
80 7 54 6 70 -6 90 -20 30 -20 58 -1 74 24 20 18 79 -12 123 -27 38 -27 39 -8
72 13 26 15 38 7 48 -6 7 -14 31 -18 54 -5 34 -3 43 16 56 26 18 25 70 -2 75
-24 5 -30 -27 -34 -168 -4 -166 -7 -195 -19 -195 -5 0 -9 17 -7 38 1 20 -2 64
-7 97 -7 43 -6 86 4 157 22 150 25 157 68 163 l36 5 -18 24 -19 24 -12 -24
c-13 -23 -13 -23 -21 -4 -10 27 -10 37 0 54 8 12 12 12 25 2 13 -11 17 -5 30
40 23 76 21 97 -9 105 -16 4 -25 13 -25 25 0 20 5 23 51 33 21 5 28 13 32 38
3 18 9 45 12 60 6 21 2 32 -19 51 l-25 24 20 21 c11 12 24 22 29 22 6 0 10 11
10 25 0 14 -4 25 -10 25 -5 0 -10 7 -10 15 0 15 11 19 39 16 7 -2 10 2 6 8 -4
7 5 11 25 11 19 0 33 -6 37 -16z m81 -46 c9 -9 15 -9 24 0 7 7 24 12 40 12
l27 0 -29 -44 c-17 -24 -30 -53 -30 -65 0 -12 -4 -21 -10 -21 -16 0 -12 -18
10 -40 11 -11 20 -29 20 -39 0 -11 -9 -23 -20 -26 -11 -3 -20 -11 -20 -16 0
-5 -7 -9 -15 -9 -18 0 -19 12 -3 28 13 13 -6 42 -29 42 -10 0 -12 6 -8 19 4
14 0 23 -14 30 -31 17 -15 49 30 61 37 10 46 30 14 30 -18 0 -26 15 -19 34 7
19 16 20 32 4z m11432 -1476 c87 -11 146 -31 167 -55 18 -20 17 -20 -7 -13
-14 4 -51 10 -83 13 -31 3 -60 9 -63 14 -3 5 -17 9 -32 9 -15 1 -38 7 -52 15
-14 8 -37 14 -52 15 -15 0 -30 5 -34 11 -7 11 9 10 156 -9z m-11192 -39 c3
-34 -12 -73 -28 -73 -6 0 -10 7 -10 15 0 9 -7 18 -15 21 -15 6 -21 55 -8 68 4
4 19 6 33 4 20 -2 26 -9 28 -35z m-358 -304 c0 -5 -7 -9 -15 -9 -15 0 -20 12
-9 23 8 8 24 -1 24 -14z"/>
<path d="M1917 6940 c-15 -16 -36 -30 -48 -30 -18 0 -20 -5 -18 -46 2 -25 -2
-48 -8 -52 -6 -4 -14 -41 -18 -82 -3 -41 -13 -113 -21 -159 -9 -51 -12 -110
-8 -150 5 -56 6 -143 2 -201 -2 -31 2 -50 12 -50 6 0 10 20 10 44 0 30 5 46
15 50 21 8 20 72 -1 80 -10 4 -14 15 -12 33 3 28 14 34 80 48 15 3 29 14 33
25 4 14 19 22 48 27 l42 7 -43 7 c-93 17 -125 56 -82 99 21 21 21 22 3 35 -17
13 -17 15 0 44 20 34 14 60 -9 40 -17 -14 -44 -5 -44 15 0 18 40 28 57 14 15
-12 43 6 43 28 0 8 5 14 10 14 6 0 10 -7 10 -15 0 -8 7 -15 16 -15 11 0 14 6
9 20 -4 13 -1 22 9 26 9 3 16 17 16 30 0 32 28 31 40 -1 10 -26 24 -32 35 -15
10 16 35 12 35 -5 0 -8 5 -23 11 -33 8 -13 5 -36 -11 -92 -12 -41 -26 -105
-30 -142 -5 -37 -14 -77 -20 -88 -14 -27 -5 -37 35 -42 l30 -3 0 65 c0 39 8
86 19 117 17 44 18 56 7 79 -12 27 -8 35 24 48 6 2 5 11 -2 24 -16 26 -6 54
16 48 33 -9 160 -18 291 -21 184 -4 155 -4 535 -1 187 1 351 -1 363 -6 14 -4
105 -3 211 3 165 11 190 10 216 -4 28 -14 28 -16 10 -23 -11 -4 -30 -16 -42
-26 -17 -16 -42 -21 -123 -25 -94 -6 -103 -8 -112 -29 -6 -12 -7 -31 -3 -41 6
-16 8 -15 18 7 17 38 29 41 65 20 20 -12 51 -20 78 -20 41 0 47 3 57 29 6 17
21 32 34 36 13 3 23 12 23 20 0 19 9 19 30 0 15 -14 19 -13 35 5 16 18 16 20
1 26 -46 18 2 24 178 24 107 0 202 -3 211 -7 15 -5 14 -8 -6 -19 -23 -12 -23
-12 13 -19 41 -8 60 -1 52 19 -7 18 59 26 205 25 131 -1 213 -10 194 -22 -22
-14 -14 -28 15 -25 18 2 27 9 27 21 0 17 13 19 165 23 169 4 215 0 189 -17
-12 -8 -12 -11 1 -19 26 -17 61 -12 67 10 3 11 14 20 27 21 53 2 118 0 204 -6
108 -8 120 -24 45 -57 -39 -17 -54 -19 -84 -11 -20 5 -46 6 -58 1 -17 -6 -20
-13 -15 -35 9 -39 21 -48 89 -73 98 -35 95 -35 95 -8 0 14 -9 33 -20 43 -11
10 -20 22 -20 26 0 11 59 39 82 39 10 0 27 9 38 20 18 18 34 21 105 21 95 0
107 -4 103 -34 -2 -15 4 -22 22 -27 15 -3 27 -15 31 -30 6 -26 28 -28 42 -4
10 18 41 18 57 -1 18 -22 27 -19 47 15 9 17 24 30 33 29 10 0 11 -2 3 -6 -20
-7 -15 -19 12 -31 33 -15 32 -32 -2 -32 -16 0 -34 -4 -42 -9 -11 -7 -10 -11 7
-20 23 -12 67 -1 74 20 3 8 13 10 32 5 l29 -7 -33 -28 c-20 -16 -30 -32 -26
-39 11 -18 33 -14 55 9 15 17 27 20 51 16 39 -8 42 18 3 28 l-28 7 25 13 c32
18 40 18 40 0 0 -8 7 -15 15 -15 9 0 18 7 21 15 4 10 20 15 47 15 24 0 48 7
59 17 15 13 23 14 44 5 13 -7 55 -12 92 -13 58 0 205 -35 161 -38 -9 -1 -24
-10 -34 -21 -10 -11 -31 -20 -47 -20 -21 0 -31 6 -35 20 -7 25 -64 28 -83 5
-11 -14 -7 -22 25 -55 26 -27 48 -40 66 -40 14 0 38 -9 52 -20 14 -11 32 -20
41 -20 13 0 13 4 -2 30 -18 31 -13 43 24 54 14 4 28 1 37 -8 11 -11 28 -14 65
-9 67 8 122 -11 122 -42 0 -26 26 -41 45 -25 8 7 33 8 63 4 47 -6 51 -5 68 21
15 23 22 26 48 20 17 -4 47 -6 66 -5 19 0 46 1 60 2 14 0 63 -11 110 -25 88
-27 112 -26 70 2 -13 9 -40 29 -58 45 -39 35 -31 44 40 44 42 0 51 -4 60 -24
13 -29 61 -44 138 -44 37 0 68 -7 96 -22 28 -15 49 -19 68 -14 28 7 29 14 12
57 -5 12 1 20 22 28 42 18 85 10 96 -15 15 -33 143 -63 191 -45 39 14 114 7
157 -15 40 -20 68 -18 68 6 0 24 36 35 85 26 19 -4 53 -2 74 5 37 11 42 10 72
-16 27 -22 40 -26 69 -22 22 3 43 -1 55 -9 10 -8 28 -14 39 -14 12 0 30 -7 40
-15 25 -19 46 -19 46 -1 0 7 -12 16 -27 20 -37 8 -95 62 -91 84 2 10 14 18 32
20 25 3 28 1 23 -17 -5 -22 9 -31 49 -31 14 0 37 -9 53 -21 26 -19 30 -20 64
-6 28 12 43 13 71 5 25 -8 47 -8 78 0 37 10 45 9 56 -5 9 -13 30 -18 74 -20
66 -2 84 6 99 44 6 15 17 23 33 23 13 0 31 3 39 6 11 4 16 -2 19 -23 l3 -28
151 -6 c143 -7 194 -17 194 -39 0 -14 37 -12 46 2 4 6 -4 20 -19 33 -42 33
-35 49 18 42 25 -4 55 -13 68 -21 21 -14 84 -19 216 -17 40 0 60 6 76 21 15
14 24 17 32 9 8 -8 19 -6 41 5 42 22 60 20 64 -6 3 -22 7 -23 79 -20 59 3 78
1 88 -12 16 -19 41 -20 76 -4 18 8 31 8 48 1 38 -19 53 -21 68 -13 11 7 10 12
-5 29 -10 11 -15 25 -11 30 10 18 49 12 68 -9 10 -12 31 -21 49 -21 188 -8
295 -23 318 -44 21 -19 22 -19 35 -1 16 21 9 46 -11 46 -24 0 2 39 31 46 34 9
68 -4 60 -24 -9 -23 13 -32 82 -32 34 0 74 -5 88 -12 19 -9 28 -9 37 0 17 17
43 15 58 -4 8 -8 25 -14 39 -12 21 2 27 9 29 34 3 28 5 30 35 26 18 -3 36 -11
42 -18 10 -13 83 -22 226 -28 42 -2 88 -6 102 -10 36 -9 57 2 57 30 0 35 44
44 69 13 16 -19 29 -24 82 -25 35 -1 107 -6 159 -12 52 -5 98 -8 102 -5 4 2 2
12 -4 22 -17 27 -3 55 25 47 12 -3 34 -6 50 -6 20 0 30 -7 37 -26 9 -24 14
-26 48 -20 20 4 51 8 67 9 27 2 30 6 33 37 4 45 20 61 34 36 10 -17 13 -16 42
17 25 28 36 34 59 30 34 -7 35 -19 2 -27 -14 -4 -31 -18 -37 -32 -7 -14 -24
-32 -39 -40 l-28 -14 6 -84 c4 -53 2 -96 -6 -117 -9 -27 -9 -36 3 -47 28 -28
50 20 27 57 -6 10 -3 23 11 41 11 15 23 43 27 61 7 34 8 34 66 37 33 1 82 3
108 5 57 2 81 26 71 69 -3 16 -2 28 3 29 4 1 94 2 198 3 139 2 197 -1 217 -11
15 -7 41 -13 58 -13 34 0 90 -25 90 -40 0 -6 9 -10 20 -10 15 0 20 7 20 29 0
31 14 49 25 32 7 -13 67 -42 73 -36 3 2 -2 15 -10 27 -15 22 -41 39 -82 52
-18 6 -18 8 -3 23 15 15 19 15 59 -3 38 -17 68 -19 316 -19 300 0 292 -2 292
62 l0 31 -167 0 c-93 0 -217 3 -276 7 -77 5 -112 3 -122 -5 -8 -6 -23 -9 -34
-5 -11 3 -36 2 -56 -4 -29 -8 -37 -7 -42 5 -6 17 -49 19 -59 3 -4 -7 4 -20 17
-30 20 -15 22 -21 13 -36 -20 -32 -40 -25 -69 21 -28 45 -29 46 -53 30 -18
-12 -36 -14 -66 -9 -55 9 -119 6 -183 -9 -18 -4 -38 -4 -45 1 -7 4 -29 13 -48
18 -20 6 -36 18 -38 29 -4 16 2 17 61 11 45 -5 67 -4 72 5 4 7 -1 13 -14 17
-12 3 -21 10 -21 15 0 5 25 6 60 2 51 -6 64 -4 81 12 20 18 44 19 444 18 376
0 425 -2 448 -17 19 -12 24 -22 20 -38 -6 -20 -3 -22 29 -16 20 3 53 1 74 -5
22 -5 55 -13 74 -16 24 -5 39 -16 48 -35 15 -31 8 -67 -13 -67 -23 0 -65 49
-62 73 1 16 -3 22 -18 22 -15 0 -20 -7 -22 -30 -1 -16 -5 -42 -8 -56 -5 -20
-1 -32 17 -48 21 -20 23 -31 24 -124 1 -56 2 -110 3 -119 5 -60 40 43 48 140
3 35 10 55 20 59 30 12 42 -19 44 -117 2 -52 6 -104 9 -114 13 -39 19 25 15
164 -5 151 -8 186 -18 216 -11 30 8 74 32 74 39 0 72 -87 47 -125 -16 -24 -20
-50 -18 -99 2 -28 3 -29 16 -10 21 28 33 10 46 -70 12 -77 17 -89 31 -81 12 8
12 61 0 84 -6 10 -10 44 -10 77 0 32 -1 89 -1 127 -1 66 11 97 39 97 24 0 62
-132 41 -145 -12 -8 -13 -105 -1 -105 5 0 12 6 14 13 13 29 27 -23 28 -103 3
-104 1 -122 -11 -134 -16 -16 -22 -1 -30 76 l-7 73 -2 -87 c0 -52 3 -88 9 -88
5 0 13 -18 16 -40 7 -45 18 -50 36 -17 15 26 16 248 2 464 -8 118 -12 146 -29
169 -27 36 -37 35 -56 -4 -21 -46 -59 -69 -59 -37 0 23 -30 65 -46 65 -8 0
-19 -11 -24 -24 -16 -42 -70 -58 -70 -21 0 17 -27 45 -44 45 -8 0 -16 -13 -19
-29 -4 -17 -15 -35 -26 -41 -17 -9 -23 -6 -35 19 -17 33 -36 43 -57 30 -10 -6
-20 0 -35 19 l-22 27 -434 0 c-431 0 -461 -2 -608 -37 -25 -6 -63 -14 -85 -18
-128 -25 -164 -33 -205 -46 -25 -8 -68 -14 -95 -14 -52 0 -95 -20 -95 -44 0
-7 -9 -21 -19 -30 -18 -16 -90 -17 -1067 -16 -577 0 -1242 2 -1479 5 -1163 12
-1449 16 -1560 20 -66 2 -376 5 -690 6 -313 0 -608 5 -655 10 -47 5 -163 13
-258 18 -95 6 -177 13 -182 16 -6 3 -63 8 -127 11 -65 3 -151 12 -192 20 -40
8 -95 14 -121 14 -27 0 -91 6 -142 14 -138 22 -261 37 -376 47 -57 5 -108 12
-114 15 -5 4 -51 10 -102 15 -50 4 -136 12 -191 17 -55 6 -611 13 -1235 17
-1210 8 -1874 18 -1928 30 -25 6 -31 11 -27 25 9 28 -11 34 -115 34 -89 1 -96
2 -105 24 -13 30 -26 28 -58 -8z m-15 -82 c-15 -15 -26 -4 -18 18 5 13 9 15
18 6 9 -9 9 -15 0 -24z m3548 -223 c0 -8 -6 -15 -14 -15 -17 0 -28 14 -19 24
12 12 33 6 33 -9z m7508 -4 c9 -5 36 -18 59 -28 23 -10 43 -21 43 -24 0 -13
-54 -17 -84 -6 -17 6 -31 7 -33 1 -12 -34 -21 -37 -77 -26 -52 11 -106 36
-106 51 0 10 101 39 143 40 20 0 45 -3 55 -8z m-6030 -56 c20 -19 -95 -43
-137 -29 -14 5 -27 18 -29 28 -4 18 2 19 78 13 45 -3 84 -8 88 -12z m137 -46
c15 -15 -8 -44 -39 -47 -18 -2 -28 2 -33 15 -3 10 -12 22 -20 26 -7 4 -13 13
-13 19 0 12 90 1 105 -13z m648 4 c8 -7 -21 -43 -35 -43 -10 0 -11 34 -1 43 8
9 28 9 36 0z m410 -3 c30 0 37 -17 10 -27 -10 -3 -26 -13 -36 -21 -16 -14 -20
-13 -45 11 -23 23 -25 29 -12 37 8 6 24 8 35 5 11 -2 32 -5 48 -5z m-818 -20
c-3 -5 -15 -10 -25 -10 -10 0 -22 5 -25 10 -4 6 7 10 25 10 18 0 29 -4 25 -10z
m1265 5 c0 -10 -50 -24 -65 -19 -28 11 -15 24 25 24 22 0 40 -2 40 -5z"/>
<path d="M2530 6720 c0 -5 11 -10 24 -10 14 0 28 5 31 10 4 6 -7 10 -24 10
-17 0 -31 -4 -31 -10z"/>
<path d="M4655 6706 c-19 -14 -19 -15 -2 -21 24 -10 69 3 64 18 -6 18 -39 20
-62 3z"/>
<path d="M2440 6690 c-8 -5 -32 -9 -52 -8 -35 1 -68 -15 -68 -32 0 -5 13 -11
29 -15 16 -3 39 -15 52 -26 12 -10 34 -19 49 -19 15 0 41 -7 56 -15 35 -18 57
-19 52 -2 -3 6 -19 13 -36 15 -36 4 -51 36 -33 70 6 12 11 25 11 31 0 14 -40
14 -60 1z"/>
<path d="M2867 6678 c-5 -17 -9 -19 -20 -10 -10 9 -31 10 -68 4 l-54 -7 39
-21 c46 -24 88 -74 69 -81 -7 -3 -13 -10 -13 -17 0 -13 77 -9 86 5 10 16 59 9
77 -11 17 -21 34 -24 61 -14 25 10 18 33 -11 39 -70 14 -108 32 -111 53 -2 13
5 25 17 32 29 15 26 26 -10 39 -45 16 -56 14 -62 -11z"/>
<path d="M3300 6690 c-8 -5 -44 -10 -80 -10 -95 0 -104 -12 -39 -48 30 -17 60
-36 68 -43 15 -14 130 -33 140 -23 3 3 -5 13 -18 23 -21 16 -23 24 -19 65 5
42 4 46 -16 46 -11 0 -28 -5 -36 -10z"/>
<path d="M4170 6685 c-14 -8 -43 -14 -65 -15 -44 0 -65 -14 -65 -42 0 -14 7
-18 33 -16 30 3 32 1 35 -30 3 -33 3 -33 47 -27 39 6 113 -3 158 -20 10 -5 17
-2 17 5 0 16 -41 49 -61 50 -9 0 -27 9 -40 19 -24 19 -24 20 -6 49 9 17 17 33
17 36 0 11 -45 5 -70 -9z"/>
<path d="M4908 6683 c-40 -6 -34 -25 15 -49 37 -18 43 -25 47 -60 4 -34 8 -39
30 -39 18 0 26 6 28 23 2 12 7 22 12 22 14 0 52 80 46 96 -7 17 -53 19 -59 2
-4 -10 -7 -10 -18 0 -13 12 -45 13 -101 5z"/>
<path d="M4503 6664 c-8 -22 9 -48 36 -52 23 -4 29 -40 9 -60 -14 -14 9 -25
43 -20 31 4 35 24 7 32 -14 4 -18 9 -11 12 7 3 37 -2 67 -10 104 -31 131 -11
43 32 -26 12 -53 33 -59 46 -16 36 -123 52 -135 20z"/>
<path d="M5275 6669 c-10 -15 1 -23 20 -15 9 3 13 10 10 16 -8 13 -22 13 -30
-1z"/>
<path d="M3495 6624 c17 -16 31 -22 37 -16 6 6 -2 16 -23 26 -44 22 -47 20
-14 -10z"/>
<path d="M4395 6620 c-18 -19 -18 -20 3 -20 24 0 38 18 25 31 -6 6 -16 2 -28
-11z"/>
<path d="M4778 6619 c15 -13 32 -19 50 -17 24 4 25 5 7 12 -11 4 -28 12 -37
17 -31 16 -42 10 -20 -12z"/>
<path d="M5676 6625 c-10 -26 5 -45 35 -45 22 0 32 -6 39 -25 7 -19 17 -25 40
-25 16 0 30 -4 30 -9 0 -5 8 -12 19 -16 10 -3 29 -14 41 -25 12 -10 28 -16 36
-13 16 6 19 23 4 23 -5 0 -17 9 -27 19 -10 10 -27 21 -38 23 -14 2 -20 11 -20
28 0 21 -5 26 -33 28 -24 2 -35 10 -42 28 -8 19 -17 24 -44 24 -21 0 -36 -6
-40 -15z"/>
<path d="M3834 6587 c-8 -21 1 -47 16 -47 19 0 23 31 7 48 -15 14 -17 14 -23
-1z"/>
<path d="M3737 6582 c-23 -5 -18 -36 6 -40 19 -4 35 25 21 37 -5 4 -17 6 -27
3z"/>
<path d="M5116 6565 c-3 -9 1 -18 10 -22 19 -7 39 11 30 26 -10 16 -33 13 -40
-4z"/>
<path d="M6327 6554 c-16 -17 -5 -24 37 -24 25 0 48 5 51 10 3 6 0 10 -8 10
-8 0 -27 3 -43 6 -16 3 -32 2 -37 -2z"/>
<path d="M2592 6530 c7 -11 18 -20 25 -20 7 0 13 9 13 20 0 15 -7 20 -25 20
-23 0 -24 -2 -13 -20z"/>
<path d="M4040 6510 c0 -5 6 -10 14 -10 8 0 18 5 21 10 3 6 -3 10 -14 10 -12
0 -21 -4 -21 -10z"/>
<path d="M6227 6494 c-11 -11 3 -24 24 -24 12 0 19 5 17 13 -5 14 -31 21 -41
11z"/>
<path d="M7856 6457 c-16 -12 -16 -14 -2 -26 22 -18 50 -10 54 17 4 26 -23 30
-52 9z"/>
<path d="M13680 6400 c0 -13 -7 -20 -20 -20 -11 0 -26 -12 -35 -30 -32 -62 -6
-84 32 -27 22 32 42 97 29 97 -3 0 -6 -9 -6 -20z"/>
<path d="M1701 6376 c-19 -22 -19 -90 0 -94 13 -2 16 7 16 53 0 30 -1 55 -2
55 -1 0 -8 -6 -14 -14z"/>
<path d="M16077 6373 c-11 -10 -8 -63 3 -63 6 0 10 16 10 35 0 36 -2 40 -13
28z"/>
<path d="M2746 6346 c21 -28 29 -31 40 -15 8 13 -4 24 -35 34 l-24 7 19 -26z"/>
<path d="M4522 6338 c-18 -18 -15 -40 6 -36 9 2 18 13 20 26 4 24 -7 29 -26
10z"/>
<path d="M14911 6243 c0 -56 3 -93 9 -93 11 0 12 50 0 130 -7 51 -7 49 -9 -37z"/>
<path d="M15180 6242 c0 -54 4 -94 11 -98 11 -7 6 172 -5 183 -3 4 -6 -35 -6
-85z"/>
<path d="M5350 6296 c0 -27 24 -41 39 -23 12 15 3 31 -21 40 -14 5 -18 1 -18
-17z"/>
<path d="M15840 6290 c0 -19 3 -21 12 -12 9 9 9 15 0 24 -9 9 -12 7 -12 -12z"/>
<path d="M16070 6280 c0 -11 5 -20 10 -20 6 0 10 9 10 20 0 11 -4 20 -10 20
-5 0 -10 -9 -10 -20z"/>
<path d="M6290 6260 c-8 -5 -25 -7 -36 -4 -12 3 -25 1 -28 -5 -8 -12 23 -30
41 -24 6 2 14 -1 18 -6 3 -6 22 -11 42 -11 28 0 34 3 29 16 -3 9 -6 22 -6 30
0 16 -37 19 -60 4z"/>
<path d="M2096 6253 c-11 -11 -6 -23 9 -23 8 0 15 4 15 9 0 13 -16 22 -24 14z"/>
<path d="M2492 6248 c5 -15 78 -24 78 -10 0 13 -25 22 -57 22 -15 0 -23 -5
-21 -12z"/>
<path d="M3356 6253 c-3 -3 -3 -10 0 -14 7 -12 34 -11 34 0 0 11 -26 22 -34
14z"/>
<path d="M4662 6248 c7 -19 38 -22 38 -4 0 10 -9 16 -21 16 -12 0 -19 -5 -17
-12z"/>
<path d="M5505 6251 c-6 -11 21 -41 37 -41 6 0 16 -7 23 -17 14 -19 45 -11 45
12 0 9 -9 15 -23 15 -12 0 -30 9 -40 20 -18 22 -33 25 -42 11z"/>
<path d="M14806 6239 c-10 -15 -16 -44 -16 -81 0 -61 13 -77 25 -31 3 15 15
33 26 41 24 16 24 40 0 71 l-18 24 -17 -24z"/>
<path d="M5112 6238 c-14 -14 -16 -48 -3 -48 18 0 54 37 47 48 -9 15 -29 15
-44 0z"/>
<path d="M5824 6236 c-11 -29 6 -38 55 -31 80 12 79 28 -2 39 -37 6 -48 4 -53
-8z"/>
<path d="M6540 6228 c0 -15 9 -18 48 -18 44 0 72 12 72 31 0 4 -27 7 -60 6
-50 -2 -60 -5 -60 -19z"/>
<path d="M12741 6138 c-7 -62 -15 -134 -18 -160 -6 -58 -4 -59 110 -63 45 -2
109 -7 142 -13 39 -6 110 -6 203 0 100 6 159 6 195 -2 54 -11 74 -4 64 24 -4
9 -17 16 -30 16 -13 0 -51 9 -84 21 l-61 20 -43 -22 c-41 -20 -53 -21 -184
-16 -77 3 -160 12 -185 20 -43 14 -63 38 -41 52 17 10 13 45 -5 45 -25 0 -10
25 17 28 13 2 36 15 52 30 27 25 27 25 45 6 16 -17 31 -19 153 -16 74 1 155 2
182 3 26 0 47 4 47 8 0 10 -36 21 -71 21 -15 0 -32 7 -39 15 -17 21 -108 20
-138 -1 -21 -14 -25 -14 -59 6 -26 15 -46 20 -68 16 -23 -5 -39 -1 -58 14 -14
11 -35 20 -46 20 -12 0 -30 9 -41 20 -11 11 -21 20 -23 20 -2 0 -9 -51 -16
-112z"/>
<path d="M13330 6240 c47 -4 89 -3 95 1 5 5 -33 8 -85 7 l-95 -1 85 -7z"/>
<path d="M14176 6243 c-4 -5 -121 -9 -259 -10 -139 -1 -270 -2 -292 -2 -22 0
-56 -6 -75 -12 -19 -7 -68 -15 -109 -18 -52 -4 -76 -11 -81 -21 -4 -8 -12 -26
-19 -38 -14 -28 -15 -27 21 -36 18 -4 32 -1 44 11 20 20 132 52 187 52 25 1
40 -4 43 -14 4 -8 10 -15 15 -15 5 0 9 7 9 15 0 8 -4 15 -10 15 -5 0 -10 5
-10 10 0 12 27 13 32 1 2 -5 107 -11 233 -14 217 -6 231 -7 244 -27 7 -11 19
-20 26 -20 7 0 15 -7 19 -15 8 -22 26 -18 26 5 0 13 -7 20 -20 20 -33 0 -26
38 8 42 30 3 42 38 22 64 -13 15 -42 19 -54 7z"/>
<path d="M14566 6216 c-7 -35 0 -66 15 -66 12 0 12 87 0 94 -5 3 -12 -9 -15
-28z"/>
<path d="M6960 6205 c0 -8 5 -15 10 -15 6 0 10 7 10 15 0 8 -4 15 -10 15 -5 0
-10 -7 -10 -15z"/>
<path d="M9310 6205 c-7 -9 -10 -18 -8 -21 10 -10 58 8 58 22 0 19 -34 18 -50
-1z"/>
<path d="M9721 6202 c-12 -22 3 -42 31 -42 10 0 26 -7 36 -15 9 -9 32 -27 50
-42 l33 -26 27 20 c15 11 28 29 30 40 3 18 -4 21 -64 26 -53 5 -71 11 -90 32
-27 30 -40 31 -53 7z"/>
<path d="M10302 6188 c-7 -13 -17 -30 -24 -40 -9 -13 -9 -20 1 -32 12 -14 17
-13 52 4 46 24 51 50 14 74 -31 20 -30 20 -43 -6z"/>
<path d="M10617 6203 c-15 -14 -6 -34 18 -43 14 -5 28 -16 31 -25 3 -8 22 -17
42 -21 21 -4 42 -11 49 -16 14 -11 33 -2 33 14 0 6 7 19 15 28 14 16 10 17
-60 12 -63 -4 -75 -2 -75 11 0 16 -26 47 -39 47 -4 0 -11 -3 -14 -7z"/>
<path d="M11897 6203 c-9 -9 12 -33 29 -33 8 0 14 -5 14 -11 0 -18 63 -69 86
-69 11 0 34 12 50 28 l29 27 -50 3 c-53 3 -104 22 -125 47 -14 16 -23 19 -33
8z"/>
<path d="M12324 6198 c-4 -7 0 -16 11 -22 10 -6 27 -21 38 -33 11 -13 28 -23
37 -23 9 0 26 -13 38 -30 22 -29 55 -40 66 -22 3 5 9 27 14 50 7 31 7 44 -4
52 -10 9 -16 4 -29 -19 -18 -35 -50 -41 -60 -12 -3 10 -19 21 -35 25 -17 3
-30 12 -30 20 0 7 -7 17 -16 20 -21 8 -22 8 -30 -6z"/>
<path d="M4823 6184 c-8 -21 13 -42 28 -27 13 13 5 43 -11 43 -6 0 -13 -7 -17
-16z"/>
<path d="M6034 6186 c-3 -9 2 -28 11 -43 l18 -27 18 22 c9 12 25 22 34 22 10
0 15 7 13 18 -4 24 -85 31 -94 8z"/>
<path d="M6858 6183 c-6 -24 1 -53 13 -53 5 0 10 9 11 20 0 11 1 25 2 32 2 19
-21 20 -26 1z"/>
<path d="M8020 6190 c0 -5 9 -10 20 -10 11 0 20 5 20 10 0 6 -9 10 -20 10 -11
0 -20 -4 -20 -10z"/>
<path d="M8603 6193 c-22 -8 -14 -23 12 -23 14 0 25 4 25 9 0 11 -21 19 -37
14z"/>
<path d="M14516 6183 c-8 -20 3 -103 14 -103 11 0 20 27 20 60 0 53 -21 79
-34 43z"/>
<path d="M2110 6169 c0 -24 23 -21 28 4 2 10 -3 17 -12 17 -10 0 -16 -9 -16
-21z"/>
<path d="M8145 6180 c-3 -5 -15 -10 -26 -10 -10 0 -19 -4 -19 -9 0 -5 -3 -16
-6 -25 -5 -12 0 -16 19 -16 14 0 30 6 34 14 4 7 25 19 46 25 20 7 37 17 37 22
0 12 -77 12 -85 -1z"/>
<path d="M14300 6175 c-15 -18 -5 -45 18 -53 14 -4 16 36 3 56 -6 10 -11 10
-21 -3z"/>
<path d="M15720 6166 c0 -14 4 -27 9 -31 12 -7 25 31 16 45 -11 18 -25 10 -25
-14z"/>
<path d="M3607 6140 c-37 -57 -27 -75 24 -42 30 20 39 32 39 54 0 42 -31 36
-63 -12z"/>
<path d="M4070 6167 c0 -19 -25 -29 -55 -21 -37 9 -67 -4 -63 -29 2 -17 11
-23 38 -25 19 -2 39 -8 45 -13 14 -13 25 -11 25 6 0 8 9 23 21 34 22 20 23 51
2 59 -7 2 -13 -3 -13 -11z"/>
<path d="M6446 6164 c-20 -11 -31 -13 -39 -5 -18 18 -44 12 -50 -11 -8 -29 7
-37 58 -34 44 2 92 36 80 55 -8 14 -14 13 -49 -5z"/>
<path d="M7693 6169 c-27 -10 -32 -56 -7 -66 22 -8 36 10 32 44 -3 27 -6 29
-25 22z"/>
<path d="M7800 6171 c0 -5 6 -14 14 -20 16 -13 32 2 21 19 -8 12 -35 13 -35 1z"/>
<path d="M9360 6167 c0 -19 16 -31 24 -18 3 5 -1 14 -9 21 -12 10 -15 10 -15
-3z"/>
<path d="M9453 6162 c-42 -16 -54 -34 -32 -47 17 -11 58 4 69 26 18 32 8 37
-37 21z"/>
<path d="M11490 6168 c1 -22 22 -43 70 -67 l44 -23 18 22 c27 34 22 40 -31 40
-34 0 -56 6 -75 21 -18 14 -26 16 -26 7z"/>
<path d="M15603 6173 c-20 -8 -15 -40 9 -57 19 -14 23 -14 30 -2 9 16 -7 67
-19 65 -5 0 -14 -3 -20 -6z"/>
<path d="M15870 6157 c0 -34 25 -65 41 -50 9 9 6 18 -10 42 -27 37 -31 38 -31
8z"/>
<path d="M1883 6155 c-3 -9 -3 -18 0 -21 9 -9 27 6 27 22 0 19 -19 18 -27 -1z"/>
<path d="M2289 6151 c-25 -20 -19 -61 10 -61 16 0 41 37 41 59 0 18 -30 19
-51 2z"/>
<path d="M2725 6139 c-39 -35 -45 -63 -16 -79 16 -8 22 -4 40 25 11 19 24 35
30 35 19 0 20 30 1 40 -15 8 -26 4 -55 -21z"/>
<path d="M4903 6152 c-55 -21 -63 -48 -23 -83 16 -14 30 -33 30 -43 0 -17 21
-31 40 -24 7 2 0 15 -14 31 -28 30 -26 42 15 96 17 21 18 42 1 40 -4 0 -26 -8
-49 -17z"/>
<path d="M15330 6141 c0 -17 4 -33 10 -36 11 -7 25 39 15 54 -12 21 -25 11
-25 -18z"/>
<path d="M8280 6150 c0 -5 7 -10 15 -10 8 0 15 5 15 10 0 6 -7 10 -15 10 -8 0
-15 -4 -15 -10z"/>
<path d="M11215 6149 c-16 -5 -49 -7 -72 -4 -24 4 -43 2 -43 -2 0 -11 80 -73
93 -73 15 0 78 71 72 81 -7 11 -10 10 -50 -2z"/>
<path d="M14382 6140 c-17 -27 -16 -30 13 -30 20 0 25 5 25 25 0 30 -20 33
-38 5z"/>
<path d="M3142 6138 c-19 -19 -14 -38 14 -48 33 -13 44 -6 44 31 0 24 -4 29
-23 29 -13 0 -28 -5 -35 -12z"/>
<path d="M3535 6140 c-10 -17 12 -37 25 -24 8 8 6 15 -4 23 -10 9 -16 9 -21 1z"/>
<path d="M4450 6140 c-8 -5 -25 -10 -37 -10 -25 0 -29 -10 -11 -28 29 -29 144
5 124 37 -9 13 -55 14 -76 1z"/>
<path d="M8932 6138 c-22 -22 -12 -36 31 -40 23 -3 44 -3 46 -2 2 2 -4 15 -13
29 -18 27 -45 32 -64 13z"/>
<path d="M5257 6116 c-16 -24 -13 -36 9 -36 17 0 44 28 44 46 0 23 -36 16 -53
-10z"/>
<path d="M6761 6131 c-25 -7 -42 -31 -22 -31 17 0 61 23 61 32 0 9 -4 9 -39
-1z"/>
<path d="M8540 6121 c-14 -27 -13 -31 10 -31 15 0 20 7 20 25 0 30 -15 33 -30
6z"/>
<path d="M2100 6071 c0 -28 5 -53 10 -56 6 -3 10 -25 10 -48 0 -50 15 -81 24
-51 11 37 9 129 -3 167 -19 55 -41 49 -41 -12z"/>
<path d="M9310 6091 c0 -17 12 -41 21 -41 5 0 9 11 9 25 0 16 -6 25 -15 25 -8
0 -15 -4 -15 -9z"/>
<path d="M12300 6075 c-17 -18 -34 -25 -62 -25 -27 0 -38 -4 -38 -15 0 -8 5
-15 10 -15 6 0 10 -7 10 -15 0 -8 -4 -15 -9 -15 -14 0 -71 34 -71 43 0 4 -11
7 -25 7 -14 0 -25 -4 -25 -10 0 -5 6 -10 14 -10 24 0 29 -20 10 -35 -15 -11
-16 -15 -5 -29 18 -22 119 -23 127 -1 5 11 10 12 18 5 9 -7 17 -1 29 23 10 17
29 51 42 75 29 48 14 59 -25 17z"/>
<path d="M15618 6079 c-10 -6 -18 -14 -18 -19 0 -13 21 -12 40 0 22 14 0 32
-22 19z"/>
<path d="M9236 6048 l-25 -33 -21 23 c-28 30 -39 28 -80 -15 -19 -21 -44 -43
-55 -50 -18 -11 -17 -12 15 -12 20 0 46 8 60 19 27 21 55 26 65 10 13 -21 50
-9 73 23 43 64 15 95 -32 35z"/>
<path d="M1326 6054 c-9 -25 -7 -72 4 -79 6 -4 10 13 10 44 0 53 -4 62 -14 35z"/>
<path d="M5950 6061 c0 -11 26 -22 34 -14 12 12 5 23 -14 23 -11 0 -20 -4 -20
-9z"/>
<path d="M6218 6053 c-16 -8 -28 -18 -28 -23 0 -4 -18 -11 -41 -15 -66 -11
-37 -17 46 -10 71 7 75 9 69 29 -9 31 -16 34 -46 19z"/>
<path d="M7460 6060 c-8 -5 -31 -10 -50 -10 -19 0 -45 -3 -57 -6 -21 -6 -21
-7 -6 -30 17 -26 51 -32 59 -10 9 25 31 26 94 5 33 -12 68 -18 77 -15 13 5 10
12 -17 36 -19 17 -39 30 -46 30 -7 0 -18 2 -26 5 -7 3 -20 0 -28 -5z"/>
<path d="M3351 6046 c-8 -10 -23 -13 -47 -9 -37 6 -44 -3 -16 -23 16 -12 16
-13 -1 -19 -10 -4 -25 -1 -35 6 -35 29 -64 41 -74 31 -12 -12 17 -42 41 -42
10 0 24 -7 31 -15 7 -8 29 -15 49 -15 20 0 44 -7 54 -15 35 -26 67 16 34 44
-8 6 -12 23 -9 41 5 32 -8 39 -27 16z"/>
<path d="M3582 6044 c2 -11 11 -20 22 -22 13 -3 17 1 14 14 -2 11 -11 20 -22
22 -13 3 -17 -1 -14 -14z"/>
<path d="M6025 6050 c-7 -12 2 -30 16 -30 12 0 12 27 0 35 -5 3 -12 1 -16 -5z"/>
<path d="M2854 6035 c-11 -8 -14 -15 -6 -15 18 0 15 -30 -4 -30 -9 0 -29 11
-46 25 -30 26 -48 32 -48 16 0 -13 59 -55 89 -63 120 -31 147 -36 155 -28 4 4
-10 19 -33 32 -33 18 -41 27 -36 44 8 34 -36 46 -71 19z"/>
<path d="M4051 6032 c-16 -30 -14 -35 13 -28 18 4 25 1 29 -15 5 -17 11 -20
34 -15 17 4 44 0 66 -9 74 -31 96 -14 53 38 -20 25 -31 29 -82 32 -32 1 -69 6
-81 10 -16 5 -24 2 -32 -13z"/>
<path d="M4470 6040 c0 -13 28 -25 38 -16 3 4 0 11 -8 16 -20 13 -30 12 -30 0z"/>
<path d="M4612 6018 c-41 -24 -55 -28 -67 -18 -12 10 -12 8 -2 -15 11 -24 16
-26 53 -20 34 5 46 2 70 -18 41 -34 73 -49 90 -43 23 9 16 21 -30 50 -46 29
-62 51 -46 61 6 4 10 10 10 15 0 20 -29 15 -78 -12z"/>
<path d="M5460 6024 c-21 -21 -22 -27 -10 -34 27 -17 60 -12 60 9 0 11 5 23
11 27 8 4 7 9 -2 15 -22 14 -34 11 -59 -17z"/>
<path d="M5842 6041 c-10 -6 -11 -13 -4 -27 6 -11 13 -27 16 -36 9 -28 22 -21
43 22 17 33 18 40 6 45 -21 7 -46 6 -61 -4z"/>
<path d="M6557 6043 c-16 -15 -5 -24 25 -21 41 4 50 28 11 28 -17 0 -33 -3
-36 -7z"/>
<path d="M7008 6043 c-30 -8 -20 -38 18 -57 43 -20 57 -12 52 30 -2 23 -8 29
-28 31 -14 0 -33 -1 -42 -4z"/>
<path d="M7838 6039 c-21 -12 -23 -42 -5 -57 9 -8 20 -7 37 3 14 8 33 18 43
21 9 3 17 15 17 25 0 15 -7 19 -37 19 -21 0 -46 -5 -55 -11z"/>
<path d="M8685 6030 c-10 -11 -24 -20 -32 -20 -20 0 -16 -18 9 -31 23 -12 115
-6 131 10 5 5 2 19 -8 35 -22 33 -73 36 -100 6z"/>
<path d="M10038 6043 c0 -4 -2 -21 -3 -38 -1 -16 -5 -37 -9 -47 -6 -12 -1 -18
23 -23 17 -3 35 -4 41 0 11 7 4 46 -10 55 -4 3 -7 16 -6 30 1 16 -5 26 -16 28
-10 2 -19 0 -20 -5z"/>
<path d="M11000 6040 c-12 -7 -12 -12 -2 -22 9 -9 15 -9 24 0 16 16 -2 34 -22
22z"/>
<path d="M11214 6039 c-2 -3 8 -17 21 -29 20 -18 28 -21 37 -12 18 18 52 14
71 -8 20 -24 61 -26 79 -4 7 8 21 23 31 32 9 9 17 20 17 24 0 12 -38 9 -46 -3
-4 -7 -19 -8 -38 -4 -41 9 -167 12 -172 4z"/>
<path d="M11657 6044 c-4 -4 -7 -18 -7 -30 0 -13 -4 -26 -10 -29 -18 -11 -11
-45 9 -45 20 0 31 18 31 50 0 10 9 22 21 25 11 4 18 12 16 18 -4 14 -49 22
-60 11z"/>
<path d="M11747 6027 c-18 -28 -25 -70 -13 -77 5 -3 10 5 11 17 3 35 13 39 38
15 33 -31 47 -28 47 12 0 23 -5 35 -17 39 -10 2 -25 8 -34 11 -11 5 -21 -1
-32 -17z"/>
<path d="M12605 6041 c-26 -4 -35 -9 -27 -14 18 -12 15 -35 -7 -42 -36 -11
-32 -33 10 -54 22 -12 44 -19 49 -16 4 3 11 24 15 48 4 23 12 47 17 54 10 12
3 34 -10 32 -4 -1 -25 -5 -47 -8z"/>
<path d="M15889 6048 c-6 -26 -5 -119 1 -123 13 -8 23 14 24 54 1 20 4 42 7
50 2 8 -4 16 -13 19 -10 2 -18 2 -19 0z"/>
<path d="M15995 6039 c-10 -15 3 -25 16 -12 7 7 7 13 1 17 -6 3 -14 1 -17 -5z"/>
<path d="M3740 6031 c-8 -5 -28 -13 -45 -18 -24 -6 -31 -15 -33 -38 -2 -25 -1
-27 8 -12 14 22 41 22 71 -1 24 -19 119 -38 119 -24 0 11 -60 62 -73 62 -7 0
-7 4 1 12 7 7 12 16 12 20 0 10 -40 9 -60 -1z"/>
<path d="M6774 6032 c4 -7 18 -12 31 -12 26 0 41 -15 25 -25 -20 -12 1 -25 41
-25 45 0 48 8 16 38 -25 24 -126 45 -113 24z"/>
<path d="M7150 6026 c0 -14 37 -33 46 -23 2 2 2 12 -2 21 -8 20 -44 21 -44 2z"/>
<path d="M8254 6026 c-16 -42 17 -66 72 -52 26 7 32 34 12 54 -17 17 -77 15
-84 -2z"/>
<path d="M8469 6010 c33 -30 51 -34 58 -13 4 12 -51 43 -76 43 -10 0 -4 -10
18 -30z"/>
<path d="M9495 6030 c-3 -5 -4 -14 -1 -19 4 -5 -14 -19 -39 -31 -68 -33 -58
-44 33 -35 42 4 81 8 87 8 5 1 11 -8 13 -21 4 -24 6 -24 106 -5 28 5 29 6 11
19 -10 8 -40 14 -67 14 -46 0 -48 1 -48 28 0 21 -7 32 -25 40 -32 15 -62 15
-70 2z"/>
<path d="M10415 6032 c-63 -3 -84 -18 -57 -38 9 -7 17 -22 17 -35 0 -34 27
-46 70 -30 30 10 40 10 67 -3 17 -9 36 -16 42 -16 6 0 19 -9 29 -20 18 -22 33
-25 42 -10 10 16 -14 49 -40 56 -14 3 -29 13 -34 22 -10 18 3 62 22 74 9 6 9
8 0 8 -6 0 -15 -5 -18 -10 -4 -6 -16 -8 -28 -5 -35 10 -48 11 -112 7z"/>
<path d="M10828 6023 c-46 -19 -48 -35 -9 -62 51 -37 151 -24 151 19 0 23 -4
24 -29 8 -15 -9 -23 -9 -36 2 -15 13 -15 15 7 32 l23 18 -35 -1 c-19 -1 -52
-8 -72 -16z"/>
<path d="M2354 6015 c-7 -18 3 -35 22 -35 8 0 14 10 14 25 0 27 -27 35 -36 10z"/>
<path d="M8030 6011 c0 -26 17 -36 36 -20 14 12 14 14 -2 26 -25 18 -34 16
-34 -6z"/>
<path d="M9630 6011 c0 -22 21 -33 40 -21 18 11 4 40 -20 40 -13 0 -20 -7 -20
-19z"/>
<path d="M9920 6015 c-10 -12 -10 -19 -2 -27 14 -14 62 8 62 29 0 18 -45 16
-60 -2z"/>
<path d="M10107 6023 c-25 -25 11 -44 43 -23 13 9 13 11 0 20 -18 11 -34 13
-43 3z"/>
<path d="M5052 6008 c-23 -23 -12 -37 43 -57 76 -29 90 -20 45 29 -37 41 -66
50 -88 28z"/>
<path d="M2429 5990 c-21 -17 -22 -21 -9 -30 17 -11 99 -25 106 -18 9 10 -7
35 -35 51 -36 21 -34 21 -62 -3z"/>
<path d="M8936 6001 c-12 -19 61 -55 83 -42 9 6 1 15 -24 30 -40 23 -51 25
-59 12z"/>
<path d="M15500 5965 c0 -22 4 -34 10 -30 6 3 10 17 10 30 0 13 -4 27 -10 30
-6 4 -10 -8 -10 -30z"/>
<path d="M5365 5971 c-3 -5 -1 -12 4 -15 12 -8 41 3 41 15 0 12 -37 12 -45 0z"/>
<path d="M5550 5970 c0 -11 40 -34 47 -26 3 3 3 12 0 21 -7 16 -47 21 -47 5z"/>
<path d="M5685 5961 c-7 -12 22 -41 39 -41 8 0 19 6 25 14 10 12 8 17 -8 25
-24 13 -48 14 -56 2z"/>
<path d="M6312 5957 c-10 -11 -9 -17 4 -28 18 -15 49 -1 49 22 0 19 -39 23
-53 6z"/>
<path d="M9242 5939 c2 -16 10 -25 27 -27 29 -4 25 15 -8 36 -22 15 -23 15
-19 -9z"/>
<path d="M14205 5919 c-6 -19 -12 -20 -65 -14 -55 6 -105 -5 -83 -18 5 -3 46
-8 91 -12 l82 -5 0 29 c0 36 -16 49 -25 20z"/>
<path d="M14310 5934 c0 -5 -3 -49 -6 -97 -5 -91 0 -132 17 -121 11 6 7 209
-4 220 -4 4 -7 3 -7 -2z"/>
<path d="M13462 5908 c3 -20 10 -23 52 -26 35 -2 54 -9 66 -24 11 -14 23 -19
33 -15 26 10 20 36 -9 43 -15 4 -35 15 -45 25 -12 12 -33 19 -60 19 -36 0 -40
-2 -37 -22z"/>
<path d="M15777 5894 c-10 -10 -9 -72 2 -78 5 -3 11 4 13 17 5 28 -5 71 -15
61z"/>
<path d="M8480 5861 c0 -24 18 -37 31 -24 13 13 1 43 -17 43 -8 0 -14 -9 -14
-19z"/>
<path d="M14576 5872 c-3 -5 -1 -22 4 -38 8 -29 8 -29 9 9 1 36 -3 45 -13 29z"/>
<path d="M15380 5825 c0 -25 -6 -54 -12 -65 -10 -15 -10 -22 0 -32 17 -17 21
-9 28 70 5 51 4 72 -5 72 -6 0 -11 -18 -11 -45z"/>
<path d="M7670 5851 c0 -20 13 -41 21 -35 15 9 10 44 -6 44 -8 0 -15 -4 -15
-9z"/>
<path d="M4434 5811 c23 -26 49 -28 44 -3 -2 10 -14 18 -33 20 -30 4 -30 4
-11 -17z"/>
<path d="M12467 5803 c-13 -12 -7 -23 13 -23 11 0 20 7 20 15 0 15 -21 21 -33
8z"/>
<path d="M12612 5798 c5 -15 28 -18 29 -3 0 6 -7 12 -17 13 -10 3 -15 -1 -12
-10z"/>
<path d="M15453 5770 c0 -25 2 -35 4 -22 2 12 2 32 0 45 -2 12 -4 2 -4 -23z"/>
<path d="M3129 5780 l-24 -19 43 -1 c43 0 51 7 30 28 -16 16 -22 15 -49 -8z"/>
<path d="M14911 5725 c0 -49 2 -65 9 -55 11 18 11 65 0 100 -6 18 -8 5 -9 -45z"/>
<path d="M14366 5752 c-4 -6 -4 -23 0 -38 7 -28 7 -28 16 -5 9 25 -4 61 -16
43z"/>
<path d="M12703 5743 c-23 -9 -13 -23 16 -23 37 0 62 10 55 21 -5 9 -50 11
-71 2z"/>
<path d="M15180 5713 c0 -28 3 -34 10 -23 13 20 13 47 0 55 -6 4 -10 -9 -10
-32z"/>
<path d="M12825 5730 c3 -5 15 -10 25 -10 10 0 22 5 25 10 4 6 -7 10 -25 10
-18 0 -29 -4 -25 -10z"/>
</g>
</svg>
