<?xml version="1.0" standalone="no"?>
<!DOCTYPE svg PUBLIC "-//W3C//DTD SVG 20010904//EN"
 "http://www.w3.org/TR/2001/REC-SVG-20010904/DTD/svg10.dtd">
<svg version="1.0" xmlns="http://www.w3.org/2000/svg"
 width="600.000000pt" height="600.000000pt" viewBox="0 0 600.000000 600.000000"
 preserveAspectRatio="xMidYMid meet">
<g transform="translate(0.000000,600.000000) scale(0.100000,-0.100000)"
fill="#000000" stroke="none">
<path d="M1848 4863 c7 -3 16 -2 19 1 4 3 -2 6 -13 5 -11 0 -14 -3 -6 -6z"/>
<path d="M1813 4800 c-81 -9 -205 -35 -273 -57 -162 -52 -675 -297 -929 -443
-148 -85 -269 -173 -280 -203 -34 -88 -46 -525 -21 -732 10 -85 16 -104 38
-128 18 -19 32 -25 46 -21 15 4 17 3 8 -4 -10 -7 -1 -18 35 -44 55 -39 384
-229 488 -281 168 -83 408 -188 422 -183 8 3 12 2 9 -3 -7 -11 22 -23 36 -14
6 3 8 1 5 -4 -4 -6 10 -18 33 -27 22 -9 40 -20 40 -26 0 -11 106 -12 154 -1
l28 6 -45 22 c-49 24 -105 94 -171 215 -48 88 -43 99 56 116 110 20 131 29
156 67 33 51 61 47 89 -13 51 -108 130 -225 145 -216 4 3 8 0 8 -5 0 -7 39
-11 110 -11 104 0 110 -1 125 -24 20 -31 12 -51 -48 -109 -27 -27 -47 -50 -45
-53 8 -7 73 35 70 46 -1 6 2 8 8 5 7 -4 22 3 36 16 27 25 29 22 12 -16 -7 -15
-30 -35 -56 -46 -41 -19 -60 -20 -272 -17 l-228 4 -46 -80 -47 -79 3 -105 c2
-73 7 -107 16 -110 9 -3 12 23 12 107 0 88 3 111 14 111 7 0 16 8 19 18 18 55
35 93 42 93 16 -1 16 -50 0 -81 -28 -54 7 -34 38 21 16 28 31 48 34 45 4 -3
14 0 22 8 20 18 179 37 204 24 11 -6 17 -5 17 2 0 6 5 8 10 5 6 -4 8 -11 5
-16 -4 -5 3 -9 14 -9 12 0 20 -3 20 -7 -4 -23 2 -43 11 -38 6 4 8 11 4 16 -3
6 -3 21 0 35 10 37 55 28 56 -11 0 -3 6 -18 15 -35 25 -48 20 -57 -30 -56 -25
1 -45 -3 -45 -9 0 -5 7 -10 15 -9 8 0 45 2 83 3 37 2 59 5 49 8 -30 8 -74 113
-48 113 5 0 11 10 13 23 2 17 8 21 30 19 24 -3 28 1 43 55 20 69 46 100 94
113 20 5 164 9 320 9 156 1 287 3 290 6 3 4 5 38 4 76 l-1 71 76 -4 77 -3 3
39 c2 25 0 36 -7 31 -6 -3 -9 -11 -6 -16 4 -5 0 -16 -9 -24 -10 -10 -17 -12
-21 -5 -5 8 -11 7 -21 -1 -8 -6 -14 -7 -14 -2 0 13 -43 11 -53 -2 -4 -5 -7
106 -6 248 1 196 4 255 13 248 6 -5 13 -22 14 -38 1 -15 11 -36 21 -47 18 -17
17 -9 -8 77 -16 53 -28 116 -28 139 0 24 2 33 4 20 3 -12 8 -20 13 -17 15 9
23 -16 10 -28 -10 -9 -12 -8 -7 6 4 11 3 16 -3 12 -31 -19 17 -65 69 -65 33 0
44 5 65 33 14 19 28 49 32 68 l5 34 -20 -40 c-11 -22 -22 -39 -25 -37 -4 2
-10 2 -14 -1 -4 -2 -1 -2 6 -1 6 2 12 0 12 -5 0 -6 -23 -20 -62 -38 -3 -2 -4
7 -2 19 2 13 2 17 -2 11 -3 -7 -15 -13 -25 -13 -11 0 -17 5 -14 10 4 6 11 8
16 5 5 -4 9 -1 9 5 0 7 6 10 14 7 8 -3 31 9 52 27 31 27 37 39 37 71 0 45 -37
85 -81 85 -25 1 -25 2 -10 14 17 12 16 14 -5 25 -20 10 -18 11 13 6 19 -3 42
-13 50 -22 14 -16 13 -16 -5 -4 -11 8 -8 2 8 -12 15 -15 32 -37 37 -49 7 -18
9 -19 9 -5 1 10 -6 32 -15 50 -34 68 -91 86 -141 43 -24 -21 -26 -27 -14 -38
8 -7 11 -8 8 -2 -10 17 15 33 37 25 16 -6 12 -11 -24 -30 -23 -12 -44 -20 -46
-18 -5 4 54 217 67 240 8 16 7 16 -11 5 -11 -7 -20 -22 -20 -33 0 -11 -7 -29
-15 -39 -9 -12 -12 -29 -9 -40 4 -12 4 -18 0 -15 -4 3 -7 122 -8 263 -1 141
-4 256 -7 256 -6 0 -110 -92 -182 -160 -20 -19 -39 -35 -42 -35 -3 0 -15 -12
-26 -27 -21 -26 -21 -34 -22 -480 -1 -525 -2 -481 11 -473 6 3 10 -1 10 -9 0
-9 5 -16 10 -16 6 0 10 -6 10 -12 1 -16 85 -89 94 -81 10 10 7 25 -4 18 -6 -4
-9 -1 -8 7 2 7 -3 12 -9 10 -7 -1 -13 5 -13 13 0 8 -7 15 -16 15 -13 0 -15 5
-9 23 4 12 10 50 12 85 3 34 9 62 13 62 21 0 40 -47 40 -99 0 -52 -1 -53 -18
-38 -23 21 -36 22 -28 1 4 -10 2 -13 -6 -8 -7 5 -8 3 -4 -5 5 -7 14 -10 22 -7
7 3 16 0 20 -6 4 -7 3 -8 -4 -4 -7 4 -12 2 -12 -4 0 -6 8 -10 18 -8 14 2 17
-5 17 -39 0 -38 5 -47 45 -82 25 -22 48 -41 53 -41 4 0 7 -6 7 -13 0 -8 -20
-12 -66 -13 -51 -1 -69 -5 -76 -18 -5 -9 -27 -25 -48 -36 -21 -11 -42 -25 -45
-31 -9 -14 51 17 92 47 23 18 45 24 81 24 l50 0 4 -40 c4 -40 3 -40 -32 -41
-167 -2 -192 -5 -203 -19 -10 -12 -40 -15 -157 -15 -80 0 -151 4 -157 8 -17
11 -33 0 -34 -21 0 -13 -3 -12 -11 6 -6 12 -15 22 -20 22 -4 0 -8 9 -8 20 0
18 -56 58 -67 47 -2 -3 5 -8 16 -12 20 -6 51 -52 51 -74 0 -5 -9 -7 -21 -4
-12 4 -25 0 -30 -8 -7 -11 -9 -11 -9 -1 0 7 -4 11 -10 7 -10 -6 -3 -35 8 -33
19 2 23 -4 12 -17 -7 -8 -17 -15 -23 -15 -6 0 -7 3 -4 6 3 4 2 15 -4 26 -6 11
-13 17 -16 14 -4 -3 -12 2 -18 12 -10 13 -26 17 -74 16 -56 0 -78 8 -48 19 6
2 0 4 -14 3 -15 0 -25 -6 -22 -12 3 -8 -10 -9 -42 -4 -48 7 -90 38 -101 74 -4
12 -10 23 -13 26 -18 13 -61 102 -55 112 4 6 3 8 -4 4 -13 -8 -26 29 -16 45 4
7 3 9 -4 5 -6 -3 -18 1 -26 10 -12 11 -16 12 -16 2 0 -8 -3 -9 -8 -3 -10 15
-35 18 -26 4 5 -9 2 -10 -9 -6 -12 4 -17 1 -17 -12 0 -18 -39 -61 -56 -61 -5
0 0 7 10 15 11 8 16 15 11 15 -4 0 -1 8 7 18 20 23 32 53 36 91 1 8 5 12 8 9
3 -4 13 1 23 10 14 14 15 19 3 31 -11 11 -10 16 7 32 12 11 17 26 14 39 -3 12
0 20 7 20 7 0 10 6 7 13 -3 8 9 29 26 47 26 27 28 34 15 41 -28 15 -43 106
-43 259 0 181 15 257 52 266 23 6 24 8 8 17 -14 8 -15 11 -4 18 11 7 10 9 -3
9 -10 0 -18 -7 -18 -15 0 -22 -17 -18 -23 5 -5 18 4 25 26 21 5 -1 6 3 2 8 -3
6 -13 7 -23 4 -9 -3 -14 -3 -10 1 3 4 0 19 -8 34 -9 17 -10 30 -3 38 6 8 5 13
-3 17 -7 2 -19 26 -27 53 -8 27 -18 52 -23 55 -13 9 -17 44 -6 60 8 12 9 11 5
-2 -3 -9 1 -16 9 -16 7 0 11 4 8 9 -3 5 6 6 20 2 14 -3 26 -2 26 3 0 6 11 23
25 39 14 16 42 63 63 104 42 85 71 118 84 98 5 -8 6 -3 4 12 -3 14 -5 27 -5
30 -2 11 -64 -67 -86 -108 -14 -26 -36 -65 -50 -87 -14 -22 -28 -48 -31 -57
-8 -22 -37 -23 -58 -2 -20 20 -21 45 -1 38 8 -4 15 -1 15 6 0 6 -4 8 -10 5 -5
-3 -10 0 -10 7 0 10 -2 10 -9 -1 -6 -9 -11 -10 -15 -2 -4 6 -12 9 -17 6 -5 -4
-9 -1 -9 4 0 15 -47 14 -53 -1 -3 -8 -6 -5 -6 6 -1 16 -7 18 -47 13 -29 -3
-41 -1 -33 4 11 6 8 9 -8 9 -13 0 -30 11 -39 25 -16 24 -14 28 42 126 106 183
170 219 390 219 157 0 184 -9 252 -85 48 -54 51 -66 20 -95 -19 -17 -35 -20
-125 -20 -68 0 -103 -4 -103 -11 0 -7 15 -9 43 -5 l42 6 -40 -14 c-39 -13 -36
-14 74 -15 111 -1 114 0 137 26 12 15 25 37 29 50 7 28 -18 78 -46 93 -11 7
-28 19 -38 29 -32 32 -115 66 -176 72 -46 5 -40 6 25 3 96 -4 133 -12 124 -26
-4 -6 1 -6 13 0 11 6 44 8 74 5 108 -11 153 -88 139 -240 -2 -18 -7 -30 -11
-27 -4 2 -10 0 -13 -5 -4 -5 -2 -12 3 -15 11 -7 36 22 28 31 -4 3 -2 12 4 19
5 7 11 34 13 62 4 69 11 76 49 49 18 -12 34 -24 37 -27 10 -10 70 -28 65 -19
-4 5 1 6 9 3 9 -3 13 -11 9 -17 -4 -6 2 -8 16 -4 14 3 24 0 28 -9 3 -8 9 -11
14 -8 5 3 7 10 4 15 -4 5 1 9 9 9 9 0 16 -3 16 -7 0 -5 12 -9 26 -10 28 -1 44
-17 44 -43 0 -13 -1 -13 -10 0 -6 9 -10 10 -10 3 0 -17 20 -27 32 -15 6 6 17
8 25 5 8 -3 19 0 24 8 6 10 9 10 9 2 0 -7 8 -13 18 -13 16 1 16 1 0 14 -10 7
-18 16 -18 20 0 12 29 6 43 -9 12 -11 17 -12 20 -2 4 9 8 8 16 -3 9 -13 11
-13 11 2 0 11 5 15 15 12 8 -3 13 -11 12 -17 -1 -6 8 -13 21 -15 19 -3 22 -9
19 -39 -1 -20 -9 -40 -18 -46 -20 -13 -72 0 -63 15 4 6 3 8 -4 4 -6 -3 -13 -2
-17 4 -3 5 -1 10 6 10 7 0 9 3 6 6 -4 4 -14 1 -24 -7 -15 -12 -16 -12 -10 4 6
15 4 16 -14 6 -16 -8 -19 -8 -15 0 9 14 -15 24 -46 19 -22 -4 -22 -5 -3 -13
11 -5 34 -19 51 -32 17 -13 39 -23 50 -24 18 0 18 -1 -1 -8 -11 -5 -36 -6 -56
-3 -21 2 -39 0 -43 -7 -5 -8 26 -10 113 -9 66 2 116 5 110 6 -5 2 -9 38 -8 80
1 45 4 67 8 53 6 -22 8 -23 23 -8 8 9 18 14 21 11 3 -3 16 -7 29 -8 49 -6 88
-18 88 -27 0 -6 -4 -8 -8 -5 -4 2 -14 0 -22 -6 -12 -8 -11 -9 4 -4 13 5 17 2
12 -9 -3 -8 -1 -15 4 -15 12 0 9 -22 -5 -32 -5 -4 -39 -8 -74 -8 -91 0 -72 -8
29 -12 l85 -3 1 -67 c1 -66 1 -67 -16 -45 -10 12 -15 27 -13 34 3 8 -2 13 -12
13 -15 0 -13 -6 9 -45 15 -25 23 -45 17 -45 -5 0 -11 5 -13 12 -3 7 -7 5 -11
-6 -4 -10 -3 -15 3 -11 6 3 10 2 10 -4 0 -6 7 -7 17 -4 11 4 14 3 9 -5 -4 -7
-2 -12 4 -12 16 0 41 -65 34 -87 -5 -15 -4 -16 6 -3 9 12 11 10 6 -12 -5 -22
-1 -31 18 -43 23 -15 33 -34 42 -80 2 -11 7 -27 11 -35 15 -34 29 -119 19
-113 -6 4 -3 -3 7 -14 13 -15 15 -23 7 -28 -6 -4 -9 -12 -7 -19 3 -6 1 -33 -3
-59 -5 -38 -4 -50 7 -54 10 -4 13 -19 9 -62 -11 -110 -17 -145 -28 -152 -6 -4
-7 -12 -4 -18 4 -6 2 -11 -3 -11 -6 0 -10 -8 -9 -17 3 -39 -2 -64 -13 -58 -6
4 -9 1 -7 -6 5 -23 -43 -139 -55 -132 -6 3 -7 1 -3 -5 11 -18 -58 -107 -74
-97 -3 2 -4 -15 -2 -37 3 -28 1 -39 -7 -34 -6 4 -11 2 -11 -3 0 -18 19 -12 30
9 6 12 8 29 5 40 -7 21 10 36 21 19 4 -7 3 -10 -2 -6 -5 3 -9 -31 -8 -79 1
-49 -3 -84 -9 -84 -6 0 -7 -18 -4 -45 8 -57 -9 -68 -104 -63 -48 2 -69 -1 -69
-9 0 -6 -3 -19 -7 -29 -6 -15 -1 -17 48 -11 81 8 144 39 157 76 7 19 7 31 1
31 -5 0 -9 5 -9 11 0 5 4 8 9 5 5 -4 7 32 4 86 l-5 93 35 51 c43 65 89 173
119 284 20 74 23 107 23 260 -1 150 -4 187 -24 260 -26 100 -62 185 -108 258
-31 48 -33 59 -33 136 0 48 -4 86 -10 88 -6 2 -7 14 -1 35 7 23 5 37 -5 51
-18 26 -95 52 -153 52 -104 0 -480 56 -514 76 -6 4 -41 33 -77 65 -36 31 -74
61 -85 67 -51 26 -323 46 -442 32z m0 -27 c-13 -2 -33 -2 -45 0 -13 2 -3 4 22
4 25 0 35 -2 23 -4z m-146 -19 c-3 -3 -12 -4 -19 -1 -8 3 -5 6 6 6 11 1 17 -2
13 -5z m-99 -59 c-11 -24 -12 -24 -31 -8 -19 17 -20 17 -9 -2 8 -16 5 -26 -15
-50 -14 -17 -23 -25 -19 -19 13 26 -47 50 -65 26 -11 -14 -11 -15 1 -5 18 16
50 -1 50 -27 0 -11 -4 -20 -9 -20 -10 0 -81 -153 -81 -175 0 -9 -7 -18 -15
-21 -8 -4 -12 -10 -9 -15 3 -5 1 -9 -5 -9 -5 0 -13 5 -17 11 -4 7 -22 9 -48 5
-22 -3 -52 -6 -65 -6 -17 0 -22 -4 -17 -16 5 -13 4 -14 -7 -6 -16 13 -77 -5
-77 -23 0 -10 -100 -58 -106 -52 -2 2 20 16 48 30 58 30 52 36 -8 10 -22 -9
-42 -16 -46 -15 -5 1 -8 -6 -8 -16 0 -12 -17 -23 -62 -37 -35 -11 -63 -18 -63
-15 0 2 -11 -3 -24 -12 -13 -9 -30 -14 -39 -11 -10 4 -13 2 -8 -5 4 -7 2 -12
-6 -12 -7 0 -30 -3 -50 -6 -33 -6 -39 -4 -47 17 -10 26 4 53 22 42 5 -3 7 -1
4 4 -9 14 19 37 32 28 6 -3 8 0 5 8 -6 17 31 47 58 47 11 0 15 5 12 14 -4 11
1 14 20 12 20 -3 24 0 16 9 -7 8 -7 15 -2 19 6 3 17 -11 26 -32 15 -33 14 -18
-1 30 -3 12 0 16 14 14 13 -2 17 -10 16 -32 -3 -28 -2 -28 7 -5 7 16 7 28 0
36 -11 13 11 41 23 29 9 -10 68 17 61 27 -3 5 1 6 8 4 8 -3 22 1 33 9 19 15
19 15 -5 15 -24 0 -168 -73 -226 -114 -55 -39 -147 -131 -187 -185 -43 -59
-79 -95 -169 -168 -56 -45 -74 -79 -43 -79 18 0 20 13 3 20 -9 4 -8 6 2 6 9 1
22 10 29 20 8 11 21 17 29 13 9 -3 13 -1 9 5 -4 6 1 17 10 24 15 12 16 12 10
-3 -4 -12 -2 -15 9 -11 8 3 13 11 11 18 -6 13 47 68 56 59 5 -5 -27 -60 -51
-89 -5 -6 -12 -28 -16 -48 -4 -21 -10 -36 -14 -33 -4 2 -7 -10 -8 -27 -3 -111
-18 -257 -27 -257 -6 0 -3 -6 8 -13 10 -8 15 -18 12 -24 -9 -14 11 -144 24
-160 11 -12 1 -18 -23 -14 -5 0 -8 -3 -8 -9 0 -5 8 -10 19 -10 22 0 33 -40 17
-62 -9 -13 -13 -13 -24 -2 -6 7 -12 19 -12 26 0 9 -3 9 -10 -2 -7 -11 -10 -11
-10 -2 0 7 -4 11 -8 8 -13 -8 -36 40 -29 58 3 8 2 18 -3 21 -6 4 -10 -8 -10
-25 0 -18 -4 -29 -10 -25 -52 32 81 -89 158 -145 4 -3 25 -30 47 -60 51 -72
157 -179 220 -224 79 -56 302 -165 328 -160 12 2 16 2 9 -2 -6 -3 -10 -10 -6
-15 9 -16 24 -10 24 10 0 21 -22 33 -45 25 -8 -4 -15 -1 -15 5 0 6 -9 11 -20
11 -11 0 -20 7 -20 15 0 8 -5 15 -11 15 -5 0 -7 -4 -4 -10 3 -5 2 -10 -4 -10
-5 0 -12 4 -16 9 -3 6 -27 20 -53 33 -50 24 -64 37 -56 50 3 4 -2 5 -10 2 -11
-4 -13 0 -10 18 4 21 3 21 -5 3 -4 -11 -7 -23 -4 -27 2 -5 0 -8 -5 -8 -6 0
-13 12 -16 26 -5 20 -10 24 -18 16 -8 -8 -19 -5 -40 11 -46 34 -98 86 -98 98
0 5 -4 8 -9 4 -6 -3 -21 9 -35 27 -74 97 -94 128 -86 133 5 3 11 -4 15 -15 4
-11 11 -17 17 -14 7 4 8 2 4 -4 -4 -7 -1 -12 9 -12 10 0 13 -5 9 -12 -4 -7 -3
-8 5 -4 6 4 17 3 24 -2 7 -5 31 -13 54 -17 24 -4 45 -11 49 -16 3 -5 15 -9 27
-9 18 0 19 -2 7 -11 -12 -8 -10 -9 10 -7 14 1 35 -4 48 -10 12 -7 27 -10 32
-7 13 8 35 -7 35 -24 0 -8 7 -16 15 -18 12 -4 12 -3 2 5 -11 8 -11 10 1 15 19
7 43 -8 27 -18 -8 -5 -4 -11 12 -19 44 -23 57 -26 52 -12 -3 8 -12 13 -21 12
-9 0 -18 4 -20 11 -3 8 7 11 34 8 l38 -5 -37 11 c-21 6 -38 15 -38 19 0 5 -29
19 -64 31 -36 13 -62 28 -59 33 3 5 1 6 -4 3 -17 -11 -174 43 -220 75 -54 36
-85 79 -111 148 -70 193 -48 544 42 664 45 58 113 99 240 145 61 21 167 62
236 90 175 73 182 74 332 51 69 -11 133 -23 142 -26 35 -13 103 -171 131 -302
11 -53 11 -75 -2 -150 -15 -85 -13 -299 3 -424 7 -58 -27 -188 -82 -308 -32
-70 -40 -80 -63 -80 -14 0 -42 -5 -61 -10 -19 -6 -51 -11 -71 -12 -29 -1 -34
-4 -25 -14 7 -8 15 -9 24 -2 19 16 14 0 -9 -32 -17 -23 -20 -36 -14 -66 7 -42
39 -110 61 -132 16 -16 19 -52 4 -52 -5 0 -10 -7 -10 -15 0 -8 6 -12 15 -9 8
3 13 9 12 12 -1 4 2 7 8 7 5 0 9 -7 7 -15 -2 -12 -1 -13 6 -1 11 16 32 6 32
-15 0 -8 4 -13 9 -10 5 3 12 -2 15 -11 4 -9 2 -20 -5 -23 -18 -12 -47 0 -45
18 1 13 -9 18 -42 20 -26 2 -40 7 -36 14 4 6 -1 8 -12 4 -11 -3 -25 -2 -33 3
-11 7 -10 11 5 20 17 10 16 10 -7 5 -16 -3 -39 1 -57 10 -41 21 -59 21 -42 1
11 -13 10 -14 -4 -9 -11 4 -14 13 -10 29 4 15 0 24 -12 29 -15 6 -15 4 -3 -10
13 -16 12 -16 -8 -4 -12 8 -19 20 -16 29 3 11 0 10 -11 -3 -12 -16 -13 -22 -3
-28 38 -25 -22 0 -141 57 -148 71 -292 153 -292 166 0 5 -10 13 -22 19 -22 11
-22 10 -4 -4 11 -9 15 -16 9 -16 -13 0 -45 35 -37 42 3 3 1 9 -5 13 -6 3 -11
-1 -11 -9 0 -9 -5 -16 -11 -16 -5 0 -8 4 -5 8 3 5 -11 15 -30 22 -19 8 -40 20
-45 26 -6 7 -17 10 -25 7 -8 -3 -14 1 -14 10 0 8 -8 21 -17 28 -17 13 -17 13
-3 -5 15 -19 15 -19 -17 -1 -18 11 -33 25 -33 32 0 7 -4 14 -10 14 -5 1 -14 3
-20 4 -5 1 -17 3 -25 4 -8 0 -15 8 -15 17 0 8 -4 12 -10 9 -5 -3 -10 1 -10 9
0 9 -4 16 -10 16 -5 0 -10 8 -11 18 0 14 -2 14 -9 -3 -7 -17 -9 -17 -9 -3 -1
12 -6 15 -18 11 -11 -4 -14 -3 -9 5 4 7 3 12 -2 12 -5 0 -12 19 -15 43 -3 24
-9 51 -13 60 -4 12 -1 17 12 18 16 1 16 2 2 6 -11 3 -18 19 -22 51 -9 71 -5
398 6 472 5 36 12 84 15 108 3 23 9 42 13 42 5 0 6 10 2 22 -4 17 -2 20 11 15
10 -4 14 -2 11 6 -3 10 18 27 97 73 10 6 28 19 39 29 21 19 21 19 16 -26 l-5
-44 10 48 c11 46 25 58 74 62 6 1 9 6 8 12 -1 5 25 24 58 41 33 17 57 27 54
21 -3 -5 1 -6 9 -3 9 3 13 10 10 15 -3 5 3 6 13 2 10 -3 15 -3 11 2 -9 10 21
33 87 67 28 14 64 33 80 42 85 46 336 166 331 158 -3 -5 -30 -22 -60 -37 -40
-20 -53 -32 -49 -44 4 -13 3 -13 -5 -2 -13 18 -46 6 -38 -14 3 -9 0 -15 -10
-15 -8 0 -13 4 -10 9 4 5 -3 7 -14 4 -19 -5 -19 -6 -4 -18 21 -15 57 -7 50 11
-3 9 4 12 22 11 20 -2 27 2 26 16 -2 18 12 24 18 6 4 -12 38 -1 38 13 0 6 -7
5 -15 -2 -13 -11 -14 -10 -10 3 4 8 21 21 38 28 18 7 35 17 38 22 4 5 15 7 25
4 15 -3 12 -7 -13 -17 -18 -6 -33 -16 -33 -21 0 -12 17 -11 25 1 3 6 13 10 21
10 9 0 23 7 31 16 14 13 14 17 2 25 -8 5 -9 9 -4 9 6 0 15 -4 21 -10 6 -6 15
-5 24 1 12 9 11 10 -4 5 -16 -6 -17 -4 -6 9 7 9 19 14 27 11 8 -3 11 -1 8 4
-3 6 -3 10 2 11 29 2 58 11 86 26 37 20 59 25 51 12 -3 -5 -1 -9 4 -9 6 0 12
7 16 15 3 8 8 15 10 15 3 0 0 -11 -6 -25z m590 -139 c-7 -8 -15 -12 -17 -11
-5 6 10 25 20 25 5 0 4 -6 -3 -14z m552 -12 c0 -18 -24 -23 -43 -9 -24 17 -21
22 13 22 17 0 30 -6 30 -13z m-597 -11 c-7 -2 -21 -2 -30 0 -10 3 -4 5 12 5
17 0 24 -2 18 -5z m-692 -157 c5 3 9 0 9 -5 0 -6 -11 -11 -25 -11 -14 0 -25 5
-25 11 0 5 5 7 10 4 6 -3 10 0 11 7 0 10 2 10 6 0 2 -6 9 -10 14 -6z m-234
-32 c-3 -3 -12 -4 -19 -1 -8 3 -5 6 6 6 11 1 17 -2 13 -5z m1704 -258 c0 -195
3 -255 12 -249 9 5 8 2 0 -9 -9 -10 -13 -54 -12 -139 2 -219 -4 -633 -9 -666
-5 -37 -22 -46 -18 -9 2 17 -1 22 -14 19 -9 -2 -23 4 -31 14 -13 16 -12 17 3
5 11 -9 18 -10 23 -2 4 6 3 10 -2 9 -18 -4 -48 17 -51 36 -4 29 -7 39 -15 53
-6 8 -2 12 12 12 24 0 27 -10 9 -28 -9 -9 -9 -12 0 -12 7 0 12 5 12 11 0 5 5
7 10 4 6 -3 10 3 10 14 0 16 -6 21 -26 21 -20 0 -24 3 -16 13 5 6 8 23 6 37
-4 25 -4 25 15 -3 13 -21 20 -24 24 -14 3 7 1 20 -4 28 -7 12 -9 12 -9 -1 -1
-12 -3 -11 -11 3 -6 10 -9 24 -6 30 2 7 0 21 -5 32 -8 19 -8 19 -4 -1 2 -12 0
-27 -4 -33 -3 -7 -7 6 -8 29 -1 22 2 40 6 40 5 0 7 13 6 30 -1 18 2 27 8 24 6
-4 8 -1 6 7 -3 8 -11 13 -18 11 -10 -2 -10 1 1 14 9 12 9 15 2 10 -8 -4 -13
-1 -13 8 0 9 6 16 13 17 6 0 4 3 -5 7 -15 6 -15 9 -2 32 9 15 13 17 9 6 -4
-15 -3 -17 9 -7 11 9 15 9 19 -1 4 -9 6 -10 6 -1 1 7 -8 17 -20 23 -11 7 -18
17 -16 24 3 6 -1 20 -8 29 -17 23 -8 57 19 67 16 7 17 9 4 9 -11 1 -16 8 -13
20 3 15 -1 18 -13 15 -14 -5 -14 -3 2 10 10 8 15 20 10 27 -4 7 1 18 12 27 15
12 16 14 2 9 -13 -4 -15 -2 -11 10 4 10 2 14 -5 9 -7 -4 -9 3 -6 21 7 36 24
55 42 48 12 -4 13 -3 2 10 -15 17 -35 21 -24 3 4 -7 3 -8 -5 -4 -6 4 -9 16 -6
27 4 12 2 19 -7 19 -8 1 -5 7 8 18 17 15 19 20 7 30 -7 7 -13 18 -13 25 0 7 4
6 10 -3 5 -8 10 -10 10 -4 0 6 -3 14 -7 18 -5 4 -9 38 -10 74 -2 91 -4 99 -21
98 -9 -1 -16 9 -17 21 -1 13 -5 26 -10 30 -4 5 -4 -2 -1 -14 6 -17 4 -22 -7
-17 -7 2 -20 -2 -27 -10 -7 -9 -17 -13 -23 -9 -6 4 -8 0 -4 -10 4 -10 10 -24
14 -34 4 -11 3 -14 -5 -9 -7 4 -12 2 -12 -3 0 -6 4 -11 9 -11 10 0 20 -119 10
-123 -3 -1 -9 -15 -13 -32 -5 -22 -4 -26 4 -15 10 15 11 7 14 -115 1 -22 5
-46 10 -54 5 -8 4 -16 -5 -22 -10 -6 -11 -9 -1 -9 6 0 12 -4 12 -10 0 -5 -6
-10 -14 -10 -9 0 -13 -9 -11 -25 1 -14 -2 -25 -8 -25 -5 0 -4 -6 2 -14 10 -11
8 -17 -6 -25 -13 -9 -14 -11 -3 -10 27 3 40 -1 40 -11 0 -5 -7 -7 -15 -4 -18
7 -18 8 -6 -33 7 -23 6 -32 -2 -30 -6 1 -12 -7 -14 -18 -3 -17 -2 -18 7 -5 9
12 10 9 9 -15 -3 -50 1 -76 10 -70 5 3 13 0 17 -6 4 -7 3 -9 -3 -6 -6 4 -14
-5 -18 -21 l-8 -27 -13 30 c-11 26 -13 27 -14 8 0 -12 6 -28 13 -35 8 -8 12
-41 12 -90 0 -78 -8 -106 -20 -69 -3 12 -13 28 -22 37 -13 13 -14 19 -2 40 11
22 11 27 -1 35 -11 8 -12 12 -3 15 9 4 9 13 2 31 -10 26 -7 83 6 116 5 11 2
17 -6 17 -10 1 -9 5 4 14 15 12 16 14 2 20 -21 8 -19 26 3 26 15 1 15 2 -2 15
-11 8 -16 15 -10 15 5 0 9 11 9 25 0 14 -4 25 -9 25 -5 0 -3 7 4 15 7 8 9 15
4 15 -15 0 -9 101 7 111 10 6 10 9 2 9 -7 0 -13 7 -13 15 0 8 5 15 11 15 5 0
7 5 4 10 -4 6 -11 8 -16 5 -5 -4 -9 4 -9 15 0 16 4 20 16 16 10 -4 14 -2 11 6
-2 7 -10 12 -16 10 -12 -2 -9 47 4 81 4 9 3 17 -3 17 -5 0 -8 21 -7 47 2 26
-1 55 -6 64 -6 12 -4 19 7 23 8 3 12 2 9 -3 -3 -5 -2 -12 3 -15 5 -3 9 0 9 7
0 7 4 20 8 29 5 13 2 16 -17 12 -21 -5 -22 -4 -5 9 9 8 17 23 18 33 0 10 3 14
5 7 4 -8 11 -7 24 5 10 9 33 31 52 49 28 26 36 29 50 19 10 -7 16 -15 13 -18
-3 -2 1 -5 8 -5 8 0 14 6 14 13 0 7 -3 11 -7 9 -3 -2 -12 0 -19 5 -11 6 -10
13 5 33 11 14 29 31 42 38 12 7 22 17 22 22 0 6 2 8 5 5 3 -3 5 -120 6 -262z
m-1272 244 c11 -5 19 -21 19 -35 0 -15 -3 -23 -7 -18 -3 4 -17 20 -30 36 -25
27 -16 36 18 17z m-923 -126 c-3 -8 -2 -13 3 -10 5 3 15 -2 22 -11 12 -15 12
-16 -3 -10 -11 4 -21 0 -27 -11 -9 -15 -10 -14 -11 6 0 13 -4 21 -10 17 -5 -3
-7 -12 -3 -20 3 -9 -1 -15 -11 -15 -9 0 -16 -6 -16 -14 0 -8 -4 -18 -10 -21
-15 -9 6 40 32 75 23 32 44 41 34 14z m2056 -71 c14 -12 18 -31 18 -80 0 -67
-9 -77 -34 -41 -16 22 -23 138 -9 138 3 0 15 -7 25 -17z m411 -37 c4 -10 1
-13 -9 -9 -15 6 -19 23 -5 23 5 0 11 -7 14 -14z m-423 -145 c0 -65 18 -76 23
-14 3 43 4 41 5 -16 2 -56 0 -62 -15 -57 -16 6 -16 6 0 -12 22 -24 24 -60 2
-42 -8 7 -15 10 -15 7 0 -2 7 -21 15 -40 8 -20 15 -47 14 -59 0 -22 -1 -22 -8
-3 -7 17 -9 15 -13 -13 -3 -20 0 -37 9 -43 7 -6 13 -20 13 -31 0 -17 -3 -18
-15 -8 -8 7 -15 10 -15 7 0 -2 7 -21 15 -40 19 -46 19 -91 1 -106 -12 -10 -15
-7 -19 16 -4 27 -4 27 -6 -4 0 -18 6 -39 15 -48 18 -18 30 -94 20 -121 -6 -15
-8 -15 -26 1 -21 19 -27 45 -10 45 6 0 10 -4 10 -10 0 -5 5 -10 10 -10 13 0 2
50 -16 71 -9 9 -14 40 -14 77 0 61 12 82 25 41 4 -11 9 -19 11 -16 2 2 -5 24
-16 48 -20 46 -26 105 -11 111 14 5 16 58 4 103 -14 52 -16 215 -3 215 5 0 10
-22 10 -49z m295 -223 c37 -32 37 -83 1 -115 -36 -30 -70 -29 -95 3 -41 52
-17 134 39 134 16 0 41 -10 55 -22z m212 -10 c-3 -7 -5 -2 -5 12 0 14 2 19 5
13 2 -7 2 -19 0 -25z m-1508 -339 c-13 -26 -16 -24 -15 10 1 22 4 27 13 19 9
-7 10 -16 2 -29z m-1166 -54 c4 -8 -3 -12 -18 -12 -17 0 -21 4 -18 18 5 19 28
16 36 -6z m17 -31 c0 -8 -19 -13 -24 -6 -3 5 1 9 9 9 8 0 15 -2 15 -3z m910
-284 c0 -5 -10 -10 -22 -9 -22 0 -22 1 -3 9 11 5 21 9 23 9 1 1 2 -3 2 -9z
m657 -262 c-3 -7 -5 -2 -5 12 0 14 2 19 5 13 2 -7 2 -19 0 -25z m-667 -78 c0
-5 -4 -10 -10 -10 -5 0 -10 5 -10 10 0 6 5 10 10 10 6 0 10 -4 10 -10z m104
-18 c3 -5 -1 -9 -9 -9 -8 0 -15 4 -15 9 0 4 4 8 9 8 6 0 12 -4 15 -8z m63 -69
c11 -14 14 -14 10 -3 -3 11 3 16 19 18 28 2 33 -23 7 -31 -10 -2 -27 -8 -37
-13 -14 -5 -17 -4 -12 4 4 7 3 12 -2 12 -6 0 -12 7 -16 15 -8 21 14 19 31 -2z
m330 1 c-3 -3 -12 -4 -19 -1 -8 3 -5 6 6 6 11 1 17 -2 13 -5z"/>
<path d="M1415 4605 c-16 -8 -95 -44 -175 -81 -210 -95 -238 -110 -265 -141
-22 -26 -41 -71 -32 -79 2 -2 51 13 108 34 144 53 194 66 261 66 l58 0 11 38
c5 21 7 44 3 51 -4 6 -3 9 1 4 7 -5 75 104 75 120 0 6 -15 2 -45 -12z m-19
-71 c-13 -19 -21 -23 -29 -15 -6 6 -15 11 -21 11 -5 0 -2 -6 8 -13 14 -10 16
-21 11 -50 -6 -33 -10 -36 -39 -36 -59 2 -157 -20 -182 -40 -20 -15 -31 -18
-44 -11 -27 14 -34 12 -20 -5 11 -13 8 -14 -20 -8 -22 4 -31 3 -27 -4 4 -6 -2
-13 -12 -16 -24 -6 -36 20 -19 40 16 20 103 63 127 63 11 0 21 3 23 8 6 14
108 63 118 57 5 -3 10 -1 10 4 0 6 6 11 13 11 7 0 29 9 48 19 28 15 39 17 48
8 9 -9 11 -7 5 8 -6 16 -4 18 6 8 11 -10 10 -17 -4 -39z m-406 -178 c0 -3 -4
-8 -10 -11 -5 -3 -10 -1 -10 4 0 6 5 11 10 11 6 0 10 -2 10 -4z"/>
<path d="M1195 4300 c-3 -6 1 -7 9 -4 18 7 21 14 7 14 -6 0 -13 -4 -16 -10z"/>
<path d="M1407 4304 c-1 -1 -20 -5 -42 -8 -22 -3 -60 -10 -85 -15 -25 -5 -58
-7 -74 -4 -22 5 -27 3 -21 -7 6 -10 2 -11 -19 -6 -20 5 -26 4 -20 -5 5 -9 2
-10 -11 -6 -9 4 -25 2 -33 -5 -13 -11 -14 -11 -8 0 6 10 0 10 -22 -2 -17 -9
-39 -16 -50 -16 -22 0 -115 -31 -109 -36 2 -2 59 7 127 21 145 30 426 75 464
75 14 0 26 3 26 8 0 6 -116 13 -123 6z"/>
<path d="M671 4284 c0 -11 3 -14 6 -6 3 7 2 16 -1 19 -3 4 -6 -2 -5 -13z"/>
<path d="M970 4290 c-8 -5 -12 -11 -9 -14 2 -3 11 -1 19 4 8 5 12 11 9 14 -2
3 -11 1 -19 -4z"/>
<path d="M640 4279 c0 -5 5 -7 10 -4 6 3 10 8 10 11 0 2 -4 4 -10 4 -5 0 -10
-5 -10 -11z"/>
<path d="M1572 3682 c-2 -329 -1 -594 4 -590 4 4 9 238 11 520 3 282 8 532 12
555 5 24 4 40 0 37 -5 -3 -7 9 -5 25 2 17 -2 35 -8 40 -8 7 -12 -149 -14 -587z"/>
<path d="M630 4256 c0 -2 7 -6 15 -10 8 -3 15 -1 15 4 0 6 -7 10 -15 10 -8 0
-15 -2 -15 -4z"/>
<path d="M878 4183 c7 -3 16 -2 19 1 4 3 -2 6 -13 5 -11 0 -14 -3 -6 -6z"/>
<path d="M521 4114 c0 -11 3 -14 6 -6 3 7 2 16 -1 19 -3 4 -6 -2 -5 -13z"/>
<path d="M477 4090 c-3 -11 -2 -22 2 -24 4 -3 8 6 9 20 2 29 -4 31 -11 4z"/>
<path d="M470 3939 c0 -11 5 -17 10 -14 6 3 10 13 10 21 0 8 -4 14 -10 14 -5
0 -10 -9 -10 -21z"/>
<path d="M427 3923 c-4 -3 -7 -11 -7 -17 0 -6 4 -4 10 4 5 8 12 11 16 7 4 -4
2 -13 -4 -19 -7 -7 -12 -29 -12 -50 0 -30 4 -38 18 -37 10 0 12 3 5 6 -15 6
-17 49 -3 58 15 9 12 55 -3 55 -8 0 -17 -3 -20 -7z"/>
<path d="M471 3884 c0 -11 3 -14 6 -6 3 7 2 16 -1 19 -3 4 -6 -2 -5 -13z"/>
<path d="M451 3854 c0 -11 3 -14 6 -6 3 7 2 16 -1 19 -3 4 -6 -2 -5 -13z"/>
<path d="M404 3825 c0 -19 4 -35 8 -35 4 0 8 16 8 35 0 19 -4 35 -8 35 -4 0
-8 -16 -8 -35z"/>
<path d="M441 3774 c0 -11 3 -14 6 -6 3 7 2 16 -1 19 -3 4 -6 -2 -5 -13z"/>
<path d="M402 3760 c0 -14 2 -19 5 -12 2 6 2 18 0 25 -3 6 -5 1 -5 -13z"/>
<path d="M395 3695 c0 -13 3 -21 8 -18 4 2 7 10 7 18 0 8 -3 16 -7 18 -5 3 -8
-5 -8 -18z"/>
<path d="M470 3695 c0 -8 4 -15 10 -15 5 0 7 7 4 15 -4 8 -8 15 -10 15 -2 0
-4 -7 -4 -15z"/>
<path d="M430 3670 c0 -11 5 -20 10 -20 6 0 10 9 10 20 0 11 -4 20 -10 20 -5
0 -10 -9 -10 -20z"/>
<path d="M331 3644 c0 -11 3 -14 6 -6 3 7 2 16 -1 19 -3 4 -6 -2 -5 -13z"/>
<path d="M395 3650 c-3 -5 -1 -10 4 -10 6 0 11 5 11 10 0 6 -2 10 -4 10 -3 0
-8 -4 -11 -10z"/>
<path d="M455 3630 c3 -5 8 -10 11 -10 2 0 4 5 4 10 0 6 -5 10 -11 10 -5 0 -7
-4 -4 -10z"/>
<path d="M429 3498 c4 -28 6 -29 9 -9 2 13 0 27 -5 32 -6 6 -7 -3 -4 -23z"/>
<path d="M401 3444 c0 -11 3 -14 6 -6 3 7 2 16 -1 19 -3 4 -6 -2 -5 -13z"/>
<path d="M475 3430 c3 -5 8 -10 11 -10 2 0 4 5 4 10 0 6 -5 10 -11 10 -5 0 -7
-4 -4 -10z"/>
<path d="M450 3414 c0 -8 5 -12 10 -9 6 4 8 11 5 16 -9 14 -15 11 -15 -7z"/>
<path d="M1622 3325 c0 -16 2 -22 5 -12 2 9 2 23 0 30 -3 6 -5 -1 -5 -18z"/>
<path d="M360 3296 c0 -8 4 -17 9 -20 5 -4 7 3 4 14 -6 23 -13 26 -13 6z"/>
<path d="M770 3266 c0 -2 7 -7 16 -10 8 -3 12 -2 9 4 -6 10 -25 14 -25 6z"/>
<path d="M570 3204 c0 -8 5 -12 10 -9 6 4 8 11 5 16 -9 14 -15 11 -15 -7z"/>
<path d="M450 3201 c0 -5 7 -12 16 -15 14 -5 15 -4 4 9 -14 17 -20 19 -20 6z"/>
<path d="M967 3145 c17 -8 42 -16 55 -19 12 -2 41 -11 63 -19 56 -20 172 -40
184 -32 6 3 11 2 11 -3 0 -11 8 -11 138 -13 57 0 106 2 109 5 4 3 -9 6 -28 6
-56 0 -411 56 -544 85 -11 3 -6 -2 12 -10z"/>
<path d="M877 3109 c7 -7 15 -10 18 -7 3 3 -2 9 -12 12 -14 6 -15 5 -6 -5z"/>
<path d="M930 3103 c0 -7 -7 -13 -15 -13 -8 0 -15 -8 -15 -17 0 -14 2 -15 9
-5 4 8 11 13 15 12 17 -4 25 6 16 20 -6 10 -10 11 -10 3z"/>
<path d="M930 3056 c0 -3 10 -26 22 -51 20 -41 31 -50 103 -84 173 -84 278
-131 289 -131 6 0 27 -10 46 -22 19 -12 41 -23 48 -24 15 -3 16 22 1 32 -15 9
-56 103 -64 148 l-7 36 -69 0 c-55 0 -94 9 -201 46 -170 58 -168 57 -168 50z
m35 -16 c3 -5 1 -10 -4 -10 -6 0 -11 5 -11 10 0 6 2 10 4 10 3 0 8 -4 11 -10z
m63 -29 c25 -10 30 -16 20 -22 -10 -7 -9 -9 4 -9 9 0 19 6 21 13 3 7 6 4 6 -7
1 -14 7 -17 26 -14 14 3 28 1 31 -4 3 -4 10 -6 15 -2 5 3 16 0 24 -6 17 -14
65 -24 127 -24 45 -1 51 -5 47 -32 0 -4 5 -11 13 -16 11 -8 11 -10 -1 -15 -7
-3 -9 -8 -4 -12 5 -3 19 -23 32 -43 19 -33 20 -38 6 -38 -9 0 -14 4 -10 9 3 6
-3 10 -12 9 -23 0 -174 67 -183 82 -4 6 -14 8 -23 4 -10 -4 -17 -1 -17 6 0 7
-7 10 -15 6 -8 -3 -15 -2 -15 3 0 4 -19 16 -42 26 -75 31 -87 38 -82 47 3 4 1
8 -4 8 -5 0 -9 11 -9 25 0 14 2 24 6 22 3 -2 21 -9 39 -16z"/>
<path d="M1116 3035 c-3 -8 -1 -15 4 -15 6 0 10 7 10 15 0 8 -2 15 -4 15 -2 0
-6 -7 -10 -15z"/>
<path d="M1214 3035 c20 -15 83 -18 92 -3 3 4 -3 5 -12 1 -12 -5 -15 -3 -9 6
6 10 3 11 -13 2 -14 -8 -29 -8 -49 -1 -26 9 -26 9 -9 -5z"/>
<path d="M905 3030 c-3 -5 -2 -18 4 -27 7 -14 9 -12 8 10 -2 30 -3 31 -12 17z"/>
<path d="M1195 3016 c18 -13 18 -14 -10 -10 -26 4 -24 2 10 -11 22 -9 50 -14
63 -12 12 2 22 0 22 -6 0 -6 16 -7 41 -3 26 4 46 2 55 -5 9 -8 14 -8 14 -1 0
6 -5 14 -10 17 -6 4 -8 10 -5 15 9 15 -13 21 -27 8 -17 -17 -121 -21 -112 -5
4 7 4 9 -1 5 -4 -4 -14 -1 -22 7 -8 8 -19 15 -26 15 -6 0 -2 -6 8 -14z"/>
<path d="M1300 2774 c0 -2 9 -8 20 -14 11 -6 20 -7 20 -2 0 6 -9 12 -20 15
-11 3 -20 3 -20 1z"/>
<path d="M1526 2658 c3 -5 10 -6 15 -3 13 9 11 12 -6 12 -8 0 -12 -4 -9 -9z"/>
<path d="M2856 4305 c-9 -26 -7 -32 5 -12 6 10 9 21 6 23 -2 3 -7 -2 -11 -11z"/>
<path d="M2801 4183 c-7 -8 -11 -16 -8 -19 2 -2 10 2 17 11 17 20 9 27 -9 8z"/>
<path d="M2800 4130 c0 -11 4 -20 9 -20 5 0 7 9 4 20 -3 11 -7 20 -9 20 -2 0
-4 -9 -4 -20z"/>
<path d="M2682 4040 c0 -14 2 -19 5 -12 2 6 2 18 0 25 -3 6 -5 1 -5 -13z"/>
<path d="M2815 3890 c3 -5 8 -10 11 -10 2 0 4 5 4 10 0 6 -5 10 -11 10 -5 0
-7 -4 -4 -10z"/>
<path d="M2836 3764 c-4 -9 -4 -19 -1 -22 3 -3 5 0 5 7 0 6 10 16 23 21 22 9
22 9 1 9 -12 1 -25 -6 -28 -15z"/>
<path d="M2831 3694 c0 -11 3 -14 6 -6 3 7 2 16 -1 19 -3 4 -6 -2 -5 -13z"/>
<path d="M2835 3611 c-3 -5 -2 -12 3 -15 5 -3 9 1 9 9 0 17 -3 19 -12 6z"/>
<path d="M2786 3591 c-4 -5 -2 -12 3 -15 5 -4 12 -2 15 3 4 5 2 12 -3 15 -5 4
-12 2 -15 -3z"/>
<path d="M2681 3534 c0 -11 3 -14 6 -6 3 7 2 16 -1 19 -3 4 -6 -2 -5 -13z"/>
<path d="M2849 3453 c0 -10 -3 -13 -6 -6 -3 10 -7 10 -18 0 -7 -7 -11 -16 -8
-21 3 -4 9 -2 14 5 7 11 9 10 9 -3 0 -9 -5 -20 -11 -23 -6 -4 -8 -13 -5 -21 3
-7 -3 -18 -12 -23 -15 -9 -14 -10 4 -8 16 1 21 7 20 27 0 14 4 24 10 23 5 -1
11 14 11 33 1 19 -1 34 -3 34 -2 0 -4 -8 -5 -17z"/>
<path d="M2677 3429 c4 -13 8 -18 11 -10 2 7 -1 18 -6 23 -8 8 -9 4 -5 -13z"/>
<path d="M2670 3296 c0 -14 4 -27 8 -30 5 -3 6 8 4 25 -5 35 -12 38 -12 5z"/>
<path d="M2841 3184 c0 -11 3 -14 6 -6 3 7 2 16 -1 19 -3 4 -6 -2 -5 -13z"/>
<path d="M2838 3123 c-7 -25 6 -53 14 -31 3 7 2 22 -2 32 -6 19 -7 19 -12 -1z"/>
<path d="M1600 4326 c0 -2 8 -10 18 -17 15 -13 16 -12 3 4 -13 16 -21 21 -21
13z"/>
<path d="M2748 4065 c2 -19 6 -35 8 -35 2 0 4 16 4 35 0 19 -4 35 -8 35 -4 0
-6 -16 -4 -35z"/>
<path d="M2998 3712 c-22 -3 -26 -7 -23 -30 1 -15 3 -35 4 -45 1 -14 6 -17 24
-11 29 9 28 7 32 48 4 40 1 43 -37 38z m29 -44 c-3 -8 -6 -5 -6 6 -1 11 2 17
5 13 3 -3 4 -12 1 -19z"/>
<path d="M2303 4785 c0 -8 4 -12 9 -9 5 3 6 10 3 15 -9 13 -12 11 -12 -6z"/>
<path d="M1316 4708 c3 -5 10 -6 15 -3 13 9 11 12 -6 12 -8 0 -12 -4 -9 -9z"/>
<path d="M1625 4690 c-3 -6 1 -7 9 -4 18 7 21 14 7 14 -6 0 -13 -4 -16 -10z"/>
<path d="M1540 4609 c0 -5 5 -7 10 -4 6 3 10 8 10 11 0 2 -4 4 -10 4 -5 0 -10
-5 -10 -11z"/>
<path d="M1507 4569 c-9 -11 -13 -28 -10 -36 3 -7 2 -13 -3 -11 -5 2 -11 -1
-14 -6 -3 -5 2 -10 12 -12 12 -1 15 5 13 23 -1 13 4 31 13 39 8 8 12 17 9 20
-3 3 -12 -5 -20 -17z"/>
<path d="M2408 4573 c7 -3 16 -2 19 1 4 3 -2 6 -13 5 -11 0 -14 -3 -6 -6z"/>
<path d="M2196 4559 c2 -4 -7 -21 -21 -37 -21 -25 -37 -68 -19 -49 4 3 14 -3
23 -15 15 -18 20 -19 39 -7 12 8 22 20 22 27 0 7 5 10 12 6 7 -5 8 -3 3 6 -6
10 -11 9 -22 -5 -7 -11 -13 -15 -13 -11 0 5 -6 3 -14 -3 -11 -9 -16 -9 -22 0
-4 8 -3 9 4 5 7 -4 12 -2 12 4 0 7 -7 10 -15 7 -25 -10 -26 10 -1 26 27 18 40
54 20 54 -7 0 -11 -4 -8 -8z"/>
<path d="M2263 4537 c-8 -17 -8 -24 0 -24 7 0 13 11 13 24 2 29 0 29 -13 0z"/>
<path d="M3090 4556 c0 -2 7 -7 16 -10 8 -3 12 -2 9 4 -6 10 -25 14 -25 6z"/>
<path d="M963 4535 c0 -7 6 -11 14 -8 7 3 13 6 13 8 0 2 -6 5 -13 8 -8 3 -14
-1 -14 -8z"/>
<path d="M1935 4480 c3 -5 17 -10 30 -10 25 0 85 -30 85 -42 0 -5 9 -8 21 -8
11 0 17 -5 14 -10 -4 -6 -3 -9 2 -8 4 1 18 -1 31 -6 20 -7 22 -14 22 -77 0
-40 4 -69 10 -69 6 0 10 19 11 43 0 73 4 94 15 94 15 0 94 56 94 66 0 5 -13
-1 -30 -13 -16 -12 -39 -23 -50 -25 -11 -2 -24 -7 -30 -10 -9 -5 -35 7 -125
60 -40 23 -112 34 -100 15z"/>
<path d="M2575 4480 c3 -5 8 -10 11 -10 2 0 4 5 4 10 0 6 -5 10 -11 10 -5 0
-7 -4 -4 -10z"/>
<path d="M2607 4483 c-4 -3 -7 -15 -7 -27 0 -20 0 -20 15 0 8 10 15 22 15 27
0 9 -14 9 -23 0z"/>
<path d="M2910 4480 c0 -5 6 -10 14 -10 8 0 18 5 21 10 3 6 -3 10 -14 10 -12
0 -21 -4 -21 -10z"/>
<path d="M2980 4479 c0 -5 5 -7 10 -4 6 3 10 8 10 11 0 2 -4 4 -10 4 -5 0 -10
-5 -10 -11z"/>
<path d="M1450 4465 c-7 -9 -8 -15 -2 -15 5 0 12 7 16 15 3 8 4 15 2 15 -2 0
-9 -7 -16 -15z"/>
<path d="M2630 4462 c0 -4 4 -21 9 -38 5 -18 5 -37 0 -45 -7 -11 -9 -11 -9 -1
0 7 -5 10 -11 6 -8 -4 -9 1 -4 16 5 15 4 20 -4 16 -6 -4 -11 -16 -11 -28 0
-20 -1 -20 -18 3 -13 15 -21 19 -26 10 -4 -7 -2 -10 5 -9 6 2 13 -2 16 -8 6
-17 -50 -12 -65 6 -12 13 -13 13 -8 -2 3 -11 0 -18 -8 -18 -16 0 -46 -42 -46
-64 0 -8 -6 -17 -12 -19 -9 -4 -9 -6 -1 -6 11 -1 10 -64 -2 -102 -3 -9 1 -23
9 -31 12 -12 11 -18 -4 -38 -9 -12 -22 -20 -29 -16 -7 5 -9 1 -5 -8 3 -9 11
-13 18 -9 6 3 7 2 3 -3 -5 -5 -14 -9 -20 -9 -7 -1 -11 -6 -9 -13 3 -15 -14
-16 -23 -2 -4 6 -11 7 -17 4 -6 -4 -5 -10 3 -15 10 -6 8 -9 -8 -9 -13 0 -23
-4 -23 -10 0 -5 -8 -10 -18 -10 -10 0 -23 -5 -30 -12 -7 -7 -12 -9 -12 -4 0 4
-7 0 -16 -9 -9 -9 -23 -14 -30 -11 -8 3 -14 1 -14 -3 0 -5 -12 -6 -27 -2 -20
6 -27 13 -25 27 2 16 1 16 -7 4 -17 -24 -13 -40 12 -40 17 0 19 -2 7 -9 -8 -6
-17 -8 -21 -5 -4 2 -10 -2 -12 -8 -3 -7 -6 1 -6 18 -1 19 -7 34 -16 38 -8 3
-15 4 -15 3 1 -1 9 -25 19 -54 15 -45 20 -50 32 -38 8 7 61 34 119 60 168 75
170 76 176 101 5 19 13 24 40 24 29 0 34 3 34 24 0 14 30 81 68 150 58 108 67
132 64 166 -2 22 -8 40 -13 40 -5 0 -9 -3 -9 -8z m-40 -110 l-35 -5 30 -7 30
-7 -32 -8 c-33 -8 -33 -8 -49 -98 -3 -20 -10 -40 -15 -42 -4 -3 -6 -12 -2 -20
4 -11 -3 -15 -27 -15 -31 0 -32 1 -26 38 3 20 8 60 11 87 4 28 9 56 13 62 9
14 38 21 92 20 41 0 42 -1 10 -5z"/>
<path d="M2828 4443 c7 -3 16 -2 19 1 4 3 -2 6 -13 5 -11 0 -14 -3 -6 -6z"/>
<path d="M1430 4426 c0 -17 16 -30 23 -19 3 5 -1 14 -9 21 -12 10 -14 10 -14
-2z"/>
<path d="M1475 4400 c-3 -5 -1 -10 4 -10 6 0 11 5 11 10 0 6 -2 10 -4 10 -3 0
-8 -4 -11 -10z"/>
<path d="M650 4397 c0 -2 6 -10 14 -16 11 -9 16 -9 22 1 4 7 4 10 -1 6 -4 -4
-14 -3 -22 3 -7 6 -13 9 -13 6z"/>
<path d="M1604 4386 c10 -9 23 -13 27 -10 5 3 9 -1 9 -8 0 -10 2 -10 9 1 7 11
9 11 13 0 3 -9 7 -7 12 6 4 11 4 16 0 12 -4 -4 -13 -2 -20 4 -8 7 -14 7 -19
-1 -4 -7 -13 -7 -28 1 -21 10 -21 9 -3 -5z"/>
<path d="M1720 4396 c0 -2 8 -10 18 -17 15 -13 16 -12 3 4 -13 16 -21 21 -21
13z"/>
<path d="M3035 4370 c3 -5 8 -10 11 -10 2 0 4 5 4 10 0 6 -5 10 -11 10 -5 0
-7 -4 -4 -10z"/>
<path d="M1952 4320 c0 -14 2 -19 5 -12 2 6 2 18 0 25 -3 6 -5 1 -5 -13z"/>
<path d="M2086 4323 c-6 -14 -5 -15 5 -6 7 7 10 15 7 18 -3 3 -9 -2 -12 -12z"/>
<path d="M525 4303 c11 -12 18 -14 26 -6 8 8 7 13 -2 18 -8 5 -10 4 -5 -3 9
-15 -6 -16 -22 -2 -7 5 -5 2 3 -7z"/>
<path d="M1932 4295 c0 -16 2 -22 5 -12 2 9 2 23 0 30 -3 6 -5 -1 -5 -18z"/>
<path d="M1676 4298 c3 -4 9 -8 15 -8 5 0 9 4 9 8 0 5 -7 9 -15 9 -8 0 -12 -4
-9 -9z"/>
<path d="M483 4275 c0 -7 6 -11 14 -8 7 3 13 6 13 8 0 2 -6 5 -13 8 -8 3 -14
-1 -14 -8z"/>
<path d="M2112 4255 c-11 -12 -10 -15 3 -15 8 0 15 7 15 15 0 18 -2 18 -18 0z"/>
<path d="M2140 4229 c0 -5 5 -7 10 -4 6 3 10 8 10 11 0 2 -4 4 -10 4 -5 0 -10
-5 -10 -11z"/>
<path d="M2080 4220 c-13 -8 -12 -10 3 -10 9 0 17 5 17 10 0 12 -1 12 -20 0z"/>
<path d="M2116 4134 c6 -66 4 -88 -6 -94 -11 -7 -10 -11 3 -25 16 -15 17 -9
17 94 0 68 -4 111 -10 111 -7 0 -8 -31 -4 -86z"/>
<path d="M2635 4192 c-16 -9 -32 -19 -35 -22 -3 -3 -14 -7 -25 -8 -33 -6 -30
-12 6 -12 37 0 45 4 73 38 23 26 20 27 -19 4z"/>
<path d="M2146 4169 c-9 -44 -8 -89 2 -89 5 0 10 27 11 60 2 66 -3 78 -13 29z"/>
<path d="M3081 4184 c0 -11 3 -14 6 -6 3 7 2 16 -1 19 -3 4 -6 -2 -5 -13z"/>
<path d="M2077 4176 c-4 -10 -1 -13 8 -9 8 3 12 9 9 14 -7 12 -11 11 -17 -5z"/>
<path d="M3096 4163 c-6 -14 -5 -15 5 -6 7 7 10 15 7 18 -3 3 -9 -2 -12 -12z"/>
<path d="M2407 4156 c-4 -9 -1 -15 5 -13 6 1 13 -4 16 -12 3 -8 0 -11 -7 -7
-6 4 -11 2 -11 -3 0 -6 4 -11 9 -11 18 0 22 20 8 40 -12 18 -15 18 -20 6z"/>
<path d="M2496 4023 c-3 -32 -9 -179 -12 -328 -6 -251 0 -372 22 -429 5 -13
-1 -16 -31 -16 -20 0 -34 3 -32 8 3 4 1 17 -4 30 -6 17 -48 42 -154 93 -79 38
-149 78 -155 89 -6 11 -10 103 -10 219 0 204 -3 236 -24 224 -7 -4 -6 -1 1 9
11 12 10 19 -5 35 -13 14 -32 20 -76 22 -32 1 -69 7 -82 12 -20 7 -24 5 -24
-12 0 -19 5 -20 74 -18 40 1 78 -1 85 -5 17 -11 16 -526 -1 -549 -12 -15 -24
-16 -113 -7 -154 15 -165 14 -165 -12 0 -17 2 -20 9 -9 5 8 23 16 41 18 22 2
29 -1 24 -9 -5 -8 0 -9 14 -6 21 6 31 -5 15 -15 -5 -2 -2 -2 5 0 8 1 52 6 98
9 85 7 112 20 100 49 -3 8 -1 15 4 15 5 0 7 7 4 15 -4 8 -1 15 6 15 9 0 10
-11 6 -37 -4 -21 -7 -46 -8 -55 -1 -9 -4 -15 -6 -13 -8 8 -43 -16 -37 -25 11
-17 55 14 55 40 0 25 19 64 21 45 1 -5 1 -44 2 -85 0 -74 0 -74 4 -12 2 34 8
62 14 62 6 0 7 5 4 10 -4 6 10 3 29 -7 26 -12 32 -19 24 -25 -8 -5 -2 -6 14
-2 21 4 29 2 34 -10 3 -9 11 -16 18 -15 6 1 24 -3 39 -9 16 -7 32 -12 35 -12
4 0 15 -9 25 -20 10 -12 21 -18 26 -15 5 3 8 -8 7 -24 -1 -22 2 -27 12 -23 16
6 14 -21 -3 -62 -5 -11 -5 -17 1 -14 5 4 9 -15 8 -40 -1 -72 -3 -84 -14 -77
-6 3 -7 -1 -4 -10 6 -14 7 -14 18 0 10 14 12 13 13 -6 1 -13 9 -26 17 -31 9
-5 13 -16 10 -26 -4 -10 -3 -13 3 -6 4 6 25 10 45 9 24 -1 35 2 31 9 -4 6 2 4
12 -4 13 -11 17 -11 11 -2 -6 10 -3 13 10 10 13 -2 18 -11 16 -25 -2 -11 4
-23 12 -26 17 -7 12 -31 -12 -59 -10 -12 -11 -18 -3 -18 22 0 49 35 49 65 0
35 -51 129 -63 117 -4 -4 -5 -2 -2 5 4 6 -10 47 -31 91 -37 75 -38 82 -31 143
25 212 21 799 -6 799 -8 0 -15 -22 -19 -57z m21 -871 c7 -20 13 -51 13 -69 0
-49 9 -63 41 -63 16 0 29 -4 29 -10 0 -6 -26 -10 -59 -10 -67 0 -65 -1 -76 85
-3 28 -9 62 -11 77 -4 22 -1 27 18 30 29 5 29 5 45 -40z"/>
<path d="M3247 4056 c-4 -10 -3 -15 3 -11 6 3 10 1 10 -6 0 -7 3 -10 6 -6 3 3
2 13 -4 22 -8 16 -9 16 -15 1z"/>
<path d="M1918 4023 c7 -3 16 -2 19 1 4 3 -2 6 -13 5 -11 0 -14 -3 -6 -6z"/>
<path d="M2570 4011 c0 -6 4 -13 10 -16 6 -3 7 1 4 9 -7 18 -14 21 -14 7z"/>
<path d="M1877 3999 c7 -7 15 -10 18 -7 3 3 -2 9 -12 12 -14 6 -15 5 -6 -5z"/>
<path d="M1993 3993 c15 -2 39 -2 55 0 15 2 2 4 -28 4 -30 0 -43 -2 -27 -4z"/>
<path d="M2977 3960 c-12 -42 -9 -51 16 -45 50 13 110 -89 111 -187 1 -33 4
-51 9 -42 15 26 16 77 2 110 -10 23 -11 36 -3 40 7 4 3 13 -11 23 -12 9 -23
26 -24 38 -1 13 -6 19 -15 16 -8 -4 -16 3 -19 17 -4 16 -8 18 -14 8 -7 -11 -9
-11 -9 1 0 7 -6 11 -14 8 -10 -4 -16 2 -18 16 -3 21 -4 21 -11 -3z"/>
<path d="M1800 3960 c0 -13 11 -13 30 0 12 8 11 10 -7 10 -13 0 -23 -4 -23
-10z"/>
<path d="M1850 3960 c0 -5 9 -10 19 -10 11 0 23 5 26 10 4 6 -5 10 -19 10 -14
0 -26 -4 -26 -10z"/>
<path d="M1746 3889 c-9 -45 -8 -61 5 -54 5 4 8 12 6 18 -2 7 0 20 5 31 6 11
6 22 0 28 -6 6 -12 -2 -16 -23z"/>
<path d="M2992 3870 c0 -14 2 -19 5 -12 2 6 2 18 0 25 -3 6 -5 1 -5 -13z"/>
<path d="M1729 3766 c0 -28 -2 -67 -4 -86 -4 -31 -3 -33 9 -18 7 10 16 14 21
10 4 -4 2 3 -6 15 -10 16 -10 34 -3 75 8 43 7 55 -3 55 -9 0 -13 -16 -14 -51z"/>
<path d="M3200 3786 c0 -8 4 -17 9 -20 5 -4 7 3 4 14 -6 23 -13 26 -13 6z"/>
<path d="M3107 3611 c-8 -64 -50 -157 -79 -172 -11 -6 -29 -8 -40 -6 -16 5
-19 1 -16 -26 2 -23 9 -32 23 -34 11 -2 14 0 8 3 -21 9 -15 31 10 38 38 9 77
45 70 63 -4 11 -3 14 5 9 12 -7 23 10 27 42 1 10 5 29 9 43 4 14 3 41 -2 60
-8 34 -8 34 -15 -20z"/>
<path d="M3223 3600 c0 -25 2 -35 4 -22 2 12 2 32 0 45 -2 12 -4 2 -4 -23z"/>
<path d="M1731 3590 c-2 -47 18 -143 31 -152 21 -13 33 -9 14 5 -11 8 -19 31
-22 65 -3 28 -9 64 -14 79 -8 28 -8 28 -9 3z"/>
<path d="M3010 3560 c0 -5 5 -10 11 -10 5 0 7 5 4 10 -3 6 -8 10 -11 10 -2 0
-4 -4 -4 -10z"/>
<path d="M2987 3486 c-8 -20 6 -36 19 -22 8 9 7 15 -2 23 -9 9 -13 9 -17 -1z"/>
<path d="M1840 3429 c0 -5 11 -9 25 -9 14 0 25 2 25 4 0 2 -11 6 -25 8 -14 3
-25 1 -25 -3z"/>
<path d="M2035 3420 c-3 -5 -1 -10 4 -10 6 0 11 5 11 10 0 6 -2 10 -4 10 -3 0
-8 -4 -11 -10z"/>
<path d="M1948 3413 c6 -2 18 -2 25 0 6 3 1 5 -13 5 -14 0 -19 -2 -12 -5z"/>
<path d="M1883 3344 c9 -9 167 -11 167 -2 0 4 -39 8 -87 8 -47 0 -84 -3 -80
-6z"/>
<path d="M1811 3314 c0 -11 3 -14 6 -6 3 7 2 16 -1 19 -3 4 -6 -2 -5 -13z"/>
<path d="M2100 3316 c0 -8 5 -18 10 -21 6 -3 10 3 10 14 0 12 -4 21 -10 21 -5
0 -10 -6 -10 -14z"/>
<path d="M1878 3313 c7 -3 16 -2 19 1 4 3 -2 6 -13 5 -11 0 -14 -3 -6 -6z"/>
<path d="M2350 3299 c0 -5 5 -7 10 -4 6 3 10 8 10 11 0 2 -4 4 -10 4 -5 0 -10
-5 -10 -11z"/>
<path d="M2580 3291 c0 -6 4 -13 10 -16 6 -3 7 1 4 9 -7 18 -14 21 -14 7z"/>
<path d="M2075 3254 c0 -25 10 -23 17 4 3 10 0 19 -6 19 -6 0 -11 -10 -11 -23z"/>
<path d="M2733 3246 c1 -21 5 -32 12 -30 13 5 8 64 -5 64 -4 0 -8 -15 -7 -34z"/>
<path d="M2109 3253 c0 -10 -2 -28 -3 -40 -2 -13 1 -23 6 -23 4 0 8 18 8 40 0
39 -9 58 -11 23z"/>
<path d="M1848 3233 c7 -3 16 -2 19 1 4 3 -2 6 -13 5 -11 0 -14 -3 -6 -6z"/>
<path d="M2143 3200 c0 -25 2 -35 4 -22 2 12 2 32 0 45 -2 12 -4 2 -4 -23z"/>
<path d="M2580 3180 c20 -13 40 -13 40 0 0 6 -12 10 -27 10 -22 0 -25 -2 -13
-10z"/>
<path d="M2100 3171 c0 -6 5 -13 10 -16 6 -3 10 1 10 9 0 9 -4 16 -10 16 -5 0
-10 -4 -10 -9z"/>
<path d="M1891 3154 c0 -11 3 -14 6 -6 3 7 2 16 -1 19 -3 4 -6 -2 -5 -13z"/>
<path d="M1656 3147 c3 -10 9 -15 12 -12 3 3 0 11 -7 18 -10 9 -11 8 -5 -6z"/>
<path d="M2141 3134 c0 -11 3 -14 6 -6 3 7 2 16 -1 19 -3 4 -6 -2 -5 -13z"/>
<path d="M2113 3085 c0 -22 2 -30 4 -17 2 12 2 30 0 40 -3 9 -5 -1 -4 -23z"/>
<path d="M486 3083 c-6 -14 -5 -15 5 -6 7 7 10 15 7 18 -3 3 -9 -2 -12 -12z"/>
<path d="M2130 3090 c0 -5 5 -10 10 -10 6 0 10 5 10 10 0 6 -4 10 -10 10 -5 0
-10 -4 -10 -10z"/>
<path d="M2410 3089 c0 -5 5 -7 10 -4 6 3 10 8 10 11 0 2 -4 4 -10 4 -5 0 -10
-5 -10 -11z"/>
<path d="M1899 3062 c-3 -20 -2 -29 4 -23 5 5 7 19 5 32 -3 20 -5 19 -9 -9z"/>
<path d="M553 3057 c0 -8 6 -14 14 -14 9 0 10 4 2 14 -6 7 -12 13 -14 13 -1 0
-2 -6 -2 -13z"/>
<path d="M1655 3040 c-8 -16 -23 -34 -32 -40 -12 -8 -13 -10 -3 -7 8 2 21 -3
28 -12 12 -14 12 -13 4 4 -8 15 -6 23 10 37 12 10 18 18 13 18 -4 0 -2 7 5 15
8 10 9 15 1 15 -6 0 -17 -13 -26 -30z"/>
<path d="M490 3056 c0 -2 7 -7 16 -10 8 -3 12 -2 9 4 -6 10 -25 14 -25 6z"/>
<path d="M1695 3023 c0 -17 6 -27 18 -29 9 -1 15 2 11 7 -3 5 -10 6 -16 3 -6
-4 -8 1 -4 14 4 11 3 23 -2 25 -4 3 -8 -6 -7 -20z"/>
<path d="M2138 3013 c5 -59 10 -63 11 -10 1 26 -3 47 -7 47 -4 0 -6 -17 -4
-37z"/>
<path d="M2666 3037 c3 -10 9 -15 12 -12 3 3 0 11 -7 18 -10 9 -11 8 -5 -6z"/>
<path d="M2108 3015 c-3 -14 -1 -25 3 -25 5 0 9 11 9 25 0 14 -2 25 -4 25 -2
0 -6 -11 -8 -25z"/>
<path d="M2107 2953 c-10 -10 -8 -25 2 -18 5 3 12 1 16 -5 3 -5 10 -10 16 -10
5 0 4 9 -3 20 -14 21 -21 24 -31 13z"/>
<path d="M2688 2943 c14 -3 20 -9 15 -16 -4 -7 1 -6 10 2 24 19 22 21 -15 20
-24 -1 -27 -3 -10 -6z"/>
<path d="M2415 2930 c3 -5 8 -10 11 -10 2 0 4 5 4 10 0 6 -5 10 -11 10 -5 0
-7 -4 -4 -10z"/>
<path d="M1436 2907 c3 -10 9 -15 12 -12 3 3 0 11 -7 18 -10 9 -11 8 -5 -6z"/>
<path d="M2070 2913 c0 -5 11 -9 25 -9 14 -1 22 2 19 7 -6 11 -44 12 -44 2z"/>
<path d="M2316 2907 c3 -10 9 -15 12 -12 3 3 0 11 -7 18 -10 9 -11 8 -5 -6z"/>
<path d="M2390 2911 c0 -5 5 -13 10 -16 6 -3 10 -2 10 4 0 5 -4 13 -10 16 -5
3 -10 2 -10 -4z"/>
<path d="M2021 2889 c-13 -5 -22 -11 -20 -14 8 -7 49 7 49 16 0 5 -1 9 -2 8
-2 0 -14 -5 -27 -10z"/>
<path d="M2289 2888 c0 -2 -2 -16 -4 -33 -3 -24 -2 -27 6 -12 6 9 7 22 4 27
-9 14 9 12 23 -2 8 -8 12 -8 12 -1 0 12 -38 31 -41 21z"/>
<path d="M1472 2850 c9 -26 13 -30 16 -16 2 10 -3 26 -12 35 -15 15 -16 13 -4
-19z"/>
<path d="M1501 2858 c5 -10 7 -24 3 -31 -4 -7 -3 -8 2 -4 14 13 12 54 -3 54
-8 0 -9 -5 -2 -19z"/>
<path d="M2108 2863 c7 -3 16 -2 19 1 4 3 -2 6 -13 5 -11 0 -14 -3 -6 -6z"/>
<path d="M3020 2866 c0 -2 7 -7 16 -10 8 -3 12 -2 9 4 -6 10 -25 14 -25 6z"/>
<path d="M2150 2851 c0 -5 5 -13 10 -16 6 -3 10 -2 10 4 0 5 -4 13 -10 16 -5
3 -10 2 -10 -4z"/>
<path d="M2050 2840 c0 -5 4 -10 9 -10 6 0 13 5 16 10 3 6 -1 10 -9 10 -9 0
-16 -4 -16 -10z"/>
<path d="M950 2826 c0 -2 8 -10 18 -17 15 -13 16 -12 3 4 -13 16 -21 21 -21
13z"/>
<path d="M997 2809 c7 -7 15 -10 18 -7 3 3 -2 9 -12 12 -14 6 -15 5 -6 -5z"/>
<path d="M1512 2775 c27 -41 34 -43 48 -12 11 21 10 21 -4 3 -15 -18 -16 -18
-33 13 -10 17 -21 31 -26 31 -4 0 3 -16 15 -35z"/>
<path d="M2639 2781 c18 -12 159 -12 166 -1 4 6 -30 10 -87 10 -56 0 -88 -4
-79 -9z"/>
<path d="M2096 2755 c4 -8 11 -15 16 -15 6 0 5 6 -2 15 -7 8 -14 15 -16 15 -2
0 -1 -7 2 -15z"/>
<path d="M1559 2733 c-13 -16 -12 -17 4 -4 16 13 21 21 13 21 -2 0 -10 -8 -17
-17z"/>
<path d="M3785 2741 c-16 -5 -120 -32 -230 -60 -175 -46 -208 -57 -262 -94
-34 -23 -67 -53 -73 -67 -30 -63 -20 -215 21 -351 23 -75 31 -88 23 -36 -4 29
-4 30 6 8 12 -27 10 -62 -4 -72 -4 -4 -5 -21 -1 -38 6 -27 9 -30 21 -20 8 7
11 15 7 18 -10 7 -16 41 -8 41 4 0 27 -17 52 -37 43 -35 45 -36 38 -13 -4 14
-12 30 -18 35 -7 7 -8 6 -3 -2 11 -20 -6 -15 -39 12 -31 26 -30 35 4 38 12 1
20 6 18 12 -2 5 -13 9 -25 7 -24 -4 -39 15 -23 31 6 6 11 16 11 22 0 5 -4 4
-9 -4 -7 -10 -11 -6 -15 16 -4 17 -6 34 -5 39 1 5 0 16 -1 24 -2 8 -6 -7 -9
-35 l-6 -50 -12 60 c-7 41 -8 64 -1 73 7 8 7 12 -1 12 -6 0 -11 5 -11 11 0 5
5 7 10 4 6 -4 10 5 9 22 -1 17 -3 21 -6 10 -11 -41 -21 -1 -16 61 6 76 22 118
45 116 8 -1 15 5 14 13 0 8 10 22 24 31 l25 16 -19 -22 c-11 -13 -14 -22 -7
-22 6 0 14 7 17 15 4 8 14 15 24 15 30 0 50 11 51 29 0 10 2 11 6 4 3 -10 8
-9 20 2 8 8 23 15 33 15 11 0 43 9 72 19 56 21 134 36 157 32 8 -1 10 2 5 10
-5 9 -1 11 14 7 12 -4 22 -2 22 3 0 5 7 9 16 9 8 0 13 -4 9 -10 -3 -5 7 -5 25
1 16 6 28 14 26 17 -2 4 7 8 20 8 14 1 21 -2 18 -8 -4 -6 0 -6 13 0 10 6 64
10 118 9 78 -2 110 -7 146 -24 59 -27 114 -39 105 -24 -4 6 -3 11 3 11 5 0 12
-6 14 -12 4 -10 8 -10 15 1 5 7 15 10 22 6 9 -6 9 -9 -1 -16 -9 -5 -3 -7 16
-5 17 2 36 -1 42 -6 7 -6 24 -8 38 -6 13 3 22 2 20 -2 -2 -4 33 -10 78 -13 45
-4 116 -14 157 -23 41 -8 86 -17 100 -19 51 -8 162 -34 168 -39 9 -10 -61 -7
-98 4 -134 39 -430 87 -430 70 0 -4 48 -17 107 -30 59 -13 127 -34 152 -48 43
-22 56 -23 193 -22 152 1 222 -6 212 -21 -3 -5 3 -6 13 -2 15 6 16 4 6 -8 -10
-13 -8 -15 15 -16 55 -1 63 -3 57 -13 -4 -6 5 -10 20 -10 14 0 24 -4 20 -9 -3
-5 0 -13 6 -17 8 -5 9 -3 4 6 -5 8 -3 11 6 8 8 -3 14 -10 14 -15 0 -6 4 -15 9
-20 5 -5 6 -3 2 5 -4 7 -1 12 8 12 9 0 15 -6 13 -12 -1 -7 4 -12 11 -10 7 1
22 -3 33 -9 17 -9 20 -17 15 -42 -5 -25 -4 -29 6 -19 9 9 16 8 31 -6 10 -9 21
-16 23 -14 12 7 24 0 18 -10 -5 -8 0 -9 17 -4 13 4 41 9 61 11 20 1 40 5 45 8
5 3 18 -6 29 -20 10 -15 25 -32 32 -39 10 -11 5 -18 -27 -39 -47 -29 -62 -52
-50 -80 l9 -20 -2 20 c-2 28 12 55 28 55 8 0 14 5 14 10 0 6 6 10 14 10 8 0
17 6 20 13 4 6 4 -3 1 -21 -3 -20 -1 -31 5 -27 6 4 10 -13 9 -42 -1 -46 20
-168 36 -205 4 -10 11 -18 17 -18 5 0 6 6 2 13 -8 12 14 -3 47 -33 16 -14 16
-20 -2 -85 -21 -82 -19 -73 -19 -82 0 -3 -10 2 -22 13 l-22 19 22 -31 c12 -17
18 -34 15 -38 -4 -4 -12 4 -19 16 -12 23 -12 23 -11 -4 1 -14 6 -24 10 -21 5
3 7 -5 5 -18 -2 -13 -14 -28 -28 -35 -79 -36 -100 -48 -96 -52 3 -2 15 3 28
12 25 18 69 23 52 6 -14 -14 -121 -49 -128 -43 -3 4 -6 2 -6 -3 0 -5 -17 -10
-37 -12 -20 -1 -47 -11 -58 -22 -14 -13 -29 -18 -41 -14 -16 5 -16 4 -4 -5 12
-9 11 -11 -8 -11 -13 0 -21 -4 -18 -9 3 -5 -5 -12 -19 -15 -14 -4 -25 -11 -25
-16 0 -5 -7 -6 -17 -3 -12 5 -14 3 -8 -7 5 -8 3 -11 -6 -8 -7 2 -22 -4 -33
-14 -11 -10 -27 -18 -36 -18 -9 0 -20 -4 -25 -8 -6 -5 -37 -17 -70 -27 -33
-11 -65 -23 -71 -27 -6 -5 -19 -6 -28 -2 -9 3 -16 2 -16 -4 0 -6 -9 -8 -20 -5
-11 3 -20 1 -20 -4 0 -5 -17 -10 -37 -11 -54 -4 -103 -10 -123 -17 -10 -3 -21
-2 -24 4 -4 5 -27 1 -56 -10 -63 -24 -90 -24 -90 -1 0 11 -3 13 -8 5 -4 -6
-30 -17 -57 -24 -28 -7 -52 -15 -55 -18 -3 -3 -20 -11 -37 -18 -31 -11 -33
-10 -33 13 0 13 -4 24 -10 24 -5 0 -9 -3 -9 -7 5 -29 -3 -41 -21 -36 -16 4
-18 8 -9 19 14 17 -2 18 -20 2 -11 -11 -12 -10 -6 1 6 11 4 13 -11 8 -18 -7
-18 -6 1 9 20 16 20 16 -4 9 -13 -4 -21 -3 -18 2 3 5 -3 9 -14 9 -37 0 -15
-30 58 -77 l33 -20 90 30 c65 23 108 31 158 31 100 0 215 17 343 49 146 38
259 86 355 151 54 37 106 61 181 85 58 19 116 41 128 49 51 34 128 254 111
319 -7 28 -52 58 -73 50 -8 -3 -13 3 -13 14 0 10 -7 74 -14 141 -13 116 -16
127 -51 177 -20 29 -42 55 -48 57 -7 2 -49 2 -93 -1 -58 -4 -80 -3 -77 5 13
33 -174 142 -337 196 -81 27 -251 67 -395 93 -49 9 -162 32 -250 50 -88 19
-187 39 -220 45 -79 15 -312 22 -350 11z m-430 -141 c-3 -5 -11 -10 -16 -10
-6 0 -7 5 -4 10 3 6 11 10 16 10 6 0 7 -4 4 -10z m1325 -39 c0 -4 12 -7 28 -4
26 3 26 3 4 -7 -18 -7 -29 -6 -45 5 -18 13 -19 15 -4 15 9 0 17 -4 17 -9z"/>
<path d="M2082 2733 c1 -4 -3 -18 -10 -30 -17 -31 -8 -29 12 1 10 16 12 27 6
31 -6 4 -9 3 -8 -2z"/>
<path d="M1576 2722 c-3 -5 1 -9 9 -9 8 0 12 4 9 9 -3 4 -7 8 -9 8 -2 0 -6 -4
-9 -8z"/>
<path d="M3935 2714 c-139 -20 -388 -82 -462 -115 -24 -11 -46 -19 -50 -19 -5
0 -17 -13 -28 -29 -10 -16 -22 -28 -25 -26 -4 2 -6 -4 -5 -13 2 -25 19 -30 23
-7 6 33 30 52 97 79 73 29 241 78 229 66 -11 -9 -82 -34 -104 -36 -9 0 -25 -6
-37 -12 -11 -6 -23 -8 -27 -5 -3 3 -6 2 -6 -4 0 -6 -20 -16 -45 -23 -46 -13
-89 -42 -78 -53 3 -4 18 2 32 12 69 49 328 117 484 128 60 4 97 10 97 17 0 6
-16 11 -35 12 -19 0 -35 -3 -35 -7 0 -4 -25 -7 -55 -8 -31 0 -60 -3 -65 -6 -6
-3 -10 -2 -10 3 0 11 87 25 101 16 5 -3 9 0 9 5 0 15 72 12 140 -5 74 -19 84
-16 30 8 -46 20 -121 30 -175 22z m-140 -55 c-18 -5 -33 -5 -39 1 -7 7 4 10
30 9 39 -1 39 -1 9 -10z"/>
<path d="M1580 2696 c0 -2 7 -7 16 -10 8 -3 12 -2 9 4 -6 10 -25 14 -25 6z"/>
<path d="M2035 2670 c-4 -6 -10 -8 -15 -5 -5 3 -11 1 -14 -4 -12 -19 12 -20
29 -1 10 11 15 20 12 20 -3 0 -9 -5 -12 -10z"/>
<path d="M4045 2671 c-13 -12 -2 -20 24 -17 19 2 33 -3 42 -15 13 -18 29 -17
29 2 0 6 -4 7 -10 4 -5 -3 -10 0 -10 8 0 14 -64 29 -75 18z"/>
<path d="M1641 2656 c2 -2 15 -9 29 -15 24 -11 24 -11 6 3 -16 13 -49 24 -35
12z"/>
<path d="M4250 2644 c0 -10 68 -33 190 -64 68 -17 136 -38 151 -45 32 -17 52
-42 26 -32 -10 3 -17 2 -17 -3 0 -12 18 -12 45 0 17 7 17 9 3 9 -10 1 -18 5
-18 9 0 18 -64 43 -185 72 -71 17 -142 37 -158 45 -33 17 -37 18 -37 9z"/>
<path d="M1978 2633 c7 -3 16 -2 19 1 4 3 -2 6 -13 5 -11 0 -14 -3 -6 -6z"/>
<path d="M3800 2626 c-117 -23 -234 -57 -305 -89 -38 -18 -75 -31 -83 -29 -8
2 -12 -4 -10 -15 2 -13 -3 -18 -17 -17 -17 1 -20 -5 -20 -47 0 -26 3 -45 8
-42 4 2 5 9 2 14 -4 5 -1 9 4 9 6 0 11 -11 11 -24 0 -13 9 -35 20 -49 12 -15
21 -30 22 -34 2 -21 18 -51 30 -56 11 -4 11 -7 0 -18 -11 -12 -16 -10 -32 11
-10 14 -28 44 -40 68 -24 47 -46 54 -75 22 -19 -21 -18 -26 16 -142 12 -41 25
-68 33 -68 20 0 27 27 11 40 -7 6 -17 30 -20 53 -4 23 -14 51 -21 62 -16 23
-18 39 -4 30 6 -3 10 -1 10 4 0 6 8 11 17 11 9 0 14 -3 10 -6 -3 -4 0 -19 9
-35 8 -16 14 -32 13 -35 0 -4 4 -10 9 -13 5 -3 13 -17 17 -30 5 -17 4 -22 -6
-19 -8 3 -14 11 -14 19 0 8 -6 20 -13 27 -7 8 -10 18 -7 23 4 5 1 9 -5 9 -6 0
-8 5 -4 12 4 6 3 8 -3 5 -7 -5 -4 -26 10 -64 11 -32 21 -59 22 -60 1 -2 23 8
50 20 37 18 44 25 31 30 -17 7 -13 27 5 27 6 0 7 -5 3 -12 -4 -7 -3 -8 5 -4 6
4 14 0 17 -8 3 -9 13 -16 21 -16 8 0 40 -12 71 -27 53 -26 66 -28 177 -28 70
0 123 -4 127 -10 5 -6 8 -3 8 8 0 19 15 23 25 7 4 -6 12 -4 21 5 19 18 54 20
54 3 0 -8 3 -9 8 -3 10 14 116 65 146 71 14 2 36 8 50 14 13 5 26 6 29 4 3 -3
18 3 33 13 16 10 25 12 20 5 -6 -10 -1 -11 21 -6 15 4 31 11 34 17 4 5 12 6
19 2 9 -5 11 -4 6 3 -4 7 -2 12 3 12 6 0 11 7 11 16 0 14 2 15 18 3 15 -13 16
-12 4 3 -8 10 -17 16 -20 15 -12 -3 -94 50 -85 55 4 3 3 4 -3 2 -6 -1 -23 8
-36 21 -14 13 -29 21 -32 18 -3 -4 -6 -1 -6 5 0 7 -7 12 -16 12 -10 0 -14 6
-11 14 4 11 1 13 -11 9 -15 -6 -16 -5 -2 13 11 15 11 16 0 7 -20 -18 -21 -17
-64 22 -21 19 -55 42 -76 52 -22 10 -40 25 -41 33 0 9 -3 10 -5 4 -6 -14 -44
-6 -44 8 0 5 -4 6 -10 3 -5 -3 -10 -1 -10 4 0 6 -3 10 -7 10 -5 -1 -21 0 -38
1 -29 2 -30 2 -5 9 14 4 46 7 73 5 26 -1 47 2 47 6 0 12 -140 9 -210 -4z m151
-66 c41 -12 101 -43 155 -81 49 -33 128 -86 176 -117 90 -59 104 -76 65 -80
-32 -2 -225 -60 -258 -77 -35 -19 -185 -43 -313 -51 l-101 -6 -87 42 c-47 23
-93 49 -101 58 -9 10 -34 60 -57 112 l-41 95 23 19 c49 40 189 93 293 109 56
10 180 -2 246 -23z m-517 -356 c3 -8 2 -12 -4 -9 -6 3 -10 10 -10 16 0 14 7
11 14 -7z"/>
<path d="M4151 2614 c0 -11 3 -14 6 -6 3 7 2 16 -1 19 -3 4 -6 -2 -5 -13z"/>
<path d="M4260 2610 c8 -5 20 -10 25 -10 6 0 3 5 -5 10 -8 5 -19 10 -25 10 -5
0 -3 -5 5 -10z"/>
<path d="M4334 2573 c23 -22 27 -23 40 -10 14 13 11 16 -25 25 l-40 10 25 -25z"/>
<path d="M1870 2522 c0 -59 1 -60 30 -64 37 -5 39 -1 5 12 -22 8 -25 15 -23
52 l1 43 7 -45 8 -45 -2 49 c0 30 -6 51 -13 54 -10 3 -13 -13 -13 -56z"/>
<path d="M2120 2550 c5 -17 16 -37 24 -46 9 -8 17 -23 18 -32 1 -19 2 -24 12
-72 4 -20 3 -47 -3 -63 -7 -18 -7 -26 -1 -22 6 4 10 -8 10 -30 0 -33 -2 -35
-20 -25 -11 6 -26 7 -33 3 -16 -10 -77 -12 -77 -2 0 4 -14 4 -30 -1 -17 -5
-33 -9 -37 -10 -3 -1 -10 4 -14 12 -7 10 -9 10 -9 1 0 -7 -9 -13 -20 -13 -18
0 -20 7 -21 75 -1 41 -3 80 -4 85 -1 6 -3 18 -4 28 -2 15 -3 14 -11 -3 -4 -11
-6 -55 -4 -97 5 -89 14 -81 -100 -78 -66 2 -100 21 -69 39 11 6 13 11 5 11 -7
0 -11 4 -8 9 4 5 7 33 7 63 1 48 4 53 23 53 12 -1 28 -5 35 -9 8 -5 17 -3 23
5 7 10 11 11 14 3 6 -13 44 -7 44 7 0 5 -38 9 -84 9 -67 0 -85 -3 -90 -16 -3
-9 -6 -56 -6 -105 0 -82 -1 -89 -20 -89 -11 0 -20 7 -20 15 0 8 -4 15 -10 15
-5 0 -10 -4 -10 -10 0 -12 -47 -13 -52 -1 -1 5 -9 3 -15 -4 -10 -11 -9 -14 5
-15 126 -5 494 -8 550 -3 l72 5 0 107 c1 101 -1 109 -32 168 -35 67 -52 82
-38 33z"/>
<path d="M3358 2553 c7 -3 16 -2 19 1 4 3 -2 6 -13 5 -11 0 -14 -3 -6 -6z"/>
<path d="M4230 2540 c0 -5 5 -10 11 -10 5 0 7 5 4 10 -3 6 -8 10 -11 10 -2 0
-4 -4 -4 -10z"/>
<path d="M1673 2500 l-21 -40 24 0 c19 0 24 5 24 24 0 13 3 31 6 40 12 32 -12
14 -33 -24z"/>
<path d="M3336 2523 c-6 -14 -5 -15 5 -6 7 7 10 15 7 18 -3 3 -9 -2 -12 -12z"/>
<path d="M4317 2529 c7 -7 15 -10 18 -7 3 3 -2 9 -12 12 -14 6 -15 5 -6 -5z"/>
<path d="M4265 2510 c3 -5 8 -10 11 -10 2 0 4 5 4 10 0 6 -5 10 -11 10 -5 0
-7 -4 -4 -10z"/>
<path d="M1980 2501 c0 -5 7 -11 14 -14 10 -4 13 -1 9 9 -6 15 -23 19 -23 5z"/>
<path d="M4290 2502 c0 -6 9 -12 20 -15 11 -3 20 -3 20 -1 0 2 -9 8 -20 14
-11 6 -20 7 -20 2z"/>
<path d="M4488 2503 c7 -3 16 -2 19 1 4 3 -2 6 -13 5 -11 0 -14 -3 -6 -6z"/>
<path d="M4664 2492 c-7 -4 -1 -15 18 -30 15 -13 28 -19 28 -13 0 5 -9 16 -20
24 -11 8 -17 17 -13 20 9 9 1 9 -13 -1z"/>
<path d="M4700 2491 c0 -4 15 -21 33 -36 26 -23 28 -27 10 -22 -15 3 -20 1
-16 -9 6 -17 15 -18 31 -2 17 17 15 24 -15 53 -29 26 -43 31 -43 16z"/>
<path d="M4605 2470 c4 -6 11 -8 16 -5 14 9 11 15 -7 15 -8 0 -12 -5 -9 -10z"/>
<path d="M5250 2470 c-9 -6 -10 -10 -3 -10 6 0 15 5 18 10 8 12 4 12 -15 0z"/>
<path d="M4394 2445 c8 -8 19 -15 25 -15 6 0 11 -3 11 -8 0 -7 22 -21 73 -44
15 -7 27 -16 27 -20 0 -4 5 -8 10 -8 17 0 11 20 -7 27 -10 3 -26 13 -35 21
-16 13 -106 62 -115 62 -3 0 2 -7 11 -15z"/>
<path d="M3267 2433 c-4 -3 -7 -11 -7 -17 0 -6 5 -5 12 2 6 6 9 14 7 17 -3 3
-9 2 -12 -2z"/>
<path d="M1631 2373 c0 -35 2 -63 7 -63 4 0 6 21 4 48 -5 75 -10 82 -11 15z"/>
<path d="M2090 2405 c-7 -9 -11 -17 -9 -20 3 -2 10 5 17 15 14 24 10 26 -8 5z"/>
<path d="M4685 2408 c-11 -6 -22 -14 -25 -17 -9 -11 -72 -41 -85 -41 -7 0 -15
-6 -18 -13 -4 -10 3 -12 24 -9 16 2 29 7 29 11 0 12 79 60 93 57 6 -1 8 -1 3
2 -4 2 -2 8 5 13 21 13 -3 10 -26 -3z"/>
<path d="M2146 2403 c7 -4 14 -17 17 -28 5 -16 5 -15 4 4 -1 14 -9 26 -17 28
-10 3 -11 2 -4 -4z"/>
<path d="M2123 2360 c0 -25 2 -35 4 -22 2 12 2 32 0 45 -2 12 -4 2 -4 -23z"/>
<path d="M4730 2389 c0 -13 43 -17 186 -18 139 -1 149 -2 200 -28 l54 -27 -31
-13 c-17 -7 -36 -10 -43 -6 -8 4 -8 3 0 -6 8 -9 21 -8 55 3 24 9 52 16 62 16
32 0 10 -16 -43 -30 -58 -16 -82 -36 -29 -25 43 9 31 -4 -19 -22 -48 -17 -53
-16 -45 3 5 12 1 15 -13 11 -10 -3 -39 -11 -64 -17 -77 -18 -150 -44 -150 -52
0 -5 9 -4 19 2 11 5 29 10 40 10 12 0 21 5 21 10 0 6 5 10 11 10 5 0 7 -4 4
-10 -7 -11 23 -2 43 13 9 7 17 6 24 -1 9 -9 8 -12 -6 -12 -27 0 -14 -21 25
-41 46 -25 72 -58 59 -74 -5 -6 -8 -14 -5 -17 3 -3 -2 -11 -11 -19 -16 -13
-17 -12 -11 10 8 30 -24 78 -62 92 -41 16 -90 2 -102 -28 -13 -34 1 -47 34
-32 34 15 71 5 102 -29 l25 -27 -22 -6 c-16 -4 -26 0 -34 14 -8 15 -13 17 -19
7 -6 -10 -11 -9 -21 5 -8 11 -19 15 -30 11 -22 -9 -9 -21 36 -35 l35 -11 -39
5 c-22 2 -43 10 -48 17 -4 7 -8 10 -8 5 0 -8 -60 20 -60 29 0 3 4 3 8 0 4 -2
7 7 6 22 -1 33 -20 40 -29 11 -16 -50 54 -103 131 -99 70 3 86 1 78 -12 -4 -8
-3 -10 2 -5 5 5 9 12 9 15 0 4 15 21 33 39 17 17 32 40 32 51 0 27 -50 74 -72
69 -10 -3 -16 -1 -13 3 3 5 -3 11 -12 13 -10 3 5 6 32 7 106 5 138 9 147 18 6
6 5 12 -3 17 -7 5 -10 4 -6 -2 4 -7 -3 -10 -18 -9 -14 0 -23 6 -21 11 2 6 9 9
16 7 8 -2 11 4 7 18 -5 18 3 25 25 21 4 0 15 10 25 23 10 12 25 25 33 29 8 3
-6 6 -32 6 -33 1 -66 11 -107 32 -59 31 -60 31 -225 33 -91 0 -166 -2 -166 -5z
m325 -169 c3 -5 -1 -10 -10 -10 -9 0 -13 5 -10 10 3 6 8 10 10 10 2 0 7 -4 10
-10z m-105 -90 c-8 -5 -19 -10 -25 -10 -5 0 -3 5 5 10 8 5 20 10 25 10 6 0 3
-5 -5 -10z"/>
<path d="M5580 2385 c-7 -9 -8 -15 -2 -15 5 0 12 7 16 15 3 8 4 15 2 15 -2 0
-9 -7 -16 -15z"/>
<path d="M3308 2373 c7 -3 16 -2 19 1 4 3 -2 6 -13 5 -11 0 -14 -3 -6 -6z"/>
<path d="M4961 2340 c-1 -9 5 -22 12 -29 10 -11 9 -13 -6 -7 -11 3 -29 8 -40
10 -12 2 -16 1 -9 -1 7 -3 10 -9 6 -14 -3 -5 -10 -7 -15 -4 -5 4 -9 1 -9 -4 0
-13 32 -14 46 -2 5 5 18 5 29 0 19 -8 19 -9 -2 -6 -12 1 -22 -2 -21 -8 1 -11
38 -8 52 5 4 5 1 19 -8 31 -9 13 -16 19 -17 14 0 -6 -4 -1 -9 10 -6 14 -9 15
-9 5z"/>
<path d="M5073 2331 c1 -12 9 -18 24 -18 29 0 29 1 -1 21 -23 15 -25 14 -23
-3z"/>
<path d="M5022 2320 c0 -14 2 -19 5 -12 2 6 2 18 0 25 -3 6 -5 1 -5 -13z"/>
<path d="M5041 2323 c-1 -12 4 -25 9 -28 6 -3 10 -11 10 -16 0 -6 -3 -8 -7 -6
-5 3 -28 -3 -53 -14 -57 -23 -46 -24 31 -2 47 13 58 19 47 27 -7 6 -19 22 -25
36 -11 24 -12 24 -12 3z"/>
<path d="M4473 2317 c-3 -7 -3 -9 2 -5 8 7 58 -14 85 -37 8 -7 46 -29 84 -49
48 -26 75 -36 92 -32 24 6 35 29 12 24 -28 -5 -110 14 -115 27 -2 8 -20 20
-39 27 -22 8 -33 17 -29 26 3 7 0 10 -6 7 -5 -4 -15 -2 -22 3 -20 16 -57 21
-64 9z"/>
<path d="M5335 2300 c-3 -5 -1 -10 4 -10 6 0 11 5 11 10 0 6 -2 10 -4 10 -3 0
-8 -4 -11 -10z"/>
<path d="M1630 2290 c0 -5 5 -10 10 -10 6 0 10 5 10 10 0 6 -4 10 -10 10 -5 0
-10 -4 -10 -10z"/>
<path d="M5295 2280 c-3 -5 -1 -10 4 -10 6 0 11 5 11 10 0 6 -2 10 -4 10 -3 0
-8 -4 -11 -10z"/>
<path d="M4780 2270 c-13 -8 -12 -10 3 -10 9 0 17 5 17 10 0 12 -1 12 -20 0z"/>
<path d="M4818 2273 c6 -2 18 -2 25 0 6 3 1 5 -13 5 -14 0 -19 -2 -12 -5z"/>
<path d="M5240 2271 c0 -5 -12 -12 -26 -15 -15 -4 -24 -9 -22 -12 7 -7 68 17
68 27 0 5 -4 9 -10 9 -5 0 -10 -4 -10 -9z"/>
<path d="M4650 2259 c0 -11 25 -22 39 -17 6 1 -1 8 -14 15 -14 6 -25 7 -25 2z"/>
<path d="M4874 2259 c-2 -5 -11 -6 -19 -2 -10 3 -15 -1 -15 -12 0 -9 -5 -13
-11 -10 -5 4 -24 9 -41 12 -26 4 -30 2 -24 -12 3 -9 6 -19 6 -21 0 -2 5 -4 11
-4 8 0 8 5 -1 15 -8 9 -9 15 -2 15 6 0 13 -4 16 -9 4 -5 16 -8 29 -6 26 4 114
33 107 35 -20 6 -52 5 -56 -1z"/>
<path d="M4910 2230 c-18 -12 -2 -12 25 0 13 6 15 9 5 9 -8 0 -22 -4 -30 -9z"/>
<path d="M1522 2188 c2 -26 9 -43 18 -46 11 -4 13 -2 5 9 -19 26 -18 67 2 72
14 4 13 5 -5 6 -21 1 -23 -3 -20 -41z"/>
<path d="M2158 2214 c10 -19 4 -66 -8 -59 -5 3 -11 1 -15 -5 -8 -12 15 -13 34
-1 16 10 7 81 -10 81 -6 0 -7 -6 -1 -16z"/>
<path d="M1738 2213 c6 -2 18 -2 25 0 6 3 1 5 -13 5 -14 0 -19 -2 -12 -5z"/>
<path d="M1890 2208 c0 -6 -3 -8 -7 -5 -3 4 -15 -7 -25 -23 -15 -25 -21 -29
-37 -21 -10 6 -21 7 -25 4 -3 -3 -6 2 -6 11 0 14 6 16 31 11 22 -5 29 -4 25 4
-4 6 -25 11 -47 11 -37 0 -39 -2 -39 -30 l0 -30 65 0 c36 0 65 3 66 8 0 4 2
22 3 40 2 17 2 32 0 32 -2 0 -4 -5 -4 -12z m-16 -42 c-3 -9 -10 -16 -15 -16
-5 0 -4 9 3 20 14 22 21 20 12 -4z"/>
<path d="M2078 2213 c12 -2 30 -2 40 0 9 3 -1 5 -23 4 -22 0 -30 -2 -17 -4z"/>
<path d="M4141 2201 c-10 -7 -10 -10 -1 -16 6 -4 16 -3 22 3 13 13 -4 23 -21
13z"/>
<path d="M4800 2200 c-18 -12 -2 -12 25 0 13 6 15 9 5 9 -8 0 -22 -4 -30 -9z"/>
<path d="M4740 2184 c-16 -8 -19 -14 -9 -14 8 0 24 7 35 15 24 18 7 18 -26 -1z"/>
<path d="M1958 2183 c7 -3 16 -2 19 1 4 3 -2 6 -13 5 -11 0 -14 -3 -6 -6z"/>
<path d="M4635 2173 c-27 -8 -62 -17 -77 -20 -16 -3 -25 -10 -21 -16 3 -5 1
-7 -4 -4 -6 4 -79 -13 -162 -36 l-152 -43 -58 58 c-32 32 -64 58 -71 58 -9 0
-7 -6 6 -21 16 -17 16 -22 4 -29 -8 -6 -10 -10 -4 -10 5 0 15 5 20 10 7 7 20
0 39 -20 16 -16 25 -30 20 -30 -5 0 0 -7 11 -15 28 -21 67 -18 137 9 34 14 73
25 87 24 43 0 153 33 168 50 13 16 13 16 8 -1 -4 -12 -2 -17 6 -14 7 2 12 9
11 15 -1 5 7 8 19 4 14 -3 19 -1 14 6 -3 6 -1 14 5 18 8 4 9 3 5 -4 -8 -14 19
-15 49 -2 l20 9 -20 0 c-17 1 -17 3 -5 11 20 13 5 11 -55 -7z"/>
<path d="M4828 2185 c-3 -3 -18 -8 -34 -11 -16 -3 -33 -11 -39 -18 -5 -7 -16
-11 -23 -8 -11 3 -68 -12 -212 -58 -14 -4 -24 -13 -22 -19 1 -6 -5 -11 -13
-11 -8 0 -15 -3 -15 -8 0 -4 18 -6 40 -4 22 2 40 9 40 14 0 6 -9 8 -20 5 -11
-3 -20 -1 -20 4 0 4 19 13 43 19 23 6 63 17 88 25 25 8 63 17 83 19 21 3 44
10 52 17 8 6 14 8 14 3 0 -4 5 -3 11 3 6 6 18 9 25 6 8 -3 14 1 14 11 0 17 -3
20 -12 11z"/>
<path d="M4955 2180 c-3 -6 1 -7 9 -4 18 7 21 14 7 14 -6 0 -13 -4 -16 -10z"/>
<path d="M5191 2181 c-31 -5 -33 -7 -18 -20 10 -7 17 -22 17 -32 0 -25 -53
-84 -90 -99 -16 -7 -27 -17 -24 -22 4 -6 10 -5 15 3 6 10 9 10 9 2 0 -7 7 -10
15 -7 8 4 12 10 9 15 -7 12 3 11 29 -3 20 -10 21 -10 8 6 -12 14 -12 19 -1 29
10 9 11 9 6 0 -4 -7 -3 -13 1 -13 15 0 45 83 38 107 -4 16 -1 23 10 23 8 0 15
5 15 10 0 6 -1 9 -2 9 -2 -1 -18 -4 -37 -8z"/>
<path d="M5501 2177 c-6 -6 -11 -27 -11 -46 l1 -36 18 38 c9 20 20 34 24 30 4
-3 7 -2 7 4 0 16 -26 23 -39 10z"/>
<path d="M3490 2170 c-9 -6 -10 -10 -3 -10 6 0 15 5 18 10 8 12 4 12 -15 0z"/>
<path d="M4887 2164 c-3 -4 -18 -8 -31 -9 -35 -4 -126 -35 -126 -43 0 -4 -20
-8 -44 -10 -41 -2 -147 -40 -118 -41 7 -1 26 6 42 14 17 9 30 11 30 6 0 -6 16
-3 36 5 20 8 39 13 42 10 3 -3 11 -1 19 6 7 6 15 9 18 7 2 -3 -14 -16 -35 -29
-41 -25 -54 -44 -22 -33 9 4 44 25 77 49 33 23 75 45 92 49 18 3 35 11 38 16
7 10 -8 12 -18 3z"/>
<path d="M5135 2150 c-19 -8 -19 -9 3 -9 12 -1 22 4 22 9 0 6 -1 10 -2 9 -2 0
-12 -4 -23 -9z"/>
<path d="M1580 2130 c0 -5 -7 -10 -15 -10 -10 0 -15 -10 -15 -29 0 -30 15 -49
28 -36 4 4 1 10 -5 12 -7 3 -13 13 -13 23 0 17 10 18 145 17 80 -1 145 -5 145
-9 0 -8 -23 -12 -48 -9 -7 1 -11 -3 -10 -10 2 -6 -3 -14 -9 -16 -7 -3 -13 0
-13 6 0 6 -4 11 -10 11 -5 0 -10 -7 -10 -15 0 -12 13 -15 55 -15 52 0 55 1 55
25 0 14 3 25 8 25 4 0 64 3 133 6 110 6 127 5 132 -9 6 -17 -7 -32 -21 -23 -5
3 -9 -1 -9 -9 0 -8 8 -15 18 -15 18 0 29 19 29 51 0 17 -9 19 -92 21 -51 0
-111 1 -133 0 -289 -5 -319 -5 -323 6 -5 15 -22 16 -22 2z m257 -66 c-3 -3
-12 -4 -19 -1 -8 3 -5 6 6 6 11 1 17 -2 13 -5z"/>
<path d="M2088 2133 c6 -2 18 -2 25 0 6 3 1 5 -13 5 -14 0 -19 -2 -12 -5z"/>
<path d="M4338 2133 c7 -3 16 -2 19 1 4 3 -2 6 -13 5 -11 0 -14 -3 -6 -6z"/>
<path d="M5430 2116 c0 -9 6 -13 14 -10 20 8 30 -14 15 -32 -11 -13 -6 -34 6
-22 8 8 18 73 10 66 -4 -4 -16 -3 -26 3 -15 7 -19 6 -19 -5z"/>
<path d="M3708 2072 c-31 -26 -59 -53 -62 -61 -9 -20 19 -57 64 -86 49 -31 62
-32 24 -3 -43 33 -74 66 -74 77 0 5 29 33 65 61 36 28 65 54 65 56 0 14 -33
-4 -82 -44z"/>
<path d="M3367 2103 c-4 -3 -7 -11 -7 -17 0 -6 5 -5 12 2 6 6 9 14 7 17 -3 3
-9 2 -12 -2z"/>
<path d="M3686 2101 c-4 -5 3 -7 14 -4 23 6 26 13 6 13 -8 0 -17 -4 -20 -9z"/>
<path d="M4060 2094 c0 -8 5 -12 10 -9 6 3 10 10 10 16 0 5 -4 9 -10 9 -5 0
-10 -7 -10 -16z"/>
<path d="M4087 2093 c-13 -12 -7 -25 8 -19 16 6 35 -21 28 -41 -2 -6 1 -14 6
-18 7 -4 8 0 4 11 -4 12 -3 15 5 10 7 -4 12 -13 12 -20 0 -8 7 -20 16 -27 11
-9 10 -2 -6 25 -11 21 -19 40 -17 42 7 8 58 -46 52 -55 -13 -22 18 -20 62 5
27 14 50 28 52 29 2 2 -22 1 -52 -2 -45 -5 -60 -2 -84 15 -15 11 -32 20 -36
20 -5 0 -11 3 -14 6 -3 3 7 3 23 0 28 -4 28 -3 10 11 -23 18 -36 19 -36 4 0
-8 -4 -9 -13 0 -8 6 -17 8 -20 4z"/>
<path d="M3871 2064 c0 -11 3 -14 6 -6 3 7 2 16 -1 19 -3 4 -6 -2 -5 -13z"/>
<path d="M4016 2071 c-4 -7 -5 -15 -2 -18 9 -9 19 4 14 18 -4 11 -6 11 -12 0z"/>
<path d="M4453 2073 c-7 -2 -13 -11 -13 -19 0 -8 -6 -14 -12 -15 -30 -1 -62
-10 -73 -19 -7 -5 -14 -7 -18 -4 -3 3 -14 1 -24 -6 -14 -9 -15 -10 -1 -6 9 3
19 -2 22 -10 9 -23 7 -26 -6 -18 -7 4 -9 3 -5 -1 17 -20 37 -13 33 10 -4 22 1
25 50 36 38 9 53 16 50 25 -3 8 3 18 12 23 17 11 7 13 -15 4z"/>
<path d="M4042 2045 c-11 -13 -9 -15 12 -15 18 0 24 4 20 15 -8 19 -15 18 -32
0z"/>
<path d="M4086 2045 c4 -8 8 -15 10 -15 2 0 4 7 4 15 0 8 -4 15 -10 15 -5 0
-7 -7 -4 -15z"/>
<path d="M4730 2046 c-34 -15 -39 -39 -5 -26 20 7 29 5 43 -10 30 -32 120 -51
188 -40 87 14 85 27 -4 22 -89 -5 -144 8 -176 43 -18 18 -25 20 -46 11z"/>
<path d="M4796 2051 c-3 -5 1 -11 9 -15 8 -3 15 -1 15 4 0 13 -18 22 -24 11z"/>
<path d="M5405 2050 c-3 -5 2 -10 11 -10 15 0 14 -4 -6 -25 -13 -14 -29 -25
-37 -25 -7 0 -13 -4 -13 -10 0 -5 8 -10 18 -10 25 0 73 55 66 74 -7 18 -30 21
-39 6z"/>
<path d="M3970 2042 c0 -16 13 -20 35 -11 11 4 15 8 8 8 -6 1 -18 4 -27 7 -9
3 -16 1 -16 -4z"/>
<path d="M1593 2018 c-9 -10 -19 -15 -23 -13 -11 7 -20 -19 -11 -33 4 -6 26
-14 49 -18 41 -6 42 -7 42 -45 0 -22 -4 -39 -10 -39 -5 0 -7 -7 -4 -15 4 -8 1
-15 -5 -15 -6 0 -11 -5 -11 -11 0 -7 7 -8 18 -4 9 4 23 8 31 8 12 0 12 2 0 11
-18 14 -14 100 5 93 6 -3 20 1 31 9 13 10 48 14 113 14 53 0 91 4 88 9 -8 13
-186 14 -186 1 0 -11 -91 -13 -128 -4 -18 5 -20 9 -11 20 6 8 20 14 30 14 11
0 19 5 19 10 0 6 10 9 23 9 17 -1 18 -2 4 -6 -9 -2 -15 -9 -11 -14 3 -6 101
-9 241 -9 216 1 269 -2 232 -14 -40 -13 -42 -14 -17 -15 18 -1 31 6 38 19 8
16 8 20 -4 20 -8 0 -22 8 -32 18 -16 15 -43 17 -256 17 -216 1 -240 -1 -255
-17z m137 -14 c0 -2 -11 -4 -25 -4 -14 0 -25 4 -25 9 0 4 11 6 25 3 14 -2 25
-6 25 -8z m57 0 c-3 -3 -12 -4 -19 -1 -8 3 -5 6 6 6 11 1 17 -2 13 -5z m176
-1 c-29 -2 -78 -2 -110 0 -32 2 -8 3 52 3 61 0 87 -1 58 -3z"/>
<path d="M3820 2030 c-12 -8 -10 -10 8 -10 13 0 20 4 17 10 -7 12 -6 12 -25 0z"/>
<path d="M3928 2021 c-20 -20 -23 -31 -7 -31 5 0 7 5 3 12 -5 7 -2 9 8 5 11
-4 18 1 21 14 6 23 -2 23 -25 0z"/>
<path d="M3744 2021 c7 -10 -42 -33 -55 -26 -5 3 -6 -1 -3 -9 5 -12 11 -11 40
6 19 11 31 24 28 29 -3 5 -7 9 -10 9 -3 0 -3 -4 0 -9z"/>
<path d="M4103 2005 c0 -8 4 -12 9 -9 5 3 6 10 3 15 -9 13 -12 11 -12 -6z"/>
<path d="M3605 2001 c-3 -5 -2 -12 3 -15 5 -3 9 1 9 9 0 17 -3 19 -12 6z"/>
<path d="M3218 1995 c-8 -8 -150 -44 -178 -45 -16 -1 -8 -6 24 -15 35 -9 58
-23 78 -46 74 -90 135 -255 144 -389 7 -87 -8 -176 -26 -165 -6 3 -7 0 -4 -8
3 -8 -2 -20 -11 -27 -14 -11 -20 -11 -37 -1 -11 7 -17 8 -13 2 3 -7 -2 -11
-15 -11 -12 0 -18 -4 -15 -10 7 -12 54 -4 120 20 28 10 72 24 98 31 60 15 89
53 97 126 3 29 2 53 -2 53 -9 0 -9 0 -14 -45 -2 -16 -10 -35 -19 -41 -11 -8
-12 -14 -6 -19 18 -11 -9 -29 -79 -52 -42 -13 -66 -17 -69 -10 -2 5 4 16 13
22 18 14 23 50 4 39 -7 -5 -8 -3 -2 7 11 18 12 81 2 95 -11 15 12 33 64 49 25
8 42 18 40 26 -2 6 3 16 10 20 7 4 10 11 6 14 -3 4 -16 -3 -28 -15 -13 -13
-28 -19 -40 -15 -10 3 -21 1 -25 -5 -3 -5 2 -10 11 -10 10 0 15 -3 11 -6 -3
-3 -19 0 -36 7 -28 12 -47 55 -44 97 0 6 -4 12 -9 12 -6 0 -5 6 2 15 9 10 9
15 1 15 -29 0 -6 19 37 29 26 7 55 17 65 22 11 6 21 8 25 5 8 -8 72 66 66 76
-11 17 7 7 30 -19 41 -44 39 -21 -4 48 -31 49 -34 57 -13 33 55 -61 63 -73 63
-95 0 -5 5 -7 12 -3 7 5 9 2 5 -9 -4 -11 -2 -14 9 -10 13 5 18 -7 15 -34 -1
-7 3 -13 8 -13 7 0 7 -9 1 -26 -6 -14 -8 -29 -6 -33 6 -8 8 -117 4 -146 -2
-11 -7 -24 -11 -30 -4 -5 -14 -19 -23 -30 -13 -17 -13 -15 1 19 11 29 21 157
10 144 -13 -16 -25 -49 -16 -44 7 5 11 -2 11 -18 0 -14 -5 -25 -11 -24 -12 3
-23 -29 -32 -93 l-5 -37 131 34 c178 46 192 45 282 -17 53 -36 83 -65 105
-103 18 -29 45 -60 60 -69 25 -15 30 -15 73 1 25 10 49 20 52 23 3 4 -6 30
-21 59 -15 29 -30 65 -35 79 -5 16 -6 -1 -3 -44 5 -60 3 -74 -14 -95 -19 -23
-20 -24 -46 -6 -29 19 -50 61 -41 84 5 13 3 13 -11 1 -16 -13 -16 -12 -5 9 9
18 9 22 -1 20 -6 -2 -18 13 -24 32 l-13 35 0 -34 -1 -35 -30 29 c-16 15 -27
31 -25 36 3 4 -3 5 -14 2 -10 -3 -22 1 -26 8 -5 7 -4 10 3 5 6 -3 14 -2 17 4
4 6 3 9 -2 8 -4 -1 -30 5 -58 14 -57 19 -101 17 -165 -6 -49 -17 -73 -21 -52
-7 11 7 10 9 -3 14 -9 4 -14 3 -11 -2 6 -10 -31 -47 -39 -39 -3 3 -1 17 5 32
5 15 10 82 10 150 l0 122 34 16 c26 13 36 14 46 5 9 -8 11 -8 7 -1 -4 7 4 14
21 17 37 7 86 -37 71 -64 -5 -11 -6 -19 -2 -19 5 0 9 -25 11 -55 2 -42 9 -61
27 -79 13 -13 26 -22 28 -20 2 3 31 -15 63 -40 33 -24 61 -40 63 -35 4 13 -27
47 -50 54 -11 4 -16 11 -13 17 5 7 2 8 -6 3 -8 -5 -17 -2 -24 7 -6 8 -19 17
-29 21 -10 4 -16 11 -12 16 3 6 -4 8 -15 6 -17 -3 -20 1 -20 36 0 31 4 40 16
37 8 -2 14 -6 12 -9 -2 -4 6 -16 16 -28 13 -14 23 -18 31 -11 8 7 21 -1 43
-26 17 -19 36 -33 42 -29 5 3 10 1 10 -4 0 -6 8 -11 18 -11 10 0 24 -6 32 -12
12 -11 12 -10 1 5 -7 9 -11 17 -7 17 13 0 91 -62 91 -72 0 -6 8 -12 18 -14 39
-5 18 17 -83 86 -36 25 -68 50 -72 55 -5 6 -8 6 -8 -2 0 -6 12 -21 28 -32 19
-14 22 -20 11 -21 -9 0 -22 7 -29 15 -7 9 -19 14 -27 11 -8 -3 -12 -2 -9 2 6
9 -11 25 -67 62 -20 14 -35 31 -32 38 2 6 0 12 -5 12 -6 0 -10 -4 -10 -10 0
-5 -5 -10 -11 -10 -5 0 -8 4 -5 9 4 5 0 12 -6 14 -10 4 -10 7 0 15 11 7 5 18
-26 51 -21 22 -48 41 -58 41 -11 0 -41 -12 -68 -26 -26 -14 -49 -24 -50 -22
-1 2 -13 20 -25 41 -13 20 -32 42 -43 48 -33 18 -14 20 33 3 24 -8 72 -17 105
-20 51 -3 63 -1 68 13 9 22 1 27 -21 15 -12 -7 -43 -7 -88 -2 -39 5 -75 9 -81
10 -7 0 -40 19 -75 43 -89 61 -90 61 -82 41 4 -12 3 -15 -5 -10 -7 4 -12 3
-12 -2 0 -5 11 -14 24 -22 14 -7 30 -26 37 -41 6 -16 16 -29 21 -29 5 0 6 -5
3 -10 -4 -6 -10 -8 -15 -5 -4 3 -6 -5 -2 -17 5 -20 4 -21 -11 -9 -9 7 -14 17
-11 22 3 5 0 9 -5 9 -6 0 -11 7 -11 15 0 8 -4 15 -10 15 -5 0 -9 5 -7 11 1 6
-6 13 -16 14 -24 4 -57 34 -57 51 0 18 -88 43 -102 29z m80 -33 c2 -6 -6 -16
-19 -20 -16 -6 -19 -11 -10 -16 7 -5 18 -3 24 3 6 6 16 11 21 11 6 0 0 -7 -12
-16 -13 -9 -26 -13 -29 -10 -3 3 -12 1 -20 -6 -7 -6 -16 -8 -20 -4 -3 3 -1 6
5 6 7 0 12 7 12 15 0 8 -7 15 -15 15 -8 0 -14 -3 -14 -7 4 -24 -4 -34 -10 -14
-6 23 -7 23 -21 5 -8 -10 -10 -15 -3 -11 7 5 9 0 5 -15 l-5 -22 -8 22 c-5 13
-14 19 -22 16 -8 -3 -20 2 -27 11 -7 9 -8 15 -2 15 6 0 23 5 39 11 15 7 39 13
52 15 13 1 26 6 29 9 10 10 45 1 50 -13z m107 -122 l23 -46 -26 1 c-15 0 -40
-4 -57 -11 -16 -6 -49 -14 -72 -18 -36 -5 -44 -3 -53 14 -6 11 -8 26 -4 32 4
6 3 8 -2 5 -6 -3 -15 2 -21 13 -10 16 -7 20 30 33 23 9 65 22 92 30 56 16 52
18 90 -53z m473 -195 c-3 -3 -9 2 -12 12 -6 14 -5 15 5 6 7 -7 10 -15 7 -18z
m318 -342 c-17 -17 -33 -10 -28 13 4 21 6 22 19 8 9 -8 12 -18 9 -21z"/>
<path d="M3305 1840 c-3 -5 -1 -10 4 -10 6 0 11 5 11 10 0 6 -2 10 -4 10 -3 0
-8 -4 -11 -10z"/>
<path d="M3502 1991 c-11 -7 -11 -9 0 -14 9 -3 15 1 15 9 0 8 -1 14 -1 14 -1
0 -7 -4 -14 -9z"/>
<path d="M3790 1990 c0 -6 7 -10 15 -10 8 0 15 2 15 4 0 2 -7 6 -15 10 -8 3
-15 1 -15 -4z"/>
<path d="M5720 1996 c0 -2 8 -10 18 -17 15 -13 16 -12 3 4 -13 16 -21 21 -21
13z"/>
<path d="M4287 1983 c-3 -3 6 -22 21 -42 14 -20 27 -38 29 -40 2 -2 6 -2 9 1
3 4 -8 24 -24 47 -16 22 -32 38 -35 34z"/>
<path d="M3885 1970 c3 -5 8 -10 11 -10 2 0 4 5 4 10 0 6 -5 10 -11 10 -5 0
-7 -4 -4 -10z"/>
<path d="M4220 1968 c-38 -11 -52 -26 -45 -45 3 -8 -16 -18 -53 -29 -110 -31
-223 -67 -220 -70 4 -3 95 18 172 41 32 9 65 18 72 19 7 1 17 5 20 9 14 14 34
6 34 -13 0 -12 7 -20 16 -20 12 0 14 3 6 13 -6 7 -16 25 -22 41 -9 24 -8 27 5
23 8 -4 14 -1 12 4 -1 6 8 13 21 15 16 3 21 0 16 -8 -4 -7 -4 -10 1 -6 4 4 17
2 29 -4 19 -10 19 -8 -3 16 -14 14 -25 26 -25 25 -1 0 -17 -5 -36 -11z"/>
<path d="M5341 1953 c0 -16 3 -22 6 -15 2 6 9 9 15 6 6 -4 5 2 -1 15 -16 28
-21 26 -20 -6z"/>
<path d="M2055 1961 c-3 -6 -23 -12 -43 -13 l-37 -1 33 -4 c30 -4 33 -7 28
-34 -2 -16 0 -31 5 -35 5 -3 9 13 9 35 0 22 5 41 13 44 6 2 9 7 6 11 -4 4 -10
3 -14 -3z"/>
<path d="M3340 1966 c0 -2 7 -7 16 -10 8 -3 12 -2 9 4 -6 10 -25 14 -25 6z"/>
<path d="M3710 1963 c0 -4 15 -18 33 -30 52 -36 118 -99 110 -106 -3 -4 1 -7
9 -7 11 0 14 -6 11 -20 -3 -11 -10 -20 -15 -20 -5 0 -6 -5 -2 -12 5 -7 3 -8
-5 -4 -7 5 -10 14 -7 22 3 8 0 13 -7 11 -7 -1 -11 6 -9 15 1 9 -3 20 -9 24 -8
5 -9 3 -4 -6 5 -9 4 -11 -4 -6 -6 4 -9 11 -7 15 3 4 1 13 -3 20 -7 10 -13 11
-30 1 l-22 -11 28 -22 c30 -23 46 -44 49 -66 9 -52 64 -14 64 43 0 26 5 36 20
41 11 3 20 11 20 17 0 6 -10 3 -24 -5 -21 -14 -25 -14 -42 1 -35 33 -154 114
-154 105z"/>
<path d="M3826 1961 c-3 -5 1 -11 9 -14 9 -4 12 -1 8 9 -6 16 -10 17 -17 5z"/>
<path d="M4968 1953 c6 -2 18 -2 25 0 6 3 1 5 -13 5 -14 0 -19 -2 -12 -5z"/>
<path d="M5250 1938 c-12 -22 -12 -22 6 -6 10 10 15 20 12 24 -4 3 -12 -5 -18
-18z"/>
<path d="M5734 1942 c0 -10 6 -19 13 -19 8 0 9 6 2 19 -5 10 -11 18 -12 18 -2
0 -3 -8 -3 -18z"/>
<path d="M1923 1943 c9 -2 23 -2 30 0 6 3 -1 5 -18 5 -16 0 -22 -2 -12 -5z"/>
<path d="M5310 1935 c0 -8 5 -15 10 -15 6 0 10 7 10 15 0 8 -4 15 -10 15 -5 0
-10 -7 -10 -15z"/>
<path d="M1725 1934 c41 -11 75 -27 75 -35 0 -5 -5 -9 -11 -9 -5 0 -7 -4 -4
-10 3 -5 28 -10 56 -10 46 0 49 2 49 25 0 19 -5 25 -22 26 -13 0 -32 2 -43 4
-48 7 -118 14 -100 9z m115 -38 c0 -11 -19 -15 -25 -6 -3 5 1 10 9 10 9 0 16
-2 16 -4z"/>
<path d="M1970 1926 c0 -9 30 -14 35 -6 4 6 -3 10 -14 10 -12 0 -21 -2 -21 -4z"/>
<path d="M2990 1920 c-13 -8 -12 -10 4 -10 11 0 30 -9 42 -21 15 -14 29 -18
48 -13 34 8 33 20 -1 19 -16 -1 -37 3 -48 8 -19 10 -19 10 0 18 18 7 17 8 -5
8 -14 0 -32 -4 -40 -9z"/>
<path d="M4125 1920 c-3 -5 -1 -10 4 -10 6 0 11 5 11 10 0 6 -2 10 -4 10 -3 0
-8 -4 -11 -10z"/>
<path d="M5180 1915 c0 -8 4 -15 10 -15 5 0 7 7 4 15 -4 8 -8 15 -10 15 -2 0
-4 -7 -4 -15z"/>
<path d="M5290 1923 c0 -7 -10 -13 -22 -15 -23 -3 -23 -3 -2 -9 30 -9 53 6 36
23 -8 8 -12 9 -12 1z"/>
<path d="M3891 1917 c2 -2 11 -8 20 -15 12 -9 16 -9 16 1 0 7 -9 14 -20 14
-11 1 -18 1 -16 0z"/>
<path d="M4648 1913 c7 -3 16 -2 19 1 4 3 -2 6 -13 5 -11 0 -14 -3 -6 -6z"/>
<path d="M2950 1906 c0 -2 7 -7 16 -10 8 -3 12 -2 9 4 -6 10 -25 14 -25 6z"/>
<path d="M5140 1900 c0 -5 5 -10 10 -10 6 0 10 5 10 10 0 6 -4 10 -10 10 -5 0
-10 -4 -10 -10z"/>
<path d="M4375 1729 c0 -129 -3 -173 -12 -176 -7 -3 -13 -11 -13 -18 0 -7 -6
-15 -14 -18 -15 -6 -40 -67 -26 -67 5 0 12 9 15 20 3 11 10 20 15 20 5 0 12 9
15 20 4 11 11 17 17 14 6 -4 8 -2 5 3 -4 6 0 16 7 22 11 9 14 37 14 109 -1
141 4 206 16 215 7 5 5 7 -4 4 -8 -2 -19 2 -25 10 -7 9 -10 -41 -10 -158z"/>
<path d="M4008 1883 c7 -3 16 -2 19 1 4 3 -2 6 -13 5 -11 0 -14 -3 -6 -6z"/>
<path d="M5086 1881 c-3 -5 5 -8 19 -7 14 0 25 4 25 9 0 10 -38 9 -44 -2z"/>
<path d="M5173 1875 c7 -21 3 -22 -90 -27 -18 -1 -30 -5 -27 -9 5 -9 -15 -15
-88 -24 -27 -3 -48 -10 -48 -16 0 -5 5 -9 11 -9 16 0 102 21 124 30 41 17 67
19 61 5 -3 -9 0 -12 9 -9 8 3 12 11 9 18 -3 7 4 12 18 13 63 1 70 3 64 18 -4
12 0 14 19 9 15 -4 25 -2 25 5 0 14 -47 15 -55 1 -5 -8 -12 -7 -22 2 -14 11
-15 10 -10 -7z"/>
<path d="M2933 1873 c-13 -2 -23 -8 -23 -12 0 -12 59 -35 67 -27 3 3 -1 6 -10
6 -9 0 -17 5 -17 10 0 21 31 9 65 -25 19 -20 35 -40 35 -45 0 -5 5 -12 12 -16
7 -5 8 -3 3 6 -5 9 -4 11 4 6 9 -6 9 -11 0 -22 -7 -9 -8 -14 -3 -13 24 4 36
-2 30 -17 -3 -9 0 -28 8 -42 44 -80 60 -316 25 -361 -27 -35 -23 -48 6 -21 33
31 44 73 51 196 5 71 3 103 -5 108 -6 4 -11 15 -11 26 0 10 -7 21 -16 24 -9 4
-14 13 -10 22 4 10 2 13 -6 8 -8 -5 -9 -2 -5 9 3 10 2 17 -3 17 -5 0 -19 18
-30 41 -27 52 -104 129 -127 128 -10 -1 -28 -4 -40 -6z m234 -480 c-3 -10 -5
-4 -5 12 0 17 2 24 5 18 2 -7 2 -21 0 -30z"/>
<path d="M3970 1870 c-9 -6 -10 -10 -3 -10 6 0 15 5 18 10 8 12 4 12 -15 0z"/>
<path d="M4502 1864 c-6 -10 -12 -14 -12 -7 0 7 -7 10 -15 6 -20 -7 -13 -14
30 -29 38 -13 41 -10 21 25 -13 23 -14 23 -24 5z"/>
<path d="M4435 1860 c3 -5 8 -10 11 -10 2 0 4 5 4 10 0 6 -5 10 -11 10 -5 0
-7 -4 -4 -10z"/>
<path d="M4540 1860 c0 -26 17 -43 35 -36 10 3 24 1 33 -6 8 -7 34 -14 56 -15
170 -9 206 -10 206 -2 0 5 -12 9 -26 9 -14 0 -23 3 -21 8 3 4 -6 8 -20 9 -19
1 -22 -1 -12 -8 9 -6 0 -9 -29 -9 -24 0 -41 4 -38 9 4 5 -4 7 -16 4 -21 -5
-22 -4 -5 8 16 13 13 14 -23 14 -33 0 -39 -3 -34 -17 4 -13 0 -15 -16 -11 -16
4 -18 8 -9 14 14 8 13 8 -36 24 -8 2 -15 -1 -15 -7 0 -7 -7 -3 -15 8 -11 14
-14 15 -15 4z"/>
<path d="M1756 1844 c-3 -9 -6 -16 -6 -17 0 -1 31 -1 68 1 53 3 69 7 69 18 0
12 -10 15 -41 13 -23 -2 -44 -8 -48 -14 -5 -6 -8 -6 -8 3 0 18 -27 15 -34 -4z"/>
<path d="M1975 1850 c-47 -7 -46 -7 23 -7 39 0 72 4 72 8 0 10 -19 9 -95 -1z"/>
<path d="M2908 1796 c28 -29 60 -73 71 -97 23 -49 63 -189 54 -189 -3 0 0 -7
7 -15 9 -11 11 -37 7 -89 -8 -85 -23 -126 -47 -126 -10 0 -24 -8 -31 -17 -11
-15 -11 -16 1 -5 8 6 24 12 37 12 13 0 23 5 23 10 0 6 5 9 12 8 7 -2 21 13 31
32 15 30 17 53 14 152 -3 87 -8 123 -20 142 -9 14 -29 47 -44 73 -44 79 -69
118 -89 133 -18 14 -18 14 -5 -5 8 -11 2 -8 -13 8 -15 15 -34 27 -43 27 -10 0
2 -19 35 -54z m152 -486 c-6 -12 -14 -20 -17 -17 -2 3 1 14 8 26 17 26 24 19
9 -9z"/>
<path d="M3593 1843 c9 -2 17 -9 17 -14 0 -13 27 -11 36 3 5 8 2 9 -9 5 -10
-3 -17 -2 -17 3 0 6 -10 9 -22 9 -17 -1 -19 -2 -5 -6z"/>
<path d="M2803 1833 c-13 -2 -23 -9 -23 -15 0 -5 7 -7 16 -4 9 3 27 6 40 6 14
0 22 4 19 10 -6 10 -13 11 -52 3z"/>
<path d="M3106 1827 c3 -10 9 -15 12 -12 3 3 0 11 -7 18 -10 9 -11 8 -5 -6z"/>
<path d="M2005 1819 c27 -7 26 -8 -12 -6 -24 2 -43 -1 -43 -5 0 -5 29 -8 65
-8 36 0 65 4 65 9 0 11 -37 21 -75 20 l-30 -1 30 -9z"/>
<path d="M4893 1815 c-15 -16 -16 -25 -5 -25 4 0 13 9 20 20 14 23 3 26 -15 5z"/>
<path d="M1645 1810 c3 -5 -1 -10 -9 -10 -9 0 -16 -5 -16 -11 0 -6 7 -8 16 -5
9 3 18 6 20 6 2 0 4 7 4 15 0 8 -5 15 -11 15 -5 0 -7 -4 -4 -10z"/>
<path d="M1815 1814 c-5 -1 -22 -5 -36 -8 -25 -5 -25 -6 -25 -100 1 -52 5 -92
9 -89 5 3 41 5 79 4 62 -1 68 0 55 13 -10 10 -34 15 -72 15 -31 -1 -59 2 -62
5 -6 6 38 9 100 8 17 0 27 5 27 14 0 11 -16 14 -67 14 -48 0 -64 3 -53 10 8 5
47 10 85 11 88 1 59 17 -32 18 -35 1 -63 5 -63 11 0 6 30 10 70 10 44 0 70 4
70 11 0 7 -23 10 -65 7 -47 -2 -65 0 -65 10 0 8 20 12 69 12 52 0 70 4 75 15
4 13 -3 15 -42 14 -26 -1 -51 -3 -57 -5z"/>
<path d="M3185 1780 c9 -16 18 -30 21 -30 2 0 -2 14 -11 30 -9 17 -18 30 -21
30 -2 0 2 -13 11 -30z"/>
<path d="M1708 1793 c7 -3 16 -2 19 1 4 3 -2 6 -13 5 -11 0 -14 -3 -6 -6z"/>
<path d="M2892 1784 c10 -10 20 -15 24 -12 3 4 -5 12 -18 18 -22 12 -22 12 -6
-6z"/>
<path d="M4267 1781 c-3 -14 -25 -26 -72 -40 -37 -12 -71 -24 -77 -27 -9 -6
48 -63 64 -64 4 0 19 11 33 25 l27 24 -27 7 c-19 5 -23 9 -14 15 8 5 16 3 21
-4 9 -15 58 40 58 66 0 23 -6 22 -13 -2z m-69 -86 c2 -2 0 -5 -5 -8 -5 -3 -19
1 -33 9 l-25 14 30 -6 c17 -4 31 -8 33 -9z"/>
<path d="M1990 1783 c-8 -3 -18 -11 -22 -17 -5 -8 -8 -7 -8 2 0 7 -12 12 -27
11 -21 -1 -23 -2 -8 -6 11 -3 25 -9 31 -14 7 -6 21 -6 35 0 13 5 20 10 14 11
-5 1 -1 5 10 10 22 10 0 12 -25 3z"/>
<path d="M2036 1775 c-4 -11 1 -15 21 -15 14 0 24 1 22 3 -2 1 -11 8 -20 15
-14 10 -18 10 -23 -3z"/>
<path d="M3445 1778 c-8 -23 29 -135 43 -131 6 3 12 12 12 21 0 15 -2 15 -11
2 -8 -11 -9 -7 -4 16 4 22 0 36 -15 54 -11 13 -18 30 -16 37 3 7 3 13 0 13 -2
0 -7 -6 -9 -12z"/>
<path d="M3520 1783 c0 -6 8 -17 18 -24 16 -13 16 -13 2 6 -8 11 -16 22 -17
24 -2 2 -3 0 -3 -6z"/>
<path d="M1645 1770 c3 -6 -1 -13 -10 -16 -13 -5 -14 -9 -4 -15 10 -6 10 -11
1 -22 -10 -12 -9 -16 5 -22 17 -6 17 -7 -2 -21 -17 -13 -18 -16 -5 -24 13 -9
13 -11 0 -19 -8 -6 -12 -12 -10 -15 3 -2 14 2 25 10 17 13 18 16 5 24 -13 9
-13 11 -1 19 13 8 13 12 0 27 -13 16 -12 17 9 12 20 -6 22 -4 10 10 -7 9 -17
20 -23 24 -6 5 -3 8 7 8 11 0 15 5 12 15 -4 8 -10 15 -16 15 -5 0 -6 -5 -3
-10z"/>
<path d="M2867 1763 c-12 -11 -7 -21 13 -26 10 -3 21 0 23 6 2 6 6 3 10 -6 4
-10 2 -17 -5 -17 -7 0 -7 -5 1 -14 10 -12 17 -38 20 -79 1 -5 6 -5 11 -2 6 4
10 -7 10 -24 0 -17 5 -31 10 -31 6 0 8 -16 4 -40 -5 -32 -4 -40 7 -38 8 2 17
8 21 13 4 6 8 0 8 -12 0 -26 18 -40 25 -20 6 14 -18 70 -26 62 -5 -4 -9 32
-11 98 0 16 -4 24 -8 18 -6 -11 -57 85 -53 100 1 4 -5 6 -15 4 -9 -1 -22 1
-28 6 -6 5 -14 6 -17 2z m112 -173 c0 -8 -7 2 -16 22 -8 21 -18 36 -22 34 -3
-2 -6 6 -7 17 0 12 -4 31 -8 42 -3 11 7 -7 24 -40 16 -33 30 -67 29 -75z"/>
<path d="M3561 1754 c0 -11 3 -14 6 -6 3 7 2 16 -1 19 -3 4 -6 -2 -5 -13z"/>
<path d="M5136 1763 c-4 -5 -20 -9 -34 -9 -15 -1 -38 -2 -52 -3 -18 -1 -21 -4
-12 -10 10 -6 9 -10 -7 -14 -13 -3 -19 -1 -15 5 4 6 -3 5 -15 -1 -11 -7 -21
-19 -21 -27 0 -9 -5 -12 -12 -8 -6 4 -8 3 -4 -4 3 -6 0 -14 -8 -19 -8 -4 -25
-29 -39 -55 -14 -26 -27 -44 -30 -42 -3 3 -4 -2 -3 -13 2 -10 -6 -31 -17 -47
-24 -34 -25 -91 -1 -117 25 -28 81 -24 189 12 99 33 149 69 167 121 6 16 14
26 18 23 5 -3 12 0 16 6 4 8 3 9 -4 5 -7 -4 -12 -1 -13 6 -8 132 -15 168 -37
184 -19 15 -54 18 -66 7z m62 -25 c7 -7 12 -28 12 -48 0 -20 3 -40 7 -44 11
-11 3 -88 -13 -117 -19 -38 -64 -62 -183 -99 -168 -51 -192 -28 -117 117 26
48 52 95 59 103 52 66 201 122 235 88z"/>
<path d="M5150 1660 c0 -5 6 -10 14 -10 8 0 18 5 21 10 3 6 -3 10 -14 10 -12
0 -21 -4 -21 -10z"/>
<path d="M5108 1653 c-10 -2 -18 -8 -18 -12 0 -4 -18 -14 -40 -21 -41 -14 -45
-19 -55 -85 -5 -30 -4 -36 4 -23 6 9 25 19 41 23 17 4 30 10 30 14 0 5 10 7
23 6 19 -2 23 2 25 26 1 16 7 40 12 54 10 25 9 26 -22 18z m-28 -61 c0 -11 -8
-18 -20 -19 -25 -2 -35 13 -14 21 10 4 13 1 9 -7 -3 -6 0 -4 7 6 16 21 18 21
18 -1z"/>
<path d="M5160 1620 l-25 -8 27 -1 c15 -1 30 4 33 9 7 11 0 11 -35 0z"/>
<path d="M4960 1600 c-13 -9 -13 -10 0 -10 8 0 22 5 30 10 13 9 13 10 0 10 -8
0 -22 -5 -30 -10z"/>
<path d="M5163 1573 c-13 -2 -23 -9 -23 -14 0 -11 39 -2 55 12 9 9 7 10 -32 2z"/>
<path d="M4948 1553 c-10 -2 -18 -9 -18 -14 0 -6 10 -5 23 2 37 20 36 23 -5
12z"/>
<path d="M4920 1493 l-35 -14 34 6 c18 3 37 5 42 5 5 0 9 5 9 10 0 12 -5 11
-50 -7z"/>
<path d="M1698 1753 c7 -3 16 -2 19 1 4 3 -2 6 -13 5 -11 0 -14 -3 -6 -6z"/>
<path d="M1918 1753 c7 -3 16 -2 19 1 4 3 -2 6 -13 5 -11 0 -14 -3 -6 -6z"/>
<path d="M2780 1741 c-18 -15 -21 -21 -10 -22 8 -1 20 -2 25 -4 6 -1 16 -3 23
-3 7 -1 10 -7 7 -12 -4 -6 -11 -8 -16 -5 -15 10 -10 -2 8 -16 9 -8 14 -9 11
-4 -3 6 0 15 7 22 27 25 80 -62 91 -148 9 -77 27 -100 19 -26 -7 77 -53 168
-99 196 -19 12 -36 26 -38 32 -2 6 -14 2 -28 -10z"/>
<path d="M1950 1740 l-55 -7 50 -3 c49 -3 49 -3 15 -10 l-35 -8 40 1 c26 1 39
6 38 15 -2 7 7 12 20 12 18 0 19 -2 7 -10 -11 -7 -7 -10 18 -10 37 0 43 15 10
24 -25 6 -25 6 -108 -4z"/>
<path d="M2685 1731 c-18 -7 -17 -9 11 -24 17 -9 36 -23 43 -31 8 -9 21 -16
30 -16 21 1 -34 50 -56 50 -9 0 -13 6 -9 15 3 8 4 15 3 14 -1 0 -11 -4 -22 -8z"/>
<path d="M2730 1730 c0 -5 5 -10 11 -10 5 0 7 5 4 10 -3 6 -8 10 -11 10 -2 0
-4 -4 -4 -10z"/>
<path d="M4270 1730 c-1 -8 -2 -21 -1 -29 2 -8 -2 -10 -11 -5 -10 6 -11 5 -1
-8 15 -18 7 -29 -15 -21 -10 4 -6 -3 7 -14 l24 -20 -33 -46 c-18 -26 -35 -47
-37 -47 -1 0 -25 16 -52 35 -34 24 -59 35 -82 34 -19 0 -27 -3 -19 -6 8 -3 27
-14 41 -24 14 -10 29 -16 33 -12 3 3 6 2 6 -4 0 -10 42 -34 68 -39 34 -6 45
-15 35 -25 -8 -8 -20 -7 -43 4 -20 10 -30 12 -28 5 6 -17 71 -33 76 -18 3 7 8
6 16 -4 8 -11 15 -13 26 -6 11 7 11 10 2 10 -7 0 -24 11 -38 23 l-26 24 31 31
c28 27 69 37 64 15 -1 -5 10 -10 25 -11 24 -2 23 1 -15 24 -42 24 -54 46 -33
59 6 4 7 11 4 17 -4 6 -11 25 -15 42 -4 17 -8 24 -9 16z"/>
<path d="M2640 1710 c0 -5 5 -10 11 -10 6 0 24 -11 41 -25 30 -25 55 -34 43
-15 -7 11 -80 60 -90 60 -3 0 -5 -4 -5 -10z"/>
<path d="M3860 1711 c0 -5 11 -16 25 -25 14 -9 25 -15 25 -13 0 2 -11 13 -25
25 -14 12 -25 18 -25 13z"/>
<path d="M1965 1700 l-60 -7 55 0 c30 -1 66 3 80 7 30 10 13 10 -75 0z"/>
<path d="M2600 1700 c0 -5 7 -10 16 -10 8 0 12 5 9 10 -3 6 -10 10 -16 10 -5
0 -9 -4 -9 -10z"/>
<path d="M3226 1688 c4 -13 13 -45 20 -72 14 -53 30 -79 19 -31 -11 49 -36
125 -41 125 -3 0 -2 -10 2 -22z"/>
<path d="M2065 1694 c-6 -2 -37 -8 -70 -14 l-60 -9 64 4 c41 2 59 0 50 -6 -8
-5 -9 -9 -4 -9 6 0 3 -5 -5 -10 -13 -8 -12 -10 3 -10 27 0 30 3 33 33 1 15 1
27 0 26 0 0 -6 -3 -11 -5z"/>
<path d="M2566 1692 c23 -20 83 -62 88 -62 17 0 1 19 -29 36 -19 10 -35 22
-35 26 0 5 -8 8 -17 8 -10 0 -13 -3 -7 -8z"/>
<path d="M2770 1696 c0 -2 7 -9 15 -16 13 -11 14 -10 9 4 -5 14 -24 23 -24 12z"/>
<path d="M3175 1691 c-10 -17 12 -21 25 -6 10 12 10 15 -3 15 -9 0 -18 -4 -22
-9z"/>
<path d="M2514 1678 c-4 -6 -3 -8 3 -5 6 4 29 -7 52 -23 43 -32 51 -35 51 -22
0 5 -16 17 -35 28 -19 10 -35 22 -35 26 0 12 -28 9 -36 -4z"/>
<path d="M2640 1686 c0 -9 43 -46 53 -46 5 0 4 7 -3 16 -14 16 -50 38 -50 30z"/>
<path d="M1715 1670 c-3 -5 -1 -10 4 -10 6 0 11 5 11 10 0 6 -2 10 -4 10 -3 0
-8 -4 -11 -10z"/>
<path d="M3946 1668 c5 -8 1 -9 -11 -4 -15 5 -16 4 -5 -9 13 -16 35 -21 25 -6
-3 5 -1 12 5 16 5 3 10 1 10 -5 0 -6 5 -8 11 -5 13 9 7 15 -20 20 -14 3 -19 0
-15 -7z"/>
<path d="M2470 1658 c0 -6 3 -8 7 -5 3 4 30 -7 60 -24 30 -17 57 -29 59 -26 7
6 -37 32 -48 29 -5 -1 -8 2 -8 6 0 9 -44 32 -60 32 -6 0 -10 -5 -10 -12z"/>
<path d="M5600 1655 c-11 -13 -10 -14 4 -9 9 3 16 10 16 15 0 13 -6 11 -20 -6z"/>
<path d="M1928 1653 c7 -3 16 -2 19 1 4 3 -2 6 -13 5 -11 0 -14 -3 -6 -6z"/>
<path d="M1973 1653 c9 -2 23 -2 30 0 6 3 -1 5 -18 5 -16 0 -22 -2 -12 -5z"/>
<path d="M5354 1646 c-6 -7 -17 -23 -23 -37 -11 -22 -10 -22 13 4 14 15 26 32
26 38 0 12 -3 11 -16 -5z"/>
<path d="M2435 1640 c-3 -5 1 -10 9 -10 9 0 16 5 16 10 0 6 -4 10 -9 10 -6 0
-13 -4 -16 -10z"/>
<path d="M4126 1635 c-16 -12 -17 -15 -4 -15 24 0 48 11 48 21 0 13 -23 10
-44 -6z"/>
<path d="M4305 1639 c4 -5 10 -7 15 -4 4 3 10 -1 13 -7 2 -7 8 -10 12 -5 11 9
3 17 -24 22 -12 2 -19 0 -16 -6z"/>
<path d="M1968 1633 c12 -2 30 -2 40 0 9 3 -1 5 -23 4 -22 0 -30 -2 -17 -4z"/>
<path d="M2480 1632 c0 -7 8 -22 19 -33 15 -17 19 -17 24 -5 3 8 -1 20 -9 26
-8 7 -14 9 -14 4 0 -5 -5 -2 -10 6 -7 11 -10 11 -10 2z"/>
<path d="M2824 1629 c-3 -6 -1 -16 5 -22 6 -6 11 -7 11 -1 0 5 5 2 11 -6 9
-13 10 -13 6 0 -2 8 -10 14 -17 12 -8 -2 -10 3 -7 13 7 17 1 20 -9 4z"/>
<path d="M3449 1618 c-1 -7 -1 -16 0 -20 0 -5 -3 -8 -9 -8 -5 0 -10 -4 -10 -9
0 -5 9 -7 20 -4 16 4 18 8 9 19 -8 10 -8 14 0 14 6 0 11 5 11 10 0 15 -20 12
-21 -2z"/>
<path d="M1969 1611 c11 -7 11 -9 0 -14 -8 -3 4 -5 26 -5 25 1 31 2 16 5 -19
4 -21 7 -10 14 10 6 5 9 -16 9 -21 0 -26 -3 -16 -9z"/>
<path d="M3870 1609 c0 -5 5 -7 10 -4 6 3 10 8 10 11 0 2 -4 4 -10 4 -5 0 -10
-5 -10 -11z"/>
<path d="M1637 1603 c-26 -25 36 -64 100 -62 26 1 30 3 13 6 -14 2 -32 6 -40
9 -8 3 -15 4 -15 3 0 -1 -10 3 -22 9 -14 8 -20 18 -17 27 6 15 -7 21 -19 8z"/>
<path d="M1813 1603 c-17 -2 -49 -13 -70 -24 l-38 -20 35 6 c19 3 61 8 93 12
38 4 57 10 57 19 0 14 -12 15 -77 7z"/>
<path d="M2040 1600 c0 -5 7 -10 15 -10 8 0 15 5 15 10 0 6 -7 10 -15 10 -8 0
-15 -4 -15 -10z"/>
<path d="M2416 1569 c-12 -60 -6 -115 19 -185 20 -53 24 -61 21 -31 -5 39 3
47 24 22 11 -14 14 -13 25 2 11 15 14 15 26 -8 7 -13 14 -33 15 -43 1 -17 -1
-16 -17 5 -16 21 -19 21 -19 6 0 -17 35 -56 51 -57 12 0 19 63 13 111 l-6 48
-51 -19 c-34 -13 -55 -16 -61 -10 -7 7 -5 10 5 10 9 0 20 17 27 46 11 39 16
45 33 41 15 -4 19 -2 15 10 -3 8 -6 17 -6 19 0 2 -5 4 -11 4 -5 0 -7 -4 -4
-10 3 -5 -3 -10 -13 -10 -11 0 -23 7 -26 16 -9 22 -8 24 9 24 8 0 15 4 15 8 0
16 -25 32 -51 32 -22 0 -28 -6 -33 -31z m44 1 c-8 -15 -7 -27 5 -49 18 -36 19
-42 3 -38 -9 1 -12 -8 -10 -25 4 -42 -15 -34 -24 10 -16 75 -8 122 21 122 13
0 14 -4 5 -20z m97 -175 c0 -15 -22 -14 -38 2 -7 7 -3 11 14 11 13 0 24 -6 24
-13z"/>
<path d="M2777 1580 c5 -19 3 -21 -17 -15 -15 5 -20 4 -16 -4 4 -6 4 -16 0
-22 -4 -7 -14 0 -26 18 -14 19 -18 22 -14 8 3 -11 1 -27 -4 -35 -8 -13 -10
-12 -10 3 0 9 -4 17 -10 17 -13 0 -13 -2 5 -36 8 -16 15 -22 15 -14 0 13 1 13
10 0 8 -11 9 -7 4 15 -4 23 -3 26 5 15 6 -8 11 -23 11 -32 0 -9 3 -19 8 -21 4
-3 7 9 7 26 0 28 3 32 25 30 14 -1 19 0 12 3 -6 3 -9 10 -6 15 3 6 11 5 20 -2
22 -18 18 8 -5 33 l-20 20 6 -22z"/>
<path d="M3900 1590 c-9 -6 -10 -10 -3 -10 6 0 15 5 18 10 8 12 4 12 -15 0z"/>
<path d="M2816 1575 c4 -8 7 -15 9 -15 2 0 5 7 9 15 3 9 0 15 -9 15 -9 0 -12
-6 -9 -15z"/>
<path d="M5413 1568 c-2 -16 1 -18 10 -9 7 7 8 14 1 21 -6 6 -10 2 -11 -12z"/>
<path d="M2003 1573 c3 -5 -14 -7 -36 -5 -23 2 -60 -1 -82 -6 -35 -9 -29 -10
52 -11 50 -1 98 2 107 5 26 10 18 24 -15 24 -16 0 -28 -3 -26 -7z"/>
<path d="M2851 1571 c-15 -10 -10 -47 6 -44 6 1 8 -9 5 -22 -2 -14 -9 -26 -16
-27 -6 0 -15 -2 -21 -2 -5 -1 -16 -5 -23 -10 -10 -6 -11 -2 -7 17 4 16 2 26
-7 29 -9 4 -13 -4 -13 -25 0 -18 -6 -31 -15 -33 -8 -2 -37 -9 -65 -17 -45 -12
-50 -16 -52 -43 -1 -16 1 -22 3 -12 6 20 34 32 34 15 0 -7 5 -4 11 6 6 9 14
15 19 12 4 -3 21 0 37 7 15 6 32 10 37 9 4 -1 14 3 22 10 7 6 18 8 23 5 5 -4
12 -2 16 4 3 5 17 10 29 10 23 0 23 0 10 56 -15 65 -15 66 -33 55z m26 -83
c-3 -8 -6 -5 -6 6 -1 11 2 17 5 13 3 -3 4 -12 1 -19z"/>
<path d="M5307 1573 c-13 -13 -7 -21 13 -16 11 3 17 9 14 14 -6 11 -18 12 -27
2z"/>
<path d="M2530 1565 c0 -4 7 -20 16 -36 8 -17 24 -63 34 -102 10 -40 19 -63
19 -52 1 39 -50 195 -64 195 -3 0 -5 -2 -5 -5z"/>
<path d="M2606 1555 c-9 -23 -7 -33 3 -17 6 10 12 6 26 -14 10 -15 21 -39 26
-53 7 -23 7 -22 6 9 -2 43 -50 102 -61 75z"/>
<path d="M3480 1561 c0 -5 -3 -18 -7 -28 -6 -17 -5 -17 15 1 26 22 28 36 7 36
-8 0 -15 -4 -15 -9z"/>
<path d="M2817 1533 c-4 -3 -7 -13 -7 -22 0 -14 2 -14 10 -1 8 13 10 12 10 -2
0 -10 5 -18 10 -18 7 0 7 8 -1 23 -15 29 -15 28 -22 20z"/>
<path d="M3640 1531 c0 -6 4 -13 10 -16 6 -3 7 1 4 9 -7 18 -14 21 -14 7z"/>
<path d="M3121 1514 c0 -11 3 -14 6 -6 3 7 2 16 -1 19 -3 4 -6 -2 -5 -13z"/>
<path d="M3261 1495 c1 -22 5 -53 9 -70 6 -25 8 -21 9 25 0 30 -4 62 -9 70 -7
11 -9 4 -9 -25z"/>
<path d="M4006 1499 c-14 -29 -14 -30 2 -24 34 14 61 13 68 -3 7 -16 9 -25 12
-85 1 -16 6 -25 12 -22 6 3 10 -1 10 -10 0 -8 -10 -19 -22 -24 -14 -5 -17 -10
-10 -15 6 -4 21 -2 33 5 19 10 21 16 14 63 -4 28 -8 59 -8 68 -1 9 -5 14 -9
12 -4 -3 -12 6 -19 18 -14 26 -39 47 -56 48 -6 0 -18 -14 -27 -31z m44 17 c0
-3 -4 -8 -10 -11 -5 -3 -10 -1 -10 4 0 6 5 11 10 11 6 0 10 -2 10 -4z"/>
<path d="M2593 1512 c-10 -6 -9 -18 1 -53 16 -51 25 -109 26 -156 0 -47 14
-41 18 7 1 22 -2 40 -7 40 -5 0 -7 9 -4 20 3 10 -2 40 -11 66 -18 55 -22 90
-6 63 5 -9 11 -26 13 -38 6 -38 17 -35 14 5 -3 48 -17 63 -44 46z"/>
<path d="M2906 1492 c-2 -4 -1 -14 3 -21 6 -10 10 -9 14 3 6 16 -8 32 -17 18z"/>
<path d="M2532 1465 c-8 -17 -16 -23 -29 -18 -14 5 -15 3 -6 -7 7 -7 17 -9 25
-4 7 5 18 9 23 9 6 0 8 9 7 20 -5 28 -7 28 -20 0z"/>
<path d="M2970 1396 c0 -52 4 -97 8 -100 4 -2 9 3 10 12 1 9 4 43 8 75 4 38 3
57 -4 57 -6 0 -9 9 -7 20 2 11 0 22 -6 25 -5 4 -9 -32 -9 -89z"/>
<path d="M2701 1464 c0 -11 3 -14 6 -6 3 7 2 16 -1 19 -3 4 -6 -2 -5 -13z"/>
<path d="M4198 1463 c7 -3 16 -2 19 1 4 3 -2 6 -13 5 -11 0 -14 -3 -6 -6z"/>
<path d="M4260 1450 c0 -5 7 -7 15 -4 8 4 15 8 15 10 0 2 -7 4 -15 4 -8 0 -15
-4 -15 -10z"/>
<path d="M2816 1368 c-4 -42 -12 -67 -23 -75 -16 -12 -16 -13 0 -13 9 0 17 5
17 11 0 5 3 8 8 6 4 -3 8 26 10 64 2 38 1 69 -1 69 -2 0 -7 -28 -11 -62z"/>
<path d="M2885 1377 c2 -20 -1 -34 -6 -31 -5 3 -9 -1 -10 -8 0 -7 -4 -4 -8 7
-8 19 -8 19 -15 -3 -9 -28 0 -40 16 -24 7 7 20 12 30 12 22 0 38 30 37 67 l-1
28 -10 -32 c-13 -40 -25 -42 -31 -5 -2 15 -3 10 -2 -11z"/>
<path d="M3226 1400 c7 -28 12 -35 18 -29 2 2 -2 15 -10 29 l-15 25 7 -25z"/>
<path d="M3386 1411 c-16 -3 -31 -12 -32 -19 -1 -7 0 -8 3 -2 2 5 18 10 34 10
16 0 29 5 29 10 0 6 -1 9 -2 9 -2 -1 -16 -4 -32 -8z"/>
<path d="M2782 1374 c0 -22 -7 -54 -16 -70 l-17 -29 5 35 c3 19 2 49 -3 65 -7
24 -8 17 -7 -34 0 -37 6 -66 12 -68 17 -6 48 102 35 124 -8 14 -10 10 -9 -23z"/>
<path d="M2862 1390 c0 -14 2 -19 5 -12 2 6 2 18 0 25 -3 6 -5 1 -5 -13z"/>
<path d="M3331 1394 c0 -11 3 -14 6 -6 3 7 2 16 -1 19 -3 4 -6 -2 -5 -13z"/>
<path d="M2705 1338 c-6 -32 -7 -58 -3 -58 11 0 20 43 16 81 -3 30 -4 27 -13
-23z"/>
<path d="M3203 1375 c0 -8 4 -15 9 -15 4 0 8 7 8 15 0 8 -4 15 -8 15 -5 0 -9
-7 -9 -15z"/>
<path d="M3262 1370 c0 -14 2 -19 5 -12 2 6 2 18 0 25 -3 6 -5 1 -5 -13z"/>
<path d="M2672 1353 c-1 -17 -7 -44 -12 -59 -6 -15 -8 -29 -6 -32 11 -10 27
53 23 87 -4 36 -4 36 -5 4z"/>
<path d="M3200 1330 c0 -5 9 -8 20 -7 21 1 18 10 -5 13 -8 1 -15 -2 -15 -6z"/>
<path d="M4356 1325 c4 -8 11 -15 16 -15 6 0 5 6 -2 15 -7 8 -14 15 -16 15 -2
0 -1 -7 2 -15z"/>
<path d="M2476 1312 c-7 -11 38 -55 59 -58 25 -4 17 15 -10 22 -14 3 -23 10
-20 14 3 4 -2 13 -9 19 -8 7 -17 8 -20 3z"/>
<path d="M2715 1260 c3 -5 8 -10 11 -10 2 0 4 5 4 10 0 6 -5 10 -11 10 -5 0
-7 -4 -4 -10z"/>
<path d="M4392 1254 c-7 -8 -8 -14 -3 -14 10 0 25 19 20 25 -2 1 -10 -3 -17
-11z"/>
<path d="M2616 1244 c-4 -9 -4 -19 -1 -22 2 -3 7 3 11 12 4 9 4 19 1 22 -2 3
-7 -3 -11 -12z"/>
</g>
</svg>
