<?xml version="1.0" standalone="no"?>
<!DOCTYPE svg PUBLIC "-//W3C//DTD SVG 20010904//EN"
 "http://www.w3.org/TR/2001/REC-SVG-20010904/DTD/svg10.dtd">
<svg version="1.0" xmlns="http://www.w3.org/2000/svg"
 width="1527.000000pt" height="1527.000000pt" viewBox="0 0 1527.000000 1527.000000"
 preserveAspectRatio="xMidYMid meet">
<g transform="translate(0.000000,1527.000000) scale(0.100000,-0.100000)"
fill="#000000" stroke="none">
<path d="M11820 13150 c-14 -4 -59 -9 -100 -9 -138 -3 -426 -44 -446 -63 -4
-5 -17 -8 -28 -8 -22 0 -99 -23 -151 -45 -16 -7 -50 -20 -75 -30 -25 -9 -58
-24 -75 -32 -16 -9 -59 -31 -95 -49 -36 -19 -72 -39 -80 -44 -8 -5 -51 -31
-95 -57 -83 -48 -240 -165 -311 -230 -78 -73 -190 -201 -226 -260 -11 -18 -24
-33 -29 -33 -5 0 -9 -6 -9 -13 0 -7 -13 -31 -29 -53 -47 -64 -181 -332 -181
-362 0 -15 -7 -36 -15 -46 -8 -11 -15 -26 -15 -34 0 -7 -17 -50 -38 -95 -58
-123 -113 -288 -131 -397 -7 -36 -15 -74 -20 -85 -14 -34 -34 -185 -38 -285
-2 -52 -3 -102 -4 -110 0 -8 2 -91 6 -185 6 -154 13 -203 54 -405 4 -19 13
-45 19 -57 7 -12 12 -32 12 -44 0 -21 22 -96 46 -154 6 -16 19 -61 29 -99 18
-74 31 -108 98 -256 14 -31 29 -69 33 -85 4 -17 12 -37 19 -45 7 -8 31 -55 54
-105 23 -49 46 -97 51 -105 6 -8 15 -26 20 -39 6 -13 17 -29 24 -35 7 -6 40
-45 72 -86 66 -83 258 -280 274 -280 5 0 10 -7 10 -15 0 -8 13 -21 29 -29 16
-9 31 -22 34 -31 4 -8 13 -15 20 -15 8 0 39 -24 70 -54 31 -29 73 -61 94 -71
21 -10 54 -31 73 -47 19 -15 41 -28 49 -28 8 0 29 -11 47 -25 18 -14 36 -25
40 -25 3 0 32 -15 63 -34 31 -18 81 -41 111 -51 30 -10 59 -21 64 -26 6 -5 29
-9 52 -9 28 0 44 -5 48 -15 3 -8 16 -15 28 -15 13 0 37 -7 53 -16 35 -19 181
-29 190 -14 8 13 -9 19 -65 23 -25 1 -50 6 -56 9 -6 4 -38 11 -70 14 -47 6
-65 13 -86 36 -15 17 -36 28 -52 28 -14 0 -43 9 -65 21 -24 12 -48 18 -61 14
-13 -4 -22 -1 -26 9 -3 9 -12 16 -19 16 -7 0 -24 9 -38 20 -14 11 -32 20 -41
20 -13 0 -15 4 -7 19 9 15 6 22 -15 36 -15 9 -47 20 -72 24 -25 3 -47 11 -49
17 -4 12 28 26 62 28 27 1 25 30 -2 34 -16 2 -23 -2 -23 -13 0 -22 -44 -16
-48 7 -2 12 5 18 25 20 l28 4 -27 12 c-16 6 -28 16 -28 22 0 5 -4 10 -10 10
-5 0 -10 -9 -10 -20 0 -11 -6 -20 -14 -20 -19 0 -29 29 -16 45 8 10 7 16 -6
23 -14 8 -22 5 -36 -13 -10 -13 -18 -28 -18 -34 0 -22 -18 -10 -29 19 -6 20
-17 30 -30 30 -14 0 -23 9 -27 24 -11 43 14 62 31 24 12 -25 41 -45 51 -35 13
12 -68 88 -91 85 -15 -2 -20 3 -19 18 0 16 -4 20 -20 16 -12 -2 -26 -11 -33
-19 -7 -9 -19 -12 -32 -8 -17 5 -19 10 -11 25 5 10 21 21 35 24 25 6 25 7 8
31 -22 30 -43 32 -43 5 0 -13 -7 -20 -20 -20 -23 0 -24 8 -10 45 10 25 10 25
-19 11 -16 -9 -31 -12 -35 -9 -11 11 -6 41 9 57 8 8 12 22 9 30 -9 23 -24 20
-24 -4 0 -15 -7 -20 -25 -20 -16 0 -25 6 -25 15 0 8 -6 15 -13 15 -16 0 -87
94 -87 115 0 8 -7 15 -15 15 -9 0 -18 7 -21 15 -4 8 -15 15 -25 15 -10 0 -19
5 -19 10 0 6 7 10 15 10 17 0 19 12 5 40 -5 11 -14 29 -20 40 -5 11 -10 32
-10 47 0 16 -4 35 -10 43 -8 12 -10 12 -16 -3 -3 -10 -4 -29 -1 -42 4 -24 -8
-43 -20 -31 -3 3 -8 22 -10 43 -2 20 -12 51 -22 68 -10 16 -27 54 -37 83 -12
36 -23 52 -35 52 -13 0 -18 8 -18 33 0 52 -12 105 -27 118 -8 6 -14 17 -14 24
0 6 -9 20 -19 29 -11 10 -23 32 -26 50 -4 17 -16 50 -27 73 -10 23 -24 73 -29
110 -6 45 -16 75 -31 90 -16 17 -22 38 -24 82 -2 45 -8 65 -23 80 -13 13 -21
34 -21 56 0 20 -6 37 -16 43 -18 10 -22 68 -6 84 7 7 7 19 1 36 -13 34 -13
311 0 346 6 15 11 56 11 91 0 35 6 76 14 92 8 15 21 67 30 114 9 48 23 100 31
115 8 16 15 34 15 41 0 6 6 24 14 40 8 15 27 60 42 98 15 39 35 79 44 90 9 11
24 38 34 59 16 36 82 143 96 156 3 3 23 28 45 55 63 79 186 194 276 260 93 66
315 175 359 175 12 0 31 5 42 11 11 6 43 12 72 14 28 1 102 6 164 10 130 9
350 -7 425 -32 47 -15 103 -11 92 7 -3 6 -17 10 -30 10 -12 0 -25 6 -28 14 -5
13 -39 23 -107 33 -80 10 -535 10 -549 -1 -16 -13 -131 -9 -145 5 -28 27 -155
-15 -156 -51 -1 -8 -17 -27 -36 -42 -28 -21 -43 -26 -66 -21 -22 4 -34 0 -49
-16 -11 -11 -32 -24 -47 -27 -30 -8 -72 -43 -72 -61 0 -22 23 -26 37 -8 11 17
13 17 13 2 0 -18 -29 -37 -57 -37 -10 0 -24 -9 -31 -20 -7 -11 -19 -20 -27
-20 -9 0 -20 -11 -25 -25 -5 -14 -16 -25 -25 -25 -8 0 -15 -7 -15 -15 0 -20
-19 -19 -43 2 -18 17 -19 17 -32 0 -16 -22 -25 -22 -25 1 0 11 8 27 19 36 10
9 21 29 24 44 3 15 24 47 46 71 22 25 55 63 73 85 18 22 73 80 122 129 80 81
91 88 118 83 26 -5 29 -3 23 14 -5 15 2 23 32 37 21 9 49 19 63 23 14 3 29 15
35 27 10 23 62 47 126 57 21 4 42 13 49 21 7 8 29 15 49 15 20 0 41 4 47 10 5
5 41 16 79 24 39 8 88 19 110 24 74 19 258 24 410 13 160 -12 214 -21 310 -51
33 -11 89 -27 125 -36 36 -10 70 -21 75 -25 6 -4 37 -17 70 -30 33 -12 67 -28
76 -35 8 -8 19 -14 23 -14 17 0 132 -58 145 -74 7 -9 21 -16 31 -16 10 0 23
-7 30 -15 7 -8 18 -15 25 -15 6 0 20 -9 30 -20 10 -11 22 -20 27 -20 5 0 31
-17 58 -37 27 -21 69 -53 95 -72 25 -18 61 -48 80 -65 20 -17 61 -51 92 -76
31 -25 77 -67 102 -95 25 -27 69 -72 97 -100 28 -27 59 -63 70 -80 10 -16 27
-36 37 -44 10 -7 34 -36 53 -65 81 -119 104 -152 113 -163 6 -7 11 -16 11 -21
0 -5 9 -19 20 -32 11 -13 20 -29 20 -36 0 -8 17 -42 38 -76 20 -35 44 -79 53
-98 42 -91 57 -127 63 -147 12 -39 30 -45 72 -26 22 9 49 26 61 36 15 14 26
16 40 9 10 -5 24 -7 31 -5 6 3 12 0 12 -6 0 -6 -6 -11 -14 -11 -20 0 -24 -19
-13 -58 9 -26 7 -35 -6 -45 -11 -8 -14 -17 -8 -26 8 -12 13 -12 24 -3 12 10
16 9 21 -4 4 -11 0 -18 -14 -21 -25 -7 -26 -19 0 -33 11 -6 20 -17 20 -26 0
-8 7 -17 15 -20 8 -4 15 -14 15 -24 0 -10 7 -23 15 -30 8 -7 15 -25 15 -41 0
-28 -12 -41 -40 -46 -8 -1 -16 -7 -18 -12 -2 -6 -14 -11 -26 -11 -12 0 -31 -6
-41 -14 -18 -13 -18 -18 -7 -48 6 -19 12 -50 12 -69 0 -19 6 -54 14 -79 44
-139 59 -515 31 -743 -18 -137 -68 -384 -89 -437 -85 -213 -90 -240 -39 -218
15 6 37 20 49 30 38 34 47 -10 11 -53 -12 -14 -30 -29 -40 -32 -10 -4 -16 -11
-13 -16 6 -10 -43 -91 -55 -91 -3 0 -16 -22 -27 -48 -25 -57 -98 -135 -127
-136 -13 -1 -21 -9 -23 -23 -2 -13 -8 -23 -13 -23 -5 0 -79 -70 -165 -155 -86
-85 -162 -155 -169 -155 -6 0 -20 -9 -31 -21 -17 -19 -94 -74 -145 -104 -15
-9 -132 -68 -199 -100 -14 -7 -59 -22 -100 -34 -41 -12 -106 -31 -145 -43 -58
-18 -103 -23 -269 -27 -130 -4 -201 -10 -203 -17 -10 -30 168 -62 388 -70 47
-2 114 -8 149 -13 36 -6 69 -7 79 -2 9 5 83 19 165 30 169 24 173 25 446 135
108 44 311 148 344 176 17 15 49 39 71 54 95 62 116 80 225 187 119 118 191
198 225 253 11 17 25 36 31 41 25 21 118 182 186 320 39 78 42 87 103 265 45
135 85 303 85 361 0 20 7 56 17 80 14 38 16 92 16 379 1 223 -3 358 -11 405
-12 67 -35 224 -51 350 -4 33 -15 74 -24 90 -9 17 -17 42 -17 57 0 15 -4 30
-10 33 -5 3 -10 17 -10 30 0 23 -16 67 -46 128 -8 16 -14 35 -14 44 0 8 -6 27
-14 41 -8 15 -33 65 -55 112 -23 47 -55 108 -71 135 -15 28 -42 77 -60 110
-17 33 -41 76 -53 95 -12 19 -35 57 -52 84 -39 63 -111 163 -146 201 -15 17
-30 39 -33 50 -3 11 -27 34 -52 50 -27 18 -51 44 -60 64 -20 48 -184 207 -279
270 -91 60 -128 70 -173 47 -26 -13 -32 -23 -32 -49 0 -17 -3 -42 -6 -53 -4
-14 1 -28 13 -40 11 -11 35 -43 53 -71 24 -38 40 -53 56 -53 17 0 21 -4 17
-19 -4 -15 3 -23 30 -35 19 -8 39 -21 43 -29 12 -20 68 -47 96 -47 13 0 33 -7
45 -15 29 -20 120 -9 136 16 16 26 24 24 32 -8 11 -39 6 -76 -11 -90 -14 -10
-13 -15 3 -40 21 -34 100 -113 112 -113 5 0 11 7 15 15 3 8 10 15 16 15 5 0
10 -7 10 -15 0 -8 -7 -15 -15 -15 -27 0 -17 -48 20 -96 19 -25 35 -50 35 -56
0 -6 23 -38 50 -73 28 -35 50 -70 50 -79 0 -10 11 -19 30 -23 35 -7 46 -19 32
-36 -13 -17 -22 -106 -11 -113 5 -3 12 2 15 10 3 9 13 16 21 16 15 0 15 -23
-2 -62 -4 -11 -3 -18 4 -18 6 0 11 5 11 10 0 6 7 10 15 10 17 0 21 -35 5 -45
-12 -8 -13 -45 -1 -45 5 0 11 -9 14 -20 6 -23 27 -27 27 -5 0 22 17 18 23 -4
3 -12 -1 -22 -10 -25 -19 -8 -13 -60 8 -64 11 -2 19 10 28 38 12 42 31 54 31
21 0 -11 8 -33 17 -50 17 -29 17 -31 -1 -44 -11 -8 -16 -19 -12 -25 4 -6 1
-20 -5 -30 -10 -16 -6 -25 30 -61 43 -43 51 -70 26 -91 -17 -14 -20 -41 -6
-56 5 -5 12 -28 15 -51 15 -106 19 -123 27 -123 5 0 9 -16 9 -35 0 -24 -5 -35
-15 -35 -8 0 -15 -6 -15 -14 0 -8 7 -16 15 -20 8 -3 15 -15 15 -26 0 -12 5
-31 11 -42 6 -11 12 -61 14 -110 3 -67 8 -94 20 -108 11 -12 15 -26 10 -37
-12 -29 -14 -185 -4 -226 8 -30 6 -51 -7 -93 -18 -58 -14 -83 13 -85 12 -1 9
-3 -7 -8 -19 -5 -25 -14 -25 -36 0 -15 -6 -30 -12 -32 -15 -6 -17 -55 -3 -69
7 -7 5 -21 -7 -45 -9 -19 -19 -59 -21 -91 -3 -45 -8 -57 -23 -61 -23 -6 -24
-35 -3 -65 21 -31 12 -48 -28 -54 -44 -7 -60 0 -53 23 6 19 -14 49 -33 49 -14
0 -22 -25 -22 -66 0 -52 -20 -126 -40 -149 -10 -11 -23 -40 -30 -65 -6 -25
-18 -54 -25 -66 -7 -11 -18 -46 -24 -77 -5 -31 -21 -74 -35 -95 -13 -22 -26
-54 -28 -73 -2 -26 -8 -34 -28 -39 -16 -4 -32 -20 -45 -47 -11 -22 -41 -62
-67 -88 -27 -25 -48 -50 -48 -55 0 -4 9 -10 21 -13 12 -3 18 -10 14 -16 -4 -8
-12 -8 -25 -1 -18 10 -51 -27 -149 -166 -13 -19 -30 -34 -38 -34 -7 0 -18 -11
-23 -24 -7 -18 -18 -26 -42 -28 -24 -2 -36 -10 -46 -31 -10 -20 -19 -26 -32
-22 -13 4 -20 0 -25 -14 -6 -19 -57 -34 -97 -28 -9 1 -18 -2 -20 -8 -2 -5 12
-11 30 -13 17 -2 32 -7 32 -11 0 -10 -35 -21 -67 -21 -13 0 -24 -8 -28 -20 -4
-13 -18 -23 -36 -27 -16 -3 -39 -16 -52 -29 -15 -16 -25 -20 -34 -13 -8 7 -18
7 -32 0 -11 -6 -29 -11 -41 -11 -11 0 -32 -11 -46 -25 -29 -29 -52 -32 -70 -7
-24 30 -17 52 15 52 23 0 34 8 51 35 15 24 32 38 52 42 25 5 29 9 24 29 -5 20
-3 23 21 21 26 -2 28 1 25 31 -1 23 3 34 15 39 10 4 23 14 30 22 11 14 12 14
13 -1 0 -10 -4 -18 -10 -18 -5 0 -10 -7 -10 -16 0 -27 33 -11 43 21 6 17 13
32 16 35 3 3 14 19 23 35 14 24 24 30 48 29 22 -2 30 3 30 15 0 9 16 32 35 50
19 19 37 43 41 53 6 20 19 24 29 8 10 -16 25 -1 25 24 0 13 9 31 20 41 11 10
20 22 20 28 0 5 22 35 49 66 26 31 54 73 60 94 7 20 19 37 27 37 8 0 14 9 14
19 0 11 5 23 10 26 6 3 10 16 10 28 0 13 7 33 16 46 20 28 24 153 6 159 -19 6
-14 36 13 76 16 24 25 51 25 76 0 21 4 41 9 45 5 3 7 21 4 39 -4 25 0 43 14
63 29 41 35 75 23 148 -9 58 -8 71 10 112 21 47 28 151 11 169 -5 5 -11 63
-15 129 -8 178 -22 299 -37 323 -11 18 -11 24 5 41 24 27 17 95 -13 122 -38
36 -21 89 21 67 14 -7 21 -1 34 29 10 21 16 42 15 47 -1 6 3 20 10 33 11 20
10 29 -4 52 -9 16 -17 42 -17 59 0 16 -7 35 -15 42 -8 7 -17 28 -21 49 -3 20
-12 45 -19 56 -7 11 -16 40 -20 64 -5 29 -13 45 -25 48 -10 3 -26 23 -36 44
-10 22 -25 44 -34 49 -10 5 -20 28 -24 52 -7 42 -30 78 -49 78 -14 0 -1 -109
16 -129 25 -28 27 -60 5 -72 -23 -13 -48 4 -48 32 0 22 -29 26 -49 7 -11 -11
-12 -6 -8 27 13 93 20 111 50 137 l32 27 -17 33 c-9 18 -18 42 -20 52 -2 11
-9 21 -15 24 -9 2 -13 -10 -13 -42 0 -48 -7 -54 -39 -34 -25 15 -54 -6 -46
-33 4 -13 1 -19 -9 -19 -12 0 -16 10 -16 34 0 23 -9 45 -27 66 l-27 32 27 20
c15 11 27 25 27 31 0 7 -18 29 -40 50 -22 20 -40 42 -40 47 0 15 26 12 40 -5
13 -16 50 -21 50 -7 0 5 -25 36 -55 69 -30 34 -55 67 -55 75 -1 7 -11 26 -24
41 -21 26 -25 28 -45 16 -13 -9 -21 -24 -21 -41 0 -28 13 -37 25 -18 12 20 24
9 54 -47 37 -68 38 -75 9 -71 -18 2 -23 9 -23 35 0 42 -11 50 -35 28 -19 -18
-20 -17 -31 12 -5 17 -30 44 -55 62 -41 30 -53 49 -37 64 10 11 33 -13 33 -34
0 -30 28 -22 50 14 24 39 24 41 4 62 -13 12 -27 15 -58 10 -36 -5 -39 -4 -23
8 27 22 21 43 -23 77 -22 17 -40 38 -40 45 0 23 -96 77 -137 77 -35 0 -36 1
-18 14 19 14 19 16 -20 50 -22 19 -54 41 -72 49 -17 8 -39 28 -49 44 -12 20
-39 38 -95 62 -44 18 -79 36 -79 40 0 4 -10 10 -22 14 -35 10 -68 28 -68 37 0
4 13 8 29 8 19 0 34 8 44 24 15 23 15 24 -11 29 -16 3 -33 0 -43 -9 -11 -10
-18 -11 -26 -3 -8 8 -17 7 -32 -3 -30 -21 -80 -11 -91 17 -6 15 -21 26 -41 30
-17 4 -46 16 -64 26 -18 11 -39 17 -48 13 -10 -3 -20 2 -27 16 -7 14 -17 19
-27 15 -9 -3 -25 3 -37 14 -22 21 -201 81 -241 81 -12 0 -40 8 -61 17 -22 9
-49 15 -62 14 -15 -2 -25 5 -31 21 -7 16 -10 18 -10 6 -1 -24 -19 -32 -37 -17
-10 8 -57 14 -132 16 -84 3 -121 8 -132 18 -9 8 -39 19 -66 24 -42 9 -53 7
-76 -9 -15 -11 -50 -29 -78 -40 -50 -20 -50 -20 -62 0 -16 25 -53 26 -63 3 -6
-16 -8 -15 -16 6 -13 34 -2 63 22 56 15 -5 19 -1 19 19 0 29 45 56 95 56 18 0
38 6 44 14 7 8 27 18 44 22 33 7 86 40 100 62 4 6 17 12 27 12 16 0 20 -7 20
-30 0 -38 15 -39 104 -5 50 19 72 23 86 15 24 -13 170 -13 190 0 12 8 13 13 3
30 -18 28 -17 30 16 30 42 0 61 10 72 36 8 23 12 24 123 24 161 0 168 -31 8
-34 -60 -1 -67 -3 -67 -21 0 -17 7 -20 45 -20 41 0 45 -2 48 -26 2 -17 13 -31
30 -40 15 -7 30 -15 34 -17 4 -2 6 9 5 25 -2 25 2 28 32 31 18 2 46 -2 61 -8
24 -10 31 -8 53 14 34 34 50 33 64 -4 6 -17 23 -34 38 -40 15 -6 29 -19 32
-30 8 -30 20 -24 27 12 5 23 2 34 -9 41 -8 4 -27 19 -42 33 -14 13 -32 24 -39
24 -20 0 -17 29 2 37 11 4 23 -3 36 -20 12 -16 29 -27 43 -27 14 0 31 -12 46
-35 19 -28 31 -35 57 -35 20 0 47 -10 67 -25 18 -14 37 -25 41 -23 5 1 28 -8
51 -20 23 -12 50 -22 59 -22 10 0 26 -7 36 -16 15 -14 20 -15 34 -4 13 12 17
11 25 -1 5 -8 9 -20 9 -26 0 -8 14 -13 34 -13 55 0 66 -8 59 -42 -6 -30 -5
-31 23 -24 16 4 32 8 37 9 5 1 16 -12 25 -28 10 -18 24 -29 33 -27 9 2 32 -6
50 -17 45 -27 57 -26 70 6 7 20 13 23 21 15 14 -14 58 -16 58 -3 0 13 -118 96
-163 115 -20 8 -40 22 -43 31 -3 8 -13 15 -21 15 -8 0 -27 6 -41 14 -107 54
-220 106 -234 106 -9 0 -20 5 -23 10 -3 6 -13 10 -21 10 -8 0 -34 9 -57 21
-38 18 -76 29 -159 46 -15 3 -30 13 -33 23 -4 14 -28 19 -138 29 -72 7 -154
19 -182 26 -65 18 -183 26 -215 15z m-915 -406 l0 -39 -57 1 c-43 1 -58 -2
-58 -12 0 -8 7 -14 15 -14 8 0 15 -4 15 -10 0 -14 -27 -13 -36 2 -5 8 -10 7
-18 -4 -14 -18 -46 -32 -68 -29 -10 1 -28 -7 -40 -18 -12 -12 -34 -21 -50 -21
-16 0 -28 -5 -28 -13 0 -16 -53 -57 -74 -57 -24 0 -30 21 -7 27 11 3 23 14 26
24 4 10 15 19 26 19 11 0 23 8 26 18 4 9 17 28 31 42 22 22 25 23 33 7 12 -21
29 -22 29 -2 0 7 6 18 13 22 8 4 17 17 21 28 7 19 8 19 25 -3 21 -28 31 -20
31 25 0 34 16 43 38 21 9 -9 15 -8 24 4 12 16 50 28 73 23 6 -1 10 -19 10 -41z
m365 21 c0 -9 -9 -15 -24 -15 -30 0 -43 17 -19 23 34 9 43 7 43 -8z m-816
-267 c5 -9 7 -20 3 -25 -11 -10 -41 11 -45 31 -5 23 26 18 42 -6z m2781 2
c-11 -18 16 -42 41 -36 23 6 42 -18 23 -30 -6 -3 -3 -11 7 -18 11 -9 15 -21
11 -35 -4 -18 3 -26 44 -46 80 -41 58 -65 -28 -33 -42 17 -52 25 -55 47 -2 20
-9 27 -30 29 -16 2 -28 8 -28 13 0 6 -14 23 -31 39 -34 31 -34 60 0 60 11 0
23 5 26 10 3 6 11 10 16 10 6 0 7 -5 4 -10z m-322 -470 c12 -11 0 -47 -18 -54
-11 -4 -15 2 -15 20 0 17 -7 28 -20 31 -11 3 -20 10 -20 15 0 11 60 1 73 -12z
m-2885 -167 c4 -27 -5 -29 -30 -6 -24 22 -23 35 5 31 14 -2 23 -11 25 -25z
m3170 -251 c3 -19 -1 -23 -15 -20 -10 2 -19 14 -21 26 -3 19 1 23 15 20 10 -2
19 -14 21 -26z m22 -58 c0 -8 -4 -14 -10 -14 -5 0 -10 9 -10 21 0 11 5 17 10
14 6 -3 10 -13 10 -21z m827 -100 c-9 -9 -28 6 -21 18 4 6 10 6 17 -1 6 -6 8
-13 4 -17z m-19 -47 c2 -10 -3 -17 -12 -17 -10 0 -16 9 -16 21 0 24 23 21 28
-4z m-642 -18 c3 -6 1 -16 -5 -22 -6 -6 -11 -28 -11 -49 0 -44 -12 -49 -28
-13 -16 34 -15 82 1 88 21 9 36 7 43 -4z m254 -823 c0 -14 -5 -28 -10 -31 -13
-8 -24 20 -16 40 9 24 26 17 26 -9z m488 -1134 c-9 -15 -16 -43 -16 -60 1 -42
-15 -60 -37 -42 -12 10 -15 23 -11 42 3 15 9 42 12 59 4 18 15 34 28 39 32 12
43 -6 24 -38z m-3998 -147 c0 -14 -4 -25 -10 -25 -5 0 -10 11 -10 25 0 14 5
25 10 25 6 0 10 -11 10 -25z m3933 -13 c-15 -9 -63 -80 -63 -92 0 -6 7 -10 15
-10 19 0 19 -24 1 -39 -8 -7 -18 -26 -21 -42 -4 -16 -11 -29 -16 -29 -13 0
-11 57 4 81 10 17 10 23 0 26 -15 5 -18 53 -4 53 5 0 11 10 15 23 7 27 57 60
71 46 6 -6 6 -12 -2 -17z m-123 -257 c0 -34 -12 -46 -25 -24 -9 14 3 59 15 59
6 0 10 -16 10 -35z m-1230 -845 c0 -5 11 -12 25 -16 28 -7 29 -27 2 -32 -19
-4 -60 35 -52 48 8 13 25 13 25 0z"/>
<path d="M10610 12635 c0 -8 7 -15 15 -15 8 0 15 7 15 15 0 8 -7 15 -15 15 -8
0 -15 -7 -15 -15z"/>
<path d="M11747 12996 c-7 -18 1 -26 25 -26 22 0 24 26 2 34 -21 8 -21 8 -27
-8z"/>
<path d="M12194 12929 c-8 -14 11 -33 25 -25 11 7 4 36 -9 36 -5 0 -12 -5 -16
-11z"/>
<path d="M11235 12910 c-8 -12 20 -24 35 -15 5 3 10 10 10 16 0 12 -37 12 -45
-1z"/>
<path d="M12347 12914 c-9 -10 2 -24 19 -24 8 0 14 7 14 15 0 15 -21 21 -33 9z"/>
<path d="M12450 12880 c0 -13 28 -25 38 -16 3 4 0 11 -8 16 -20 13 -30 12 -30
0z"/>
<path d="M12543 12483 c9 -2 25 -2 35 0 9 3 1 5 -18 5 -19 0 -27 -2 -17 -5z"/>
<path d="M10768 12384 c-12 -19 -99 -28 -109 -12 -13 20 -12 -8 1 -33 8 -14
21 -19 54 -19 49 0 69 17 64 52 -2 14 -6 19 -10 12z"/>
<path d="M13160 12251 c0 -10 10 -26 23 -34 l24 -15 -16 34 c-18 37 -31 44
-31 15z"/>
<path d="M11520 12215 c0 -9 9 -15 24 -15 14 0 41 -9 60 -21 36 -21 77 -23 83
-3 6 20 -40 41 -104 48 -53 6 -63 5 -63 -9z"/>
<path d="M11740 12146 c25 -15 45 -12 35 5 -4 5 -18 9 -33 9 l-27 -1 25 -13z"/>
<path d="M11830 12103 c0 -10 57 -43 73 -43 6 0 0 11 -13 25 -22 23 -60 34
-60 18z"/>
<path d="M11019 12045 c-3 -2 -39 -9 -80 -15 -104 -14 -193 -44 -334 -111 -45
-21 -89 -47 -100 -58 -10 -12 -22 -21 -27 -21 -16 0 -121 -85 -175 -142 -45
-48 -52 -61 -58 -110 -8 -67 -3 -86 38 -137 29 -36 56 -73 122 -171 13 -19 54
-79 92 -133 37 -54 73 -106 78 -115 6 -9 29 -43 53 -75 82 -112 80 -97 73
-567 -7 -465 -3 -436 -84 -503 -23 -19 -58 -50 -79 -68 -20 -19 -55 -50 -79
-69 -60 -49 -147 -127 -196 -178 -42 -41 -43 -45 -43 -106 0 -49 5 -70 23 -95
12 -17 36 -50 52 -74 31 -43 92 -120 135 -171 67 -78 256 -253 315 -293 22
-15 51 -37 65 -49 14 -12 45 -32 70 -46 25 -13 64 -36 87 -51 24 -15 49 -27
57 -27 7 0 19 -7 26 -15 7 -8 20 -15 29 -15 9 0 25 -7 35 -15 11 -8 29 -15 41
-15 12 0 25 -4 31 -9 15 -15 126 -51 157 -51 15 0 36 -4 46 -10 37 -19 235
-42 331 -37 140 7 281 31 332 58 10 5 22 9 28 9 9 0 154 68 196 93 11 7 51 34
88 61 80 59 101 97 92 163 -7 51 -44 133 -63 140 -7 3 -13 10 -13 15 0 6 -13
27 -30 48 -16 21 -30 41 -30 45 0 3 -19 32 -42 63 -24 32 -47 65 -53 74 -5 9
-50 75 -100 147 -150 218 -137 186 -130 336 3 72 10 193 15 270 5 77 11 214
14 305 3 99 9 176 16 192 7 15 47 55 89 90 42 35 145 122 229 193 85 72 165
137 178 145 24 15 54 85 54 126 0 65 -78 195 -209 349 -80 93 -306 299 -373
340 -9 6 -41 27 -72 48 -153 104 -391 197 -594 231 -85 15 -312 22 -323 11z
m316 -90 c151 -27 188 -35 199 -44 6 -4 25 -11 43 -14 17 -3 67 -24 112 -45
63 -31 77 -42 68 -52 -10 -10 -5 -11 21 -5 27 6 32 4 32 -13 0 -26 10 -34 26
-21 8 6 22 8 31 4 17 -6 17 -7 -2 -22 -19 -14 -18 -15 17 -9 21 4 39 2 43 -4
3 -5 -1 -10 -9 -10 -23 0 -20 -27 4 -40 16 -9 22 -8 26 5 9 22 23 19 46 -10
11 -14 25 -25 33 -25 7 0 15 -9 18 -20 3 -13 14 -20 30 -20 21 0 24 -4 20 -21
-4 -14 -1 -20 8 -17 34 7 129 -78 114 -102 -3 -6 2 -10 12 -10 27 0 43 -20 43
-53 0 -24 3 -27 20 -22 16 5 23 0 31 -24 7 -19 18 -31 29 -31 17 0 85 -95 111
-155 7 -17 20 -38 28 -48 12 -14 13 -22 3 -37 -7 -12 -9 -27 -3 -42 7 -20 -1
-32 -62 -90 -39 -38 -74 -68 -78 -68 -4 0 -9 -6 -11 -12 -3 -7 -13 -13 -23
-13 -11 0 -31 -17 -45 -39 -15 -21 -40 -45 -56 -54 -16 -8 -41 -26 -55 -41
-15 -14 -45 -39 -68 -55 -22 -17 -41 -35 -41 -40 0 -6 -14 -26 -31 -44 -17
-19 -36 -50 -41 -70 -5 -20 -13 -53 -18 -72 -4 -19 -11 -156 -14 -304 -4 -148
-10 -274 -13 -279 -4 -6 -8 -60 -9 -121 -2 -81 2 -125 13 -163 9 -29 20 -53
24 -53 8 0 39 -57 39 -72 0 -5 14 -22 30 -38 18 -17 30 -40 30 -55 0 -14 6
-25 13 -25 19 -1 57 -36 57 -54 0 -9 5 -16 10 -16 6 0 10 -7 10 -15 0 -20 46
-91 87 -136 26 -27 33 -43 31 -65 -2 -21 1 -29 13 -29 23 0 49 -24 49 -45 0
-10 9 -20 21 -23 17 -5 19 -11 14 -40 -4 -21 -3 -37 4 -41 19 -12 11 -40 -24
-81 -30 -35 -37 -38 -54 -28 -17 10 -20 9 -25 -13 -6 -23 -10 -25 -39 -19 -26
6 -30 5 -19 -6 19 -20 14 -29 -16 -29 -26 0 -66 -21 -87 -46 -5 -6 -21 -14
-35 -17 -14 -4 -54 -14 -90 -22 -83 -21 -222 -35 -235 -25 -6 5 -26 5 -45 0
-29 -7 -31 -8 -10 -10 14 -1 34 -6 45 -11 13 -6 -16 -7 -85 -5 -130 5 -255 22
-295 40 -16 8 -53 17 -82 21 -31 4 -58 14 -69 26 -9 10 -28 19 -42 19 -14 0
-53 13 -86 29 -34 16 -70 32 -81 36 -19 7 -19 7 3 18 27 12 29 27 3 27 -10 0
-24 7 -31 15 -16 19 -40 19 -40 1 0 -9 -7 -12 -20 -9 -11 3 -20 12 -20 20 0 9
6 13 15 9 20 -7 41 32 26 47 -8 8 -11 6 -11 -6 0 -22 -43 -42 -67 -32 -12 5
-14 9 -5 12 20 8 15 53 -7 53 -10 0 -21 -7 -25 -15 -6 -17 -33 -10 -59 17 -10
10 -22 18 -27 18 -14 0 -12 28 1 32 9 3 9 10 0 27 -12 21 -13 22 -25 5 -13
-17 -15 -16 -44 7 -17 13 -31 34 -31 46 -1 15 -14 27 -46 43 -45 22 -64 43
-63 70 2 35 -3 50 -17 50 -8 0 -15 -9 -15 -20 0 -11 -3 -20 -7 -20 -10 0 -33
49 -33 67 0 8 -8 17 -17 20 -23 9 -52 44 -53 62 0 8 -19 33 -42 55 -37 38 -41
47 -43 95 -2 45 1 54 16 58 11 3 19 9 19 14 0 5 8 9 18 9 28 0 34 11 15 25
-27 20 0 45 48 45 22 0 39 5 39 10 0 6 -8 10 -17 10 -13 0 -14 3 -5 12 8 8 15
8 25 0 10 -9 17 -7 30 6 9 9 26 26 37 37 11 10 18 25 16 32 -3 7 14 26 39 43
25 17 45 37 45 45 0 8 25 33 55 57 30 24 58 52 61 63 4 11 15 31 25 44 15 18
16 27 8 37 -8 9 -9 33 -4 71 5 32 9 177 9 323 1 146 4 270 7 275 8 12 3 116
-7 170 -4 22 -14 45 -22 51 -8 6 -15 24 -16 42 -1 18 -11 40 -24 52 -12 11
-29 34 -37 50 -8 16 -24 34 -35 40 -11 6 -20 18 -20 26 0 9 -13 33 -28 53 -15
20 -33 48 -40 64 -6 15 -18 27 -26 27 -18 0 -27 23 -15 41 12 19 11 49 -1 49
-5 0 -10 -6 -10 -14 0 -23 -19 -29 -27 -9 -4 10 -21 36 -40 59 -18 23 -33 48
-33 56 0 8 -15 35 -34 59 -45 60 -51 89 -24 125 36 48 101 114 113 114 7 0 33
20 59 45 27 25 57 45 68 45 10 0 30 11 44 25 14 14 34 25 44 23 10 -2 26 4 36
13 28 23 137 57 249 78 123 23 274 25 380 6z"/>
<path d="M12110 11526 c0 -10 9 -16 21 -16 24 0 21 23 -4 28 -10 2 -17 -3 -17
-12z"/>
<path d="M11231 11271 c-16 -10 -19 -87 -3 -103 20 -20 27 -3 22 54 -4 46 -8
56 -19 49z"/>
<path d="M12352 11267 c-9 -11 -10 -17 -2 -22 15 -9 23 -1 18 21 -3 15 -4 16
-16 1z"/>
<path d="M11437 11214 c-4 -4 -7 -14 -7 -23 0 -11 3 -12 11 -4 6 6 10 16 7 23
-2 6 -7 8 -11 4z"/>
<path d="M10762 11016 c1 -10 8 -17 13 -17 15 1 12 24 -3 29 -9 3 -13 -2 -10
-12z"/>
<path d="M11415 10788 c11 -66 21 -79 35 -44 13 36 1 80 -24 84 -16 3 -17 -1
-11 -40z"/>
<path d="M11212 10693 c2 -10 10 -18 18 -18 8 0 16 8 18 18 2 12 -3 17 -18 17
-15 0 -20 -5 -18 -17z"/>
<path d="M11907 10551 c-3 -12 -2 -34 2 -49 l8 -27 7 32 c9 38 -7 80 -17 44z"/>
<path d="M11452 10521 c4 -13 18 -16 19 -4 0 4 -5 9 -11 12 -7 2 -11 -2 -8 -8z"/>
<path d="M11240 10171 c0 -9 34 -21 60 -21 11 1 10 4 -4 15 -22 16 -56 20 -56
6z"/>
<path d="M11360 10117 c0 -18 49 -37 94 -37 l31 0 -33 20 c-47 29 -92 37 -92
17z"/>
<path d="M11164 9969 c-3 -6 -1 -16 5 -22 9 -9 14 -8 21 3 9 15 4 30 -10 30
-5 0 -12 -5 -16 -11z"/>
<path d="M11354 9939 c-4 -7 1 -16 10 -21 22 -12 20 -25 -4 -31 -34 -9 -21
-57 16 -57 9 0 34 61 34 83 0 32 -40 50 -56 26z"/>
<path d="M10706 9863 c-11 -11 -6 -23 9 -23 8 0 15 4 15 9 0 13 -16 22 -24 14z"/>
<path d="M11187 9864 c-9 -9 -9 -56 -1 -78 10 -27 24 -18 23 17 -1 39 -12 71
-22 61z"/>
<path d="M11242 9736 c1 -10 8 -17 13 -17 15 1 12 24 -3 29 -9 3 -13 -2 -10
-12z"/>
<path d="M11161 9688 c-1 -20 4 -40 10 -43 17 -11 23 3 11 28 -6 12 -13 29
-15 37 -3 8 -6 -2 -6 -22z"/>
<path d="M11319 9666 c16 -19 44 -21 39 -3 -3 6 -15 14 -28 15 -21 3 -22 2
-11 -12z"/>
<path d="M11277 9524 c-13 -13 -7 -24 14 -24 11 0 19 5 17 12 -5 14 -22 21
-31 12z"/>
<path d="M10440 9315 c0 -8 5 -15 10 -15 6 0 10 7 10 15 0 8 -4 15 -10 15 -5
0 -10 -7 -10 -15z"/>
<path d="M11270 9260 c0 -15 7 -20 25 -20 27 0 32 9 13 28 -18 18 -38 14 -38
-8z"/>
<path d="M11158 9194 c-12 -11 -10 -122 2 -129 6 -3 12 0 15 7 7 19 -9 131
-17 122z"/>
<path d="M10885 8920 c-4 -6 -3 -16 3 -22 6 -6 12 -6 17 2 4 6 3 16 -3 22 -6
6 -12 6 -17 -2z"/>
<path d="M11070 8740 c0 -5 9 -10 20 -10 11 0 20 5 20 10 0 6 -9 10 -20 10
-11 0 -20 -4 -20 -10z"/>
<path d="M11403 8625 c-8 -22 2 -28 32 -21 22 6 25 9 15 21 -16 19 -39 19 -47
0z"/>
<path d="M11960 12030 c0 -11 4 -20 9 -20 5 0 16 -3 25 -6 21 -8 21 10 0 30
-21 22 -34 20 -34 -4z"/>
<path d="M12080 11953 c0 -15 45 -53 63 -53 24 0 29 15 9 33 -21 19 -72 33
-72 20z"/>
<path d="M12326 11891 c-9 -14 4 -41 19 -41 8 0 11 8 8 20 -6 24 -19 34 -27
21z"/>
<path d="M13525 11850 c-11 -18 5 -49 43 -79 l37 -29 -3 42 c-2 22 -11 49 -20
59 -17 19 -47 23 -57 7z"/>
<path d="M12236 11843 c-12 -12 -6 -33 9 -33 8 0 15 6 15 14 0 17 -14 28 -24
19z"/>
<path d="M12397 11790 c-4 -14 2 -25 17 -35 12 -8 32 -33 45 -55 12 -22 26
-40 31 -40 4 0 11 -11 14 -25 4 -14 20 -32 37 -40 17 -9 37 -31 45 -50 8 -19
27 -49 42 -67 49 -57 142 -200 142 -218 0 -5 9 -19 20 -32 44 -51 201 -393
225 -491 4 -15 11 -30 16 -33 5 -3 9 -16 9 -29 0 -14 6 -42 14 -62 34 -95 86
-373 86 -468 0 -35 6 -68 15 -79 10 -13 11 -25 4 -43 -14 -37 -11 -73 7 -80 8
-3 20 -1 25 4 6 6 12 77 14 159 2 82 6 159 10 170 7 23 -9 42 -20 24 -3 -5
-10 -10 -16 -10 -15 0 -11 32 7 51 9 10 18 35 21 57 5 39 -10 72 -55 121 -8 8
-11 25 -8 40 13 54 15 161 3 168 -6 3 -13 1 -15 -5 -2 -7 -8 -12 -13 -12 -5 0
-4 9 3 20 10 16 10 26 -4 52 -9 18 -27 65 -40 103 -13 39 -26 72 -30 73 -5 2
-8 18 -8 36 0 20 -8 40 -20 51 -15 13 -20 31 -20 65 0 26 -3 50 -6 53 -12 11
-44 -13 -44 -33 0 -11 -4 -20 -10 -20 -5 0 -10 11 -10 25 0 14 4 25 9 25 21 0
20 35 -2 69 -12 20 -28 48 -35 64 -14 33 -37 35 -46 5 -5 -19 -8 -21 -16 -8
-7 11 -5 18 5 26 20 15 20 74 1 74 -8 0 -18 -9 -21 -20 -7 -21 -25 -28 -25
-10 0 25 -62 142 -79 148 -24 9 -68 62 -72 87 -3 11 -17 26 -32 33 -15 7 -27
19 -27 26 0 7 -13 22 -30 34 -16 13 -30 28 -30 35 0 27 -83 87 -119 87 -5 0
-11 -9 -14 -20z m647 -872 c-8 -28 -12 -33 -20 -25 -9 8 6 47 17 47 6 0 7 -10
3 -22z"/>
<path d="M13620 11690 c0 -20 9 -39 24 -53 13 -12 27 -33 31 -47 10 -32 47
-91 69 -109 9 -7 16 -26 16 -40 0 -15 11 -42 25 -61 14 -19 25 -42 25 -52 0
-10 10 -28 23 -40 12 -13 30 -48 39 -78 31 -103 51 -155 75 -190 13 -19 23
-42 23 -51 0 -9 7 -22 15 -29 9 -7 13 -21 10 -30 -5 -16 6 -70 40 -190 8 -30
20 -98 26 -150 5 -52 13 -104 16 -115 4 -11 6 -24 5 -29 -2 -4 2 -45 9 -90 12
-91 15 -432 4 -549 l-7 -77 30 0 c39 0 43 13 36 110 -3 41 -5 82 -5 90 1 8 1
93 1 188 0 214 -13 369 -38 444 -16 47 -17 66 -9 118 9 55 8 63 -10 83 -32 35
-43 63 -43 111 0 25 -4 47 -9 51 -5 3 -13 20 -16 38 -14 63 -47 159 -75 210
-15 29 -31 68 -35 87 -4 19 -16 41 -26 48 -11 7 -19 24 -19 36 0 13 -6 29 -14
35 -7 6 -21 35 -30 64 -9 30 -35 77 -56 106 -22 29 -40 59 -40 65 0 7 -11 23
-25 36 -14 13 -25 29 -25 37 0 15 -35 53 -50 53 -5 0 -10 -14 -10 -30z"/>
<path d="M13307 11603 c-11 -11 -8 -48 5 -61 31 -31 51 5 28 49 -11 20 -22 24
-33 12z"/>
<path d="M13076 11383 c-11 -11 -6 -23 9 -23 8 0 15 4 15 9 0 13 -16 22 -24
14z"/>
<path d="M13125 11380 c-3 -6 2 -13 12 -17 10 -3 21 -8 26 -10 4 -2 7 5 7 16
0 22 -33 30 -45 11z"/>
<path d="M13187 11334 c-11 -12 -8 -42 6 -56 7 -7 16 -21 20 -31 7 -17 29 -21
28 -4 -1 4 -1 15 -1 25 -1 21 -44 75 -53 66z"/>
<path d="M14062 11215 c-10 -21 -9 -27 3 -32 20 -7 24 -3 27 27 4 32 -16 36
-30 5z"/>
<path d="M13243 11201 c-3 -12 -9 -21 -14 -21 -5 0 -9 -7 -9 -15 0 -8 7 -15
15 -15 8 0 15 -7 15 -15 0 -8 9 -23 20 -32 20 -18 27 -67 11 -77 -16 -10 12
-75 34 -78 25 -4 35 -48 11 -48 -10 0 -16 -9 -16 -24 0 -34 16 -41 24 -11 8
33 24 32 32 -2 4 -16 13 -53 20 -83 17 -64 18 -90 4 -90 -5 0 -10 -4 -10 -10
0 -5 8 -10 18 -10 27 0 56 -35 49 -60 -3 -11 -1 -33 4 -48 4 -15 11 -40 14
-55 3 -15 10 -25 15 -22 15 9 12 52 -5 85 -9 18 -11 31 -5 35 13 8 13 40 0 63
-5 9 -14 37 -19 62 -20 92 -32 135 -42 145 -5 5 -9 18 -9 30 0 12 -7 30 -15
41 -8 10 -15 26 -15 36 0 21 -50 118 -61 118 -5 0 -9 15 -9 34 0 21 -6 36 -15
40 -8 3 -15 12 -15 20 0 24 -21 30 -27 7z m87 -222 c0 -20 -15 -26 -25 -9 -9
15 3 43 15 35 5 -3 10 -15 10 -26z"/>
<path d="M13225 11079 c-4 -6 -5 -13 -2 -16 7 -7 27 6 27 18 0 12 -17 12 -25
-2z"/>
<path d="M14130 10851 c0 -17 2 -31 4 -31 8 0 13 51 5 56 -5 3 -9 -9 -9 -25z"/>
<path d="M14160 10765 c0 -14 5 -25 10 -25 6 0 10 11 10 25 0 14 -4 25 -10 25
-5 0 -10 -11 -10 -25z"/>
<path d="M10169 10741 c-68 -14 -136 -88 -126 -139 3 -15 0 -46 -6 -69 -9 -36
-8 -47 13 -91 34 -72 120 -118 120 -64 0 9 -11 27 -24 41 -28 31 -60 134 -51
169 3 13 26 43 50 67 38 38 49 43 88 43 30 0 47 -5 51 -14 6 -16 36 -19 36 -3
0 6 -9 13 -20 16 -11 3 -20 11 -20 18 0 12 -19 21 -60 30 -8 1 -31 -1 -51 -4z"/>
<path d="M12353 10438 c-2 -5 -11 -8 -19 -8 -16 0 -114 -70 -114 -81 0 -4 -13
-12 -30 -17 -20 -7 -32 -20 -36 -39 -4 -15 -15 -39 -26 -52 -19 -25 -25 -95
-9 -105 10 -6 21 16 21 41 0 9 17 37 37 62 88 107 157 148 257 150 78 2 173
-15 197 -36 8 -7 21 -13 27 -13 10 0 122 -107 149 -143 7 -9 29 -45 48 -80 48
-88 68 -194 61 -315 -6 -84 -10 -99 -40 -145 -87 -133 -166 -183 -283 -179
-80 2 -86 -19 -12 -40 114 -31 252 36 322 158 7 12 21 36 31 55 40 71 59 231
36 303 -5 17 -17 58 -26 91 -15 53 -69 158 -99 192 -5 6 -21 27 -34 45 -28 39
-128 110 -191 136 -57 24 -255 38 -267 20z"/>
<path d="M10357 10384 c-24 -32 -56 -45 -79 -30 -9 5 -20 7 -23 4 -9 -9 3 -45
21 -62 30 -31 124 43 124 99 0 23 -23 17 -43 -11z"/>
<path d="M14216 10365 c-6 -18 2 -45 15 -45 12 0 12 47 0 54 -5 3 -11 -1 -15
-9z"/>
<path d="M13490 10353 c0 -5 5 -15 10 -23 8 -12 10 -11 10 8 0 12 -4 22 -10
22 -5 0 -10 -3 -10 -7z"/>
<path d="M10405 10289 c-4 -6 -5 -13 -2 -16 7 -7 27 6 27 18 0 12 -17 12 -25
-2z"/>
<path d="M12556 10231 c-3 -4 1 -17 9 -27 8 -10 15 -33 15 -50 0 -30 2 -32 33
-30 l32 1 6 -60 c8 -73 16 -93 46 -122 21 -21 22 -27 16 -100 -12 -121 -10
-158 6 -158 8 0 19 14 24 30 5 17 18 42 28 56 28 40 35 145 15 210 -22 70 -41
105 -83 152 -18 20 -33 42 -33 47 0 6 -10 10 -23 10 -13 0 -34 11 -47 25 -25
26 -35 30 -44 16z"/>
<path d="M12414 10156 c-3 -8 -1 -31 5 -52 13 -46 9 -50 -61 -80 -29 -12 -53
-28 -53 -36 0 -7 26 -30 58 -52 l59 -39 -8 -46 c-14 -87 -12 -96 19 -94 15 1
42 9 59 17 39 20 53 20 85 -1 l25 -17 -7 32 c-4 20 -3 32 4 32 5 0 22 5 38 11
22 8 24 12 13 19 -8 6 -31 10 -50 10 -64 1 -80 9 -74 39 7 33 -11 81 -30 81
-12 0 -46 40 -46 54 0 2 13 7 30 11 16 4 34 14 39 22 9 18 3 53 -10 53 -4 0
-20 11 -35 25 -30 28 -52 32 -60 11z"/>
<path d="M14218 10158 c-2 -7 -1 -31 3 -53 5 -35 6 -36 8 -10 1 17 4 40 7 53
6 23 -11 32 -18 10z"/>
<path d="M12085 9956 c-10 -48 9 -155 38 -211 28 -55 97 -133 128 -144 42 -15
55 2 22 30 -66 56 -111 138 -156 284 l-24 80 -8 -39z"/>
<path d="M14190 9918 c0 -19 2 -20 10 -8 13 19 13 30 0 30 -5 0 -10 -10 -10
-22z"/>
<path d="M13149 9893 c-8 -73 -7 -113 1 -108 6 3 10 12 10 20 0 7 7 16 16 19
22 8 15 70 -8 74 -10 2 -18 0 -19 -5z"/>
<path d="M12237 9824 c-8 -8 1 -24 14 -24 5 0 9 7 9 15 0 15 -12 20 -23 9z"/>
<path d="M13140 9719 c0 -11 5 -17 10 -14 6 3 10 13 10 21 0 8 -4 14 -10 14
-5 0 -10 -9 -10 -21z"/>
<path d="M12290 9695 c0 -8 7 -15 15 -15 8 0 15 7 15 15 0 8 -7 15 -15 15 -8
0 -15 -7 -15 -15z"/>
<path d="M12640 9665 c0 -9 5 -15 11 -13 6 2 11 8 11 13 0 5 -5 11 -11 13 -6
2 -11 -4 -11 -13z"/>
<path d="M14050 9652 c0 -29 26 -62 48 -62 17 0 25 45 12 69 -6 13 -21 21 -35
21 -21 0 -25 -5 -25 -28z"/>
<path d="M13107 9560 c-7 -26 3 -61 14 -54 12 7 12 74 0 74 -5 0 -11 -9 -14
-20z"/>
<path d="M12397 9544 c-16 -16 -6 -35 16 -32 12 2 22 10 22 18 0 16 -26 25
-38 14z"/>
<path d="M12320 9465 c0 -18 21 -28 47 -23 14 3 11 8 -14 21 -29 15 -33 16
-33 2z"/>
<path d="M13088 9474 c-5 -4 -8 -21 -8 -38 0 -21 3 -27 11 -19 6 6 9 23 7 38
-2 15 -6 23 -10 19z"/>
<path d="M12794 9399 c-8 -14 18 -31 30 -19 9 9 0 30 -14 30 -5 0 -12 -5 -16
-11z"/>
<path d="M12433 9393 c9 -2 25 -2 35 0 9 3 1 5 -18 5 -19 0 -27 -2 -17 -5z"/>
<path d="M12535 9370 c-4 -6 6 -10 22 -10 22 0 25 2 13 10 -19 12 -27 12 -35
0z"/>
<path d="M13044 9306 c-8 -20 -1 -47 11 -49 6 -1 11 13 13 31 3 32 -14 45 -24
18z"/>
<path d="M10220 9246 c0 -14 5 -26 10 -26 6 0 10 9 10 19 0 11 -4 23 -10 26
-6 4 -10 -5 -10 -19z"/>
<path d="M8630 9245 c-25 -7 -73 -27 -108 -44 -34 -17 -67 -31 -72 -31 -6 0
-37 -13 -70 -30 -33 -16 -66 -30 -73 -30 -8 0 -22 -9 -32 -20 -13 -14 -26 -18
-49 -14 -45 8 -119 35 -137 50 -21 19 -133 19 -148 0 -6 -8 -46 -22 -89 -32
-44 -10 -95 -30 -119 -46 -23 -15 -46 -28 -51 -28 -6 0 -29 -24 -52 -52 -34
-43 -41 -58 -36 -82 9 -44 -19 -118 -62 -162 -21 -22 -76 -61 -122 -87 -104
-59 -98 -55 -191 -111 -42 -25 -79 -46 -83 -46 -3 0 -25 -12 -49 -27 -23 -16
-60 -37 -82 -48 -22 -11 -58 -32 -80 -46 -22 -13 -51 -30 -65 -37 -14 -7 -56
-32 -95 -57 -38 -24 -90 -54 -115 -66 -25 -12 -47 -25 -50 -30 -3 -4 -35 -23
-70 -42 -36 -18 -87 -46 -115 -62 -75 -42 -213 -110 -275 -135 -30 -12 -62
-26 -70 -31 -8 -5 -22 -12 -30 -15 -16 -6 -45 -19 -122 -54 -27 -12 -50 -26
-54 -31 -3 -5 -14 -9 -24 -9 -10 0 -31 -6 -47 -14 -146 -71 -179 -86 -189 -86
-6 0 -28 14 -49 30 -21 17 -50 33 -64 37 -14 3 -52 19 -85 34 -32 16 -64 29
-71 29 -7 0 -26 7 -41 15 -16 8 -38 15 -50 15 -23 0 -102 24 -152 47 -19 8
-43 12 -55 9 -18 -4 -109 10 -342 55 -149 29 -924 28 -1070 -2 -27 -5 -134
-21 -238 -34 -103 -13 -192 -27 -198 -31 -6 -4 -28 -11 -48 -16 -50 -13 -200
-48 -236 -55 -16 -3 -34 -9 -40 -13 -5 -4 -41 -15 -80 -25 -98 -24 -150 -42
-208 -71 -16 -8 -35 -14 -42 -14 -7 0 -26 -7 -42 -14 -27 -14 -181 -88 -253
-121 -102 -47 -291 -178 -333 -232 -10 -13 -25 -23 -33 -23 -8 0 -18 -10 -23
-22 -5 -13 -41 -54 -80 -93 -39 -38 -71 -76 -71 -82 0 -7 -14 -25 -31 -40 -84
-75 -84 -75 -163 -188 -19 -27 -38 -63 -42 -79 -4 -16 -13 -41 -20 -55 -8 -14
-14 -46 -14 -69 0 -39 -6 -51 -60 -110 -33 -37 -60 -72 -60 -79 0 -7 -6 -16
-13 -20 -16 -10 -50 -73 -77 -143 -22 -56 -44 -220 -44 -320 0 -30 8 -104 18
-165 9 -60 21 -139 25 -175 4 -36 20 -91 34 -124 15 -32 27 -64 27 -71 0 -7 6
-18 13 -24 8 -6 19 -28 25 -48 6 -21 27 -62 47 -90 19 -29 50 -75 68 -101 72
-108 186 -225 357 -366 80 -66 199 -146 217 -146 7 0 66 -25 130 -56 125 -60
246 -105 353 -131 36 -8 86 -21 112 -29 26 -8 53 -14 60 -14 7 0 25 -7 40 -14
16 -8 49 -18 75 -21 116 -15 252 -37 293 -47 70 -16 789 -23 940 -8 69 7 181
14 249 16 68 2 131 6 140 10 9 3 43 10 76 14 33 4 87 14 120 23 33 8 101 22
150 32 50 9 97 23 106 31 8 8 23 14 32 14 9 0 31 9 49 19 18 11 53 25 78 31
25 6 54 17 65 24 11 7 43 19 70 26 28 7 86 28 130 47 44 18 85 33 91 33 16 0
215 100 232 116 7 8 22 14 33 14 10 0 42 16 69 35 27 19 53 35 58 35 4 0 41
23 82 52 41 28 89 61 105 72 37 26 68 52 109 91 18 17 58 54 90 84 83 78 127
151 146 246 14 74 33 110 86 163 29 29 63 70 76 90 14 20 37 55 51 78 15 22
27 46 27 52 0 7 4 20 10 30 48 85 86 404 62 521 -7 32 -12 73 -12 93 0 34 -5
55 -52 213 -27 90 -69 180 -92 197 -10 6 -35 50 -56 97 -6 13 -17 29 -24 35
-31 25 -49 73 -42 110 6 31 10 36 27 31 11 -4 27 -1 35 6 12 10 17 9 28 -6 10
-14 15 -15 21 -5 10 16 -33 50 -53 43 -7 -3 -23 -1 -35 5 -12 5 -29 12 -38 15
-36 11 -27 87 10 87 11 0 24 7 29 17 7 12 18 15 46 10 38 -6 56 5 82 49 9 15
14 17 26 7 12 -10 25 -8 66 12 29 14 56 25 60 25 5 0 19 11 32 26 17 17 31 23
46 20 15 -4 32 2 52 19 17 14 37 23 45 19 8 -3 18 -1 21 5 4 6 26 15 49 21 80
21 123 41 132 63 8 17 17 21 41 19 19 -2 43 6 67 23 21 13 41 24 45 23 4 -1
16 2 27 7 11 4 57 23 103 41 45 18 96 44 112 57 16 14 47 28 70 32 43 7 52 20
20 28 -33 8 -23 28 13 26 17 -2 43 4 57 11 14 8 41 17 60 20 24 4 34 11 31 21
-3 8 -5 28 -5 46 -1 50 -18 58 -51 23 -21 -22 -38 -30 -62 -30 -21 0 -36 -6
-39 -15 -7 -18 -34 -20 -34 -2 0 29 125 127 162 127 27 0 53 17 60 39 4 15 24
20 96 24 33 3 49 10 70 34 17 18 43 33 65 37 23 4 43 16 53 30 10 16 21 22 34
19 22 -6 36 17 26 44 -5 12 -9 14 -18 5 -7 -7 -23 -12 -37 -12 -42 0 -155 -42
-179 -67 -17 -17 -34 -23 -66 -23 -30 0 -46 -5 -50 -15 -3 -8 -16 -15 -29 -15
-13 0 -41 -11 -61 -25 -20 -14 -45 -25 -54 -25 -9 0 -39 -13 -67 -28 -27 -15
-70 -34 -94 -42 -23 -7 -50 -24 -58 -37 -11 -17 -19 -20 -31 -14 -16 9 -82
-15 -82 -30 0 -7 51 -19 85 -19 19 0 22 -5 20 -37 -1 -37 -2 -38 -41 -39 -64
0 -105 -15 -117 -41 -18 -40 -50 -39 -91 1 -25 26 -44 36 -66 36 -38 0 -36
-23 3 -30 28 -6 72 -54 62 -70 -3 -5 -18 -10 -31 -10 -19 0 -29 -8 -37 -30
-12 -31 -21 -37 -32 -20 -3 6 -27 10 -52 10 -45 0 -45 0 -40 -29 7 -32 -8 -41
-67 -41 -16 0 -44 -11 -62 -25 -19 -15 -46 -25 -64 -25 -29 0 -32 -2 -26 -25
6 -23 4 -25 -31 -26 -21 -1 -45 -1 -54 0 -9 1 -22 -5 -29 -14 -7 -9 -29 -15
-54 -15 -23 0 -55 -9 -73 -20 -18 -11 -61 -22 -98 -26 -54 -6 -65 -10 -65 -25
0 -21 -31 -32 -99 -33 -66 -1 -68 -30 -7 -92 110 -111 139 -195 137 -398 0
-99 -3 -120 -17 -131 -13 -9 -15 -19 -9 -41 9 -38 10 -72 2 -164 -8 -103 -29
-163 -82 -235 -13 -16 -30 -46 -39 -66 -19 -41 -54 -62 -79 -48 -11 7 -26 5
-45 -5 -21 -11 -45 -13 -86 -9 -41 4 -61 2 -74 -9 -9 -7 -30 -20 -47 -28 -16
-8 -49 -29 -72 -47 -23 -19 -66 -45 -95 -59 -29 -14 -66 -34 -83 -45 -16 -10
-45 -26 -63 -34 -18 -9 -36 -22 -39 -31 -3 -8 -12 -13 -19 -10 -7 3 -16 1 -18
-3 -3 -4 -27 -16 -53 -26 -26 -10 -55 -23 -63 -30 -8 -7 -41 -23 -73 -36 -32
-13 -63 -31 -68 -40 -5 -11 -27 -20 -58 -24 -28 -4 -52 -13 -55 -21 -3 -8 -13
-14 -23 -14 -10 0 -42 -10 -71 -22 -45 -19 -55 -20 -62 -8 -5 8 -6 18 -3 24 4
5 7 26 9 45 1 20 5 47 9 60 7 21 5 23 -9 18 -10 -4 -31 -7 -47 -7 -24 0 -29
-4 -25 -17 3 -10 7 -70 10 -134 7 -129 5 -134 -56 -150 -152 -39 -315 -65
-335 -52 -11 8 -24 142 -24 236 l1 39 -43 -7 c-23 -4 -49 -11 -57 -15 -8 -4
-44 -11 -80 -15 -36 -3 -81 -11 -100 -15 -81 -21 -708 -34 -845 -18 -63 7
-217 17 -345 23 -110 4 -281 25 -301 35 -9 5 -41 12 -70 14 -30 3 -70 10 -89
16 -19 5 -49 10 -67 10 -18 0 -47 6 -65 14 -18 8 -67 22 -108 32 -41 9 -82 21
-90 25 -8 4 -44 18 -80 30 -36 12 -89 35 -118 51 -29 15 -57 28 -63 28 -10 0
-56 28 -163 99 -22 14 -58 43 -80 63 -81 75 -121 108 -128 108 -5 0 -8 5 -8
12 0 6 -19 36 -42 66 -42 54 -43 56 -40 126 5 117 36 124 67 13 17 -58 20 -62
47 -61 52 3 58 4 58 14 0 6 -10 8 -24 4 -19 -4 -26 -1 -31 15 -3 12 -10 21
-15 21 -5 0 -12 16 -16 36 -5 28 -2 40 15 58 12 13 21 35 21 53 0 18 6 33 15
37 20 7 20 56 0 56 -9 0 -15 -9 -15 -25 0 -24 -24 -44 -37 -32 -3 3 2 27 11
53 9 26 16 60 16 76 0 27 1 27 21 10 41 -33 49 -44 49 -63 0 -11 7 -22 15 -25
8 -4 15 -12 15 -19 0 -22 20 -28 45 -15 32 17 58 6 50 -20 -10 -32 20 -70 54
-70 17 0 42 -11 59 -25 46 -38 79 -32 60 11 -6 13 -19 24 -28 24 -17 0 -90 84
-90 103 0 6 -16 34 -36 64 -28 42 -37 68 -41 111 -5 65 17 164 45 196 10 12
26 38 35 60 17 36 19 37 32 20 14 -18 14 -18 15 4 0 15 6 22 21 22 16 0 19 4
14 20 -9 28 10 48 51 56 39 7 53 22 33 35 -11 7 -9 13 11 28 19 15 28 17 39 8
11 -10 13 -8 7 11 -7 20 -5 22 16 17 18 -4 28 2 47 30 24 36 51 47 51 20 0 -8
4 -15 10 -15 5 0 9 9 7 21 -2 25 52 59 95 59 34 0 45 17 23 34 -17 12 -17 13
4 19 14 3 24 -1 30 -11 8 -14 12 -15 23 -3 10 11 10 14 1 18 -30 11 -11 25 26
20 32 -4 47 0 72 19 18 13 46 24 61 24 16 0 31 7 34 15 4 8 14 15 23 15 24 0
33 11 20 26 -16 19 9 29 37 13 21 -11 26 -10 37 3 6 9 30 19 52 23 54 9 155
46 155 56 0 5 13 9 29 9 17 0 33 5 36 10 4 6 21 8 41 4 25 -5 35 -2 39 9 4 9
27 17 68 22 34 3 88 15 119 26 32 10 75 19 97 19 26 0 43 6 49 16 8 14 12 14
30 3 18 -11 24 -10 41 5 17 15 30 17 70 12 35 -5 66 -2 101 10 47 15 52 15 63
0 11 -15 15 -14 48 13 27 23 39 27 48 18 7 -7 11 -8 11 0 0 6 17 14 38 17 44
8 348 8 547 1 77 -3 165 -2 195 3 57 8 196 -12 309 -45 36 -11 72 -14 112 -9
66 6 89 1 89 -21 0 -12 9 -14 43 -9 54 8 82 0 66 -20 -14 -17 2 -19 18 -3 8 8
20 7 44 -5 18 -9 42 -16 53 -16 12 0 34 -7 49 -15 15 -8 34 -12 41 -9 7 3 19
-2 26 -11 7 -8 21 -15 32 -15 11 0 32 -8 46 -19 15 -10 42 -22 60 -26 18 -3
39 -13 47 -21 10 -10 38 -15 86 -16 63 -2 73 1 88 21 10 13 54 35 111 55 106
38 237 93 280 118 16 9 27 13 74 32 67 25 227 107 321 163 55 33 107 63 115
66 8 4 29 16 45 27 32 20 110 65 210 120 33 18 76 43 95 55 19 12 58 34 85 49
28 15 64 35 80 46 17 11 54 32 83 47 115 60 317 177 368 214 27 18 48 44 58
70 27 68 125 169 164 169 16 0 8 -77 -16 -130 -8 -19 -18 -53 -21 -74 -3 -21
-13 -42 -21 -46 -8 -4 -47 -24 -86 -44 -39 -20 -78 -36 -86 -36 -8 0 -23 -9
-33 -20 -11 -12 -41 -32 -68 -46 -28 -13 -63 -36 -79 -49 -16 -14 -38 -25 -49
-25 -10 0 -28 -9 -39 -20 -11 -11 -28 -20 -39 -20 -10 0 -24 -7 -31 -15 -7 -8
-18 -15 -25 -15 -7 0 -18 -7 -25 -15 -7 -8 -19 -15 -27 -15 -7 0 -26 -8 -41
-18 -58 -40 -198 -120 -222 -127 -14 -4 -34 -15 -45 -25 -11 -9 -35 -22 -53
-28 -19 -6 -47 -23 -64 -37 -16 -14 -34 -25 -39 -25 -5 0 -41 -21 -81 -46 -40
-26 -86 -51 -103 -57 -16 -5 -42 -19 -57 -29 -15 -10 -41 -24 -58 -29 -16 -6
-30 -15 -30 -20 0 -5 -9 -9 -20 -9 -17 0 -60 -20 -222 -101 -20 -11 -43 -19
-49 -19 -7 0 -23 -10 -35 -21 -13 -12 -40 -25 -61 -30 -21 -4 -60 -13 -88 -18
-104 -22 -175 -44 -175 -56 0 -22 75 -75 106 -75 8 0 59 21 112 46 53 26 120
57 147 69 28 13 84 39 125 58 41 19 100 45 130 58 30 12 62 28 71 36 9 7 37
20 62 29 26 9 49 20 53 25 3 5 12 9 21 9 8 0 53 23 100 50 47 28 87 50 90 50
2 0 31 15 62 34 32 19 69 37 82 41 13 4 38 18 55 31 17 13 38 24 46 24 9 0 21
7 28 15 6 8 21 17 32 21 10 3 52 25 91 48 40 22 92 52 117 65 25 12 77 40 115
62 39 22 88 49 110 60 50 25 121 66 245 139 8 5 51 30 94 56 70 41 166 125
166 145 0 4 -12 17 -27 28 -14 12 -37 36 -50 54 -21 28 -23 40 -19 92 6 89 30
141 68 149 53 10 106 7 145 -10 99 -44 158 -64 184 -64 8 0 20 9 27 20 7 11
23 20 37 20 14 0 34 9 45 20 11 11 29 20 39 20 11 0 22 4 26 10 3 5 31 17 63
27 31 9 63 21 71 27 17 13 148 56 170 56 9 0 22 -4 30 -9 12 -8 12 -12 2 -25
-8 -10 -9 -16 -3 -16 6 0 14 5 17 10 9 14 43 12 93 -5 31 -11 48 -12 62 -5 30
16 25 47 -7 53 -34 6 -111 33 -135 47 -24 14 -134 11 -188 -5z m-1193 -1310
c8 -22 0 -27 -50 -32 -48 -6 -67 8 -47 32 17 20 89 20 97 0z m-99 -127 c-5
-13 -56 -33 -65 -24 -3 3 -3 12 0 21 8 18 71 22 65 3z m-991 -453 c-2 -5 -9
-10 -15 -9 -7 1 -21 2 -32 3 -29 2 -27 39 3 43 23 4 50 -18 44 -37z m-4707
-390 c0 -8 -4 -15 -10 -15 -5 0 -10 7 -10 15 0 8 5 15 10 15 6 0 10 -7 10 -15z
m-58 -80 c-3 -18 0 -25 11 -25 8 0 17 6 20 13 2 6 8 8 13 4 5 -4 2 -12 -6 -17
-13 -8 -12 -13 3 -39 21 -36 21 -41 2 -41 -8 0 -15 7 -15 15 0 8 -9 19 -19 25
-26 13 -35 44 -21 70 14 27 18 25 12 -5z m4738 -244 c0 -63 2 -70 22 -77 14
-4 25 -1 33 10 7 9 17 16 24 16 17 0 13 16 -9 31 -21 15 -43 88 -22 75 7 -4
12 -16 12 -27 0 -22 19 -25 39 -6 11 10 13 9 8 -6 -4 -10 -1 -27 5 -37 10 -15
10 -22 0 -32 -14 -14 -16 -58 -3 -58 19 0 23 -41 6 -67 -13 -19 -15 -31 -7
-47 17 -35 23 -89 12 -126 -11 -40 -5 -70 15 -70 20 0 45 40 45 72 0 23 4 28
26 28 l25 0 -4 -92 c-4 -89 -10 -122 -39 -231 -11 -42 -16 -48 -35 -44 -26 5
-33 -9 -33 -67 0 -36 -4 -45 -25 -54 -14 -7 -30 -23 -35 -38 -6 -14 -17 -32
-25 -40 -9 -9 -15 -34 -15 -60 0 -24 -4 -44 -9 -44 -5 0 -7 8 -5 18 2 9 0 24
-6 32 -9 13 -11 13 -20 0 -5 -8 -10 -27 -10 -42 0 -30 -16 -46 -32 -30 -19 19
-62 -6 -80 -47 -10 -20 -18 -43 -18 -51 0 -10 -3 -10 -15 0 -19 16 -31 7 -45
-34 -7 -24 -20 -38 -40 -44 -16 -6 -34 -20 -40 -32 -8 -15 -17 -19 -32 -14
-17 5 -20 3 -14 -11 17 -46 18 -65 3 -65 -20 0 -30 -17 -23 -37 6 -14 9 -14
29 3 12 11 43 30 69 42 49 24 92 57 139 106 28 29 59 31 59 2 0 -40 -77 -169
-108 -181 -37 -15 -117 -33 -125 -28 -5 3 -17 -3 -27 -12 -10 -9 -25 -15 -32
-12 -14 5 -128 -53 -228 -118 -36 -23 -108 -66 -160 -95 -52 -29 -107 -61
-122 -71 -15 -11 -34 -19 -43 -19 -9 0 -44 -16 -79 -35 -34 -19 -98 -48 -142
-65 -43 -17 -90 -37 -104 -44 -43 -22 -108 -39 -124 -33 -9 4 -16 16 -16 27 0
11 -4 20 -10 20 -5 0 -10 -15 -10 -34 0 -18 -3 -61 -6 -95 -7 -59 -9 -63 -45
-82 -21 -10 -48 -19 -59 -19 -12 0 -30 -5 -41 -10 -10 -6 -47 -15 -82 -20 -86
-13 -165 -30 -210 -46 -20 -8 -52 -14 -70 -14 -17 0 -53 -8 -80 -17 -64 -23
-74 -12 -86 97 -5 47 -13 95 -16 107 -7 23 9 31 60 31 11 0 40 5 65 11 25 5
81 17 126 25 44 8 94 21 110 27 16 6 47 15 69 20 92 18 172 40 197 54 14 8 36
15 47 15 12 0 24 7 27 15 4 9 19 15 39 15 18 0 54 12 80 27 26 14 63 28 82 30
20 2 48 10 64 18 15 8 37 15 49 15 12 0 20 7 20 16 0 13 -6 15 -27 9 -16 -4
-63 -11 -105 -14 -65 -5 -80 -10 -93 -28 -14 -19 -19 -21 -36 -10 -17 10 -22
9 -30 -5 -7 -13 -18 -15 -44 -11 -26 4 -41 1 -55 -12 -13 -12 -27 -15 -45 -11
-16 4 -34 0 -50 -10 -14 -9 -32 -13 -41 -10 -10 4 -25 -1 -36 -11 -14 -12 -21
-14 -30 -5 -9 9 -16 8 -29 -4 -9 -8 -48 -18 -88 -23 -53 -5 -76 -13 -91 -28
-21 -23 -84 -34 -175 -30 -47 2 -50 1 -53 -25 -2 -15 -11 -30 -21 -33 -18 -5
-41 -64 -41 -105 0 -20 -4 -22 -30 -16 -26 5 -30 3 -30 -17 0 -13 -6 -32 -14
-43 -10 -13 -11 -23 -4 -31 15 -19 -34 -35 -68 -23 -34 13 -81 13 -107 -2 -26
-14 -556 -21 -572 -8 -5 5 -30 5 -55 0 -29 -5 -50 -5 -58 3 -7 6 -53 11 -101
12 -48 2 -97 7 -108 14 -12 6 -55 11 -98 12 -55 1 -78 5 -82 15 -3 8 -12 14
-19 14 -8 0 -17 6 -20 14 -7 18 -34 10 -56 -17 -14 -18 -18 -19 -33 -7 -9 8
-21 24 -26 37 -8 23 -29 32 -29 13 0 -19 -28 -10 -33 12 -5 18 -9 19 -21 9
-23 -19 -60 -10 -64 17 -4 26 -14 28 -32 7 -7 -8 -23 -15 -35 -15 -32 0 -51
25 -35 45 7 9 10 19 6 23 -4 4 -14 -1 -21 -11 -13 -18 -15 -18 -54 2 -22 12
-56 21 -74 21 -19 0 -40 7 -47 15 -7 8 -18 15 -25 15 -7 0 -23 8 -36 18 -22
16 -101 50 -154 67 -11 3 -35 19 -54 35 -28 24 -32 32 -22 44 24 29 -10 109
-39 91 -5 -3 -10 -13 -10 -21 0 -20 -23 -17 -53 6 -14 11 -32 20 -41 20 -8 0
-21 10 -27 23 -6 12 -36 50 -65 85 -30 35 -54 70 -54 78 0 8 -6 25 -14 37 -9
14 -16 57 -18 117 -3 107 7 130 67 144 29 7 29 8 11 22 -26 18 -45 18 -52 -1
-4 -8 -17 -15 -30 -15 -40 0 -56 -48 -58 -172 -1 -79 -4 -108 -13 -108 -7 0
-13 9 -13 19 0 12 -11 25 -28 33 -23 11 -27 20 -27 53 0 31 -5 42 -22 50 -21
11 -21 12 -5 29 16 16 16 17 -4 22 -14 4 -26 20 -34 44 -7 22 -20 42 -28 45
-10 4 -13 14 -9 34 5 22 0 35 -18 55 -37 40 -69 166 -45 181 16 10 11 57 -7
70 -17 13 -17 14 1 34 16 17 17 30 11 88 -4 41 -15 79 -26 94 -21 31 -24 52
-9 80 9 15 7 21 -5 25 -25 10 -18 34 10 34 25 0 33 14 15 25 -5 3 -10 31 -10
60 0 44 4 56 20 65 13 7 20 21 20 41 0 37 23 35 28 -2 2 -14 15 -31 33 -41 35
-20 48 -47 28 -58 -11 -7 -10 -12 4 -28 9 -10 20 -32 23 -49 6 -29 9 -31 31
-22 13 5 33 9 44 9 17 0 20 -5 14 -29 -5 -26 -3 -30 32 -44 24 -9 44 -26 51
-42 10 -22 15 -25 27 -15 17 14 58 3 52 -13 -2 -7 -13 -13 -25 -15 -23 -4 -29
-17 -12 -27 6 -4 17 -1 25 5 19 16 41 -1 60 -44 12 -28 13 -28 14 -8 2 43 28
36 83 -21 29 -31 65 -58 80 -62 15 -4 32 -13 39 -21 14 -17 36 -18 41 -2 4 10
16 8 49 -6 52 -21 122 -55 158 -76 18 -10 49 -14 95 -13 55 2 74 -2 94 -18 30
-23 50 -24 82 -2 13 9 25 12 27 7 16 -49 83 -161 101 -169 12 -5 22 -15 22
-22 0 -14 50 -43 74 -43 8 0 19 -14 25 -32 11 -30 12 -31 31 -13 30 27 25 54
-12 70 -43 18 -80 98 -56 121 12 12 20 13 41 3 23 -10 30 -9 45 4 23 21 46 21
75 2 15 -9 57 -15 124 -18 57 -2 105 -6 108 -9 9 -8 666 1 795 12 63 5 149 15
190 21 46 7 80 8 90 2 16 -10 107 -9 117 1 4 3 15 6 25 6 10 0 18 5 18 10 0 6
4 10 8 10 10 0 9 -65 -2 -102 -7 -23 -2 -36 30 -78 21 -27 42 -50 46 -50 4 0
8 -7 8 -15 0 -10 10 -15 32 -15 46 0 161 21 175 32 6 5 36 10 67 12 36 2 63 9
76 21 24 21 47 14 53 -17 2 -14 5 -6 6 18 1 27 8 47 21 59 11 10 20 26 20 35
0 10 9 28 19 41 l19 24 26 -28 c14 -15 26 -32 26 -38 0 -5 5 -9 10 -9 13 0 12
27 -4 72 l-13 37 45 16 c58 19 72 19 88 -2 12 -17 13 -17 20 2 4 11 16 26 26
33 10 7 18 20 18 28 0 22 20 17 30 -8 l9 -23 0 23 c1 12 9 25 19 28 49 16 137
57 159 74 17 13 34 17 53 14 21 -5 31 -1 43 16 10 15 23 20 43 18 20 -2 29 2
32 15 2 10 -3 17 -13 17 -9 0 -13 5 -10 10 4 6 14 9 23 6 34 -10 97 -11 97 -1
0 5 -14 8 -31 6 -35 -3 -51 11 -31 26 6 5 36 17 66 27 50 18 54 18 63 2 8 -13
19 -15 61 -10 29 3 70 12 92 21 22 8 61 13 90 11 49 -3 50 -2 53 26 l4 28 -63
-7 c-35 -4 -83 -16 -107 -26 -51 -22 -116 -26 -110 -6 7 19 121 77 143 71 11
-3 38 2 61 9 27 10 46 12 57 5 10 -5 22 -6 28 -3 6 4 13 -2 16 -13 7 -27 32
-36 39 -14 11 38 31 67 50 76 11 5 27 23 34 40 16 36 44 77 82 118 15 16 28
41 30 56 2 17 9 27 19 27 9 0 28 14 41 30 19 23 24 38 21 63 -5 32 -33 47 -33
17 0 -8 -3 -15 -7 -15 -5 0 -9 45 -11 100 -2 66 0 100 7 100 7 0 11 -27 11
-69z m-4800 -37 c0 -8 -7 -14 -15 -14 -15 0 -21 21 -9 33 10 9 24 -2 24 -19z
m-212 -616 c15 -15 15 -48 1 -85 -12 -33 -22 -21 -33 40 -10 52 5 72 32 45z
m292 -843 c0 -26 -14 -33 -25 -15 -9 14 1 40 15 40 5 0 10 -11 10 -25z m4328
-13 c2 -6 -7 -14 -20 -17 -13 -3 -28 -16 -33 -28 -7 -15 -22 -24 -45 -27 -25
-4 -36 -11 -40 -28 -3 -12 -18 -29 -35 -38 -86 -45 -135 -77 -135 -90 0 -8 -9
-14 -21 -14 -11 0 -32 -9 -46 -20 -14 -11 -41 -22 -62 -26 -20 -4 -48 -15 -63
-25 -14 -11 -33 -16 -41 -13 -9 3 -18 -2 -21 -13 -9 -26 -106 -68 -106 -45 1
21 37 52 83 68 9 3 17 10 17 15 0 5 13 9 28 9 18 0 38 11 57 30 29 30 59 39
70 20 9 -15 25 -12 25 5 0 8 -4 15 -10 15 -5 0 -10 5 -10 11 0 6 7 8 17 5 9
-4 25 1 37 13 24 22 95 61 111 61 6 0 24 14 40 30 16 17 35 30 42 30 7 0 13 4
13 8 0 9 83 65 110 75 20 7 33 3 38 -11z m-680 -394 c-3 -7 -18 -15 -34 -16
-16 -2 -35 -9 -42 -14 -21 -18 -27 0 -7 22 21 23 90 29 83 8z m-1094 -194 c11
-29 6 -44 -14 -44 -22 0 -23 3 -14 38 7 26 19 29 28 6z"/>
<path d="M6386 6521 c-8 -13 4 -42 15 -35 12 7 12 44 0 44 -6 0 -12 -4 -15 -9z"/>
<path d="M6375 6220 c-8 -13 4 -32 16 -25 12 8 12 35 0 35 -6 0 -13 -4 -16
-10z"/>
<path d="M6177 6143 c-3 -5 -2 -15 2 -22 5 -7 11 -9 14 -4 3 5 2 15 -2 22 -5
7 -11 9 -14 4z"/>
<path d="M6353 6075 c-3 -9 -3 -18 0 -22 10 -10 37 6 37 22 0 20 -29 20 -37 0z"/>
<path d="M6219 5911 c-19 -15 -21 -22 -12 -32 9 -9 17 -7 37 12 14 13 26 27
26 32 0 13 -28 7 -51 -12z"/>
<path d="M6130 5835 c-9 -10 -10 -19 -4 -25 13 -13 49 13 40 28 -10 16 -21 15
-36 -3z"/>
<path d="M6085 5770 c-3 -5 1 -10 9 -10 8 0 18 5 21 10 3 6 -1 10 -9 10 -8 0
-18 -4 -21 -10z"/>
<path d="M5997 5723 c-12 -11 -8 -23 8 -23 8 0 15 7 15 15 0 16 -12 20 -23 8z"/>
<path d="M6210 5705 c0 -17 2 -18 24 -9 18 7 12 24 -10 24 -8 0 -14 -7 -14
-15z"/>
<path d="M5941 5676 c-7 -8 -26 -18 -43 -21 -44 -10 -19 -28 26 -19 36 6 66
27 66 45 0 14 -36 11 -49 -5z"/>
<path d="M5000 5640 c0 -5 9 -10 20 -10 11 0 20 5 20 10 0 6 -9 10 -20 10 -11
0 -20 -4 -20 -10z"/>
<path d="M4917 5579 c-6 -24 1 -49 14 -49 5 0 9 16 9 35 0 38 -14 47 -23 14z"/>
<path d="M5711 5566 c-7 -8 -10 -19 -7 -25 9 -15 47 0 44 17 -4 22 -23 25 -37
8z"/>
<path d="M5622 5512 c-32 -21 -27 -30 18 -28 42 1 52 14 22 32 -13 9 -23 8
-40 -4z"/>
<path d="M2846 5472 c-12 -12 -5 -52 9 -52 7 0 18 -7 23 -15 7 -13 10 -11 20
11 9 19 10 30 2 39 -12 15 -46 25 -54 17z"/>
<path d="M3070 5470 c0 -5 11 -10 25 -10 14 0 25 5 25 10 0 6 -11 10 -25 10
-14 0 -25 -4 -25 -10z"/>
<path d="M3355 5440 c-4 -6 16 -10 52 -10 41 0 54 3 43 10 -20 13 -87 13 -95
0z"/>
<path d="M4670 5435 c0 -8 7 -15 15 -15 8 0 15 7 15 15 0 8 -7 15 -15 15 -8 0
-15 -7 -15 -15z"/>
<path d="M5485 5439 c-4 -6 -5 -12 -2 -15 7 -7 37 7 37 17 0 13 -27 11 -35 -2z"/>
<path d="M2941 5421 c-8 -5 -11 -16 -6 -30 5 -18 2 -21 -19 -21 -14 0 -26 -4
-26 -9 0 -14 9 -18 57 -26 40 -6 42 -6 45 22 4 36 33 39 33 3 0 -20 5 -26 30
-28 17 -1 39 -7 50 -12 32 -16 144 -33 222 -34 65 -1 74 1 88 22 20 27 45 29
45 2 0 -11 11 -27 25 -36 22 -14 26 -14 55 2 25 15 34 16 50 7 16 -11 20 -9
25 7 8 24 35 25 77 4 23 -12 47 -15 84 -11 29 3 54 2 56 -2 5 -11 209 4 248
19 19 7 41 15 49 17 22 6 -2 25 -30 25 -208 -2 -367 -1 -518 3 l-184 5 -23
-26 c-26 -27 -48 -24 -39 7 8 24 -36 36 -71 20 -31 -14 -64 -14 -64 -1 0 6 5
10 11 10 5 0 7 5 4 10 -3 6 -17 10 -31 10 -14 0 -70 11 -126 25 -56 14 -101
25 -102 25 -1 0 -7 -4 -15 -9z"/>
<path d="M5354 5408 c-12 -19 14 -32 39 -19 13 7 29 11 36 9 8 -2 15 2 17 7 5
13 -85 15 -92 3z"/>
<path d="M4795 5380 c-4 -6 7 -10 27 -9 27 0 30 2 13 9 -27 12 -33 12 -40 0z"/>
<path d="M4491 5376 c11 -9 119 -15 119 -6 0 6 -27 10 -62 10 -34 0 -59 -2
-57 -4z"/>
<path d="M4185 5340 c7 -12 52 -12 80 0 15 6 6 9 -33 9 -33 1 -51 -3 -47 -9z"/>
<path d="M5040 5320 c0 -5 15 -10 33 -10 24 0 28 3 17 10 -20 13 -50 13 -50 0z"/>
<path d="M4340 5290 c0 -5 18 -10 39 -10 22 0 43 5 46 10 4 6 -12 10 -39 10
-25 0 -46 -4 -46 -10z"/>
<path d="M4930 5290 c-12 -8 -12 -10 2 -15 25 -10 91 -1 96 13 4 15 -75 17
-98 2z"/>
<path d="M4790 5250 c0 -5 9 -10 20 -10 11 0 20 5 20 10 0 6 -9 10 -20 10 -11
0 -20 -4 -20 -10z"/>
<path d="M5740 5201 c0 -5 -13 -12 -30 -16 -16 -4 -30 -11 -30 -16 0 -17 50
-9 70 11 24 24 25 30 5 30 -8 0 -15 -4 -15 -9z"/>
<path d="M5555 5140 c-3 -5 -14 -10 -25 -10 -18 0 -34 -23 -23 -34 13 -12 32
-5 38 14 5 15 15 20 41 20 19 0 34 5 34 10 0 6 -13 10 -29 10 -17 0 -33 -4
-36 -10z"/>
<path d="M3070 5089 c-79 -13 -104 -21 -133 -45 -16 -13 -35 -24 -42 -24 -15
0 -32 -81 -20 -99 3 -6 17 -11 30 -11 25 0 45 25 45 54 0 9 15 29 33 45 31 29
34 29 132 26 86 -3 107 -7 147 -30 48 -27 98 -77 98 -98 0 -8 4 -7 12 1 25 25
31 11 26 -58 -6 -74 -21 -104 -49 -97 -10 3 -33 -6 -50 -19 -28 -21 -44 -24
-108 -23 -96 0 -143 16 -151 48 -4 20 -16 27 -55 37 -27 7 -55 21 -62 31 -37
54 -53 56 -53 7 0 -45 15 -74 40 -74 11 0 25 -9 32 -21 14 -22 97 -69 123 -69
9 0 26 -5 38 -11 49 -27 229 -8 257 26 7 8 21 15 31 15 11 0 19 6 19 14 0 7 9
25 20 39 21 26 25 70 13 140 -4 28 -12 41 -29 48 -13 4 -24 13 -24 18 0 21
-51 69 -80 75 -17 3 -41 17 -54 31 -20 21 -34 26 -83 28 -32 2 -78 -1 -103 -4z"/>
<path d="M5457 5063 c-13 -12 -7 -23 13 -23 11 0 20 7 20 15 0 15 -21 21 -33
8z"/>
<path d="M5400 5045 c0 -9 6 -12 15 -9 8 4 12 10 9 15 -8 14 -24 10 -24 -6z"/>
<path d="M5336 5033 c-3 -3 -18 -6 -32 -7 -15 -1 -29 -7 -32 -13 -5 -16 13
-16 61 1 26 9 34 15 24 19 -8 3 -18 3 -21 0z"/>
<path d="M9080 9136 c0 -7 18 -33 41 -57 112 -122 219 -271 219 -307 0 -10 5
-23 12 -30 19 -19 40 -83 48 -147 4 -33 15 -77 24 -97 10 -21 15 -46 11 -57
-6 -21 -25 -29 -25 -11 0 6 -4 10 -10 10 -5 0 -10 -18 -10 -40 0 -23 -7 -55
-16 -72 -9 -17 -13 -40 -10 -54 6 -24 -50 -154 -66 -154 -15 0 -8 59 8 68 11
6 14 22 12 68 -4 69 -23 72 -24 4 0 -26 -7 -56 -17 -70 -9 -14 -17 -32 -17
-42 0 -10 -7 -18 -15 -18 -10 0 -15 -10 -15 -32 0 -40 -16 -71 -24 -48 -3 8
-6 25 -8 38 -5 36 -20 30 -45 -18 -32 -60 -43 -61 -43 -6 0 46 -13 68 -24 40
-3 -9 -6 -26 -6 -39 0 -13 -6 -28 -14 -32 -8 -4 -16 -19 -18 -33 -1 -14 -10
-26 -19 -28 -12 -2 -18 8 -22 40 -3 24 -2 47 4 53 5 5 9 26 9 46 0 21 5 41 10
44 6 3 10 35 10 70 0 35 -4 67 -10 70 -5 3 -10 14 -10 24 0 10 -7 32 -15 47
-8 16 -15 37 -15 46 0 9 -6 29 -14 45 -8 15 -22 48 -31 73 -10 25 -32 74 -50
110 -25 51 -36 65 -53 64 -14 0 -22 5 -22 16 0 10 -7 23 -15 30 -8 7 -15 18
-15 24 0 22 -134 156 -160 159 -40 4 -36 -27 9 -56 22 -15 65 -58 95 -96 31
-38 60 -73 66 -76 5 -3 10 -14 10 -23 0 -9 17 -41 39 -72 21 -30 42 -66 46
-80 4 -14 11 -30 16 -36 5 -6 12 -40 15 -75 7 -74 22 -102 64 -124 24 -12 30
-22 30 -48 0 -18 -5 -38 -11 -44 -5 -5 -13 -37 -16 -69 -3 -32 -10 -63 -17
-69 -19 -17 -36 -59 -35 -85 3 -44 -20 -112 -57 -168 -1 -2 -12 6 -24 18 -23
23 -40 19 -40 -11 0 -12 10 -23 25 -29 15 -6 25 -17 25 -30 0 -11 2 -20 4 -20
3 0 28 25 57 55 38 39 56 51 65 44 8 -6 14 -7 18 0 4 5 2 12 -4 16 -5 3 -10
23 -9 43 l1 37 10 -37 c11 -42 31 -49 48 -18 7 13 21 20 38 20 16 0 34 6 41
13 6 6 24 12 39 12 19 0 32 9 47 32 11 18 26 30 33 28 36 -13 128 97 179 215
29 65 33 86 33 158 0 46 -4 91 -9 101 -6 10 -6 35 1 64 7 36 6 57 -5 90 -8 23
-20 60 -27 82 -21 67 -81 188 -115 230 -17 22 -36 47 -41 56 -20 37 -92 113
-132 140 -48 32 -62 36 -62 15z m120 -1167 c0 -19 -5 -29 -15 -29 -15 0 -22
50 -9 63 12 12 24 -4 24 -34z m-80 18 c0 -7 -7 -22 -15 -33 -14 -18 -14 -17
-15 14 0 22 5 32 15 32 8 0 15 -6 15 -13z"/>
<path d="M12960 9090 c0 -11 5 -20 10 -20 6 0 10 9 10 20 0 11 -4 20 -10 20
-5 0 -10 -9 -10 -20z"/>
<path d="M9013 9071 c7 -14 33 -48 59 -75 27 -27 48 -53 48 -57 0 -5 6 -9 14
-9 16 0 66 -62 66 -82 0 -8 4 -18 9 -23 43 -48 111 -226 111 -291 0 -30 38
-70 52 -56 16 16 11 110 -7 135 -8 12 -15 31 -15 44 0 12 -4 25 -10 28 -5 3
-10 14 -10 25 0 10 -7 20 -15 24 -8 3 -15 15 -15 26 0 32 -28 80 -80 135 -26
28 -77 82 -114 122 -73 77 -114 101 -93 54z"/>
<path d="M8910 9040 c0 -14 140 -154 163 -163 27 -10 21 18 -10 51 -16 16 -35
38 -44 48 -52 60 -109 93 -109 64z"/>
<path d="M12914 9014 c-7 -27 7 -50 25 -40 6 4 11 20 11 37 0 37 -27 40 -36 3z"/>
<path d="M8807 9014 c-3 -3 -3 -12 0 -20 6 -16 158 -167 173 -172 21 -7 9 39
-15 60 -14 12 -25 27 -25 33 0 10 -111 105 -122 105 -3 0 -7 -3 -11 -6z"/>
<path d="M13361 8966 c-12 -18 -21 -41 -21 -50 0 -9 -4 -16 -10 -16 -5 0 -10
-6 -10 -14 0 -8 -7 -16 -15 -20 -15 -6 -22 -56 -7 -56 5 0 16 19 27 43 10 23
31 58 47 78 29 39 34 54 19 63 -5 4 -19 -9 -30 -28z"/>
<path d="M8463 8974 c-7 -20 14 -41 50 -49 23 -6 27 -4 27 13 0 19 -38 52 -60
52 -6 0 -13 -7 -17 -16z"/>
<path d="M8700 8968 c0 -6 27 -36 60 -66 34 -30 67 -67 75 -82 8 -15 23 -30
35 -33 44 -11 11 53 -68 131 -58 57 -102 79 -102 50z"/>
<path d="M12873 8931 c-24 -11 -33 -21 -33 -38 0 -21 4 -23 23 -18 32 10 49
30 45 51 -3 18 -5 18 -35 5z"/>
<path d="M8390 8890 c0 -5 -16 -16 -35 -24 -19 -8 -35 -22 -35 -30 0 -8 -9
-18 -20 -21 -11 -3 -25 -15 -31 -26 -6 -13 -17 -18 -26 -15 -8 3 -26 -3 -40
-14 -14 -11 -37 -20 -50 -20 -38 0 -83 -28 -83 -51 0 -18 4 -20 33 -14 17 3
43 10 57 15 14 5 44 11 67 14 33 5 44 2 51 -11 8 -13 11 -11 17 16 4 20 15 35
28 40 12 5 31 18 41 30 19 21 51 28 58 13 2 -5 22 -12 46 -16 51 -8 56 9 16
58 -41 48 -94 80 -94 56z"/>
<path d="M9090 8835 c0 -7 61 -119 71 -129 5 -6 9 -18 9 -28 0 -9 6 -21 14
-25 13 -8 30 -70 41 -153 5 -39 11 -48 40 -64 36 -20 56 -16 37 7 -6 7 -14 36
-18 65 -4 29 -11 55 -15 58 -5 3 -9 13 -9 22 0 9 -11 40 -25 67 -13 28 -25 57
-25 66 0 9 -6 22 -14 28 -8 7 -17 23 -20 36 -4 14 -20 31 -36 40 -29 15 -50
19 -50 10z"/>
<path d="M12806 8833 c-3 -3 -6 -19 -6 -34 0 -15 -6 -30 -12 -32 -9 -4 -10 -6
-1 -6 17 -1 43 28 43 49 0 20 -13 33 -24 23z"/>
<path d="M9014 8774 c-5 -19 1 -36 24 -67 38 -54 78 -153 94 -231 13 -67 28
-92 52 -83 20 8 20 43 1 81 -8 15 -15 36 -15 45 -1 40 -79 221 -113 259 -26
29 -35 28 -43 -4z"/>
<path d="M8918 8744 c-8 -7 8 -62 24 -81 30 -37 66 -114 78 -168 27 -122 32
-136 53 -144 37 -14 49 30 23 81 -8 15 -17 41 -21 59 -4 19 -11 40 -16 49 -4
8 -29 59 -54 113 -33 70 -50 97 -64 97 -9 0 -20 -3 -23 -6z"/>
<path d="M12683 8675 c-8 -22 6 -33 17 -15 13 20 12 30 0 30 -6 0 -13 -7 -17
-15z"/>
<path d="M8496 8655 c-15 -14 -41 -29 -57 -32 -33 -6 -44 -22 -54 -76 -7 -34
-5 -37 16 -37 13 0 31 5 39 10 12 8 13 13 3 30 -23 37 -17 50 19 39 18 -5 47
-9 65 -9 33 0 55 -23 46 -47 -3 -7 7 -17 21 -23 15 -5 30 -20 35 -33 5 -12 16
-29 26 -37 12 -10 15 -23 11 -45 -5 -23 -1 -39 13 -56 26 -33 18 -81 -12 -77
-14 2 -25 -5 -33 -20 -6 -12 -14 -25 -17 -28 -6 -7 -94 24 -115 39 -17 13 -37
-6 -29 -27 4 -10 18 -16 35 -16 34 0 47 -13 57 -53 9 -35 23 -41 59 -27 20 7
32 7 41 0 22 -18 47 -1 40 27 -5 20 -2 24 12 21 10 -2 19 -12 21 -23 6 -28 21
-45 42 -45 12 0 22 -12 30 -35 19 -57 30 -41 30 43 0 111 -62 282 -173 476
-45 79 -120 106 -171 61z"/>
<path d="M8750 8625 c0 -16 6 -25 15 -25 9 0 15 9 15 25 0 16 -6 25 -15 25 -9
0 -15 -9 -15 -25z"/>
<path d="M10907 8644 c-8 -8 1 -24 14 -24 5 0 9 7 9 15 0 15 -12 20 -23 9z"/>
<path d="M10750 8494 c0 -14 64 -64 77 -60 21 8 15 26 -11 36 -13 5 -27 14
-31 19 -7 12 -35 15 -35 5z"/>
<path d="M8396 8441 c-4 -5 -34 -15 -66 -22 -71 -14 -80 -30 -60 -112 22 -92
6 -239 -28 -252 -8 -3 -35 -3 -59 1 -32 5 -48 2 -61 -9 -9 -8 -34 -19 -56 -23
-26 -4 -40 -13 -44 -26 -2 -10 -28 -30 -58 -44 -29 -14 -56 -29 -59 -34 -6 -9
-68 -40 -122 -60 -17 -7 -39 -20 -49 -31 -9 -10 -23 -19 -30 -19 -7 0 -43 -20
-81 -45 -37 -25 -74 -45 -81 -45 -12 0 -39 -46 -31 -54 8 -8 144 43 155 59 7
9 43 27 81 40 37 13 86 33 108 45 21 11 44 20 50 20 5 0 39 15 75 33 36 18 85
39 110 47 25 7 50 19 56 27 24 28 111 64 169 70 33 3 65 10 72 15 27 21 -7 96
-50 111 -17 6 30 55 57 59 38 5 34 45 -15 141 -11 20 -4 37 15 37 16 0 30 60
17 73 -5 5 -11 4 -15 -2z"/>
<path d="M10850 8420 c0 -13 7 -20 20 -20 24 0 27 25 4 34 -23 9 -24 8 -24
-14z"/>
<path d="M10910 8380 c0 -5 16 -16 35 -25 19 -9 39 -23 46 -31 6 -8 21 -14 32
-14 20 0 20 1 -3 25 -13 14 -31 25 -41 25 -9 0 -19 7 -23 15 -6 16 -46 21 -46
5z"/>
<path d="M8895 8298 c-4 -19 0 -51 9 -76 9 -24 18 -65 22 -93 7 -52 20 -71 35
-48 11 18 1 88 -17 116 -8 12 -14 47 -14 78 0 41 -4 55 -15 55 -8 0 -17 -13
-20 -32z"/>
<path d="M8640 8305 c0 -8 5 -15 10 -15 6 0 10 7 10 15 0 8 -4 15 -10 15 -5 0
-10 -7 -10 -15z"/>
<path d="M11055 8310 c-11 -17 5 -30 46 -36 23 -4 43 -13 46 -20 6 -17 33 -19
33 -3 0 17 -43 48 -67 49 -12 0 -25 5 -28 10 -3 6 -10 10 -15 10 -5 0 -12 -4
-15 -10z"/>
<path d="M13012 8309 c2 -6 8 -10 13 -10 5 0 11 4 13 10 2 6 -4 11 -13 11 -9
0 -15 -5 -13 -11z"/>
<path d="M9104 8265 c-3 -14 -3 -33 1 -42 7 -17 8 -16 15 2 12 28 12 65 0 65
-5 0 -12 -11 -16 -25z"/>
<path d="M9207 8274 c-4 -4 -7 -17 -7 -29 0 -11 -5 -26 -12 -33 -9 -9 -8 -17
2 -37 18 -33 34 -32 27 2 -3 15 -1 38 4 51 9 24 -1 58 -14 46z"/>
<path d="M12060 8245 c-21 -25 13 -29 51 -6 l34 21 -36 0 c-20 0 -42 -7 -49
-15z"/>
<path d="M11760 8195 c0 -17 2 -18 24 -9 18 7 12 24 -10 24 -8 0 -14 -7 -14
-15z"/>
<path d="M11223 8188 c-16 -22 -36 -140 -34 -203 2 -54 25 -151 40 -166 3 -4
18 -9 32 -13 l27 -6 -4 86 c-4 80 -3 86 16 91 16 4 20 14 20 43 0 48 -8 70
-26 70 -21 0 -17 14 9 25 31 14 31 61 0 58 -11 -1 -27 4 -33 12 -15 18 -34 19
-47 3z"/>
<path d="M11431 8096 c-10 -12 -8 -19 8 -35 l21 -21 -22 -56 c-18 -47 -20 -61
-10 -88 18 -49 15 -74 -13 -102 l-26 -26 19 -33 c18 -29 19 -42 11 -121 -4
-49 -14 -219 -20 -379 -16 -358 -17 -376 -28 -500 -6 -55 -17 -174 -25 -265
-9 -91 -20 -201 -25 -245 -5 -44 -7 -84 -4 -88 3 -5 0 -34 -6 -65 -6 -32 -16
-120 -22 -197 -6 -77 -15 -176 -19 -220 -5 -44 -13 -138 -19 -210 -6 -71 -15
-157 -21 -190 -6 -33 -14 -100 -19 -150 -10 -114 -54 -226 -92 -235 -39 -10
-31 -42 16 -59 22 -8 41 -18 43 -22 7 -16 79 80 91 121 7 25 19 61 27 80 7 19
16 64 19 100 4 36 15 108 26 160 12 57 17 110 13 132 -4 29 -2 39 10 44 19 7
21 47 4 111 -8 35 -8 57 1 94 7 27 15 105 17 174 2 69 8 134 14 145 6 12 8 30
5 41 -5 14 0 28 15 44 21 22 21 24 4 50 -15 22 -15 30 -5 47 11 18 16 79 26
318 2 47 7 99 10 117 3 19 0 41 -7 52 -11 18 -10 23 11 37 20 14 22 22 17 63
-12 101 -11 106 4 106 22 0 32 22 20 44 -17 33 -13 394 5 421 6 9 11 135 12
315 1 165 5 318 10 340 8 39 10 40 51 41 30 0 43 -4 46 -15 15 -49 -2 -707
-18 -741 -8 -16 -10 -37 -5 -60 5 -19 6 -95 4 -168 -3 -110 -7 -136 -20 -146
-15 -10 -15 -14 -2 -24 15 -13 15 -43 2 -247 -4 -60 -11 -128 -17 -149 -7 -28
-6 -45 2 -62 10 -17 10 -36 0 -86 -7 -34 -14 -122 -15 -193 -3 -151 -11 -209
-31 -226 -18 -14 -20 -159 -3 -176 9 -9 9 -19 0 -40 -6 -16 -10 -71 -8 -131 1
-57 -1 -106 -6 -109 -4 -2 -5 -13 -2 -23 3 -10 1 -47 -4 -81 -6 -35 -13 -111
-16 -169 -11 -179 -15 -192 -54 -203 -24 -6 -31 -11 -23 -19 6 -6 22 -12 34
-13 15 -1 24 -9 26 -22 4 -25 28 -37 39 -20 4 7 8 50 8 96 0 76 2 84 21 92 30
10 43 103 19 129 -16 17 -16 20 3 35 16 15 18 26 14 91 -3 51 -1 74 7 74 6 0
11 11 11 25 0 14 -5 25 -10 25 -14 0 -7 169 8 196 5 10 9 62 8 114 -1 62 3
100 11 110 8 11 14 87 17 253 3 131 7 241 10 246 3 4 10 106 17 227 6 120 15
282 21 359 5 77 10 213 11 302 2 89 6 165 10 169 4 4 7 44 7 90 0 59 -4 83
-13 87 -11 4 -13 37 -12 154 3 164 9 209 36 238 9 11 21 32 24 47 8 30 11 29
-105 49 -36 6 -80 17 -99 25 -43 18 -85 18 -100 0z m109 -2923 c0 -5 -5 -15
-10 -23 -7 -11 -12 -12 -21 -3 -6 6 -8 16 -5 22 8 12 36 15 36 4z m0 -69 c0
-8 -7 -14 -15 -14 -15 0 -21 21 -9 33 10 9 24 -2 24 -19z"/>
<path d="M8475 8059 c-4 -5 -18 -14 -31 -19 -13 -5 -24 -14 -24 -19 0 -15 70
-32 89 -21 9 5 26 8 36 7 16 -2 21 5 23 31 3 32 3 32 -42 32 -25 0 -48 -5 -51
-11z"/>
<path d="M7693 8023 c-25 -10 -12 -24 19 -21 37 4 52 28 16 27 -12 0 -29 -3
-35 -6z"/>
<path d="M8597 7967 c-3 -8 -1 -20 4 -28 11 -19 32 2 23 24 -7 20 -20 22 -27
4z"/>
<path d="M11845 7950 c3 -5 17 -10 30 -10 13 0 27 5 30 10 4 6 -8 10 -30 10
-22 0 -34 -4 -30 -10z"/>
<path d="M12050 7928 c-41 -4 -109 -9 -152 -11 -42 -1 -79 -5 -83 -9 -11 -11
6 -89 21 -95 8 -3 21 0 29 7 11 9 33 11 75 6 42 -5 60 -4 60 4 0 7 -9 14 -20
17 -26 7 -26 23 0 23 12 0 26 -12 35 -30 17 -32 51 -41 61 -15 4 8 16 15 28
15 11 0 38 5 59 11 28 7 37 15 33 25 -3 9 -2 24 4 34 8 14 5 19 -13 24 -25 6
-32 6 -137 -6z"/>
<path d="M12366 7902 c-23 -38 -49 -180 -61 -342 -24 -335 -27 -537 -16 -1190
20 -1130 19 -1120 40 -1155 10 -16 24 -46 30 -66 6 -20 25 -51 42 -70 17 -19
33 -47 36 -62 4 -17 17 -34 34 -43 16 -8 36 -25 44 -38 9 -13 27 -27 40 -30
21 -5 24 -11 19 -35 -3 -16 -1 -38 5 -49 19 -36 1 -79 -69 -159 -64 -75 -90
-125 -71 -137 5 -4 16 1 24 9 9 8 19 15 22 15 17 0 89 66 111 102 14 22 28 62
31 91 3 29 9 57 13 62 17 22 5 103 -17 127 -13 14 -23 31 -23 40 0 9 -7 22
-16 29 -24 20 -124 218 -124 246 0 7 -8 39 -19 71 -16 48 -20 101 -25 332 -3
151 -9 392 -12 535 -3 143 -9 298 -13 345 -12 138 -13 596 -2 715 6 61 13 173
16 250 3 77 10 190 16 250 12 122 4 165 -30 165 -11 0 -22 -4 -25 -8z"/>
<path d="M8605 7882 c-16 -8 -41 -26 -55 -39 -27 -25 -36 -28 -45 -13 -11 18
-54 11 -65 -10 -14 -27 12 -78 45 -86 14 -3 42 1 65 10 22 9 44 15 48 14 4 -1
28 6 55 16 45 18 59 37 36 51 -6 4 -8 14 -4 22 18 48 -22 65 -80 35z"/>
<path d="M3789 7844 l-45 -33 -18 -123 c-25 -181 -25 -179 -76 -204 -85 -42
-113 -54 -124 -54 -6 0 -36 -13 -66 -30 -30 -16 -65 -29 -76 -30 -12 0 -27 -7
-34 -15 -7 -8 -20 -15 -29 -15 -10 0 -26 -7 -37 -15 -10 -8 -25 -15 -33 -15
-8 0 -58 -20 -112 -45 -53 -24 -118 -49 -144 -55 -26 -6 -63 -19 -83 -29 -32
-16 -67 -19 -237 -21 -110 -2 -218 -4 -240 -5 -116 -6 -236 -6 -286 0 -47 6
-57 5 -62 -9 -4 -9 -12 -16 -20 -16 -22 0 -54 -41 -76 -98 -25 -62 -26 -106
-6 -146 8 -15 15 -36 15 -45 1 -34 39 -94 99 -156 34 -36 64 -65 66 -65 2 0
31 -18 64 -40 33 -22 71 -45 83 -51 13 -5 43 -21 68 -34 25 -13 55 -24 67 -24
12 -1 24 -5 27 -10 3 -5 39 -18 78 -30 40 -12 87 -25 104 -31 17 -5 41 -10 55
-10 13 0 38 -7 54 -16 19 -10 72 -19 140 -24 61 -5 157 -16 215 -26 83 -14
168 -17 400 -18 303 -1 365 5 437 42 37 19 36 13 58 217 9 77 20 152 26 167 8
19 32 37 84 62 41 20 76 36 79 36 2 0 49 21 103 46 54 26 127 60 163 77 36 17
72 34 80 39 8 4 22 11 30 14 8 4 42 19 75 35 113 52 140 57 315 59 338 2 656
23 680 45 9 8 22 15 28 15 6 0 18 7 26 16 37 36 -22 221 -97 305 -28 32 -51
49 -142 107 -17 10 -54 28 -155 75 -14 6 -32 16 -40 23 -8 6 -46 19 -85 29
-38 10 -79 24 -90 32 -11 7 -31 13 -45 13 -14 0 -47 7 -74 15 -27 8 -65 15
-84 15 -19 0 -55 7 -81 15 -80 25 -364 55 -586 61 -88 2 -212 6 -275 8 l-116
4 -45 -34z m99 -64 c23 6 57 8 75 5 17 -3 88 -7 157 -10 330 -12 406 -16 420
-22 8 -3 51 -7 95 -8 47 -1 96 -9 119 -19 21 -9 49 -16 61 -16 12 0 28 -7 35
-15 12 -14 15 -14 31 1 21 19 39 11 40 -19 1 -20 2 -20 6 -2 8 33 21 40 41 22
11 -10 26 -15 35 -11 11 4 19 0 23 -10 8 -20 30 -21 38 0 3 8 11 12 17 9 6 -4
8 -13 6 -19 -3 -7 -1 -19 3 -26 7 -11 11 -11 24 -1 20 16 46 7 46 -16 0 -13 3
-14 12 -5 18 18 35 14 41 -9 4 -15 11 -19 26 -14 14 4 23 0 31 -15 12 -23 30
-27 30 -6 0 15 37 32 48 22 3 -3 -3 -13 -14 -20 -16 -12 -17 -17 -6 -28 11
-11 16 -10 28 7 14 18 16 19 42 3 15 -9 28 -25 30 -36 2 -13 14 -22 32 -26 31
-6 89 -60 133 -123 19 -27 27 -53 29 -93 3 -52 2 -55 -27 -69 -33 -16 -268
-24 -296 -10 -9 5 -21 3 -27 -3 -8 -8 -84 -13 -221 -15 -174 -3 -220 -7 -268
-23 -104 -34 -144 -50 -168 -66 -18 -12 -28 -13 -44 -5 -25 14 -41 14 -41 1 0
-5 11 -10 25 -10 25 0 34 -14 16 -24 -15 -10 -54 -10 -81 -1 -22 7 -23 6 -12
-7 10 -13 10 -17 -4 -22 -8 -3 -24 -6 -33 -6 -24 0 -81 -29 -81 -41 0 -5 -11
-9 -24 -9 -13 0 -26 -7 -30 -15 -3 -8 -13 -15 -23 -15 -22 0 -83 -36 -100 -59
-10 -13 -15 -14 -32 -3 -21 12 -81 17 -81 6 0 -4 8 -13 18 -20 14 -10 15 -15
4 -26 -10 -10 -17 -10 -32 0 -11 6 -25 12 -32 12 -10 0 -10 -2 0 -9 20 -12 11
-44 -15 -56 -34 -15 -73 -158 -73 -267 0 -27 -7 -59 -15 -72 -9 -13 -14 -30
-13 -37 3 -15 -26 -24 -49 -15 -12 5 -13 9 -3 21 10 12 9 15 -4 15 -10 0 -22
-13 -28 -30 l-10 -31 -177 6 c-312 11 -355 13 -431 20 -41 4 -88 13 -105 20
-16 7 -73 16 -125 19 -52 4 -100 12 -108 18 -7 6 -30 12 -50 13 -20 0 -63 2
-94 3 -34 1 -62 8 -72 17 -8 8 -29 15 -47 15 -38 0 -107 19 -134 37 -11 7 -32
13 -47 13 -22 0 -31 7 -39 28 -10 25 -11 26 -24 8 -8 -10 -18 -15 -24 -11 -16
9 -13 23 7 29 9 2 1 2 -18 0 -27 -4 -40 -1 -54 15 -11 12 -25 21 -33 21 -7 0
-13 7 -13 15 0 8 -16 25 -37 39 -62 43 -145 168 -129 195 4 6 2 20 -5 32 -9
17 -7 33 6 75 9 30 20 56 24 59 4 2 122 6 262 9 140 3 278 10 308 17 30 6 74
9 99 6 25 -3 70 1 99 9 30 8 77 14 105 14 41 0 49 3 40 12 -16 16 -15 28 3 28
8 0 15 -4 15 -10 0 -16 30 -12 36 5 4 10 20 15 48 16 22 0 50 4 61 9 18 7 18
8 -7 15 -46 12 -20 28 36 22 44 -5 49 -4 33 7 -23 18 -6 30 29 22 33 -9 138
41 153 72 13 27 36 28 58 2 25 -28 36 -25 30 9 -5 25 -3 29 21 34 15 3 36 0
46 -5 16 -9 22 -7 31 7 5 9 17 27 27 39 15 20 17 20 35 3 31 -27 60 -18 32 10
-15 15 -3 33 22 33 12 0 24 11 31 28 7 15 19 35 27 46 11 13 16 40 16 95 0 42
6 90 12 106 7 17 15 43 18 59 5 26 7 27 19 11 10 -15 18 -15 54 -5z"/>
<path d="M4650 7573 c-47 -2 -89 -8 -94 -13 -6 -6 -18 -10 -27 -10 -10 0 -24
-6 -32 -14 -7 -8 -24 -16 -37 -18 -13 -1 -25 -9 -28 -16 -7 -21 81 -5 153 27
49 21 74 26 133 24 51 -1 72 2 69 10 -4 14 -19 15 -137 10z"/>
<path d="M4811 7541 c-20 -13 -1 -19 43 -13 26 3 34 7 25 13 -18 11 -50 11
-68 0z"/>
<path d="M5366 7512 c-3 -6 -1 -14 5 -17 15 -10 25 3 12 16 -7 7 -13 7 -17 1z"/>
<path d="M4605 7450 c-3 -5 5 -12 18 -15 35 -9 80 -2 85 13 5 15 -93 17 -103
2z"/>
<path d="M4344 7419 c-12 -20 16 -33 63 -31 39 1 52 -3 74 -24 21 -21 31 -24
45 -16 17 9 16 12 -11 23 -17 7 -43 24 -58 36 -30 25 -100 32 -113 12z"/>
<path d="M4180 7394 c-25 -14 -46 -29 -48 -34 -6 -16 44 -11 58 5 8 9 30 15
60 15 32 0 50 5 53 14 3 8 3 17 0 20 -14 14 -81 3 -123 -20z"/>
<path d="M4305 7320 c-11 -5 -33 -11 -48 -15 -25 -5 -27 -8 -16 -21 10 -12 24
-14 58 -9 55 8 69 19 51 40 -14 17 -17 17 -45 5z"/>
<path d="M3935 7274 c-62 -13 -105 -28 -105 -35 0 -14 65 -10 96 6 16 8 42 15
57 15 16 0 26 4 22 10 -6 10 -32 11 -70 4z"/>
<path d="M3603 7253 c-20 -7 -15 -23 7 -23 11 0 20 4 20 9 0 13 -12 19 -27 14z"/>
<path d="M4040 7240 c0 -5 7 -10 15 -10 8 0 15 5 15 10 0 6 -7 10 -15 10 -8 0
-15 -4 -15 -10z"/>
<path d="M4110 7231 c0 -15 42 -41 67 -41 28 0 29 11 5 33 -20 18 -72 23 -72
8z"/>
<path d="M3740 7221 c0 -5 11 -12 24 -15 13 -3 31 -9 40 -12 10 -4 16 -1 16 9
0 8 -7 18 -16 21 -24 9 -64 7 -64 -3z"/>
<path d="M3903 7163 c-7 -3 -13 -11 -13 -19 0 -10 12 -14 39 -14 22 0 44 -6
51 -15 14 -16 50 -21 50 -6 0 5 -10 13 -22 17 -13 3 -30 12 -38 19 -18 15 -50
23 -67 18z"/>
<path d="M3575 7127 c-40 -16 -55 -26 -55 -38 0 -15 47 -10 61 7 19 23 109 12
173 -21 65 -33 96 -33 63 0 -47 47 -182 76 -242 52z"/>
<path d="M3411 7062 c-6 -2 -9 -8 -5 -13 8 -14 60 -11 72 4 9 10 4 13 -22 13
-18 0 -38 -2 -45 -4z"/>
<path d="M3635 7017 c-11 -7 -35 -12 -54 -12 -49 0 -50 -22 -2 -36 38 -11 42
-10 75 17 19 16 35 32 35 37 1 11 -32 8 -54 -6z"/>
<path d="M2127 6991 c-5 -22 1 -33 14 -25 12 7 12 44 0 44 -5 0 -11 -9 -14
-19z"/>
<path d="M3249 6984 c-11 -13 -7 -15 36 -12 27 2 50 8 53 16 6 18 -72 16 -89
-4z"/>
<path d="M3017 6868 l-22 -19 45 7 c49 8 94 7 153 -2 37 -6 72 9 62 27 -3 4
-53 8 -110 7 -90 0 -109 -3 -128 -20z"/>
<path d="M2840 6786 c0 -9 18 -16 53 -20 28 -3 69 -9 90 -12 47 -8 49 8 3 30
-43 20 -146 22 -146 2z"/>
<path d="M6917 7805 c-8 -7 -28 -17 -43 -21 -16 -4 -38 -15 -49 -25 -11 -9
-38 -21 -60 -24 -22 -4 -47 -13 -55 -20 -8 -6 -23 -15 -33 -18 -10 -4 -17 -13
-14 -20 7 -22 68 -10 114 22 24 17 50 31 58 31 25 0 104 55 105 73 0 21 -4 21
-23 2z"/>
<path d="M8776 7715 c-24 -31 -25 -36 -10 -42 27 -10 69 19 69 47 0 38 -28 35
-59 -5z"/>
<path d="M3003 7673 c-18 -2 -33 -8 -33 -12 0 -12 83 -23 105 -15 17 7 17 8
-1 21 -10 7 -23 12 -28 11 -6 0 -26 -3 -43 -5z"/>
<path d="M6525 7635 c-30 -29 -32 -45 -6 -45 21 0 82 29 93 45 24 33 -54 34
-87 0z"/>
<path d="M7390 7640 c-8 -6 -41 -21 -72 -34 -32 -14 -58 -30 -58 -35 0 -6 -15
-11 -34 -11 -18 0 -39 -7 -46 -15 -7 -8 -17 -15 -22 -15 -5 0 -41 -16 -81 -35
-39 -19 -82 -35 -95 -35 -15 0 -26 -7 -29 -20 -3 -11 -13 -20 -23 -20 -10 0
-23 -7 -30 -15 -7 -8 -21 -15 -32 -15 -11 0 -33 -11 -49 -25 -16 -13 -36 -22
-44 -19 -8 3 -26 -4 -41 -15 -15 -12 -36 -21 -48 -21 -12 0 -27 -9 -34 -21
-10 -16 -20 -20 -40 -16 -48 10 -162 -44 -162 -76 0 -18 34 -36 67 -37 24 0
38 8 56 32 22 27 28 30 41 18 14 -11 19 -10 34 4 10 9 26 16 35 16 9 0 24 11
32 24 10 14 35 30 62 38 28 8 49 21 55 34 7 14 16 20 28 17 12 -3 22 3 30 17
8 14 17 19 30 15 12 -4 23 1 33 15 12 18 15 18 20 5 10 -23 26 -18 38 13 10
26 11 26 25 8 15 -21 16 -21 33 12 9 17 16 20 28 14 20 -12 73 7 91 31 7 9 19
17 26 17 7 0 21 9 31 20 16 18 20 19 35 5 15 -14 18 -13 28 10 6 14 18 25 27
25 8 0 22 11 31 25 9 14 26 25 38 25 11 0 27 4 35 9 12 8 12 12 2 25 -15 18
-29 19 -51 6z m-899 -433 c-1 -12 -15 -9 -19 4 -3 6 1 10 8 8 6 -3 11 -8 11
-12z"/>
<path d="M3120 7625 c0 -17 2 -18 24 -9 18 7 12 24 -10 24 -8 0 -14 -7 -14
-15z"/>
<path d="M2840 7591 c-35 -14 -47 -25 -55 -50 -5 -17 -12 -31 -16 -31 -4 0
-15 -7 -24 -16 -12 -12 -13 -19 -4 -30 20 -24 39 -16 39 15 0 31 1 31 115 47
93 14 102 85 10 83 -11 0 -40 -8 -65 -18z"/>
<path d="M8728 7585 c-8 -18 -8 -29 -1 -36 17 -17 53 7 53 36 0 34 -36 34 -52
0z"/>
<path d="M3126 7558 c-14 -69 -16 -97 -6 -103 24 -15 98 81 86 111 -3 8 -19
14 -40 14 -29 0 -37 -4 -40 -22z"/>
<path d="M8642 7479 c-47 -52 -56 -69 -36 -76 15 -5 117 105 109 117 -11 18
-26 10 -73 -41z"/>
<path d="M2993 7483 c-18 -6 -16 -28 2 -43 22 -18 73 4 56 24 -13 16 -41 25
-58 19z"/>
<path d="M8000 7458 c-41 -11 -82 -25 -90 -33 -8 -7 -42 -18 -75 -25 -62 -12
-154 -55 -168 -78 -5 -7 -17 -10 -27 -7 -12 4 -49 -8 -92 -28 -92 -43 -135
-58 -153 -51 -7 3 -18 -3 -24 -15 -8 -13 -26 -22 -57 -27 -25 -3 -57 -16 -72
-28 -15 -13 -54 -33 -87 -45 -33 -12 -67 -27 -75 -32 -21 -13 -22 -13 -140
-50 -58 -18 -111 -38 -118 -45 -7 -7 -28 -16 -47 -20 -19 -3 -39 -12 -46 -20
-6 -8 -18 -14 -26 -14 -8 0 -21 -7 -30 -15 -8 -8 -18 -13 -23 -10 -4 3 -13 -2
-20 -10 -7 -8 -18 -15 -25 -15 -7 0 -15 -7 -19 -15 -3 -8 -15 -15 -26 -15 -11
0 -20 -6 -20 -14 0 -9 13 -13 40 -13 22 0 40 3 40 7 0 9 75 50 91 50 5 0 23
14 40 31 19 19 36 29 46 25 9 -4 24 1 34 10 10 9 22 13 28 10 6 -4 27 4 48 17
21 13 49 27 63 30 132 32 177 48 192 71 4 6 21 9 38 8 18 -2 39 3 48 11 9 8
26 17 37 19 11 2 24 13 29 25 7 15 19 21 42 21 18 0 51 3 73 7 42 7 214 86
243 112 13 11 29 14 56 9 33 -5 42 -2 60 18 13 16 36 27 66 31 26 4 49 11 52
16 3 5 15 9 28 9 13 0 31 9 41 20 11 12 31 20 51 20 25 0 38 7 50 26 10 14 13
28 8 33 -5 5 -43 -1 -84 -11z"/>
<path d="M7373 7435 c-3 -9 -2 -19 1 -23 8 -8 38 10 44 26 6 18 -38 14 -45 -3z"/>
<path d="M8533 7423 c-17 -6 -16 -43 1 -43 18 0 39 27 31 40 -7 11 -13 11 -32
3z"/>
<path d="M8140 7401 c-30 -8 -38 -36 -13 -49 60 -32 220 -53 252 -33 19 12 5
30 -19 24 -10 -3 -39 4 -63 16 -24 12 -50 21 -58 21 -8 0 -23 7 -33 15 -21 16
-28 17 -66 6z"/>
<path d="M7243 7381 c-24 -9 -48 -22 -55 -29 -7 -7 -22 -12 -34 -12 -13 0 -26
-4 -29 -10 -3 -5 -25 -14 -48 -20 -81 -21 -197 -87 -197 -112 0 -19 45 -6 77
22 18 17 44 30 56 30 13 0 48 9 80 20 31 11 63 20 70 20 8 0 22 9 32 20 11 12
37 22 67 26 34 5 52 13 59 27 8 15 8 22 -2 28 -18 11 -26 10 -76 -10z"/>
<path d="M5886 7331 c-4 -5 -9 -45 -11 -89 -5 -69 -3 -81 14 -96 19 -17 20
-17 26 16 16 85 -5 208 -29 169z"/>
<path d="M11512 7170 c-1 -29 3 -48 9 -45 12 8 12 95 0 95 -5 0 -9 -23 -9 -50z"/>
<path d="M6840 7195 c0 -9 5 -15 11 -13 6 2 11 8 11 13 0 5 -5 11 -11 13 -6 2
-11 -4 -11 -13z"/>
<path d="M6745 7168 c-16 -6 -48 -24 -69 -39 -22 -16 -48 -29 -58 -29 -9 0
-39 -13 -65 -30 -26 -16 -52 -30 -59 -30 -15 0 -44 -27 -44 -41 0 -14 49 -11
78 6 15 8 56 28 92 45 36 17 74 39 85 49 11 10 36 21 56 25 39 7 65 28 54 46
-8 12 -30 12 -70 -2z"/>
<path d="M1906 7152 c-3 -6 -1 -14 5 -17 15 -10 25 3 12 16 -7 7 -13 7 -17 1z"/>
<path d="M5870 7085 c0 -14 5 -25 10 -25 6 0 10 11 10 25 0 14 -4 25 -10 25
-5 0 -10 -11 -10 -25z"/>
<path d="M5807 7064 c-8 -8 1 -24 14 -24 5 0 9 7 9 15 0 15 -12 20 -23 9z"/>
<path d="M5965 7060 c-4 -6 -3 -16 3 -22 6 -6 12 -6 17 2 4 6 3 16 -3 22 -6 6
-12 6 -17 -2z"/>
<path d="M11195 7010 c-9 -39 4 -98 16 -79 12 19 11 109 0 109 -5 0 -12 -13
-16 -30z"/>
<path d="M5936 7004 c-9 -22 -8 -24 9 -24 8 0 15 9 15 20 0 24 -15 27 -24 4z"/>
<path d="M5784 6976 c-4 -9 -4 -20 0 -23 3 -4 12 -1 18 5 9 9 9 15 0 24 -9 9
-13 7 -18 -6z"/>
<path d="M4680 6973 c-13 -3 -33 -11 -44 -19 -11 -8 -35 -14 -53 -14 -18 0
-33 -5 -33 -10 0 -14 83 -5 88 9 2 6 21 11 42 11 46 0 72 9 64 21 -5 9 -21 10
-64 2z"/>
<path d="M5893 6952 c-75 -86 -209 -212 -222 -212 -4 0 -20 -13 -36 -30 -16
-16 -32 -30 -37 -30 -4 0 -35 -19 -68 -42 -34 -24 -69 -47 -78 -53 -9 -5 -21
-16 -25 -22 -4 -7 -18 -13 -30 -13 -32 0 -85 -45 -71 -60 8 -8 24 -1 59 26 43
32 51 35 69 24 17 -11 22 -9 37 9 9 11 21 21 27 21 5 0 17 9 27 20 19 21 55
27 55 9 0 -6 12 -9 28 -7 17 2 27 9 27 19 0 23 24 49 46 49 22 0 26 29 7 48
-6 6 -8 15 -3 19 4 5 10 2 12 -4 9 -24 28 -13 80 42 33 34 50 61 47 70 -4 10
0 15 14 15 11 0 27 11 36 25 9 14 24 25 32 25 11 0 14 5 10 16 -3 9 -6 24 -6
35 0 24 -15 24 -37 1z m-253 -322 c0 -5 -7 -10 -15 -10 -8 0 -15 5 -15 10 0 6
7 10 15 10 8 0 15 -4 15 -10z"/>
<path d="M5962 6954 c4 -21 22 -23 26 -1 2 10 -3 17 -13 17 -10 0 -15 -6 -13
-16z"/>
<path d="M5250 6896 c0 -7 11 -30 25 -50 33 -49 34 -106 1 -140 -13 -15 -29
-26 -36 -26 -7 0 -22 -10 -34 -22 -12 -13 -32 -31 -46 -40 l-25 -17 41 0 c28
-1 44 4 48 14 3 8 15 15 26 15 14 0 20 7 20 21 0 12 8 23 20 26 11 3 20 10 20
15 0 5 11 24 25 42 14 18 25 46 25 62 0 29 -32 92 -54 106 -19 13 -56 9 -56
-6z"/>
<path d="M4913 6894 c-20 -9 -15 -23 11 -35 13 -6 26 -19 29 -29 3 -13 18 -18
58 -22 30 -2 70 -12 89 -21 26 -14 35 -15 42 -5 17 28 6 47 -44 78 -41 25 -66
33 -113 36 -33 2 -66 1 -72 -2z"/>
<path d="M4826 6824 c-9 -8 -16 -22 -16 -29 0 -8 -4 -17 -10 -20 -9 -6 -95 18
-133 37 -24 12 -34 -16 -17 -47 16 -30 1 -52 -36 -57 -47 -6 -29 -23 29 -28
57 -5 78 -18 90 -54 3 -8 11 -7 30 1 29 13 38 57 15 66 -7 2 -9 8 -5 13 4 5
12 2 16 -5 6 -9 14 -11 26 -4 12 7 31 5 64 -7 25 -9 61 -20 79 -23 31 -6 33
-5 26 16 -13 41 -10 52 16 55 14 2 32 5 40 8 25 10 -30 26 -65 20 -33 -6 -71
16 -60 34 20 33 -59 55 -89 24z"/>
<path d="M11905 6827 c-4 -10 -5 -21 -1 -24 10 -10 18 4 13 24 -4 17 -4 17
-12 0z"/>
<path d="M4453 6823 c-7 -2 -13 -13 -13 -23 0 -11 -9 -24 -21 -30 -24 -13 -22
-48 3 -64 23 -14 29 -5 35 49 5 37 10 46 29 51 13 3 21 10 18 15 -6 10 -31 11
-51 2z"/>
<path d="M5873 6798 c4 -15 -2 -29 -20 -46 -21 -19 -23 -26 -12 -33 18 -11 29
1 46 48 16 49 16 53 -3 53 -12 0 -15 -6 -11 -22z"/>
<path d="M4307 6715 c-16 -22 -16 -28 -3 -60 8 -19 21 -35 29 -35 8 0 22 -9
32 -20 19 -21 65 -27 65 -9 0 7 -15 27 -34 45 -19 19 -40 49 -47 69 -7 19 -15
35 -19 35 -3 0 -13 -12 -23 -25z"/>
<path d="M6110 6665 c0 -15 -6 -25 -14 -25 -7 0 -17 -10 -20 -22 -6 -22 -7
-22 -20 -5 -7 9 -18 17 -25 17 -14 0 -14 -33 0 -47 6 -6 8 -17 4 -24 -6 -9
-12 -7 -22 7 -19 26 -49 6 -46 -30 1 -16 -3 -26 -11 -26 -8 0 -19 -7 -26 -15
-7 -8 -28 -17 -49 -21 -58 -9 -72 -15 -65 -25 3 -6 3 -21 0 -34 -6 -24 -44
-43 -73 -37 -16 3 -93 -74 -93 -93 0 -20 25 -19 58 4 15 10 56 37 92 60 36 22
79 50 95 61 17 11 48 33 71 48 78 52 87 60 81 76 -4 10 -1 16 8 16 18 0 19
-23 3 -50 -7 -10 -10 -22 -6 -25 7 -7 58 38 58 52 0 5 9 18 21 29 24 22 59 90
59 116 0 25 -18 23 -22 -3 -2 -12 -14 -26 -27 -31 -20 -7 -22 -6 -11 7 13 16
7 45 -10 45 -5 0 -10 -11 -10 -25z"/>
<path d="M4450 6655 c0 -9 6 -12 15 -9 8 4 15 10 15 15 0 5 -7 9 -15 9 -8 0
-15 -7 -15 -15z"/>
<path d="M11550 6649 c0 -11 5 -17 10 -14 6 3 10 13 10 21 0 8 -4 14 -10 14
-5 0 -10 -9 -10 -21z"/>
<path d="M4490 6637 c0 -12 38 -27 71 -27 19 0 8 18 -13 23 -13 2 -31 8 -40
12 -13 5 -18 3 -18 -8z"/>
<path d="M11158 6535 c-3 -66 -2 -127 3 -135 6 -12 9 -9 10 10 1 14 3 52 5 85
2 33 0 83 -4 110 -7 44 -9 35 -14 -70z"/>
<path d="M5037 6593 c-15 -15 -6 -33 17 -33 35 0 56 10 56 26 0 14 -60 20 -73
7z"/>
<path d="M4950 6555 c0 -10 11 -15 35 -15 36 0 47 13 19 24 -28 11 -54 6 -54
-9z"/>
<path d="M1640 6506 c0 -8 5 -18 10 -21 6 -3 10 3 10 14 0 12 -4 21 -10 21 -5
0 -10 -6 -10 -14z"/>
<path d="M5271 6486 c-6 -7 -31 -16 -56 -19 -24 -4 -53 -11 -62 -16 -50 -27
-306 -112 -416 -137 -213 -50 -341 -77 -401 -85 -38 -5 -76 -14 -86 -19 -9 -5
-63 -12 -121 -16 -62 -4 -108 -12 -114 -19 -5 -7 -46 -15 -90 -19 -44 -3 -102
-14 -129 -25 l-49 -18 46 -7 c28 -4 54 -3 67 4 11 6 25 8 31 5 5 -4 15 -2 22
3 7 5 31 10 54 10 22 1 58 5 80 10 21 6 87 16 147 23 99 11 109 11 118 -4 5
-10 16 -17 25 -17 11 0 14 6 9 26 -7 26 -7 26 39 19 35 -5 52 -2 71 10 20 13
39 15 89 10 43 -5 65 -3 70 4 4 7 15 9 24 6 10 -3 24 1 31 10 7 8 19 15 27 15
8 0 33 9 55 20 45 21 108 27 108 9 0 -6 14 -9 33 -7 41 4 38 21 -5 29 -25 4
-29 7 -17 13 21 9 103 10 152 1 43 -8 67 7 87 55 11 27 47 47 95 54 7 1 21 8
30 16 13 11 21 11 36 2 16 -10 20 -10 25 5 3 10 9 25 14 34 15 29 -17 41 -39
15z m-213 -128 c-6 -18 -28 -21 -28 -4 0 9 7 16 16 16 9 0 14 -5 12 -12z"/>
<path d="M2120 6455 c0 -8 5 -15 10 -15 6 0 10 7 10 15 0 8 -4 15 -10 15 -5 0
-10 -7 -10 -15z"/>
<path d="M2205 6450 c-3 -5 -17 -10 -31 -10 -13 0 -24 -4 -24 -10 0 -5 11 -10
25 -10 14 0 39 -10 55 -21 17 -13 35 -19 46 -15 20 8 9 22 -21 28 -14 3 -19
11 -18 26 3 23 -20 31 -32 12z"/>
<path d="M5750 6439 c0 -24 23 -21 28 4 2 10 -3 17 -12 17 -10 0 -16 -9 -16
-21z"/>
<path d="M2302 6383 c2 -9 17 -20 33 -25 17 -5 39 -13 50 -18 96 -42 122 -50
155 -50 21 0 57 -7 80 -15 24 -8 59 -16 79 -18 20 -1 41 -7 48 -13 14 -13 181
-28 206 -18 10 4 25 0 35 -9 12 -11 51 -17 142 -21 69 -4 152 -9 185 -11 57
-4 215 7 335 23 l55 8 -65 7 c-36 3 -155 9 -265 11 -110 3 -254 13 -320 22
-66 10 -140 18 -165 19 -25 0 -52 4 -60 8 -25 10 -182 40 -240 44 -30 3 -60 9
-65 14 -6 4 -30 11 -52 15 -23 3 -44 13 -47 21 -5 12 -16 14 -50 9 -27 -4 -47
-3 -51 4 -10 16 -27 12 -23 -7z"/>
<path d="M1527 6384 c-9 -9 4 -34 18 -34 7 0 15 -9 18 -21 7 -25 40 -22 45 4
3 12 -3 17 -22 17 -19 0 -26 5 -26 20 0 19 -19 27 -33 14z"/>
<path d="M2101 6371 c-12 -8 -10 -12 11 -22 15 -6 35 -8 45 -5 17 7 17 8 -1
22 -23 16 -35 17 -55 5z"/>
<path d="M11132 6345 c2 -14 8 -26 13 -26 6 0 11 12 13 26 2 18 -1 25 -13 25
-12 0 -15 -7 -13 -25z"/>
<path d="M2240 6300 c0 -5 9 -10 19 -10 11 0 23 5 26 10 4 6 -5 10 -19 10 -14
0 -26 -4 -26 -10z"/>
<path d="M5847 6293 c-13 -12 -7 -33 8 -33 8 0 15 9 15 20 0 20 -11 26 -23 13z"/>
<path d="M2203 6269 c14 -8 22 -8 30 0 8 8 3 11 -18 11 -26 -1 -28 -2 -12 -11z"/>
<path d="M5590 6250 c0 -5 7 -10 15 -10 8 0 15 5 15 10 0 6 -7 10 -15 10 -8 0
-15 -4 -15 -10z"/>
<path d="M5499 6224 c-30 -14 -71 -35 -92 -45 -21 -12 -46 -17 -57 -14 -14 4
-27 -2 -44 -19 -13 -15 -34 -26 -50 -26 -14 0 -34 -9 -43 -20 -10 -11 -25 -20
-34 -20 -10 0 -31 -8 -48 -17 -24 -15 -33 -15 -43 -5 -10 10 -8 14 10 18 12 4
22 13 22 22 0 12 -9 14 -47 8 -25 -3 -48 -8 -51 -10 -2 -3 3 -19 12 -36 l15
-31 -52 2 c-41 3 -53 0 -55 -13 -4 -20 -84 -23 -113 -5 -23 15 -65 -7 -82 -42
-18 -38 -64 -41 -77 -6 -8 21 -14 25 -33 19 -12 -3 -25 -12 -29 -18 -29 -48
-34 -50 -107 -50 -67 1 -72 0 -77 -22 -7 -26 -14 -30 -30 -14 -15 15 -64 -5
-64 -26 0 -13 6 -15 33 -10 17 4 47 7 66 7 18 -1 40 4 48 10 7 7 50 14 95 16
45 2 87 8 93 12 5 5 28 12 50 16 22 3 47 12 55 20 8 7 41 15 73 19 31 3 76 13
100 22 23 8 62 20 87 25 25 6 54 14 65 19 11 5 31 12 45 15 25 7 129 53 182
81 14 8 32 14 38 14 23 0 210 95 210 107 0 23 -18 22 -71 -3z m-671 -246 c-3
-7 -11 -13 -18 -13 -7 0 -15 6 -17 13 -3 7 4 12 17 12 13 0 20 -5 18 -12z
m-168 -58 c0 -5 -9 -10 -21 -10 -11 0 -17 5 -14 10 3 6 13 10 21 10 8 0 14 -4
14 -10z"/>
<path d="M3681 6121 c-10 -7 -10 -10 -1 -16 6 -4 16 -3 22 3 13 13 -4 23 -21
13z"/>
<path d="M5570 6120 c0 -5 7 -10 15 -10 8 0 15 5 15 10 0 6 -7 10 -15 10 -8 0
-15 -4 -15 -10z"/>
<path d="M1850 6110 c-12 -8 -12 -10 3 -16 21 -8 35 2 21 16 -5 5 -15 6 -24 0z"/>
<path d="M1937 6083 c-11 -19 13 -53 38 -53 31 0 32 16 3 41 -25 20 -35 23
-41 12z"/>
<path d="M1890 6070 c0 -5 7 -10 15 -10 8 0 15 5 15 10 0 6 -7 10 -15 10 -8 0
-15 -4 -15 -10z"/>
<path d="M4870 6062 c0 -10 22 -32 32 -32 4 0 8 9 8 20 0 13 -7 20 -20 20 -11
0 -20 -4 -20 -8z"/>
<path d="M2042 6029 c-11 -17 -11 -23 -1 -29 15 -10 61 18 56 34 -7 20 -42 17
-55 -5z"/>
<path d="M2277 6044 c-9 -9 4 -35 14 -28 5 3 9 12 9 20 0 14 -12 19 -23 8z"/>
<path d="M2130 5995 c0 -17 22 -29 41 -23 6 2 0 12 -15 21 -23 15 -26 16 -26
2z"/>
<path d="M5220 5970 c0 -5 9 -10 20 -10 11 0 20 5 20 10 0 6 -9 10 -20 10 -11
0 -20 -4 -20 -10z"/>
<path d="M11075 5949 c-9 -13 14 -89 27 -89 4 0 7 21 5 47 -3 46 -18 66 -32
42z"/>
<path d="M4245 5859 c-4 -6 -17 -14 -29 -19 -16 -7 -7 -9 35 -9 60 -1 71 3 62
25 -6 16 -59 19 -68 3z"/>
<path d="M4720 5853 c-14 -3 -45 -11 -70 -20 -25 -8 -80 -19 -122 -23 -83 -9
-102 -16 -92 -31 8 -14 194 1 219 17 11 8 34 14 52 14 20 0 42 9 59 25 l27 25
-24 -1 c-13 -1 -35 -4 -49 -6z"/>
<path d="M4046 5843 c-12 -12 -5 -23 14 -23 11 0 20 4 20 9 0 11 -26 22 -34
14z"/>
<path d="M4145 5830 c-18 -8 -17 -9 7 -9 15 -1 30 4 33 9 7 12 -12 12 -40 0z"/>
<path d="M11093 5810 c-17 -41 -26 -110 -14 -110 6 0 11 8 11 18 0 10 5 23 11
29 6 6 9 28 7 49 -4 38 -4 38 -15 14z"/>
<path d="M10953 5720 c0 -30 2 -43 4 -27 2 15 2 39 0 55 -2 15 -4 2 -4 -28z"/>
<path d="M11060 5643 c0 -10 3 -29 7 -41 4 -18 8 -20 14 -10 15 22 11 68 -6
68 -8 0 -15 -8 -15 -17z"/>
<path d="M11036 5455 c-3 -9 -2 -24 2 -32 8 -13 10 -13 16 2 3 9 2 24 -2 32
-8 13 -10 13 -16 -2z"/>
<path d="M11037 5394 c-10 -11 -8 -64 2 -64 14 0 23 37 14 55 -5 9 -12 12 -16
9z"/>
<path d="M10995 5111 c-4 -13 -17 -21 -37 -23 -26 -2 -33 -9 -43 -38 -11 -34
-14 -35 -79 -44 -44 -5 -71 -5 -78 2 -6 6 -19 6 -39 -1 -23 -9 -29 -17 -29
-42 0 -48 18 -100 44 -128 14 -15 37 -42 51 -62 15 -19 48 -45 74 -57 25 -13
52 -29 59 -35 7 -7 18 -13 23 -13 14 0 -3 94 -19 106 -24 18 -9 104 23 129 14
12 25 28 25 36 0 9 11 38 25 65 14 27 25 66 25 87 0 39 -15 50 -25 18z m-115
-326 c0 -8 -4 -15 -10 -15 -5 0 -10 7 -10 15 0 8 5 15 10 15 6 0 10 -7 10 -15z"/>
<path d="M12062 4957 c-5 -7 -17 -32 -26 -57 -10 -25 -23 -51 -29 -58 -8 -10
-7 -16 4 -23 17 -12 97 -3 115 12 14 12 34 4 34 -13 0 -5 11 -19 24 -29 47
-37 35 -149 -16 -149 -10 0 -31 -6 -46 -14 -15 -7 -67 -23 -117 -36 -83 -20
-96 -21 -163 -9 -70 13 -72 14 -52 29 19 15 20 18 6 29 -12 10 -14 23 -10 50
4 27 2 41 -10 50 -29 24 -19 39 27 38 82 -1 187 15 187 29 0 11 -25 14 -112
15 -62 1 -123 0 -135 -1 -28 -2 -30 16 -3 30 16 9 18 15 10 30 -5 10 -7 25 -4
33 3 9 -2 18 -14 21 -27 9 -54 -4 -48 -21 3 -8 1 -24 -5 -35 -8 -15 -8 -23 0
-31 9 -9 6 -16 -10 -28 -21 -16 -21 -17 -4 -43 16 -24 17 -33 6 -74 -7 -30 -9
-74 -5 -118 6 -67 5 -72 -17 -88 -20 -14 -22 -18 -9 -27 19 -13 319 -6 380 9
25 6 79 19 120 27 102 22 245 77 262 100 12 16 9 35 -5 35 -8 0 -22 9 -33 21
-12 14 -25 18 -41 14 -26 -6 -45 21 -23 35 8 5 10 18 5 38 -5 24 -2 33 14 41
16 9 19 20 17 63 -2 46 -6 54 -30 63 -14 6 -33 20 -40 31 -13 18 -27 20 -104
22 -60 1 -93 -3 -100 -11z m288 -327 c0 -5 -9 -10 -20 -10 -11 0 -20 5 -20 10
0 6 9 10 20 10 11 0 20 -4 20 -10z"/>
<path d="M11800 4930 l-25 -7 28 -8 c30 -8 47 0 31 14 -5 4 -20 5 -34 1z"/>
<path d="M11955 4930 c-3 -6 1 -13 10 -16 19 -8 30 0 20 15 -8 14 -22 14 -30
1z"/>
<path d="M11003 4673 c-50 -5 -54 -14 -15 -38 38 -25 71 -66 72 -90 0 -11 4
-25 8 -31 11 -16 90 -54 112 -54 11 0 28 -12 38 -28 30 -48 65 -92 74 -92 5 0
25 -11 46 -24 23 -14 66 -27 112 -34 41 -6 95 -15 120 -21 34 -7 50 -6 65 3
16 11 28 11 62 1 35 -10 44 -10 54 1 6 7 32 16 57 19 64 9 132 35 132 51 0 10
-20 11 -92 7 -51 -3 -96 -11 -100 -16 -3 -6 -19 -11 -35 -13 -15 -1 -46 -5
-68 -9 -35 -6 -45 -3 -79 24 -46 37 -77 47 -104 32 -25 -13 -82 -4 -111 19
-19 13 -22 23 -17 44 8 34 36 34 73 0 22 -21 35 -25 61 -20 49 7 63 22 51 50
-9 19 -26 26 -97 40 -48 9 -103 19 -122 22 -34 5 -48 10 -141 53 -25 12 -51
21 -56 21 -19 0 -48 42 -45 66 2 13 0 23 -5 22 -4 -1 -27 -3 -50 -5z"/>
<path d="M10790 4660 c0 -5 9 -10 21 -10 11 0 17 5 14 10 -3 6 -13 10 -21 10
-8 0 -14 -4 -14 -10z"/>
<path d="M10857 4573 c-2 -10 -5 -172 -6 -360 l-2 -341 30 -58 c17 -31 31 -65
31 -74 0 -38 185 -222 204 -202 18 17 4 62 -27 88 -76 65 -107 97 -107 109 0
3 23 5 50 5 57 0 62 10 20 42 -31 22 -40 64 -20 84 12 12 -1 57 -19 69 -18 10
-13 35 10 54 25 20 19 56 -12 66 -27 9 -26 61 1 68 13 3 20 14 20 30 0 13 -9
34 -20 47 -11 13 -20 29 -20 37 0 7 -6 13 -14 13 -11 0 -14 -11 -13 -41 3 -53
-12 -58 -55 -20 -37 33 -35 40 14 50 57 12 44 67 -27 107 -17 9 -15 12 19 32
33 19 37 26 32 49 -5 19 -2 31 13 45 12 10 21 22 21 26 0 4 -19 26 -41 50 -43
44 -75 54 -82 25z m74 -84 c10 -20 9 -21 -17 -15 -35 9 -38 12 -29 25 10 18
34 12 46 -10z m40 -413 c8 -17 8 -29 -1 -46 l-12 -22 -34 33 c-41 40 -42 46
-6 52 15 2 30 5 35 6 4 0 12 -10 18 -23z m4 -177 c14 -29 24 -54 21 -56 -2 -2
-16 7 -31 21 -16 15 -32 26 -36 26 -12 0 -31 39 -24 50 16 26 45 8 70 -41z"/>
<path d="M5245 4569 c-4 -6 -5 -13 -1 -16 8 -8 56 6 56 17 0 13 -47 13 -55 -1z"/>
<path d="M5054 4496 c-10 -8 -16 -18 -12 -22 10 -9 58 12 58 26 0 14 -23 12
-46 -4z"/>
<path d="M12315 4460 c-27 -16 -60 -29 -73 -30 -32 0 -89 -26 -126 -56 -40
-33 -135 -94 -147 -94 -5 0 -9 -5 -9 -10 0 -20 32 -23 60 -6 16 9 42 16 59 16
17 0 31 4 31 10 0 5 12 13 28 16 15 4 46 17 70 30 23 13 50 24 58 24 8 0 29 7
46 16 40 21 58 6 35 -30 -9 -14 -14 -32 -11 -40 9 -22 -22 -31 -52 -15 -22 12
-27 10 -49 -12 -38 -38 -53 -49 -68 -49 -8 0 -26 -9 -40 -20 -14 -11 -30 -20
-35 -20 -5 0 -15 -6 -22 -14 -6 -8 -28 -16 -48 -18 -20 -2 -37 -7 -37 -13 0
-31 142 -3 200 40 33 25 103 50 112 41 4 -3 12 -1 20 6 10 8 17 8 25 0 16 -16
3 -40 -24 -44 -13 -2 -24 -11 -26 -23 -2 -11 -10 -27 -17 -35 -8 -8 -17 -28
-20 -45 -4 -16 -17 -38 -29 -47 -21 -17 -21 -17 -1 -24 22 -8 35 -23 35 -40 0
-21 -75 -92 -106 -98 -30 -7 -128 -89 -118 -99 8 -7 44 4 44 14 0 5 8 9 18 9
11 0 35 16 55 35 26 25 45 35 67 35 25 0 30 -4 27 -17 -3 -10 -8 -30 -11 -46
-7 -28 -55 -57 -120 -72 -31 -7 -96 -69 -96 -92 0 -18 25 -16 40 2 7 8 18 15
25 15 7 0 35 18 61 40 27 22 59 40 72 40 21 0 23 -3 17 -27 -11 -47 -48 -92
-80 -99 -48 -9 -115 -36 -115 -45 0 -5 -8 -9 -17 -9 -9 0 -24 -6 -32 -14 -48
-40 -345 -51 -501 -17 -52 12 -106 21 -120 21 -14 0 -38 7 -53 15 -31 16 -51
19 -114 17 -31 -2 -43 -6 -43 -17 0 -8 9 -15 19 -15 11 0 26 -8 33 -18 7 -10
45 -27 83 -39 115 -34 271 -47 490 -38 127 4 195 3 195 -3 0 -20 29 -20 53 -1
14 10 36 19 50 19 47 0 110 68 87 95 -9 11 -5 15 25 21 24 4 49 20 75 48 89
96 98 118 106 276 2 47 7 97 10 112 3 15 2 41 -4 57 -8 23 -7 32 4 42 17 14
18 43 2 68 -9 15 -8 26 5 54 21 43 21 50 2 86 -13 26 -13 30 0 41 28 23 13
121 -18 120 -7 -1 -34 -14 -62 -30z m-5 -389 c0 -24 -18 -37 -32 -23 -8 8 -7
16 2 27 17 21 30 19 30 -4z m-299 -554 c-1 -12 -15 -9 -19 4 -3 6 1 10 8 8 6
-3 11 -8 11 -12z"/>
<path d="M11022 4462 c-7 -2 -12 -7 -12 -12 0 -12 93 -100 106 -100 7 0 30
-18 53 -40 48 -47 55 -89 19 -114 -35 -25 -9 -39 74 -42 67 -1 169 -20 193
-35 20 -13 75 -20 97 -13 l22 7 -22 18 c-21 17 -21 18 -5 28 14 8 16 14 7 28
-8 13 -29 20 -80 25 -94 10 -98 11 -194 56 -60 28 -100 59 -100 78 0 25 -134
124 -158 116z"/>
<path d="M4871 4440 c-13 -11 -36 -20 -52 -20 -15 0 -31 -4 -34 -10 -3 -5 -33
-10 -66 -10 -44 0 -61 -4 -65 -15 -4 -10 -21 -15 -54 -15 -33 0 -50 -5 -54
-15 -4 -11 -22 -15 -73 -15 -47 0 -76 -5 -92 -16 -15 -11 -33 -14 -53 -10 -30
6 -58 -7 -58 -26 0 -16 187 12 320 47 30 8 75 20 100 26 127 30 285 89 241 89
-5 0 -15 2 -23 5 -7 2 -24 -4 -37 -15z"/>
<path d="M2474 4442 c3 -5 24 -17 48 -26 24 -10 58 -24 76 -32 18 -8 42 -14
53 -14 11 0 29 -5 40 -11 39 -21 280 -79 330 -79 14 0 30 -5 35 -10 9 -9 158
-27 262 -31 25 -2 577 -1 687 0 40 0 56 5 72 23 l22 23 -82 -3 c-45 -2 -102
-10 -126 -17 -24 -8 -48 -12 -54 -8 -14 8 -53 11 -207 13 -69 1 -154 5 -190
10 -36 5 -108 10 -160 10 -52 1 -109 7 -127 13 -24 8 -35 8 -48 -3 -13 -11
-19 -10 -36 6 -12 11 -45 21 -82 26 -116 15 -172 27 -282 58 -60 17 -129 34
-152 37 -24 3 -43 10 -43 14 0 5 -9 9 -21 9 -11 0 -18 -4 -15 -8z"/>
<path d="M10971 4377 c-14 -18 -3 -89 17 -104 45 -36 69 2 32 50 -11 14 -20
32 -20 40 0 22 -16 29 -29 14z"/>
<path d="M4200 4300 c-14 -4 -38 -11 -55 -15 -29 -6 -29 -7 -10 -21 24 -18 92
-10 115 12 13 13 13 16 0 24 -17 11 -17 11 -50 0z"/>
<path d="M11093 4216 c27 -25 57 -34 57 -18 0 6 -26 20 -75 39 -5 3 3 -7 18
-21z"/>
<path d="M11738 4174 c-27 -8 -48 -18 -48 -22 0 -15 42 -33 61 -27 11 4 27 1
35 -6 12 -9 23 -9 57 1 23 7 48 14 55 16 17 5 15 41 -4 48 -27 10 -107 5 -156
-10z"/>
<path d="M11209 4118 c-6 -13 -21 -33 -33 -46 -20 -23 -21 -24 -2 -37 10 -8
24 -16 30 -18 8 -3 7 -15 -3 -42 -12 -34 -11 -39 7 -57 14 -14 38 -21 83 -25
35 -2 78 -10 94 -18 80 -34 167 -46 180 -25 8 14 -75 96 -84 83 -3 -6 -31 -13
-62 -16 -53 -5 -59 -3 -85 24 -15 16 -32 29 -37 29 -5 0 -21 13 -36 29 l-28
30 25 6 c25 6 116 -19 141 -39 11 -8 15 -8 18 2 6 16 23 15 37 -2 21 -27 53
-28 82 -3 28 24 28 25 11 51 -17 25 -21 26 -70 20 -29 -4 -58 -11 -64 -16 -9
-7 -15 -5 -19 6 -3 9 -12 16 -18 16 -19 0 -91 37 -106 54 -18 23 -47 20 -61
-6z"/>
<path d="M12100 4075 c-19 -19 -41 -35 -50 -35 -9 0 -27 -12 -41 -26 l-24 -26
30 5 c17 3 50 9 74 13 51 7 82 37 78 74 -3 37 -28 35 -67 -5z"/>
<path d="M11778 4032 c-22 -10 -37 -23 -35 -31 1 -8 -9 -18 -23 -21 -21 -6
-22 -8 -8 -15 10 -4 39 0 65 9 25 9 60 16 77 16 46 0 61 13 47 39 -14 26 -68
27 -123 3z"/>
<path d="M12145 3990 c-3 -5 -17 -10 -30 -10 -18 0 -26 -7 -31 -25 -7 -30 -49
-65 -75 -65 -11 0 -19 -7 -19 -16 0 -12 9 -14 43 -12 35 2 43 7 45 26 2 13 20
33 42 48 21 14 41 32 44 40 6 16 -10 29 -19 14z"/>
<path d="M11825 3910 c-11 -4 -30 -6 -43 -3 -13 3 -30 -1 -40 -9 -9 -8 -25
-18 -34 -21 -21 -7 -24 -27 -5 -28 6 0 46 -2 87 -4 58 -3 79 0 93 12 22 21 22
40 -2 53 -23 12 -29 12 -56 0z m-14 -43 c-13 -13 -26 -3 -16 12 3 6 11 8 17 5
6 -4 6 -10 -1 -17z"/>
<path d="M11195 3850 c-4 -6 -4 -24 0 -40 5 -22 14 -32 33 -36 15 -3 36 -9 47
-14 11 -5 38 -12 60 -15 22 -4 45 -10 50 -15 14 -11 148 -22 168 -14 24 9 21
23 -7 34 -13 5 -27 18 -31 29 -6 19 -12 20 -63 15 -47 -5 -65 -3 -97 15 -22
11 -49 21 -61 21 -12 0 -24 7 -28 15 -6 17 -61 21 -71 5z"/>
<path d="M11728 3762 c-40 -3 -50 -19 -20 -28 9 -3 26 -10 37 -15 13 -7 30 -7
46 -1 14 6 37 8 51 5 14 -3 29 0 32 6 4 6 31 11 59 11 48 1 51 2 32 16 -19 14
-120 17 -237 6z"/>
<path d="M11190 3693 c0 -24 7 -33 35 -46 20 -9 47 -17 61 -17 13 0 40 -6 58
-14 18 -7 53 -17 77 -21 24 -4 51 -13 60 -21 12 -10 31 -12 77 -8 67 7 75 24
12 24 -37 0 -66 20 -42 28 39 13 -17 40 -100 49 -33 3 -65 11 -72 18 -6 7 -34
15 -61 19 -28 4 -62 9 -77 12 -25 5 -28 3 -28 -23z"/>
<path d="M11830 3639 c-19 -6 -42 -11 -50 -13 -55 -11 -80 -20 -80 -27 0 -5
14 -9 31 -9 16 0 50 -5 74 -11 43 -11 45 -10 76 21 26 25 30 34 18 41 -16 10
-22 10 -69 -2z"/>
<path d="M11890 3440 c-11 -7 -12 -12 -3 -21 14 -14 46 -4 41 13 -6 16 -20 19
-38 8z"/>
<path d="M11485 3401 c-35 -14 39 -21 168 -16 64 3 125 5 134 5 9 0 14 2 11 5
-9 9 -292 15 -313 6z"/>
</g>
</svg>
